<svg width="39" height="38" viewBox="0 0 39 38" fill="none" xmlns="http://www.w3.org/2000/svg">
<path d="M19.2154 9.57172C22.2859 9.57172 22.6493 9.5838 23.862 9.639C24.9832 9.69075 25.5927 9.87762 25.9975 10.0346C26.5346 10.2433 26.9175 10.4929 27.32 10.8948C27.7225 11.2973 27.9721 11.6803 28.1802 12.2173C28.3378 12.6227 28.5252 13.2316 28.5758 14.3528C28.631 15.5649 28.6431 15.9289 28.6431 19C28.6431 22.0705 28.6316 22.4339 28.5758 23.6466C28.5246 24.7678 28.3378 25.3773 28.1802 25.7821C27.9715 26.3192 27.7219 26.7021 27.32 27.1046C26.9175 27.5071 26.5346 27.7567 25.9975 27.9648C25.5921 28.1224 24.9832 28.3098 23.862 28.3604C22.6499 28.4156 22.2865 28.4277 19.2154 28.4277C16.1449 28.4277 15.7803 28.4162 14.5682 28.3604C13.447 28.3092 12.8381 28.1224 12.4327 27.9648C11.8956 27.7561 11.5127 27.5065 11.1102 27.1046C10.7077 26.7021 10.4581 26.3192 10.25 25.7821C10.093 25.3767 9.90557 24.7678 9.85439 23.6466C9.79919 22.4345 9.78712 22.0711 9.78712 19C9.78712 15.9295 9.79919 15.5655 9.85439 14.3528C9.90614 13.2316 10.093 12.6227 10.25 12.2173C10.4587 11.6803 10.7083 11.2973 11.1102 10.8948C11.5127 10.4923 11.8956 10.2427 12.4327 10.0346C12.8381 9.87762 13.447 9.69018 14.5682 9.639C15.7815 9.5838 16.1443 9.57172 19.2154 9.57172ZM19.2154 7.5C16.092 7.5 15.7004 7.51322 14.4739 7.569C13.2498 7.62535 12.4137 7.8197 11.6823 8.10375C10.915 8.39242 10.2199 8.84514 9.64567 9.43028C9.06048 10.0047 8.60776 10.7 8.31914 11.4675C8.03509 12.1978 7.84074 13.0344 7.78439 14.2585C7.72919 15.485 7.71539 15.8766 7.71539 19C7.71539 22.1228 7.72862 22.515 7.78439 23.7414C7.84074 24.965 8.03509 25.8011 8.31914 26.5325C8.60774 27.3 9.06046 27.9953 9.64567 28.5697C10.2202 29.1548 10.9154 29.6075 11.6829 29.8962C12.4137 30.1803 13.2503 30.3747 14.4739 30.431C15.7004 30.4868 16.0926 30.5 19.2154 30.5C22.3388 30.5 22.7304 30.4868 23.9574 30.431C25.181 30.3747 26.0171 30.1803 26.7485 29.8962C27.516 29.6076 28.2113 29.1549 28.7857 28.5697C29.3706 27.9952 29.8231 27.2999 30.1116 26.5325C30.3963 25.8011 30.5906 24.965 30.6464 23.7414C30.7027 22.515 30.7154 22.1228 30.7154 19C30.7154 15.8766 30.7027 15.485 30.6464 14.2585C30.5906 13.0344 30.3963 12.1983 30.1116 11.4669C29.8231 10.6996 29.3706 10.0046 28.7857 9.43028C28.211 8.8451 27.5156 8.39239 26.7479 8.10375C26.0165 7.8197 25.1804 7.62535 23.9568 7.569C22.7304 7.5138 22.3376 7.5 19.2154 7.5Z" fill="white"/>
<path d="M19.2154 13.0948C15.9528 13.0948 13.3101 15.7386 13.3101 19C13.3101 22.2608 15.954 24.9053 19.2154 24.9053C22.4756 24.9053 25.12 22.2608 25.12 19C25.12 15.7386 22.4773 13.0948 19.2154 13.0948ZM19.2154 22.833C18.712 22.833 18.2135 22.7338 17.7485 22.5412C17.2834 22.3485 16.8608 22.0662 16.5049 21.7102C16.1489 21.3543 15.8666 20.9317 15.6739 20.4666C15.4813 20.0016 15.3821 19.5031 15.3821 18.9997C15.3821 18.4963 15.4813 17.9979 15.6739 17.5328C15.8666 17.0677 16.1489 16.6452 16.5049 16.2892C16.8608 15.9333 17.2834 15.6509 17.7485 15.4583C18.2135 15.2656 18.712 15.1665 19.2154 15.1665C20.232 15.1665 21.207 15.5703 21.9259 16.2892C22.6448 17.0081 23.0486 17.9831 23.0486 18.9997C23.0486 20.0164 22.6448 20.9914 21.9259 21.7102C21.207 22.4291 20.232 22.833 19.2154 22.833ZM25.3541 14.2407C25.5353 14.2407 25.7147 14.205 25.8822 14.1357C26.0496 14.0663 26.2017 13.9647 26.3299 13.8365C26.458 13.7084 26.5597 13.5563 26.629 13.3888C26.6984 13.2214 26.7341 13.042 26.7341 12.8607C26.7341 12.6795 26.6984 12.5001 26.629 12.3326C26.5597 12.1652 26.458 12.0131 26.3299 11.8849C26.2017 11.7568 26.0496 11.6551 25.8822 11.5858C25.7147 11.5164 25.5353 11.4807 25.3541 11.4807C24.9881 11.4807 24.6371 11.6261 24.3783 11.8849C24.1195 12.1437 23.9741 12.4947 23.9741 12.8607C23.9741 13.2267 24.1195 13.5777 24.3783 13.8365C24.6371 14.0953 24.9881 14.2407 25.3541 14.2407Z" fill="white"/>
</svg>
