<svg width="49" height="38" viewBox="0 0 49 38" fill="none" xmlns="http://www.w3.org/2000/svg">
<path d="M32.5081 12.8938C30.3747 12.8938 28.6386 11.0338 28.6386 8.74792C28.6386 8.39508 28.3723 8.10976 28.043 8.10976H24.8529C24.5246 8.10976 24.2578 8.39508 24.2578 8.74792V22.7593C24.2571 23.4056 24.0172 24.0253 23.5907 24.4823C23.1641 24.9393 22.5858 25.1964 21.9826 25.1971C21.3794 25.1962 20.8012 24.9391 20.3748 24.4821C19.9483 24.0251 19.7085 23.4055 19.7078 22.7593C19.7083 22.113 19.9482 21.4934 20.3746 21.0364C20.8011 20.5793 21.3794 20.3222 21.9826 20.3215C22.3119 20.3215 22.5782 20.0362 22.5782 19.6839V16.266C22.5782 15.9137 22.3119 15.6278 21.9826 15.6278C18.3128 15.6278 15.327 18.8268 15.327 22.7593C15.327 26.6918 18.3128 29.8902 21.9826 29.8902C25.6524 29.8902 28.6386 26.6912 28.6386 22.7593V16.5573C29.8296 17.237 31.1588 17.5909 32.5081 17.5875C32.8374 17.5875 33.1037 17.3022 33.1037 16.9494V13.532C33.1037 13.1797 32.8374 12.8938 32.5081 12.8938Z" fill="white"/>
</svg>
