<svg width="45" height="38" viewBox="0 0 45 38" fill="none" xmlns="http://www.w3.org/2000/svg">
<path d="M17.2276 30.5C27.3549 30.5 32.9031 21.6486 32.9031 13.9842C32.9031 13.7342 32.9031 13.4842 32.8899 13.2343C33.9697 12.4115 34.9004 11.3909 35.6375 10.2213C34.6303 10.6912 33.562 11.0001 32.4682 11.1376C33.6206 10.4129 34.4825 9.27016 34.8924 7.92369C33.8138 8.60616 32.6296 9.08313 31.3939 9.33274C30.879 8.75325 30.2564 8.29152 29.5649 7.97623C28.8735 7.66095 28.1278 7.49885 27.3744 7.50001C24.3372 7.50001 21.8658 10.1032 21.8658 13.3039C21.8658 13.7548 21.9187 14.1997 22.0043 14.6294C17.4315 14.3933 13.3729 12.0752 10.6516 8.56224C10.1645 9.45058 9.9098 10.4591 9.91343 11.4851C9.91337 12.4407 10.137 13.3816 10.5646 14.2245C10.9922 15.0673 11.6105 15.786 12.3647 16.3169C11.4921 16.2857 10.6387 16.0383 9.87379 15.5948V15.6711C9.87379 18.4758 11.7781 20.8291 14.2886 21.3636C13.8273 21.5028 13.3464 21.5651 12.8392 21.5651C12.483 21.5651 12.1406 21.5306 11.8046 21.461C12.1551 22.6148 12.8401 23.6239 13.7631 24.3463C14.6862 25.0687 15.801 25.4681 16.9507 25.4884C15.0004 27.1089 12.5885 27.9894 10.1047 27.9876C9.66296 27.9876 9.22177 27.9664 8.79321 27.9113C11.3138 29.6017 14.2397 30.4997 17.2276 30.5Z" fill="white"/>
</svg>
