<svg width="25" height="24" viewBox="0 0 25 24" fill="none" xmlns="http://www.w3.org/2000/svg">
<path d="M13.5 7L12.3845 4.76892C12.0634 4.1268 11.9029 3.80573 11.6634 3.57116C11.4516 3.36373 11.1963 3.20597 10.9161 3.10931C10.5992 3 10.2402 3 9.52229 3H5.7C4.5799 3 4.01984 3 3.59202 3.21799C3.21569 3.40973 2.90973 3.71569 2.71799 4.09202C2.5 4.51984 2.5 5.0799 2.5 6.2V7M2.5 7H17.7C19.3802 7 20.2202 7 20.862 7.32698C21.4265 7.6146 21.8854 8.07354 22.173 8.63803C22.5 9.27976 22.5 10.1198 22.5 11.8V16.2C22.5 17.8802 22.5 18.7202 22.173 19.362C21.8854 19.9265 21.4265 20.3854 20.862 20.673C20.2202 21 19.3802 21 17.7 21H7.3C5.61984 21 4.77976 21 4.13803 20.673C3.57354 20.3854 3.1146 19.9265 2.82698 19.362C2.5 18.7202 2.5 17.8802 2.5 16.2V7Z" stroke="white" stroke-width="2" stroke-linecap="round" stroke-linejoin="round"/>
<path d="M14.6313 15.3992C14.5186 15.5268 14.4002 15.6527 14.2764 15.7765C12.4865 17.5664 10.2441 18.2259 9.26775 17.2496C8.59842 16.5803 8.69796 15.3158 9.40349 14.0101M10.3707 12.6355C10.488 12.5021 10.6115 12.3703 10.7409 12.2409C12.5308 10.451 14.7733 9.79147 15.7496 10.7678C16.4194 11.4376 16.3192 12.7033 15.6124 14.01M14.2764 12.2409C16.0663 14.0308 16.7259 16.2733 15.7496 17.2496C14.7733 18.2259 12.5308 17.5664 10.7409 15.7765C8.95099 13.9866 8.29144 11.7441 9.26775 10.7678C10.2441 9.79147 12.4865 10.451 14.2764 12.2409ZM12.9167 14C12.9167 14.2301 12.7301 14.4167 12.5 14.4167C12.2699 14.4167 12.0833 14.2301 12.0833 14C12.0833 13.7699 12.2699 13.5833 12.5 13.5833C12.7301 13.5833 12.9167 13.7699 12.9167 14Z" stroke="white" stroke-linecap="round" stroke-linejoin="round"/>
</svg>
