<svg width="512" height="512" viewBox="0 0 512 512" fill="none" xmlns="http://www.w3.org/2000/svg">
<path d="M108.714 5.21667L170.903 52.5031C174.285 54.9915 177.551 56.9085 181.447 58.4717C181.737 58.588 182.851 59.1378 183.102 59.1191C183.307 59.1038 186.097 56.3824 186.517 56.0174L194.538 49.3872L216.746 31.7689C222.895 26.9882 228.932 22.0343 235.841 18.3678C240.131 16.0904 244.894 14.6298 249.694 13.9306C256.273 12.9722 263.893 13.2411 270.19 15.5261C279.463 18.8911 287.751 26.0931 295.395 32.1833L317.616 50.3469L329.033 59.6252C331.072 58.9911 332.852 58.0781 334.653 56.9508C339.912 53.6598 344.794 49.4592 349.703 45.6585L378.678 22.9177C386.622 16.695 394.742 10.5236 403.297 5.16196L414.239 28.5836C417.715 36.9429 420.623 45.4814 422.582 54.3306C425.464 67.3442 426.356 80.5334 426.261 93.832C426.165 107.362 424.947 121.181 421.996 134.388C419.712 144.605 416.309 154.628 412.328 164.302C412.782 168.361 413.863 172.385 414.803 176.354C418.304 191.139 422.902 207.25 431.839 219.755C435.83 225.339 440.704 229.818 445.914 234.213L455.502 241.949C461.38 246.955 466.702 252.412 470.887 258.951C483.828 279.171 479.566 304.291 474.698 326.337C475.603 326.527 476.883 326.246 477.804 326.094C484.36 325.016 493.497 322.95 497.54 317.21L497.766 316.885C496.687 321.679 496.188 326.499 494.48 331.147C490.51 341.945 483.001 352.92 473.518 359.621C471.132 361.307 468.54 362.526 465.902 363.751L474.149 363.329C477.508 363.18 480.346 363.29 483.494 361.965L466.958 378.598C453.572 391.459 438.662 401.884 422.148 410.305L401.926 419.791L374.072 430.546C363.94 434.606 354.164 439.215 344.472 444.238L285.642 476.544L268.32 486.809C264.617 489.039 260.584 491.908 256.541 493.405C253.857 492.533 251.118 490.59 248.625 489.245L233.22 481.078L195.083 461.472L159.724 442.326L113.75 419.607C99.4887 412.756 84.7187 405.845 71.4174 397.241C61.1151 390.576 51.3776 382.865 42.3509 374.556C38.1153 370.658 34.1891 366.252 29.8049 362.556L29.4967 362.298C34.6559 364.083 40.0607 363.676 45.4047 363.006L40.074 359.521C32.3215 353.965 26.1373 347.188 21.3683 338.891C19.4998 335.641 17.8014 332.258 16.7697 328.639C15.6561 324.732 15.3508 320.644 14.6922 316.645L15.2135 317.329C16.8637 319.387 18.8025 320.355 21.1605 321.387C26.2855 323.632 32.1233 324.854 37.6621 325.497L34.886 314.202C33.5933 308.256 32.7689 302.043 32.5436 295.953C32.2842 288.941 32.7585 281.814 34.6303 275.029C38.2287 261.987 46.7941 251.3 56.792 242.502C63.9587 236.195 71.3207 230.415 77.3934 222.956C87.1307 210.995 92.838 196.694 96.6787 181.871L99.33 170.132C99.708 168.377 100.474 166.084 100.325 164.299C100.217 163.016 99.5714 161.722 99.0807 160.548L96.6807 154.589L93.056 143.053C88.534 126.477 86.562 110.052 86.4447 92.8855C86.3807 83.449 86.7647 74.0801 88.21 64.7437C90.5807 49.4326 95.0287 35.1685 101.338 21.0584C103.708 15.7593 106.825 10.7101 108.714 5.21667Z" fill="#030713"/>
<path d="M109.848 39.8683C110.773 36.608 112.772 33.2133 114.302 30.184L114.625 30.3137L115.196 31.7127L115.085 32.2132C114.909 33.0474 114.901 33.8957 114.875 34.7447L114.679 34.8549C113.387 35.6193 112.126 38.0003 111.063 39.2376L111.125 38.8258C111.159 38.4213 111.2 38.5247 111.002 38.3211L110.801 38.7913C110.567 39.318 110.328 39.5425 109.848 39.8683Z" fill="url(#paint0_linear_1201_3)"/>
<path d="M165.323 56.9264C167.691 58.3567 170.403 60.1825 173.097 60.8733L171.557 77.4714C171.381 80.506 171.479 83.6828 170.9 86.67C169.124 85.4236 167.253 84.139 165.704 82.6174C165.986 82.2039 166.059 81.9548 166.089 81.4525C166.263 78.4934 165.754 75.4775 165.711 72.5163C165.637 67.4391 166.245 61.9085 165.323 56.9264Z" fill="#2A2B36"/>
<path d="M32.2599 341.758C29.285 338.353 26.909 334.719 24.7703 330.742C30.9615 332.645 37.0836 333.996 43.5808 334.168L44.3387 334.61L44.3284 335.051C44.3025 338.528 45.9682 341.485 46.3029 344.862C46.3695 345.534 46.5243 346.236 46.1861 346.85L38.0787 344.052C36.1639 343.317 34.2377 342.242 32.2599 341.758Z" fill="#66D4FF"/>
<path d="M111.903 153.238L113.125 154.93C114.245 154.923 117.054 151.697 117.913 150.787C118.569 150.092 117.983 150.772 118.437 149.98C118.915 149.151 119.909 148.635 120.437 147.726L121.25 146.912L121.251 146.599C121.796 146.11 122.071 145.847 122.437 145.221C122.727 144.725 123.142 144.56 123.437 143.969C123.573 143.699 123.837 143.431 124.023 143.202C124.303 142.859 124.513 142.522 124.75 142.152C125.045 141.693 124.935 141.863 125.269 141.452C125.551 141.108 125.761 140.772 126 140.4L127.504 138.149L127.965 137.358C128.319 136.698 128.805 136.114 129.187 135.452L129.5 135.014L129.735 134.654L131 132.885L131.437 132.321C131.107 132.084 131.115 132.041 130.707 132.004C130.052 131.944 128.597 131.345 128 131.006L125.34 129.663C124.457 129.261 123.805 128.58 122.875 128.251L123.123 128.877C122.458 129.409 122.359 129.385 121.5 129.442L122.123 130.129L122.063 130.693L122.437 130.943L122.625 130.633C122.993 131.002 123.121 130.96 123.125 131.507C123.418 132.031 123.735 132.431 124.123 132.885C124.123 133.726 123.73 133.618 123.873 134.638L123.25 135.139L123.249 135.452L123.061 135.765L122.875 136.139L122.5 136.141L122.499 136.515L122 136.642L121.999 137.016C121.709 137.016 121.862 137.054 121.563 136.83C121.119 137.305 120.887 137.71 120.25 137.895L120.249 138.269L119.75 138.646L119.749 138.959L119.563 139.209L119.873 139.523V140.148L119.5 140.336L119.125 140.024L118.751 140.022C118.363 139.615 118.351 139.519 118.125 139.022L117.939 138.771L117.75 138.396H117.5L119 141.527L119.055 141.754C119.282 142.665 120.418 143.78 120.125 144.655C119.738 144.2 119.51 143.814 119.251 143.279L114.627 134.012L114.501 133.699L113.501 131.506L113.001 130.442L112.876 130.2C112.563 129.572 112.972 130.403 112.627 129.503L112.001 127.999L111.251 126.245L110.743 124.766C110.441 123.712 110.854 125.029 110.377 123.992C110.161 123.521 110.185 123.204 109.877 122.74L109.875 122.239L109.627 121.988L109.587 121.798L108.491 118.662C108.233 118.015 107.879 116.903 107.875 116.227L107.627 115.977L107.58 115.772C107.101 113.866 106.302 112.018 105.814 110.098C105.657 109.485 105.589 109.084 105.751 108.463H105.937L106.127 108.838C106.18 108.122 106.207 107.409 106.375 106.708L106.873 106.834C106.945 107.254 106.921 107.548 106.941 107.961C106.993 109.01 107.895 110.441 108.375 111.366C111.793 117.96 116.929 123.574 123.044 127.748C125.923 129.713 128.848 131.178 132.245 132.011C127.202 138.401 123.449 145.455 117.731 151.388C116.292 152.882 114.819 154.511 113.097 155.674C112.5 154.857 112.133 154.229 111.903 153.238Z" fill="#2A2B36"/>
<path d="M130.562 85.7155C138.327 90.8809 145.799 94.3096 155.357 92.3511L157.511 91.8307C158.241 91.79 159.257 91.3304 159.962 91.0953L165.462 89.1061L167.953 90.1995L150.999 110.212C150.577 109.131 150.266 107.963 149.625 106.989C145.636 100.934 140.576 95.9481 135.375 90.9523C134.086 89.7146 132.596 88.6024 131.372 87.3193C130.951 86.8777 130.749 86.2846 130.562 85.7155Z" fill="#2A2B36"/>
<path d="M381.913 85.1357C381.89 85.3795 381.907 86.1129 381.807 86.2939C381.379 87.0661 380.034 88.0012 379.375 88.6746C375.117 93.0297 370.351 96.9875 366.36 101.588C363.895 104.431 361.77 107.475 359.979 110.782C358.197 108.03 344.806 91.9683 344.797 91.4854C345.41 90.9336 345.99 90.3037 346.77 90.0032L355.948 92.4172C357.416 92.7532 358.954 92.7084 360.452 92.6924C368.139 92.6109 375.516 89.1441 381.913 85.1357Z" fill="url(#paint1_linear_1201_3)"/>
<path d="M116.434 34.109C120.174 39.8432 123.389 45.9537 127.289 51.5758C134.662 62.2055 143.333 70.5679 153.115 78.9322L165.462 89.1061L159.962 91.0953C159.257 91.3304 158.241 91.79 157.511 91.8308L157.475 91.3097C154.659 90.5269 152.039 87.6152 149.902 85.6781C144.878 81.1238 139.951 76.4975 135.685 71.2045C132.785 67.6068 130.473 63.6869 128.067 59.7559C124.057 53.2007 120.133 46.7996 117.635 39.4838C117.023 37.6892 116.234 36.0308 116.434 34.109Z" fill="url(#paint2_linear_1201_3)"/>
<path d="M387.116 47.9238L396.947 29.4774L397.288 29.5029L397.668 30.3135L396.304 33.4318C396.1 33.8406 396.081 33.9994 396.105 34.4423L395.682 34.988L390.337 47.1063C384.995 61.8526 376.227 74.2778 364.746 84.8137L359.863 88.8663C358.413 89.9744 356.948 90.8308 355.948 92.4172L346.77 90.0032C352.462 85.7682 357.842 81.0998 363.052 76.2884C372.321 67.7283 380.577 58.7773 387.116 47.9238Z" fill="url(#paint3_linear_1201_3)"/>
<path d="M413.496 49.6007C416.422 57.8552 417.55 67.4504 418.26 76.1488C420.326 101.433 418.821 127.088 409.233 150.847L406.565 157.057C406.169 157.977 405.831 159.279 405.29 160.096L405.12 160.27L398.838 154.394C400.648 150.901 402.288 147.437 403.756 143.785C404.471 142.007 405.354 140.168 405.605 138.258L405.579 138.215C405.58 137.694 405.556 137.366 405.794 136.889C406.173 136.129 406.531 135.403 406.698 134.56L406.878 133.761L407.126 133.511L407.128 133.01C407.526 132.608 407.516 132.055 407.628 131.507L407.875 131.256L407.878 130.755C408.316 130.095 408.3 129.481 408.502 128.753C408.619 128.33 408.684 127.619 408.878 127.249C409.171 126.688 409.126 126.635 409.128 125.996C409.528 125.493 409.576 125.113 409.607 124.485L409.628 123.992C410 123.616 409.876 123.499 409.878 122.99C410.281 122.582 410.126 122.291 410.128 121.738C410.5 121.361 410.376 121.244 410.378 120.736C410.645 120.389 410.7 120.242 410.759 119.793L411 118.357C411.118 117.918 411.209 117.793 411.17 117.315L411.128 116.979C411.58 116.52 411.287 115.872 411.689 115.225C411.636 114.749 411.595 114.506 411.752 114.035C411.922 113.522 411.976 113.066 412.063 112.533C412.133 112.101 412.197 111.731 412.197 111.291L412.189 110.967C412.556 110.473 412.297 109.662 412.502 109.026C412.66 108.535 412.736 108.243 412.689 107.71L412.628 107.209C413.045 106.787 412.877 105.581 412.878 104.955L413.126 104.582L413.128 103.828C413.148 103.45 413.194 103.174 413.162 102.787L413.128 102.45C413.608 101.965 413.377 100.183 413.378 99.4443C413.859 98.7182 413.623 97.6722 413.75 96.8145C413.919 95.6783 413.886 94.5828 413.878 93.4325C414.358 92.9469 414.127 91.1654 414.128 90.4267C414.545 90.0045 414.377 88.7982 414.378 88.1723C415.25 86.8604 414.227 84.1444 415.126 82.7891L415.375 83.1625C415.368 82.0523 415.217 80.7284 415.502 79.657L415.875 79.6556C416.36 79.0511 416.375 79.0504 416.378 78.2783H416.75L416.938 78.5909L417 77.9022C416.682 77.5014 416.8 77.7132 416.628 77.2763L417 77.0893C417.376 76.8374 417.387 76.4674 417.388 76.0639L417.378 75.6478L417.75 75.2724V73.5183C417.567 72.7475 417.516 72.2004 417.5 71.3895C416.993 70.6273 417.438 69.8471 417.25 69.0095C417.152 68.568 417.122 67.908 417 67.5066C416.784 66.7978 416.935 66.1456 416.75 65.503C416.619 65.0458 416.61 64.6941 416.5 64.2505C416.288 63.3981 416.325 64.1499 416.285 63.5585C416.258 63.1641 416.27 62.7991 416.192 62.4071L415.626 59.6165L415.5 58.9903C415.278 58.3408 415.368 57.7824 415.188 57.1742C414.858 56.0571 415.1 57.2691 414.934 56.4345L414.438 54.1684C414.225 53.5932 414.192 53.0352 414 52.4775L413.813 52.0391C413.637 51.4134 413.627 50.9558 413.334 50.329L413.496 49.6007Z" fill="url(#paint4_linear_1201_3)"/>
<path d="M115.661 32.7888L116.434 34.109C116.234 36.0308 117.023 37.6892 117.635 39.4838C120.133 46.7996 124.057 53.2007 128.067 59.7559C130.473 63.6869 132.785 67.6067 135.685 71.2044C139.951 76.4974 144.878 81.1238 149.902 85.678C152.039 87.6152 154.659 90.5269 157.475 91.3097L157.511 91.8307L155.357 92.3511C145.799 94.3096 138.327 90.8809 130.562 85.7155L129.359 84.7182C127.629 83.3675 125.953 81.8459 124.397 80.2962C123.418 79.3216 121.597 76.6925 120.401 76.2804L120.236 76.1882C119.884 75.6271 119.653 75.253 119.692 74.5723C119.713 74.1916 119.739 74.0039 119.615 73.6232C118.513 70.2726 117.264 67.0129 116.337 63.5967C114.62 57.2744 113.57 50.7701 112.577 44.3002C112.749 43.2587 113.572 40.92 114.123 40.0783C114.568 39.397 114.765 39.1189 114.977 38.3146C115.151 36.597 114.741 34.2579 115.661 32.7888Z" fill="white"/>
<path d="M112.577 44.3002C112.749 43.2587 113.572 40.92 114.123 40.0783C114.568 39.397 114.765 39.1189 114.977 38.3146C114.866 42.8249 114.891 46.8347 115.625 51.3181C116.934 59.3054 119.979 67.2547 123.577 74.4701C124.954 77.2329 126.567 80.4345 128.609 82.753C129.187 83.4103 129.281 83.8545 129.359 84.7182C127.629 83.3675 125.953 81.8459 124.397 80.2962C123.418 79.3216 121.597 76.6925 120.401 76.2803L120.236 76.1882C119.884 75.6271 119.653 75.253 119.692 74.5723C119.713 74.1916 119.739 74.0039 119.615 73.6232C118.513 70.2726 117.264 67.0129 116.337 63.5967C114.62 57.2744 113.57 50.7701 112.577 44.3002Z" fill="#D3D2D2"/>
<path d="M233.459 28.4216C238.105 24.647 244.637 21.933 250.544 21.09C260.181 19.7145 268.856 21.5158 276.714 27.4075C278.736 28.4233 280.609 29.9758 282.417 31.3317L292.41 39.1085L317.708 59.8295C318.856 60.7982 320.192 61.5458 321.311 62.5119C319.25 63.0784 317.158 63.6338 315.212 64.536C314.614 64.1248 314.246 63.2737 313.88 62.6529C313.31 59.8932 296.89 48.095 293.493 45.4871L282.275 36.8879C279.781 35.1316 276.959 33.6919 274.542 31.8994L274.204 31.6428C271.993 30.6226 269.781 29.6145 267.422 28.9836C259.52 26.8698 250.068 27.4222 242.403 30.2486L234.018 34.1244L233.711 34.3637C231.713 35.8931 229.329 37.0683 227.253 38.5345L212.25 50.0511L204.501 56.3614C201.726 58.5758 198.837 60.9837 196.625 63.752L196.016 64.3596C194.179 63.2911 192.476 62.5199 190.448 61.8858L218.501 39.4074C223.235 35.7098 228.192 31.2748 233.459 28.4216Z" fill="url(#paint5_linear_1201_3)"/>
<path d="M397.668 30.3136C404.864 40.7318 410.279 53.2728 411.252 65.976C411.347 76.3425 410.43 86.3921 407.342 96.3449C406.699 98.4169 405.984 100.448 405.15 102.451C404.745 103.422 403.49 105.51 403.42 106.482L399.978 112.683C395.236 119.994 387.939 126.844 379.181 128.706C378.138 128.069 377.274 127.17 376.382 126.34C379.218 126.25 381.942 125.758 384.536 124.567L383.584 124.56C376.621 124.436 369.366 119.158 364.731 114.324C366.509 110.173 369.221 106.432 371.822 102.767C375.549 97.5145 379.299 92.5221 383.659 87.7675C385.273 86.0067 386.818 84.1344 388.692 82.6435C388.437 84.1945 387.394 85.1931 386.642 86.5291C385.981 87.702 385.426 89.0306 384.95 90.2897C383.829 93.2575 383.049 96.397 382.196 99.4516C381.212 102.978 380.162 106.522 379.467 110.117L381.741 109.344C389.548 106.289 397.102 98.7222 400.375 91.0145C404.861 80.4505 403.941 67.1819 401.838 56.1534C401.295 53.3064 400.741 50.1715 399.64 47.4884C399.079 46.1243 398.964 44.6544 398.714 43.2094C398.192 40.1939 397.234 37.6157 395.682 34.988L396.105 34.4423C396.081 33.9994 396.1 33.8406 396.304 33.4318L397.668 30.3136Z" fill="#B7B6B6"/>
<path d="M395.681 34.988C397.233 37.6157 398.192 40.1939 398.714 43.2094C398.964 44.6544 399.079 46.1243 399.64 47.4884C400.741 50.1715 401.295 53.3064 401.838 56.1534C403.941 67.1819 404.861 80.4505 400.375 91.0145C397.102 98.7222 389.548 106.289 381.741 109.344L379.467 110.117C380.162 106.522 381.212 102.978 382.196 99.4516C383.049 96.397 383.829 93.2575 384.95 90.2897C385.426 89.0306 385.981 87.702 386.641 86.5291C387.394 85.1931 388.437 84.1945 388.692 82.6435L392.88 76.9577L392.417 76.7793C391.397 77.6617 390.409 78.5762 389.256 79.2822L381.913 85.1357C375.516 89.1442 368.139 92.6109 360.451 92.6924C358.953 92.7085 357.416 92.7532 355.948 92.4172C356.948 90.8308 358.413 89.9745 359.863 88.8663L364.745 84.8137C376.227 74.2778 384.995 61.8526 390.337 47.1063L395.681 34.988Z" fill="white"/>
<path d="M389.256 79.2822C390.237 77.2596 391.697 75.5456 392.686 73.5397C396.587 65.6321 397.976 57.4242 398.87 48.7202L399.126 48.7164C398.762 53.816 399.512 58.7707 398.416 63.8636C397.689 67.2414 396.532 70.3167 394.97 73.3934C394.364 74.5884 393.75 75.9317 392.88 76.9577L392.417 76.7793C391.397 77.6617 390.409 78.5762 389.256 79.2822Z" fill="#B7B6B6"/>
<path d="M120.67 156.595C121.211 157.844 120.581 159.838 120.361 161.154C118.677 171.252 115.337 180.686 111.599 190.18L94.0734 229.144C89.7127 234.789 85.5327 241.1 80.064 245.723C76.8993 248.399 73.1753 250.409 69.768 252.761C63.0259 257.416 56.5697 263.647 53.3395 271.308C51.7699 275.03 50.8925 278.927 49.9149 282.829L46.8041 298.824L45.3453 309.191C45.1963 310.268 45.1739 312.003 44.7703 312.986C44.6945 313.171 44.5067 313.285 44.375 313.435L43.4941 313.384C41.8395 305.864 40.4971 298.678 40.4943 290.936C40.491 281.533 42.3614 273.283 47.1184 265.143C51.2164 258.131 57.0192 252.156 63.1293 246.876C67.2667 243.301 71.6527 240.013 75.6367 236.261C80.372 231.803 84.4567 226.78 87.9414 221.29C92.992 213.332 96.7134 204.793 99.7227 195.877L105.353 176.599L106.685 170.803C106.811 170.19 106.905 168.982 107.275 168.48C107.779 167.798 108.762 167.12 109.408 166.564L114.891 162.11C116.92 160.381 118.791 158.484 120.67 156.595Z" fill="#66D4FF"/>
<path d="M389.819 155.864L404.799 168.239C405.732 169.126 405.855 170.506 406.118 171.709L407.747 179.046C410.287 189.805 413.293 200.341 418.054 210.355C421.834 218.306 426.114 225.686 432.253 232.077C437.278 237.309 443.141 241.604 448.779 246.133C463.567 258.011 471.343 269.935 471.299 289.518C471.28 298.078 469.839 306.93 467.735 315.208C467.541 314.972 467.304 314.765 467.154 314.499C467.034 314.286 467.003 313.36 466.97 313.112L466.446 309.317L464.022 293.699C463.294 289.182 462.606 284.257 460.855 280.012C458.56 268.332 450.355 258.03 440.838 251.299C437.449 248.902 433.52 247.023 430.509 244.159C427.599 241.391 425.199 238.187 422.761 235.01L412.928 221.197C412.389 218.942 410.945 216.758 409.925 214.675L404.776 203.632C401.372 195.849 398.748 187.671 396.229 179.565L390.459 159.894C390.267 159.18 389.513 157.308 389.562 156.681C389.584 156.396 389.734 156.136 389.819 155.864Z" fill="#66D4FF"/>
<path d="M413.334 50.329C413.037 50.2458 412.494 50.1552 412.25 49.9702L411.938 49.6596L411.688 49.8461C411.396 49.6531 411.575 49.7226 411.126 49.7196C411.126 49.9745 411.202 50.2241 411.25 50.4736L411.696 52.1723L411.875 53.1037L412 53.73C412.224 54.3825 412.082 54.8871 412.25 55.4834C412.427 56.1091 412.481 56.4539 412.5 57.1116C412.992 57.8514 412.75 59.4503 412.75 60.3679C413.224 61.0801 413 62.498 413 63.3738C413.417 64.0003 413.442 67.6595 413.25 68.5085C413.028 69.4938 412.972 70.2953 412.938 71.3267L412.378 71.2646C412.364 70.7729 412.285 70.2192 412.478 69.761L412.588 69.5105C412.91 68.3976 412.758 66.7706 412.755 65.6053C412.738 58.3637 411.599 51.4752 408.904 44.7359C406.776 39.4171 404.052 34.7238 400.972 29.9219C399.873 28.2088 398.318 25.3412 396.388 24.5098C394.038 27.2538 392.524 30.2098 390.72 33.3151L382.034 48.182C378.184 54.181 373.634 60.004 368.626 65.0814C363.358 70.4202 357.444 75.1154 351.594 79.7812L340.954 88.3713C333.629 82.1538 327.439 73.9091 321.206 66.6079C322.422 66.0423 324.34 65.9013 325.708 65.5895C330.102 64.5878 334.435 63.5495 338.499 61.5402C342.625 59.5 346.4 56.8922 350.164 54.259L366.706 41.9423L399.623 16.4125C401.229 20.9884 403.735 25.1551 405.818 29.5171C408.869 35.9063 411.42 42.829 413.496 49.6007L413.334 50.329Z" fill="#2A2B36"/>
<path d="M113.097 155.674L107.197 160.664L103.535 151.449C98.2214 137.825 95.5194 123.468 94.2814 108.936C92.4234 87.1282 93.8814 65.5757 100.331 44.5613C103.304 34.8765 107.979 25.6953 112.028 16.4377L139.114 38.8128C147.463 45.2542 156.118 51.7555 165.323 56.9264C166.245 61.9085 165.637 67.4391 165.711 72.5163C165.754 75.4775 166.263 78.4934 166.089 81.4525C166.059 81.9548 165.986 82.2039 165.704 82.6174C151.939 72.342 138.163 60.8857 128.752 46.2959L119.289 30.8127C117.757 28.3347 116.311 25.6921 114.422 23.4699C107.657 34.8367 102.41 47.3325 99.9601 60.3679C99.3094 63.8316 98.6727 67.2861 98.9294 70.8257L98.784 71.0254C98.5707 71.33 98.6454 71.2065 98.4987 71.5772L97.8741 71.9532C97.8727 72.4763 98.0067 72.6326 97.6227 73.0173C97.6227 73.6646 97.7394 74.0941 97.3727 74.6458C97.3727 75.5636 97.6141 77.1601 97.1254 77.9022L97.3727 78.1527C97.3727 78.6363 97.4821 78.669 97.1227 79.0291C97.1227 79.6563 97.2934 80.862 96.8727 81.2841C96.7761 84.2386 96.6247 87.2284 96.8114 90.1762C96.9234 91.9537 96.6754 93.7926 97 95.5614L97.1514 97.1077C97.2007 97.7309 97.1594 97.2887 97.2921 97.9607C97.3787 98.4009 97.372 98.5432 97.3147 98.9553C97.234 99.5432 97.198 99.9573 97.5614 100.446L97.5574 100.76C97.5574 101.293 97.494 102.023 97.8114 102.45C97.7954 103.208 97.7574 103.795 97.9987 104.517C98.4387 105.832 97.9394 109.02 98.8727 109.965L98.8034 110.364C98.7401 110.819 98.7587 111.039 98.8747 111.468L99.1227 111.718C99.1241 112.227 99.0007 112.343 99.3727 112.72L99.3227 113.01C99.2574 113.812 99.5841 114.522 99.7487 115.288L99.8307 116.055C99.8681 116.465 99.9961 116.723 100.123 117.103C100.329 117.724 100.213 117.334 100.25 117.856C100.288 118.395 100.381 118.522 100.623 118.982L100.749 119.485L100.823 119.805C100.899 120.195 100.881 120.057 100.811 120.485C101.117 120.978 101.139 120.849 101.061 121.487L101.373 121.863L101.323 122.113C101.258 122.772 101.621 123.522 101.873 124.117L101.811 124.493L102.123 124.869L102.061 125.245C102.069 126.26 102.692 127.463 102.875 128.501L103.123 128.752C103.215 129.088 103.219 129.281 103.25 129.628C103.302 130.201 103.514 130.698 103.873 131.131L103.811 131.507L103.951 131.812C104.139 132.266 104.2 132.661 104.307 133.131C104.475 133.878 104.222 132.732 104.623 133.761L104.75 134.638C104.827 134.93 105.004 134.964 105.123 135.264C105.654 136.61 105.948 138.192 106.509 139.597C106.669 139.998 106.603 139.835 106.714 140.309C106.813 140.732 106.94 140.905 107.123 141.276C107.356 141.751 107.165 141.445 107.311 142.027L107.58 142.626C107.761 143.011 107.907 143.365 108.019 143.774C108.247 144.612 107.959 143.702 108.373 144.532L108.428 144.768C108.516 145.12 108.68 145.357 108.873 145.659L108.811 146.035L108.951 146.246C109.181 146.617 109.321 146.977 109.429 147.397C109.531 147.802 109.715 148.156 109.875 148.54L109.987 148.831C110.375 149.814 110.83 150.897 111.373 151.797C111.649 152.255 111.808 152.696 111.927 153.213L111.903 153.238C112.133 154.229 112.5 154.857 113.097 155.674Z" fill="#393B46"/>
<path d="M109.848 39.8684C110.328 39.5425 110.567 39.318 110.801 38.7913L111.002 38.3211C111.2 38.5247 111.159 38.4213 111.125 38.8259L111.063 39.2376C112.126 38.0003 113.387 35.6193 114.679 34.8549L114.875 34.7448C114.901 33.8958 114.909 33.0474 115.085 32.2132L115.196 31.7128L115.661 32.7889C114.741 34.2579 115.151 36.597 114.977 38.3146C114.765 39.1189 114.568 39.397 114.123 40.0783C113.572 40.92 112.749 43.2587 112.577 44.3002C113.57 50.7701 114.62 57.2744 116.337 63.5967C117.264 67.0129 118.513 70.2726 119.615 73.6232C119.739 74.0039 119.713 74.1916 119.692 74.5724C119.653 75.253 119.884 75.6271 120.236 76.1882L120.401 76.2804L121.378 77.796C122.171 78.5822 122.743 79.677 123.375 80.5975C124.252 81.8753 125.229 83.0937 126.204 84.2974L136.02 96.1318C140.17 101.5 144.091 107.565 147.421 113.482L145.742 115.293C140.408 120.282 133.535 123.646 126.134 123.368L125.886 123.356C128.711 124.83 132.363 125.286 135.493 125.425C134.623 126.844 133.605 127.965 132.455 129.16L128.875 127.708C116.786 121.622 108.41 111.563 104.224 98.7222C97.7907 78.9883 100.6 58.193 109.848 39.8684Z" fill="#B7B6B6"/>
<path d="M112.577 44.3002C113.57 50.7701 114.62 57.2744 116.337 63.5967C117.264 67.0129 118.513 70.2726 119.615 73.6232C119.739 74.0039 119.713 74.1916 119.692 74.5724C119.653 75.253 119.884 75.6271 120.236 76.1882L120.401 76.2804L121.378 77.796C121.294 78.0839 121.145 78.3591 121.125 78.6584C121.062 79.5848 123.176 82.2601 123.693 83.1986C124.363 84.4156 124.874 85.7616 125.431 87.036L130.015 97.7336L134.565 111.157C125.379 107.829 116.845 101.54 112.477 92.5836C106.874 81.0911 106.069 65.8036 109.261 53.4812C110.081 50.3117 111.521 47.3813 112.577 44.3002Z" fill="white"/>
<path d="M234.018 34.1244L242.403 30.2486C250.068 27.4222 259.52 26.8698 267.422 28.9836C269.781 29.6145 271.993 30.6226 274.204 31.6428L274.542 31.8994C276.959 33.6919 279.781 35.1316 282.275 36.8879L293.493 45.4871C296.89 48.095 313.309 59.8932 313.88 62.6529C314.246 63.2738 314.613 64.1248 315.211 64.536L314.197 65.2525L314.409 65.3781C316.412 66.6111 318.019 68.5332 319.573 70.276L327.241 79.16L337.923 91.3799C343.628 97.7657 349.235 103.907 354.188 110.919L366.324 126.85L380.422 145.411L386.34 152.195C386.995 152.886 389.644 155.211 389.819 155.864C389.734 156.136 389.584 156.396 389.562 156.681C389.513 157.308 390.267 159.18 390.459 159.894L396.229 179.565C398.748 187.671 401.372 195.849 404.776 203.632L409.925 214.675C410.945 216.758 412.389 218.942 412.928 221.197L422.761 235.01C425.199 238.187 427.599 241.391 430.509 244.159C433.52 247.023 437.449 248.902 440.838 251.299C450.355 258.03 458.56 268.332 460.855 280.012C462.606 284.257 463.294 289.182 464.022 293.699L466.446 309.317L466.97 313.112C467.003 313.36 467.034 314.286 467.154 314.499C467.304 314.765 467.541 314.972 467.735 315.208L467.712 315.419C467.11 320.43 465.204 328.026 461.013 331.293L457.068 333.727L468.59 334.425L486.248 332.037C484.509 335.833 481.523 339.726 478.697 342.758C473.752 349.236 467.026 354.133 460.298 358.589C458.016 360.1 455.692 361.781 453.28 363.067C449.67 365.119 445.414 366.502 441.25 366.726C439.73 366.808 437.655 366.603 436.25 367.103L453.75 368.514L459.78 368.765C460.844 368.794 462.184 368.672 463.205 368.934C457.093 374.59 451.367 380.629 444.783 385.762C436.573 392.162 427.883 397.415 418.752 402.362C412.415 405.795 405.948 409.126 399.317 411.955L354.613 430.369L337.75 438.887L310.816 452.807L286.306 466.767C284.349 468.571 281.225 470.05 278.927 471.482C271.693 475.989 264.312 480.853 256.71 484.705C253.857 483.602 251.029 481.865 248.331 480.419L233.765 472.701L222.045 466.626L202.867 457.134L163.807 435.726L103.25 405.358L83.8654 395.543C80.7527 393.795 77.7294 391.769 74.75 389.804C72.5187 388.333 70.0734 386.901 68.0647 385.132C61.0793 380.923 55.9932 374.54 49.8142 369.39L49.566 369.187L77.8747 366.491C70.7587 365.237 63.9472 362.864 57.3016 360.057C54.0594 358.794 50.9394 356.925 47.9984 355.091C42.3492 351.568 36.2437 347.205 32.2599 341.758C34.2377 342.242 36.1639 343.317 38.0788 344.052L46.1862 346.85C46.5243 346.236 46.3696 345.534 46.303 344.862C45.9682 341.485 44.3026 338.528 44.3284 335.051L44.3388 334.61L43.5808 334.168C47.6304 334.184 51.4109 333.872 55.4291 333.37L53.0933 332.148C47.3482 328.558 44.8786 319.536 43.4942 313.384L44.375 313.435C44.5068 313.285 44.6946 313.171 44.7703 312.986C45.174 312.003 45.1964 310.268 45.3454 309.191L46.8042 298.824L49.9149 282.829C50.8925 278.927 51.77 275.03 53.3395 271.308C56.5698 263.647 63.026 257.416 69.768 252.761C73.1754 250.409 76.8994 248.399 80.064 245.723C85.5327 241.1 89.7127 234.789 94.0734 229.144L111.599 190.18C115.337 180.686 118.677 171.252 120.361 161.154C120.581 159.838 121.211 157.844 120.67 156.595C120.87 156.088 121.869 155.249 122.26 154.823L126.533 150.218C127.633 148.551 129.07 147.022 130.34 145.472L135.151 139.208L156.447 111.359L168.84 96.4965L191.853 71.171C193.161 69.6294 196.065 66.8947 196.583 65.002L196.016 64.3596L196.625 63.752C198.837 60.9837 201.726 58.5758 204.501 56.3614L212.25 50.0511L227.253 38.5346C229.329 37.0683 231.713 35.8931 233.711 34.3637L234.018 34.1244Z" fill="#005E94"/>
<path d="M313.88 62.6529C314.246 63.2737 314.613 64.1248 315.211 64.536L314.197 65.2525L314.409 65.3781C316.412 66.6111 318.019 68.5332 319.573 70.276L327.241 79.16L337.923 91.3799C343.628 97.7657 349.235 103.907 354.188 110.919C353.565 110.827 352.984 110.796 352.492 110.365C350.875 108.945 349.59 107.278 348.153 105.694L340.713 97.7102C339.124 96.0443 337.565 94.2174 335.905 92.6343C334.207 91.0171 332.357 89.4027 330.947 87.5216C329.827 86.0281 328.389 84.0589 326.995 82.8632L326.751 82.6601C326.505 81.9154 325.706 81.367 325.187 80.7818L322.939 78.1527C322.601 77.7499 322.005 77.3424 321.751 76.8989C321.319 76.1414 321.989 76.8782 321.35 76.2383L317.913 72.4903L317.501 72.0781C317.282 71.8203 317.24 71.6633 316.951 71.4563L316.751 71.3267C316.347 70.3053 314.529 68.8465 313.751 67.8813L312.854 66.732L312.627 66.3797C312.289 65.8623 312.377 65.7277 312.377 65.1272C312.884 64.3633 313.255 65.0525 313.937 64.5023L313.939 63.6243C313.849 63.1587 313.813 63.1542 313.88 62.6529Z" fill="url(#paint6_linear_1201_3)"/>
<path d="M60.8915 282.52C61.9011 277.98 64.5614 273.526 67.61 270.06C71.7234 265.381 76.8814 261.972 82.226 258.871C86.1247 256.609 90.094 254.371 94.17 252.446L102.25 248.964C104.679 247.891 107.871 245.776 110.48 245.623C106.14 249.592 100.091 252.265 94.958 255.06C87.698 259.013 80.5967 263.022 74.0327 268.086C70.5207 270.794 67.54 274.002 64.8304 277.503C63.6055 279.087 62.6729 281.638 60.8915 282.52Z" fill="url(#paint7_linear_1201_3)"/>
<path d="M402.978 246.749L417.696 255.221C430.96 262.447 446.859 270.075 451.144 285.943C453.149 293.369 451.7 302.07 448.041 308.789L447.971 308.902C447.832 307.068 448.244 305.288 448.398 303.468C448.828 298.412 448.75 293.175 447.285 288.281C442.477 272.222 425.813 264.962 412.91 256.509C409.84 254.498 405.562 252.054 403.307 249.112C402.655 248.26 402.865 247.75 402.978 246.749Z" fill="#002149"/>
<path d="M382.319 167.537L383.511 168.241C385.282 169.197 386.713 170.818 388.119 172.227C391.046 175.16 394.186 178.402 396.123 182.106C396.609 183.035 396.953 184.359 397.373 185.362L397.5 185.74L397.75 185.613L397.369 184.791C397.15 184.352 397.128 184.099 397.126 183.609L396.939 183.358C396.64 182.907 396.628 182.639 396.626 182.106L396.378 181.855L396.229 179.565C398.748 187.671 401.372 195.849 404.776 203.632L409.925 214.675C410.945 216.758 412.389 218.942 412.928 221.197C411.677 220.404 410.681 218.92 409.688 217.8C404.124 211.531 399.562 204.891 394.989 197.887C392.324 193.805 389.546 189.679 387.211 185.396L387.71 184.979C387.806 183.459 387.106 181.664 386.695 180.189C385.484 175.843 384.125 171.673 382.319 167.537Z" fill="#0090F9"/>
<path d="M120.67 156.595C120.87 156.088 121.869 155.249 122.26 154.823L126.533 150.218L126.9 150.489C126.15 151.317 125.401 151.919 124.813 152.861L124.25 153.425C123.577 154.082 121.879 155.44 121.749 156.304C121.694 156.667 121.488 157.025 121.355 157.361C121.185 157.791 121.265 158.114 121.311 158.56L121.346 158.928L121.373 159.186L121.19 159.456C120.921 159.909 121.057 160.057 120.937 160.501L120.75 160.94C120.827 161.727 120.873 161.862 120.623 162.568L120.561 163.069L120.467 163.374C120.219 164.198 120.277 164.982 119.964 165.824C119.801 166.263 119.759 166.654 119.723 167.119C119.68 167.68 119.732 167.386 119.5 167.953C119.284 168.482 119.213 168.767 119.311 169.331L119.156 169.621C118.839 170.259 119.111 169.643 118.999 170.331L118.75 171.084L118.873 171.46L118.623 171.71C118.395 172.036 118.401 172.344 118.373 172.712L118.063 173.966L118.319 174.232C118.643 174.593 118.801 174.908 118.999 175.344L119.343 175.445C119.793 175.596 119.877 175.742 120.25 175.971C120.688 176.24 121.09 176.391 121.5 176.723C122.031 176.723 122.027 176.657 122.5 176.973L122.816 176.937C123.297 176.891 123.111 176.897 123.627 176.971L123.875 176.723L124.125 177.096L124.627 176.595L124.623 176.305C124.676 175.653 124.991 175.058 125.25 174.466L125.127 173.965L125.377 173.714C125.612 173.381 125.618 172.965 125.689 172.587C125.778 172.111 125.977 171.747 126.189 171.335L126.377 170.708L127.377 168.203C127.595 167.55 127.973 166.954 128.251 166.326L129.25 164.696L129.251 164.322L129.416 164.118C129.681 163.764 129.589 163.89 129.783 163.499C130.418 162.226 131.314 161.054 132.001 159.814C132.152 159.541 132.332 159.377 132.501 159.062C133.235 157.695 134.845 155.558 135.877 154.427C136.912 153.293 137.439 152.343 138.726 151.362L132.778 159.675C126.802 168.695 123.79 178.647 122.614 189.37L122.74 189.685L123.16 189.804C121.522 193.27 119.461 196.553 117.492 199.841C114.554 204.743 111.637 209.576 108.109 214.09C105.123 217.908 101.773 221.324 98.3787 224.768C96.9607 226.207 95.7467 227.989 94.0734 229.144L111.599 190.18C115.337 180.686 118.677 171.252 120.361 161.154C120.581 159.838 121.211 157.844 120.67 156.595Z" fill="#0090F9"/>
<path d="M237.263 138.05C251.025 136.177 264.807 135.49 278.563 137.883L278.769 137.994C279.663 138.39 280.891 138.47 281.857 138.647L287.5 139.818C291.701 140.754 296.04 142.199 299.991 143.906C308.122 147.42 316.047 152.084 323.437 156.957C340.511 168.213 356.801 182.762 367.875 200.126C370.921 204.902 373.409 210.502 375.697 215.687C376.284 217.02 376.59 217.717 376.075 219.149C372.441 213.587 369.904 207.339 366.109 201.825C359.125 191.674 350.515 183.134 341.311 175.045C334.139 168.742 326.908 162.924 318.666 158.041C315.274 156.032 311.827 154.089 308.264 152.396C306.261 151.445 304.011 150.714 302.093 149.628L301.781 149.447L302.347 149.166C301.809 149.12 301.444 149.04 300.971 148.791L300.5 148.54L297.625 147.538L297.822 146.927C298.358 146.084 300.276 147.602 301.297 147.413L289.139 142.963C277.311 139.185 265.252 138.111 252.876 138.508L245.375 139.009C244.603 139.098 243.605 138.939 242.875 139.145C241.943 139.407 241.225 139.4 240.25 139.395C239.602 139.811 238.765 139.589 237.999 139.751C237.291 139.901 237.004 139.88 236.307 139.726L236.389 139.481L237.625 139.4C238.031 138.992 238.565 139.149 239.125 139.149L239.375 138.899H241C241.658 138.459 242.322 138.747 243.08 138.592C244.436 138.315 245.749 138.483 247.125 138.398C247.541 137.982 248.639 138.147 249.25 138.147C250.275 137.463 256.882 138.018 258.625 137.897C259.582 138.529 263.847 138.21 265.187 138.207L265.113 137.786C264.651 137.662 264.74 137.736 264.429 137.517L263.749 137.018C263.063 136.571 261.484 136.798 260.671 136.804C258.277 136.822 255.117 136.4 252.83 136.953C250.854 137.43 248.587 136.939 246.501 137.386C245.571 137.585 244.783 137.43 243.907 137.61C242.652 137.868 241.237 137.874 240.043 138.177C239.497 138.315 239.742 138.294 239.169 138.328L238.829 138.338L237.263 138.05Z" fill="url(#paint8_linear_1201_3)"/>
<path d="M72.1094 325.048C71.1474 324.291 70.3887 323.074 69.6547 322.1C67.126 318.745 64.5857 315.05 63.2968 311.003L63.1887 310.654L62.6744 308.906C62.462 307.88 62.3197 307.435 62.8767 306.555C65.1476 310.795 67.5547 314.812 70.4214 318.689L73.5447 322.67C73.8034 322.988 74.4647 323.616 74.5947 323.984C89.24 339.573 106.759 352.155 124.304 364.222C155.509 385.682 188.437 405.266 223.165 420.434C226.634 421.531 230.135 422.91 233.735 423.498L237.119 462.674C242.44 466.552 248.468 470.354 254.456 473.109L253.993 473.394C253.651 473.277 253.313 473.174 253 472.985L252.75 472.798C252.199 472.498 251.677 472.322 251.168 471.926L250.937 471.734L250.375 471.794C250.11 471.399 250.227 471.462 249.879 471.269L248.75 470.67L247.813 470.106L246.597 469.405L245.313 468.603L243.75 467.664C243.391 467.388 243.235 467.183 242.789 467.048L242.5 466.974L242.25 466.787C241.533 466.461 242.058 466.891 241.535 466.426C241.316 466.232 241.026 465.903 240.75 465.785C240.071 465.494 240.529 465.862 240.031 465.421C239.808 465.222 239.585 464.982 239.313 464.846C238.911 464.644 238.821 464.459 238.5 464.282L238.125 464.157C237.719 463.93 237.515 463.663 237 463.467L234.999 464.155L234.563 464.281L234.437 466.66H234.251L234.127 466.286C233.84 465.805 233.877 465.894 233.877 465.284L233.627 465.034C233.685 464.66 233.702 464.412 233.623 464.035L233.531 463.655C232.874 460.611 231.393 457.856 230.878 454.736C230.215 450.718 230.295 446.516 229.96 442.457C229.623 438.373 228.817 434.171 227.923 430.169C227.68 429.08 227.443 427.703 226.893 426.734C225.946 425.063 223.796 423.953 222.229 422.954L199.132 411.917L148.185 383.75L108.212 357.029C95.3434 347.777 81.636 337.944 72.1094 325.048Z" fill="url(#paint9_linear_1201_3)"/>
<path d="M387.211 185.396C383.92 180.306 380.135 175.634 376.262 170.983C367.976 161.037 358.69 151.247 347.612 144.405C341.686 140.745 335.304 137.83 329.082 134.715L301.567 120.054L291.824 114.225L287.002 111.62C286.05 111.128 284.88 110.714 284.085 109.999L299.139 113.712C309.848 116.285 320.139 119.882 330.25 124.239C337.982 127.57 345.692 131.394 352.63 136.193C364.293 144.26 374.91 155.433 382.319 167.537C384.125 171.673 385.484 175.843 386.695 180.189C387.106 181.664 387.806 183.459 387.71 184.979L387.211 185.396Z" fill="#66D4FF"/>
<path d="M138.726 151.362C142.828 146.37 146.914 141.902 152.193 138.113C160.298 132.295 169.892 128.357 179.154 124.821L204.03 116.188L230.309 108.54C227.043 110.681 223.486 112.28 220.134 114.271L205.629 123.039L190.391 131.003C178.96 136.645 166.631 141.365 156.442 149.156C145.449 157.562 137.026 169.242 129.312 180.589C127.245 183.63 125.021 186.633 123.16 189.804L122.74 189.685L122.614 189.37C123.79 178.647 126.802 168.695 132.778 159.675L138.726 151.362Z" fill="#66D4FF"/>
<path d="M49.9149 282.829C50.1318 284.78 49.9282 286.673 50.0766 288.605C50.3024 291.546 51.0842 294.631 51.8632 297.474C52.5694 300.051 53.5021 302.8 54.6536 305.216C57.4584 311.1 61.2096 316.355 64.7848 321.774C68.8134 327.88 72.9054 334.723 77.9827 340C80.764 342.89 84.0967 345.421 87.2154 347.935L98.2387 356.914L117.122 372.754C121.28 376.076 125.715 379.03 130.089 382.052L149.467 394.869L168.704 405.786L198.603 422.355L215.285 430.641C218.502 432.182 221.979 433.558 224.949 435.546C227.129 437.006 228.053 439.113 228.555 441.613C229.527 446.448 229.098 451.022 229.098 455.891L229.443 463.073L227.361 462.17C226.809 461.955 226.29 461.645 225.751 461.4L224.751 460.899L224.313 460.649L219.813 458.394C218.435 457.749 217.17 456.967 215.751 456.39C211.579 454.694 207.703 452.051 203.501 450.379C202.549 450 201.7 449.313 200.751 448.876C200.125 448.587 199.646 448.152 199.001 447.874L191.875 443.681C191.456 443.47 191.119 443.223 190.736 442.958C190.321 442.671 190.667 442.913 190.063 442.613L181.187 437.479L180.75 437.227C179.556 436.528 178.273 435.608 177.001 435.099L168.338 430.164C166.757 429.207 164.926 428.056 163.251 427.334L161.501 426.332C161.131 426.129 160.896 425.988 160.501 425.831L158.251 424.578C157.887 424.379 157.631 424.243 157.251 424.077C154.524 422.885 152.004 421.001 149.251 419.819L148.813 419.568L148.543 419.451L147.251 418.817L146.25 418.19L145.063 417.564L143.383 416.758L141.501 415.811L139.778 414.935C139.333 414.736 138.957 414.494 138.501 414.308C136.891 413.65 135.366 412.714 133.751 412.054L131.86 411.098C131.441 410.888 131.616 410.956 131.243 410.863C130.883 410.774 130.697 410.573 130.375 410.425L130.001 410.3C129.589 410.111 129.252 409.855 128.825 409.682C127.389 409.103 125.937 408.195 124.501 407.545L123.875 407.168L123.563 407.044C122.515 406.554 121.589 405.95 120.501 405.541C119.85 405.296 119.292 404.89 118.619 404.665C118.221 404.532 117.987 404.328 117.625 404.162L117.251 404.038L115.75 403.349L114.786 402.915L113.418 402.276C111.999 401.686 110.679 400.874 109.251 400.281L107.501 399.529L104.501 398.026L101.751 396.774C101.388 396.609 101.139 396.42 100.751 396.273L98.0627 395.02L96.3127 394.269L93.992 393.239C93.3394 392.992 92.812 392.618 92.1254 392.389C91.3994 392.147 90.7927 391.729 90.1254 391.387L89.3747 391.137L87.6334 390.315C87.166 390.081 87.3174 390.157 86.7887 390.005C86.0587 389.796 86.6674 390.024 86 389.572L83.8834 388.508C83.436 388.283 83.8134 388.468 83.2514 388.257C82.1354 387.839 81.1094 387.194 80.0014 386.754L79.5174 386.504C79.124 386.299 78.8207 386.184 78.3747 386.127L78.1254 385.877L77.8127 385.752C77.2847 385.537 76.8354 385.215 76.3127 385.001L73.5014 383.748L68.876 381.314C68.05 380.899 67.3507 380.382 66.5013 379.991C66.072 379.794 65.7274 379.537 65.2819 379.358C64.933 379.217 64.8945 379.013 64.625 378.863L64.2513 378.739L60.375 376.358L60.0626 376.234L59.3086 375.85C58.8688 375.63 58.6167 375.606 58.125 375.606L57.875 375.356L57.3725 375.359C57.673 376.401 59.8274 378.132 60.625 378.99C61.2473 379.149 61.355 379.366 61.8049 379.813C62.0625 380.07 61.9494 379.948 62.2955 380.157C62.8826 380.511 63.2654 381.087 63.875 381.495L64.5 381.996L65.5 382.748C66.1444 383.217 66.8207 383.748 67.506 384.149C67.9647 384.418 68.0207 384.688 68.3747 385.002L68.5954 385.099L68.0647 385.132C61.0793 380.924 55.9932 374.54 49.8142 369.39L49.566 369.187L77.8747 366.491C70.7587 365.237 63.9472 362.864 57.3016 360.057C54.0594 358.794 50.9394 356.925 47.9984 355.091C42.3492 351.568 36.2437 347.205 32.2599 341.758C34.2377 342.242 36.1639 343.317 38.0788 344.052L46.1862 346.85C46.5243 346.236 46.3696 345.534 46.303 344.862C45.9682 341.485 44.3026 338.528 44.3284 335.051L44.3388 334.61L43.5808 334.168C47.6304 334.184 51.4109 333.872 55.4291 333.37L53.0933 332.148C47.3482 328.558 44.8786 319.536 43.4942 313.384L44.375 313.435C44.5068 313.285 44.6946 313.171 44.7703 312.986C45.174 312.003 45.1964 310.268 45.3454 309.191L46.8042 298.824L49.9149 282.829Z" fill="#0090F9"/>
<path d="M460.855 280.012C462.606 284.257 463.294 289.182 464.022 293.699L466.446 309.317L466.97 313.112C467.003 313.36 467.034 314.286 467.154 314.499C467.304 314.765 467.541 314.972 467.735 315.208L467.712 315.419C467.11 320.43 465.204 328.026 461.013 331.293L457.068 333.727L468.59 334.425L486.248 332.037C484.509 335.833 481.523 339.726 478.697 342.758C473.752 349.236 467.026 354.133 460.298 358.589C458.016 360.1 455.692 361.781 453.28 363.067C449.67 365.119 445.414 366.502 441.25 366.726C439.73 366.808 437.655 366.603 436.25 367.103L453.75 368.514L459.78 368.765C460.844 368.794 462.184 368.672 463.205 368.934C457.093 374.59 451.367 380.629 444.783 385.762C436.573 392.162 427.883 397.415 418.752 402.362C412.415 405.795 405.948 409.126 399.317 411.955L354.613 430.369L337.75 438.887L310.816 452.807L286.306 466.767L286.087 466.525C286.952 465.741 288.007 465.253 289 464.658L289.938 464.094L291.129 463.409L291.5 463.155L292.25 462.654L292.875 462.153C293.316 461.946 293.397 462.112 293.868 461.757C294.363 461.387 294.105 461.52 294.642 461.296C295.053 461.124 295.338 460.813 295.754 460.709C296.07 460.629 295.939 460.699 296.2 460.513C296.536 460.272 296.879 460.085 297.25 459.898L298 459.523C298.421 459.251 298.674 458.982 299.15 458.783C299.634 458.58 299.403 458.729 299.875 458.396C300.184 458.177 300.394 457.99 300.75 457.833L301.25 457.644C302.16 457.04 301.157 457.563 301.946 457.166L302.25 457.018C302.518 456.855 302.737 456.787 303 456.642L303.938 456.078L307.5 454.137L308.438 453.573L309.25 453.135L309.75 452.759C310.105 452.59 310.227 452.654 310.614 452.396C311.192 452.009 311.979 451.837 312.403 451.309L312.626 451.008L313 451.131L313.5 450.755C313.852 450.585 313.978 450.649 314.364 450.392C314.83 450.08 314.628 450.179 315.09 449.969L317.75 448.626C318.105 448.394 318.15 448.254 318.594 448.165C319.056 448.072 319.084 447.866 319.375 447.502L319.75 447.625L320.5 447.124L320.752 446.874C321.309 446.793 321.082 446.875 321.578 446.607L323.126 445.871C323.487 445.674 323.724 445.435 324.122 445.269L327.5 443.617C327.809 443.417 327.91 443.248 328.282 443.155C328.606 443.074 328.64 442.976 328.878 442.74L329.5 442.615C330.585 442.112 331.666 441.404 332.75 440.861C333.716 440.377 334.856 439.956 335.75 439.358L336.063 439.109C336.776 439.107 337.702 438.356 338.376 438.043L342.5 435.852L342.813 435.602C343.272 435.524 343.61 435.362 344 435.1L344.313 434.851C344.816 434.765 344.593 434.843 345.074 434.583L347 433.597C347.29 433.409 347.392 433.242 347.738 433.155C348.838 432.88 349.979 432.105 351 431.593C352.012 431.086 353.147 430.643 354.126 430.09C354.721 429.754 355.26 429.637 355.848 429.319L357 428.712C357.443 428.548 357.863 428.231 358.282 428.126L358.5 428.086L358.752 427.837L359.126 427.836C359.475 427.609 359.856 427.35 360.25 427.209L360.75 427.084C361.077 426.915 361.17 426.726 361.556 426.611C361.912 426.504 362.163 426.334 362.5 426.207C362.903 426.057 363.192 426.027 363.59 425.813C364.38 425.386 365.429 424.836 366.297 424.619C366.604 424.541 366.654 424.427 366.878 424.203C367.444 424.12 367.738 423.904 368.25 423.702C369.332 423.279 370.543 422.904 371.598 422.423L372.375 422.075C372.721 421.936 372.953 421.894 373.227 421.622L373.375 421.451L373.875 421.574C374.172 421.322 374.326 421.191 374.72 421.112C375.114 421.033 375.094 420.979 375.375 420.699L375.938 420.759L376.375 420.572L377 420.321C377.51 420.084 377.95 419.841 378.5 419.695L379 419.57C379.487 419.352 379.882 419.093 380.399 418.928C381.039 418.723 381.693 418.268 382.313 418.13C382.769 418.028 382.926 418.114 383.387 417.883C385.127 417.011 387.104 416.419 388.938 415.75L389.375 415.562C389.702 415.428 389.986 415.329 390.29 415.14L390.5 414.999L390.875 415.061C391.168 414.874 391.402 414.708 391.742 414.623C392.5 414.433 393.269 413.969 394 413.683C394.421 413.519 394.862 413.212 395.262 413.112L395.5 413.057C396.244 412.646 395.328 412.921 396.25 412.681C396.728 412.557 397.049 412.355 397.5 412.18C397.901 412.025 398.191 412 398.59 411.785C399.37 411.364 400.179 410.998 401 410.677L401.5 410.552C401.854 410.368 401.918 410.188 402.348 410.07C402.728 409.967 402.736 410.013 403.126 409.801C403.499 409.597 403.732 409.366 404.146 409.194L404.5 409.049C405.145 408.668 404.442 408.879 405.25 408.673C405.404 408.634 405.606 408.625 405.75 408.548C406.396 408.204 407.142 407.948 407.75 407.546C408.038 407.357 408.144 407.19 408.488 407.104C409.464 406.86 410.896 406.096 411.75 405.542C412.228 405.232 412.744 404.919 413.25 404.665C413.594 404.494 413.732 404.557 414.114 404.302C414.58 403.99 414.378 404.089 414.84 403.879L417.5 402.536C417.806 402.339 417.89 402.185 418.254 402.094C418.57 402.015 418.439 402.085 418.7 401.899L418.938 401.722C419.312 401.496 419.702 401.428 419.939 401.033L420.126 400.66L420.373 400.909L424.25 398.779L425 398.404C425.421 398.132 425.674 397.863 426.15 397.664L426.5 397.527L428.25 396.525L429.188 395.961L430.379 395.276L432.25 394.02C432.661 393.732 433.072 393.525 433.5 393.268L433.875 393.018L436.328 391.234L436.563 391.015L436.875 391.014L440.25 388.509L440.752 388.071C441.424 387.654 442.031 387.076 442.688 386.693C443.279 386.348 443.352 386.283 443.813 385.755L444.126 385.754L444.938 384.939C445.453 384.639 445.735 384.203 446.188 383.937C446.814 383.57 447.128 383.032 447.688 382.685C448.662 382.081 449.278 380.969 450.188 380.431C451.19 379.838 451.763 378.723 452.688 378.176L453.126 377.988C453.805 377.61 456.421 374.825 456.628 374.106L456.126 374.104C455.749 374.48 455.636 374.354 455.126 374.354C454.792 374.576 454.618 374.672 454.25 374.794L453.688 374.981L453.249 375.232L452.5 375.606C452.081 375.856 451.778 376.099 451.321 376.296C448.086 377.695 445.242 380.454 441.999 381.744C441.388 381.988 441.846 381.716 441.266 382.103C440.683 382.493 440.098 382.77 439.5 383.121C439.058 383.38 438.68 383.67 438.207 383.881L437.938 383.999L436.391 384.832L435 385.626L431.109 387.834L427.188 389.76L422.999 391.764L422.25 392.139L421.688 392.516L421.25 392.64C420.813 392.841 420.43 393.188 419.972 393.393L418.249 394.269C416.11 395.215 413.995 396.4 411.938 397.525L410.938 398.026L410.499 398.277L410.126 398.401C409.803 398.549 409.618 398.75 409.258 398.84C408.884 398.933 409.06 398.865 408.64 399.074C407.628 399.583 406.574 400.245 405.5 400.594C405.17 400.701 404.916 400.788 404.606 400.957L403.499 401.533L401.749 402.285L401.375 402.409C401.053 402.557 400.868 402.758 400.508 402.848C400.123 402.943 400.32 402.869 399.878 403.09L398.938 403.537C398.287 403.879 398.736 403.711 398.144 403.909L397 404.351C396.396 404.744 396.879 404.618 396.324 404.73C395.982 404.8 395.747 404.872 395.438 405.04L394.999 405.29C393.986 405.715 392.793 406.258 391.75 406.606C391.376 406.73 391.048 406.914 390.688 407.044C390.145 407.24 389.646 407.504 389.1 407.686L387.499 408.296L386.249 408.797L383.688 409.799C382.812 410.102 381.88 410.593 380.999 410.801C380.113 411.01 379.416 411.424 378.562 411.71L377.875 411.927L377.626 412.178C376.928 412.312 376.406 412.553 375.749 412.805L373.999 413.557L372.249 414.308L371.688 414.559L371.249 414.809L370.875 414.933L370.626 415.184C370.234 415.243 369.992 415.31 369.632 415.49C369.127 415.742 368.606 415.878 368.101 416.132L367.749 416.312L367.375 416.436L367.126 416.687C366.744 416.744 366.483 416.809 366.132 416.985L364.999 417.564L362.188 418.817L361.875 418.941C361.491 419.15 361.169 419.411 360.749 419.568L360.25 419.693C359.9 419.874 359.794 420.063 359.378 420.202C359.049 420.313 358.746 420.405 358.438 420.57L357.999 420.821C357.306 421.141 356.525 421.383 355.856 421.748L354.188 422.574L351.202 424.077L346.938 426.081L346.499 426.332C346.117 426.508 345.752 426.62 345.375 426.834L344.75 427.207C344.196 427.448 343.782 427.692 343.25 427.959C342.808 428.181 342.416 428.244 341.98 428.531L341.499 428.836C340.652 429.172 341.458 428.716 340.676 429.196C340.104 429.548 339.524 429.781 338.938 430.089L338.499 430.339C338.134 430.533 337.81 430.667 337.476 430.918L337.249 431.091L336.875 431.215C336.49 431.408 336.161 431.675 335.749 431.842C335.184 432.072 335.541 431.826 335 432.217C334.687 432.444 334.513 432.592 334.144 432.747C333.576 432.984 333.902 432.823 333.317 433.138L332.938 433.345L332.626 433.47L332.25 433.72L331.375 434.221C329.806 435.561 327.022 436.848 325.105 437.807L323.999 438.355C323.462 438.618 322.996 439.004 322.468 439.239L321.688 439.608L320.5 440.233L314.98 443.317L314.499 443.615C313.607 443.963 312.725 444.461 311.891 444.949L308.25 446.996C307.81 447.254 307.432 447.546 306.96 447.756L301.946 450.433L299.75 451.755C299.474 451.952 299.293 452.118 298.98 452.258C297.528 452.905 295.831 453.894 294.5 454.761C293.609 455.342 292.566 455.836 291.726 456.468L291.499 456.641C291.13 456.823 291.053 456.973 290.749 457.142L290.375 457.266L290 457.517C289.455 457.847 288.932 458.307 288.382 458.581C287.851 458.848 287.258 459.206 286.75 459.52C286.389 459.744 286.357 459.893 285.906 459.983L285.626 460.021L285.375 460.272L284.991 460.024C285.324 456.497 285.372 452.968 285.443 449.43C285.491 447.041 285.392 444.223 286.128 441.933L286.238 441.613C286.922 439.545 287.919 437.606 289.48 436.059C290.709 434.842 292.248 433.993 293.712 433.101L300.748 429.053L325.86 415.452L341.417 406.207C346.986 402.515 352.352 398.409 358.074 394.965L379.618 383.378C387.021 379.25 393.726 374.488 400.29 369.137L412.222 358.926L421.929 351.113C424.835 348.674 427.634 345.796 430.727 343.633C431.368 343.184 431.835 342.795 432.617 342.795L432.485 343.233L425.248 350.057L425.877 350.792L426.27 350.635L426.432 350.653L432.817 344.248C434.292 342.858 435.472 341.256 436.722 339.669C442.609 332.189 446.072 323.962 449.849 315.331C453.419 307.171 456.881 299.055 459.11 290.399C459.994 286.966 460.109 283.446 460.855 280.012Z" fill="#0090F9"/>
<path d="M236.307 139.726C237.004 139.88 237.291 139.901 237.999 139.751C238.765 139.589 239.602 139.811 240.25 139.395C241.225 139.4 241.943 139.407 242.875 139.145C243.605 138.939 244.603 139.098 245.375 139.009L252.876 138.508C265.252 138.111 277.311 139.185 289.139 142.963L301.297 147.413C300.276 147.602 298.358 146.084 297.822 146.927L297.625 147.538L300.5 148.54L300.971 148.791C301.444 149.04 301.809 149.12 302.347 149.166L301.781 149.447L302.093 149.628C304.011 150.714 306.261 151.445 308.264 152.396C311.827 154.089 315.274 156.032 318.666 158.041C326.908 162.924 334.139 168.742 341.311 175.045C350.515 183.134 359.125 191.674 366.109 201.825C369.904 207.339 372.441 213.587 376.075 219.149C380.949 227.865 387.782 234.629 395.39 240.973C397.793 242.977 400.287 245.152 402.978 246.749C402.865 247.75 402.655 248.26 403.307 249.112C405.562 252.054 409.84 254.498 412.91 256.509C425.813 264.962 442.477 272.222 447.285 288.281C448.75 293.175 448.828 298.412 448.398 303.468C448.244 305.288 447.832 307.068 447.971 308.902L447.618 309.847L448.375 310.504C448.334 311.817 447.703 313.22 447.238 314.44C443.979 322.987 437.196 330.842 430.608 337.065C423.419 343.855 415.693 349.215 407.504 354.671C390.551 365.968 372.696 375.388 355.128 385.627L304.197 416.088L290.229 423.189C288.821 424.027 287.993 424.441 287.579 426.114C286.739 429.509 286.415 433.08 285.903 436.537C284.745 444.352 283.029 451.263 278.526 457.853C277.575 459.245 276.428 461.25 274.986 462.12L274.352 462.441C272.566 465.155 267.642 467.573 264.859 469.308C262.195 470.969 259.633 472.789 256.799 474.161C256.048 473.801 255.257 473.332 254.456 473.109C248.468 470.354 242.44 466.552 237.119 462.674L233.735 423.498C230.135 422.91 226.634 421.531 223.165 420.434C188.437 405.266 155.509 385.682 124.304 364.222C106.759 352.155 89.24 339.573 74.5947 323.984C74.4647 323.616 73.8034 322.988 73.5447 322.67L70.4214 318.689C67.5547 314.812 65.1476 310.795 62.8767 306.555C62.9844 306.047 61.3578 302.369 61.125 301.611C60.3734 299.162 59.857 296.592 59.6394 294.036C59.2923 289.956 59.9184 286.446 60.8915 282.52C62.6729 281.638 63.6055 279.087 64.8304 277.503C67.54 274.002 70.5207 270.794 74.0327 268.086C80.5967 263.023 87.698 259.013 94.958 255.06C100.091 252.266 106.14 249.592 110.48 245.623C115.321 242.423 120.101 239.216 124.224 235.085C129.225 230.073 132.794 224.305 136.204 218.149L147.365 201.084C160.521 182.532 176.93 167.465 197.169 156.978L208.271 151.678L214.495 149.173L214.937 148.967L214.514 148.663L216.301 148.086L216.5 148.039C216.805 147.737 216.842 147.75 217.25 147.663C217.796 147.548 218.309 147.5 218.727 147.085L218.875 146.914L219.625 147.037C220.023 146.68 220.447 146.478 221 146.475L221.375 146.536C222.677 145.793 224.627 145.377 226.109 145.08C226.688 144.965 226.283 144.819 226.48 144.412C226.843 143.664 228.073 142.679 228.707 142.09L226.704 142.444C225.667 142.575 224.908 142.822 223.851 142.67L229.625 141.153L232.688 140.335L233.001 140.275C234.123 140.014 235.158 139.847 236.307 139.726Z" fill="#030713"/>
<path d="M236.307 139.726C237.004 139.88 237.291 139.901 237.999 139.751C238.765 139.589 239.602 139.811 240.25 139.395C241.225 139.4 241.943 139.407 242.875 139.145C243.605 138.939 244.603 139.098 245.375 139.009L252.876 138.508C265.252 138.111 277.311 139.185 289.139 142.963L301.297 147.413C300.276 147.602 298.358 146.084 297.822 146.927L297.625 147.538L300.5 148.54L300.971 148.791C301.444 149.04 301.809 149.12 302.347 149.166L301.781 149.447C296.971 148.06 292.375 146.302 287.476 145.12C277.463 142.702 266.657 141.158 256.337 141.311C242.14 141.521 228.367 144.554 214.937 148.967L214.514 148.663L216.301 148.086L216.5 148.039C216.805 147.737 216.842 147.75 217.25 147.663C217.796 147.548 218.309 147.5 218.727 147.085L218.875 146.914L219.625 147.037C220.023 146.68 220.447 146.478 221 146.475L221.375 146.536C222.677 145.793 224.627 145.377 226.109 145.08C226.688 144.965 226.283 144.819 226.48 144.412C226.843 143.664 228.073 142.679 228.707 142.09L226.704 142.444C225.667 142.575 224.908 142.822 223.851 142.67L229.625 141.153L232.688 140.335L233.001 140.275C234.123 140.014 235.158 139.847 236.307 139.726Z" fill="url(#paint10_linear_1201_3)"/>
<path d="M238.463 444.742C242.687 448.996 247.405 452.881 253.75 452.855C260.451 452.829 269.248 449.892 274.519 445.719L274.639 445.96C274.781 446.243 274.709 446.144 274.849 446.307C274.491 451.147 274.499 456.579 273.323 461.276C273.244 461.59 273.121 462.238 272.943 462.505C272.172 463.659 269.768 464.811 268.603 465.55L256.809 472.943L247.005 467.616C244.121 465.978 241.241 464.395 238.743 462.198L238.463 444.742Z" fill="#393B46"/>
<path d="M447.618 309.847L448.375 310.504C448.334 311.817 447.703 313.22 447.238 314.44C443.979 322.987 437.196 330.842 430.608 337.065C423.419 343.855 415.693 349.215 407.504 354.671C390.551 365.968 372.696 375.388 355.128 385.627L304.198 416.088L290.229 423.189C288.821 424.027 287.993 424.441 287.579 426.114C286.739 429.509 286.415 433.08 285.903 436.537C284.746 444.352 283.03 451.263 278.526 457.853C277.575 459.245 276.428 461.25 274.986 462.12L274.352 462.441C275.555 457.64 275.689 452.298 276.169 447.359L278.531 423.541C281.443 422.313 284.743 421.6 287.775 420.689C298.15 416.539 307.424 411.073 317.02 405.417L352.656 383.7L370.158 373.892C382.891 366.709 395.509 359.293 407.576 351.025C413.075 347.257 418.488 343.477 423.604 339.189C433.429 330.955 441.941 321.409 447.618 309.847Z" fill="url(#paint11_linear_1201_3)"/>
<path d="M239.263 431.546C239.111 427.657 239.365 423.319 238.722 419.502C239.943 418.083 241.432 416.039 243.087 415.134C246.081 416.343 249.059 417.57 252.295 417.932C256.713 418.426 261.56 417.829 265.899 416.952C266.615 416.807 270.091 415.581 270.423 415.679C271.707 416.057 274.113 418.87 275.029 419.91L271.739 441.402L272.053 442.239L274.961 442.796C274.955 443.887 275.111 445.259 274.849 446.307C274.709 446.144 274.781 446.243 274.639 445.96L274.519 445.719C269.248 449.892 260.451 452.829 253.75 452.855C247.405 452.881 242.687 448.996 238.463 444.742C238.592 442.646 239.031 440.569 239.167 438.482C239.317 436.186 239.263 433.847 239.263 431.546Z" fill="#393B46"/>
<path d="M239.263 431.546L239.309 431.813C239.729 434.491 238.825 437.467 240.318 439.84L240.545 440.219C242.752 443.8 247.395 447.55 251.375 448.893L251.622 448.98C252.556 449.278 253.779 449.145 254.75 449.031C259.371 448.485 264.417 445.784 268.455 443.492C269.502 442.897 270.867 442.226 271.739 441.402L272.053 442.239L274.961 442.796C274.955 443.887 275.111 445.259 274.849 446.307C274.709 446.144 274.781 446.243 274.639 445.96L274.519 445.719C269.248 449.892 260.451 452.829 253.75 452.855C247.405 452.881 242.687 448.996 238.463 444.742C238.592 442.646 239.031 440.569 239.167 438.482C239.317 436.186 239.263 433.847 239.263 431.546Z" fill="#2A2B36"/>
<path d="M200.218 387.693L199.135 387.617C198.857 387.303 198.617 387.029 198.265 386.794C196.755 385.782 195.317 384.501 193.877 383.374L193.873 383.75L193.563 383.937L192.75 383.499L192.375 383.249L189.5 381.245C189.089 380.957 188.679 380.75 188.25 380.493L187.313 379.93L183.75 377.988C183.46 377.8 183.358 377.633 183.012 377.546C180.587 376.939 178.133 374.992 175.75 374.106L175.25 373.981L173.656 373.206L163.16 367.809L159.363 365.914L159 365.714L158.873 365.965L158.625 366.338L158.873 366.842C159.477 367.154 159.715 367.444 160.123 367.969L159.608 368.68L159.373 368.971L159.623 369.347L159.25 369.722L159.499 370.036L159.313 370.286L159.499 370.537L159.313 370.787L159.499 371.038L159.313 371.288L159.623 371.601L158.875 372.227L158.873 372.603L158.313 373.041L158.373 373.605L158 373.792C157.509 374.086 158.003 373.9 157.453 374.085L157.187 374.168L157.123 374.983C156.806 375.459 156.977 375.301 156.485 375.63L156.125 375.857C156.617 376.36 157.403 376.625 158 376.986L158.937 377.55L159.375 377.738C159.728 377.945 159.935 378.219 160.332 378.399L161.5 378.99C161.805 379.188 161.89 379.342 162.254 379.433C162.57 379.512 162.439 379.442 162.699 379.628C163.663 380.318 164.877 380.776 165.937 381.308C166.925 381.802 167.975 382.492 169 382.873L169.5 382.998L171.09 383.769C172.687 384.631 174.653 385.437 176.375 386.012L176.75 386.129L177.5 386.38C178.498 386.662 179.395 387.188 180.375 387.515L180.75 387.632L181.5 387.883L182 388.008C182.697 388.328 183.923 388.915 184.66 388.983C185.137 389.026 184.901 388.955 185.379 389.194C185.831 389.42 185.631 389.369 186.082 389.46L186.375 389.511C186.741 389.631 187.149 389.702 187.499 389.824L189.187 390.325C189.721 390.478 190.361 390.586 190.875 390.763C191.555 390.998 192.032 390.997 192.75 391.014C193.585 391.572 194.499 391 195.375 391.264C196.176 391.506 196.899 391.415 197.691 391.64C195.695 391.713 193.669 391.605 191.696 391.274C188.253 390.696 184.859 389.45 181.579 388.281C174.155 385.635 167.277 382.569 160.337 378.827C150.195 373.361 141.043 366.66 131.509 360.256C122.122 353.951 112.335 347.973 103.299 341.173C98.2961 337.408 93.5754 333.201 88.9581 328.972C86.2001 326.446 83.1027 323.952 80.8981 320.914C81.8494 316.226 83.3474 311.824 85.6261 307.609C87.3487 304.423 89.6274 301.575 91.8061 298.699L99.1994 289.113C101.398 295.73 102.961 303.936 107.171 309.583C109.598 312.023 111.557 314.745 113.737 317.394L121.5 326.889C125.852 332.775 129.475 338.553 135.088 343.398L134.635 343.301C130.717 342.493 126.711 342.556 122.875 341.251C120.437 340.422 118.118 339.336 115.787 338.25C114.585 337.69 113.271 336.922 111.993 336.602C115.231 339.618 119.248 341.816 122.907 344.287C124.198 345.16 126.101 346.853 127.555 347.302L137.313 353.367C138.166 353.874 139.421 354.833 140.349 355.104C144.984 358.436 150.613 361.015 155.703 363.59L171.665 371.756L182.227 376.759L188.504 380.166C189.892 381 191.217 382.102 192.75 382.636L193.455 382.384L200.218 387.693Z" fill="#2A2B36"/>
<path d="M378.193 312.867C380.573 309.036 383.562 305.771 386.151 302.106C390.034 296.61 391.865 290.22 391.781 283.531C392.252 284.432 392.58 285.394 393.077 286.283C395.03 289.779 397.296 292.897 398.567 296.766C399.139 298.513 399.329 300.403 399.737 302.198L399.693 302.482L399.514 303.378C399.39 303.968 399.406 303.72 399.499 304.317C401.9 306.156 403.136 308.554 404.384 311.272C406.517 304.389 409.486 297.183 409.858 289.902C419.8 298.798 428.095 309.385 428.797 323.257C428.872 324.732 427.964 325.521 427.004 326.549C422.238 331.657 416.584 336.126 411.073 340.396L396.96 350.91C385.63 358.518 373.456 364.866 361.25 370.919C355.792 373.625 350.358 376.593 344.599 378.616C337.077 381.259 329 382.367 321.25 384.15L321.167 383.975L322.224 383.061L321.757 383.159C321.347 383.277 321.345 383.368 320.873 383.374C321.059 382.448 321.761 381.915 322.389 381.23C322.948 380.379 324.207 379.479 324.971 378.74L329.843 373.728C333.471 369.849 336.641 365.58 339.691 361.236L341.855 358.246C346.299 353.282 350.07 347.851 353.132 341.929C354.228 339.809 355.427 337.614 356.067 335.306C356.963 332.068 357.038 328.997 357.034 325.671L357.345 325.887C358.144 328.978 357.899 332.135 357.509 335.265C366.465 330.849 373.184 321.196 378.193 312.867Z" fill="#2A2B36"/>
<path d="M378.193 312.867C380.573 309.036 383.562 305.771 386.151 302.106C390.034 296.61 391.865 290.22 391.781 283.531C392.252 284.432 392.58 285.394 393.077 286.283C395.03 289.779 397.296 292.897 398.567 296.766C399.139 298.513 399.329 300.403 399.737 302.198L399.693 302.482L399.514 303.378C399.39 303.968 399.406 303.72 399.499 304.317L399.311 304.695C398.861 305.668 398.843 306.927 398.642 307.976C398.247 310.046 397.718 312.112 397.038 314.106C395.582 318.37 393.276 322.448 391.2 326.432C389.112 330.442 387.204 334.442 384.538 338.123C383.09 340.122 381.242 342.043 379.523 343.82C383.359 342.683 387.342 342.412 391.184 341.37C395.096 340.309 398.445 338.486 402.174 337.034C399.336 340.324 395.528 342.633 391.812 344.806C384.382 349.15 376.418 352.557 368.719 356.392L340.3 370.776C335.526 373.28 330.978 376.461 326.711 379.743C325.917 380.352 322.991 382.986 322.224 383.061L321.757 383.159C321.347 383.277 321.345 383.368 320.873 383.374C321.059 382.448 321.761 381.915 322.389 381.23C322.948 380.379 324.207 379.479 324.971 378.74L329.843 373.728C333.471 369.849 336.641 365.58 339.691 361.236L341.855 358.246C346.299 353.282 350.07 347.851 353.132 341.929C354.228 339.809 355.427 337.614 356.067 335.306C356.963 332.068 357.038 328.997 357.034 325.671L357.345 325.887C358.144 328.978 357.899 332.135 357.509 335.265C366.465 330.849 373.184 321.196 378.193 312.867Z" fill="url(#paint12_linear_1201_3)"/>
<path d="M381.918 275.048C381.98 274.129 381.544 273.126 381.354 272.222C380.994 270.503 380.779 268.698 380.612 266.949L379.533 248.236C381.13 249.121 382.682 250.795 383.932 252.119C389.664 258.191 392.974 264.838 396.609 272.225C400.402 281.787 402.946 292.11 399.737 302.198C399.329 300.403 399.14 298.513 398.567 296.766C397.296 292.897 395.03 289.779 393.077 286.283C392.58 285.394 392.252 284.432 391.781 283.531C391.865 290.22 390.034 296.61 386.151 302.106C383.562 305.771 380.573 309.036 378.194 312.867C373.184 321.196 366.466 330.849 357.51 335.265C357.9 332.135 358.144 328.978 357.345 325.887L357.034 325.671C357.038 328.997 356.964 332.068 356.067 335.306C355.427 337.614 354.228 339.809 353.132 341.929C350.07 347.851 346.299 353.282 341.855 358.246L339.691 361.236C336.641 365.58 333.472 369.849 329.843 373.728L324.972 378.74C324.207 379.479 322.948 380.379 322.39 381.23L321.061 381.161C318.904 383.419 316.125 385.39 313.695 387.368L300.665 398.338L302.546 395.451C305.755 390.238 308.066 384.455 310.733 378.958C316.004 368.093 322.382 357.36 323.145 345.007C323.322 342.136 323.324 339.219 322.658 336.407L322.493 336.811C322.427 343.538 321.454 349.982 318.974 356.276C313.922 369.1 303.49 379.241 293.845 388.723C286.924 395.527 279.041 402.621 269.703 405.771C265.364 407.236 260.542 407.769 255.977 407.723C244.547 407.606 234.571 403.136 226.282 395.327L217.092 386.997C208.62 379.214 200.529 371.148 194.778 361.054C190.587 353.699 187.029 343.739 189.34 335.232C186.914 339.044 187.601 345.952 188.563 350.194C190.834 360.223 196.457 368.942 201.432 377.784C202.719 380.072 204.239 382.416 205.327 384.794L213.021 397.622C209.701 394.383 206.073 391.821 202.311 389.146C201.837 388.809 200.737 387.816 200.218 387.693L193.455 382.384C185.212 375.281 177.105 367.243 172.279 357.323C170.282 353.22 169.04 348.952 168.076 344.51C167.655 349.631 169.738 355.258 171.733 359.876L171.482 359.648C169.995 358.06 168.629 356.236 167.227 354.563C161.587 347.838 156.259 340.277 154.753 331.449C154.402 329.389 154.484 327.183 154.472 325.096C153.849 326.484 153.581 327.927 153.273 329.409C153.269 330.551 153.534 333.286 152.983 334.178L152.798 334.222C150.363 333.209 148.139 331.417 146.175 329.679C140.233 324.423 136.443 318.508 133.147 311.361C131.419 307.848 129.175 305.408 126.778 302.373C123.093 297.708 120.381 291.832 121.141 285.787L121.188 285.444C119.037 288.772 116.542 291.868 114.519 295.282C113.345 297.264 112.525 299.407 111.499 301.464C108.722 291.33 110.572 280.101 115.159 270.824L115.355 270.595C116.477 269.189 117.325 267.449 118.353 265.955C121.466 261.431 124.771 257.114 128.429 253.016C129.469 251.851 130.753 250.201 132.017 249.332L130.812 274.062C133.981 269.531 139.233 267.866 144.469 266.962C158.133 264.601 173.048 267.402 185.811 272.438C190.113 274.136 194.51 276.101 198.294 278.795C202.757 281.972 207.307 286.96 208.239 292.572C208.837 296.172 208.049 299.63 206.983 303.052C205.378 308.207 203.152 312.686 200.31 317.272C199.357 318.808 197.325 321.033 196.833 322.688C201.757 317.657 207.429 313.519 212.943 309.172C218.973 304.417 225.239 298.973 232.039 295.408C234.313 294.217 236.679 293.302 239.283 293.28C242.401 293.256 245.132 294.567 247.317 296.763C251.98 301.449 255.668 309.214 256.301 315.746C257.505 308.978 260.36 300.843 266.363 296.823C269.264 294.881 272.572 294.524 275.951 295.278C283.206 296.899 290.04 302.89 295.951 307.223C302.494 312.019 308.948 316.845 315.08 322.168C311.106 315.681 306.968 308.662 305.17 301.204C304.461 298.26 304.144 295.399 304.86 292.426C306.552 285.402 311.393 280.695 317.422 277.039C328.473 270.334 341.887 266.837 354.711 266.03C359.923 265.702 365.458 265.73 370.558 267.02C374.775 268.088 378.996 270.109 381.302 273.964L381.918 275.048Z" fill="white"/>
<path d="M210.989 343.85C214.402 344.337 217.011 345.029 220.156 346.445C220.807 346.737 221.667 346.989 222.125 347.556L221.715 347.835C219.561 348.136 217.853 347.103 215.953 346.236C214.268 345.468 212.608 344.758 210.989 343.85Z" fill="#030713"/>
<path d="M301.491 344.298L302.463 344.254L302.45 344.548C299.577 345.982 295.636 347.771 292.425 347.805L291.255 347.38L291.274 347.053C294.503 345.509 297.981 344.849 301.491 344.298Z" fill="#030713"/>
<path d="M152.983 334.178L152.911 332.274C152.121 331.334 151.591 330.154 150.895 329.134C148.449 325.551 145.722 322.15 144.531 317.893C146.035 319.811 147.238 321.934 148.877 323.761C150.12 325.148 151.946 326.346 152.629 328.135C152.762 328.484 152.872 328.774 153.071 329.093L153.273 329.409C153.269 330.551 153.534 333.286 152.983 334.178Z" fill="#D3D2D2"/>
<path d="M206.869 328.267L207.237 328.516C203.393 332.225 199.26 336.65 199.014 342.333L198.883 345.3L198.731 345.074C198.434 344.48 198.489 343.633 198.479 342.972C198.441 340.493 198.541 337.509 199.562 335.22L199.711 334.904C200.127 333.997 200.569 333.098 201.15 332.282C202.533 330.34 204.479 328.667 206.869 328.267Z" fill="#D3D2D2"/>
<path d="M303.302 327.515C303.743 327.414 304.111 327.34 304.567 327.396C307.083 327.712 309.505 329.515 310.916 331.582C313.83 335.855 313.118 342.285 312.179 347.053L311.887 347.474C312.049 343.639 312.527 339.276 310.671 335.723C308.993 332.514 307.357 330.009 304.023 328.346C303.488 328.08 303.56 328.026 303.302 327.515Z" fill="#D3D2D2"/>
<path d="M152.059 310.917C154.032 313.869 155.804 317.033 158.118 319.735C161.861 324.106 166.527 327.267 170.948 330.866C173.347 332.82 175.58 334.937 178.068 336.783C178.009 336.798 177.951 336.833 177.89 336.828C177.028 336.762 176.071 335.929 175.351 335.476L171.355 333.208L162.575 328.75C160.536 327.609 158.565 326.266 157.057 324.457C153.949 320.728 153.326 315.457 152.059 310.917Z" fill="#D3D2D2"/>
<path d="M341.421 333.017C339.009 333.716 335.746 335.549 333.771 337.11C333.344 337.447 333.182 337.593 332.661 337.785C334.052 335.649 337.631 333.993 339.766 332.585C341.979 331.125 344.204 329.57 346.25 327.881C351.535 323.517 356.46 317.144 359.948 311.232C360.393 312.47 358.654 320.047 358.103 321.559C357.68 322.719 357.356 323.732 356.594 324.722C352.231 328.826 346.58 330.187 341.421 333.017Z" fill="#D3D2D2"/>
<path d="M205.327 384.794C204.105 384.079 203.825 383.134 203.127 381.996L201.552 379.155L201.377 378.866L201.189 378.489L201.001 378.238L198.977 374.559L198.751 374.23L198.75 373.856C198.031 373.372 197.889 372.615 197.424 371.918L197.251 371.663C197.007 371.196 197.277 371.488 196.931 371.142L196.751 370.973C196.597 369.892 195.425 368.579 194.931 367.592L194.001 365.713L193.627 364.963C193.349 364.517 193.208 364.062 192.931 363.648L192.751 363.397L192.75 363.084L192.251 362.395L191.751 361.204C191.617 360.856 191.685 360.774 191.439 360.446C190.936 359.774 190.833 358.719 190.377 357.949L190.127 357.573L190.25 357.072L189.877 356.822C189.83 356.275 189.753 355.895 189.501 355.412C189.351 355.128 189.199 354.89 189.127 354.567L189 353.691C188.668 352.851 188.785 353.72 188.715 353.014C188.675 352.607 188.725 352.775 188.599 352.396L188.501 352.125L188.377 351.687L188.127 351.312C188.141 350.928 188.157 350.612 188.045 350.239C187.826 349.512 187.652 349.046 187.715 348.266C187.768 347.626 187.354 347.427 187.439 346.677C187.53 345.869 187.335 346.186 187.127 345.55C186.898 344.846 187.327 343.72 187.197 342.921C187.021 341.843 186.971 340.221 187.251 339.164L187.625 339.04C187.779 338.573 187.735 338.602 187.623 338.161L187.125 338.785C186.431 338.089 186.911 337.829 186.5 337.22L185.75 337.282L185 336.781C184.479 336.543 184.685 336.775 184.25 336.53L183.751 336.155L182.687 335.78C182.599 336.214 182.478 336.626 182.523 337.072C182.567 337.511 182.643 337.921 182.599 338.364C182.543 338.949 182.559 338.356 182.561 339.147V339.664L182.5 340.54C182.583 340.953 182.775 341.212 182.811 341.668C182.847 342.116 182.697 342.756 182.811 343.17C182.923 343.579 183.093 343.707 183.061 344.172L183 344.548C183.339 345.341 183.162 345.91 183.311 346.677C183.537 347.837 183.373 346.291 183.469 347.248C183.513 347.687 183.513 348.057 183.695 348.47C183.943 349.032 183.677 349.314 184.061 349.934L184 350.435L184.25 350.811L184.313 351.624C184.445 352.128 184.705 352.676 184.811 353.19C185.009 354.149 184.735 353.28 184.992 354.055C185.202 354.685 185.519 355.386 185.687 356.008C185.803 356.433 185.703 356.622 185.926 357.069C186.117 357.452 186.262 357.784 186.375 358.2L186.5 358.701C186.818 359.314 186.709 358.826 186.82 359.382C186.906 359.812 186.925 360.103 187.163 360.486L187.311 360.705L187.25 361.08C187.437 361.373 187.602 361.608 187.687 361.949C187.825 362.501 188.173 363.312 188.434 363.836L188.73 364.477C189.013 365.238 189.298 366.037 189.75 366.716L189.999 367.03C190 367.393 190.061 367.648 190.25 367.969C190.432 368.277 190.6 368.358 190.691 368.724C190.771 369.041 190.701 368.909 190.887 369.171C192.157 370.953 192.959 373.162 194.25 374.983C194.624 375.51 194.889 376.078 195.246 376.614L196 377.738L196.249 378.051C196.251 378.513 196.375 378.49 196.687 378.803L196.625 379.334C192.079 372.452 188.45 365.531 185.788 357.699C182.299 347.432 179.998 334.891 185.063 324.773C185.575 323.751 186.334 322.222 187.515 321.87C188.595 321.549 189.951 321.885 190.905 322.429L191.25 322.633C192.63 323.431 193.551 324.295 194.638 325.443C193.795 326.771 193.219 328.318 192.565 329.748C191.562 331.088 190.907 332.438 190.097 333.878C189.958 334.124 189.873 334.398 189.749 334.652L189.34 335.232C186.914 339.044 187.601 345.952 188.563 350.194C190.834 360.223 196.457 368.942 201.432 377.784C202.719 380.072 204.239 382.416 205.327 384.794Z" fill="#D3D2D2"/>
<path d="M222.365 373.071C220.946 371.823 219.375 370.39 218.239 368.884C221.503 371.291 224.967 373.651 228.835 374.96C236.247 377.467 244.608 376.425 251.528 372.949C248.087 371.724 244.779 370.627 241.726 368.545C232.963 362.566 229.985 353.55 228.115 343.54C227.283 339.082 225.987 331.995 228.81 328.041C232.543 322.813 239.951 320.033 246.037 318.971C256.529 317.141 270.055 317.504 279.042 323.873C281.656 325.725 284.471 328.78 284.936 332.086C285.317 334.797 284.857 337.706 284.508 340.402C283.451 348.562 281.958 356.531 276.845 363.218C272.402 368.072 267.343 371.616 260.91 373.255C267.786 376.54 275.193 377.443 282.503 374.858C285.768 373.702 288.493 371.868 291.152 369.672C291.983 368.986 292.725 368.098 293.613 367.507C292.456 369.425 291.118 371.124 289.666 372.826C281.956 379.303 272.69 383.485 262.601 384.438C248.988 385.722 232.971 381.886 222.365 373.071Z" fill="#030713"/>
<path d="M275.351 353.817L276.003 353.658L276.333 353.941C276.031 354.468 275.754 354.826 275.269 355.202C273.725 356.4 271.793 356.85 269.875 356.657C269.494 356.486 269.202 356.27 268.863 356.029C269.559 355.451 270.633 355.432 271.5 355.167L275.351 353.817Z" fill="white"/>
<path d="M234.983 353.67L239.195 354.708C240.385 354.943 242.412 354.973 243.273 355.82L242.875 356.547C242.509 356.682 242.143 356.83 241.75 356.867C239.037 357.122 236.847 355.362 234.983 353.67Z" fill="white"/>
<path d="M272.163 333.801C276.183 335.028 279.079 339.378 281.047 342.92L280.999 344.298L280.75 344.394C280.07 343.265 279.567 342.047 278.823 340.955C276.941 338.189 274.649 336.465 271.667 335.067C272.075 335.054 272.688 334.991 273.085 335.111L273.5 335.282L273.876 334.967C273.243 334.694 272.839 334.418 272.327 333.953L272.163 333.801Z" fill="#D3D2D2"/>
<path d="M231.598 341.505C231.831 341.98 231.707 341.943 232.25 342.155C233.992 339.306 236.448 335.504 239.541 333.993C241.579 332.998 244.433 333.151 246.659 333.138L256.228 333.135L265.296 333.175C267.507 333.198 270.055 333.094 272.163 333.801L272.327 333.953C272.839 334.418 273.243 334.694 273.876 334.967L273.5 335.282L273.085 335.111C272.688 334.991 272.075 335.054 271.667 335.067L269.995 334.749C266.106 333.972 261.647 334.347 257.669 334.328L248.884 334.308C246.618 334.311 244.33 334.268 242.125 334.848L241.711 334.95C238.287 335.825 236.756 337.678 234.628 340.321C233.941 341.175 233.081 342.086 232.55 343.045L231.552 345.271L231.254 341.413L231.251 341.249L231.598 341.505Z" fill="url(#paint13_linear_1201_3)"/>
<path d="M233.561 330.039C234.585 328.722 236.055 327.744 237.345 326.696C242.575 322.447 249.482 321.62 255.989 321.622C257.909 321.624 259.857 321.567 261.767 321.787C266.794 322.367 270.731 323.544 274.906 326.482C275.949 327.218 276.92 327.818 277.751 328.812C277.214 328.912 277.043 329.054 276.539 328.806C275.609 328.35 274.634 327.901 273.609 327.72C268.027 326.735 261.999 327.096 256.339 327.076L246.191 327.092C243.52 327.13 240.509 327.154 237.981 328.102C236.443 328.678 235.179 329.772 233.561 330.039Z" fill="url(#paint14_linear_1201_3)"/>
<path d="M233.561 330.039C235.179 329.772 236.443 328.678 237.981 328.102C240.509 327.154 243.52 327.13 246.191 327.092L256.339 327.076C261.999 327.096 268.027 326.735 273.609 327.72C274.634 327.901 275.609 328.35 276.539 328.806C277.043 329.054 277.214 328.912 277.751 328.812C279.583 330.478 282.037 332.456 282.248 335.133C282.409 337.183 282.081 339.231 281.64 341.224C279.443 337.475 277.275 333.797 272.75 332.627C267.229 331.198 260.562 331.79 254.869 331.798C250.589 331.805 245.989 331.541 241.754 332.146C240.359 332.345 239.169 332.686 237.957 333.423C235.079 335.173 232.567 338.287 231.598 341.505L231.251 341.249C231.052 338.607 230.706 335.56 231.691 333.033C232.12 331.931 232.864 330.982 233.561 330.039Z" fill="white"/>
<path d="M288.298 389.941C291.538 386.467 294.077 382.456 297.077 378.781C300.467 374.629 304.447 370.987 307.695 366.705C310.312 363.256 312.215 359.316 314.27 355.532C315.804 352.707 317.615 349.227 318.333 346.094C318.935 343.463 319.295 340.651 319.161 337.948C318.968 334.069 316.771 329.549 319.017 325.929C320.103 324.179 322.588 322.688 324.578 322.234C325.346 322.059 326.283 321.978 326.943 322.47C329.26 324.196 330.049 329.003 330.43 331.703C330.644 334.867 330.973 339.203 329.776 342.168L323.194 363.673L321.349 370.348L320.873 371.476C318.553 376.925 315.09 382.42 311.197 386.881C311.694 386.881 312.29 386.128 312.654 385.75C313.333 385.042 312.723 385.74 313.188 384.939C313.6 384.23 314.289 383.593 314.75 382.873L316.254 380.622C316.612 380.086 316.876 379.517 317.25 378.99C318.44 377.312 320.318 374.449 320.809 372.482C320.903 372.106 321.089 371.824 321.25 371.476L321.5 370.85L321.688 370.411L322.004 369.343C322.168 368.851 322.257 368.396 322.438 367.906L322.805 366.286C323.082 364.898 323.552 363.5 323.938 362.145C324.07 361.683 324.09 361.305 324.25 360.83C324.518 360.032 324.643 359.185 324.938 358.387L325.188 357.37C325.299 356.813 325.186 357.329 325.438 356.634C325.868 355.45 326.082 354.196 326.602 353.049C326.802 352.607 326.733 352.8 326.774 352.352C326.822 351.825 327.163 351.058 327.313 350.497C327.478 349.88 327.796 349.177 328.004 348.552C328.213 347.925 328.322 347.403 328.602 346.787C328.79 346.373 328.705 346.131 328.813 345.738C328.925 345.33 329.155 344.959 329.27 344.536C329.406 344.035 329.326 344.286 329.57 343.797C329.805 343.327 329.735 343.552 329.777 343.08C329.835 342.45 330.416 340.982 330.75 340.415L330.5 339.789L330.999 339.662L331.128 339.789H331.5C332.356 338.916 333.235 337.771 334.313 337.221L334.75 336.908L335.891 336.133C336.264 335.884 336.407 335.946 336.75 335.781L337.25 335.405L338.063 334.967L339 334.403L339.227 334.349C340.024 334.149 340.75 333.596 341.512 333.274L341.421 333.017C346.58 330.187 352.231 328.826 356.594 324.722L357.034 325.671C357.038 328.997 356.964 332.068 356.067 335.306C355.427 337.614 354.228 339.809 353.132 341.929C350.07 347.851 346.299 353.282 341.855 358.246L339.691 361.236C336.641 365.58 333.472 369.849 329.843 373.728L324.972 378.74C324.207 379.479 322.948 380.379 322.39 381.23L321.061 381.161C318.904 383.419 316.125 385.39 313.695 387.368L300.665 398.338L302.545 395.451C305.755 390.238 308.065 384.455 310.733 378.958C316.004 368.093 322.382 357.36 323.145 345.007C323.322 342.136 323.324 339.219 322.658 336.407L322.493 336.811C322.427 343.538 321.453 349.982 318.973 356.276C313.922 369.1 303.49 379.241 293.845 388.723C286.924 395.527 279.041 402.621 269.703 405.771C265.364 407.236 260.542 407.769 255.977 407.723C244.547 407.606 234.571 403.136 226.282 395.327C227.797 395.73 228.303 396.511 229.563 397.402L229.625 396.444C228.851 396.034 228.125 395.598 227.795 394.747C227.31 393.493 226.223 392.499 225.326 391.516C223.646 389.677 221.407 387.461 220.302 385.24C220.117 384.867 220.019 384.643 219.741 384.313C218.644 383.016 217.529 381.757 216.595 380.333L218.375 382.119L218.581 382.496C219.194 383.248 219.88 383.959 220.769 384.366L220.978 384.457L223.115 386.705C223.423 386.475 223.45 386.501 223.65 386.18C224.693 384.514 222.377 379.387 221.854 377.487C221.647 376.738 221.334 374.938 221.711 374.217L222.365 373.071C232.971 381.886 248.988 385.722 262.601 384.438C272.69 383.485 281.956 379.303 289.666 372.826L289.709 373.414C290.079 373.065 290.226 372.727 290.752 372.727C290.752 373.193 290.78 372.941 290.627 373.48L290.845 374.244C291.051 375.113 290.627 376.477 290.437 377.347C289.667 380.884 288.399 384.156 288.199 387.806C288.161 388.509 288.033 389.285 288.298 389.941Z" fill="url(#paint15_linear_1201_3)"/>
<path d="M334.567 364.993C338.441 358.46 342.649 351.026 343.836 343.448L344.157 343.456C344.043 346.518 343.745 349.473 343.079 352.471L342.093 356.072C341.985 356.408 341.605 357.209 341.605 357.525C341.605 357.779 341.771 358.005 341.855 358.246L339.691 361.236C336.641 365.58 333.471 369.849 329.843 373.728L324.971 378.74C324.207 379.479 322.948 380.379 322.389 381.23L321.061 381.161C326.184 376.109 330.425 370.875 334.567 364.993Z" fill="url(#paint16_linear_1201_3)"/>
<path d="M240.795 399.352C244.798 400.096 248.554 400.882 252.637 401.156C261.14 401.729 270.63 400.342 278.698 397.551L278.625 398.278L278.913 398.539C278.155 399.344 277.095 399.516 276.137 400.023C274.839 400.711 273.376 401.027 271.981 401.465C266.719 403.116 261.98 403.749 256.5 403.953C253.363 404.069 250.263 404.172 247.152 403.657C244.638 403.242 241.46 402.617 239.563 400.784L239.073 400.872C238.437 400.472 238.057 400.313 237.873 399.514C237.827 399.313 237.882 399.1 237.917 398.904C238.403 399.018 238.809 399.13 239.275 399.296C239.774 399.474 240.278 399.396 240.795 399.352Z" fill="#B7B6B6"/>
<path d="M289.666 372.826L289.709 373.414C290.079 373.065 290.226 372.727 290.751 372.727C290.751 373.193 290.78 372.941 290.627 373.48L290.845 374.244C291.051 375.113 290.627 376.477 290.437 377.347C289.667 380.884 288.399 384.156 288.199 387.806C288.161 388.509 288.033 389.285 288.298 389.941C287.237 391.465 285.759 392.964 284.269 394.046L282.75 395.171L282.383 395.418L280.75 396.402C280.059 396.813 279.339 397.051 278.698 397.551C270.63 400.342 261.14 401.729 252.637 401.156C248.554 400.882 244.798 400.096 240.795 399.351C239.073 398.598 237.188 398.267 235.469 397.444C233.395 396.451 231.544 394.74 229.813 393.24C227.461 391.204 225.036 389.171 223.115 386.705C223.423 386.475 223.45 386.501 223.65 386.18C224.693 384.514 222.377 379.386 221.854 377.487C221.647 376.738 221.334 374.938 221.711 374.217L222.365 373.071C232.971 381.886 248.988 385.722 262.601 384.438C272.69 383.485 281.956 379.303 289.666 372.826Z" fill="#D3D2D2"/>
<path d="M175.586 184.271C177.141 181.761 180.15 179.477 182.443 177.644C196.649 166.284 214.719 158.456 232.355 154.349C248.016 150.702 265.037 149.86 280.875 152.956C287.55 154.26 293.933 156.327 300.25 158.832C305.833 161.045 311.295 163.53 316.394 166.724C322.215 170.37 328.224 174.731 333.265 179.405C334.911 180.931 336.283 182.712 337.911 184.232C338.33 184.623 338.537 185 338.795 185.51C342.926 188.572 346.516 192.131 349.848 196.042C351.533 198.02 353.073 200.256 354.966 202.029C356.025 202.407 357.117 203.919 357.799 204.797C361.885 210.057 364.598 216.203 367.881 221.96C370.284 226.173 373.13 230.028 376.376 233.621C378.784 236.285 381.227 238.903 383.855 241.352L392.472 248.993C394.857 251.067 398.003 253.433 399.415 256.295C400.808 259.116 401.578 262.631 402.361 265.674L405.632 277.919L407.239 283.138C407.537 284.04 408.019 285.121 408.121 286.053C406.948 284.265 405.793 282.459 404.424 280.813C403.043 279.151 401.469 277.623 400.168 275.9C399.213 274.633 398.458 273.237 397.601 271.906C397.059 271.935 397.042 271.848 396.609 272.225C392.974 264.838 389.663 258.191 383.932 252.119C382.682 250.795 381.13 249.121 379.533 248.236L380.611 266.949C380.779 268.698 380.994 270.503 381.354 272.222C381.543 273.126 381.979 274.129 381.918 275.048L381.302 273.964C378.996 270.109 374.775 268.088 370.557 267.02C365.457 265.73 359.923 265.702 354.711 266.03C341.887 266.837 328.473 270.334 317.421 277.039C311.393 280.695 306.551 285.402 304.86 292.426C304.144 295.399 304.461 298.26 305.17 301.204C306.967 308.662 311.106 315.681 315.079 322.168C308.947 316.845 302.494 312.019 295.951 307.223C290.04 302.89 283.206 296.899 275.951 295.278C272.572 294.524 269.264 294.881 266.363 296.823C260.36 300.843 257.505 308.978 256.301 315.746C255.668 309.214 251.98 301.449 247.317 296.763C245.132 294.567 242.401 293.256 239.283 293.28C236.679 293.302 234.313 294.217 232.039 295.408C225.239 298.973 218.973 304.417 212.943 309.172C207.429 313.519 201.757 317.657 196.833 322.688C197.325 321.033 199.357 318.808 200.31 317.272C203.152 312.686 205.378 308.207 206.983 303.052C208.049 299.63 208.837 296.172 208.239 292.572C207.307 286.96 202.757 281.972 198.294 278.795C194.51 276.101 190.113 274.136 185.811 272.438C173.048 267.402 158.133 264.601 144.469 266.962C139.233 267.866 133.981 269.531 130.812 274.062L132.017 249.332C130.753 250.201 129.469 251.851 128.429 253.016C124.771 257.114 121.466 261.431 118.353 265.955C117.325 267.449 116.477 269.189 115.355 270.595L115.159 270.824L114.656 270.792C110.976 274.085 107.547 277.598 104.299 281.322L99.994 286.55L102.859 275.596L106.251 264.266C107.019 262.047 107.749 259.751 109.011 257.754C110.676 255.121 113.935 253.177 116.441 251.423C119.879 249.018 123.401 246.666 126.641 243.995C130.104 241.138 133.205 237.815 136.218 234.495C143.185 226.818 147.429 217.181 152.917 208.454C154.347 206.181 155.772 203.512 157.625 201.575C162.825 194.738 168.141 188.735 175.586 184.271Z" fill="url(#paint17_linear_1201_3)"/>
<path d="M319.416 231.886C320.737 231.366 321.833 230.612 323.09 230.039C324.513 229.391 326.039 228.627 327.321 227.729L327.541 227.567L327.583 228.088C326.255 228.979 323.689 229.871 322.751 231.042L323.007 231.258C322.778 231.751 322.517 232.02 322.124 232.391L322.122 232.596L321.419 232.947C319.926 233.143 318.511 233.792 317 233.875L316.905 233.681C317.582 232.779 318.443 232.397 319.416 231.886Z" fill="#393B46"/>
<path d="M327.583 228.088C331.977 225.674 335.465 223.214 340.5 222.117C347.192 220.657 352.134 222.468 358.244 224.888C359.886 225.539 361.799 226.002 363.292 226.925L364.244 227.112C363.402 227.631 362.349 227.599 361.414 227.905C359.085 228.667 356.883 229.79 354.552 230.551C352.912 231.086 350.918 231.198 349.377 231.902C349.13 232.015 348.849 232.311 348.657 232.488C347.405 232.825 345.992 232.689 344.698 232.669L335.321 232.285L321.419 232.947L322.122 232.596L322.124 232.391C322.517 232.02 322.778 231.751 323.007 231.258L322.751 231.042C323.689 229.871 326.255 228.979 327.583 228.088Z" fill="#747373"/>
<path d="M323.007 231.258C325.233 230.406 327.915 230.075 330.273 229.802C336.615 229.065 342.947 229.448 349.267 228.799C354.004 228.313 358.502 226.798 363.292 226.925L364.244 227.112C363.402 227.631 362.349 227.599 361.414 227.905C359.085 228.667 356.883 229.79 354.552 230.551C352.912 231.086 350.918 231.198 349.377 231.902C349.13 232.015 348.849 232.31 348.657 232.488C347.405 232.825 345.992 232.689 344.698 232.669L335.321 232.285L321.419 232.947L322.122 232.596L322.124 232.391C322.517 232.02 322.778 231.751 323.007 231.258Z" fill="#2A2B36"/>
<path d="M299.041 244.184C300.609 243.866 301.748 242.607 302.951 241.607C307.178 238.094 310.776 234.237 314.609 230.325C315.786 229.124 318.634 226.311 320.323 226.301C320.357 227.008 320.449 227.764 320.313 228.46C320.057 229.775 320.019 230.597 319.416 231.886C318.443 232.397 317.582 232.779 316.905 233.681L317 233.875C318.511 233.792 319.926 233.143 321.419 232.947L335.321 232.285L344.698 232.669C345.992 232.689 347.405 232.825 348.657 232.488C350.493 232.331 352.438 232.198 354.222 231.743C355.452 231.429 356.611 230.845 357.827 230.47C354.741 233.432 352.058 236.711 349.1 239.789L338.427 250.089C331.697 256.346 324.275 263.457 315.375 266.33C310.199 268 304.675 268.131 299.287 268.014L293.625 267.883C293.21 267.887 292.214 267.857 291.879 268.03C290.885 268.543 289.712 269.777 288.899 270.548L277.859 283.263L273.939 288.798C274.459 286.82 275.439 284.817 276.197 282.909C276.309 279.766 278.787 275.757 279.949 272.78C281.086 269.871 282.026 266.964 282.545 263.879C282.803 262.353 282.827 260.7 282.79 259.155C282.773 258.415 282.511 257.035 282.774 256.376C282.935 255.973 283.454 255.432 283.72 255.063C286.468 254.672 288.57 253.637 290.937 252.278C294.083 249.965 296.589 247.202 299.041 244.184Z" fill="#030713"/>
<path d="M283.72 255.063C286.468 254.672 288.57 253.637 290.938 252.278C290.446 255.908 289.033 259.325 287.56 262.656C284.522 269.523 280.568 276.012 276.838 282.517L276.198 282.909C276.31 279.766 278.788 275.757 279.95 272.78C281.086 269.871 282.026 266.964 282.546 263.879C282.803 262.353 282.828 260.7 282.79 259.155C282.773 258.415 282.512 257.035 282.774 256.376C282.935 255.973 283.454 255.432 283.72 255.063Z" fill="#2A2B36"/>
<path d="M336.401 234.803L338.934 234.625C337.874 243.232 334.464 251.238 328.126 257.308C318.805 266.232 308.29 266.843 296.085 266.513L293.044 266.463C296.238 261.065 298.814 255.371 302.704 250.402C307.083 244.809 312.475 240.774 319.126 238.306C324.57 236.285 330.659 235.504 336.401 234.803Z" fill="#0090F9"/>
<path d="M148.533 228.096C148.003 227.86 148.192 228.045 147.937 227.57C150.777 226.479 153.267 224.766 155.996 223.467C162.804 220.226 170.019 220.558 176.961 223.082L177.183 222.793C179.735 224.028 181.924 225.583 184.375 226.943L185.913 227.98L187.149 225.583L188.75 226.799L195.252 232.6C197.519 234.436 199.998 235.827 202.378 237.482L208.343 241.663C209.572 242.492 210.751 243.447 212.26 243.617C215.577 247.146 218.961 250.626 223.16 253.107C223.859 256.996 224.677 261.049 226.029 264.767C227.687 269.327 230.105 273.606 232.525 277.793C234.793 281.716 237.464 285.788 238.814 290.118L219.889 268.011C218.973 268.235 218.075 268.307 217.137 268.374C210.875 268.817 203.571 268.927 197.44 267.408C191.05 265.825 185.158 262.085 180.008 258.075C172.845 252.499 166.261 245.895 159.955 239.365C156.982 236.288 154.271 232.823 151.052 230.012L151.015 230.018C150.107 229.43 149.295 228.868 148.533 228.096Z" fill="#030713"/>
<path d="M148.533 228.096C148.003 227.86 148.192 228.045 147.937 227.57C150.777 226.479 153.267 224.766 155.996 223.467C162.804 220.226 170.019 220.558 176.961 223.082L177.183 222.793C179.735 224.028 181.924 225.583 184.375 226.943L185.913 227.98L186.167 228.19C186.597 228.53 187.037 228.746 187.499 229.029C188.268 229.5 188.957 230.069 189.749 230.532C191.04 231.287 191.791 231.984 192.65 233.189C184.213 232.186 175.825 232.779 167.38 232.38L161.552 231.878C160.539 231.746 158.649 231.224 157.739 231.578L158.012 232.079L157.625 232.484C155.641 231.274 153.693 230.54 151.503 229.787L151.052 230.012L151.015 230.018C150.107 229.43 149.295 228.868 148.533 228.096Z" fill="#747373"/>
<path d="M176.961 223.082L177.183 222.793C179.735 224.028 181.924 225.583 184.375 226.943L185.913 227.98L186.167 228.19C186.597 228.53 187.037 228.746 187.499 229.029C188.268 229.5 188.957 230.069 189.749 230.532C191.04 231.287 191.791 231.984 192.65 233.189C184.213 232.186 175.825 232.779 167.38 232.38L161.552 231.878C160.539 231.746 158.649 231.224 157.739 231.578L158.012 232.079L157.625 232.484C155.641 231.275 153.693 230.54 151.503 229.787L151.052 230.012L151.015 230.018C150.107 229.43 149.295 228.868 148.533 228.096C151.087 228.698 153.859 228.685 156.475 228.762L172.126 228.934C176.558 228.976 181.641 228.889 185.885 230.297L190.883 232.121C190.167 231.362 189.11 230.797 188.25 230.209L183.343 226.769L176.961 223.082Z" fill="#2A2B36"/>
<path d="M172.044 236.122L187.75 238.214C198.138 240.607 206.223 245.876 211.656 255.205C213.81 258.902 215.517 262.805 217.797 266.439C205.277 267.201 193.979 266.933 183.679 258.78C176.458 253.064 173.094 245.099 172.044 236.122Z" fill="#0090F9"/>
<path d="M175.586 184.271C180.957 183.228 186.223 183.861 191.524 185.029C198.45 186.555 204.893 188.851 210.806 192.845C214.701 195.477 217.975 198.641 221.105 202.127C222.474 203.65 223.962 205.782 225.585 206.978C223.622 203.82 222.238 200.514 220.528 197.227C217.927 192.229 214.655 188.128 210.556 184.291C214.615 185.793 218.849 187.138 222.647 189.237C234.091 195.564 242.379 208.112 247.767 219.77C250.574 225.841 251.989 231.655 252.589 238.298C250.516 236.443 248.849 234.262 247.053 232.149L240.155 224.569C242.923 228.779 244.787 233.242 245.632 238.221C245.948 242.158 245.591 246.407 242.881 249.537C240.866 251.863 238.31 253.229 235.375 254.021L234.923 254.146C230.899 255.205 226.956 254.603 223.16 253.107C218.961 250.626 215.577 247.146 212.26 243.617L208.422 238.253C206.055 234.596 204.15 230.723 202.304 226.785C200.553 223.05 199.129 219.549 198.648 215.421L198.226 215.248C198.324 219.777 198.795 224.403 199.785 228.824C198.989 228.186 198.358 227.239 197.709 226.443L193.481 221.182C186.841 213.001 180.025 205.224 174.569 196.162C169.162 195.35 164.691 198.377 160.164 200.729C159.406 201.124 158.444 201.835 157.625 201.575C162.825 194.738 168.141 188.735 175.586 184.271Z" fill="white"/>
<path d="M265.572 241.561L265.303 240.094C264.773 235.525 266.891 229.904 269.621 226.317L269.375 226.069L257.788 238.179C259.493 231.639 261.412 224.965 264.268 218.83C269.729 207.104 278.314 194.973 289.813 188.654C292.921 186.946 296.393 185.796 299.717 184.587L285.735 207.107C287.583 205.961 289.432 203.395 290.995 201.767C296.709 195.815 302.662 191.199 310.334 187.982C318.492 184.561 330.404 182.088 338.796 185.51C342.926 188.572 346.516 192.131 349.848 196.042C351.533 198.02 353.074 200.256 354.966 202.029L354.35 202.27C349.548 199.374 343.736 196.806 338.153 195.937C332.845 205.266 325.628 212.565 318.548 220.49L310.257 230.377L312.258 211.471L311.357 213.795C310.72 219.065 309.001 223.614 306.96 228.47C304.636 234.002 302.099 239.014 299.041 244.184C296.589 247.202 294.083 249.965 290.937 252.278C288.57 253.637 286.468 254.672 283.72 255.063C279.807 255.245 276.373 254.621 272.993 252.583C268.932 250.134 266.671 246.076 265.572 241.561Z" fill="white"/>
<defs>
<linearGradient id="paint0_linear_1201_3" x1="112.869" y1="31.9218" x2="113.311" y2="36.4685" gradientUnits="userSpaceOnUse">
<stop stop-color="#767476"/>
<stop offset="1" stop-color="#898989"/>
</linearGradient>
<linearGradient id="paint1_linear_1201_3" x1="353.452" y1="106.334" x2="367.478" y2="80.1993" gradientUnits="userSpaceOnUse">
<stop stop-color="#1E202A"/>
<stop offset="1" stop-color="#393839"/>
</linearGradient>
<linearGradient id="paint2_linear_1201_3" x1="146.419" y1="48.1784" x2="133.575" y2="81.6227" gradientUnits="userSpaceOnUse">
<stop stop-color="#8F9091"/>
<stop offset="1" stop-color="#C2C0BF"/>
</linearGradient>
<linearGradient id="paint3_linear_1201_3" x1="365.977" y1="50.855" x2="382.092" y2="74.0573" gradientUnits="userSpaceOnUse">
<stop stop-color="#999799"/>
<stop offset="1" stop-color="#C2C1C0"/>
</linearGradient>
<linearGradient id="paint4_linear_1201_3" x1="435.314" y1="93.6454" x2="386.657" y2="141.145" gradientUnits="userSpaceOnUse">
<stop stop-color="#25272F"/>
<stop offset="1" stop-color="#43434F"/>
</linearGradient>
<linearGradient id="paint5_linear_1201_3" x1="255.724" y1="64.7131" x2="256.157" y2="20.5172" gradientUnits="userSpaceOnUse">
<stop stop-color="#007CE2"/>
<stop offset="1" stop-color="#49CBFF"/>
</linearGradient>
<linearGradient id="paint6_linear_1201_3" x1="337.257" y1="81.5107" x2="328.962" y2="93.712" gradientUnits="userSpaceOnUse">
<stop stop-color="#002C79"/>
<stop offset="1" stop-color="#004785"/>
</linearGradient>
<linearGradient id="paint7_linear_1201_3" x1="87.4973" y1="274.454" x2="82.4717" y2="252.525" gradientUnits="userSpaceOnUse">
<stop stop-color="#031C45"/>
<stop offset="1" stop-color="#003974"/>
</linearGradient>
<linearGradient id="paint8_linear_1201_3" x1="340.075" y1="161.526" x2="300.836" y2="189.339" gradientUnits="userSpaceOnUse">
<stop stop-color="#003672"/>
<stop offset="1" stop-color="#1265A0"/>
</linearGradient>
<linearGradient id="paint9_linear_1201_3" x1="146.474" y1="453.06" x2="170.115" y2="326.981" gradientUnits="userSpaceOnUse">
<stop stop-color="#1F90E3"/>
<stop offset="1" stop-color="#54F9FF"/>
</linearGradient>
<linearGradient id="paint10_linear_1201_3" x1="261.986" y1="146.884" x2="262.079" y2="138.803" gradientUnits="userSpaceOnUse">
<stop stop-color="#0065B4"/>
<stop offset="1" stop-color="#1782CA"/>
</linearGradient>
<linearGradient id="paint11_linear_1201_3" x1="375.508" y1="425.116" x2="346.924" y2="346.825" gradientUnits="userSpaceOnUse">
<stop stop-color="#009BFF"/>
<stop offset="1" stop-color="#88FDFF"/>
</linearGradient>
<linearGradient id="paint12_linear_1201_3" x1="361.794" y1="381.189" x2="357.092" y2="288.085" gradientUnits="userSpaceOnUse">
<stop/>
<stop offset="1" stop-color="#2B2D34"/>
</linearGradient>
<linearGradient id="paint13_linear_1201_3" x1="255.802" y1="336.184" x2="255.606" y2="332.799" gradientUnits="userSpaceOnUse">
<stop stop-color="#CCCBC9"/>
<stop offset="1" stop-color="#F0EFF6"/>
</linearGradient>
<linearGradient id="paint14_linear_1201_3" x1="256.438" y1="321.548" x2="255.749" y2="328.152" gradientUnits="userSpaceOnUse">
<stop stop-color="#353536"/>
<stop offset="1" stop-color="#504F50"/>
</linearGradient>
<linearGradient id="paint15_linear_1201_3" x1="238.301" y1="335.394" x2="333.587" y2="381.711" gradientUnits="userSpaceOnUse">
<stop stop-color="#7E7C7C"/>
<stop offset="1" stop-color="white"/>
</linearGradient>
<linearGradient id="paint16_linear_1201_3" x1="337.816" y1="369.327" x2="327.518" y2="355.588" gradientUnits="userSpaceOnUse">
<stop stop-color="#606367"/>
<stop offset="1" stop-color="#E8DDD3"/>
</linearGradient>
<linearGradient id="paint17_linear_1201_3" x1="247.91" y1="151.735" x2="255.304" y2="321.613" gradientUnits="userSpaceOnUse">
<stop stop-color="#393A3E"/>
<stop offset="1" stop-color="#5A5959"/>
</linearGradient>
</defs>
</svg>
