<svg width="144" height="144" viewBox="0 0 144 144" fill="none" xmlns="http://www.w3.org/2000/svg">
<path d="M30.5758 1.46717L48.0666 14.7665C49.0176 15.4663 49.9364 16.0055 51.0319 16.4452C51.1135 16.4779 51.427 16.6325 51.4975 16.6272C51.555 16.6229 52.3399 15.8575 52.4579 15.7549L54.7139 13.8901L60.9599 8.935C62.6892 7.59041 64.3872 6.19714 66.3302 5.16592C67.537 4.52542 68.8765 4.11461 70.2265 3.91797C72.0767 3.64842 74.2199 3.72405 75.991 4.36671C78.5989 5.31309 80.9301 7.33865 83.08 9.05153L89.3294 14.16L92.5405 16.7696C93.1139 16.5912 93.6145 16.3345 94.1211 16.0174C95.6003 15.0918 96.9734 13.9104 98.3539 12.8414L106.503 6.44559C108.738 4.69544 111.021 2.95974 113.427 1.45178L116.505 8.03912C117.482 10.3902 118.3 12.7916 118.851 15.2805C119.662 18.9406 119.913 22.65 119.886 26.3902C119.859 30.1955 119.516 34.0821 118.686 37.7966C118.044 40.67 117.087 43.4891 115.967 46.21C116.095 47.3515 116.399 48.4832 116.663 49.5995C117.648 53.758 118.941 58.2891 121.455 61.8062C122.577 63.3766 123.948 64.6364 125.413 65.8724L128.11 68.0481C129.763 69.4561 131.26 70.9908 132.437 72.8298C136.077 78.5168 134.878 85.5819 133.509 91.7822C133.763 91.8356 134.123 91.7567 134.382 91.714C136.226 91.4106 138.796 90.8298 139.933 89.2152L139.997 89.1239C139.693 90.4722 139.553 91.8279 139.072 93.1351C137.956 96.1721 135.844 99.2586 133.177 101.143C132.506 101.617 131.777 101.96 131.035 102.305L133.354 102.186C134.299 102.144 135.097 102.175 135.983 101.802L131.332 106.481C127.567 110.098 123.374 113.03 118.729 115.398L113.042 118.066L105.208 121.091C102.358 122.233 99.6085 123.529 96.8826 124.942L80.3369 134.028L75.4651 136.915C74.4235 137.542 73.2893 138.349 72.1521 138.77C71.3974 138.525 70.627 137.978 69.9259 137.6L65.5932 135.303L54.8672 129.789L44.9224 124.404L31.9922 118.014C27.9812 116.088 23.8272 114.144 20.0862 111.724C17.1886 109.849 14.45 107.681 11.9112 105.344C10.72 104.248 9.6157 103.008 8.38266 101.969L8.29598 101.896C9.74699 102.398 11.2671 102.284 12.7701 102.095L11.2708 101.115C9.09045 99.5526 7.35115 97.6465 6.00985 95.3132C5.48434 94.399 5.00667 93.4477 4.71651 92.4298C4.40331 91.331 4.31743 90.1812 4.1322 89.0563L4.27881 89.2487C4.74295 89.8275 5.28822 90.0997 5.9514 90.3901C7.39281 91.0216 9.03469 91.3652 10.5925 91.5461L9.81171 88.3693C9.44813 86.6969 9.21627 84.9497 9.15291 83.2367C9.07995 81.2645 9.21336 79.2601 9.7398 77.352C10.7519 73.6839 13.1609 70.6782 15.9728 68.2036C17.9884 66.4298 20.059 64.8042 21.7669 62.7062C24.5055 59.3423 26.1107 55.3202 27.1909 51.1513L27.9366 47.8495C28.0429 47.356 28.2583 46.7112 28.2163 46.2091C28.186 45.8484 28.0045 45.4843 27.8665 45.1542L27.1915 43.4782L26.172 40.2336C24.9002 35.5717 24.3456 30.9522 24.3126 26.124C24.2946 23.47 24.4026 20.835 24.8091 18.2091C25.4758 13.9029 26.7268 9.89113 28.5013 5.92264C29.1679 4.43228 30.0445 3.01221 30.5758 1.46717Z" fill="#030713"/>
<path d="M30.8948 11.213C31.1548 10.296 31.7172 9.34124 32.1475 8.48923L32.2384 8.52571L32.3989 8.9192L32.3676 9.05995C32.3181 9.29456 32.316 9.53317 32.3085 9.77195L32.2536 9.80292C31.89 10.0179 31.5355 10.6876 31.2364 11.0356L31.254 10.9198C31.2634 10.806 31.275 10.8351 31.2193 10.7778L31.1629 10.91C31.0971 11.0582 31.0298 11.1213 30.8948 11.213Z" fill="url(#paint0_linear_1201_3)"/>
<path d="M46.4972 16.0106C47.163 16.4128 47.9259 16.9263 48.6834 17.1206L48.2503 21.7888C48.201 22.6423 48.2286 23.5358 48.0656 24.3759C47.5661 24.0254 47.04 23.6641 46.6043 23.2361C46.6836 23.1199 46.7042 23.0498 46.7126 22.9085C46.7614 22.0763 46.6183 21.228 46.6063 20.3952C46.5855 18.9672 46.7565 17.4118 46.4972 16.0106Z" fill="#2A2B36"/>
<path d="M9.07313 96.1195C8.23643 95.1618 7.56818 94.1396 6.96667 93.0212C8.70793 93.5565 10.4298 93.9365 12.2571 93.9848L12.4703 94.1092L12.4674 94.233C12.4601 95.211 12.9286 96.0427 13.0227 96.9926C13.0415 97.1814 13.085 97.3788 12.9899 97.5516L10.7097 96.7647C10.1711 96.5578 9.62936 96.2556 9.07313 96.1195Z" fill="#66D4FF"/>
<path d="M31.4728 43.0982L31.8165 43.5741C32.1313 43.572 32.9214 42.6648 33.1629 42.4089C33.3474 42.2133 33.1826 42.4046 33.3105 42.182C33.4447 41.9486 33.7243 41.8036 33.873 41.5479L34.1016 41.3191L34.1019 41.231C34.2551 41.0935 34.3326 41.0194 34.4355 40.8434C34.5171 40.704 34.6337 40.6576 34.7168 40.4912C34.7548 40.4153 34.8291 40.3399 34.8816 40.2755C34.9603 40.1791 35.0192 40.0844 35.0859 39.9803C35.169 39.8511 35.1379 39.8988 35.232 39.7835C35.3111 39.6865 35.3704 39.592 35.4375 39.4874L35.8605 38.8543L35.9901 38.632C36.0898 38.4464 36.2263 38.282 36.3339 38.0959L36.4219 37.9726L36.4879 37.8714L36.8438 37.3739L36.9668 37.2153C36.8738 37.1486 36.876 37.1366 36.7614 37.1261C36.5771 37.1094 36.1678 36.9407 36 36.8454L35.2519 36.4678C35.0036 36.3547 34.8202 36.1631 34.5585 36.0705L34.6283 36.2467C34.4413 36.3962 34.4136 36.3895 34.1719 36.4054L34.347 36.5987L34.3301 36.7573L34.4355 36.8278L34.4882 36.7404C34.5919 36.8443 34.6279 36.8324 34.629 36.9863C34.7113 37.1338 34.8006 37.2463 34.9095 37.3739C34.9095 37.6104 34.7991 37.5802 34.8392 37.8668L34.6641 38.0077L34.6637 38.0959L34.611 38.184L34.5585 38.289L34.4531 38.2895L34.4527 38.3949L34.3125 38.4304L34.3121 38.5358C34.2306 38.5358 34.2737 38.5464 34.1895 38.4834C34.0648 38.617 33.9996 38.731 33.8203 38.7829L33.8199 38.8881L33.6797 38.994L33.6793 39.0822L33.627 39.1526L33.7142 39.2407V39.4167L33.6094 39.4693L33.504 39.3816L33.3988 39.3812C33.2895 39.2668 33.2861 39.2396 33.2227 39.0998L33.1702 39.0294L33.1172 38.9238H33.0469L33.4687 39.8043L33.4841 39.8682C33.5481 40.1244 33.8676 40.438 33.7852 40.6843C33.6763 40.5562 33.6122 40.4478 33.5394 40.2971L32.2389 37.6908L32.2035 37.6027L31.9222 36.9859L31.7816 36.6869L31.7464 36.6187C31.6582 36.4421 31.7734 36.676 31.6764 36.4227L31.5004 35.9996L31.2894 35.5065L31.1466 35.0904C31.0614 34.7939 31.1777 35.1644 31.0436 34.8728C30.9827 34.7402 30.9896 34.6511 30.903 34.5206L30.9022 34.3797L30.8327 34.3092L30.8214 34.2557L30.513 33.3736C30.4404 33.1918 30.3409 32.879 30.3397 32.6889L30.2702 32.6184L30.2569 32.5609C30.1221 32.0247 29.8974 31.5049 29.7602 30.965C29.7161 30.7925 29.6968 30.68 29.7426 30.5053H29.7949L29.8483 30.6107C29.8631 30.4093 29.8708 30.2086 29.9179 30.0117L30.0579 30.0471C30.0782 30.165 30.0714 30.2479 30.0771 30.364C30.0917 30.6591 30.3456 31.0616 30.4804 31.3217C31.4419 33.1764 32.8864 34.7552 34.6061 35.929C35.4159 36.4817 36.2385 36.8937 37.1938 37.128C35.7756 38.9253 34.7199 40.9092 33.1117 42.578C32.7071 42.9981 32.2929 43.4561 31.8086 43.7833C31.6406 43.5536 31.5375 43.3768 31.4728 43.0982Z" fill="#2A2B36"/>
<path d="M36.7206 24.1075C38.9046 25.5603 41.0059 26.5246 43.6941 25.9738L44.2999 25.8274C44.5052 25.8159 44.791 25.6867 44.9893 25.6206L46.5362 25.0611L47.2369 25.3686L42.4686 30.9971C42.3497 30.693 42.2623 30.3646 42.082 30.0907C40.9601 28.3877 39.537 26.9854 38.0741 25.5804C37.7117 25.2322 37.2926 24.9194 36.9484 24.5586C36.8299 24.4344 36.7731 24.2675 36.7206 24.1075Z" fill="#2A2B36"/>
<path d="M107.413 23.9444C107.407 24.013 107.411 24.2192 107.383 24.2702C107.263 24.4873 106.884 24.7503 106.699 24.9397C105.502 26.1646 104.161 27.2777 103.039 28.5718C102.345 29.3711 101.748 30.2272 101.244 31.1574C100.743 30.3834 96.9767 25.8661 96.9743 25.7303C97.1466 25.5751 97.3098 25.3979 97.5291 25.3134L100.11 25.9923C100.523 26.0868 100.956 26.0742 101.377 26.0697C103.539 26.0468 105.614 25.0718 107.413 23.9444Z" fill="url(#paint1_linear_1201_3)"/>
<path d="M32.7471 9.59314C33.7989 11.2059 34.7031 12.9245 35.7999 14.5057C37.8737 17.4953 40.3123 19.8472 43.0635 22.1997L46.5362 25.0611L44.9893 25.6205C44.7909 25.6867 44.5052 25.8159 44.2999 25.8274L44.2899 25.6809C43.4979 25.4607 42.7609 24.6418 42.1599 24.0969C40.7469 22.8161 39.3613 21.5149 38.1613 20.0262C37.3457 19.0144 36.6954 17.9119 36.0189 16.8063C34.8909 14.9627 33.7875 13.1624 33.0849 11.1048C32.9126 10.6001 32.6908 10.1337 32.7471 9.59314Z" fill="url(#paint2_linear_1201_3)"/>
<path d="M108.876 13.4786L111.641 8.29053L111.737 8.29769L111.844 8.52568L111.461 9.40268C111.403 9.51766 111.398 9.56233 111.404 9.68689L111.285 9.84037L109.782 13.2486C108.28 17.396 105.814 20.8906 102.585 23.8538L101.211 24.9936C100.804 25.3053 100.392 25.5461 100.11 25.9923L97.5291 25.3134C99.1298 24.1223 100.643 22.8093 102.108 21.4561C104.715 19.0486 107.037 16.5311 108.876 13.4786Z" fill="url(#paint3_linear_1201_3)"/>
<path d="M116.296 13.9502C117.119 16.2718 117.436 18.9704 117.636 21.4168C118.217 28.528 117.793 35.7436 115.097 42.4256L114.346 44.1722C114.235 44.4309 114.14 44.7973 113.988 45.027L113.94 45.0761L112.173 43.4232C112.682 42.441 113.143 41.4668 113.556 40.4395C113.757 39.9396 114.006 39.4222 114.076 38.8851L114.069 38.8729C114.069 38.7263 114.063 38.6343 114.13 38.5C114.236 38.2862 114.337 38.082 114.384 37.8451L114.434 37.6204L114.504 37.5499L114.505 37.409C114.617 37.2959 114.614 37.1404 114.645 36.9863L114.715 36.9159L114.716 36.775C114.839 36.5894 114.834 36.4165 114.891 36.2117C114.924 36.0928 114.942 35.8927 114.997 35.7887C115.079 35.6309 115.067 35.6162 115.067 35.4364C115.18 35.2948 115.193 35.1881 115.202 35.0115L115.208 34.8728C115.312 34.7669 115.278 34.734 115.278 34.591C115.391 34.4762 115.348 34.3943 115.348 34.2388C115.453 34.1328 115.418 34.0999 115.419 33.957C115.494 33.8595 115.509 33.8179 115.526 33.6917L115.594 33.2878C115.627 33.1645 115.652 33.1294 115.642 32.9949L115.63 32.9002C115.757 32.7713 115.674 32.5891 115.787 32.4071C115.773 32.2731 115.761 32.2049 115.805 32.0725C115.853 31.9282 115.868 31.7997 115.893 31.6498C115.912 31.5284 115.93 31.4243 115.93 31.3007L115.928 31.2094C116.031 31.0706 115.958 30.8423 116.016 30.6635C116.06 30.5254 116.082 30.4433 116.069 30.2936L116.051 30.1527C116.169 30.0339 116.122 29.6946 116.122 29.5186L116.192 29.4136L116.192 29.2017C116.198 29.0953 116.211 29.0177 116.202 28.9088L116.192 28.8141C116.327 28.6775 116.262 28.1765 116.262 27.9687C116.398 27.7645 116.331 27.4703 116.367 27.2291C116.415 26.9095 116.405 26.6014 116.403 26.2779C116.538 26.1413 116.473 25.6403 116.473 25.4325C116.591 25.3138 116.543 24.9745 116.544 24.7984C116.789 24.4295 116.501 23.6656 116.754 23.2844L116.824 23.3894C116.822 23.0772 116.78 22.7049 116.86 22.4035L116.965 22.4031C117.101 22.2331 117.105 22.2329 117.106 22.0158H117.211L117.264 22.1037L117.281 21.91C117.192 21.7973 117.225 21.8568 117.176 21.734L117.281 21.6814C117.387 21.6105 117.39 21.5065 117.39 21.393L117.387 21.2759L117.492 21.1704V20.677C117.441 20.4602 117.426 20.3064 117.422 20.0783C117.279 19.8639 117.404 19.6445 117.352 19.4089C117.324 19.2847 117.316 19.0991 117.281 18.9862C117.221 18.7869 117.263 18.6035 117.211 18.4227C117.174 18.2941 117.172 18.1952 117.141 18.0705C117.081 17.8307 117.091 18.0422 117.08 17.8758C117.073 17.7649 117.076 17.6622 117.054 17.552L116.895 16.7671L116.859 16.591C116.797 16.4083 116.822 16.2513 116.771 16.0803C116.679 15.7661 116.747 16.1069 116.7 15.8722L116.561 15.2348C116.501 15.0731 116.491 14.9162 116.438 14.7593L116.385 14.636C116.335 14.46 116.333 14.3313 116.25 14.155L116.296 13.9502Z" fill="url(#paint4_linear_1201_3)"/>
<path d="M32.5298 9.22186L32.7471 9.59314C32.6909 10.1337 32.9127 10.6001 33.085 11.1048C33.7875 13.1624 34.891 14.9627 36.019 16.8063C36.6955 17.9119 37.3457 19.0144 38.1614 20.0262C39.3614 21.5149 40.747 22.8161 42.16 24.0969C42.7609 24.6418 43.498 25.4607 44.29 25.6809L44.2999 25.8274L43.6941 25.9737C41.0059 26.5246 38.9046 25.5602 36.7206 24.1075L36.3822 23.827C35.8958 23.4471 35.4244 23.0192 34.9866 22.5833C34.7114 22.3092 34.1991 21.5698 33.8627 21.4538L33.8164 21.4279C33.7174 21.2701 33.6524 21.1649 33.6634 20.9735C33.6694 20.8664 33.6767 20.8136 33.6417 20.7065C33.3319 19.7642 32.9805 18.8474 32.7197 17.8866C32.2369 16.1084 31.9416 14.2791 31.6624 12.4594C31.7106 12.1665 31.9422 11.5087 32.097 11.272C32.2223 11.0804 32.2776 11.0022 32.3374 10.776C32.3862 10.2929 32.2709 9.63502 32.5298 9.22186Z" fill="white"/>
<path d="M31.6624 12.4594C31.7106 12.1665 31.9422 11.5087 32.097 11.272C32.2223 11.0804 32.2776 11.0022 32.3374 10.776C32.3061 12.0445 32.313 13.1723 32.5197 14.4332C32.8877 16.6796 33.7442 18.9154 34.756 20.9447C35.1434 21.7217 35.5971 22.6222 36.1712 23.2743C36.334 23.4591 36.3604 23.5841 36.3822 23.827C35.8958 23.4471 35.4244 23.0192 34.9866 22.5833C34.7114 22.3092 34.1991 21.5698 33.8627 21.4538L33.8164 21.4279C33.7174 21.2701 33.6524 21.1649 33.6634 20.9735C33.6694 20.8664 33.6767 20.8136 33.6417 20.7065C33.3319 19.7642 32.9805 18.8474 32.7197 17.8866C32.2369 16.1084 31.9416 14.2791 31.6624 12.4594Z" fill="#D3D2D2"/>
<path d="M65.6603 7.99358C66.967 6.93198 68.8041 6.16868 70.4655 5.93157C73.1761 5.54472 75.6156 6.05134 77.8259 7.70838C78.3944 7.99407 78.9214 8.43069 79.4297 8.81205L82.2402 10.9993L89.3552 16.8271C89.6781 17.0995 90.0541 17.3098 90.3687 17.5815C89.7891 17.7408 89.2006 17.897 88.6532 18.1508C88.4851 18.0351 88.3817 17.7958 88.2788 17.6211C88.1183 16.845 83.5004 13.5267 82.5449 12.7933L79.3898 10.3747C78.6885 9.88078 77.8949 9.47585 77.215 8.97171L77.1199 8.89955C76.4982 8.61262 75.8759 8.3291 75.2125 8.15164C72.99 7.55713 70.3317 7.71252 68.1758 8.50744L65.8176 9.5975L65.7312 9.66479C65.1694 10.0949 64.4989 10.4255 63.915 10.8379L59.6954 14.0769L57.516 15.8516C56.7355 16.4744 55.9228 17.1517 55.3009 17.9303L55.1295 18.1011C54.6128 17.8006 54.1339 17.5837 53.5635 17.4054L61.4534 11.0834C62.785 10.0434 64.179 8.79604 65.6603 7.99358Z" fill="url(#paint5_linear_1201_3)"/>
<path d="M111.844 8.5257C113.868 11.4558 115.391 14.983 115.665 18.5558C115.691 21.4713 115.433 24.2978 114.565 27.097C114.384 27.6798 114.183 28.2511 113.948 28.8143C113.835 29.0875 113.482 29.6747 113.462 29.9481L112.494 31.692C111.16 33.7483 109.108 35.675 106.645 36.1986C106.351 36.0194 106.108 35.7665 105.858 35.533C106.655 35.5078 107.421 35.3695 108.151 35.0344L107.883 35.0325C105.925 34.9978 103.884 33.5132 102.581 32.1536C103.081 30.9862 103.843 29.934 104.575 28.9034C105.623 27.426 106.678 26.0218 107.904 24.6846C108.358 24.1894 108.792 23.6628 109.32 23.2435C109.248 23.6797 108.955 23.9606 108.743 24.3363C108.557 24.6662 108.401 25.0399 108.267 25.394C107.952 26.2287 107.733 27.1117 107.493 27.9708C107.216 28.9625 106.921 29.9593 106.725 30.9704L107.365 30.7531C109.56 29.8938 111.685 27.7656 112.605 25.5978C113.867 22.6267 113.608 18.8949 113.017 15.7931C112.864 14.9924 112.708 14.1107 112.399 13.3561C112.241 12.9725 112.209 12.5591 112.138 12.1527C111.992 11.3045 111.722 10.5794 111.285 9.84039L111.405 9.6869C111.398 9.56235 111.403 9.51767 111.461 9.4027L111.844 8.5257Z" fill="#B7B6B6"/>
<path d="M111.285 9.84039C111.722 10.5794 111.992 11.3045 112.138 12.1527C112.209 12.5591 112.241 12.9725 112.399 13.3561C112.708 14.1107 112.864 14.9924 113.017 15.7931C113.608 18.8949 113.867 22.6267 112.605 25.5978C111.685 27.7656 109.56 29.8938 107.365 30.7531L106.725 30.9705C106.921 29.9594 107.216 28.9625 107.493 27.9708C107.732 27.1117 107.952 26.2287 108.267 25.394C108.401 25.0399 108.557 24.6662 108.743 24.3363C108.955 23.9606 109.248 23.6797 109.319 23.2435L110.498 21.6444L110.367 21.5942C110.08 21.8424 109.802 22.0996 109.478 22.2981L107.413 23.9444C105.614 25.0718 103.539 26.0468 101.377 26.0698C100.956 26.0743 100.523 26.0868 100.11 25.9924C100.392 25.5462 100.804 25.3053 101.211 24.9937L102.585 23.8539C105.814 20.8906 108.28 17.396 109.782 13.2487L111.285 9.84039Z" fill="white"/>
<path d="M109.478 22.2981C109.754 21.7293 110.165 21.2472 110.443 20.683C111.54 18.459 111.931 16.1506 112.182 13.7025L112.254 13.7015C112.152 15.1357 112.363 16.5293 112.055 17.9616C111.85 18.9116 111.525 19.7766 111.085 20.6419C110.915 20.978 110.742 21.3558 110.498 21.6443L110.367 21.5942C110.08 21.8424 109.803 22.0995 109.478 22.2981Z" fill="#B7B6B6"/>
<path d="M33.9385 44.0424C34.0905 44.3935 33.9135 44.9545 33.8516 45.3244C33.3778 48.1646 32.4385 50.8178 31.3873 53.488L26.4581 64.4468C25.2317 66.0345 24.0561 67.8095 22.518 69.1097C21.628 69.8621 20.5806 70.4274 19.6223 71.0891C17.7261 72.3981 15.9102 74.1507 15.0017 76.3054C14.5603 77.3522 14.3135 78.4482 14.0386 79.5455L13.1637 84.0444L12.7534 86.9601C12.7115 87.2629 12.7052 87.7508 12.5916 88.0273C12.5703 88.0794 12.5175 88.1115 12.4805 88.1536L12.2327 88.1393C11.7674 86.0243 11.3898 84.003 11.389 81.8257C11.3881 79.1811 11.9142 76.8609 13.2521 74.5716C14.4046 72.5993 16.0367 70.9189 17.7551 69.434C18.9188 68.4285 20.1523 67.5036 21.2728 66.4484C22.6046 65.1946 23.7535 63.782 24.7335 62.2377C26.154 59.9997 27.2006 57.5982 28.047 55.0903L29.6305 49.6685L30.0053 48.0383C30.0407 47.8661 30.0671 47.5262 30.1712 47.3851C30.3128 47.1933 30.5893 47.0025 30.771 46.8461L32.3132 45.5934C32.8838 45.1072 33.4101 44.5735 33.9385 44.0424Z" fill="#66D4FF"/>
<path d="M109.637 43.8367L113.85 47.3173C114.112 47.5666 114.147 47.9549 114.221 48.2933L114.679 50.3566C115.393 53.3828 116.239 56.3458 117.578 59.1623C118.641 61.3987 119.844 63.4743 121.571 65.2716C122.984 66.7431 124.633 67.9511 126.219 69.2249C130.378 72.5655 132.565 75.9191 132.553 81.427C132.548 83.8345 132.142 86.324 131.55 88.6524C131.496 88.5859 131.429 88.5276 131.387 88.4529C131.353 88.3929 131.345 88.1324 131.335 88.0627L131.188 86.9954L130.506 82.6029C130.302 81.3325 130.108 79.9474 129.615 78.7535C128.97 75.4682 126.662 72.571 123.986 70.6778C123.032 70.0038 121.928 69.4751 121.081 68.6697C120.262 67.8912 119.587 66.99 118.901 66.0965L116.136 62.2118C115.984 61.5774 115.578 60.9632 115.291 60.3773L113.843 57.2714C112.886 55.0826 112.148 52.7824 111.439 50.5026L109.817 44.9703C109.763 44.7695 109.55 44.2429 109.564 44.0665C109.57 43.9864 109.613 43.9134 109.637 43.8367Z" fill="#66D4FF"/>
<path d="M116.25 14.155C116.167 14.1316 116.014 14.1061 115.945 14.0541L115.857 13.9668L115.787 14.0192C115.705 13.9649 115.755 13.9845 115.629 13.9836C115.629 14.0553 115.651 14.1255 115.664 14.1957L115.789 14.6735L115.84 14.9354L115.875 15.1116C115.938 15.2951 115.898 15.437 115.945 15.6047C115.995 15.7807 116.01 15.8777 116.016 16.0626C116.154 16.2707 116.086 16.7204 116.086 16.9785C116.219 17.1788 116.156 17.5776 116.156 17.8239C116.273 18.0001 116.281 19.0292 116.227 19.268C116.164 19.5451 116.148 19.7706 116.139 20.0606L115.981 20.0432C115.977 19.9049 115.955 19.7491 116.009 19.6203L116.04 19.5498C116.131 19.2368 116.088 18.7792 116.087 18.4515C116.082 16.4148 115.762 14.4774 115.004 12.582C114.406 11.0861 113.64 9.76606 112.773 8.41554C112.464 7.93372 112.027 7.12723 111.484 6.89337C110.823 7.66515 110.397 8.49652 109.89 9.36987L107.447 13.5512C106.364 15.2384 105.085 16.8761 103.676 18.3041C102.194 19.8057 100.531 21.1262 98.8857 22.4385L95.8932 24.8544C93.8331 23.1058 92.0922 20.7869 90.3391 18.7335C90.6811 18.5744 91.2205 18.5347 91.6052 18.447C92.8412 18.1653 94.06 17.8733 95.2028 17.3082C96.3632 16.7344 97.4249 16.0009 98.4835 15.2603L103.136 11.7963L112.394 4.61603C112.846 5.90299 113.55 7.07489 114.136 8.30168C114.994 10.0986 115.712 12.0457 116.296 13.9502L116.25 14.155Z" fill="#2A2B36"/>
<path d="M31.8087 43.7833L30.1493 45.1867L29.1193 42.5951C27.6248 38.7633 26.8648 34.7253 26.5167 30.6381C25.9941 24.5048 26.4042 18.4431 28.2182 12.5329C29.0543 9.809 30.369 7.22678 31.5079 4.62308L39.1259 10.9161C41.4739 12.7277 43.9082 14.5562 46.4972 16.0105C46.7565 17.4118 46.5855 18.9672 46.6064 20.3952C46.6184 21.228 46.7614 22.0762 46.7127 22.9085C46.7042 23.0498 46.6836 23.1198 46.6043 23.2361C42.7328 20.3462 38.8583 17.1241 36.2115 13.0207L33.55 8.66607C33.1191 7.96912 32.7126 7.2259 32.1812 6.60089C30.2787 9.7978 28.8028 13.3122 28.1138 16.9785C27.9308 17.9526 27.7517 18.9242 27.8239 19.9197L27.783 19.9759C27.723 20.0616 27.744 20.0268 27.7028 20.1311L27.5271 20.2368C27.5267 20.3839 27.5644 20.4279 27.4564 20.5361C27.4564 20.7182 27.4892 20.839 27.3861 20.9941C27.3861 21.2523 27.454 21.7013 27.3165 21.91L27.3861 21.9804C27.3861 22.1164 27.4168 22.1257 27.3158 22.2269C27.3158 22.4033 27.3638 22.7424 27.2455 22.8612C27.2183 23.6921 27.1757 24.533 27.2282 25.362C27.2597 25.862 27.19 26.3791 27.2813 26.8766L27.3238 27.3115C27.3377 27.4868 27.3261 27.3624 27.3634 27.5514C27.3878 27.6752 27.3859 27.7153 27.3698 27.8312C27.3471 27.9965 27.337 28.113 27.4392 28.2505L27.438 28.3386C27.438 28.4885 27.4202 28.694 27.5095 28.8141C27.505 29.0273 27.4943 29.1923 27.5622 29.3954C27.6859 29.7653 27.5455 30.662 27.808 30.9276L27.7885 31.0399C27.7707 31.1677 27.7759 31.2297 27.8085 31.3503L27.8783 31.4207C27.8787 31.5637 27.844 31.5966 27.9486 31.7025L27.9345 31.7841C27.9162 32.0095 28.008 32.2094 28.0543 32.4247L28.0774 32.6404C28.0879 32.7557 28.1239 32.8284 28.1595 32.9353C28.2175 33.1099 28.185 33.0002 28.1953 33.1469C28.206 33.2985 28.2323 33.3342 28.3002 33.4638L28.3356 33.6051L28.3564 33.6953C28.378 33.805 28.3729 33.7661 28.3532 33.8865C28.4393 34.025 28.4455 33.9887 28.4235 34.1683L28.5111 34.2741L28.497 34.3443C28.4788 34.5296 28.581 34.7405 28.6517 34.9079L28.6345 35.0137L28.722 35.1195L28.7048 35.2251C28.7068 35.5106 28.8822 35.849 28.9335 36.1409L29.0033 36.2114C29.0293 36.306 29.0303 36.3603 29.0391 36.4578C29.0537 36.619 29.1133 36.7588 29.2142 36.8805L29.197 36.9863L29.2363 37.0722C29.2892 37.1999 29.3063 37.3108 29.3363 37.443C29.3837 37.6532 29.3125 37.3309 29.4252 37.6204L29.461 37.8668C29.4827 37.9489 29.5324 37.9585 29.5658 38.0431C29.7152 38.4214 29.7979 38.8665 29.9556 39.2616C30.0008 39.3745 29.982 39.3284 30.0133 39.462C30.0411 39.5809 30.0769 39.6296 30.1283 39.7339C30.1939 39.8674 30.1401 39.7814 30.1813 39.9452L30.2569 40.1135C30.3077 40.2219 30.3488 40.3213 30.3803 40.4365C30.4444 40.6721 30.3636 40.4162 30.4798 40.6497L30.4954 40.7158C30.5202 40.815 30.5663 40.8815 30.6205 40.9667L30.6032 41.0724L30.6426 41.1318C30.7073 41.2361 30.7467 41.3373 30.7768 41.4555C30.8057 41.5693 30.8575 41.6689 30.9023 41.7769L30.9338 41.8588C31.0431 42.1352 31.171 42.4399 31.3236 42.6928C31.4012 42.8216 31.446 42.9456 31.4796 43.0912L31.4728 43.0982C31.5375 43.3768 31.6407 43.5536 31.8087 43.7833Z" fill="#393B46"/>
<path d="M30.8948 11.213C31.0298 11.1213 31.0971 11.0582 31.1629 10.9101L31.2193 10.7778C31.275 10.8351 31.2634 10.806 31.254 10.9198L31.2364 11.0356C31.5355 10.6876 31.89 10.0179 32.2536 9.80295L32.3085 9.77197C32.316 9.53319 32.3181 9.29458 32.3676 9.05997L32.3989 8.91922L32.5298 9.22187C32.2708 9.63503 32.3862 10.2929 32.3374 10.776C32.2776 11.0022 32.2223 11.0804 32.097 11.272C31.9422 11.5088 31.7106 12.1665 31.6624 12.4594C31.9416 14.2791 32.2369 16.1084 32.7197 17.8866C32.9805 18.8474 33.3319 19.7642 33.6417 20.7065C33.6767 20.8136 33.6694 20.8664 33.6634 20.9735C33.6523 21.1649 33.7174 21.2701 33.8164 21.4279L33.8627 21.4539L34.1376 21.8801C34.3605 22.1012 34.5216 22.4092 34.6993 22.668C34.9459 23.0274 35.2206 23.3701 35.4949 23.7086L38.2557 27.0371C39.4228 28.547 40.5257 30.2528 41.4623 31.9167L40.99 32.426C39.4898 33.8294 37.5567 34.7753 35.4752 34.6972L35.4055 34.6938C36.1999 35.1084 37.227 35.2367 38.1073 35.2758C37.8628 35.675 37.5765 35.9903 37.2529 36.3262L36.246 35.9177C32.8461 34.2061 30.4903 31.3772 29.313 27.7656C27.5037 22.2155 28.2938 16.3668 30.8948 11.213Z" fill="#B7B6B6"/>
<path d="M31.6624 12.4594C31.9416 14.2791 32.2369 16.1084 32.7197 17.8866C32.9805 18.8474 33.3319 19.7642 33.6416 20.7065C33.6767 20.8136 33.6694 20.8664 33.6634 20.9735C33.6523 21.1649 33.7174 21.2701 33.8164 21.4279L33.8627 21.4539L34.1376 21.8801C34.1139 21.9611 34.0721 22.0385 34.0665 22.1227C34.0487 22.3832 34.6433 23.1356 34.7886 23.3996C34.977 23.7419 35.1208 24.1204 35.2774 24.4789L36.5668 27.4876L37.8463 31.2628C35.2628 30.327 32.8626 28.5582 31.6343 26.0391C30.0583 22.8069 29.8318 18.5073 30.7296 15.0416C30.9604 14.1502 31.3654 13.326 31.6624 12.4594Z" fill="white"/>
<path d="M65.8176 9.5975L68.1758 8.50744C70.3317 7.71252 72.99 7.55713 75.2125 8.15164C75.8759 8.32909 76.4982 8.61262 77.1199 8.89955L77.215 8.97171C77.8949 9.47585 78.6885 9.88078 79.3898 10.3747L82.5449 12.7933C83.5004 13.5267 88.1183 16.845 88.2788 17.6211C88.3817 17.7958 88.4851 18.0351 88.6532 18.1508L88.3679 18.3523L88.4277 18.3876C88.9909 18.7344 89.4428 19.275 89.8799 19.7651L92.0367 22.2638L95.0408 25.7006C96.6454 27.4966 98.2223 29.2239 99.6154 31.1961L103.028 35.6767L106.994 40.897L108.658 42.8049C108.842 42.9992 109.587 43.6532 109.637 43.8367C109.613 43.9134 109.57 43.9864 109.564 44.0665C109.55 44.2429 109.763 44.7695 109.817 44.9703L111.439 50.5026C112.148 52.7824 112.886 55.0826 113.843 57.2715L115.291 60.3773C115.578 60.9632 115.984 61.5774 116.136 62.2118L118.902 66.0965C119.587 66.99 120.262 67.8912 121.081 68.6697C121.928 69.4751 123.033 70.0038 123.986 70.6778C126.662 72.571 128.97 75.4683 129.615 78.7535C130.108 79.9474 130.302 81.3325 130.506 82.6029L131.188 86.9954L131.335 88.0627C131.345 88.1324 131.353 88.3929 131.387 88.4529C131.429 88.5276 131.496 88.5859 131.55 88.6524L131.544 88.7116C131.375 90.1209 130.839 92.2574 129.66 93.1762L128.55 93.8608L131.791 94.0571L136.757 93.3855C136.268 94.4532 135.428 95.5481 134.634 96.4006C133.243 98.2227 131.351 99.6 129.459 100.853C128.817 101.278 128.163 101.751 127.485 102.112C126.47 102.69 125.273 103.079 124.102 103.142C123.674 103.165 123.09 103.107 122.695 103.248L127.617 103.645L129.313 103.715C129.612 103.723 129.989 103.689 130.276 103.763C128.557 105.353 126.947 107.052 125.095 108.495C122.786 110.296 120.342 111.773 117.774 113.164C115.992 114.13 114.173 115.067 112.308 115.862L99.7349 121.041L94.9922 123.437L87.4171 127.352L80.5236 131.278C79.9733 131.786 79.0945 132.202 78.4484 132.604C76.4138 133.872 74.3378 135.24 72.1997 136.323C71.3972 136.013 70.602 135.524 69.843 135.118L65.7464 132.947L62.4503 131.239L57.0565 128.569L46.0707 122.548L29.0391 114.007L23.5871 111.246C22.7117 110.755 21.8614 110.185 21.0235 109.632C20.3959 109.219 19.7081 108.816 19.1432 108.318C17.1786 107.135 15.7481 105.339 14.0102 103.891L13.9404 103.834L21.9023 103.076C19.9009 102.723 17.9852 102.055 16.1161 101.266C15.2042 100.911 14.3267 100.385 13.4996 99.8694C11.9107 98.8786 10.1935 97.6514 9.07312 96.1195C9.62936 96.2556 10.1711 96.5578 10.7097 96.7647L12.9899 97.5516C13.085 97.3788 13.0414 97.1814 13.0227 96.9926C12.9286 96.0427 12.4601 95.211 12.4674 94.233L12.4703 94.1092L12.2571 93.9848C13.396 93.9891 14.4593 93.9014 15.5894 93.7603L14.9325 93.4167C13.3167 92.4069 12.6221 89.8696 12.2327 88.1393L12.4805 88.1536C12.5175 88.1115 12.5704 88.0794 12.5917 88.0274C12.7052 87.7508 12.7115 87.2629 12.7534 86.9601L13.1637 84.0444L14.0386 79.5455C14.3135 78.4482 14.5603 77.3522 15.0017 76.3054C15.9103 74.1507 17.7261 72.3981 19.6223 71.0891C20.5806 70.4274 21.628 69.8621 22.518 69.1097C24.0561 67.8095 25.2317 66.0345 26.4581 64.4469L31.3873 53.488C32.4385 50.8179 33.3778 48.1646 33.8517 45.3244C33.9135 44.9545 34.0905 44.3936 33.9385 44.0424C33.9947 43.8998 34.2756 43.6639 34.3856 43.544L35.5873 42.2489C35.8969 41.7799 36.301 41.3499 36.6581 40.9141L38.0113 39.1523L44.0007 31.3197L47.4863 27.1397L53.9586 20.0169C54.3267 19.5833 55.1434 18.8141 55.2889 18.2818L55.1295 18.1011L55.3009 17.9303C55.9228 17.1517 56.7355 16.4744 57.516 15.8516L59.6954 14.0769L63.915 10.8379C64.4989 10.4255 65.1694 10.0949 65.7312 9.66479L65.8176 9.5975Z" fill="#005E94"/>
<path d="M88.2788 17.6211C88.3817 17.7957 88.485 18.0351 88.6532 18.1508L88.3678 18.3523L88.4277 18.3876C88.9909 18.7344 89.4428 19.275 89.8798 19.7651L92.0367 22.2638L95.0408 25.7006C96.6454 27.4966 98.2223 29.2238 99.6154 31.1961C99.4403 31.1701 99.2768 31.1615 99.1384 31.0401C98.6837 30.6409 98.3222 30.172 97.918 29.7264L95.8255 27.481C95.3787 27.0125 94.9403 26.4986 94.4732 26.0534C93.9958 25.5986 93.4753 25.1445 93.0788 24.6155C92.7638 24.1954 92.3593 23.6416 91.9673 23.3053L91.8988 23.2482C91.8297 23.0387 91.6048 22.8845 91.459 22.7199L90.8265 21.9804C90.7317 21.8672 90.5638 21.7526 90.4926 21.6278C90.3711 21.4148 90.5593 21.622 90.3797 21.442L89.4132 20.3879L89.2973 20.272C89.2356 20.1995 89.2238 20.1553 89.1424 20.0971L89.0863 20.0606C88.9727 19.7734 88.4614 19.3631 88.2426 19.0916L87.9902 18.7684L87.9265 18.6693C87.8312 18.5238 87.8562 18.4859 87.8562 18.317C87.9987 18.1022 88.1029 18.296 88.2949 18.1413L88.2953 17.8943C88.27 17.7634 88.2598 17.7621 88.2788 17.6211Z" fill="url(#paint6_linear_1201_3)"/>
<path d="M17.1257 79.4587C17.4097 78.182 18.1579 76.9293 19.0153 75.9543C20.1722 74.6384 21.6229 73.6797 23.1261 72.8075C24.2226 72.1712 25.339 71.5418 26.4853 71.0004L28.7578 70.021C29.4409 69.7193 30.3388 69.1245 31.0725 69.0815C29.8519 70.1978 28.1505 70.9497 26.7069 71.7355C24.6651 72.8475 22.6678 73.9751 20.8217 75.3991C19.8339 76.1609 18.9956 77.063 18.2336 78.0478C17.889 78.4931 17.6268 79.2106 17.1257 79.4587Z" fill="url(#paint7_linear_1201_3)"/>
<path d="M113.338 69.3981L117.477 71.7808C121.207 73.8131 125.679 75.9586 126.884 80.4215C127.448 82.5101 127.04 84.9572 126.011 86.8468L125.992 86.8787C125.953 86.3628 126.068 85.8622 126.112 85.3502C126.233 83.9283 126.211 82.4554 125.799 81.0791C124.447 76.5626 119.76 74.5205 116.131 72.1432C115.267 71.5775 114.064 70.8903 113.43 70.0627C113.247 69.8232 113.306 69.6797 113.338 69.3981Z" fill="#002149"/>
<path d="M107.527 47.1199L107.862 47.3177C108.36 47.5867 108.763 48.0427 109.158 48.4389C109.982 49.2636 110.865 50.1755 111.41 51.2173C111.546 51.4786 111.643 51.8509 111.761 52.1331L111.797 52.2394L111.867 52.2036L111.76 51.9725C111.698 51.849 111.692 51.7778 111.692 51.64L111.639 51.5695C111.555 51.4425 111.551 51.3672 111.551 51.2173L111.481 51.1468L111.439 50.5026C112.148 52.7824 112.886 55.0826 113.843 57.2715L115.291 60.3773C115.578 60.9632 115.984 61.5774 116.136 62.2118C115.784 61.9886 115.504 61.5712 115.225 61.2563C113.66 59.493 112.377 57.6256 111.091 55.6556C110.341 54.5076 109.56 53.3471 108.903 52.1427L109.043 52.0255C109.07 51.5979 108.874 51.0931 108.758 50.6781C108.417 49.4558 108.035 48.2831 107.527 47.1199Z" fill="#0090F9"/>
<path d="M33.9384 44.0424C33.9947 43.8998 34.2756 43.6639 34.3856 43.544L35.5873 42.2488L35.6906 42.3249C35.4797 42.5579 35.2691 42.7271 35.1036 42.9922L34.9453 43.1508C34.7559 43.3355 34.2786 43.7176 34.2418 43.9605C34.2264 44.0625 34.1685 44.1634 34.131 44.2579C34.0832 44.3787 34.1057 44.4696 34.1188 44.5949L34.1286 44.6984L34.1361 44.771L34.0847 44.847C34.0089 44.9744 34.0472 45.0161 34.0136 45.1409L33.9609 45.2643C33.9827 45.4858 33.9956 45.5236 33.9251 45.7221L33.9079 45.863L33.8813 45.9489C33.8115 46.1807 33.828 46.4011 33.7399 46.638C33.6939 46.7616 33.6821 46.8715 33.672 47.0023C33.66 47.1599 33.6746 47.0772 33.6094 47.2369C33.5486 47.3855 33.5288 47.4657 33.5563 47.6243L33.5126 47.7058C33.4234 47.8852 33.4999 47.7122 33.4684 47.9057L33.3984 48.1174L33.4329 48.2232L33.3626 48.2935C33.2985 48.3851 33.3004 48.4718 33.2923 48.5753L33.2051 48.9279L33.2771 49.0027C33.3683 49.1043 33.4129 49.193 33.4684 49.3155L33.5651 49.344C33.6919 49.3865 33.7153 49.4274 33.8203 49.4919C33.9435 49.5674 34.0566 49.6098 34.1719 49.7032C34.3213 49.7032 34.3202 49.6848 34.4531 49.7737L34.542 49.7635C34.6772 49.7506 34.6249 49.7522 34.7702 49.7731L34.8398 49.7032L34.9103 49.8082L35.0514 49.6673L35.0503 49.5858C35.0651 49.4024 35.1536 49.2351 35.2266 49.0686L35.1921 48.9277L35.2624 48.8571C35.3284 48.7633 35.3301 48.6463 35.3499 48.5401C35.3751 48.4062 35.4311 48.3038 35.4906 48.1879L35.5436 48.0117L35.8249 47.3072C35.886 47.1234 35.9925 46.9557 36.0707 46.7793L36.3516 46.3209L36.3519 46.2157L36.3983 46.1582C36.4729 46.0586 36.4468 46.0941 36.5016 45.9842C36.6801 45.6261 36.9321 45.2964 37.1254 44.9476C37.1678 44.8709 37.2184 44.8249 37.266 44.7362C37.4724 44.3518 37.9251 43.7507 38.2155 43.4326C38.5065 43.1138 38.6548 42.8464 39.0167 42.5705L37.3438 44.9085C35.6631 47.4454 34.8159 50.2445 34.4852 53.2603L34.5206 53.3488L34.6388 53.3824C34.1781 54.3572 33.5985 55.2806 33.0446 56.2053C32.2183 57.584 31.398 58.9433 30.4056 60.2127C29.5658 61.2865 28.6238 62.2473 27.669 63.2159C27.2702 63.6206 26.9288 64.122 26.4581 64.4468L31.3873 53.488C32.4384 50.8178 33.3778 48.1646 33.8516 45.3244C33.9135 44.9545 34.0905 44.3935 33.9384 44.0424Z" fill="#0090F9"/>
<path d="M66.7304 38.8265C70.6009 38.2999 74.4771 38.1066 78.346 38.7797L78.4038 38.8107C78.6554 38.9223 79.0006 38.9446 79.2723 38.9944L80.8594 39.3238C82.0409 39.587 83.2613 39.9935 84.3724 40.4737C86.6594 41.4619 88.8882 42.7736 90.9668 44.1441C95.7689 47.3098 100.35 51.4017 103.465 56.2853C104.322 57.6286 105.021 59.2037 105.665 60.6621C105.83 61.0369 105.916 61.2328 105.771 61.6358C104.749 60.0714 104.035 58.3141 102.968 56.7633C101.004 53.9084 98.5823 51.5064 95.9937 49.2313C93.9768 47.4588 91.9429 45.8225 89.6249 44.4492C88.6709 43.884 87.7013 43.3375 86.6993 42.8615C86.1361 42.594 85.5031 42.3884 84.9636 42.083L84.8759 42.0321L85.0351 41.953C84.8839 41.94 84.7812 41.9175 84.6481 41.8474L84.5157 41.7769L83.7072 41.4951L83.7625 41.3232C83.9133 41.0861 84.4527 41.513 84.7399 41.46L81.3205 40.2084C77.9937 39.1457 74.6022 38.8438 71.1214 38.9554L69.0117 39.0963C68.7947 39.1212 68.5139 39.0765 68.3086 39.1344C68.0466 39.2082 67.8447 39.2062 67.5704 39.2048C67.3881 39.3219 67.1528 39.2595 66.9372 39.305C66.7382 39.3471 66.6574 39.3412 66.4613 39.298L66.4846 39.2291L66.8322 39.2062C66.9464 39.0916 67.0964 39.1357 67.2541 39.1357L67.3242 39.0653H67.7813C67.9664 38.9416 68.1531 39.0226 68.3663 38.979C68.7477 38.9011 69.1169 38.9482 69.5041 38.9244C69.6209 38.8073 69.9297 38.8539 70.1016 38.8539C70.39 38.6613 72.2481 38.8176 72.7384 38.7835C73.0075 38.9614 74.2069 38.8716 74.584 38.8708L74.563 38.7523C74.4332 38.7173 74.4582 38.7382 74.3708 38.6766L74.1796 38.5364C73.9866 38.4107 73.5424 38.4744 73.3137 38.4761C72.6406 38.4812 71.7516 38.3626 71.1085 38.518C70.5527 38.6523 69.9152 38.5141 69.3286 38.6399C69.067 38.6959 68.8454 38.6521 68.5988 38.7029C68.2459 38.7754 67.8481 38.7771 67.5121 38.8622C67.3585 38.9011 67.4275 38.8951 67.2664 38.9048L67.1706 38.9076L66.7304 38.8265Z" fill="url(#paint8_linear_1201_3)"/>
<path d="M20.2808 91.4197C20.0102 91.2068 19.7968 90.8645 19.5904 90.5906C18.8792 89.647 18.1647 88.6079 17.8022 87.4696L17.7718 87.3715L17.6272 86.8797C17.5674 86.5913 17.5274 86.466 17.6841 86.2186C18.3227 87.4111 18.9998 88.5408 19.806 89.6312L20.6844 90.7509C20.7572 90.8403 20.9432 91.0169 20.9798 91.1206C25.0988 95.5048 30.0261 99.0437 34.9605 102.437C43.7368 108.473 52.998 113.981 62.7653 118.247C63.7408 118.556 64.7254 118.943 65.7379 119.109L66.6897 130.127C68.1863 131.218 69.8817 132.287 71.5658 133.062L71.4357 133.142C71.3395 133.109 71.2444 133.08 71.1563 133.027L71.086 132.975C70.9311 132.89 70.7841 132.841 70.641 132.729L70.5762 132.675L70.4179 132.692C70.3435 132.581 70.3765 132.599 70.2784 132.544L69.961 132.376L69.6973 132.217L69.3555 132.02L68.9942 131.795L68.5547 131.53C68.4538 131.453 68.4098 131.395 68.2845 131.357L68.2032 131.336L68.1328 131.284C67.9313 131.192 68.0788 131.313 67.9318 131.182C67.8702 131.128 67.7886 131.035 67.711 131.002C67.5199 130.92 67.6487 131.024 67.5088 130.9C67.446 130.844 67.3832 130.776 67.3067 130.738C67.1938 130.681 67.1683 130.629 67.0782 130.579L66.9728 130.544C66.8584 130.48 66.8012 130.405 66.6563 130.35L66.0934 130.544L65.9708 130.579L65.9355 131.248H65.8832L65.8483 131.143C65.7675 131.008 65.778 131.033 65.778 130.861L65.7077 130.791C65.7238 130.686 65.7287 130.616 65.7066 130.51L65.6805 130.403C65.4958 129.547 65.0794 128.772 64.9345 127.895C64.7481 126.764 64.7704 125.583 64.6763 124.441C64.5814 123.292 64.3547 122.111 64.1035 120.985C64.035 120.679 63.9683 120.291 63.8138 120.019C63.5473 119.549 62.9427 119.237 62.502 118.956L56.0059 115.852L41.677 107.93L30.4346 100.414C26.8153 97.8122 22.9601 95.0468 20.2808 91.4197Z" fill="url(#paint9_linear_1201_3)"/>
<path d="M108.903 52.1427C107.977 50.7109 106.913 49.397 105.824 48.0891C103.493 45.2916 100.882 42.5384 97.7657 40.6139C96.0991 39.5845 94.3043 38.7647 92.5544 37.8885L84.8157 33.7652L82.0755 32.1258L80.7194 31.3931C80.4516 31.2547 80.1226 31.1384 79.8989 30.9372L84.1328 31.9815C87.1446 32.7052 90.0391 33.7169 92.8829 34.9421C95.0573 35.879 97.2257 36.9546 99.1772 38.3042C102.457 40.5731 105.443 43.7155 107.527 47.1199C108.035 48.2831 108.417 49.4558 108.758 50.6781C108.874 51.0931 109.071 51.5979 109.043 52.0255L108.903 52.1427Z" fill="#66D4FF"/>
<path d="M39.0167 42.5705C40.1704 41.1665 41.3196 39.9099 42.8042 38.8443C45.0839 37.208 47.7822 36.1005 50.3871 35.106L57.3835 32.678L64.7746 30.5269C63.856 31.129 62.8555 31.5788 61.9127 32.1386L57.8333 34.6047L53.5474 36.8445C50.3325 38.4314 46.8651 39.759 43.9994 41.9501C40.9075 44.3143 38.5386 47.5993 36.369 50.7908C35.7876 51.646 35.1623 52.4904 34.6388 53.3824L34.5207 53.3488L34.4852 53.2603C34.816 50.2445 35.6631 47.4454 37.3439 44.9085L39.0167 42.5705Z" fill="#66D4FF"/>
<path d="M14.0386 79.5455C14.0996 80.0945 14.0423 80.6269 14.084 81.17C14.1476 81.9972 14.3674 82.865 14.5865 83.6645C14.7851 84.3893 15.0475 85.1626 15.3713 85.8419C16.1602 87.4968 17.2152 88.975 18.2207 90.4989C19.3538 92.2162 20.5046 94.1407 21.9326 95.6249C22.7149 96.4378 23.6522 97.1498 24.5293 97.8567L27.6296 100.382L32.9406 104.837C34.11 105.771 35.3573 106.602 36.5877 107.452L42.0375 111.057L47.448 114.127L55.8572 118.787L60.549 121.118C61.4537 121.551 62.4317 121.938 63.267 122.497C63.8802 122.908 64.14 123.5 64.2812 124.204C64.5546 125.563 64.4339 126.85 64.4339 128.219L64.531 130.239L63.9454 129.985C63.79 129.925 63.6441 129.838 63.4926 129.769L63.2114 129.628L63.088 129.557L61.8224 128.923C61.435 128.742 61.0791 128.522 60.6801 128.36C59.5067 127.883 58.4164 127.139 57.2348 126.669C56.967 126.562 56.7282 126.369 56.4614 126.246C56.2853 126.165 56.1505 126.043 55.9692 125.964L53.965 124.785C53.847 124.726 53.7523 124.656 53.6445 124.582C53.5279 124.501 53.6252 124.569 53.4552 124.485L50.959 123.041L50.836 122.97C50.5002 122.774 50.1392 122.515 49.7817 122.372L47.3451 120.984C46.9003 120.715 46.3855 120.391 45.9145 120.188L45.4223 119.906C45.318 119.849 45.252 119.809 45.141 119.765L44.5082 119.413C44.4057 119.357 44.3337 119.318 44.227 119.272C43.4599 118.937 42.7512 118.407 41.977 118.074L41.8536 118.004L41.7778 117.971L41.4145 117.792L41.1328 117.616L40.7989 117.44L40.3266 117.213L39.7973 116.947L39.3126 116.7C39.1873 116.644 39.0816 116.577 38.9535 116.524C38.5007 116.339 38.0717 116.076 37.6176 115.89L37.0856 115.621C36.9677 115.562 37.017 115.581 36.912 115.555C36.8108 115.53 36.7586 115.474 36.6679 115.432L36.5629 115.397C36.4468 115.344 36.3522 115.272 36.232 115.223C35.8283 115.06 35.4199 114.805 35.016 114.622L34.8398 114.516L34.752 114.481C34.4575 114.343 34.1968 114.174 33.891 114.058C33.7078 113.989 33.5509 113.875 33.3615 113.812C33.2498 113.775 33.1838 113.717 33.0821 113.671L32.977 113.636L32.5547 113.442L32.2836 113.32L31.8988 113.14C31.4996 112.974 31.1286 112.746 30.727 112.579L30.2348 112.368L29.391 111.945L28.6176 111.593C28.5154 111.546 28.4453 111.493 28.3363 111.452L27.5801 111.099L27.088 110.888L26.4353 110.598C26.2517 110.529 26.1034 110.424 25.9103 110.359C25.7061 110.291 25.5355 110.174 25.3478 110.078L25.1366 110.007L24.6469 109.776C24.5155 109.71 24.558 109.732 24.4093 109.689C24.204 109.63 24.3752 109.694 24.1875 109.567L23.5922 109.268C23.4664 109.204 23.5725 109.257 23.4145 109.197C23.1006 109.08 22.812 108.898 22.5004 108.775L22.3643 108.704C22.2536 108.647 22.1683 108.614 22.0429 108.598L21.9728 108.528L21.8848 108.493C21.7363 108.432 21.61 108.342 21.463 108.281L20.6723 107.929L19.3714 107.244C19.1391 107.128 18.9424 106.982 18.7035 106.872C18.5827 106.817 18.4858 106.745 18.3605 106.694C18.2624 106.655 18.2516 106.597 18.1758 106.555L18.0707 106.52L16.9805 105.851L16.8926 105.816L16.6806 105.708C16.5569 105.646 16.486 105.639 16.3477 105.639L16.2774 105.569L16.136 105.57C16.2205 105.863 16.8265 106.35 17.0508 106.591C17.2258 106.636 17.2561 106.697 17.3826 106.823C17.4551 106.895 17.4233 106.86 17.5206 106.919C17.6857 107.019 17.7934 107.181 17.9649 107.296L18.1406 107.436L18.4219 107.648C18.6031 107.78 18.7933 107.929 18.9861 108.042C19.1151 108.117 19.1308 108.194 19.2304 108.282L19.2925 108.309L19.1432 108.318C17.1786 107.135 15.7481 105.339 14.0102 103.891L13.9404 103.834L21.9023 103.076C19.9009 102.723 17.9852 102.055 16.1161 101.266C15.2042 100.911 14.3267 100.385 13.4996 99.8694C11.9107 98.8786 10.1935 97.6514 9.07312 96.1195C9.62936 96.2555 10.1711 96.5578 10.7097 96.7647L12.9899 97.5516C13.085 97.3788 13.0414 97.1814 13.0227 96.9926C12.9286 96.0427 12.4601 95.211 12.4674 94.233L12.4703 94.1092L12.2571 93.9848C13.396 93.9891 14.4593 93.9014 15.5894 93.7603L14.9325 93.4167C13.3167 92.4069 12.6221 89.8696 12.2327 88.1393L12.4805 88.1536C12.5175 88.1115 12.5704 88.0794 12.5917 88.0274C12.7052 87.7508 12.7115 87.2629 12.7534 86.9601L13.1637 84.0444L14.0386 79.5455Z" fill="#0090F9"/>
<path d="M129.615 78.7535C130.108 79.9474 130.302 81.3325 130.506 82.6029L131.188 86.9954L131.335 88.0627C131.345 88.1324 131.353 88.3929 131.387 88.4529C131.429 88.5276 131.496 88.5859 131.55 88.6524L131.544 88.7116C131.375 90.1209 130.839 92.2574 129.66 93.1762L128.55 93.8608L131.791 94.0571L136.757 93.3855C136.268 94.4532 135.428 95.548 134.634 96.4006C133.243 98.2227 131.351 99.6 129.459 100.853C128.817 101.278 128.163 101.751 127.485 102.112C126.47 102.69 125.273 103.079 124.102 103.142C123.674 103.165 123.09 103.107 122.695 103.248L127.617 103.645L129.313 103.715C129.612 103.723 129.989 103.689 130.276 103.763C128.557 105.353 126.947 107.052 125.095 108.495C122.786 110.296 120.342 111.773 117.774 113.164C115.992 114.13 114.173 115.067 112.308 115.862L99.7349 121.041L94.9923 123.437L87.4171 127.352L80.5236 131.278L80.4619 131.21C80.7051 130.99 81.0019 130.852 81.2813 130.685L81.5449 130.526L81.88 130.334L81.9844 130.262L82.1954 130.121L82.3711 129.98C82.4952 129.922 82.5179 129.969 82.6504 129.869C82.7896 129.765 82.717 129.803 82.8679 129.739C82.9836 129.691 83.0639 129.604 83.1809 129.574C83.2698 129.552 83.2328 129.572 83.3061 129.519C83.4008 129.451 83.4972 129.399 83.6016 129.346L83.8126 129.241C83.9309 129.164 84.0019 129.089 84.1358 129.033C84.2721 128.976 84.2071 129.017 84.3398 128.924C84.4268 128.862 84.4857 128.81 84.586 128.766L84.7266 128.712C84.9826 128.543 84.7004 128.689 84.9224 128.578L85.0079 128.536C85.0833 128.491 85.1448 128.471 85.2188 128.431L85.4824 128.272L86.4844 127.726L86.7481 127.568L86.9766 127.444L87.1173 127.339C87.217 127.291 87.2513 127.309 87.3601 127.236C87.5226 127.128 87.7441 127.079 87.8633 126.931L87.9259 126.846L88.0313 126.881L88.1719 126.775C88.2708 126.727 88.3062 126.745 88.4148 126.673C88.546 126.585 88.4892 126.613 88.6191 126.554L89.3673 126.176C89.467 126.111 89.4796 126.071 89.6046 126.046C89.7346 126.02 89.7423 125.962 89.8242 125.86L89.9298 125.894L90.1407 125.753L90.2114 125.683C90.3681 125.66 90.3042 125.684 90.4439 125.608L90.8791 125.401C90.9807 125.346 91.0473 125.279 91.1594 125.232L92.1094 124.767C92.1963 124.711 92.2246 124.663 92.3292 124.637C92.4205 124.614 92.4301 124.587 92.4968 124.521L92.6719 124.485C92.977 124.344 93.2811 124.145 93.586 123.992C93.8577 123.856 94.1781 123.738 94.4298 123.57L94.5177 123.499C94.7183 123.499 94.9786 123.288 95.1683 123.2L96.3282 122.583L96.4161 122.513C96.5451 122.491 96.6404 122.446 96.7501 122.372L96.838 122.302C96.9796 122.278 96.9168 122.3 97.0521 122.226L97.5938 121.949C97.6754 121.896 97.7041 121.849 97.8014 121.825C98.1106 121.747 98.4316 121.529 98.7188 121.386C99.0034 121.243 99.3226 121.118 99.5978 120.963C99.7653 120.868 99.9168 120.835 100.082 120.746L100.406 120.575C100.531 120.529 100.649 120.44 100.767 120.41L100.828 120.399L100.899 120.329L101.004 120.329C101.102 120.265 101.21 120.192 101.32 120.153L101.461 120.117C101.553 120.07 101.579 120.017 101.688 119.984C101.788 119.954 101.858 119.907 101.953 119.871C102.066 119.829 102.148 119.82 102.26 119.76C102.482 119.64 102.777 119.485 103.021 119.424C103.107 119.402 103.122 119.37 103.184 119.307C103.344 119.284 103.426 119.223 103.57 119.166C103.875 119.047 104.215 118.942 104.512 118.806L104.73 118.708C104.828 118.67 104.893 118.658 104.97 118.581L105.012 118.533L105.152 118.568C105.236 118.497 105.279 118.46 105.39 118.438C105.501 118.415 105.495 118.4 105.574 118.322L105.732 118.339L105.855 118.286L106.031 118.215C106.175 118.149 106.298 118.08 106.453 118.039L106.594 118.004C106.731 117.943 106.842 117.87 106.987 117.823C107.167 117.766 107.351 117.638 107.526 117.599C107.654 117.57 107.698 117.594 107.828 117.53C108.317 117.284 108.873 117.118 109.389 116.93L109.512 116.877C109.604 116.839 109.684 116.811 109.769 116.758L109.828 116.719L109.934 116.736C110.016 116.683 110.082 116.637 110.178 116.613C110.391 116.559 110.607 116.429 110.813 116.348C110.931 116.302 111.055 116.216 111.168 116.188L111.234 116.172C111.444 116.057 111.186 116.134 111.445 116.067C111.58 116.032 111.67 115.975 111.797 115.926C111.91 115.882 111.991 115.875 112.104 115.815C112.323 115.696 112.55 115.593 112.781 115.503L112.922 115.468C113.022 115.416 113.04 115.365 113.16 115.332C113.267 115.303 113.27 115.316 113.379 115.256C113.484 115.199 113.55 115.134 113.666 115.086L113.766 115.045C113.947 114.938 113.749 114.997 113.977 114.939C114.02 114.928 114.077 114.926 114.117 114.904C114.299 114.807 114.509 114.735 114.68 114.622C114.761 114.569 114.791 114.522 114.887 114.498C115.162 114.429 115.565 114.215 115.805 114.059C115.939 113.972 116.084 113.883 116.227 113.812C116.323 113.764 116.362 113.782 116.469 113.71C116.601 113.622 116.544 113.65 116.674 113.591L117.422 113.213C117.508 113.158 117.532 113.115 117.634 113.089C117.723 113.067 117.686 113.086 117.759 113.034L117.826 112.984C117.932 112.921 118.041 112.902 118.108 112.791L118.16 112.686L118.23 112.756L119.32 112.157L119.531 112.051C119.65 111.975 119.721 111.899 119.855 111.843L119.953 111.804L120.445 111.523L120.709 111.364L121.044 111.171L121.57 110.818C121.686 110.737 121.801 110.679 121.922 110.607L122.027 110.536L122.717 110.034L122.783 109.973L122.871 109.973L123.82 109.268L123.961 109.145C124.151 109.028 124.321 108.865 124.506 108.757C124.672 108.66 124.693 108.642 124.822 108.494L124.91 108.493L125.139 108.264C125.284 108.18 125.363 108.057 125.49 107.982C125.666 107.879 125.755 107.728 125.912 107.63C126.186 107.46 126.359 107.148 126.615 106.996C126.897 106.829 127.058 106.516 127.318 106.362L127.442 106.309C127.633 106.203 128.368 105.42 128.427 105.217L128.285 105.217C128.179 105.323 128.148 105.287 128.004 105.287C127.91 105.35 127.861 105.376 127.758 105.411L127.6 105.463L127.476 105.534L127.266 105.639C127.148 105.709 127.062 105.778 126.934 105.833C126.024 106.227 125.224 107.003 124.312 107.366C124.14 107.434 124.269 107.358 124.106 107.467C123.942 107.576 123.778 107.654 123.609 107.753C123.485 107.826 123.379 107.907 123.246 107.967L123.17 108L122.735 108.234L122.344 108.457L121.249 109.078L120.147 109.62L118.968 110.184L118.758 110.289L118.6 110.395L118.477 110.43C118.354 110.486 118.246 110.584 118.117 110.642L117.633 110.888C117.031 111.154 116.436 111.487 115.857 111.804L115.576 111.945L115.453 112.015L115.348 112.05C115.257 112.092 115.205 112.149 115.104 112.174C114.999 112.2 115.048 112.181 114.93 112.24C114.645 112.383 114.349 112.569 114.047 112.667C113.954 112.697 113.883 112.722 113.795 112.769L113.484 112.931L112.992 113.143L112.887 113.177C112.796 113.219 112.744 113.276 112.643 113.301C112.535 113.328 112.59 113.307 112.466 113.369L112.201 113.495C112.018 113.591 112.144 113.544 111.978 113.599L111.656 113.724C111.486 113.834 111.622 113.799 111.466 113.83C111.37 113.85 111.304 113.87 111.217 113.917L111.093 113.988C110.808 114.107 110.473 114.26 110.18 114.358C110.075 114.393 109.982 114.445 109.881 114.481C109.728 114.536 109.588 114.611 109.434 114.662L108.984 114.833L108.633 114.974L107.912 115.256C107.666 115.341 107.404 115.479 107.156 115.538C106.907 115.597 106.711 115.713 106.47 115.793L106.277 115.855L106.207 115.925C106.011 115.963 105.864 116.03 105.679 116.101L105.187 116.313L104.695 116.524L104.537 116.595L104.414 116.665L104.309 116.7L104.238 116.77C104.128 116.787 104.06 116.806 103.959 116.856C103.817 116.928 103.671 116.966 103.528 117.037L103.429 117.088L103.324 117.123L103.254 117.193C103.147 117.209 103.073 117.228 102.975 117.277L102.656 117.44L101.865 117.792L101.777 117.827C101.669 117.886 101.579 117.959 101.461 118.004L101.32 118.039C101.222 118.09 101.192 118.143 101.075 118.182C100.983 118.213 100.897 118.239 100.811 118.285L100.687 118.356C100.492 118.446 100.273 118.514 100.084 118.617L99.6153 118.849L98.7754 119.272L97.5762 119.835L97.4528 119.906C97.3454 119.955 97.2426 119.987 97.1367 120.047L96.961 120.152C96.8052 120.22 96.6886 120.288 96.5391 120.363C96.4146 120.426 96.3044 120.444 96.1819 120.524L96.0466 120.61C95.8083 120.705 96.0349 120.576 95.8152 120.711C95.6541 120.81 95.4912 120.876 95.3262 120.963L95.2028 121.033C95.1003 121.087 95.0091 121.125 94.9152 121.196L94.8513 121.244L94.7461 121.279C94.6379 121.333 94.5453 121.408 94.4294 121.456C94.2704 121.52 94.3709 121.451 94.2188 121.561C94.1307 121.625 94.0818 121.667 93.9781 121.71C93.8183 121.777 93.9098 121.731 93.7454 121.82L93.6387 121.878L93.5509 121.913L93.4454 121.984L93.1992 122.125C92.758 122.502 91.9748 122.864 91.4358 123.133L91.1247 123.287C90.9738 123.361 90.8425 123.47 90.6942 123.536L90.4746 123.64L90.1407 123.815L88.5882 124.683L88.4528 124.767C88.2019 124.865 87.9539 125.005 87.7193 125.142L86.6954 125.718C86.5716 125.79 86.4651 125.872 86.3326 125.931L84.9222 126.684L84.3048 127.056C84.2269 127.112 84.1761 127.158 84.0882 127.197C83.6798 127.38 83.2024 127.658 82.8282 127.902C82.5775 128.065 82.2842 128.204 82.048 128.382L81.9841 128.43C81.8804 128.482 81.8586 128.524 81.7731 128.571L81.6679 128.606L81.5626 128.677C81.4092 128.77 81.262 128.899 81.1075 128.976C80.9581 129.051 80.7912 129.152 80.6485 129.24C80.5469 129.303 80.5379 129.345 80.4109 129.37L80.3322 129.381L80.2617 129.451L80.1537 129.382C80.2474 128.39 80.2608 127.397 80.2808 126.402C80.2943 125.73 80.2666 124.938 80.4736 124.294L80.5043 124.204C80.6967 123.622 80.9772 123.077 81.4163 122.641C81.7619 122.299 82.1946 122.06 82.6066 121.81L84.5853 120.671L91.648 116.846L96.0235 114.246C97.5899 113.207 99.0991 112.053 100.708 111.084L106.767 107.825C108.85 106.664 110.735 105.325 112.581 103.82L115.937 100.948L118.668 98.7506C119.485 98.0645 120.272 97.255 121.142 96.6467C121.322 96.5206 121.454 96.4111 121.674 96.4111L121.636 96.5342L119.601 98.4536L119.778 98.6602L119.889 98.6161L119.934 98.6212L121.73 96.8197C122.145 96.4289 122.477 95.9783 122.828 95.5319C124.484 93.4281 125.458 91.1144 126.52 88.6869C127.524 86.3918 128.498 84.1092 129.125 81.6748C129.373 80.7092 129.406 79.7191 129.615 78.7535Z" fill="#0090F9"/>
<path d="M66.4613 39.298C66.6574 39.3412 66.7382 39.3471 66.9372 39.305C67.1528 39.2595 67.3881 39.3219 67.5704 39.2049C67.8447 39.2062 68.0466 39.2082 68.3086 39.1344C68.5139 39.0765 68.7947 39.1212 69.0117 39.0963L71.1214 38.9554C74.6022 38.8438 77.9937 39.1457 81.3205 40.2084L84.7399 41.46C84.4527 41.513 83.9133 41.0862 83.7625 41.3232L83.7072 41.4951L84.5157 41.7769L84.6481 41.8474C84.7812 41.9175 84.8839 41.94 85.0351 41.953L84.8759 42.0321L84.9636 42.083C85.5031 42.3884 86.1361 42.594 86.6993 42.8615C87.7013 43.3375 88.6709 43.8841 89.6249 44.4492C91.9429 45.8225 93.9768 47.4588 95.9937 49.2313C98.5823 51.5064 101.004 53.9084 102.968 56.7633C104.035 58.3141 104.749 60.0714 105.771 61.6358C107.142 64.0869 109.064 65.9894 111.204 67.7738C111.879 68.3372 112.581 68.9491 113.338 69.3981C113.306 69.6797 113.247 69.8232 113.43 70.0628C114.064 70.8903 115.267 71.5775 116.131 72.1432C119.76 74.5205 124.447 76.5626 125.799 81.0791C126.211 82.4554 126.233 83.9283 126.112 85.3502C126.069 85.8622 125.953 86.3629 125.992 86.8787L125.892 87.1444L126.105 87.3292C126.094 87.6986 125.916 88.0931 125.786 88.4362C124.869 90.8401 122.961 93.0494 121.109 94.7996C119.087 96.7093 116.914 98.2167 114.611 99.7512C109.842 102.928 104.821 105.578 99.8798 108.458L85.5556 117.025L81.6271 119.022C81.2309 119.258 80.998 119.374 80.8816 119.845C80.6453 120.799 80.5542 121.804 80.4102 122.776C80.0847 124.974 79.6021 126.918 78.3355 128.771C78.0679 129.163 77.7454 129.727 77.3399 129.971L77.1616 130.061C76.6592 130.825 75.2744 131.505 74.4917 131.993C73.7425 132.46 73.0217 132.972 72.2247 133.358C72.0136 133.257 71.791 133.125 71.5658 133.062C69.8817 132.287 68.1863 131.218 66.6897 130.127L65.7379 119.109C64.7254 118.943 63.7409 118.556 62.7653 118.247C52.998 113.981 43.7369 108.473 34.9605 102.437C30.0261 99.0437 25.0988 95.5048 20.9798 91.1206C20.9432 91.0169 20.7572 90.8403 20.6845 90.7509L19.806 89.6312C18.9998 88.5408 18.3228 87.4111 17.6841 86.2186C17.7144 86.0756 17.2569 85.0414 17.1914 84.828C16.98 84.1393 16.8348 83.4165 16.7736 82.6978C16.676 81.5503 16.8521 80.5628 17.1258 79.4587C17.6268 79.2106 17.8891 78.4931 18.2336 78.0479C18.9957 77.0631 19.834 76.1609 20.8217 75.3991C22.6678 73.9751 24.6651 72.8475 26.707 71.7355C28.1505 70.9497 29.8519 70.1978 31.0725 69.0815C32.4342 68.1815 33.7784 67.2795 34.938 66.1175C36.3445 64.708 37.3484 63.0858 38.3074 61.3544L41.4464 56.5547C45.1467 51.3371 49.7616 47.0996 55.4539 44.1501L58.5762 42.6595L60.3269 41.9548L60.4512 41.897L60.3321 41.8115L60.8346 41.6492L60.8907 41.636C60.9764 41.5511 60.9869 41.5547 61.1016 41.5303C61.2552 41.4978 61.3996 41.4844 61.5169 41.3678L61.5586 41.3197L61.7697 41.3542C61.8816 41.2537 62.0009 41.197 62.1563 41.1961L62.2617 41.2133C62.6279 41.0044 63.1763 40.8874 63.5933 40.8038C63.7561 40.7713 63.6421 40.7303 63.6976 40.6159C63.7996 40.4055 64.1455 40.1284 64.324 39.9629L63.7606 40.0623C63.469 40.0991 63.2554 40.1688 62.9582 40.126L64.582 39.6993L65.4436 39.4692L65.5317 39.4525C65.8472 39.379 66.1382 39.3318 66.4613 39.298Z" fill="#030713"/>
<path d="M66.4613 39.298C66.6574 39.3412 66.7382 39.3471 66.9372 39.305C67.1528 39.2595 67.3881 39.3219 67.5703 39.2049C67.8447 39.2062 68.0466 39.2082 68.3085 39.1344C68.5138 39.0765 68.7947 39.1212 69.0117 39.0963L71.1214 38.9554C74.6022 38.8438 77.9937 39.1457 81.3205 40.2084L84.7399 41.46C84.4527 41.513 83.9132 41.0862 83.7625 41.3232L83.7072 41.4951L84.5157 41.7769L84.648 41.8474C84.7812 41.9175 84.8839 41.94 85.035 41.953L84.8759 42.0321C83.5232 41.6419 82.2304 41.1476 80.8527 40.8149C78.0366 40.135 74.9972 39.7006 72.0947 39.7437C68.1019 39.8028 64.2283 40.6559 60.4512 41.897L60.3321 41.8115L60.8346 41.6492L60.8907 41.636C60.9763 41.5511 60.9868 41.5547 61.1016 41.5303C61.2552 41.4978 61.3995 41.4844 61.5169 41.3678L61.5585 41.3197L61.7697 41.3542C61.8816 41.2537 62.0008 41.197 62.1563 41.1961L62.2617 41.2133C62.6278 41.0044 63.1763 40.8874 63.5933 40.8038C63.756 40.7713 63.642 40.7303 63.6975 40.6159C63.7995 40.4055 64.1455 40.1284 64.324 39.9629L63.7605 40.0623C63.469 40.0991 63.2554 40.1688 62.9582 40.126L64.582 39.6993L65.4435 39.4692L65.5317 39.4525C65.8472 39.379 66.1382 39.3318 66.4613 39.298Z" fill="url(#paint10_linear_1201_3)"/>
<path d="M67.0679 125.084C68.2557 126.28 69.5828 127.373 71.3672 127.366C73.252 127.358 75.7261 126.532 77.2086 125.359L77.2422 125.426C77.2821 125.506 77.2619 125.478 77.3013 125.524C77.2008 126.885 77.203 128.413 76.8721 129.734C76.8499 129.822 76.8152 130.004 76.7652 130.079C76.5484 130.404 75.8723 130.728 75.5447 130.936L72.2275 133.015L69.4703 131.517C68.6592 131.056 67.8492 130.611 67.1464 129.993L67.0679 125.084Z" fill="#393B46"/>
<path d="M125.892 87.1443L126.105 87.3292C126.094 87.6986 125.916 88.0931 125.786 88.4361C124.869 90.8401 122.961 93.0494 121.109 94.7996C119.087 96.7092 116.914 98.2167 114.611 99.7512C109.842 102.928 104.821 105.578 99.8798 108.458L85.5556 117.025L81.6271 119.022C81.2309 119.258 80.998 119.374 80.8816 119.844C80.6453 120.799 80.5542 121.804 80.4102 122.776C80.0847 124.974 79.6021 126.918 78.3355 128.771C78.0679 129.163 77.7454 129.726 77.3399 129.971L77.1616 130.061C77.4998 128.711 77.5377 127.209 77.6725 125.82L78.337 119.121C79.1558 118.776 80.0839 118.575 80.9367 118.319C83.8547 117.152 86.4629 115.614 89.1617 114.024L99.1844 107.915L104.107 105.157C107.688 103.137 111.237 101.051 114.631 98.7258C116.177 97.666 117.7 96.6029 119.139 95.3968C121.902 93.0811 124.296 90.3963 125.892 87.1443Z" fill="url(#paint11_linear_1201_3)"/>
<path d="M67.2929 121.372C67.2499 120.279 67.3214 119.058 67.1406 117.985C67.4841 117.586 67.9028 117.011 68.3682 116.756C69.2102 117.096 70.0478 117.442 70.9579 117.543C72.2007 117.682 73.5638 117.514 74.7841 117.268C74.9856 117.227 75.9632 116.882 76.0564 116.91C76.4176 117.016 77.0944 117.807 77.3519 118.1L76.4268 124.144L76.5149 124.38L77.3328 124.536C77.3311 124.843 77.3749 125.229 77.3013 125.524C77.2619 125.478 77.2821 125.506 77.2422 125.426L77.2086 125.359C75.7261 126.532 73.252 127.358 71.3672 127.366C69.5828 127.373 68.2557 126.28 67.0679 125.084C67.1041 124.494 67.2276 123.91 67.2659 123.323C67.3079 122.677 67.2929 122.019 67.2929 121.372Z" fill="#393B46"/>
<path d="M67.2929 121.372L67.3056 121.447C67.4237 122.201 67.1695 123.038 67.5895 123.705L67.6534 123.812C68.2741 124.819 69.5798 125.873 70.6992 126.251L70.7687 126.276C71.0314 126.359 71.3755 126.322 71.6485 126.29C72.9482 126.137 74.3672 125.377 75.5029 124.732C75.7975 124.565 76.1815 124.376 76.4268 124.144L76.5149 124.38L77.3328 124.536C77.3311 124.843 77.3749 125.229 77.3013 125.524C77.2619 125.478 77.2821 125.506 77.2422 125.426L77.2086 125.359C75.7261 126.532 73.252 127.358 71.3672 127.366C69.5828 127.373 68.2557 126.28 67.0679 125.084C67.1041 124.494 67.2276 123.91 67.2659 123.323C67.3079 122.677 67.2929 122.019 67.2929 121.372Z" fill="#2A2B36"/>
<path d="M56.3113 109.039L56.0068 109.017C55.9285 108.929 55.861 108.852 55.762 108.786C55.3375 108.501 54.9328 108.141 54.528 107.824L54.5267 107.93L54.4395 107.982L54.211 107.859L54.1054 107.789L53.2969 107.225C53.1814 107.144 53.0659 107.086 52.9453 107.014L52.6817 106.855L51.6797 106.309C51.5981 106.256 51.5695 106.209 51.4721 106.185C50.7902 106.014 50.1 105.466 49.4297 105.217L49.2891 105.182L48.8408 104.964L45.8888 103.446L44.8209 102.913L44.7188 102.857L44.6829 102.928L44.6134 103.033L44.6829 103.174C44.853 103.262 44.92 103.344 45.0345 103.491L44.8898 103.691L44.8236 103.773L44.8939 103.879L44.7891 103.984L44.859 104.073L44.8067 104.143L44.859 104.213L44.8067 104.284L44.859 104.354L44.8067 104.425L44.8939 104.513L44.6835 104.689L44.6829 104.794L44.5254 104.918L44.5423 105.076L44.4375 105.129C44.2995 105.212 44.4383 105.16 44.2836 105.212L44.2089 105.235L44.1908 105.464C44.1017 105.598 44.1497 105.553 44.0113 105.646L43.9103 105.71C44.0486 105.851 44.2697 105.926 44.4375 106.027L44.7011 106.186L44.8241 106.239C44.9235 106.297 44.9818 106.374 45.0934 106.425L45.4219 106.591C45.5078 106.647 45.5316 106.69 45.6339 106.715C45.7228 106.738 45.6859 106.718 45.7592 106.77C46.0301 106.964 46.3716 107.093 46.6699 107.243C46.9476 107.382 47.2431 107.576 47.5313 107.683L47.6719 107.718L48.1191 107.935C48.5681 108.177 49.1213 108.404 49.6054 108.566L49.711 108.599L49.9219 108.669C50.2026 108.749 50.455 108.897 50.7304 108.989L50.836 109.022L51.0469 109.092L51.1875 109.127C51.3836 109.217 51.7283 109.382 51.9356 109.401C52.0699 109.414 52.0033 109.393 52.1378 109.461C52.2649 109.524 52.2086 109.51 52.3356 109.536L52.4179 109.55C52.521 109.584 52.6358 109.604 52.734 109.638L53.209 109.779C53.3591 109.822 53.539 109.852 53.6835 109.902C53.875 109.968 54.009 109.968 54.211 109.973C54.4459 110.13 54.7028 109.969 54.9491 110.043C55.1745 110.111 55.3778 110.086 55.6005 110.149C55.0391 110.169 54.4695 110.139 53.9145 110.046C52.9463 109.883 51.9915 109.533 51.069 109.204C48.981 108.46 47.0466 107.598 45.0947 106.545C42.2424 105.008 39.6683 103.123 36.987 101.322C34.3468 99.5487 31.5941 97.8675 29.0529 95.955C27.6458 94.896 26.3181 93.7128 25.0194 92.5234C24.2438 91.8129 23.3726 91.1116 22.7526 90.257C23.0201 88.9385 23.4414 87.7005 24.0823 86.515C24.5668 85.6191 25.2077 84.818 25.8204 84.0091L27.8998 81.313C28.5182 83.174 28.9577 85.4819 30.1418 87.0702C30.8244 87.7565 31.3753 88.522 31.9884 89.2671L34.1719 91.9374C35.3959 93.5931 36.4149 95.218 37.9935 96.5806L37.866 96.5535C36.7641 96.3262 35.6376 96.3439 34.5585 95.977C33.873 95.7438 33.2207 95.4381 32.5652 95.1329C32.2269 94.9752 31.8574 94.7594 31.4979 94.6692C32.4088 95.5176 33.5385 96.1357 34.5677 96.8308C34.9307 97.0762 35.4658 97.5524 35.8749 97.6787L38.6194 99.3845C38.8592 99.5271 39.2123 99.7969 39.4733 99.8731C40.7768 100.81 42.36 101.535 43.7916 102.26L48.2809 104.556L51.2515 105.963L53.0168 106.922C53.4071 107.156 53.7797 107.466 54.211 107.616L54.4091 107.545L56.3113 109.039Z" fill="#2A2B36"/>
<path d="M106.367 87.9939C107.036 86.9163 107.877 85.998 108.605 84.9674C109.697 83.4216 110.212 81.6245 110.188 79.743C110.321 79.9964 110.413 80.2669 110.553 80.517C111.102 81.5003 111.74 82.3773 112.097 83.4656C112.258 83.9567 112.311 84.4883 112.426 84.9933L112.414 85.0731L112.363 85.3251C112.328 85.491 112.333 85.4213 112.359 85.589C113.034 86.1064 113.382 86.7809 113.733 87.5453C114.333 85.6093 115.168 83.5826 115.272 81.5349C118.069 84.0369 120.402 87.0146 120.599 90.916C120.62 91.3308 120.365 91.5529 120.095 91.842C118.754 93.2786 117.164 94.5354 115.614 95.7365L111.645 98.6935C108.458 100.833 105.035 102.619 101.602 104.321C100.067 105.082 98.5382 105.917 96.9184 106.486C94.8029 107.229 92.5313 107.541 90.3516 108.042L90.3284 107.993L90.6255 107.736L90.4941 107.764C90.379 107.797 90.3784 107.822 90.2455 107.824C90.2978 107.563 90.4954 107.414 90.6721 107.221C90.8292 106.982 91.1832 106.728 91.3982 106.521L92.7683 105.111C93.7889 104.02 94.6802 102.819 95.5381 101.598L96.1467 100.757C97.3965 99.3606 98.4572 97.8331 99.3182 96.1676C99.6267 95.5712 99.9638 94.9538 100.144 94.3047C100.396 93.3942 100.417 92.5305 100.416 91.5949L100.503 91.6556C100.728 92.5251 100.659 93.4129 100.55 94.2933C103.068 93.0513 104.958 90.3364 106.367 87.9939Z" fill="#2A2B36"/>
<path d="M106.367 87.9939C107.036 86.9163 107.877 85.998 108.605 84.9674C109.697 83.4216 110.212 81.6245 110.188 79.743C110.321 79.9964 110.413 80.2669 110.553 80.517C111.102 81.5003 111.74 82.3773 112.097 83.4656C112.258 83.9567 112.311 84.4883 112.426 84.9933L112.414 85.0731L112.363 85.3251C112.328 85.491 112.333 85.4213 112.359 85.589L112.306 85.6954C112.18 85.9691 112.175 86.3232 112.118 86.6184C112.007 87.2004 111.858 87.7816 111.667 88.3424C111.258 89.5416 110.609 90.6885 110.025 91.8091C109.438 92.9369 108.901 94.0618 108.151 95.097C107.744 95.6593 107.224 96.1996 106.741 96.6995C107.82 96.3797 108.94 96.3035 110.02 96.0104C111.121 95.7119 112.063 95.1992 113.111 94.7909C112.313 95.7162 111.242 96.3656 110.197 96.9766C108.107 98.1985 105.867 99.1566 103.702 100.235L95.7094 104.281C94.3667 104.985 93.0876 105.88 91.8874 106.803C91.6643 106.974 90.8414 107.715 90.6255 107.736L90.4941 107.764C90.379 107.797 90.3784 107.822 90.2455 107.824C90.2978 107.563 90.4954 107.414 90.6721 107.221C90.8292 106.982 91.1832 106.728 91.3982 106.521L92.7683 105.111C93.7889 104.02 94.6802 102.819 95.5381 101.598L96.1467 100.757C97.3965 99.3606 98.4572 97.8331 99.3182 96.1676C99.6267 95.5712 99.9638 94.9538 100.144 94.3047C100.396 93.3942 100.417 92.5305 100.416 91.5949L100.503 91.6556C100.728 92.5251 100.659 93.4129 100.55 94.2933C103.068 93.0513 104.958 90.3364 106.367 87.9939Z" fill="url(#paint12_linear_1201_3)"/>
<path d="M107.415 77.3573C107.432 77.0988 107.309 76.8166 107.256 76.5624C107.155 76.079 107.094 75.5714 107.047 75.0794L106.744 69.8165C107.193 70.0652 107.629 70.5362 107.981 70.9085C109.593 72.6162 110.524 74.4857 111.546 76.5631C112.613 79.2527 113.329 82.1559 112.426 84.9933C112.311 84.4883 112.258 83.9567 112.097 83.4656C111.74 82.3773 111.102 81.5003 110.553 80.517C110.413 80.2669 110.321 79.9964 110.188 79.743C110.212 81.6245 109.697 83.4216 108.605 84.9674C107.877 85.998 107.036 86.9163 106.367 87.9939C104.958 90.3364 103.068 93.0513 100.55 94.2933C100.659 93.4129 100.728 92.5251 100.503 91.6556L100.416 91.595C100.417 92.5305 100.396 93.3942 100.144 94.3047C99.9638 94.9538 99.6267 95.5712 99.3182 96.1676C98.4572 97.8331 97.3966 99.3606 96.1467 100.757L95.5381 101.598C94.6802 102.819 93.7889 104.02 92.7683 105.111L91.3982 106.521C91.1832 106.728 90.8292 106.982 90.6721 107.221L90.2984 107.202C89.6916 107.837 88.9101 108.391 88.2267 108.947L84.562 112.032L85.0909 111.221C85.9935 109.754 86.6434 108.128 87.3936 106.582C88.8762 103.526 90.67 100.508 90.8845 97.0333C90.9344 96.2259 90.9347 95.4055 90.7474 94.6145L90.7011 94.728C90.6826 96.62 90.4088 98.4324 89.7113 100.203C88.2906 103.809 85.3566 106.662 82.6439 109.328C80.6974 111.242 78.4802 113.237 75.8541 114.123C74.6337 114.535 73.2775 114.685 71.9935 114.672C68.779 114.639 65.973 113.382 63.6418 111.186L61.0572 108.843C58.6744 106.654 56.3989 104.386 54.7813 101.546C53.6027 99.4779 52.6018 96.6766 53.2519 94.2839C52.5696 95.3562 52.7629 97.299 53.0333 98.4921C53.6721 101.313 55.2535 103.765 56.6528 106.252C57.0148 106.895 57.4423 107.554 57.7483 108.223L59.9121 111.831C58.9783 110.92 57.958 110.2 56.9001 109.447C56.7666 109.353 56.4572 109.073 56.3113 109.039L54.4092 107.545C52.0909 105.548 49.8107 103.287 48.4534 100.497C47.8918 99.3431 47.5425 98.1429 47.2714 96.8934C47.1531 98.3337 47.7388 99.9163 48.2998 101.215L48.2293 101.151C47.811 100.704 47.427 100.191 47.0325 99.721C45.4465 97.8293 43.9478 95.703 43.5244 93.22C43.4256 92.6406 43.4486 92.0203 43.4453 91.4332C43.2701 91.8236 43.1948 92.2296 43.108 92.6463C43.1068 92.9675 43.1815 93.7368 43.0266 93.9874L42.9745 93.9998C42.2895 93.715 41.664 93.211 41.1116 92.7223C39.4406 91.244 38.3747 89.5805 37.4475 87.5703C36.9615 86.5823 36.3306 85.896 35.6563 85.0423C34.6198 83.7303 33.8571 82.0778 34.071 80.3776L34.0841 80.281C33.4793 81.2172 32.7775 82.0878 32.2084 83.0481C31.8784 83.6055 31.6476 84.2082 31.359 84.7867C30.5781 81.9365 31.0984 78.7783 32.3884 76.1692L32.4437 76.1049C32.7593 75.7095 32.9978 75.2199 33.2869 74.7998C34.1623 73.5276 35.092 72.3132 36.1206 71.1608C36.4131 70.8332 36.7742 70.369 37.1299 70.1248L36.7909 77.08C37.6823 75.8057 39.1592 75.3373 40.6318 75.0829C44.475 74.419 48.6698 75.2067 52.2593 76.6233C53.4692 77.1008 54.706 77.6535 55.7702 78.411C57.0253 79.3045 58.305 80.7075 58.5673 82.2858C58.7355 83.2984 58.5137 84.271 58.2139 85.2334C57.7626 86.6834 57.1365 87.943 56.3372 89.2327C56.0693 89.6648 55.4976 90.2906 55.3592 90.7559C56.7443 89.3409 58.3395 88.1773 59.8903 86.9546C61.5861 85.6174 63.3486 84.0861 65.2611 83.0836C65.9005 82.7485 66.5661 82.4911 67.2985 82.4851C68.1754 82.4781 68.9434 82.8471 69.5579 83.4646C70.8694 84.7825 71.9067 86.9665 72.0848 88.8034C72.4234 86.9 73.2263 84.6121 74.9145 83.4815C75.7305 82.9352 76.6609 82.8349 77.6112 83.047C79.6517 83.5028 81.5738 85.1879 83.2362 86.4064C85.0765 87.7553 86.8915 89.1127 88.6161 90.6098C87.4986 88.7854 86.3346 86.8113 85.8291 84.7138C85.6296 83.8856 85.5406 83.081 85.7419 82.2448C86.2176 80.2692 87.5792 78.9455 89.2748 77.9171C92.383 76.0315 96.1557 75.048 99.7624 74.8211C101.228 74.7288 102.785 74.7365 104.219 75.0995C105.405 75.3997 106.593 75.9682 107.241 77.0524L107.415 77.3573Z" fill="white"/>
<path d="M59.3408 96.7079C60.3006 96.8447 61.0344 97.0395 61.9189 97.4376C62.1019 97.5199 62.3438 97.5907 62.4728 97.7502L62.3573 97.8286C61.7516 97.9133 61.2713 97.6227 60.7367 97.3788C60.2629 97.1628 59.796 96.9631 59.3408 96.7079Z" fill="#030713"/>
<path d="M84.7945 96.8338L85.0677 96.8214L85.0641 96.9041C84.2562 97.3074 83.1477 97.8107 82.2445 97.8201L81.9154 97.7006L81.9208 97.6086C82.8289 97.1744 83.8073 96.9888 84.7945 96.8338Z" fill="#030713"/>
<path d="M43.0266 93.9874L43.0064 93.452C42.784 93.1877 42.6349 92.8557 42.4392 92.5688C41.7512 91.5613 40.9844 90.6047 40.6495 89.4074C41.0723 89.9468 41.4107 90.544 41.8716 91.0578C42.2213 91.4478 42.7349 91.7849 42.927 92.288C42.9644 92.386 42.9953 92.4676 43.0514 92.5574L43.108 92.6462C43.1069 92.9675 43.1815 93.7368 43.0266 93.9874Z" fill="#D3D2D2"/>
<path d="M58.1818 92.325L58.2853 92.3953C57.2044 93.4383 56.0419 94.6829 55.9727 96.2813L55.936 97.1156L55.893 97.0521C55.8096 96.8851 55.8251 96.6467 55.8223 96.4609C55.8116 95.7637 55.8398 94.9245 56.1268 94.2807L56.1686 94.1918C56.2858 93.9367 56.4101 93.6839 56.5735 93.4543C56.9625 92.9082 57.5096 92.4377 58.1818 92.325Z" fill="#D3D2D2"/>
<path d="M85.3037 92.1135C85.4278 92.0853 85.5313 92.0643 85.6594 92.0802C86.3672 92.1691 87.0484 92.6761 87.4451 93.2576C88.2647 94.4592 88.0645 96.2678 87.8005 97.6086L87.7183 97.7269C87.7637 96.6486 87.8983 95.4212 87.3762 94.4222C86.9044 93.5197 86.4441 92.815 85.5064 92.3474C85.356 92.2724 85.3763 92.2574 85.3037 92.1135Z" fill="#D3D2D2"/>
<path d="M42.7665 87.4456C43.3215 88.2756 43.8199 89.1657 44.4707 89.9256C45.5235 91.1548 46.8357 92.0438 48.0792 93.056C48.754 93.6055 49.3819 94.2011 50.0817 94.7203C50.065 94.7245 50.0487 94.7342 50.0316 94.7329C49.7892 94.7143 49.5199 94.48 49.3174 94.3527L48.1935 93.7149L45.7244 92.4609C45.1508 92.14 44.5964 91.7624 44.1722 91.2536C43.2983 90.2048 43.123 88.7223 42.7665 87.4456Z" fill="#D3D2D2"/>
<path d="M96.0246 93.6611C95.3462 93.8576 94.4286 94.3731 93.873 94.8122C93.7528 94.907 93.7075 94.948 93.561 95.0021C93.9522 94.4013 94.9588 93.9354 95.5592 93.5395C96.1817 93.1289 96.8072 92.6915 97.3828 92.2164C98.8692 90.9891 100.254 89.1966 101.235 87.534C101.36 87.8823 100.871 90.0131 100.716 90.4384C100.598 90.7647 100.506 91.0495 100.292 91.3282C99.0649 92.4824 97.4757 92.8651 96.0246 93.6611Z" fill="#D3D2D2"/>
<path d="M57.7483 108.223C57.4046 108.022 57.3259 107.756 57.1296 107.436L56.6865 106.637L56.6374 106.556L56.5843 106.45L56.5316 106.379L55.9624 105.345L55.8988 105.252L55.8985 105.147C55.6961 105.011 55.6564 104.798 55.5255 104.602L55.477 104.53C55.4081 104.399 55.4841 104.481 55.387 104.384L55.3363 104.336C55.293 104.032 54.9632 103.663 54.8245 103.385L54.5629 102.857L54.4577 102.646C54.3795 102.52 54.3398 102.392 54.262 102.276L54.2113 102.205L54.211 102.117L54.0707 101.924L53.9301 101.589C53.8922 101.491 53.9115 101.468 53.8423 101.375C53.7008 101.186 53.6717 100.89 53.5436 100.673L53.4733 100.567L53.5078 100.427L53.403 100.356C53.3897 100.202 53.3681 100.096 53.2971 99.9597C53.2551 99.8797 53.2121 99.8128 53.1921 99.7221L53.1563 99.4756C53.0629 99.2393 53.0957 99.4839 53.0762 99.2851C53.0649 99.1707 53.079 99.2178 53.0434 99.1113L53.016 99.0352L52.9811 98.912L52.9108 98.8064C52.9146 98.6984 52.9193 98.6097 52.8876 98.5047C52.8261 98.3003 52.7771 98.1692 52.7949 97.9499C52.8098 97.7698 52.6933 97.714 52.7171 97.503C52.7428 97.2757 52.6879 97.3649 52.6296 97.1859C52.5651 96.9879 52.6856 96.6713 52.6491 96.4466C52.5996 96.1434 52.5855 95.6871 52.6645 95.3899L52.7696 95.3549C52.8129 95.2238 52.8004 95.2317 52.7689 95.1077L52.629 95.2831C52.4336 95.0874 52.5686 95.0143 52.4531 94.8432L52.2422 94.8604L52.0313 94.7195C51.8846 94.6529 51.9426 94.7179 51.8203 94.6491L51.6801 94.5437L51.3808 94.4381C51.3559 94.56 51.3219 94.6761 51.3345 94.8015C51.3471 94.9249 51.3683 95.0402 51.3561 95.165C51.3401 95.3294 51.3446 95.1627 51.3454 95.3852V95.5304L51.3281 95.7769C51.3514 95.893 51.4056 95.9659 51.4157 96.094C51.4256 96.22 51.3836 96.4002 51.4157 96.5167C51.4472 96.6315 51.4948 96.6675 51.486 96.7985L51.4688 96.9041C51.564 97.1271 51.5143 97.2871 51.5563 97.503C51.6197 97.8291 51.5736 97.3942 51.6006 97.6634C51.6129 97.7869 51.6129 97.8911 51.6641 98.0072C51.7339 98.1652 51.6591 98.2447 51.7673 98.4188L51.75 98.5597L51.8203 98.6655L51.8379 98.8943C51.8753 99.036 51.9484 99.19 51.9782 99.3347C52.0337 99.6043 51.9566 99.36 52.029 99.578C52.0881 99.7551 52.1771 99.9522 52.2246 100.127C52.257 100.247 52.2289 100.3 52.2917 100.426C52.3455 100.533 52.3862 100.627 52.4179 100.744L52.4531 100.885C52.5426 101.057 52.512 100.92 52.5431 101.076C52.5673 101.197 52.5728 101.279 52.6397 101.387L52.6813 101.448L52.6641 101.554C52.7166 101.636 52.7631 101.702 52.7871 101.798C52.8259 101.953 52.9236 102.182 52.9971 102.329L53.0803 102.509C53.1598 102.723 53.2401 102.948 53.3672 103.139L53.4371 103.227C53.4375 103.329 53.4548 103.401 53.5078 103.491C53.559 103.578 53.6063 103.601 53.6319 103.704C53.6543 103.793 53.6346 103.756 53.6869 103.829C54.0443 104.33 54.2698 104.952 54.6328 105.464C54.738 105.612 54.8124 105.772 54.9129 105.923L55.125 106.239L55.1949 106.327C55.1955 106.457 55.2306 106.45 55.3183 106.538L55.3009 106.688C54.0221 104.752 53.0016 102.806 52.2529 100.603C51.2715 97.7153 50.6244 94.1881 52.0491 91.3424C52.1931 91.0548 52.4064 90.6248 52.7385 90.526C53.0423 90.4356 53.4238 90.5301 53.6919 90.683L53.7891 90.7405C54.1772 90.9648 54.4361 91.2079 54.742 91.5309C54.5048 91.9044 54.3428 92.3395 54.1588 92.7417C53.8768 93.1185 53.6927 93.4982 53.4649 93.9031C53.4257 93.9724 53.4019 94.0494 53.3668 94.121L53.2519 94.2839C52.5696 95.3562 52.7629 97.299 53.0333 98.4921C53.6721 101.313 55.2535 103.765 56.6528 106.252C57.0148 106.895 57.4423 107.554 57.7483 108.223Z" fill="#D3D2D2"/>
<path d="M62.5403 104.926C62.1411 104.575 61.6993 104.172 61.3796 103.749C62.2976 104.425 63.2721 105.089 64.3598 105.457C66.4446 106.163 68.796 105.87 70.7423 104.892C69.7746 104.547 68.8442 104.239 67.9855 103.653C65.521 101.972 64.6832 99.4359 64.1575 96.6208C63.9233 95.3669 63.5588 93.3735 64.3528 92.2615C65.4026 90.7912 67.4863 90.0093 69.198 89.7106C72.1487 89.1959 75.9531 89.2981 78.4806 91.0894C79.2158 91.6101 80.0074 92.4695 80.1383 93.3992C80.2455 94.1616 80.1161 94.9799 80.0179 95.738C79.7205 98.0331 79.3007 100.274 77.8628 102.155C76.6131 103.52 75.1901 104.517 73.381 104.978C75.3148 105.902 77.398 106.156 79.4539 105.429C80.3723 105.104 81.1388 104.588 81.8865 103.97C82.1201 103.777 82.329 103.528 82.5788 103.361C82.2533 103.901 81.877 104.379 81.4686 104.857C79.3001 106.679 76.6941 107.855 73.8566 108.123C70.0279 108.484 65.5232 107.405 62.5403 104.926Z" fill="#030713"/>
<path d="M77.4424 99.5109L77.626 99.4664L77.7188 99.546C77.6337 99.6941 77.5559 99.7948 77.4195 99.9005C76.9851 100.237 76.4419 100.364 75.9023 100.31C75.7952 100.262 75.7131 100.201 75.6179 100.133C75.8136 99.9706 76.1157 99.9652 76.3594 99.8908L77.4424 99.5109Z" fill="white"/>
<path d="M66.0889 99.4697L67.2737 99.7617C67.6084 99.8276 68.1784 99.8363 68.4207 100.074L68.3086 100.279C68.2056 100.317 68.1029 100.358 67.9922 100.369C67.2291 100.44 66.6132 99.9454 66.0889 99.4697Z" fill="white"/>
<path d="M76.546 93.8815C77.6764 94.2266 78.4911 95.4502 79.0444 96.4462L79.0311 96.8338L78.961 96.8608C78.7697 96.5432 78.6282 96.2007 78.4191 95.8937C77.8896 95.1158 77.245 94.6307 76.4065 94.2375C76.5212 94.2339 76.6936 94.2162 76.8053 94.2501L76.9219 94.2982L77.0277 94.2095C76.8497 94.1326 76.7359 94.0551 76.5921 93.9243L76.546 93.8815Z" fill="#D3D2D2"/>
<path d="M65.137 96.0481C65.2024 96.1819 65.1677 96.1714 65.3204 96.2311C65.8103 95.4299 66.5011 94.3605 67.3711 93.9356C67.9442 93.6556 68.7469 93.6987 69.373 93.6951L72.0642 93.6942L74.6146 93.7054C75.2363 93.7118 75.9529 93.6827 76.546 93.8815L76.5921 93.9243C76.7359 94.055 76.8497 94.1326 77.0277 94.2095L76.9219 94.2981L76.8053 94.25C76.6936 94.2162 76.5212 94.2339 76.4065 94.2375L75.9361 94.148C74.8424 93.9295 73.5884 94.0351 72.4694 94.0299L69.9987 94.0242C69.3614 94.025 68.7179 94.013 68.0978 94.1758L67.9812 94.2048C67.0182 94.4509 66.5877 94.9718 65.9892 95.7152C65.7959 95.9553 65.5542 96.2118 65.4047 96.4813L65.1241 97.1075L65.0402 96.0224L65.0393 95.9762L65.137 96.0481Z" fill="url(#paint13_linear_1201_3)"/>
<path d="M65.6891 92.8234C65.9771 92.4531 66.3906 92.1779 66.7532 91.8833C68.2243 90.6881 70.1668 90.4557 71.997 90.4563C72.537 90.4567 73.0849 90.4407 73.6221 90.5027C75.0358 90.6658 76.1432 90.9968 77.3173 91.8232C77.6108 92.0301 77.8838 92.1989 78.1176 92.4783C77.9665 92.5065 77.9183 92.5463 77.7767 92.4768C77.5152 92.3485 77.2408 92.2222 76.9527 92.1713C75.3825 91.8942 73.6873 91.9959 72.0953 91.99L69.2411 91.9945C68.49 92.0054 67.6433 92.012 66.9323 92.2786C66.4995 92.4407 66.1442 92.7483 65.6891 92.8234Z" fill="url(#paint14_linear_1201_3)"/>
<path d="M65.6891 92.8234C66.1442 92.7483 66.4995 92.4407 66.9323 92.2786C67.6433 92.012 68.49 92.0054 69.2411 91.9945L72.0953 91.99C73.6873 91.9958 75.3825 91.8942 76.9526 92.1713C77.2408 92.2222 77.5151 92.3485 77.7767 92.4768C77.9183 92.5463 77.9665 92.5065 78.1176 92.4783C78.6326 92.947 79.323 93.5031 79.3823 94.2563C79.4275 94.8328 79.3352 95.4088 79.2113 95.9692C78.5933 94.9149 77.9837 93.8803 76.711 93.5512C75.1583 93.1495 73.2831 93.3158 71.682 93.3182C70.4781 93.3201 69.1845 93.2459 67.9933 93.4159C67.6011 93.4721 67.2662 93.5679 66.9253 93.7751C66.1161 94.2675 65.4096 95.1432 65.137 96.0481L65.0393 95.9762C64.9834 95.2332 64.8861 94.3763 65.163 93.6656C65.2838 93.3556 65.493 93.0887 65.6891 92.8234Z" fill="white"/>
<path d="M81.0839 109.671C81.9951 108.694 82.7093 107.566 83.5531 106.532C84.5065 105.364 85.6257 104.34 86.5394 103.136C87.2753 102.166 87.8104 101.058 88.3885 99.9933C88.8199 99.1988 89.3294 98.22 89.5311 97.3389C89.7004 96.5989 89.8017 95.808 89.764 95.0479C89.7098 93.957 89.0918 92.6857 89.7235 91.6674C90.0289 91.1752 90.7277 90.7559 91.2874 90.6283C91.5036 90.5791 91.7671 90.5564 91.9527 90.6947C92.6043 91.1801 92.8263 92.532 92.9333 93.2914C92.9937 94.1813 93.0861 95.4009 92.7494 96.2349L90.8982 102.283L90.3794 104.16L90.2455 104.478C89.593 106.01 88.6191 107.556 87.5241 108.81C87.664 108.81 87.8316 108.599 87.9338 108.492C88.1249 108.293 87.9533 108.489 88.084 108.264C88.1999 108.065 88.3937 107.885 88.5235 107.683L88.9465 107.05C89.047 106.899 89.1214 106.739 89.2266 106.591C89.5611 106.119 90.0895 105.314 90.2275 104.76C90.2539 104.655 90.3062 104.575 90.3516 104.478L90.4219 104.301L90.4746 104.178L90.5637 103.878C90.6096 103.739 90.6348 103.611 90.6856 103.474L90.7889 103.018C90.8669 102.628 90.9989 102.234 91.1074 101.853C91.1446 101.723 91.1504 101.617 91.1954 101.483C91.2707 101.259 91.3058 101.021 91.3887 100.796L91.459 100.51C91.4903 100.354 91.4584 100.499 91.5293 100.303C91.6504 99.9702 91.7104 99.6176 91.8567 99.295C91.9131 99.1706 91.8936 99.2249 91.9051 99.0991C91.9186 98.9508 92.0146 98.735 92.0567 98.5774C92.1031 98.4038 92.1927 98.206 92.2512 98.0303C92.3099 97.8539 92.3406 97.707 92.4192 97.5338C92.4721 97.4173 92.4482 97.3493 92.4786 97.2388C92.5101 97.124 92.5748 97.0198 92.6071 96.9008C92.6455 96.7599 92.623 96.8304 92.6916 96.6929C92.7576 96.5608 92.7379 96.6239 92.7499 96.4913C92.7661 96.3139 92.9294 95.9012 93.0235 95.7417L92.9532 95.5657L93.0934 95.53L93.1296 95.5657H93.2344C93.475 95.3201 93.7223 94.9981 94.0255 94.8435L94.1485 94.7554L94.4693 94.5375C94.5743 94.4672 94.6144 94.4847 94.711 94.4385L94.8516 94.3327L95.0802 94.2095L95.3438 94.0509L95.4076 94.0355C95.6316 93.9793 95.8358 93.824 96.0501 93.7332L96.0246 93.6611C97.4757 92.8651 99.0649 92.4824 100.292 91.3281L100.416 91.5949C100.417 92.5305 100.396 93.3941 100.144 94.3047C99.9638 94.9538 99.6267 95.5711 99.3183 96.1676C98.4573 97.833 97.3966 99.3606 96.1467 100.757L95.5381 101.598C94.6803 102.819 93.7889 104.02 92.7683 105.111L91.3982 106.521C91.1832 106.728 90.8292 106.982 90.6721 107.221L90.2984 107.202C89.6916 107.837 88.9101 108.391 88.2267 108.947L84.562 112.032L85.0909 111.221C85.9936 109.754 86.6434 108.128 87.3936 106.582C88.8762 103.526 90.67 100.508 90.8845 97.0333C90.9344 96.2258 90.9347 95.4054 90.7474 94.6145L90.7011 94.728C90.6826 96.62 90.4088 98.4323 89.7113 100.203C88.2906 103.809 85.3566 106.661 82.6439 109.328C80.6974 111.242 78.4802 113.237 75.8541 114.123C74.6337 114.535 73.2775 114.685 71.9935 114.672C68.779 114.639 65.9731 113.382 63.6419 111.186C64.068 111.299 64.2102 111.519 64.5645 111.769L64.582 111.5C64.3643 111.384 64.1601 111.262 64.0675 111.023C63.931 110.67 63.6252 110.39 63.373 110.114C62.9005 109.597 62.2707 108.973 61.96 108.349C61.9079 108.244 61.8803 108.181 61.8021 108.088C61.4937 107.723 61.1802 107.369 60.9173 106.969L61.4179 107.471L61.476 107.577C61.6484 107.788 61.8413 107.988 62.0914 108.103L62.1501 108.129L62.7512 108.761C62.8379 108.696 62.8454 108.703 62.9016 108.613C63.1949 108.144 62.5435 106.702 62.3965 106.168C62.3384 105.958 62.2502 105.451 62.3562 105.249L62.5403 104.926C65.5232 107.405 70.0279 108.484 73.8567 108.123C76.6941 107.855 79.3002 106.679 81.4686 104.857L81.4808 105.023C81.5849 104.924 81.6261 104.829 81.7739 104.829C81.7739 104.961 81.7819 104.89 81.739 105.041L81.8001 105.256C81.8581 105.501 81.739 105.884 81.6856 106.129C81.469 107.124 81.1124 108.044 81.0561 109.07C81.0452 109.268 81.0094 109.486 81.0839 109.671Z" fill="url(#paint15_linear_1201_3)"/>
<path d="M94.0971 102.654C95.1865 100.817 96.3702 98.726 96.7039 96.5948L96.7941 96.5969C96.7622 97.4583 96.6782 98.2892 96.4911 99.1326L96.2138 100.145C96.1832 100.24 96.0765 100.465 96.0765 100.554C96.0765 100.625 96.1232 100.689 96.1467 100.757L95.538 101.598C94.6802 102.819 93.7888 104.02 92.7683 105.111L91.3982 106.521C91.1832 106.728 90.8292 106.982 90.672 107.221L90.2983 107.202C91.7393 105.781 92.9322 104.309 94.0971 102.654Z" fill="url(#paint16_linear_1201_3)"/>
<path d="M67.7237 112.318C68.8494 112.527 69.9058 112.748 71.0541 112.825C73.4456 112.986 76.1147 112.596 78.3838 111.811L78.3634 112.016L78.4442 112.089C78.2312 112.316 77.9329 112.364 77.6636 112.507C77.2986 112.7 76.887 112.789 76.4948 112.912C75.0148 113.376 73.6819 113.554 72.1406 113.612C71.2584 113.644 70.3866 113.673 69.5115 113.529C68.8044 113.412 67.9106 113.236 67.377 112.721L67.2394 112.745C67.0603 112.633 66.9536 112.588 66.9019 112.363C66.8888 112.307 66.9043 112.247 66.9143 112.192C67.0509 112.224 67.1649 112.255 67.296 112.302C67.4364 112.352 67.5782 112.33 67.7237 112.318Z" fill="#B7B6B6"/>
<path d="M81.4686 104.857L81.4808 105.023C81.5848 104.924 81.6261 104.829 81.7738 104.829C81.7738 104.961 81.7819 104.89 81.739 105.041L81.8001 105.256C81.858 105.501 81.739 105.884 81.6855 106.129C81.469 107.124 81.1123 108.044 81.0561 109.071C81.0452 109.268 81.0094 109.486 81.0838 109.671C80.7855 110.099 80.3697 110.521 79.9506 110.825L79.5235 111.142L79.4201 111.211L78.961 111.488C78.7667 111.604 78.564 111.671 78.3838 111.811C76.1147 112.596 73.4456 112.986 71.0541 112.825C69.9058 112.748 68.8495 112.527 67.7237 112.318C67.2392 112.106 66.7091 112.013 66.2256 111.781C65.6423 111.502 65.1218 111.021 64.6348 110.599C63.9735 110.026 63.2914 109.454 62.7512 108.761C62.8378 108.696 62.8453 108.703 62.9016 108.613C63.1948 108.145 62.5435 106.702 62.3965 106.168C62.3383 105.958 62.2502 105.451 62.3561 105.249L62.5403 104.926C65.5232 107.405 70.0279 108.484 73.8566 108.123C76.6941 107.855 79.3001 106.679 81.4686 104.857Z" fill="#D3D2D2"/>
<path d="M49.3836 51.8261C49.8209 51.1203 50.6672 50.4778 51.3121 49.9623C55.3077 46.7672 60.3899 44.5658 65.35 43.4106C69.7546 42.3849 74.5416 42.1482 78.9961 43.0187C80.8735 43.3856 82.6688 43.9671 84.4454 44.6716C86.0157 45.294 87.5517 45.9929 88.9859 46.891C90.6229 47.9164 92.3131 49.1432 93.7309 50.4577C94.1939 50.887 94.5796 51.3876 95.0374 51.8152C95.1554 51.9253 95.2135 52.0313 95.2863 52.1746C96.448 53.036 97.4577 54.0369 98.3948 55.1369C98.8686 55.693 99.3019 56.322 99.8343 56.8208C100.132 56.9271 100.439 57.3522 100.631 57.5991C101.78 59.0785 102.543 60.8071 103.467 62.4263C104.142 63.6112 104.943 64.6954 105.856 65.7059C106.533 66.4551 107.22 67.1916 107.959 67.8801L110.383 70.0293C111.054 70.6124 111.939 71.2781 112.336 72.0829C112.727 72.8764 112.944 73.865 113.164 74.7209L114.084 78.1647L114.536 79.6325C114.62 79.8863 114.755 80.1903 114.784 80.4524C114.454 79.9494 114.129 79.4416 113.744 78.9785C113.356 78.5113 112.913 78.0815 112.547 77.5968C112.279 77.2406 112.066 76.8479 111.825 76.4735C111.673 76.4818 111.668 76.4572 111.546 76.5631C110.524 74.4857 109.593 72.6162 107.981 70.9085C107.629 70.5362 107.193 70.0652 106.744 69.8165L107.047 75.0794C107.094 75.5714 107.155 76.079 107.256 76.5624C107.309 76.8166 107.432 77.0987 107.415 77.3572L107.241 77.0523C106.593 75.9682 105.405 75.3997 104.219 75.0995C102.785 74.7365 101.228 74.7288 99.7624 74.821C96.1557 75.048 92.383 76.0315 89.2748 77.9171C87.5793 78.9455 86.2176 80.2692 85.7419 82.2448C85.5406 83.081 85.6296 83.8856 85.8291 84.7137C86.3346 86.8113 87.4986 88.7854 88.6161 90.6098C86.8915 89.1127 85.0765 87.7553 83.2362 86.4064C81.5738 85.1879 79.6518 83.5028 77.6112 83.047C76.6609 82.8349 75.7306 82.9352 74.9146 83.4815C73.2263 84.6121 72.4234 86.9 72.0848 88.8034C71.9067 86.9665 70.8694 84.7825 69.5579 83.4646C68.9434 82.8471 68.1754 82.4781 67.2985 82.4851C66.5661 82.4911 65.9005 82.7485 65.2611 83.0836C63.3486 84.0861 61.5861 85.6174 59.8904 86.9546C58.3396 88.1773 56.7443 89.3409 55.3592 90.7559C55.4976 90.2906 56.0693 89.6648 56.3372 89.2327C57.1366 87.943 57.7626 86.6833 58.2139 85.2334C58.5137 84.2709 58.7356 83.2984 58.5674 82.2858C58.3051 80.7075 57.0254 79.3045 55.7702 78.411C54.706 77.6535 53.4692 77.1008 52.2593 76.6233C48.6698 75.2067 44.475 74.419 40.6319 75.0829C39.1592 75.3373 37.6823 75.8057 36.7909 77.08L37.1299 70.1247C36.7742 70.369 36.4131 70.8332 36.1206 71.1608C35.092 72.3132 34.1624 73.5276 33.2869 74.7998C32.9978 75.2199 32.7593 75.7095 32.4437 76.1049L32.3884 76.1692L32.247 76.1603C31.212 77.0865 30.2477 78.0743 29.3342 79.1219L28.1234 80.5921L28.9292 77.5113L29.8832 74.3249C30.099 73.7008 30.3044 73.0549 30.6595 72.4932C31.1277 71.7528 32.0442 71.2059 32.7492 70.7128C33.7161 70.0363 34.7067 69.3748 35.6177 68.6235C36.5918 67.8202 37.4639 66.8855 38.3114 65.9518C40.2709 63.7927 41.4644 61.0821 43.008 58.6277C43.4102 57.9883 43.8109 57.2378 44.3322 56.693C45.7945 54.77 47.2896 53.0818 49.3836 51.8261Z" fill="url(#paint17_linear_1201_3)"/>
<path d="M89.8358 65.2179C90.2072 65.0717 90.5155 64.8596 90.8691 64.6986C91.2692 64.5164 91.6986 64.3013 92.059 64.0488L92.1208 64.0031L92.1328 64.1496C91.7591 64.4003 91.0375 64.6512 90.7736 64.9806L90.8458 65.0413C90.7813 65.1799 90.7078 65.2556 90.5974 65.3601L90.5968 65.4178L90.399 65.5164C89.9792 65.5714 89.5813 65.754 89.1563 65.7773L89.1295 65.7228C89.32 65.4692 89.562 65.3618 89.8358 65.2179Z" fill="#393B46"/>
<path d="M92.1329 64.1496C93.3685 63.4707 94.3495 62.779 95.7657 62.4703C97.6476 62.0598 99.0376 62.5691 100.756 63.2498C101.218 63.4327 101.756 63.5629 102.176 63.8227L102.444 63.8752C102.207 64.0211 101.911 64.0123 101.648 64.0983C100.993 64.3127 100.373 64.6283 99.7176 64.8425C99.2566 64.993 98.6957 65.0245 98.2624 65.2224C98.1929 65.2541 98.1137 65.3373 98.0597 65.3871C97.7078 65.482 97.3103 65.4437 96.9462 65.4382L94.3092 65.3302L90.399 65.5164L90.5969 65.4177L90.5974 65.3601C90.7079 65.2556 90.7814 65.1799 90.8459 65.0413L90.7737 64.9806C91.0375 64.6512 91.7592 64.4003 92.1329 64.1496Z" fill="#747373"/>
<path d="M90.8459 65.0412C91.4719 64.8017 92.2262 64.7085 92.8892 64.6317C94.6729 64.4245 96.4538 64.5323 98.2313 64.3497C99.5635 64.2129 100.829 63.787 102.176 63.8227L102.444 63.8752C102.207 64.0211 101.911 64.0123 101.648 64.0983C100.993 64.3127 100.373 64.6283 99.7176 64.8425C99.2566 64.993 98.6957 65.0245 98.2624 65.2223C98.1929 65.2541 98.1137 65.3373 98.0597 65.3871C97.7078 65.482 97.3103 65.4436 96.9462 65.4382L94.3092 65.3302L90.399 65.5164L90.5969 65.4177L90.5974 65.3601C90.7079 65.2556 90.7814 65.1799 90.8459 65.0412Z" fill="#2A2B36"/>
<path d="M84.1052 68.6769C84.5462 68.5872 84.8667 68.2331 85.2051 67.9519C86.3939 66.9641 87.4058 65.8791 88.4839 64.7788C88.8149 64.4412 89.6159 63.6499 90.091 63.6473C90.1004 63.846 90.1262 64.0585 90.0882 64.2545C90.016 64.6242 90.0053 64.8554 89.8358 65.2178C89.562 65.3617 89.32 65.4692 89.1295 65.7228L89.1563 65.7773C89.5814 65.754 89.9792 65.5714 90.399 65.5164L94.3092 65.3302L96.9462 65.4382C97.3103 65.4437 97.7078 65.482 98.0597 65.3871C98.5761 65.343 99.1232 65.3056 99.625 65.1776C99.9709 65.0895 100.297 64.9251 100.639 64.8196C99.771 65.6528 99.0162 66.575 98.1844 67.4407L95.1827 70.3374C93.2899 72.0973 91.2023 74.0974 88.6992 74.9052C87.2436 75.3749 85.6898 75.4119 84.1744 75.3788L82.5822 75.3422C82.4653 75.3433 82.1852 75.3347 82.0909 75.3833C81.8115 75.5278 81.4815 75.8748 81.253 76.0916L78.148 79.6678L77.0455 81.2245C77.1917 80.668 77.4672 80.1048 77.6805 79.5681C77.712 78.6842 78.409 77.5566 78.7358 76.7194C79.0555 75.9011 79.3198 75.0835 79.4659 74.2159C79.5383 73.7867 79.5452 73.3219 79.5347 72.8873C79.5298 72.6792 79.4563 72.291 79.5302 72.1056C79.5754 71.9923 79.7215 71.8403 79.7963 71.7365C80.5692 71.6266 81.1603 71.3354 81.8262 70.9531C82.711 70.3027 83.4156 69.5256 84.1052 68.6769Z" fill="#030713"/>
<path d="M79.7963 71.7365C80.5692 71.6266 81.1604 71.3354 81.8262 70.9531C81.6878 71.9741 81.2905 72.9351 80.8761 73.872C80.0217 75.8034 78.9098 77.6284 77.8607 79.458L77.6805 79.5681C77.712 78.6842 78.409 77.5566 78.7358 76.7195C79.0555 75.9011 79.3199 75.0835 79.4659 74.2159C79.5383 73.7867 79.5452 73.3219 79.5347 72.8873C79.5299 72.6792 79.4564 72.2911 79.5302 72.1056C79.5754 71.9923 79.7215 71.8404 79.7963 71.7365Z" fill="#2A2B36"/>
<path d="M94.6128 66.0384L95.3251 65.9883C95.027 68.4089 94.0681 70.6607 92.2853 72.3679C89.6639 74.8778 86.7065 75.0495 83.2739 74.9567L82.4187 74.9426C83.3168 73.4244 84.0413 71.8231 85.1354 70.4257C86.3671 68.8525 87.8836 67.7178 89.7541 67.0234C91.2852 66.4551 92.9978 66.2355 94.6128 66.0384Z" fill="#0090F9"/>
<path d="M41.7748 64.1519C41.6257 64.0856 41.679 64.1376 41.6072 64.004C42.4059 63.6973 43.1062 63.2154 43.8739 62.85C45.7886 61.9386 47.8179 62.0318 49.7704 62.742L49.8326 62.6604C50.5506 63.0078 51.1661 63.4451 51.8554 63.8278L52.2879 64.1194L52.6357 63.4451L53.0859 63.7872L54.9146 65.4189C55.5521 65.9351 56.2494 66.3263 56.9188 66.7918L58.5966 67.9678C58.9421 68.201 59.2738 68.4695 59.6981 68.5174C60.6311 69.5099 61.5829 70.4885 62.7638 71.1864C62.9604 72.2801 63.1903 73.4201 63.5706 74.4658C64.0369 75.7482 64.7171 76.9517 65.3978 78.1292C66.0354 79.2325 66.7868 80.378 67.1664 81.5957L61.8439 75.3781C61.5863 75.4412 61.3337 75.4615 61.0697 75.4801C59.3087 75.6048 57.2542 75.6358 55.53 75.2086C53.7328 74.7632 52.0757 73.7113 50.6272 72.5836C48.6126 71.0152 46.7608 69.158 44.9872 67.3214C44.1512 66.4559 43.3888 65.4816 42.4834 64.6909L42.4729 64.6926C42.2175 64.5273 41.9891 64.3691 41.7748 64.1519Z" fill="#030713"/>
<path d="M41.7748 64.1519C41.6257 64.0856 41.679 64.1376 41.6072 64.004C42.4059 63.6973 43.1062 63.2154 43.8739 62.85C45.7886 61.9386 47.8179 62.0318 49.7704 62.742L49.8326 62.6604C50.5506 63.0078 51.1661 63.4451 51.8554 63.8278L52.2879 64.1194L52.3596 64.1784C52.4803 64.2742 52.6041 64.3349 52.734 64.4143C52.9504 64.547 53.1442 64.707 53.3668 64.837C53.73 65.0495 53.9411 65.2455 54.1828 65.5844C51.81 65.3022 49.4507 65.469 47.0756 65.3569L45.4365 65.2156C45.1515 65.1786 44.6199 65.0317 44.3642 65.1312L44.4409 65.2721L44.3321 65.3862C43.7739 65.046 43.2261 64.8393 42.6101 64.6276L42.4834 64.6909L42.4729 64.6926C42.2175 64.5273 41.9891 64.3691 41.7748 64.1519Z" fill="#747373"/>
<path d="M49.7704 62.7419L49.8327 62.6604C50.5506 63.0078 51.1662 63.4451 51.8554 63.8278L52.288 64.1194L52.3596 64.1784C52.4803 64.2742 52.6041 64.3349 52.734 64.4143C52.9504 64.547 53.1443 64.707 53.3668 64.837C53.73 65.0495 53.9412 65.2454 54.1829 65.5844C51.81 65.3022 49.4507 65.469 47.0757 65.3569L45.4365 65.2156C45.1515 65.1786 44.62 65.0317 44.3642 65.1312L44.4409 65.2721L44.3322 65.3862C43.774 65.0459 43.2261 64.8393 42.6102 64.6276L42.4834 64.6909L42.4729 64.6926C42.2175 64.5272 41.9892 64.3691 41.7748 64.1519C42.4933 64.3213 43.2728 64.3178 44.0087 64.3394L48.4105 64.3876C49.657 64.3995 51.0865 64.3751 52.2803 64.7711L53.686 65.284C53.4846 65.0705 53.1872 64.9116 52.9453 64.7463L51.5654 63.7788L49.7704 62.7419Z" fill="#2A2B36"/>
<path d="M48.3874 66.4093L52.8047 66.9977C55.7263 67.6708 58.0001 69.1527 59.5283 71.7763C60.1341 72.8163 60.6141 73.914 61.2553 74.936C57.7341 75.1504 54.5567 75.075 51.6596 72.7818C49.6288 71.1742 48.6827 68.934 48.3874 66.4093Z" fill="#0090F9"/>
<path d="M49.3836 51.8261C50.8941 51.5329 52.3753 51.7108 53.8662 52.0394C55.8141 52.4686 57.6263 53.1143 59.2892 54.2378C60.3846 54.9778 61.3054 55.8677 62.1859 56.8482C62.5708 57.2767 62.9894 57.8762 63.4457 58.2125C62.8937 57.3244 62.5045 56.3945 62.0235 55.4702C61.2919 54.0644 60.3717 52.9109 59.2189 51.8318C60.3604 52.2543 61.5514 52.6325 62.6194 53.2229C65.8382 55.0024 68.1692 58.5315 69.6846 61.8103C70.474 63.5179 70.872 65.1529 71.0408 67.0212C70.4577 66.4995 69.9887 65.8863 69.4838 65.2919L67.5435 63.16C68.322 64.3441 68.8465 65.5994 69.084 66.9996C69.1729 68.1069 69.0724 69.3019 68.3102 70.1822C67.7436 70.8366 67.0247 71.2208 66.1992 71.4434L66.072 71.4785C64.9403 71.7763 63.8314 71.607 62.7638 71.1864C61.5829 70.4885 60.6312 69.5099 59.6982 68.5174L58.6187 67.0086C57.9531 65.98 57.4172 64.891 56.898 63.7833C56.4057 62.7328 56.005 61.7481 55.8698 60.5871L55.7511 60.5387C55.7787 61.8122 55.9112 63.1134 56.1895 64.3567C55.9658 64.1773 55.7882 63.9109 55.6056 63.6871L54.4167 62.2075C52.5492 59.9065 50.6322 57.7192 49.0975 55.1705C47.5768 54.9423 46.3193 55.7935 45.0462 56.4552C44.833 56.5662 44.5624 56.7661 44.3322 56.693C45.7945 54.77 47.2896 53.0818 49.3836 51.8261Z" fill="white"/>
<path d="M74.6922 67.9389L74.6166 67.5265C74.4676 66.2415 75.0631 64.6606 75.8309 63.6516L75.7617 63.5819L72.5029 66.9879C72.9824 65.1483 73.5222 63.2713 74.3254 61.546C75.8612 58.248 78.2759 54.8361 81.5101 53.0589C82.3842 52.5785 83.3605 52.2552 84.2956 51.915L80.3631 58.2487C80.8827 57.9265 81.4028 57.2047 81.8425 56.7469C83.4494 55.073 85.1236 53.7747 87.2815 52.8699C89.5758 51.9078 92.926 51.2123 95.2863 52.1746C96.448 53.036 97.4577 54.0369 98.3948 55.1369C98.8686 55.693 99.3019 56.322 99.8342 56.8207L99.6608 56.8884C98.3103 56.074 96.6756 55.3516 95.1055 55.1072C93.6126 57.7311 91.5827 59.7838 89.5917 62.0128L87.2597 64.7934L87.8226 59.4762L87.5691 60.1298C87.3901 61.6121 86.9065 62.8913 86.3326 64.2573C85.6789 65.813 84.9655 67.2228 84.1052 68.6768C83.4156 69.5256 82.711 70.3026 81.8262 70.953C81.1604 71.3353 80.5692 71.6265 79.7963 71.7364C78.6959 71.7875 77.7301 71.6121 76.7794 71.0389C75.6372 70.3502 75.0014 69.2089 74.6922 67.9389Z" fill="white"/>
<defs>
<linearGradient id="paint0_linear_1201_3" x1="31.7445" y1="8.97801" x2="31.8686" y2="10.2568" gradientUnits="userSpaceOnUse">
<stop stop-color="#767476"/>
<stop offset="1" stop-color="#898989"/>
</linearGradient>
<linearGradient id="paint1_linear_1201_3" x1="99.4083" y1="29.9065" x2="103.353" y2="22.5561" gradientUnits="userSpaceOnUse">
<stop stop-color="#1E202A"/>
<stop offset="1" stop-color="#393839"/>
</linearGradient>
<linearGradient id="paint2_linear_1201_3" x1="41.1804" y1="13.5502" x2="37.568" y2="22.9564" gradientUnits="userSpaceOnUse">
<stop stop-color="#8F9091"/>
<stop offset="1" stop-color="#C2C0BF"/>
</linearGradient>
<linearGradient id="paint3_linear_1201_3" x1="102.931" y1="14.303" x2="107.463" y2="20.8286" gradientUnits="userSpaceOnUse">
<stop stop-color="#999799"/>
<stop offset="1" stop-color="#C2C1C0"/>
</linearGradient>
<linearGradient id="paint4_linear_1201_3" x1="122.432" y1="26.3378" x2="108.747" y2="39.6971" gradientUnits="userSpaceOnUse">
<stop stop-color="#25272F"/>
<stop offset="1" stop-color="#43434F"/>
</linearGradient>
<linearGradient id="paint5_linear_1201_3" x1="71.9223" y1="18.2006" x2="72.0441" y2="5.77046" gradientUnits="userSpaceOnUse">
<stop stop-color="#007CE2"/>
<stop offset="1" stop-color="#49CBFF"/>
</linearGradient>
<linearGradient id="paint6_linear_1201_3" x1="94.8535" y1="22.9249" x2="92.5205" y2="26.3565" gradientUnits="userSpaceOnUse">
<stop stop-color="#002C79"/>
<stop offset="1" stop-color="#004785"/>
</linearGradient>
<linearGradient id="paint7_linear_1201_3" x1="24.6086" y1="77.1902" x2="23.1952" y2="71.0227" gradientUnits="userSpaceOnUse">
<stop stop-color="#031C45"/>
<stop offset="1" stop-color="#003974"/>
</linearGradient>
<linearGradient id="paint8_linear_1201_3" x1="95.6462" y1="45.4291" x2="84.6101" y2="53.2516" gradientUnits="userSpaceOnUse">
<stop stop-color="#003672"/>
<stop offset="1" stop-color="#1265A0"/>
</linearGradient>
<linearGradient id="paint9_linear_1201_3" x1="41.1959" y1="127.423" x2="47.8448" y2="91.9634" gradientUnits="userSpaceOnUse">
<stop stop-color="#1F90E3"/>
<stop offset="1" stop-color="#54F9FF"/>
</linearGradient>
<linearGradient id="paint10_linear_1201_3" x1="73.6836" y1="41.3111" x2="73.7096" y2="39.0385" gradientUnits="userSpaceOnUse">
<stop stop-color="#0065B4"/>
<stop offset="1" stop-color="#1782CA"/>
</linearGradient>
<linearGradient id="paint11_linear_1201_3" x1="105.612" y1="119.564" x2="97.5725" y2="97.5446" gradientUnits="userSpaceOnUse">
<stop stop-color="#009BFF"/>
<stop offset="1" stop-color="#88FDFF"/>
</linearGradient>
<linearGradient id="paint12_linear_1201_3" x1="101.754" y1="107.209" x2="100.432" y2="81.0238" gradientUnits="userSpaceOnUse">
<stop/>
<stop offset="1" stop-color="#2B2D34"/>
</linearGradient>
<linearGradient id="paint13_linear_1201_3" x1="71.9445" y1="94.5517" x2="71.8891" y2="93.5998" gradientUnits="userSpaceOnUse">
<stop stop-color="#CCCBC9"/>
<stop offset="1" stop-color="#F0EFF6"/>
</linearGradient>
<linearGradient id="paint14_linear_1201_3" x1="72.1233" y1="90.4355" x2="71.9293" y2="92.2928" gradientUnits="userSpaceOnUse">
<stop stop-color="#353536"/>
<stop offset="1" stop-color="#504F50"/>
</linearGradient>
<linearGradient id="paint15_linear_1201_3" x1="67.0221" y1="94.3294" x2="93.8215" y2="107.356" gradientUnits="userSpaceOnUse">
<stop stop-color="#7E7C7C"/>
<stop offset="1" stop-color="white"/>
</linearGradient>
<linearGradient id="paint16_linear_1201_3" x1="95.0107" y1="103.873" x2="92.1143" y2="100.009" gradientUnits="userSpaceOnUse">
<stop stop-color="#606367"/>
<stop offset="1" stop-color="#E8DDD3"/>
</linearGradient>
<linearGradient id="paint17_linear_1201_3" x1="69.7247" y1="42.6755" x2="71.8043" y2="90.4537" gradientUnits="userSpaceOnUse">
<stop stop-color="#393A3E"/>
<stop offset="1" stop-color="#5A5959"/>
</linearGradient>
</defs>
</svg>
