<svg width="192" height="192" viewBox="0 0 192 192" fill="none" xmlns="http://www.w3.org/2000/svg">
<path d="M40.7678 1.95625L64.0888 19.6887C65.3568 20.6218 66.5818 21.3407 68.0425 21.9269C68.1513 21.9705 68.5693 22.1767 68.6633 22.1697C68.74 22.1639 69.7865 21.1434 69.9438 21.0065L72.9518 18.5202L81.2798 11.9134C83.5855 10.1206 85.8495 8.26287 88.4403 6.88791C90.0493 6.03391 91.8353 5.48617 93.6353 5.22398C96.1023 4.86458 98.9598 4.96543 101.321 5.8223C104.799 7.08414 107.907 9.78489 110.773 12.0687L119.106 18.8801L123.387 22.3594C124.152 22.1216 124.819 21.7793 125.495 21.3566C127.467 20.1224 129.298 18.5472 131.139 17.1219L142.004 8.59414C144.983 6.26061 148.028 3.94634 151.236 1.93573L155.34 10.7188C156.643 13.8536 157.734 17.0555 158.468 20.374C159.549 25.2541 159.883 30.2 159.848 35.187C159.812 40.2607 159.355 45.4428 158.248 50.3955C157.392 54.2267 156.116 57.9855 154.623 61.6134C154.793 63.1354 155.199 64.6443 155.551 66.1327C156.864 71.6773 158.588 77.7188 161.94 82.4083C163.436 84.5021 165.264 86.1819 167.218 87.8298L170.813 90.7308C173.018 92.6082 175.013 94.6544 176.583 97.1065C181.436 104.689 179.837 114.109 178.012 122.376C178.351 122.447 178.831 122.342 179.177 122.285C181.635 121.881 185.061 121.106 186.578 118.954L186.662 118.832C186.258 120.63 186.071 122.437 185.43 124.18C183.941 128.23 181.125 132.345 177.569 134.858C176.674 135.49 175.702 135.947 174.713 136.407L177.806 136.248C179.065 136.192 180.13 136.234 181.31 135.737L175.109 141.974C170.089 146.797 164.498 150.706 158.306 153.864L150.722 157.422L140.277 161.455C136.478 162.977 132.811 164.706 129.177 166.589L107.116 178.704L100.62 182.553C99.2313 183.39 97.7191 184.465 96.2028 185.027C95.1966 184.7 94.1693 183.971 93.2345 183.467L87.4575 180.404L73.1563 173.052L59.8965 165.872L42.6563 157.353C37.3083 154.784 31.7695 152.192 26.7815 148.965C22.9182 146.466 19.2666 143.574 15.8816 140.459C14.2933 138.997 12.8209 137.345 11.1769 135.959L11.0613 135.862C12.996 136.531 15.0228 136.378 17.0268 136.127L15.0278 134.82C12.1206 132.737 9.80151 130.195 8.01311 127.084C7.31243 125.865 6.67553 124.597 6.28866 123.24C5.87106 121.775 5.75656 120.242 5.50958 118.742L5.70506 118.998C6.32391 119.77 7.05093 120.133 7.93518 120.52C9.85706 121.362 12.0462 121.82 14.1233 122.061L13.0823 117.826C12.5975 115.596 12.2883 113.266 12.2039 110.982C12.1066 108.353 12.2845 105.68 12.9864 103.136C14.3358 98.2452 17.5478 94.2376 21.297 90.9382C23.9845 88.573 26.7453 86.4056 29.0225 83.6083C32.674 79.1231 34.8143 73.7604 36.2545 68.2017L37.2488 63.7994C37.3905 63.1414 37.6778 62.2817 37.6218 61.6121C37.5813 61.1312 37.3393 60.6457 37.1553 60.2056L36.2553 57.971L34.896 53.6448C33.2003 47.4289 32.4608 41.2696 32.4168 34.8321C32.3928 31.2934 32.5368 27.78 33.0788 24.2789C33.9678 18.5372 35.6358 13.1882 38.0018 7.89688C38.8905 5.90972 40.0593 4.0163 40.7678 1.95625Z" fill="#030713"/>
<path d="M41.193 14.9506C41.5397 13.728 42.2895 12.455 42.8632 11.319L42.9845 11.3676L43.1985 11.8923L43.1567 12.08C43.0907 12.3928 43.088 12.7109 43.078 13.0293L43.0047 13.0706C42.52 13.3573 42.0472 14.2501 41.6485 14.7141L41.672 14.5597C41.6845 14.408 41.7 14.4468 41.6257 14.3704L41.5505 14.5468C41.4627 14.7443 41.373 14.8285 41.193 14.9506Z" fill="url(#paint0_linear_1201_3)"/>
<path d="M61.9963 21.3474C62.884 21.8838 63.9013 22.5684 64.9113 22.8275L64.3338 29.0518C64.268 30.1897 64.3048 31.3811 64.0875 32.5013C63.4215 32.0338 62.72 31.5521 62.139 30.9815C62.2448 30.8265 62.2723 30.733 62.2835 30.5447C62.3485 29.435 62.1578 28.3041 62.1418 27.1936C62.114 25.2897 62.342 23.2157 61.9963 21.3474Z" fill="#2A2B36"/>
<path d="M12.0975 128.159C10.9819 126.882 10.0909 125.519 9.28888 124.028C11.6106 124.742 13.9064 125.249 16.3428 125.313L16.627 125.479L16.6232 125.644C16.6135 126.948 17.2381 128.057 17.3636 129.323C17.3886 129.575 17.4466 129.838 17.3198 130.069L14.2795 129.02C13.5615 128.744 12.8391 128.341 12.0975 128.159Z" fill="#66D4FF"/>
<path d="M41.9638 57.4643L42.422 58.0988C42.8418 58.096 43.8953 56.8864 44.2173 56.5452C44.4633 56.2845 44.2435 56.5395 44.414 56.2426C44.593 55.9315 44.9658 55.7382 45.164 55.3972L45.4688 55.0921L45.4693 54.9747C45.6735 54.7913 45.7768 54.6926 45.914 54.4579C46.0228 54.272 46.1783 54.2102 46.289 53.9882C46.3398 53.887 46.4388 53.7866 46.5088 53.7007C46.6138 53.5722 46.6923 53.4459 46.7813 53.3072C46.892 53.1348 46.8505 53.1984 46.976 53.0446C47.0815 52.9154 47.1605 52.7894 47.25 52.6499L47.814 51.8057L47.9868 51.5094C48.1198 51.2619 48.3018 51.0427 48.4453 50.7945L48.5625 50.6302L48.6505 50.4952L49.125 49.8319L49.289 49.6204C49.165 49.5315 49.168 49.5155 49.0153 49.5015C48.7695 49.4792 48.2238 49.2542 48 49.1272L47.0025 48.6238C46.6715 48.473 46.427 48.2175 46.078 48.094L46.171 48.3289C45.9218 48.5283 45.8848 48.5193 45.5625 48.5406L45.796 48.7983L45.7735 49.0098L45.914 49.1037L45.9843 48.9872C46.1225 49.1257 46.1705 49.11 46.172 49.3151C46.2818 49.5117 46.4008 49.6618 46.546 49.8319C46.546 50.1472 46.3988 50.1069 46.4523 50.4891L46.2188 50.677L46.2183 50.7945L46.148 50.912L46.078 51.052L45.9375 51.0527L45.937 51.1933L45.75 51.2406L45.7495 51.3811C45.6408 51.3811 45.6983 51.3952 45.586 51.3113C45.4198 51.4893 45.3328 51.6414 45.0938 51.7105L45.0933 51.8508L44.9063 51.9921L44.9058 52.1096L44.836 52.2035L44.9523 52.321V52.5557L44.8125 52.6258L44.672 52.5088L44.5318 52.5083C44.386 52.3558 44.3815 52.3195 44.297 52.1331L44.227 52.0392L44.1563 51.8984H44.0625L44.625 53.0724L44.6455 53.1576C44.7308 53.4993 45.1568 53.9173 45.047 54.2457C44.9018 54.0749 44.8163 53.9304 44.7193 53.7295L42.9853 50.2544L42.938 50.137L42.563 49.3146L42.3755 48.9158L42.3285 48.8249C42.211 48.5894 42.3645 48.9013 42.2353 48.5636L42.0005 47.9995L41.7193 47.342L41.5288 46.7872C41.4153 46.3919 41.5703 46.8859 41.3915 46.4971C41.3103 46.3203 41.3195 46.2015 41.204 46.0274L41.203 45.8396L41.1103 45.7456L41.0953 45.6742L40.684 44.4982C40.5873 44.2557 40.4545 43.8387 40.453 43.5852L40.3603 43.4912L40.3425 43.4146C40.1628 42.6997 39.8633 42.0066 39.6803 41.2867C39.6215 41.0567 39.5958 40.9067 39.6568 40.6737H39.7265L39.7978 40.8142C39.8175 40.5457 39.8278 40.2782 39.8905 40.0157L40.0773 40.0628C40.1043 40.2201 40.0953 40.3306 40.1028 40.4854C40.1223 40.8789 40.4608 41.4154 40.6405 41.7624C41.9225 44.2352 43.8485 46.3403 46.1415 47.9053C47.2213 48.6423 48.318 49.1916 49.5918 49.504C47.7008 51.9004 46.2933 54.5456 44.149 56.7707C43.6095 57.3308 43.0573 57.9415 42.4115 58.3778C42.1875 58.0715 42.05 57.8358 41.9638 57.4643Z" fill="#2A2B36"/>
<path d="M48.9608 32.1433C51.8728 34.0803 54.6745 35.3661 58.2588 34.6317L59.0665 34.4365C59.3403 34.4213 59.7213 34.2489 59.9858 34.1608L62.0483 33.4148L62.9825 33.8248L56.6248 41.3295C56.4663 40.924 56.3498 40.4861 56.1093 40.1209C54.6135 37.8502 52.716 35.9806 50.7655 34.1071C50.2823 33.643 49.7235 33.2259 49.2645 32.7447C49.1065 32.5792 49.0308 32.3567 48.9608 32.1433Z" fill="#2A2B36"/>
<path d="M143.217 31.9259C143.209 32.0173 143.215 32.2923 143.178 32.3602C143.017 32.6498 142.513 33.0005 142.266 33.253C140.669 34.8862 138.882 36.3703 137.385 38.0957C136.461 39.1615 135.664 40.303 134.992 41.5432C134.324 40.5111 129.302 34.4881 129.299 34.307C129.529 34.1001 129.746 33.8639 130.039 33.7512L133.48 34.6565C134.031 34.7825 134.608 34.7657 135.169 34.7597C138.052 34.7291 140.819 33.4291 143.217 31.9259Z" fill="url(#paint1_linear_1201_3)"/>
<path d="M43.6628 12.7909C45.0653 14.9412 46.2708 17.2326 47.7333 19.3409C50.4983 23.3271 53.7498 26.4629 57.418 29.5996L62.0483 33.4148L59.9858 34.1607C59.7213 34.2489 59.3403 34.4212 59.0665 34.4365L59.0533 34.2411C57.9973 33.9476 57.0145 32.8557 56.2133 32.1293C54.3293 30.4214 52.4818 28.6865 50.8818 26.7017C49.7943 25.3525 48.9273 23.8826 48.0253 22.4085C46.5213 19.9503 45.05 17.5499 44.1133 14.8064C43.8835 14.1334 43.5878 13.5115 43.6628 12.7909Z" fill="url(#paint2_linear_1201_3)"/>
<path d="M145.169 17.9714L148.855 11.054L148.983 11.0636L149.125 11.3676L148.614 12.5369C148.538 12.6902 148.53 12.7498 148.539 12.9159L148.381 13.1205L146.376 17.6649C144.373 23.1947 141.085 27.8542 136.78 31.8051L134.949 33.3249C134.405 33.7404 133.856 34.0615 133.48 34.6565L130.039 33.7512C132.173 32.1631 134.191 30.4124 136.145 28.6081C139.62 25.3981 142.716 22.0415 145.169 17.9714Z" fill="url(#paint3_linear_1201_3)"/>
<path d="M155.061 18.6003C156.158 21.6957 156.581 25.2939 156.848 28.5558C157.622 38.0373 157.058 47.6581 153.462 56.5675L152.462 58.8963C152.313 59.2412 152.187 59.7297 151.984 60.036L151.92 60.1014L149.564 57.8976C150.243 56.588 150.858 55.289 151.409 53.9193C151.677 53.2528 152.008 52.5629 152.102 51.8468L152.092 51.8305C152.093 51.6351 152.084 51.5124 152.173 51.3333C152.315 51.0482 152.449 50.7759 152.512 50.4601L152.579 50.1605L152.672 50.0665L152.673 49.8787C152.822 49.7279 152.819 49.5205 152.86 49.3151L152.953 49.2211L152.954 49.0333C153.118 48.7858 153.112 48.5553 153.188 48.2823C153.232 48.1238 153.257 47.857 153.329 47.7182C153.439 47.5078 153.422 47.4883 153.423 47.2485C153.573 47.0597 153.591 46.9174 153.603 46.6819L153.61 46.4971C153.75 46.3558 153.704 46.312 153.704 46.1213C153.855 45.9683 153.797 45.8591 153.798 45.6517C153.937 45.5104 153.891 45.4666 153.892 45.2759C153.992 45.1459 154.012 45.0906 154.035 44.9222L154.125 44.3837C154.169 44.2194 154.203 44.1725 154.189 43.9932L154.173 43.8669C154.343 43.6951 154.233 43.4521 154.383 43.2094C154.364 43.0308 154.348 42.9399 154.407 42.7633C154.471 42.5709 154.491 42.3996 154.524 42.1997C154.55 42.0379 154.574 41.8991 154.574 41.7343L154.571 41.6125C154.709 41.4274 154.611 41.1231 154.688 40.8846C154.747 40.7005 154.776 40.591 154.758 40.3914L154.735 40.2035C154.892 40.0452 154.829 39.5928 154.829 39.3581L154.922 39.2181L154.923 38.9356C154.931 38.7938 154.948 38.6903 154.936 38.545L154.923 38.4188C155.103 38.2367 155.016 37.5686 155.017 37.2916C155.197 37.0193 155.109 36.627 155.156 36.3054C155.22 35.8793 155.207 35.4685 155.204 35.0372C155.384 34.8551 155.298 34.187 155.298 33.91C155.454 33.7517 155.391 33.2993 155.392 33.0646C155.719 32.5726 155.335 31.5541 155.672 31.0459L155.766 31.1859C155.763 30.7696 155.706 30.2731 155.813 29.8713L155.953 29.8708C156.135 29.6442 156.141 29.6439 156.142 29.3543H156.281L156.352 29.4716L156.375 29.2133C156.256 29.063 156.3 29.1424 156.235 28.9786L156.375 28.9085C156.516 28.814 156.52 28.6753 156.521 28.524L156.517 28.3679L156.656 28.2271V27.5693C156.588 27.2803 156.569 27.0751 156.563 26.771C156.372 26.4852 156.539 26.1927 156.469 25.8785C156.432 25.713 156.421 25.4655 156.375 25.3149C156.294 25.0492 156.351 24.8046 156.281 24.5636C156.232 24.3922 156.229 24.2603 156.188 24.0939C156.108 23.7743 156.122 24.0562 156.107 23.8344C156.097 23.6865 156.101 23.5496 156.072 23.4026L155.86 22.3562L155.813 22.1213C155.729 21.8778 155.763 21.6684 155.695 21.4403C155.572 21.0214 155.663 21.4759 155.6 21.1629L155.414 20.3131C155.334 20.0974 155.322 19.8882 155.25 19.6791L155.18 19.5147C155.114 19.28 155.11 19.1084 155 18.8734L155.061 18.6003Z" fill="url(#paint4_linear_1201_3)"/>
<path d="M43.373 12.2958L43.6627 12.7908C43.5877 13.5115 43.8835 14.1334 44.1132 14.8064C45.05 17.5498 46.5212 19.9503 48.0252 22.4084C48.9272 23.8826 49.7942 25.3525 50.8817 26.7017C52.4817 28.6865 54.3292 30.4214 56.2132 32.1293C57.0145 32.8557 57.9972 33.9476 59.0532 34.2411L59.0665 34.4365L58.2588 34.6316C54.6745 35.3661 51.8727 34.0803 48.9607 32.1433L48.5095 31.7693C47.861 31.2628 47.2325 30.6922 46.6487 30.1111C46.2817 29.7456 45.5987 28.7597 45.1502 28.6051L45.0885 28.5706C44.9565 28.3601 44.8697 28.2199 44.8845 27.9646C44.8925 27.8218 44.9022 27.7515 44.8555 27.6087C44.4425 26.3522 43.974 25.1298 43.6262 23.8488C42.9825 21.4779 42.5887 19.0388 42.2165 16.6126C42.2807 16.222 42.5895 15.345 42.796 15.0293C42.963 14.7739 43.0367 14.6696 43.1165 14.368C43.1815 13.7239 43.0277 12.8467 43.373 12.2958Z" fill="white"/>
<path d="M42.2165 16.6126C42.2807 16.222 42.5895 15.345 42.796 15.0294C42.963 14.7739 43.0367 14.6696 43.1165 14.368C43.0747 16.0593 43.084 17.563 43.3595 19.2443C43.8502 22.2395 44.9922 25.2205 46.3412 27.9263C46.8577 28.9623 47.4627 30.1629 48.2282 31.0324C48.4452 31.2789 48.4805 31.4454 48.5095 31.7693C47.861 31.2628 47.2325 30.6922 46.6487 30.1111C46.2817 29.7456 45.5987 28.7597 45.1502 28.6051L45.0885 28.5706C44.9565 28.3602 44.8697 28.2199 44.8845 27.9646C44.8925 27.8219 44.9022 27.7515 44.8555 27.6087C44.4425 26.3522 43.974 25.1299 43.6262 23.8488C42.9825 21.4779 42.5887 19.0388 42.2165 16.6126Z" fill="#D3D2D2"/>
<path d="M87.547 10.6581C89.2893 9.24263 91.7388 8.22489 93.954 7.90874C97.568 7.39294 100.821 8.06843 103.768 10.2778C104.526 10.6587 105.229 11.2409 105.906 11.7494L109.654 14.6657L119.14 22.4361C119.571 22.7993 120.072 23.0797 120.492 23.4419C119.719 23.6544 118.934 23.8627 118.204 24.201C117.98 24.0468 117.842 23.7277 117.705 23.4948C117.491 22.4599 111.334 18.0356 110.06 17.0577L105.853 13.8329C104.918 13.1744 103.86 12.6345 102.953 11.9623L102.827 11.8661C101.998 11.4835 101.168 11.1054 100.283 10.8688C97.32 10.0762 93.7755 10.2833 90.901 11.3432L87.7568 12.7966L87.6415 12.8864C86.8925 13.4599 85.9985 13.9006 85.22 14.4505L79.5938 18.7692L76.688 21.1355C75.6473 21.9659 74.5638 22.8689 73.7345 23.907L73.506 24.1348C72.817 23.7342 72.1785 23.445 71.418 23.2072L81.9378 14.7778C83.7133 13.3912 85.572 11.728 87.547 10.6581Z" fill="url(#paint5_linear_1201_3)"/>
<path d="M149.125 11.3676C151.824 15.2744 153.855 19.9773 154.219 24.741C154.255 28.6284 153.911 32.397 152.753 36.1293C152.512 36.9064 152.244 37.6681 151.931 38.4191C151.779 38.7833 151.309 39.5663 151.282 39.9308L149.992 42.2561C148.213 44.9977 145.477 47.5667 142.193 48.2648C141.802 48.0258 141.478 47.6887 141.143 47.3773C142.207 47.3437 143.228 47.1594 144.201 46.7125L143.844 46.71C141.233 46.6637 138.512 44.6843 136.774 42.8715C137.441 41.315 138.458 39.912 139.433 38.5378C140.831 36.5679 142.237 34.6958 143.872 32.9128C144.477 32.2525 145.057 31.5504 145.759 30.9913C145.664 31.5729 145.273 31.9474 144.991 32.4484C144.743 32.8883 144.535 33.3865 144.356 33.8586C143.936 34.9716 143.643 36.1489 143.324 37.2944C142.955 38.6167 142.561 39.9458 142.3 41.2939L143.153 41.0041C146.081 39.8584 148.913 37.0208 150.141 34.1304C151.823 30.1689 151.478 25.1932 150.689 21.0575C150.486 19.9899 150.278 18.8143 149.865 17.8081C149.655 17.2966 149.612 16.7454 149.518 16.2035C149.322 15.0727 148.963 14.1059 148.381 13.1205L148.539 12.9159C148.53 12.7498 148.538 12.6902 148.614 12.5369L149.125 11.3676Z" fill="#B7B6B6"/>
<path d="M148.381 13.1205C148.963 14.1059 149.322 15.0727 149.518 16.2035C149.612 16.7454 149.655 17.2966 149.865 17.8081C150.278 18.8143 150.486 19.9899 150.689 21.0575C151.478 25.1932 151.823 30.1689 150.141 34.1304C148.913 37.0208 146.081 39.8584 143.153 41.0041L142.3 41.2939C142.561 39.9458 142.955 38.6167 143.324 37.2944C143.643 36.1489 143.936 34.9716 144.356 33.8587C144.535 33.3865 144.743 32.8883 144.991 32.4484C145.273 31.9474 145.664 31.5729 145.759 30.9913L147.33 28.8591L147.156 28.7923C146.774 29.1232 146.403 29.4661 145.971 29.7308L143.217 31.9259C140.819 33.4291 138.052 34.7291 135.169 34.7597C134.608 34.7657 134.031 34.7825 133.48 34.6565C133.856 34.0615 134.405 33.7404 134.949 33.3249L136.78 31.8051C141.085 27.8542 144.373 23.1947 146.376 17.6649L148.381 13.1205Z" fill="white"/>
<path d="M145.971 29.7308C146.339 28.9724 146.886 28.3296 147.257 27.5774C148.72 24.6121 149.241 21.5341 149.576 18.2701L149.672 18.2686C149.536 20.181 149.817 22.039 149.406 23.9488C149.133 25.2155 148.699 26.3688 148.114 27.5225C147.886 27.9706 147.656 28.4744 147.33 28.8591L147.156 28.7923C146.774 29.1232 146.403 29.4661 145.971 29.7308Z" fill="#B7B6B6"/>
<path d="M45.2513 58.7232C45.454 59.1914 45.218 59.9393 45.1355 60.4325C44.5038 64.2194 43.2513 67.7571 41.8498 71.3173L35.2775 85.9291C33.6422 88.046 32.0747 90.4126 30.024 92.1462C28.8372 93.1495 27.4407 93.9032 26.163 94.7854C23.6347 96.5308 21.2136 98.8676 20.0023 101.74C19.4137 103.136 19.0847 104.598 18.7181 106.061L17.5515 112.059L17.0045 115.947C16.9486 116.351 16.9402 117.001 16.7888 117.37C16.7604 117.439 16.69 117.482 16.6406 117.538L16.3103 117.519C15.6898 114.699 15.1864 112.004 15.1854 109.101C15.1841 105.575 15.8855 102.481 17.6694 99.4287C19.2061 96.7991 21.3822 94.5585 23.6735 92.5786C25.225 91.238 26.8697 90.0048 28.3637 88.5978C30.1395 86.9261 31.6712 85.0426 32.978 82.9836C34.872 79.9995 36.2675 76.7975 37.396 73.4537L39.5073 66.2246L40.007 64.0511C40.0543 63.8214 40.0895 63.3683 40.2283 63.1802C40.417 62.9244 40.7858 62.6699 41.028 62.4615L43.0843 60.7912C43.845 60.143 44.5468 59.4313 45.2513 58.7232Z" fill="#66D4FF"/>
<path d="M146.182 58.4489L151.8 63.0898C152.149 63.4222 152.196 63.9399 152.294 64.3911L152.905 67.1422C153.858 71.1771 154.985 75.1278 156.77 78.8831C158.188 81.8649 159.793 84.6323 162.095 87.0288C163.979 88.9909 166.178 90.6015 168.292 92.2998C173.838 96.754 176.754 101.226 176.737 108.569C176.73 111.779 176.19 115.099 175.401 118.203C175.328 118.115 175.239 118.037 175.183 117.937C175.138 117.857 175.126 117.51 175.114 117.417L174.917 115.994L174.008 110.137C173.735 108.443 173.477 106.597 172.821 105.005C171.96 100.624 168.883 96.7613 165.314 94.2371C164.043 93.3384 162.57 92.6335 161.441 91.5596C160.35 90.5216 159.45 89.32 158.535 88.1287L154.848 82.9491C154.646 82.1032 154.104 81.2843 153.722 80.503L151.791 76.3619C150.515 73.4435 149.53 70.3765 148.586 67.3368L146.422 59.9604C146.35 59.6926 146.067 58.9905 146.086 58.7553C146.094 58.6486 146.15 58.5511 146.182 58.4489Z" fill="#66D4FF"/>
<path d="M155 18.8734C154.889 18.8422 154.685 18.8082 154.594 18.7388L154.477 18.6223L154.383 18.6923C154.274 18.6199 154.341 18.646 154.172 18.6448C154.172 18.7404 154.201 18.834 154.219 18.9276L154.386 19.5646L154.453 19.9139L154.5 20.1487C154.584 20.3934 154.531 20.5827 154.594 20.8063C154.66 21.0409 154.68 21.1702 154.688 21.4168C154.872 21.6943 154.781 22.2938 154.781 22.638C154.959 22.905 154.875 23.4367 154.875 23.7652C155.031 24.0001 155.041 25.3723 154.969 25.6907C154.886 26.0602 154.865 26.3607 154.852 26.7475L154.642 26.7242C154.636 26.5398 154.607 26.3322 154.679 26.1604L154.721 26.0664C154.841 25.6491 154.784 25.039 154.783 24.602C154.777 21.8864 154.35 19.3032 153.339 16.7759C152.541 14.7814 151.52 13.0214 150.365 11.2207C149.952 10.5783 149.369 9.50296 148.646 9.19115C147.764 10.2202 147.197 11.3287 146.52 12.4932L143.263 18.0682C141.819 20.3179 140.113 22.5015 138.235 24.4055C136.259 26.4076 134.042 28.1683 131.848 29.9179L127.858 33.1392C125.111 30.8077 122.79 27.7159 120.452 24.9779C120.908 24.7659 121.627 24.713 122.14 24.596C123.788 24.2204 125.413 23.8311 126.937 23.0776C128.484 22.3125 129.9 21.3346 131.311 20.3471L137.515 15.7283L149.859 6.15469C150.461 7.87065 151.401 9.43317 152.182 11.0689C153.326 13.4648 154.283 16.0609 155.061 18.6003L155 18.8734Z" fill="#2A2B36"/>
<path d="M42.4115 58.3778L40.199 60.249L38.8258 56.7935C36.833 51.6845 35.8198 46.3005 35.3555 40.8508C34.6588 32.6731 35.2055 24.5909 37.6243 16.7105C38.739 13.0787 40.492 9.63573 42.0105 6.16412L52.1678 14.5548C55.2985 16.9703 58.5443 19.4083 61.9963 21.3474C62.342 23.2157 62.114 25.2897 62.1418 27.1936C62.1578 28.3041 62.3485 29.435 62.2835 30.5447C62.2723 30.733 62.2448 30.8265 62.139 30.9815C56.977 27.1283 51.811 22.8321 48.282 17.361L44.7333 11.5548C44.1588 10.6255 43.6168 9.63455 42.9083 8.8012C40.3715 13.0638 38.4038 17.7497 37.485 22.638C37.241 23.9369 37.0023 25.2323 37.0985 26.5596L37.044 26.6345C36.964 26.7488 36.992 26.7024 36.937 26.8414L36.7028 26.9825C36.7023 27.1786 36.7525 27.2372 36.6085 27.3815C36.6085 27.6242 36.6523 27.7853 36.5148 27.9922C36.5148 28.3364 36.6053 28.935 36.422 29.2133L36.5148 29.3073C36.5148 29.4886 36.5558 29.5009 36.421 29.6359C36.421 29.8711 36.485 30.3232 36.3273 30.4816C36.291 31.5895 36.2343 32.7107 36.3043 33.8161C36.3463 34.4826 36.2533 35.1722 36.375 35.8355L36.4318 36.4154C36.4503 36.6491 36.4348 36.4833 36.4845 36.7353C36.517 36.9004 36.5145 36.9537 36.493 37.1083C36.4628 37.3287 36.4493 37.484 36.5855 37.6673L36.584 37.7848C36.584 37.9847 36.5603 38.2588 36.6793 38.4188C36.6733 38.7031 36.659 38.923 36.7495 39.1938C36.9145 39.687 36.7273 40.8826 37.0773 41.2368L37.0513 41.3866C37.0275 41.5569 37.0345 41.6396 37.078 41.8004L37.171 41.8944C37.1715 42.085 37.1253 42.1288 37.2648 42.2701L37.246 42.3788C37.2215 42.6794 37.344 42.9459 37.4058 43.233L37.4365 43.5205C37.4505 43.6743 37.4985 43.7713 37.546 43.9138C37.6233 44.1465 37.58 44.0002 37.5938 44.1959C37.608 44.398 37.643 44.4456 37.7335 44.6184L37.7808 44.8068L37.8085 44.927C37.8373 45.0733 37.8305 45.0215 37.8043 45.182C37.919 45.3666 37.9273 45.3183 37.898 45.5578L38.0148 45.6988L37.996 45.7925C37.9718 46.0395 38.108 46.3208 38.2023 46.5439L38.1793 46.685L38.296 46.826L38.273 46.9668C38.2758 47.3475 38.5095 47.7986 38.578 48.1879L38.671 48.2818C38.7058 48.4081 38.707 48.4805 38.7188 48.6105C38.7383 48.8254 38.8178 49.0118 38.9523 49.1741L38.9293 49.3151L38.9818 49.4296C39.0523 49.5999 39.075 49.7477 39.115 49.924C39.1783 50.2043 39.0833 49.7745 39.2335 50.1605L39.2813 50.4891C39.3103 50.5986 39.3765 50.6114 39.421 50.7241C39.6203 51.2286 39.7305 51.822 39.9408 52.3488C40.001 52.4993 39.976 52.438 40.0178 52.6161C40.0548 52.7746 40.1025 52.8395 40.171 52.9785C40.2585 53.1566 40.1868 53.0419 40.2418 53.2603L40.3425 53.4847C40.4103 53.6293 40.465 53.7618 40.507 53.9153C40.5925 54.2295 40.4848 53.8883 40.6398 54.1996L40.6605 54.2878C40.6935 54.4201 40.755 54.5088 40.8273 54.6222L40.8043 54.7632L40.8568 54.8424C40.943 54.9814 40.9955 55.1164 41.0358 55.274C41.0743 55.4258 41.1433 55.5585 41.203 55.7026L41.245 55.8118C41.3908 56.1803 41.5613 56.5866 41.7648 56.9237C41.8683 57.0956 41.928 57.2609 41.9728 57.455L41.9638 57.4643C42.05 57.8358 42.1875 58.0715 42.4115 58.3778Z" fill="#393B46"/>
<path d="M41.193 14.9506C41.373 14.8284 41.4628 14.7442 41.5505 14.5467L41.6258 14.3704C41.7 14.4468 41.6845 14.408 41.672 14.5597L41.6485 14.7141C42.0473 14.2501 42.52 13.3572 43.0048 13.0706L43.078 13.0293C43.088 12.7109 43.0908 12.3928 43.1568 12.0799L43.1985 11.8923L43.373 12.2958C43.0278 12.8467 43.1815 13.7239 43.1165 14.368C43.0368 14.6696 42.963 14.7739 42.796 15.0294C42.5895 15.345 42.2808 16.222 42.2165 16.6126C42.5888 19.0388 42.9825 21.4779 43.6263 23.8488C43.974 25.1298 44.4425 26.3522 44.8555 27.6087C44.9023 27.7515 44.8925 27.8218 44.8845 27.9646C44.8698 28.2199 44.9565 28.3601 45.0885 28.5706L45.1503 28.6051L45.5168 29.1735C45.814 29.4683 46.0288 29.8789 46.2658 30.224C46.5945 30.7032 46.9608 31.1601 47.3265 31.6115L51.0075 36.0494C52.5638 38.0626 54.0343 40.337 55.283 42.5556L54.6533 43.2347C52.653 45.1059 50.0755 46.3671 47.3003 46.2629L47.2073 46.2584C48.2665 46.8112 49.636 46.9823 50.8098 47.0344C50.4838 47.5667 50.102 47.987 49.6705 48.4349L48.328 47.8903C43.7948 45.6081 40.6538 41.8362 39.084 37.0208C36.6715 29.6206 37.725 21.8224 41.193 14.9506Z" fill="#B7B6B6"/>
<path d="M42.2165 16.6126C42.5888 19.0388 42.9825 21.4779 43.6263 23.8488C43.974 25.1298 44.4425 26.3522 44.8555 27.6087C44.9023 27.7515 44.8925 27.8219 44.8845 27.9646C44.8698 28.2199 44.9565 28.3602 45.0885 28.5706L45.1503 28.6051L45.5168 29.1735C45.4853 29.2815 45.4295 29.3847 45.422 29.4969C45.3983 29.8443 46.191 30.8475 46.3848 31.1994C46.636 31.6558 46.8278 32.1606 47.0365 32.6385L48.7558 36.6501L50.4618 41.6837C47.017 40.436 43.8168 38.0776 42.179 34.7188C40.0778 30.4092 39.7758 24.6763 40.9728 20.0555C41.2805 18.8669 41.8205 17.768 42.2165 16.6126Z" fill="white"/>
<path d="M87.7568 12.7967L90.901 11.3432C93.7755 10.2834 97.32 10.0762 100.283 10.8688C101.168 11.1055 101.998 11.4835 102.827 11.8661L102.953 11.9623C103.86 12.6345 104.918 13.1744 105.853 13.833L110.06 17.0577C111.334 18.0356 117.491 22.46 117.705 23.4948C117.842 23.7277 117.98 24.0468 118.204 24.201L117.824 24.4697L117.904 24.5168C118.655 24.9792 119.257 25.7 119.84 26.3535L122.716 29.685L126.721 34.2675C128.861 36.6621 130.963 38.9651 132.821 41.5948L137.371 47.5689L142.658 54.5293L144.877 57.0733C145.123 57.3323 146.117 58.2042 146.182 58.449C146.15 58.5512 146.094 58.6486 146.086 58.7553C146.067 58.9905 146.35 59.6926 146.422 59.9604L148.586 67.3368C149.53 70.3765 150.515 73.4435 151.791 76.3619L153.722 80.503C154.104 81.2843 154.646 82.1032 154.848 82.9491L158.535 88.1287C159.45 89.32 160.35 90.5216 161.441 91.5596C162.57 92.6335 164.043 93.3384 165.314 94.2371C168.883 96.7613 171.96 100.624 172.821 105.005C173.477 106.597 173.735 108.443 174.008 110.137L174.917 115.994L175.114 117.417C175.126 117.51 175.138 117.857 175.183 117.937C175.239 118.037 175.328 118.115 175.401 118.203L175.392 118.282C175.166 120.161 174.452 123.01 172.88 124.235L171.401 125.148L175.721 125.41L182.343 124.514C181.691 125.938 180.571 127.397 179.511 128.534C177.657 130.964 175.135 132.8 172.612 134.471C171.756 135.038 170.885 135.668 169.98 136.15C168.626 136.92 167.03 137.438 165.469 137.522C164.899 137.553 164.121 137.476 163.594 137.663L170.156 138.193L172.417 138.287C172.817 138.298 173.319 138.252 173.702 138.35C171.41 140.471 169.263 142.736 166.794 144.661C163.715 147.061 160.456 149.031 157.032 150.886C154.656 152.173 152.23 153.422 149.744 154.483L132.98 161.389L126.656 164.583L116.556 169.803L107.365 175.037C106.631 175.714 105.459 176.269 104.598 176.806C101.885 178.496 99.117 180.32 96.2663 181.764C95.1963 181.351 94.136 180.699 93.124 180.157L87.6618 177.263L83.267 174.985L76.0753 171.425L61.4275 163.397L38.7188 152.009L31.4495 148.329C30.2823 147.673 29.1485 146.914 28.0313 146.177C27.1945 145.625 26.2775 145.088 25.5243 144.424C22.9047 142.846 20.9975 140.452 18.6803 138.521L18.5872 138.445L29.203 137.434C26.5345 136.964 23.9802 136.074 21.4881 135.021C20.2723 134.548 19.1023 133.847 17.9994 133.159C15.8809 131.838 13.5914 130.202 12.0975 128.159C12.8391 128.341 13.5615 128.744 14.2795 129.02L17.3198 130.069C17.4466 129.838 17.3886 129.575 17.3636 129.323C17.2381 128.057 16.6135 126.948 16.6232 125.644L16.627 125.479L16.3428 125.313C17.8614 125.319 19.2791 125.202 20.7859 125.014L19.91 124.556C17.7556 123.209 16.8295 119.826 16.3103 117.519L16.6406 117.538C16.69 117.482 16.7605 117.439 16.7889 117.37C16.9402 117.001 16.9486 116.351 17.0045 115.947L17.5516 112.059L18.7181 106.061C19.0847 104.598 19.4137 103.136 20.0023 101.741C21.2137 98.8677 23.6347 96.5308 26.163 94.7854C27.4408 93.9032 28.8373 93.1495 30.024 92.1463C32.0748 90.4126 33.6423 88.046 35.2775 85.9291L41.8498 71.3173C43.2513 67.7571 44.5038 64.2195 45.1355 60.4326C45.218 59.9394 45.454 59.1914 45.2513 58.7232C45.3263 58.5331 45.7008 58.2185 45.8475 58.0587L47.4498 56.3318C47.8625 55.7066 48.4013 55.1332 48.8775 54.5521L50.6818 52.203L58.6675 41.7596L63.315 36.1862L71.9448 26.6892C72.4355 26.111 73.5245 25.0855 73.7185 24.3758L73.506 24.1349L73.7345 23.907C74.5638 22.8689 75.6473 21.9659 76.688 21.1355L79.5938 18.7692L85.22 14.4505C85.9985 13.9006 86.8925 13.4599 87.6415 12.8864L87.7568 12.7967Z" fill="#005E94"/>
<path d="M117.705 23.4948C117.842 23.7276 117.98 24.0468 118.204 24.201L117.824 24.4697L117.904 24.5168C118.655 24.9791 119.257 25.6999 119.84 26.3535L122.716 29.685L126.721 34.2674C128.861 36.6621 130.963 38.9651 132.821 41.5947C132.587 41.5602 132.369 41.5487 132.185 41.3868C131.578 40.8546 131.096 40.2293 130.557 39.6352L127.767 36.6413C127.172 36.0166 126.587 35.3315 125.964 34.7378C125.328 34.1314 124.634 33.526 124.105 32.8206C123.685 32.2605 123.146 31.5221 122.623 31.0737L122.532 30.9975C122.44 30.7182 122.14 30.5126 121.945 30.2932L121.102 29.3072C120.976 29.1562 120.752 29.0034 120.657 28.8371C120.495 28.553 120.746 28.8293 120.506 28.5893L119.218 27.1838L119.063 27.0293C118.981 26.9326 118.965 26.8737 118.857 26.7961L118.782 26.7475C118.63 26.3645 117.949 25.8174 117.657 25.4555L117.32 25.0245L117.235 24.8924C117.108 24.6984 117.142 24.6479 117.142 24.4227C117.332 24.1362 117.471 24.3947 117.727 24.1883L117.727 23.8591C117.693 23.6845 117.68 23.6828 117.705 23.4948Z" fill="url(#paint6_linear_1201_3)"/>
<path d="M22.8343 105.945C23.2129 104.243 24.2105 102.572 25.3537 101.272C26.8962 99.5179 28.8305 98.2397 30.8347 97.0767C32.2967 96.2283 33.7852 95.3891 35.3137 94.6672L38.3437 93.3614C39.2545 92.9591 40.4517 92.1661 41.43 92.1087C39.8025 93.5971 37.534 94.5996 35.6092 95.6474C32.8867 97.13 30.2237 98.6334 27.7622 100.532C26.4452 101.548 25.3275 102.751 24.3114 104.064C23.852 104.657 23.5023 105.614 22.8343 105.945Z" fill="url(#paint7_linear_1201_3)"/>
<path d="M151.117 92.5308L156.636 95.7077C161.61 98.4175 167.572 101.278 169.179 107.229C169.931 110.013 169.387 113.276 168.015 115.796L167.989 115.838C167.937 115.15 168.091 114.483 168.149 113.8C168.311 111.904 168.281 109.941 167.732 108.105C165.929 102.083 159.68 99.3606 154.841 96.1909C153.69 95.4367 152.086 94.5204 151.24 93.417C150.996 93.0976 151.074 92.9062 151.117 92.5308Z" fill="#002149"/>
<path d="M143.37 62.8265L143.817 63.0902C144.481 63.4489 145.017 64.0569 145.545 64.5852C146.642 65.6848 147.82 66.9007 148.546 68.2896C148.728 68.6381 148.857 69.1345 149.015 69.5108L149.063 69.6526L149.156 69.6047L149.013 69.2966C148.931 69.132 148.923 69.0371 148.922 68.8533L148.852 68.7593C148.74 68.59 148.735 68.4895 148.735 68.2896L148.642 68.1957L148.586 67.3368C149.53 70.3765 150.515 73.4435 151.791 76.3619L153.722 80.503C154.104 81.2843 154.646 82.1031 154.848 82.949C154.379 82.6515 154.005 82.0949 153.633 81.6751C151.547 79.324 149.836 76.8341 148.121 74.2075C147.121 72.6767 146.08 71.1294 145.204 69.5236L145.391 69.3673C145.427 68.7971 145.165 68.1241 145.011 67.5707C144.557 65.9411 144.047 64.3775 143.37 62.8265Z" fill="#0090F9"/>
<path d="M45.2513 58.7232C45.3263 58.5331 45.7008 58.2185 45.8475 58.0587L47.4498 56.3318L47.5875 56.4332C47.3063 56.7438 47.0255 56.9695 46.8048 57.323L46.5938 57.5344C46.3413 57.7806 45.7048 58.2901 45.6558 58.614C45.6353 58.75 45.558 58.8845 45.508 59.0105C45.4443 59.1716 45.4743 59.2928 45.4918 59.4599L45.5048 59.5979L45.5148 59.6946L45.4463 59.7961C45.3453 59.9659 45.3963 60.0215 45.3515 60.1878L45.2813 60.3524C45.3103 60.6477 45.3275 60.6981 45.2335 60.9628L45.2105 61.1507L45.175 61.2652C45.082 61.5743 45.104 61.8681 44.9865 62.184C44.9253 62.3488 44.9095 62.4953 44.896 62.6697C44.88 62.8798 44.8995 62.7696 44.8125 62.9825C44.7315 63.1807 44.705 63.2876 44.7418 63.499L44.6835 63.6078C44.5645 63.847 44.6665 63.6163 44.6245 63.8743L44.5313 64.1566L44.5773 64.2976L44.4835 64.3913C44.398 64.5135 44.4005 64.629 44.3898 64.767L44.2735 65.2372L44.3695 65.3369C44.491 65.4724 44.5505 65.5906 44.6245 65.7539L44.7535 65.792C44.9225 65.8486 44.9538 65.9032 45.0938 65.9892C45.258 66.0899 45.4088 66.1465 45.5625 66.271C45.7618 66.271 45.7603 66.2464 45.9375 66.3649L46.056 66.3514C46.2363 66.3341 46.1665 66.3363 46.3603 66.3641L46.453 66.271L46.547 66.411L46.7353 66.2231L46.7338 66.1144C46.7535 65.8699 46.8715 65.6467 46.9688 65.4248L46.9228 65.2369L47.0165 65.1428C47.1045 65.0178 47.1068 64.8617 47.1333 64.7202C47.1668 64.5416 47.2415 64.4051 47.3208 64.2505L47.3915 64.0155L47.7665 63.0762C47.848 62.8312 47.99 62.6075 48.0943 62.3723L48.4688 61.7611L48.4693 61.6209L48.531 61.5442C48.6305 61.4115 48.5958 61.4588 48.6688 61.3123C48.9068 60.8348 49.2428 60.3952 49.5005 59.9301C49.557 59.8279 49.6245 59.7665 49.688 59.6483C49.9633 59.1358 50.5668 58.3342 50.954 57.9101C51.342 57.485 51.5398 57.1286 52.0223 56.7606L49.7918 59.878C47.5508 63.2606 46.4213 66.9926 45.9803 71.0137L46.0275 71.1317L46.185 71.1765C45.5708 72.4763 44.798 73.7075 44.0595 74.9404C42.9578 76.7787 41.864 78.591 40.5408 80.2836C39.421 81.7154 38.165 82.9964 36.892 84.2879C36.3603 84.8275 35.905 85.496 35.2775 85.9291L41.8498 71.3173C43.2513 67.7571 44.5038 64.2194 45.1355 60.4325C45.218 59.9393 45.454 59.1914 45.2513 58.7232Z" fill="#0090F9"/>
<path d="M88.9738 51.7686C94.1346 51.0665 99.3028 50.8087 104.461 51.7062L104.538 51.7476C104.874 51.8964 105.334 51.9262 105.696 51.9926L107.813 52.4317C109.388 52.7826 111.015 53.3247 112.497 53.9649C115.546 55.2825 118.518 57.0314 121.289 58.8587C127.692 63.0797 133.801 68.5356 137.953 75.0471C139.095 76.8381 140.029 78.9382 140.886 80.8827C141.107 81.3825 141.221 81.6437 141.028 82.181C139.666 80.0952 138.714 77.7521 137.291 75.6843C134.672 71.8779 131.443 68.6751 127.992 65.6417C125.302 63.2783 122.591 61.0966 119.5 59.2655C118.228 58.512 116.935 57.7834 115.599 57.1486C114.848 56.7919 114.004 56.5179 113.285 56.1106L113.168 56.0427L113.38 55.9373C113.179 55.92 113.042 55.8899 112.864 55.7965L112.688 55.7026L111.61 55.3268L111.683 55.0976C111.884 54.7815 112.604 55.3506 112.987 55.28L108.427 53.6112C103.992 52.1942 99.4696 51.7917 94.8286 51.9405L92.0156 52.1283C91.7263 52.1616 91.3518 52.102 91.0781 52.1792C90.7288 52.2776 90.4596 52.2749 90.0938 52.2731C89.8508 52.4292 89.5371 52.346 89.2496 52.4066C88.9843 52.4627 88.8766 52.455 88.6151 52.3973L88.6461 52.3054L89.1096 52.2749C89.2618 52.1221 89.4618 52.1809 89.6721 52.1809L89.7656 52.087H90.3751C90.6218 51.9222 90.8708 52.0301 91.1551 51.972C91.6636 51.8681 92.1558 51.9309 92.6721 51.8991C92.8278 51.7431 93.2396 51.8052 93.4688 51.8052C93.8533 51.5484 96.3308 51.7568 96.9846 51.7113C97.3433 51.9485 98.9426 51.8287 99.4453 51.8277L99.4173 51.6697C99.2443 51.6231 99.2776 51.6509 99.1611 51.5687L98.9061 51.3819C98.6488 51.2143 98.0566 51.2992 97.7516 51.3015C96.8541 51.3082 95.6688 51.1502 94.8113 51.3573C94.0703 51.5364 93.2203 51.3521 92.4381 51.5199C92.0893 51.5945 91.7938 51.5362 91.4651 51.6038C90.9946 51.7005 90.4641 51.7027 90.0161 51.8162C89.8113 51.8681 89.9033 51.86 89.6886 51.8731L89.5608 51.8768L88.9738 51.7686Z" fill="url(#paint8_linear_1201_3)"/>
<path d="M27.041 121.893C26.6803 121.609 26.3958 121.153 26.1205 120.787C25.1723 119.529 24.2197 118.144 23.7363 116.626L23.6958 116.495L23.5029 115.84C23.4233 115.455 23.3699 115.288 23.5788 114.958C24.4304 116.548 25.333 118.054 26.408 119.508L27.5793 121.001C27.6763 121.12 27.9243 121.356 27.973 121.494C33.465 127.34 40.0348 132.058 46.6141 136.583C58.3158 144.631 70.6641 151.975 83.6871 157.663C84.9878 158.074 86.3006 158.591 87.6506 158.812L88.9196 173.503C90.9151 174.957 93.1756 176.383 95.4211 177.416L95.2476 177.523C95.1193 177.479 94.9926 177.44 94.8751 177.369L94.7813 177.299C94.5748 177.187 94.3788 177.121 94.1881 176.972L94.1016 176.9L93.8906 176.923C93.7913 176.775 93.8353 176.798 93.7046 176.726L93.2813 176.501L92.9298 176.29L92.4741 176.027L91.9923 175.726L91.4063 175.374C91.2718 175.271 91.2131 175.194 91.0461 175.143L90.9376 175.115L90.8438 175.045C90.5751 174.923 90.7718 175.084 90.5758 174.91C90.4936 174.837 90.3848 174.714 90.2813 174.669C90.0266 174.56 90.1983 174.698 90.0118 174.533C89.9281 174.458 89.8443 174.368 89.7423 174.317C89.5918 174.242 89.5578 174.172 89.4376 174.106L89.2971 174.059C89.1446 173.974 89.0683 173.873 88.8751 173.8L88.1246 174.058L87.9611 174.105L87.9141 174.998H87.8443L87.7978 174.857C87.6901 174.677 87.7041 174.71 87.7041 174.481L87.6103 174.388C87.6318 174.247 87.6383 174.154 87.6088 174.013L87.5741 173.87C87.3278 172.729 86.7726 171.696 86.5793 170.526C86.3308 169.019 86.3606 167.443 86.2351 165.921C86.1086 164.39 85.8063 162.814 85.4713 161.313C85.3801 160.905 85.2911 160.389 85.0851 160.025C84.7298 159.399 83.9236 158.982 83.3361 158.608L74.6746 154.469L55.5693 143.906L40.5795 133.886C35.7538 130.416 30.6135 126.729 27.041 121.893Z" fill="url(#paint9_linear_1201_3)"/>
<path d="M145.204 69.5236C143.97 67.6146 142.551 65.8627 141.098 64.1188C137.991 60.3887 134.509 56.7178 130.354 54.1518C128.132 52.7793 125.739 51.6862 123.406 50.5179L113.088 45.0202L109.434 42.8344L107.626 41.8575C107.269 41.6729 106.83 41.5178 106.532 41.2496L112.177 42.642C116.193 43.6069 120.052 44.9558 123.844 46.5895C126.743 47.8387 129.634 49.2727 132.236 51.0723C136.61 54.0974 140.591 58.2874 143.37 62.8265C144.047 64.3775 144.557 65.9411 145.011 67.5707C145.165 68.1241 145.427 68.7971 145.391 69.3673L145.204 69.5236Z" fill="#66D4FF"/>
<path d="M52.0223 56.7606C53.5605 54.8887 55.0928 53.2132 57.0723 51.7924C60.1118 49.6107 63.7095 48.134 67.1828 46.8079L76.5113 43.5706L86.3661 40.7025C85.1413 41.5053 83.8073 42.105 82.5503 42.8515L77.111 46.1396L71.3965 49.126C67.11 51.2419 62.4868 53.0121 58.6658 55.9335C54.5433 59.0857 51.3848 63.4657 48.492 67.7211C47.7168 68.8613 46.883 69.9872 46.185 71.1765L46.0275 71.1317L45.9803 71.0137C46.4213 66.9926 47.5508 63.2606 49.7918 59.878L52.0223 56.7606Z" fill="#66D4FF"/>
<path d="M18.7181 106.061C18.7994 106.793 18.7231 107.503 18.7787 108.227C18.8634 109.33 19.1566 110.487 19.4487 111.553C19.7135 112.519 20.0633 113.55 20.4951 114.456C21.5469 116.662 22.9536 118.633 24.2943 120.665C25.805 122.955 27.3395 125.521 29.2435 127.5C30.2865 128.584 31.5363 129.533 32.7058 130.476L36.8395 133.843L43.9208 139.783C45.48 141.029 47.143 142.136 48.7835 143.269L56.05 148.076L63.264 152.17L74.4763 158.383L80.732 161.491C81.9383 162.068 83.2423 162.584 84.356 163.33C85.1735 163.877 85.52 164.667 85.7083 165.605C86.0728 167.418 85.9118 169.133 85.9118 170.959L86.0413 173.653L85.2605 173.314C85.0533 173.233 84.8588 173.117 84.6568 173.025L84.2818 172.837L84.1173 172.743L82.4298 171.898C81.9133 171.656 81.4388 171.363 80.9068 171.146C79.3423 170.51 77.8885 169.519 76.313 168.892C75.956 168.75 75.6375 168.492 75.2818 168.328C75.047 168.22 74.8673 168.057 74.6255 167.953L71.9533 166.381C71.796 166.301 71.6698 166.208 71.526 166.109C71.3705 166.002 71.5003 166.092 71.2735 165.98L67.9453 164.055L67.7813 163.96C67.3335 163.698 66.8523 163.353 66.3755 163.162L63.1268 161.312C62.5338 160.953 61.8473 160.521 61.2193 160.25L60.563 159.874C60.424 159.798 60.336 159.745 60.188 159.686L59.3443 159.217C59.2075 159.142 59.1115 159.091 58.9693 159.029C57.9465 158.582 57.0015 157.875 55.9693 157.432L55.8048 157.338L55.7038 157.294L55.2193 157.056L54.8438 156.821L54.3985 156.587L53.7688 156.284L53.063 155.929L52.4168 155.6C52.2498 155.526 52.1088 155.435 51.938 155.366C51.3343 155.119 50.7623 154.768 50.1568 154.52L49.4475 154.162C49.2903 154.083 49.356 154.109 49.216 154.074C49.081 154.04 49.0115 153.965 48.8905 153.909L48.7505 153.863C48.5958 153.791 48.4695 153.696 48.3093 153.631C47.771 153.414 47.2265 153.073 46.688 152.829L46.453 152.688L46.336 152.641C45.9433 152.458 45.5958 152.231 45.188 152.078C44.9438 151.986 44.7345 151.834 44.482 151.749C44.333 151.699 44.245 151.623 44.1095 151.561L43.9693 151.514L43.4063 151.256L43.0448 151.093L42.5318 150.853C41.9995 150.632 41.5048 150.328 40.9693 150.105L40.313 149.823L39.188 149.26L38.1568 148.79C38.0205 148.728 37.927 148.657 37.7818 148.602L36.7735 148.133L36.1173 147.851L35.247 147.465C35.0023 147.372 34.8045 147.232 34.547 147.146C34.2748 147.055 34.0473 146.898 33.797 146.77L33.5155 146.676L32.8625 146.368C32.6873 146.28 32.744 146.309 32.5458 146.252C32.272 146.174 32.5003 146.259 32.25 146.09L31.4563 145.69C31.2885 145.606 31.43 145.676 31.2193 145.596C30.8008 145.44 30.416 145.198 30.0005 145.033L29.819 144.939C29.6715 144.862 29.5578 144.819 29.3905 144.798L29.297 144.704L29.1798 144.657C28.9818 144.576 28.8133 144.456 28.6173 144.375L27.563 143.906L25.8285 142.993C25.5188 142.837 25.2565 142.643 24.938 142.497C24.777 142.423 24.6478 142.327 24.4807 142.259C24.3499 142.206 24.3354 142.13 24.2344 142.074L24.0942 142.027L22.6406 141.134L22.5235 141.088L22.2407 140.944C22.0758 140.861 21.9813 140.852 21.7969 140.852L21.7031 140.759L21.5147 140.76C21.6274 141.151 22.4353 141.8 22.7344 142.121C22.9677 142.181 23.0081 142.262 23.1768 142.43C23.2734 142.526 23.231 142.48 23.3608 142.559C23.581 142.692 23.7245 142.907 23.9531 143.061L24.1875 143.249L24.5625 143.53C24.8042 143.707 25.0578 143.905 25.3148 144.056C25.4868 144.157 25.5078 144.258 25.6405 144.376L25.7233 144.412L25.5243 144.424C22.9047 142.846 20.9975 140.452 18.6803 138.521L18.5872 138.445L29.203 137.434C26.5345 136.964 23.9802 136.074 21.4881 135.021C20.2723 134.548 19.1023 133.847 17.9994 133.159C15.8809 131.838 13.5914 130.202 12.0975 128.159C12.8391 128.341 13.5615 128.744 14.2795 129.02L17.3198 130.069C17.4466 129.838 17.3886 129.575 17.3636 129.323C17.2381 128.057 16.6134 126.948 16.6231 125.644L16.627 125.479L16.3428 125.313C17.8614 125.319 19.2791 125.202 20.7859 125.014L19.91 124.556C17.7556 123.209 16.8295 119.826 16.3103 117.519L16.6406 117.538C16.69 117.482 16.7605 117.439 16.7889 117.37C16.9402 117.001 16.9486 116.351 17.0045 115.947L17.5515 112.059L18.7181 106.061Z" fill="#0090F9"/>
<path d="M172.821 105.005C173.477 106.596 173.735 108.443 174.008 110.137L174.917 115.994L175.114 117.417C175.126 117.51 175.138 117.857 175.183 117.937C175.239 118.037 175.328 118.115 175.401 118.203L175.392 118.282C175.166 120.161 174.452 123.01 172.88 124.235L171.401 125.148L175.721 125.409L182.343 124.514C181.691 125.938 180.571 127.397 179.511 128.534C177.657 130.964 175.135 132.8 172.612 134.471C171.756 135.038 170.885 135.668 169.98 136.15C168.626 136.919 167.03 137.438 165.469 137.522C164.899 137.553 164.121 137.476 163.594 137.663L170.156 138.193L172.417 138.287C172.817 138.298 173.319 138.252 173.702 138.35C171.41 140.471 169.263 142.736 166.794 144.661C163.715 147.061 160.456 149.031 157.032 150.886C154.656 152.173 152.23 153.422 149.744 154.483L132.98 161.389L126.656 164.583L116.556 169.803L107.365 175.037L107.283 174.947C107.607 174.653 108.003 174.47 108.375 174.247L108.727 174.035L109.173 173.778L109.313 173.683L109.594 173.495L109.828 173.307C109.994 173.23 110.024 173.292 110.201 173.159C110.386 173.02 110.289 173.07 110.491 172.986C110.645 172.921 110.752 172.805 110.908 172.766C111.026 172.736 110.977 172.762 111.075 172.692C111.201 172.602 111.33 172.532 111.469 172.462L111.75 172.321C111.908 172.219 112.003 172.118 112.181 172.044C112.363 171.967 112.276 172.023 112.453 171.898C112.569 171.816 112.648 171.746 112.781 171.687L112.969 171.617C113.31 171.39 112.934 171.586 113.23 171.437L113.344 171.382C113.444 171.321 113.526 171.295 113.625 171.241L113.977 171.029L115.313 170.301L115.664 170.09L115.969 169.926L116.156 169.785C116.289 169.721 116.335 169.745 116.48 169.648C116.697 169.503 116.992 169.439 117.151 169.241L117.235 169.128L117.375 169.174L117.563 169.033C117.694 168.969 117.742 168.993 117.886 168.897C118.061 168.78 117.986 168.817 118.159 168.738L119.156 168.235C119.289 168.148 119.306 168.095 119.473 168.062C119.646 168.027 119.656 167.95 119.766 167.813L119.906 167.859L120.188 167.671L120.282 167.578C120.491 167.547 120.406 167.578 120.592 167.477L121.172 167.202C121.308 167.128 121.396 167.038 121.546 166.976L122.813 166.356C122.928 166.281 122.966 166.218 123.106 166.183C123.227 166.153 123.24 166.116 123.329 166.027L123.563 165.981C123.969 165.792 124.375 165.527 124.781 165.323C125.144 165.141 125.571 164.984 125.906 164.759L126.024 164.666C126.291 164.665 126.638 164.383 126.891 164.266L128.438 163.444L128.555 163.351C128.727 163.322 128.854 163.261 129 163.163L129.117 163.069C129.306 163.037 129.222 163.066 129.403 162.969L130.125 162.599C130.234 162.528 130.272 162.466 130.402 162.433C130.814 162.33 131.242 162.039 131.625 161.847C132.005 161.657 132.43 161.491 132.797 161.284C133.02 161.158 133.222 161.114 133.443 160.995L133.875 160.767C134.041 160.705 134.199 160.586 134.356 160.547L134.438 160.532L134.532 160.439L134.672 160.438C134.803 160.354 134.946 160.256 135.094 160.203L135.281 160.157C135.404 160.093 135.439 160.022 135.583 159.979C135.717 159.939 135.811 159.875 135.938 159.828C136.089 159.771 136.197 159.76 136.346 159.68C136.643 159.52 137.036 159.313 137.361 159.232C137.477 159.203 137.495 159.16 137.579 159.076C137.791 159.045 137.902 158.964 138.094 158.888C138.499 158.73 138.954 158.589 139.349 158.408L139.641 158.278C139.77 158.226 139.857 158.21 139.96 158.108L140.016 158.044L140.203 158.09C140.315 157.996 140.372 157.947 140.52 157.917C140.668 157.887 140.66 157.867 140.766 157.762L140.977 157.785L141.141 157.714L141.375 157.62C141.566 157.532 141.731 157.44 141.938 157.385L142.125 157.339C142.308 157.257 142.456 157.16 142.65 157.098C142.89 157.021 143.135 156.85 143.367 156.799C143.538 156.76 143.597 156.793 143.77 156.706C144.423 156.379 145.164 156.157 145.852 155.906L146.016 155.836C146.138 155.786 146.245 155.748 146.359 155.677L146.438 155.625L146.578 155.648C146.688 155.578 146.776 155.516 146.903 155.484C147.187 155.412 147.476 155.238 147.75 155.131C147.908 155.069 148.073 154.954 148.223 154.917L148.313 154.896C148.592 154.742 148.248 154.845 148.594 154.755C148.773 154.709 148.893 154.633 149.063 154.567C149.213 154.509 149.322 154.5 149.471 154.419C149.764 154.262 150.067 154.124 150.375 154.004L150.563 153.957C150.695 153.888 150.719 153.821 150.88 153.776C151.023 153.738 151.026 153.755 151.172 153.675C151.312 153.599 151.4 153.512 151.555 153.448L151.688 153.393C151.929 153.251 151.666 153.33 151.969 153.252C152.027 153.238 152.102 153.234 152.156 153.206C152.399 153.077 152.678 152.981 152.906 152.83C153.014 152.759 153.054 152.696 153.183 152.664C153.549 152.572 154.086 152.286 154.406 152.078C154.586 151.962 154.779 151.845 154.969 151.749C155.098 151.685 155.149 151.709 155.293 151.613C155.468 151.496 155.392 151.533 155.565 151.455L156.563 150.951C156.677 150.877 156.709 150.819 156.845 150.785C156.964 150.756 156.915 150.782 157.012 150.712L157.102 150.646C157.242 150.561 157.388 150.536 157.477 150.388L157.547 150.248L157.64 150.341L159.094 149.542L159.375 149.401C159.533 149.299 159.628 149.198 159.806 149.124L159.938 149.072L160.594 148.697L160.945 148.485L161.392 148.229L162.094 147.757C162.248 147.649 162.402 147.572 162.563 147.476L162.703 147.382L163.623 146.713L163.711 146.631L163.828 146.63L165.094 145.691L165.282 145.527C165.534 145.37 165.762 145.153 166.008 145.01C166.23 144.881 166.257 144.856 166.43 144.658L166.547 144.658L166.852 144.352C167.045 144.24 167.151 144.076 167.32 143.977C167.555 143.839 167.673 143.637 167.883 143.507C168.248 143.28 168.479 142.863 168.82 142.661C169.196 142.439 169.411 142.021 169.758 141.816L169.922 141.746C170.177 141.604 171.158 140.559 171.235 140.29L171.047 140.289C170.906 140.43 170.863 140.383 170.672 140.383C170.547 140.466 170.482 140.502 170.344 140.548L170.133 140.618L169.968 140.712L169.688 140.852C169.53 140.946 169.417 141.037 169.245 141.111C168.032 141.636 166.966 142.67 165.75 143.154C165.52 143.245 165.692 143.143 165.475 143.289C165.256 143.435 165.037 143.539 164.813 143.67C164.647 143.768 164.505 143.876 164.328 143.955L164.227 144L163.647 144.312L163.125 144.61L161.666 145.438L160.195 146.16L158.625 146.912L158.344 147.052L158.133 147.193L157.969 147.24C157.805 147.315 157.661 147.446 157.49 147.522L156.843 147.851C156.041 148.206 155.248 148.65 154.477 149.072L154.102 149.26L153.937 149.354L153.797 149.4C153.676 149.456 153.607 149.531 153.472 149.565C153.332 149.6 153.397 149.574 153.24 149.653C152.861 149.843 152.465 150.092 152.063 150.223C151.939 150.263 151.843 150.296 151.727 150.359L151.312 150.575L150.656 150.857L150.516 150.903C150.395 150.959 150.325 151.034 150.19 151.068C150.046 151.104 150.12 151.076 149.954 151.159L149.602 151.326C149.358 151.455 149.526 151.392 149.304 151.466L148.875 151.632C148.648 151.779 148.83 151.732 148.621 151.774C148.493 151.8 148.405 151.827 148.289 151.89L148.125 151.984C147.745 152.143 147.297 152.347 146.906 152.477C146.766 152.524 146.643 152.593 146.508 152.641C146.304 152.715 146.117 152.814 145.913 152.882L145.312 153.111L144.843 153.299L143.883 153.675C143.554 153.788 143.205 153.973 142.875 154.05C142.542 154.129 142.281 154.284 141.961 154.391L141.703 154.473L141.61 154.567C141.348 154.617 141.152 154.707 140.906 154.802L140.25 155.084L139.593 155.366L139.383 155.459L139.218 155.553L139.078 155.6L138.985 155.694C138.838 155.716 138.747 155.741 138.612 155.809C138.423 155.903 138.227 155.954 138.038 156.049L137.906 156.117L137.766 156.164L137.672 156.258C137.529 156.279 137.431 156.303 137.3 156.369L136.875 156.587L135.82 157.056L135.703 157.103C135.559 157.181 135.438 157.279 135.281 157.338L135.094 157.385C134.962 157.453 134.923 157.524 134.767 157.576C134.643 157.617 134.53 157.652 134.414 157.714L134.25 157.808C133.99 157.928 133.697 158.019 133.446 158.155L132.82 158.465L131.701 159.029L130.102 159.78L129.937 159.874C129.794 159.94 129.657 159.983 129.516 160.063L129.281 160.203C129.074 160.293 128.918 160.385 128.719 160.485C128.553 160.568 128.406 160.591 128.243 160.699L128.062 160.814C127.744 160.94 128.047 160.768 127.754 160.948C127.539 161.08 127.322 161.168 127.102 161.283L126.937 161.377C126.8 161.45 126.679 161.5 126.554 161.594L126.468 161.659L126.328 161.706C126.184 161.778 126.06 161.878 125.906 161.941C125.694 162.027 125.828 161.935 125.625 162.081C125.508 162.166 125.442 162.222 125.304 162.28C125.091 162.369 125.213 162.309 124.994 162.427L124.852 162.504L124.735 162.551L124.594 162.645L124.266 162.833C123.677 163.335 122.633 163.818 121.914 164.177L121.5 164.383C121.298 164.482 121.123 164.627 120.926 164.715L120.633 164.853L120.188 165.087L118.118 166.244L117.937 166.356C117.603 166.486 117.272 166.673 116.959 166.856L115.594 167.623C115.429 167.72 115.287 167.83 115.11 167.909L113.23 168.912L112.406 169.408C112.303 169.482 112.235 169.544 112.118 169.597C111.573 169.84 110.937 170.21 110.438 170.535C110.103 170.753 109.712 170.938 109.397 171.175L109.312 171.24C109.174 171.309 109.145 171.365 109.031 171.428L108.891 171.475L108.75 171.569C108.546 171.693 108.349 171.865 108.143 171.968C107.944 172.068 107.722 172.202 107.531 172.32C107.396 172.404 107.384 172.46 107.215 172.493L107.11 172.508L107.016 172.602L106.872 172.509C106.997 171.186 107.014 169.863 107.041 168.536C107.059 167.64 107.022 166.584 107.298 165.725L107.339 165.605C107.596 164.83 107.97 164.102 108.555 163.522C109.016 163.066 109.593 162.747 110.142 162.413L112.78 160.895L122.197 155.794L128.031 152.328C130.12 150.943 132.132 149.403 134.278 148.112L142.357 143.767C145.133 142.219 147.647 140.433 150.109 138.426L154.583 134.597L158.223 131.667C159.313 130.753 160.363 129.673 161.523 128.862C161.763 128.694 161.938 128.548 162.231 128.548L162.182 128.712L159.468 131.271L159.704 131.547L159.851 131.488L159.912 131.495L162.306 129.093C162.859 128.572 163.302 127.971 163.771 127.376C165.978 124.571 167.277 121.486 168.693 118.249C170.032 115.189 171.33 112.146 172.166 108.9C172.498 107.612 172.541 106.292 172.821 105.005Z" fill="#0090F9"/>
<path d="M88.615 52.3974C88.8765 52.455 88.9843 52.4627 89.2495 52.4066C89.537 52.346 89.8508 52.4292 90.0938 52.2731C90.4595 52.2749 90.7288 52.2776 91.078 52.1792C91.3518 52.102 91.7263 52.1617 92.0155 52.1283L94.8285 51.9405C99.4695 51.7917 103.992 52.1942 108.427 53.6112L112.987 55.28C112.604 55.3506 111.884 54.7815 111.683 55.0976L111.61 55.3268L112.688 55.7026L112.864 55.7965C113.042 55.8899 113.179 55.92 113.38 55.9373L113.168 56.0427L113.285 56.1106C114.004 56.5179 114.848 56.7919 115.599 57.1486C116.935 57.7834 118.228 58.5121 119.5 59.2655C122.591 61.0966 125.302 63.2784 127.992 65.6417C131.443 68.6752 134.672 71.8779 137.291 75.6844C138.714 77.7521 139.666 80.0952 141.028 82.1811C142.856 85.4492 145.418 87.9859 148.271 90.365C149.172 91.1163 150.108 91.9321 151.117 92.5308C151.074 92.9062 150.996 93.0976 151.24 93.417C152.086 94.5204 153.69 95.4367 154.841 96.1909C159.68 99.3606 165.929 102.083 167.732 108.105C168.281 109.941 168.311 111.904 168.149 113.8C168.091 114.483 167.937 115.15 167.989 115.838L167.857 116.192L168.141 116.439C168.125 116.931 167.889 117.457 167.714 117.915C166.492 121.12 163.949 124.066 161.478 126.399C158.782 128.946 155.885 130.956 152.814 133.002C146.457 137.238 139.761 140.771 133.173 144.61L114.074 156.033L108.836 158.696C108.308 159.01 107.997 159.165 107.842 159.793C107.527 161.066 107.406 162.405 107.214 163.701C106.78 166.632 106.136 169.224 104.447 171.695C104.091 172.217 103.661 172.969 103.12 173.295L102.882 173.415C102.212 174.433 100.366 175.34 99.3223 175.99C98.3233 176.613 97.3623 177.296 96.2995 177.81C96.018 177.675 95.7213 177.5 95.421 177.416C93.1755 176.383 90.915 174.957 88.9195 173.503L87.6505 158.812C86.3005 158.591 84.9878 158.074 83.687 157.663C70.664 151.975 58.3158 144.631 46.614 136.583C40.0348 132.058 33.465 127.34 27.973 121.494C27.9243 121.356 27.6763 121.12 27.5793 121.001L26.408 119.508C25.333 118.054 24.4303 116.548 23.5788 114.958C23.6191 114.767 23.0092 113.389 22.9219 113.104C22.64 112.186 22.4464 111.222 22.3648 110.264C22.2346 108.734 22.4694 107.417 22.8343 105.945C23.5023 105.614 23.8521 104.657 24.3114 104.064C25.3275 102.751 26.4453 101.548 27.7623 100.532C30.2238 98.6334 32.8868 97.13 35.6093 95.6474C37.534 94.5996 39.8025 93.5971 41.43 92.1087C43.2455 90.9086 45.0378 89.706 46.584 88.1567C48.4593 86.2773 49.7978 84.1143 51.0765 81.8058L55.2618 75.4063C60.1955 68.4495 66.3488 62.7994 73.9385 58.8668L78.1015 56.8794L80.4358 55.9398L80.6015 55.8626L80.4428 55.7487L81.1128 55.5322L81.1875 55.5147C81.3018 55.4015 81.3158 55.4062 81.4688 55.3737C81.6735 55.3303 81.866 55.3126 82.0225 55.157L82.078 55.0929L82.3595 55.139C82.5088 55.005 82.6678 54.9293 82.875 54.9281L83.0155 54.9511C83.5038 54.6726 84.235 54.5165 84.791 54.405C85.008 54.3617 84.856 54.3071 84.93 54.1545C85.066 53.874 85.5273 53.5045 85.7653 53.2838L85.014 53.4164C84.6253 53.4655 84.3405 53.5584 83.9443 53.5013L86.1093 52.9324L87.258 52.6256L87.3755 52.6033C87.7963 52.5053 88.1843 52.4425 88.615 52.3974Z" fill="#030713"/>
<path d="M88.6151 52.3974C88.8766 52.455 88.9843 52.4627 89.2496 52.4066C89.5371 52.346 89.8508 52.4292 90.0938 52.2731C90.4596 52.2749 90.7288 52.2776 91.0781 52.1792C91.3518 52.102 91.7263 52.1617 92.0156 52.1283L94.8286 51.9405C99.4696 51.7917 103.992 52.1942 108.427 53.6112L112.987 55.28C112.604 55.3506 111.884 54.7815 111.683 55.0976L111.61 55.3268L112.688 55.7026L112.864 55.7965C113.042 55.8899 113.179 55.92 113.38 55.9373L113.168 56.0427C111.364 55.5225 109.641 54.8634 107.804 54.4198C104.049 53.5133 99.9963 52.9342 96.1263 52.9915C90.8026 53.0704 85.6378 54.2079 80.6016 55.8626L80.4428 55.7487L81.1128 55.5322L81.1876 55.5147C81.3018 55.4015 81.3158 55.4062 81.4688 55.3737C81.6736 55.3303 81.8661 55.3126 82.0226 55.157L82.0781 55.0929L82.3596 55.139C82.5088 55.005 82.6678 54.9293 82.8751 54.9281L83.0156 54.9511C83.5038 54.6726 84.2351 54.5165 84.7911 54.405C85.0081 54.3617 84.8561 54.3071 84.9301 54.1545C85.0661 53.874 85.5273 53.5045 85.7653 53.2838L85.0141 53.4164C84.6253 53.4655 84.3406 53.5584 83.9443 53.5013L86.1093 52.9324L87.2581 52.6256L87.3756 52.6033C87.7963 52.5053 88.1843 52.4425 88.6151 52.3974Z" fill="url(#paint10_linear_1201_3)"/>
<path d="M89.4238 166.778C91.0076 168.373 92.7771 169.83 95.1563 169.821C97.6693 169.811 100.968 168.709 102.945 167.145L102.99 167.235C103.043 167.341 103.016 167.304 103.068 167.365C102.934 169.18 102.937 171.217 102.496 172.978C102.467 173.096 102.42 173.339 102.354 173.439C102.065 173.872 101.163 174.304 100.726 174.581L96.3033 177.353L92.6271 175.356C91.5456 174.742 90.4656 174.148 89.5286 173.324L89.4238 166.778Z" fill="#393B46"/>
<path d="M167.857 116.193L168.141 116.439C168.125 116.931 167.889 117.457 167.714 117.915C166.492 121.12 163.949 124.066 161.478 126.399C158.782 128.946 155.885 130.956 152.814 133.002C146.457 137.238 139.761 140.771 133.173 144.61L114.074 156.033L108.836 158.696C108.308 159.01 107.997 159.165 107.842 159.793C107.527 161.066 107.406 162.405 107.214 163.701C106.78 166.632 106.136 169.224 104.447 171.695C104.091 172.217 103.661 172.969 103.12 173.295L102.882 173.415C103.333 171.615 103.384 169.612 103.563 167.759L104.449 158.828C105.541 158.367 106.779 158.1 107.916 157.758C111.806 156.202 115.284 154.152 118.882 152.032L132.246 143.887L138.809 140.21C143.584 137.516 148.316 134.735 152.841 131.634C154.903 130.221 156.933 128.804 158.852 127.196C162.536 124.108 165.728 120.528 167.857 116.193Z" fill="url(#paint11_linear_1201_3)"/>
<path d="M89.7238 161.83C89.6666 160.372 89.7618 158.745 89.5208 157.313C89.9788 156.781 90.5371 156.015 91.1576 155.675C92.2803 156.129 93.3971 156.589 94.6106 156.724C96.2676 156.91 98.0851 156.686 99.7121 156.357C99.9808 156.303 101.284 155.843 101.409 155.88C101.89 156.021 102.793 157.076 103.136 157.466L101.902 165.526L102.02 165.84L103.11 166.048C103.108 166.458 103.167 166.972 103.068 167.365C103.016 167.304 103.043 167.341 102.99 167.235L102.945 167.145C100.968 168.709 97.6693 169.811 95.1563 169.821C92.7771 169.83 91.0076 168.373 89.4238 166.778C89.4721 165.992 89.6368 165.213 89.6878 164.431C89.7438 163.57 89.7238 162.693 89.7238 161.83Z" fill="#393B46"/>
<path d="M89.7238 161.83L89.7408 161.93C89.8983 162.934 89.5593 164.05 90.1193 164.94L90.2046 165.082C91.0321 166.425 92.7731 167.831 94.2656 168.335L94.3583 168.367C94.7086 168.479 95.1673 168.43 95.5313 168.387C97.2643 168.182 99.1563 167.169 100.671 166.309C101.063 166.086 101.575 165.835 101.902 165.526L102.02 165.839L103.11 166.048C103.108 166.458 103.167 166.972 103.068 167.365C103.016 167.304 103.043 167.341 102.99 167.235L102.945 167.145C100.968 168.709 97.6693 169.811 95.1563 169.821C92.7771 169.83 91.0076 168.373 89.4238 166.778C89.4721 165.992 89.6368 165.213 89.6878 164.431C89.7438 163.57 89.7238 162.693 89.7238 161.83Z" fill="#2A2B36"/>
<path d="M75.0818 145.385L74.6758 145.356C74.5713 145.239 74.4813 145.136 74.3493 145.048C73.7833 144.668 73.2438 144.188 72.7041 143.765L72.7023 143.906L72.5861 143.977L72.2813 143.812L72.1406 143.718L71.0626 142.967C70.9086 142.859 70.7546 142.781 70.5938 142.685L70.2423 142.474L68.9063 141.746C68.7976 141.675 68.7593 141.612 68.6296 141.58C67.7203 141.352 66.8001 140.622 65.9063 140.29L65.7188 140.243L65.1211 139.952L61.1851 137.928L59.7613 137.218L59.6251 137.143L59.5773 137.237L59.4846 137.377L59.5773 137.566C59.8041 137.683 59.8933 137.791 60.0461 137.988L59.8531 138.255L59.7648 138.364L59.8586 138.505L59.7188 138.646L59.8121 138.763L59.7423 138.857L59.8121 138.951L59.7423 139.045L59.8121 139.139L59.7423 139.233L59.8586 139.35L59.5781 139.585L59.5773 139.726L59.3673 139.891L59.3898 140.102L59.2501 140.172C59.0661 140.282 59.2511 140.213 59.0448 140.282L58.9453 140.313L58.9211 140.618C58.8023 140.797 58.8663 140.738 58.6818 140.861L58.5471 140.946C58.7316 141.135 59.0263 141.234 59.2501 141.37L59.6016 141.581L59.7656 141.652C59.8981 141.729 59.9758 141.832 60.1246 141.9L60.5626 142.121C60.6771 142.196 60.7088 142.253 60.8453 142.287C60.9638 142.317 60.9146 142.291 61.0123 142.361C61.3736 142.619 61.8288 142.791 62.2266 142.99C62.5968 143.176 62.9908 143.434 63.3751 143.577L63.5626 143.624L64.1588 143.913C64.7576 144.237 65.4951 144.539 66.1406 144.755L66.2813 144.798L66.5626 144.893C66.9368 144.998 67.2733 145.195 67.6406 145.318L67.7813 145.362L68.0626 145.456L68.2501 145.503C68.5116 145.623 68.9711 145.843 69.2476 145.868C69.4266 145.885 69.3378 145.858 69.5171 145.948C69.6866 146.033 69.6116 146.014 69.7808 146.048L69.8906 146.067C70.0281 146.111 70.1811 146.138 70.3121 146.184L70.9453 146.372C71.1456 146.429 71.3853 146.47 71.5781 146.536C71.8333 146.624 72.0121 146.624 72.2813 146.63C72.5946 146.839 72.9371 146.625 73.2656 146.724C73.5661 146.815 73.8371 146.781 74.1341 146.865C73.3856 146.892 72.6261 146.852 71.8861 146.728C70.5951 146.511 69.3221 146.044 68.0921 145.605C65.3081 144.613 62.7288 143.464 60.1263 142.06C56.3233 140.01 52.8911 137.497 49.3161 135.096C45.7958 132.732 42.1255 130.49 38.7373 127.94C36.861 126.528 35.0908 124.95 33.3593 123.364C32.325 122.417 31.1635 121.482 30.3368 120.343C30.6935 118.585 31.2553 116.934 32.1098 115.353C32.7558 114.159 33.6103 113.091 34.4273 112.012L37.1998 108.417C38.0243 110.899 38.6103 113.976 40.189 116.094C41.0993 117.009 41.8338 118.029 42.6513 119.023L45.5625 122.583C47.1945 124.791 48.5533 126.957 50.6581 128.774L50.4881 128.738C49.0188 128.435 47.5168 128.458 46.078 127.969C45.164 127.658 44.2943 127.251 43.4203 126.844C42.9693 126.634 42.4765 126.346 41.9973 126.226C43.2118 127.357 44.718 128.181 46.0903 129.108C46.5743 129.435 47.2878 130.07 47.8333 130.238L51.4926 132.513C51.8123 132.703 52.2831 133.062 52.6311 133.164C54.3691 134.413 56.4801 135.38 58.3888 136.346L64.3746 139.408L68.3353 141.285L70.6891 142.562C71.2096 142.875 71.7063 143.288 72.2813 143.489L72.5456 143.394L75.0818 145.385Z" fill="#2A2B36"/>
<path d="M141.823 117.325C142.715 115.888 143.836 114.664 144.807 113.29C146.263 111.229 146.949 108.833 146.918 106.324C147.094 106.662 147.218 107.023 147.404 107.356C148.136 108.667 148.986 109.836 149.463 111.287C149.677 111.942 149.748 112.651 149.901 113.324L149.885 113.431L149.818 113.767C149.771 113.988 149.777 113.895 149.812 114.119C150.713 114.809 151.176 115.708 151.644 116.727C152.444 114.146 153.557 111.443 153.697 108.713C157.425 112.049 160.536 116.019 160.799 121.221C160.827 121.774 160.486 122.07 160.127 122.456C158.339 124.371 156.219 126.047 154.152 127.649L148.86 131.591C144.611 134.444 140.046 136.825 135.469 139.095C133.422 140.109 131.384 141.222 129.225 141.981C126.404 142.972 123.375 143.388 120.469 144.056L120.438 143.991L120.834 143.648L120.659 143.685C120.505 143.729 120.505 143.763 120.327 143.765C120.397 143.418 120.661 143.218 120.896 142.961C121.106 142.642 121.578 142.305 121.864 142.027L123.691 140.148C125.052 138.693 126.24 137.092 127.384 135.463L128.196 134.342C129.862 132.481 131.276 130.444 132.424 128.224C132.836 127.428 133.285 126.605 133.525 125.74C133.861 124.526 133.889 123.374 133.888 122.127L134.004 122.208C134.304 123.367 134.212 124.551 134.066 125.724C137.425 124.068 139.944 120.449 141.823 117.325Z" fill="#2A2B36"/>
<path d="M141.823 117.325C142.715 115.888 143.836 114.664 144.807 113.29C146.263 111.229 146.949 108.833 146.918 106.324C147.094 106.662 147.218 107.023 147.404 107.356C148.136 108.667 148.986 109.836 149.463 111.287C149.677 111.942 149.748 112.651 149.901 113.324L149.885 113.431L149.818 113.767C149.771 113.988 149.777 113.895 149.812 114.119L149.742 114.26C149.573 114.625 149.566 115.098 149.491 115.491C149.343 116.267 149.144 117.042 148.889 117.79C148.343 119.389 147.478 120.918 146.7 122.412C145.917 123.916 145.201 125.416 144.202 126.796C143.659 127.546 142.966 128.266 142.321 128.933C143.76 128.506 145.253 128.405 146.694 128.014C148.161 127.616 149.417 126.932 150.815 126.388C149.751 127.622 148.323 128.488 146.93 129.302C144.143 130.931 141.157 132.209 138.27 133.647L127.613 139.041C125.822 139.98 124.117 141.173 122.517 142.403C122.219 142.632 121.122 143.62 120.834 143.648L120.659 143.685C120.505 143.729 120.505 143.763 120.327 143.765C120.397 143.418 120.661 143.218 120.896 142.961C121.106 142.642 121.578 142.305 121.864 142.027L123.691 140.148C125.052 138.693 126.24 137.092 127.384 135.463L128.196 134.342C129.862 132.481 131.276 130.444 132.424 128.224C132.836 127.428 133.285 126.605 133.525 125.74C133.861 124.526 133.889 123.374 133.888 122.127L134.004 122.208C134.304 123.367 134.212 124.551 134.066 125.724C137.425 124.068 139.944 120.449 141.823 117.325Z" fill="url(#paint12_linear_1201_3)"/>
<path d="M143.219 103.143C143.242 102.798 143.079 102.422 143.008 102.083C142.873 101.439 142.792 100.762 142.729 100.106L142.325 93.0886C142.924 93.4203 143.506 94.0482 143.975 94.5447C146.124 96.8217 147.365 99.3143 148.728 102.084C150.151 105.67 151.105 109.541 149.901 113.324C149.748 112.651 149.677 111.942 149.463 111.287C148.986 109.836 148.136 108.667 147.404 107.356C147.218 107.023 147.094 106.662 146.918 106.324C146.949 108.833 146.263 111.229 144.807 113.29C143.836 114.664 142.715 115.888 141.823 117.325C139.944 120.449 137.425 124.068 134.066 125.724C134.212 124.551 134.304 123.367 134.004 122.208L133.888 122.127C133.889 123.374 133.861 124.526 133.525 125.74C133.285 126.605 132.836 127.428 132.424 128.224C131.276 130.444 129.862 132.481 128.196 134.342L127.384 135.463C126.24 137.092 125.052 138.693 123.691 140.148L121.864 142.027C121.578 142.305 121.106 142.642 120.896 142.961L120.398 142.936C119.589 143.782 118.547 144.521 117.636 145.263L112.749 149.377L113.455 148.294C114.658 146.339 115.525 144.171 116.525 142.109C118.502 138.035 120.893 134.01 121.179 129.378C121.246 128.301 121.246 127.207 120.997 126.153L120.935 126.304C120.91 128.827 120.545 131.243 119.615 133.604C117.721 138.412 113.809 142.215 110.192 145.771C107.597 148.323 104.64 150.983 101.139 152.164C99.5116 152.713 97.7033 152.913 95.9913 152.896C91.7053 152.852 87.9641 151.176 84.8558 148.248L81.4096 145.124C78.2326 142.205 75.1986 139.181 73.0418 135.395C71.4703 132.637 70.1358 128.902 71.0026 125.712C70.0928 127.142 70.3506 129.732 70.7111 131.323C71.5628 135.084 73.6713 138.353 75.5371 141.669C76.0198 142.527 76.5898 143.406 76.9978 144.298L79.8828 149.108C78.6378 147.894 77.2773 146.933 75.8668 145.93C75.6888 145.803 75.2763 145.431 75.0818 145.385L72.5456 143.394C69.4546 140.73 66.4143 137.716 64.6046 133.996C63.8558 132.458 63.3901 130.857 63.0286 129.191C62.8708 131.112 63.6518 133.222 64.3998 134.954L64.3058 134.868C63.7481 134.273 63.2361 133.589 62.7101 132.961C60.5953 130.439 58.5971 127.604 58.0326 124.293C57.9008 123.521 57.9315 122.694 57.927 121.911C57.6935 122.431 57.5931 122.973 57.4773 123.528C57.4758 123.957 57.5753 124.982 57.3688 125.317L57.2993 125.333C56.3861 124.953 55.552 124.281 54.8155 123.63C52.5875 121.659 51.1663 119.441 49.93 116.76C49.282 115.443 48.4408 114.528 47.5418 113.39C46.1598 111.64 45.1428 109.437 45.428 107.17L45.4455 107.041C44.639 108.29 43.7033 109.45 42.9445 110.731C42.5045 111.474 42.1968 112.278 41.812 113.049C40.7708 109.249 41.4645 105.038 43.1845 101.559L43.2583 101.473C43.679 100.946 43.997 100.293 44.3825 99.7331C45.5498 98.0368 46.7893 96.4176 48.1608 94.8811C48.5508 94.4443 49.0323 93.8253 49.5065 93.4997L49.0545 102.773C50.243 101.074 52.2123 100.45 54.1758 100.111C59.3001 99.2254 64.8931 100.276 69.6791 102.164C71.2923 102.801 72.9413 103.538 74.3603 104.548C76.0338 105.739 77.7401 107.61 78.0898 109.714C78.3141 111.064 78.0183 112.361 77.6186 113.645C77.0168 115.578 76.1821 117.257 75.1163 118.977C74.7591 119.553 73.9968 120.387 73.8123 121.008C75.6591 119.121 77.7861 117.57 79.8538 115.94C82.1148 114.157 84.4648 112.115 87.0148 110.778C87.8673 110.331 88.7548 109.988 89.7313 109.98C90.9006 109.971 91.9246 110.463 92.7438 111.286C94.4926 113.043 95.8756 115.955 96.1131 118.405C96.5646 115.867 97.6351 112.816 99.8861 111.309C100.974 110.58 102.215 110.447 103.482 110.729C106.202 111.337 108.765 113.584 110.982 115.209C113.435 117.007 115.855 118.817 118.155 120.813C116.665 118.381 115.113 115.748 114.439 112.952C114.173 111.848 114.054 110.775 114.323 109.66C114.957 107.026 116.772 105.261 119.033 103.889C123.177 101.375 128.208 100.064 133.017 99.7614C134.971 99.6384 137.047 99.6487 138.959 100.133C140.541 100.533 142.123 101.291 142.988 102.736L143.219 103.143Z" fill="white"/>
<path d="M79.121 128.944C80.4008 129.126 81.3793 129.386 82.5585 129.917C82.8025 130.027 83.125 130.121 83.297 130.334L83.143 130.438C82.3355 130.551 81.695 130.164 80.9823 129.838C80.3505 129.55 79.728 129.284 79.121 128.944Z" fill="#030713"/>
<path d="M113.059 129.112L113.424 129.095L113.419 129.205C112.342 129.743 110.864 130.414 109.659 130.427L109.221 130.268L109.228 130.145C110.439 129.566 111.743 129.318 113.059 129.112Z" fill="#030713"/>
<path d="M57.3688 125.317L57.3418 124.603C57.0453 124.25 56.8465 123.808 56.5855 123.425C55.6683 122.082 54.6458 120.806 54.1993 119.21C54.763 119.929 55.2143 120.725 55.8288 121.41C56.295 121.93 56.9798 122.38 57.236 123.051C57.2858 123.181 57.327 123.29 57.4018 123.41L57.4773 123.528C57.4758 123.957 57.5753 124.982 57.3688 125.317Z" fill="#D3D2D2"/>
<path d="M77.5758 123.1L77.7138 123.194C76.2726 124.584 74.7226 126.244 74.6303 128.375L74.5813 129.487L74.5241 129.403C74.4128 129.18 74.4336 128.862 74.4298 128.615C74.4156 127.685 74.4531 126.566 74.8358 125.708L74.8916 125.589C75.0478 125.249 75.2136 124.912 75.4313 124.606C75.9501 123.877 76.6796 123.25 77.5758 123.1Z" fill="#D3D2D2"/>
<path d="M113.738 122.818C113.904 122.78 114.042 122.752 114.213 122.774C115.156 122.892 116.065 123.568 116.594 124.343C117.686 125.946 117.419 128.357 117.067 130.145L116.958 130.303C117.018 128.865 117.198 127.228 116.502 125.896C115.873 124.693 115.259 123.753 114.009 123.13C113.808 123.03 113.835 123.01 113.738 122.818Z" fill="#D3D2D2"/>
<path d="M57.022 116.594C57.762 117.701 58.4265 118.888 59.2943 119.901C60.698 121.54 62.4475 122.725 64.1055 124.075C65.0053 124.807 65.8425 125.601 66.7755 126.294C66.7533 126.299 66.7315 126.312 66.7088 126.311C66.3855 126.286 66.0265 125.973 65.7565 125.804L64.258 124.953L60.9658 123.281C60.201 122.853 59.4618 122.35 58.8963 121.671C57.731 120.273 57.4973 118.296 57.022 116.594Z" fill="#D3D2D2"/>
<path d="M128.033 124.881C127.128 125.144 125.905 125.831 125.164 126.416C125.004 126.543 124.943 126.597 124.748 126.669C125.27 125.868 126.612 125.247 127.412 124.719C128.242 124.172 129.076 123.589 129.844 122.955C131.826 121.319 133.673 118.929 134.98 116.712C135.147 117.176 134.495 120.017 134.289 120.585C134.13 121.02 134.008 121.399 133.723 121.771C132.087 123.31 129.968 123.82 128.033 124.881Z" fill="#D3D2D2"/>
<path d="M76.9978 144.298C76.5396 144.03 76.4346 143.675 76.1728 143.249L75.5821 142.183L75.5166 142.075L75.4458 141.934L75.3756 141.839L74.6166 140.46L74.5318 140.336L74.5313 140.196C74.2616 140.015 74.2086 139.731 74.0341 139.469L73.9693 139.374C73.8776 139.198 73.9788 139.308 73.8493 139.178L73.7818 139.115C73.7241 138.709 73.2843 138.217 73.0993 137.847L72.7506 137.142L72.6103 136.861C72.5061 136.694 72.4531 136.523 72.3493 136.368L72.2818 136.274L72.2813 136.157L72.0943 135.898L71.9068 135.452C71.8563 135.321 71.8821 135.29 71.7898 135.167C71.6011 134.915 71.5623 134.52 71.3916 134.231L71.2978 134.09L71.3438 133.902L71.2041 133.808C71.1863 133.603 71.1576 133.461 71.0628 133.28C71.0068 133.173 70.9496 133.084 70.9228 132.963L70.8751 132.634C70.7506 132.319 70.7943 132.645 70.7683 132.38C70.7533 132.228 70.7721 132.29 70.7246 132.148L70.6881 132.047L70.6416 131.883L70.5478 131.742C70.5528 131.598 70.5591 131.48 70.5168 131.34C70.4348 131.067 70.3696 130.892 70.3933 130.6C70.4131 130.36 70.2578 130.285 70.2896 130.004C70.3238 129.701 70.2506 129.82 70.1728 129.581C70.0868 129.317 70.2476 128.895 70.1988 128.595C70.1328 128.191 70.1141 127.583 70.2193 127.186L70.3596 127.14C70.4173 126.965 70.4006 126.976 70.3586 126.81L70.1721 127.044C69.9116 126.783 70.0916 126.686 69.9376 126.458L69.6563 126.481L69.3751 126.293C69.1796 126.204 69.2568 126.29 69.0938 126.199L68.9068 126.058L68.5078 125.917C68.4746 126.08 68.4293 126.235 68.4461 126.402C68.4628 126.567 68.4911 126.72 68.4748 126.887C68.4536 127.106 68.4596 126.884 68.4606 127.18V127.374L68.4376 127.702C68.4686 127.857 68.5408 127.954 68.5543 128.125C68.5676 128.293 68.5116 128.534 68.5543 128.689C68.5963 128.842 68.6598 128.89 68.6481 129.065L68.6251 129.205C68.7521 129.503 68.6858 129.716 68.7418 130.004C68.8263 130.439 68.7648 129.859 68.8008 130.218C68.8173 130.382 68.8173 130.521 68.8856 130.676C68.9786 130.887 68.8788 130.993 69.0231 131.225L69.0001 131.413L69.0938 131.554L69.1173 131.859C69.1671 132.048 69.2646 132.253 69.3043 132.446C69.3783 132.806 69.2756 132.48 69.3721 132.771C69.4508 133.007 69.5696 133.27 69.6328 133.503C69.6761 133.662 69.6386 133.733 69.7223 133.901C69.7941 134.045 69.8483 134.169 69.8906 134.325L69.9376 134.513C70.0568 134.743 70.0161 134.56 70.0576 134.768C70.0898 134.93 70.0971 135.039 70.1863 135.182L70.2418 135.264L70.2188 135.405C70.2888 135.515 70.3508 135.603 70.3828 135.731C70.4346 135.938 70.5648 136.242 70.6628 136.439L70.7738 136.679C70.8798 136.964 70.9868 137.264 71.1563 137.519L71.2496 137.636C71.2501 137.772 71.2731 137.868 71.3438 137.988C71.4121 138.104 71.4751 138.134 71.5093 138.272C71.5391 138.39 71.5128 138.341 71.5826 138.439C72.0591 139.107 72.3598 139.936 72.8438 140.618C72.9841 140.816 73.0833 141.029 73.2173 141.23L73.5001 141.652L73.5933 141.769C73.5941 141.943 73.6408 141.934 73.7578 142.051L73.7346 142.25C72.0296 139.669 70.6688 137.074 69.6706 134.137C68.3621 130.287 67.4993 125.584 69.3988 121.79C69.5908 121.406 69.8753 120.833 70.3181 120.701C70.7231 120.581 71.2318 120.707 71.5893 120.911L71.7188 120.987C72.2363 121.286 72.5816 121.611 72.9893 122.041C72.6731 122.539 72.4571 123.119 72.2118 123.656C71.8358 124.158 71.5903 124.664 71.2866 125.204C71.2343 125.297 71.2026 125.399 71.1558 125.495L71.0026 125.712C70.0928 127.142 70.3506 129.732 70.7111 131.323C71.5628 135.084 73.6713 138.353 75.5371 141.669C76.0198 142.527 76.5898 143.406 76.9978 144.298Z" fill="#D3D2D2"/>
<path d="M83.387 139.902C82.8548 139.434 82.2658 138.896 81.8395 138.332C83.0635 139.234 84.3628 140.119 85.813 140.61C88.5928 141.55 91.728 141.16 94.323 139.856C93.0328 139.397 91.7923 138.985 90.6473 138.204C87.3613 135.962 86.2443 132.581 85.5433 128.828C85.231 127.156 84.745 124.498 85.8038 123.015C87.2035 121.055 89.9818 120.012 92.264 119.614C96.1983 118.928 101.271 119.064 104.641 121.453C105.621 122.147 106.677 123.293 106.851 124.532C106.994 125.549 106.822 126.64 106.691 127.651C106.294 130.711 105.734 133.699 103.817 136.207C102.151 138.027 100.254 139.356 97.8413 139.971C100.42 141.203 103.197 141.541 105.939 140.572C107.163 140.138 108.185 139.45 109.182 138.627C109.494 138.37 109.772 138.037 110.105 137.815C109.671 138.534 109.169 139.172 108.625 139.81C105.734 142.239 102.259 143.807 98.4755 144.164C93.3705 144.646 87.3643 143.207 83.387 139.902Z" fill="#030713"/>
<path d="M103.257 132.681L103.501 132.622L103.625 132.728C103.512 132.925 103.408 133.06 103.226 133.201C102.647 133.65 101.923 133.819 101.203 133.746C101.06 133.682 100.951 133.601 100.824 133.511C101.085 133.294 101.488 133.287 101.813 133.188L103.257 132.681Z" fill="white"/>
<path d="M88.1185 132.626L89.6983 133.016C90.1445 133.104 90.9045 133.115 91.2275 133.433L91.078 133.705C90.9408 133.756 90.8038 133.811 90.6563 133.825C89.6388 133.921 88.8175 133.261 88.1185 132.626Z" fill="white"/>
<path d="M102.061 125.175C103.569 125.635 104.655 127.267 105.393 128.595L105.375 129.112L105.281 129.148C105.026 128.724 104.838 128.268 104.559 127.858C103.853 126.821 102.993 126.174 101.875 125.65C102.028 125.645 102.258 125.622 102.407 125.667L102.563 125.731L102.704 125.613C102.466 125.51 102.315 125.407 102.123 125.232L102.061 125.175Z" fill="#D3D2D2"/>
<path d="M86.8493 128.064C86.9366 128.243 86.8903 128.228 87.0938 128.308C87.7471 127.24 88.6681 125.814 89.8281 125.247C90.5923 124.874 91.6626 124.932 92.4973 124.927L96.0856 124.926L99.4861 124.941C100.315 124.949 101.271 124.91 102.061 125.175L102.123 125.232C102.315 125.407 102.466 125.51 102.704 125.613L102.563 125.731L102.407 125.667C102.258 125.622 102.028 125.645 101.875 125.65L101.248 125.531C99.7898 125.239 98.1178 125.38 96.6258 125.373L93.3316 125.366C92.4818 125.367 91.6238 125.351 90.7971 125.568L90.6416 125.606C89.3576 125.935 88.7836 126.629 87.9856 127.62C87.7278 127.94 87.4056 128.282 87.2063 128.642L86.8321 129.477L86.7203 128.03L86.7191 127.968L86.8493 128.064Z" fill="url(#paint13_linear_1201_3)"/>
<path d="M87.5856 123.765C87.9696 123.271 88.5208 122.904 89.0043 122.511C90.9658 120.917 93.5558 120.608 95.9961 120.608C96.7161 120.609 97.4466 120.588 98.1628 120.67C100.048 120.888 101.524 121.329 103.09 122.431C103.481 122.707 103.845 122.932 104.157 123.304C103.955 123.342 103.891 123.395 103.702 123.302C103.354 123.131 102.988 122.963 102.604 122.895C100.51 122.526 98.2498 122.661 96.1271 122.653L92.3216 122.659C91.3201 122.674 90.1911 122.683 89.2431 123.038C88.6661 123.254 88.1923 123.664 87.5856 123.765Z" fill="url(#paint14_linear_1201_3)"/>
<path d="M87.5856 123.765C88.1923 123.664 88.6661 123.254 89.2431 123.038C90.1911 122.683 91.3201 122.674 92.3216 122.659L96.1271 122.653C98.2498 122.661 100.51 122.526 102.604 122.895C102.988 122.963 103.354 123.131 103.702 123.302C103.891 123.395 103.955 123.342 104.157 123.304C104.844 123.929 105.764 124.671 105.843 125.675C105.903 126.444 105.78 127.212 105.615 127.959C104.791 126.553 103.978 125.174 102.281 124.735C100.211 124.199 97.7108 124.421 95.5761 124.424C93.9708 124.427 92.2461 124.328 90.6578 124.555C90.1348 124.629 89.6883 124.757 89.2338 125.033C88.1548 125.69 87.2128 126.858 86.8493 128.064L86.7191 127.968C86.6446 126.978 86.5148 125.835 86.8841 124.887C87.0451 124.474 87.3241 124.118 87.5856 123.765Z" fill="white"/>
<path d="M108.112 146.228C109.327 144.925 110.279 143.421 111.404 142.043C112.675 140.486 114.168 139.12 115.386 137.514C116.367 136.221 117.081 134.743 117.851 133.324C118.427 132.265 119.106 130.96 119.375 129.785C119.601 128.799 119.736 127.744 119.685 126.731C119.613 125.276 118.789 123.581 119.631 122.223C120.039 121.567 120.97 121.008 121.717 120.838C122.005 120.772 122.356 120.742 122.604 120.926C123.472 121.574 123.768 123.376 123.911 124.389C123.992 125.575 124.115 127.201 123.666 128.313L121.198 136.377L120.506 138.88L120.327 139.303C119.457 141.347 118.159 143.407 116.699 145.08C116.885 145.08 117.109 144.798 117.245 144.656C117.5 144.391 117.271 144.653 117.445 144.352C117.6 144.086 117.858 143.847 118.031 143.577L118.595 142.733C118.729 142.532 118.829 142.319 118.969 142.121C119.415 141.492 120.119 140.418 120.303 139.681C120.339 139.54 120.408 139.434 120.469 139.303L120.563 139.069L120.633 138.904L120.752 138.504C120.813 138.319 120.846 138.148 120.914 137.965L121.052 137.357C121.156 136.837 121.332 136.313 121.477 135.804C121.526 135.631 121.534 135.489 121.594 135.311C121.694 135.012 121.741 134.694 121.852 134.395L121.945 134.014C121.987 133.805 121.945 133.998 122.039 133.738C122.201 133.294 122.281 132.823 122.476 132.393C122.551 132.228 122.525 132.3 122.54 132.132C122.558 131.934 122.686 131.647 122.742 131.437C122.804 131.205 122.924 130.941 123.002 130.707C123.08 130.472 123.121 130.276 123.226 130.045C123.296 129.89 123.264 129.799 123.305 129.652C123.347 129.499 123.433 129.36 123.476 129.201C123.527 129.013 123.497 129.107 123.589 128.924C123.677 128.748 123.651 128.832 123.667 128.655C123.688 128.419 123.906 127.868 124.031 127.656L123.938 127.421L124.125 127.373L124.173 127.421H124.313C124.633 127.094 124.963 126.664 125.367 126.458L125.531 126.341L125.959 126.05C126.099 125.956 126.153 125.98 126.281 125.918L126.469 125.777L126.774 125.613L127.125 125.401L127.21 125.381C127.509 125.306 127.781 125.099 128.067 124.978L128.033 124.881C129.968 123.82 132.087 123.31 133.723 121.771L133.888 122.127C133.889 123.374 133.861 124.526 133.525 125.74C133.285 126.605 132.836 127.428 132.424 128.224C131.276 130.444 129.862 132.481 128.196 134.342L127.384 135.463C126.24 137.092 125.052 138.693 123.691 140.148L121.864 142.027C121.578 142.305 121.106 142.642 120.896 142.961L120.398 142.935C119.589 143.782 118.547 144.521 117.636 145.263L112.749 149.377L113.455 148.294C114.658 146.339 115.525 144.171 116.525 142.109C118.502 138.035 120.893 134.01 121.179 129.378C121.246 128.301 121.246 127.207 120.997 126.153L120.935 126.304C120.91 128.827 120.545 131.243 119.615 133.604C117.721 138.412 113.809 142.215 110.192 145.771C107.597 148.323 104.64 150.983 101.139 152.164C99.5115 152.713 97.7033 152.913 95.9913 152.896C91.7053 152.852 87.964 151.176 84.8558 148.248C85.424 148.399 85.6135 148.691 86.086 149.026L86.1093 148.666C85.819 148.513 85.5468 148.349 85.4233 148.03C85.2413 147.56 84.8335 147.187 84.4973 146.819C83.8673 146.129 83.0275 145.298 82.6133 144.465C82.5438 144.325 82.507 144.241 82.4028 144.118C81.9915 143.631 81.5735 143.159 81.223 142.625L81.8905 143.295L81.968 143.436C82.1978 143.718 82.455 143.985 82.7885 144.137L82.8668 144.171L83.6683 145.015C83.7838 144.928 83.7938 144.938 83.8688 144.818C84.2598 144.193 83.3913 142.27 83.1953 141.558C83.1178 141.277 83.0003 140.602 83.1415 140.331L83.387 139.902C87.3643 143.207 93.3705 144.646 98.4755 144.164C102.259 143.807 105.734 142.239 108.625 139.81L108.641 140.03C108.78 139.899 108.835 139.773 109.032 139.773C109.032 139.947 109.043 139.853 108.985 140.055L109.067 140.341C109.144 140.668 108.985 141.179 108.914 141.505C108.625 142.832 108.15 144.058 108.075 145.427C108.06 145.691 108.013 145.982 108.112 146.228Z" fill="url(#paint15_linear_1201_3)"/>
<path d="M125.463 136.872C126.915 134.422 128.494 131.635 128.939 128.793L129.059 128.796C129.016 129.944 128.904 131.052 128.655 132.177L128.285 133.527C128.244 133.653 128.102 133.953 128.102 134.072C128.102 134.167 128.164 134.252 128.196 134.342L127.384 135.463C126.24 137.092 125.052 138.693 123.691 140.148L121.864 142.027C121.578 142.304 121.106 142.642 120.896 142.961L120.398 142.935C122.319 141.041 123.91 139.078 125.463 136.872Z" fill="url(#paint16_linear_1201_3)"/>
<path d="M90.2983 149.757C91.7993 150.036 93.2078 150.331 94.7388 150.434C97.9275 150.648 101.486 150.128 104.512 149.082L104.485 149.354L104.592 149.452C104.308 149.754 103.911 149.819 103.552 150.009C103.065 150.267 102.516 150.385 101.993 150.549C100.02 151.168 98.2425 151.406 96.1875 151.482C95.0113 151.526 93.8488 151.564 92.682 151.371C91.7393 151.216 90.5475 150.981 89.836 150.294L89.6525 150.327C89.4138 150.177 89.2715 150.117 89.2025 149.818C89.185 149.743 89.2058 149.662 89.219 149.589C89.4013 149.632 89.5533 149.674 89.728 149.736C89.9153 149.803 90.1043 149.773 90.2983 149.757Z" fill="#B7B6B6"/>
<path d="M108.625 139.81L108.641 140.03C108.78 139.899 108.835 139.773 109.032 139.773C109.032 139.947 109.043 139.853 108.985 140.055L109.067 140.341C109.144 140.668 108.985 141.179 108.914 141.505C108.625 142.832 108.15 144.058 108.075 145.427C108.06 145.691 108.013 145.982 108.112 146.228C107.714 146.799 107.16 147.361 106.601 147.767L106.031 148.189L105.894 148.282L105.281 148.651C105.022 148.805 104.752 148.894 104.512 149.082C101.486 150.128 97.9275 150.648 94.7388 150.434C93.2078 150.331 91.7993 150.036 90.2983 149.757C89.6523 149.474 88.9455 149.35 88.3008 149.041C87.523 148.669 86.829 148.027 86.1798 147.465C85.298 146.701 84.3885 145.939 83.6683 145.015C83.7838 144.928 83.7938 144.938 83.8688 144.818C84.2598 144.193 83.3913 142.27 83.1953 141.558C83.1178 141.277 83.0003 140.602 83.1415 140.331L83.387 139.902C87.3643 143.207 93.3705 144.646 98.4755 144.164C102.259 143.807 105.734 142.239 108.625 139.81Z" fill="#D3D2D2"/>
<path d="M65.8448 69.1015C66.4278 68.1604 67.5563 67.3037 68.416 66.6164C73.7435 62.3563 80.5198 59.4211 87.1333 57.8808C93.006 56.5132 99.3888 56.1975 105.328 57.3583C107.831 57.8475 110.225 58.6228 112.594 59.5621C114.688 60.392 116.736 61.3238 118.648 62.5214C120.831 63.8886 123.084 65.5243 124.975 67.2769C125.592 67.8493 126.106 68.5169 126.717 69.087C126.874 69.2338 126.951 69.375 127.048 69.5662C128.597 70.7147 129.944 72.0493 131.193 73.5159C131.825 74.2573 132.403 75.096 133.112 75.761C133.51 75.9028 133.919 76.4697 134.175 76.7988C135.707 78.7714 136.724 81.0762 137.956 83.2351C138.857 84.815 139.924 86.2605 141.141 87.6079C142.044 88.6069 142.96 89.5888 143.946 90.5068L147.177 93.3724C148.072 94.1499 149.251 95.0374 149.781 96.1105C150.303 97.1686 150.592 98.4867 150.885 99.6279L152.112 104.22L152.715 106.177C152.826 106.515 153.007 106.92 153.045 107.27C152.606 106.599 152.172 105.922 151.659 105.305C151.141 104.682 150.551 104.109 150.063 103.462C149.705 102.987 149.422 102.464 149.1 101.965C148.897 101.976 148.891 101.943 148.728 102.084C147.365 99.3143 146.124 96.8217 143.975 94.5447C143.506 94.0482 142.924 93.4203 142.325 93.0886L142.729 100.106C142.792 100.762 142.873 101.439 143.008 102.083C143.079 102.422 143.242 102.798 143.219 103.143L142.988 102.736C142.123 101.291 140.541 100.533 138.959 100.133C137.047 99.6487 134.971 99.6384 133.017 99.7614C128.208 100.064 123.177 101.375 119.033 103.889C116.772 105.261 114.957 107.026 114.323 109.66C114.054 110.775 114.173 111.848 114.439 112.952C115.113 115.748 116.665 118.381 118.155 120.813C115.855 118.817 113.435 117.007 110.982 115.209C108.765 113.584 106.202 111.337 103.482 110.729C102.215 110.447 100.974 110.58 99.886 111.309C97.635 112.816 96.5645 115.867 96.113 118.405C95.8755 115.955 94.4925 113.043 92.7438 111.286C91.9245 110.463 90.9005 109.971 89.7313 109.98C88.7548 109.988 87.8673 110.331 87.0148 110.778C84.4648 112.115 82.1148 114.157 79.8538 115.94C77.786 117.57 75.659 119.121 73.8123 121.008C73.9968 120.387 74.759 119.553 75.1163 118.977C76.182 117.257 77.0168 115.578 77.6185 113.645C78.0183 112.361 78.314 111.064 78.0898 109.714C77.74 107.61 76.0338 105.739 74.3603 104.548C72.9413 103.538 71.2923 102.801 69.679 102.164C64.893 100.276 59.3 99.2254 54.1758 100.111C52.2123 100.45 50.243 101.074 49.0545 102.773L49.5065 93.4997C49.0322 93.8253 48.5507 94.4443 48.1607 94.8811C46.7892 96.4176 45.5497 98.0368 44.3825 99.7331C43.997 100.293 43.679 100.946 43.2582 101.473L43.1845 101.559L42.996 101.547C41.616 102.782 40.3302 104.099 39.1122 105.496L37.4977 107.456L38.5722 103.348L39.8442 99.0999C40.132 98.2677 40.4057 97.4066 40.8792 96.6576C41.5035 95.6704 42.7255 94.9412 43.6655 94.2837C44.9547 93.3817 46.2755 92.4997 47.4902 91.498C48.789 90.4269 49.9517 89.1807 51.0817 87.9358C53.6945 85.0569 55.2858 81.4429 57.344 78.1702C57.8803 77.3178 58.4145 76.3171 59.1095 75.5907C61.0593 73.0267 63.0528 70.7758 65.8448 69.1015Z" fill="url(#paint17_linear_1201_3)"/>
<path d="M119.781 86.9571C120.276 86.7622 120.687 86.4794 121.159 86.2648C121.692 86.0218 122.265 85.735 122.745 85.3983L122.828 85.3375L122.844 85.5328C122.346 85.867 121.383 86.2016 121.032 86.6408L121.128 86.7217C121.042 86.9065 120.944 87.0075 120.797 87.1467L120.796 87.2236L120.532 87.3552C119.972 87.4285 119.442 87.672 118.875 87.7031L118.839 87.6304C119.093 87.2923 119.416 87.149 119.781 86.9571Z" fill="#393B46"/>
<path d="M122.844 85.5329C124.491 84.6276 125.799 83.7053 127.688 83.2937C130.197 82.7464 132.05 83.4255 134.341 84.333C134.957 84.577 135.675 84.7506 136.234 85.097L136.592 85.1669C136.276 85.3615 135.881 85.3498 135.53 85.4645C134.657 85.7503 133.831 86.1711 132.957 86.4567C132.342 86.6573 131.594 86.6994 131.017 86.9632C130.924 87.0055 130.818 87.1165 130.746 87.1828C130.277 87.3093 129.747 87.2582 129.262 87.251L125.746 87.1069L120.532 87.3552L120.796 87.2237L120.797 87.1468C120.944 87.0075 121.042 86.9066 121.128 86.7217L121.032 86.6408C121.383 86.2017 122.346 85.867 122.844 85.5329Z" fill="#747373"/>
<path d="M121.128 86.7217C121.963 86.4023 122.968 86.2781 123.852 86.1756C126.231 85.8993 128.605 86.0431 130.975 85.7996C132.751 85.6173 134.438 85.0494 136.234 85.097L136.592 85.1669C136.276 85.3615 135.881 85.3497 135.53 85.4645C134.657 85.7503 133.831 86.1711 132.957 86.4567C132.342 86.6573 131.594 86.6994 131.017 86.9631C130.924 87.0055 130.818 87.1164 130.746 87.1828C130.277 87.3093 129.747 87.2582 129.262 87.251L125.746 87.1069L120.532 87.3552L120.796 87.2237L120.797 87.1468C120.944 87.0075 121.042 86.9065 121.128 86.7217Z" fill="#2A2B36"/>
<path d="M112.14 91.5691C112.728 91.4497 113.156 90.9775 113.607 90.6025C115.192 89.2854 116.541 87.8389 117.979 86.3717C118.42 85.9216 119.488 84.8665 120.121 84.863C120.134 85.1281 120.168 85.4114 120.118 85.6726C120.021 86.1656 120.007 86.4739 119.781 86.9571C119.416 87.149 119.093 87.2923 118.839 87.6304L118.875 87.7031C119.442 87.672 119.972 87.4286 120.532 87.3552L125.746 87.1069L129.262 87.2509C129.747 87.2582 130.277 87.3093 130.746 87.1828C131.435 87.124 132.164 87.0741 132.833 86.9035C133.295 86.786 133.729 86.5669 134.185 86.4261C133.028 87.537 132.022 88.7667 130.913 89.9209L126.91 93.7832C124.387 96.1298 121.603 98.7965 118.266 99.8736C116.325 100.5 114.253 100.549 112.233 100.505L110.11 100.456C109.954 100.458 109.58 100.446 109.455 100.511C109.082 100.704 108.642 101.166 108.337 101.455L104.197 106.224L102.727 108.299C102.922 107.557 103.29 106.806 103.574 106.091C103.616 104.912 104.545 103.409 104.981 102.293C105.407 101.201 105.76 100.111 105.955 98.9546C106.051 98.3822 106.06 97.7625 106.046 97.1831C106.04 96.9056 105.942 96.3881 106.04 96.1408C106.101 95.9898 106.295 95.7871 106.395 95.6486C107.426 95.5021 108.214 95.1138 109.102 94.6041C110.281 93.7369 111.221 92.7008 112.14 91.5691Z" fill="#030713"/>
<path d="M106.395 95.6486C107.426 95.5021 108.214 95.1138 109.102 94.6041C108.917 95.9655 108.387 97.2467 107.835 98.4959C106.696 101.071 105.213 103.504 103.814 105.944L103.574 106.091C103.616 104.912 104.545 103.409 104.981 102.293C105.407 101.201 105.76 100.111 105.955 98.9546C106.051 98.3822 106.06 97.7625 106.046 97.1831C106.04 96.9056 105.942 96.3881 106.04 96.1408C106.101 95.9898 106.295 95.7871 106.395 95.6486Z" fill="#2A2B36"/>
<path d="M126.15 88.0513L127.1 87.9844C126.703 91.2119 125.424 94.2143 123.047 96.4905C119.552 99.837 115.609 100.066 111.032 99.9422L109.892 99.9234C111.089 97.8992 112.055 95.7641 113.514 93.9009C115.156 91.8033 117.178 90.2904 119.672 89.3646C121.714 88.6068 123.997 88.314 126.15 88.0513Z" fill="#0090F9"/>
<path d="M55.6998 85.5358C55.501 85.4474 55.572 85.5168 55.4763 85.3387C56.5413 84.9297 57.475 84.2872 58.4985 83.7999C61.0515 82.5848 63.7573 82.7091 66.3605 83.6559L66.4435 83.5472C67.4008 84.0104 68.2215 84.5935 69.1405 85.1037L69.7173 85.4925L70.181 84.5935L70.7813 85.0496L73.2195 87.2251C74.0695 87.9135 74.9993 88.435 75.8918 89.0557L78.1288 90.6238C78.5895 90.9346 79.0318 91.2926 79.5975 91.3565C80.8415 92.6798 82.1105 93.9846 83.685 94.9152C83.9473 96.3735 84.2538 97.8935 84.7608 99.2877C85.3825 100.998 86.2895 102.602 87.197 104.172C88.0473 105.643 89.049 107.171 89.5553 108.794L82.4585 100.504C82.115 100.588 81.7783 100.615 81.4263 100.64C79.0783 100.806 76.339 100.848 74.04 100.278C71.6438 99.6842 69.4343 98.2817 67.503 96.778C64.8168 94.687 62.3478 92.2106 59.983 89.7618C58.8683 88.6078 57.8518 87.3088 56.6445 86.2545L56.6305 86.2567C56.29 86.0363 55.9855 85.8254 55.6998 85.5358Z" fill="#030713"/>
<path d="M55.6998 85.5358C55.501 85.4474 55.572 85.5168 55.4763 85.3387C56.5413 84.9297 57.475 84.2872 58.4985 83.7999C61.0515 82.5848 63.7573 82.7091 66.3605 83.6559L66.4435 83.5472C67.4008 84.0104 68.2215 84.5935 69.1405 85.1037L69.7173 85.4925L69.8128 85.5712C69.9738 85.6989 70.1388 85.7798 70.312 85.8858C70.6005 86.0626 70.859 86.276 71.1558 86.4494C71.64 86.7327 71.9215 86.9939 72.2438 87.4458C69.08 87.0696 65.9343 87.292 62.7675 87.1425L60.582 86.9541C60.202 86.9048 59.4933 86.7089 59.1523 86.8416L59.2545 87.0295L59.1095 87.1816C58.3653 86.7279 57.6348 86.4524 56.8135 86.1701L56.6445 86.2545L56.6305 86.2567C56.29 86.0363 55.9855 85.8254 55.6998 85.5358Z" fill="#747373"/>
<path d="M66.3605 83.6559L66.4435 83.5472C67.4008 84.0104 68.2215 84.5935 69.1405 85.1037L69.7173 85.4925L69.8128 85.5712C69.9738 85.6989 70.1388 85.7798 70.312 85.8858C70.6005 86.0626 70.859 86.276 71.1558 86.4494C71.64 86.7327 71.9215 86.9939 72.2438 87.4458C69.08 87.0696 65.9343 87.292 62.7675 87.1425L60.582 86.9541C60.202 86.9048 59.4933 86.7089 59.1523 86.8416L59.2545 87.0295L59.1095 87.1816C58.3653 86.7279 57.6348 86.4524 56.8135 86.1701L56.6445 86.2545L56.6305 86.2568C56.29 86.0363 55.9855 85.8254 55.6998 85.5358C56.6578 85.7618 57.697 85.757 58.6783 85.7858L64.5473 85.8502C66.2093 85.866 68.1153 85.8334 69.707 86.3615L71.5813 87.0453C71.3128 86.7607 70.9163 86.5488 70.5938 86.3284L68.7538 85.0384L66.3605 83.6559Z" fill="#2A2B36"/>
<path d="M64.5165 88.5457L70.4063 89.3302C74.3018 90.2277 77.3335 92.2036 79.371 95.7017C80.1788 97.0884 80.8188 98.552 81.6738 99.9147C76.9788 100.2 72.7423 100.1 68.8795 97.0423C66.1718 94.8989 64.9103 91.912 64.5165 88.5457Z" fill="#0090F9"/>
<path d="M65.8447 69.1015C67.8587 68.7105 69.8338 68.9477 71.8215 69.3858C74.4188 69.9582 76.835 70.8191 79.0523 72.317C80.5128 73.3037 81.7405 74.4903 82.9145 75.7976C83.4278 76.369 83.9858 77.1683 84.5943 77.6166C83.8583 76.4326 83.3393 75.1927 82.698 73.9602C81.7225 72.0858 80.4955 70.5478 78.9585 69.109C80.4805 69.6724 82.0685 70.1766 83.4925 70.9639C87.7843 73.3365 90.8923 78.042 92.9128 82.4138C93.9653 84.6905 94.496 86.8705 94.721 89.3616C93.9435 88.666 93.3183 87.8484 92.645 87.0558L90.058 84.2133C91.096 85.7921 91.7953 87.4659 92.112 89.3328C92.2305 90.8092 92.0965 92.4025 91.0803 93.5763C90.3248 94.4488 89.3663 94.961 88.2655 95.2579L88.096 95.3047C86.587 95.7017 85.1085 95.476 83.685 94.9152C82.1105 93.9846 80.8415 92.6798 79.5975 91.3565L78.1583 89.3448C77.2708 87.9734 76.5563 86.5213 75.864 85.0444C75.2075 83.6437 74.6732 82.3309 74.493 80.7828L74.3348 80.7182C74.3715 82.4163 74.5483 84.1512 74.9193 85.8089C74.621 85.5697 74.3843 85.2145 74.1408 84.9162L72.5555 82.9433C70.0655 79.8753 67.5095 76.9589 65.4632 73.5607C63.4357 73.2564 61.759 74.3913 60.0615 75.2736C59.7772 75.4216 59.4165 75.6881 59.1095 75.5907C61.0592 73.0267 63.0527 70.7758 65.8447 69.1015Z" fill="white"/>
<path d="M99.5895 90.5852L99.4888 90.0354C99.29 88.322 100.084 86.2142 101.108 84.8688L101.016 84.7759L96.6705 89.3172C97.3098 86.8645 98.0295 84.3618 99.1005 82.0613C101.148 77.664 104.368 73.1148 108.68 70.7452C109.846 70.1047 111.147 69.6736 112.394 69.22L107.151 77.665C107.844 77.2354 108.537 76.273 109.123 75.6626C111.266 73.4307 113.498 71.6996 116.375 70.4932C119.434 69.2105 123.901 68.2832 127.048 69.5662C128.597 70.7147 129.944 72.0493 131.193 73.5159C131.825 74.2573 132.403 75.096 133.112 75.761L132.881 75.8512C131.08 74.7653 128.901 73.8022 126.807 73.4763C124.817 76.9749 122.11 79.7117 119.456 82.6838L116.346 86.3913L117.097 79.3017L116.759 80.1731C116.52 82.1495 115.875 83.8551 115.11 85.6764C114.239 87.7507 113.287 89.6304 112.14 91.5691C111.221 92.7009 110.281 93.7369 109.102 94.6041C108.214 95.1138 107.426 95.5021 106.395 95.6486C104.928 95.7167 103.64 95.4828 102.373 94.7185C100.85 93.8003 100.002 92.2785 99.5895 90.5852Z" fill="white"/>
<defs>
<linearGradient id="paint0_linear_1201_3" x1="42.326" y1="11.9707" x2="42.4914" y2="13.6757" gradientUnits="userSpaceOnUse">
<stop stop-color="#767476"/>
<stop offset="1" stop-color="#898989"/>
</linearGradient>
<linearGradient id="paint1_linear_1201_3" x1="132.544" y1="39.8753" x2="137.804" y2="30.0748" gradientUnits="userSpaceOnUse">
<stop stop-color="#1E202A"/>
<stop offset="1" stop-color="#393839"/>
</linearGradient>
<linearGradient id="paint2_linear_1201_3" x1="54.9072" y1="18.0669" x2="50.0907" y2="30.6085" gradientUnits="userSpaceOnUse">
<stop stop-color="#8F9091"/>
<stop offset="1" stop-color="#C2C0BF"/>
</linearGradient>
<linearGradient id="paint3_linear_1201_3" x1="137.241" y1="19.0706" x2="143.285" y2="27.7715" gradientUnits="userSpaceOnUse">
<stop stop-color="#999799"/>
<stop offset="1" stop-color="#C2C1C0"/>
</linearGradient>
<linearGradient id="paint4_linear_1201_3" x1="163.243" y1="35.117" x2="144.996" y2="52.9295" gradientUnits="userSpaceOnUse">
<stop stop-color="#25272F"/>
<stop offset="1" stop-color="#43434F"/>
</linearGradient>
<linearGradient id="paint5_linear_1201_3" x1="95.8963" y1="24.2674" x2="96.0588" y2="7.69393" gradientUnits="userSpaceOnUse">
<stop stop-color="#007CE2"/>
<stop offset="1" stop-color="#49CBFF"/>
</linearGradient>
<linearGradient id="paint6_linear_1201_3" x1="126.471" y1="30.5665" x2="123.361" y2="35.142" gradientUnits="userSpaceOnUse">
<stop stop-color="#002C79"/>
<stop offset="1" stop-color="#004785"/>
</linearGradient>
<linearGradient id="paint7_linear_1201_3" x1="32.8115" y1="102.92" x2="30.9269" y2="94.697" gradientUnits="userSpaceOnUse">
<stop stop-color="#031C45"/>
<stop offset="1" stop-color="#003974"/>
</linearGradient>
<linearGradient id="paint8_linear_1201_3" x1="127.528" y1="60.5721" x2="112.813" y2="71.0021" gradientUnits="userSpaceOnUse">
<stop stop-color="#003672"/>
<stop offset="1" stop-color="#1265A0"/>
</linearGradient>
<linearGradient id="paint9_linear_1201_3" x1="54.9279" y1="169.897" x2="63.7931" y2="122.618" gradientUnits="userSpaceOnUse">
<stop stop-color="#1F90E3"/>
<stop offset="1" stop-color="#54F9FF"/>
</linearGradient>
<linearGradient id="paint10_linear_1201_3" x1="98.2448" y1="55.0815" x2="98.2795" y2="52.0513" gradientUnits="userSpaceOnUse">
<stop stop-color="#0065B4"/>
<stop offset="1" stop-color="#1782CA"/>
</linearGradient>
<linearGradient id="paint11_linear_1201_3" x1="140.816" y1="159.419" x2="130.097" y2="130.06" gradientUnits="userSpaceOnUse">
<stop stop-color="#009BFF"/>
<stop offset="1" stop-color="#88FDFF"/>
</linearGradient>
<linearGradient id="paint12_linear_1201_3" x1="135.673" y1="142.946" x2="133.91" y2="108.032" gradientUnits="userSpaceOnUse">
<stop/>
<stop offset="1" stop-color="#2B2D34"/>
</linearGradient>
<linearGradient id="paint13_linear_1201_3" x1="95.9259" y1="126.069" x2="95.8521" y2="124.8" gradientUnits="userSpaceOnUse">
<stop stop-color="#CCCBC9"/>
<stop offset="1" stop-color="#F0EFF6"/>
</linearGradient>
<linearGradient id="paint14_linear_1201_3" x1="96.1644" y1="120.581" x2="95.9058" y2="123.057" gradientUnits="userSpaceOnUse">
<stop stop-color="#353536"/>
<stop offset="1" stop-color="#504F50"/>
</linearGradient>
<linearGradient id="paint15_linear_1201_3" x1="89.3628" y1="125.773" x2="125.095" y2="143.142" gradientUnits="userSpaceOnUse">
<stop stop-color="#7E7C7C"/>
<stop offset="1" stop-color="white"/>
</linearGradient>
<linearGradient id="paint16_linear_1201_3" x1="126.681" y1="138.498" x2="122.819" y2="133.346" gradientUnits="userSpaceOnUse">
<stop stop-color="#606367"/>
<stop offset="1" stop-color="#E8DDD3"/>
</linearGradient>
<linearGradient id="paint17_linear_1201_3" x1="92.9662" y1="56.9006" x2="95.739" y2="120.605" gradientUnits="userSpaceOnUse">
<stop stop-color="#393A3E"/>
<stop offset="1" stop-color="#5A5959"/>
</linearGradient>
</defs>
</svg>
