<svg width="768" height="1004" viewBox="0 0 768 1004" fill="none" xmlns="http://www.w3.org/2000/svg">
<path d="M162.571 135.825L255.855 206.755C260.927 210.487 265.827 213.363 271.67 215.708C272.105 215.882 273.777 216.707 274.153 216.679C274.46 216.656 278.646 212.574 279.275 212.026L291.307 202.081L324.619 175.653C333.842 168.482 342.898 161.051 353.261 155.552C359.697 152.136 366.841 149.945 374.041 148.896C383.909 147.458 395.339 147.862 404.785 151.289C418.694 156.337 431.127 167.14 442.593 176.275L475.923 203.52L493.049 217.438C496.107 216.487 498.777 215.117 501.479 213.426C509.368 208.49 516.691 202.189 524.054 196.488L567.517 162.377C579.433 153.042 591.612 143.785 604.445 135.743L620.858 170.875C626.072 183.414 630.434 196.222 633.373 209.496C637.695 229.016 639.033 248.8 638.891 268.748C638.747 289.043 636.92 309.771 632.493 329.582C629.068 344.907 623.963 359.942 617.991 374.454C618.673 380.541 620.294 386.577 621.704 392.531C626.956 414.709 633.853 438.875 647.258 457.633C653.244 466.008 660.556 472.728 668.37 479.319L682.752 490.923C691.57 498.433 699.553 506.618 705.83 516.426C725.242 546.756 718.848 584.437 711.547 617.505C712.904 617.79 714.824 617.369 716.206 617.142C726.039 615.523 739.745 612.425 745.81 603.815L746.149 603.328C744.53 610.519 743.782 617.749 741.219 624.72C735.265 640.918 724.001 657.379 709.777 667.431C706.197 669.96 702.309 671.788 698.353 673.627L710.723 672.994C715.761 672.769 720.019 672.935 724.74 670.947L699.936 695.897C679.857 715.189 657.493 730.826 632.722 743.457L602.388 757.686L560.607 773.819C545.41 779.909 530.745 786.823 516.207 794.357L427.963 842.817L401.98 858.214C396.425 861.559 390.376 865.862 384.311 868.107C380.286 866.799 376.177 863.885 372.438 861.868L349.33 849.617L292.125 820.208L239.086 791.488L170.125 757.411C148.733 747.135 126.578 736.767 106.626 723.861C91.1727 713.864 76.5665 702.297 63.0263 689.835C56.673 683.987 50.7836 677.378 44.2074 671.834L43.7451 671.448C51.4838 674.124 59.5912 673.514 67.6071 672.509L59.611 667.282C47.9823 658.947 38.706 648.781 31.5524 636.337C28.7497 631.462 26.2021 626.388 24.6546 620.959C22.9842 615.099 22.5262 608.967 21.5383 602.967L22.3202 603.993C24.7956 607.08 27.7037 608.532 31.2407 610.081C38.9282 613.448 47.6849 615.281 55.9932 616.246L51.829 599.303C49.8899 590.383 48.6533 581.065 48.3154 571.929C47.9263 561.411 48.6378 550.721 51.4455 540.544C56.8431 520.981 69.6912 504.95 84.6881 491.753C95.4381 482.292 106.481 473.622 115.59 462.433C130.196 444.492 138.757 423.041 144.518 400.807L148.495 383.198C149.062 380.565 150.211 377.127 149.987 374.448C149.825 372.525 148.857 370.583 148.121 368.823L144.521 359.884L139.084 342.579C132.301 317.716 129.343 293.079 129.167 267.328C129.071 253.174 129.647 239.12 131.815 225.116C135.371 202.149 142.043 180.753 151.507 159.588C155.062 151.639 159.737 144.065 162.571 135.825Z" fill="#030713"/>
<path d="M164.272 187.803C165.659 182.912 168.658 177.82 170.953 173.276L171.438 173.471L172.294 175.569L172.127 176.32C171.863 177.571 171.852 178.844 171.812 180.117L171.519 180.282C169.58 181.429 167.689 185 166.094 186.856L166.188 186.239C166.238 185.632 166.3 185.787 166.003 185.482L165.702 186.187C165.351 186.977 164.992 187.314 164.272 187.803Z" fill="url(#paint0_linear_1201_82)"/>
<path d="M247.485 213.39C251.036 215.535 255.105 218.274 259.145 219.31L256.835 244.207C256.572 248.759 256.719 253.524 255.85 258.005C253.186 256.135 250.38 254.209 248.056 251.926C248.479 251.306 248.589 250.932 248.634 250.179C248.894 245.74 248.131 241.216 248.067 236.775C247.956 229.159 248.868 220.863 247.485 213.39Z" fill="#2A2B36"/>
<path d="M47.8899 640.637C43.4275 635.529 39.8635 630.078 36.6555 624.113C45.9422 626.968 55.1254 628.995 64.8712 629.252L66.0081 629.915L65.9926 630.576C65.9538 635.792 68.4523 640.228 68.9544 645.294C69.0543 646.301 69.2864 647.354 68.7792 648.275L56.6181 644.078C53.7459 642.975 50.8565 641.363 47.8899 640.637Z" fill="#66D4FF"/>
<path d="M167.355 357.857L169.188 360.395C170.867 360.384 175.081 355.546 176.369 354.181C177.353 353.138 176.474 354.158 177.156 352.97C177.872 351.726 179.363 350.953 180.156 349.589L181.375 348.368L181.377 347.899C182.194 347.165 182.607 346.77 183.156 345.832C183.591 345.088 184.213 344.841 184.656 343.953C184.859 343.548 185.255 343.146 185.535 342.803C185.955 342.289 186.269 341.784 186.625 341.229C187.068 340.539 186.902 340.794 187.404 340.179C187.826 339.661 188.142 339.158 188.5 338.599L190.756 335.223L191.447 334.037C191.979 333.048 192.707 332.171 193.281 331.178L193.75 330.521L194.102 329.981L196 327.327L196.656 326.482C196.16 326.126 196.172 326.062 195.561 326.006C194.578 325.917 192.395 325.017 191.5 324.509L187.51 322.495C186.186 321.892 185.208 320.87 183.812 320.376L184.184 321.316C183.187 322.113 183.039 322.077 181.75 322.162L182.684 323.193L182.594 324.039L183.156 324.415L183.437 323.949C183.99 324.503 184.182 324.44 184.188 325.26C184.627 326.047 185.103 326.647 185.684 327.327C185.684 328.589 185.095 328.428 185.309 329.957L184.375 330.708L184.373 331.178L184.092 331.648L183.812 332.208L183.25 332.211L183.248 332.773L182.5 332.962L182.498 333.524C182.063 333.524 182.293 333.581 181.844 333.245C181.179 333.957 180.831 334.566 179.875 334.842L179.873 335.403L179.125 335.968L179.123 336.438L178.844 336.814L179.309 337.284V338.223L178.75 338.503L178.188 338.035L177.627 338.033C177.044 337.423 177.026 337.278 176.688 336.532L176.408 336.157L176.125 335.594H175.75L178 340.29L178.082 340.63C178.423 341.997 180.127 343.669 179.688 344.983C179.107 344.3 178.765 343.721 178.377 342.918L171.441 329.018L171.252 328.548L169.752 325.258L169.002 323.663L168.814 323.3C168.344 322.358 168.958 323.605 168.441 322.254L167.502 319.998L166.377 317.368L165.615 315.149C165.161 313.568 165.781 315.543 165.066 313.988C164.741 313.281 164.778 312.806 164.316 312.11L164.312 311.358L163.941 310.982L163.881 310.697L162.236 305.993C161.849 305.023 161.318 303.355 161.312 302.341L160.941 301.965L160.87 301.658C160.151 298.799 158.953 296.026 158.221 293.147C157.986 292.227 157.883 291.627 158.127 290.695H158.406L158.691 291.257C158.77 290.183 158.811 289.113 159.062 288.063L159.809 288.251C159.917 288.88 159.881 289.322 159.911 289.941C159.989 291.515 161.343 293.662 162.062 295.049C167.19 304.941 174.894 313.361 184.066 319.621C188.385 322.569 192.772 324.766 197.867 326.016C190.303 335.602 184.673 346.182 176.096 355.083C173.938 357.323 171.729 359.766 169.146 361.511C168.25 360.286 167.7 359.343 167.355 357.857Z" fill="#2A2B36"/>
<path d="M195.343 256.573C206.991 264.321 218.198 269.464 232.535 266.527L235.766 265.746C236.861 265.685 238.385 264.996 239.443 264.643L247.693 261.659L251.43 263.299L225.999 293.318C225.365 291.696 224.899 289.944 223.937 288.484C217.954 279.401 210.364 271.922 202.562 264.429C200.629 262.572 198.394 260.904 196.558 258.979C195.926 258.317 195.623 257.427 195.343 256.573Z" fill="#2A2B36"/>
<path d="M572.369 255.703C572.335 256.069 572.36 257.169 572.21 257.441C571.568 258.599 569.55 260.002 568.562 261.012C562.175 267.545 555.027 273.481 549.04 280.383C545.342 284.646 542.155 289.212 539.469 294.173C536.796 290.045 516.709 265.953 516.696 265.228C517.615 264.4 518.485 263.456 519.655 263.005L533.421 266.626C535.624 267.13 537.93 267.063 540.177 267.039C551.708 266.916 562.774 261.716 572.369 255.703Z" fill="url(#paint1_linear_1201_82)"/>
<path d="M174.151 179.163C179.761 187.765 184.583 196.931 190.433 205.364C201.493 221.308 214.499 233.852 229.172 246.398L247.693 261.659L239.443 264.643C238.385 264.996 236.861 265.685 235.766 265.746L235.713 264.965C231.489 263.79 227.558 259.423 224.353 256.517C216.817 249.686 209.427 242.746 203.027 234.807C198.677 229.41 195.209 223.53 191.601 217.634C185.585 207.801 179.7 198.199 175.953 187.226C175.034 184.534 173.851 182.046 174.151 179.163Z" fill="url(#paint2_linear_1201_82)"/>
<path d="M580.174 199.886L594.92 172.216L595.431 172.254L596.001 173.47L593.956 178.148C593.65 178.761 593.621 178.999 593.657 179.663L593.022 180.482L585.005 198.659C576.992 220.779 563.84 239.417 546.618 255.221L539.294 261.299C537.119 262.962 534.922 264.246 533.421 266.626L519.655 263.005C528.192 256.652 536.262 249.65 544.078 242.433C557.981 229.592 570.365 216.166 580.174 199.886Z" fill="url(#paint3_linear_1201_82)"/>
<path d="M619.743 202.401C624.133 214.783 625.824 229.176 626.89 242.223C629.989 280.149 627.731 318.632 613.349 354.27L609.347 363.585C608.753 364.965 608.246 366.919 607.434 368.144L607.179 368.406L597.756 359.59C600.472 354.352 602.931 349.156 605.134 343.677C606.206 341.011 607.531 338.252 607.907 335.387L607.868 335.322C607.87 334.541 607.834 334.05 608.191 333.333C608.759 332.193 609.296 331.104 609.546 329.84L609.816 328.642L610.188 328.266L610.191 327.515C610.788 326.912 610.774 326.082 610.941 325.26L611.312 324.885L611.316 324.133C611.973 323.143 611.949 322.221 612.252 321.129C612.428 320.495 612.526 319.428 612.816 318.873C613.256 318.031 613.189 317.953 613.191 316.994C613.791 316.239 613.863 315.67 613.91 314.728L613.941 313.988C614.499 313.423 614.314 313.248 614.316 312.485C614.921 311.873 614.689 311.436 614.691 310.607C615.249 310.042 615.064 309.866 615.066 309.104C615.467 308.584 615.549 308.362 615.638 307.689L616 305.535C616.176 304.878 616.313 304.69 616.255 303.973L616.191 303.468C616.87 302.78 616.43 301.809 617.033 300.838C616.954 300.123 616.892 299.76 617.127 299.053C617.383 298.284 617.464 297.598 617.594 296.799C617.699 296.152 617.795 295.596 617.795 294.937L617.783 294.45C618.334 293.71 617.945 292.492 618.252 291.538C618.489 290.802 618.603 290.364 618.533 289.566L618.441 288.814C619.067 288.181 618.815 286.371 618.816 285.433L619.188 284.872L619.191 283.742C619.222 283.175 619.29 282.761 619.243 282.18L619.191 281.675C619.911 280.947 619.565 278.275 619.566 277.166C620.288 276.077 619.934 274.508 620.125 273.222C620.378 271.517 620.329 269.874 620.316 268.149C621.036 267.42 620.69 264.748 620.691 263.64C621.317 263.007 621.065 261.197 621.066 260.258C622.375 258.291 620.84 254.217 622.188 252.184L622.562 252.744C622.551 251.078 622.325 249.093 622.752 247.485L623.312 247.483C624.039 246.577 624.062 246.576 624.066 245.417H624.625L624.906 245.886L625 244.853C624.522 244.252 624.7 244.57 624.441 243.914L625 243.634C625.564 243.256 625.58 242.701 625.582 242.096L625.566 241.472L626.125 240.909V238.277C625.85 237.121 625.774 236.301 625.75 235.084C624.989 233.941 625.656 232.771 625.375 231.514C625.227 230.852 625.183 229.862 625 229.26C624.676 228.197 624.902 227.218 624.625 226.254C624.428 225.569 624.415 225.041 624.25 224.376C623.932 223.097 623.987 224.225 623.927 223.338C623.887 222.746 623.904 222.199 623.787 221.611L622.938 217.425L622.75 216.485C622.416 215.511 622.551 214.674 622.281 213.761C621.786 212.086 622.15 213.904 621.9 212.652L621.156 209.253C620.837 208.39 620.787 207.553 620.5 206.716L620.219 206.059C619.955 205.12 619.94 204.434 619.501 203.493L619.743 202.401Z" fill="url(#paint4_linear_1201_82)"/>
<path d="M172.992 177.183L174.151 179.163C173.851 182.046 175.034 184.534 175.953 187.226C179.7 198.199 185.585 207.801 191.601 217.634C195.209 223.53 198.677 229.41 203.027 234.807C209.427 242.746 216.817 249.686 224.353 256.517C227.558 259.423 231.489 263.79 235.713 264.965L235.766 265.746L232.535 266.527C218.198 269.464 206.991 264.321 195.343 256.573L193.538 255.077C190.944 253.051 188.43 250.769 186.095 248.444C184.627 246.982 181.895 243.039 180.101 242.421L179.854 242.282C179.326 241.441 178.979 240.88 179.038 239.859C179.07 239.287 179.109 239.006 178.922 238.435C177.27 233.409 175.396 228.519 174.005 223.395C171.43 213.912 169.855 204.155 168.366 194.45C168.623 192.888 169.858 189.38 170.684 188.117C171.352 187.096 171.647 186.678 171.966 185.472C172.226 182.896 171.611 179.387 172.992 177.183Z" fill="white"/>
<path d="M168.366 194.45C168.623 192.888 169.858 189.38 170.684 188.117C171.352 187.096 171.647 186.678 171.966 185.472C171.799 192.237 171.836 198.252 172.938 204.977C174.901 216.958 179.469 228.882 184.865 239.705C186.931 243.849 189.351 248.652 192.413 252.129C193.281 253.115 193.422 253.782 193.538 255.077C190.944 253.051 188.43 250.769 186.095 248.444C184.627 246.982 181.895 243.039 180.101 242.421L179.854 242.282C179.326 241.441 178.979 240.88 179.038 239.859C179.07 239.287 179.109 239.006 178.922 238.435C177.27 233.409 175.396 228.519 174.005 223.395C171.43 213.912 169.855 204.155 168.366 194.45Z" fill="#D3D2D2"/>
<path d="M349.688 170.632C356.657 164.971 366.455 160.9 375.316 159.635C389.772 157.572 402.783 160.274 414.571 169.111C417.603 170.635 420.414 172.964 423.125 174.997L438.114 186.663L476.061 217.744C477.783 219.197 479.788 220.319 481.466 221.768C478.375 222.618 475.236 223.451 472.317 224.804C471.42 224.187 470.869 222.911 470.32 221.979C469.464 217.84 444.835 200.143 439.739 196.231L422.912 183.332C419.172 180.697 414.939 178.538 411.313 175.849L410.806 175.464C407.49 173.934 404.171 172.422 400.633 171.475C388.78 168.305 374.602 169.133 363.104 173.373L350.527 179.187L350.066 179.545C347.07 181.84 343.494 183.602 340.38 185.802L317.875 203.077L306.252 212.542C302.089 215.864 297.755 219.475 294.438 223.628L293.524 224.539C290.768 222.937 288.214 221.78 285.172 220.829L327.251 187.111C334.353 181.565 341.788 174.912 349.688 170.632Z" fill="url(#paint5_linear_1201_82)"/>
<path d="M596.001 173.47C606.795 189.098 614.918 207.909 616.377 226.964C616.52 242.514 615.144 257.588 610.512 272.517C609.548 275.625 608.476 278.672 607.224 281.676C606.617 283.133 604.735 286.265 604.629 287.723L599.467 297.024C592.353 307.991 581.408 318.267 568.271 321.059C566.707 320.103 565.411 318.755 564.073 317.509C568.326 317.375 572.413 316.638 576.304 314.85L574.875 314.84C564.431 314.655 553.549 306.737 546.596 299.486C549.263 293.26 553.331 287.648 557.232 282.151C562.823 274.272 568.448 266.783 574.988 259.651C577.409 257.01 579.726 254.202 582.537 251.965C582.155 254.292 580.591 255.79 579.462 257.794C578.471 259.553 577.638 261.546 576.925 263.435C575.243 267.886 574.073 272.595 572.794 277.177C571.318 282.467 569.743 287.783 568.7 293.176L572.111 292.016C583.822 287.433 595.153 276.083 600.062 264.522C606.791 248.676 605.411 228.773 602.256 212.23C601.442 207.96 600.611 203.257 598.959 199.233C598.118 197.186 597.946 194.982 597.571 192.814C596.788 188.291 595.35 184.424 593.022 180.482L593.657 179.663C593.621 178.999 593.65 178.761 593.956 178.148L596.001 173.47Z" fill="#B7B6B6"/>
<path d="M593.022 180.482C595.35 184.424 596.788 188.291 597.571 192.814C597.946 194.982 598.118 197.186 598.959 199.233C600.611 203.257 601.442 207.96 602.256 212.23C605.411 228.773 606.791 248.676 600.062 264.522C595.153 276.083 583.822 287.433 572.111 292.016L568.7 293.176C569.743 287.783 571.318 282.467 572.794 277.177C574.073 272.596 575.243 267.886 576.925 263.435C577.638 261.546 578.471 259.553 579.462 257.794C580.591 255.79 582.155 254.292 582.537 251.965L588.82 243.437L588.125 243.169C586.595 244.493 585.113 245.864 583.383 246.923L572.369 255.704C562.774 261.716 551.708 266.916 540.177 267.039C537.93 267.063 535.624 267.13 533.421 266.626C534.922 264.246 537.119 262.962 539.294 261.299L546.618 255.221C563.84 239.417 576.992 220.779 585.005 198.659L593.022 180.482Z" fill="white"/>
<path d="M583.383 246.923C584.855 243.889 587.045 241.318 588.529 238.31C594.38 226.448 596.463 214.136 597.805 201.08L598.188 201.075C597.643 208.724 598.768 216.156 597.124 223.795C596.033 228.862 594.297 233.475 591.955 238.09C591.045 239.883 590.124 241.898 588.82 243.437L588.125 243.169C586.595 244.493 585.113 245.864 583.383 246.923Z" fill="#B7B6B6"/>
<path d="M180.505 362.893C181.316 364.766 180.372 367.757 180.042 369.73C177.515 384.878 172.505 399.028 166.899 413.269L140.61 471.716C134.069 480.184 127.799 489.651 119.596 496.585C114.849 500.598 109.263 503.613 104.152 507.142C94.0389 514.123 84.3546 523.471 79.5092 534.962C77.1549 540.545 75.8387 546.39 74.3723 552.243L69.7062 576.237L67.518 591.787C67.2945 593.402 67.2609 596.004 66.6554 597.479C66.5418 597.757 66.2601 597.928 66.0625 598.152L64.7412 598.076C62.2593 586.796 60.2456 576.016 60.2415 564.404C60.2365 550.299 63.0421 537.925 70.1776 525.715C76.3246 515.196 85.0288 506.234 94.1939 498.314C100.4 492.952 106.979 488.019 112.955 482.391C120.058 475.704 126.185 468.171 131.412 459.934C138.988 447.998 144.57 435.19 149.084 421.815L157.529 392.899L159.528 384.205C159.717 383.286 159.858 381.473 160.413 380.721C161.168 379.698 162.643 378.68 163.612 377.846L171.837 371.165C174.88 368.572 177.687 365.725 180.505 362.893Z" fill="#66D4FF"/>
<path d="M584.228 361.796L606.698 380.359C608.097 381.689 608.282 383.76 608.677 385.564L611.12 396.569C614.93 412.708 619.439 428.511 626.58 443.532C632.251 455.46 638.67 466.529 647.879 476.115C655.417 483.963 664.211 490.406 672.668 497.199C694.85 515.016 706.514 532.902 706.448 562.277C706.42 575.118 704.258 588.394 701.102 600.813C700.811 600.458 700.456 600.147 700.23 599.749C700.05 599.429 700.004 598.039 699.955 597.668L699.168 591.975L695.533 568.549C694.441 561.773 693.409 554.386 690.782 548.019C687.34 530.497 675.032 515.045 660.756 504.948C655.673 501.353 649.78 498.534 645.263 494.239C640.898 490.086 637.298 485.28 633.641 480.515L618.892 459.796C618.083 456.413 615.917 453.137 614.387 450.012L606.664 433.448C601.558 421.774 597.621 409.506 593.843 397.347L585.188 367.842C584.9 366.77 583.769 363.962 583.842 363.021C583.875 362.594 584.1 362.205 584.228 361.796Z" fill="#66D4FF"/>
<path d="M619.501 203.493C619.055 203.369 618.241 203.233 617.875 202.955L617.406 202.489L617.031 202.769C616.594 202.48 616.862 202.584 616.188 202.579C616.188 202.962 616.303 203.336 616.375 203.71L617.043 206.258L617.312 207.656L617.5 208.595C617.836 209.574 617.622 210.331 617.875 211.225C618.14 212.164 618.221 212.681 618.25 213.667C618.988 214.777 618.625 217.175 618.625 218.552C619.336 219.62 619 221.747 619 223.061C619.625 224 619.663 229.489 619.375 230.763C619.042 232.241 618.958 233.443 618.906 234.99L618.066 234.897C618.045 234.159 617.927 233.329 618.216 232.641L618.382 232.266C618.864 230.596 618.636 228.156 618.632 226.408C618.606 215.546 616.898 205.213 612.855 195.104C609.664 187.126 605.578 180.086 600.958 172.883C599.309 170.313 596.976 166.012 594.082 164.765C590.557 168.881 588.286 173.315 585.58 177.973L572.55 200.273C566.775 209.271 559.951 218.006 552.438 225.622C544.537 233.63 535.666 240.673 526.89 247.672L510.93 260.557C499.943 251.231 490.658 238.864 481.308 227.912C483.132 227.063 486.009 226.852 488.061 226.384C494.653 224.882 501.153 223.324 507.248 220.31C513.437 217.25 519.099 213.338 524.745 209.388L549.559 190.913L598.934 152.619C601.343 159.483 605.102 165.733 608.226 172.276C612.803 181.859 616.63 192.243 619.743 202.401L619.501 203.493Z" fill="#2A2B36"/>
<path d="M169.146 361.511L160.296 368.996L154.803 355.174C146.832 334.738 142.779 313.202 140.922 291.403C138.135 258.692 140.322 226.363 149.997 194.842C154.456 180.315 161.468 166.543 167.542 152.656L208.171 186.219C220.694 195.881 233.677 205.633 247.485 213.39C248.868 220.863 247.956 229.159 248.067 236.775C248.131 241.216 248.894 245.74 248.634 250.179C248.589 250.932 248.479 251.306 248.056 251.926C227.408 236.513 206.744 219.329 192.628 197.444L178.433 174.219C176.135 170.502 173.967 166.538 171.133 163.205C160.986 180.255 153.115 198.999 149.44 218.552C148.464 223.747 147.509 228.929 147.894 234.239L147.676 234.538C147.356 234.995 147.468 234.81 147.248 235.366L146.311 235.93C146.309 236.714 146.51 236.949 145.934 237.526C145.934 238.497 146.109 239.141 145.559 239.969C145.559 241.345 145.921 243.74 145.188 244.853L145.559 245.229C145.559 245.954 145.723 246.004 145.184 246.544C145.184 247.484 145.44 249.293 144.809 249.926C144.664 254.358 144.437 258.843 144.717 263.264C144.885 265.93 144.513 268.689 145 271.342L145.227 273.662C145.301 274.596 145.239 273.933 145.438 274.941C145.568 275.601 145.558 275.815 145.472 276.433C145.351 277.315 145.297 277.936 145.842 278.669L145.836 279.139C145.836 279.939 145.741 281.035 146.217 281.675C146.193 282.812 146.136 283.692 146.498 284.775C147.158 286.748 146.409 291.531 147.809 292.947L147.705 293.546C147.61 294.228 147.638 294.558 147.812 295.202L148.184 295.577C148.186 296.34 148.001 296.515 148.559 297.08L148.484 297.515C148.386 298.718 148.876 299.784 149.123 300.932L149.246 302.082C149.302 302.697 149.494 303.085 149.684 303.655C149.993 304.586 149.82 304.001 149.875 304.783C149.932 305.592 150.072 305.782 150.434 306.474L150.623 307.227L150.734 307.708C150.849 308.293 150.822 308.086 150.717 308.728C151.176 309.467 151.209 309.273 151.092 310.231L151.559 310.795L151.484 311.17C151.387 312.158 151.932 313.283 152.309 314.176L152.217 314.74L152.684 315.304L152.592 315.867C152.603 317.39 153.538 319.195 153.812 320.752L154.184 321.127C154.323 321.632 154.328 321.922 154.375 322.442C154.453 323.302 154.771 324.047 155.309 324.696L155.217 325.26L155.427 325.718C155.709 326.4 155.8 326.991 155.96 327.696C156.213 328.817 155.833 327.098 156.434 328.642L156.625 329.957C156.741 330.394 157.006 330.446 157.184 330.896C157.981 332.914 158.422 335.288 159.263 337.395C159.504 337.997 159.404 337.752 159.571 338.464C159.719 339.098 159.91 339.358 160.184 339.914C160.534 340.626 160.247 340.168 160.467 341.041L160.87 341.939C161.141 342.517 161.36 343.047 161.528 343.661C161.87 344.918 161.439 343.553 162.059 344.799L162.142 345.151C162.274 345.68 162.52 346.035 162.809 346.489L162.717 347.053L162.927 347.37C163.272 347.926 163.482 348.466 163.643 349.096C163.797 349.703 164.073 350.234 164.312 350.81L164.48 351.247C165.063 352.721 165.745 354.346 166.559 355.695C166.973 356.382 167.212 357.044 167.391 357.82L167.355 357.857C167.7 359.343 168.25 360.286 169.146 361.511Z" fill="#393B46"/>
<path d="M164.272 187.803C164.992 187.314 165.351 186.977 165.702 186.187L166.003 185.482C166.3 185.787 166.238 185.632 166.188 186.239L166.094 186.856C167.689 185 169.58 181.429 171.519 180.282L171.812 180.117C171.852 178.844 171.863 177.571 172.127 176.32L172.294 175.569L172.992 177.183C171.611 179.387 172.226 182.896 171.966 185.472C171.647 186.678 171.352 187.096 170.684 188.117C169.858 189.38 168.623 192.888 168.366 194.45C169.855 204.155 171.43 213.912 174.005 223.395C175.396 228.519 177.27 233.409 178.922 238.435C179.109 239.006 179.07 239.287 179.038 239.859C178.979 240.88 179.326 241.441 179.854 242.282L180.101 242.421L181.567 244.694C182.756 245.873 183.615 247.516 184.563 248.896C185.878 250.813 187.343 252.641 188.806 254.446L203.53 272.198C209.755 280.25 215.637 289.348 220.632 298.223L218.113 300.939C210.112 308.423 199.802 313.468 188.701 313.052L188.329 313.034C192.566 315.245 198.044 315.929 202.739 316.138C201.435 318.267 199.908 319.948 198.182 321.74L192.812 319.561C174.679 310.432 162.115 295.345 155.836 276.083C146.186 246.482 150.4 215.29 164.272 187.803Z" fill="#B7B6B6"/>
<path d="M168.366 194.45C169.855 204.155 171.43 213.912 174.005 223.395C175.396 228.519 177.27 233.409 178.922 238.435C179.109 239.006 179.07 239.287 179.038 239.859C178.979 240.88 179.326 241.441 179.854 242.282L180.101 242.421L181.567 244.694C181.441 245.126 181.218 245.539 181.188 245.987C181.093 247.377 184.264 251.39 185.039 252.798C186.044 254.623 186.811 256.642 187.646 258.554L194.523 274.6L201.347 294.735C187.568 289.744 174.767 280.311 168.216 266.875C159.811 249.637 158.603 226.705 163.391 208.222C164.622 203.468 166.782 199.072 168.366 194.45Z" fill="white"/>
<path d="M350.527 179.187L363.104 173.373C374.602 169.133 388.78 168.305 400.633 171.475C404.171 172.422 407.49 173.934 410.806 175.464L411.313 175.849C414.939 178.538 419.172 180.697 422.912 183.332L439.739 196.231C444.835 200.143 469.464 217.84 470.32 221.979C470.869 222.911 471.42 224.187 472.317 224.804L470.795 225.879L471.114 226.067C474.118 227.917 476.528 230.8 478.859 233.414L490.362 246.74L506.384 265.07C514.942 274.648 523.352 283.86 530.782 294.379L548.985 318.276L570.132 346.117L579.009 356.293C579.992 357.329 583.966 360.817 584.228 361.796C584.1 362.205 583.875 362.594 583.842 363.021C583.769 363.962 584.9 366.77 585.188 367.842L593.843 397.347C597.621 409.506 601.558 421.774 606.664 433.448L614.387 450.012C615.917 453.137 618.083 456.413 618.892 459.796L633.641 480.515C637.298 485.28 640.898 490.086 645.263 494.238C649.78 498.534 655.673 501.353 660.756 504.948C675.032 515.045 687.34 530.497 690.782 548.019C693.409 554.386 694.441 561.773 695.533 568.549L699.168 591.975L699.955 597.668C700.004 598.039 700.05 599.429 700.23 599.749C700.456 600.147 700.811 600.458 701.102 600.813L701.067 601.128C700.164 608.645 697.306 620.039 691.019 624.94L685.102 628.591L702.385 629.638L728.871 626.056C726.263 631.75 721.784 637.59 717.545 642.136C710.127 651.854 700.039 659.2 689.946 665.884C686.524 668.15 683.038 670.671 679.419 672.6C674.005 675.678 667.62 677.753 661.375 678.09C659.095 678.212 655.982 677.904 653.875 678.654L680.125 680.771L689.169 681.148C690.766 681.191 692.776 681.007 694.307 681.401C685.139 689.885 676.55 698.943 666.674 706.642C654.359 716.243 641.324 724.123 627.627 731.543C618.122 736.693 608.421 741.689 598.475 745.932L531.419 773.554L506.125 786.331L465.724 807.211L428.959 828.15C426.024 830.857 421.337 833.075 417.891 835.223C407.04 841.983 395.968 849.279 384.565 855.057C380.285 853.403 376.044 850.797 371.996 848.629L350.147 837.051L332.568 827.939L303.801 813.701L245.21 781.589L154.375 736.037L125.298 721.314C120.629 718.692 116.094 715.654 111.625 712.706C108.278 710.499 104.61 708.351 101.597 705.698C91.1189 699.385 83.4898 689.81 74.2212 682.085L73.8489 681.78L116.312 677.737C105.638 675.855 95.4208 672.295 85.4523 668.085C80.5891 666.191 75.9091 663.387 71.4976 660.637C63.0238 655.352 53.8655 648.807 47.8899 640.637C50.8565 641.363 53.7459 642.975 56.6181 644.078L68.7792 648.275C69.2864 647.354 69.0543 646.301 68.9544 645.294C68.4523 640.228 65.9538 635.792 65.9926 630.576L66.0081 629.916L64.8712 629.252C70.9455 629.275 76.6163 628.807 82.6436 628.055L79.1399 626.222C70.5222 620.837 66.8178 607.304 64.7412 598.076L66.0625 598.152C66.2601 597.928 66.5418 597.757 66.6554 597.479C67.2609 596.004 67.2945 593.402 67.518 591.787L69.7062 576.237L74.3723 552.243C75.8387 546.39 77.1549 540.545 79.5092 534.962C84.3546 523.471 94.0389 514.123 104.152 507.142C109.263 503.613 114.849 500.598 119.596 496.585C127.799 489.651 134.069 480.184 140.61 471.716L166.899 413.269C172.505 399.028 177.515 384.878 180.042 369.73C180.372 367.757 181.316 364.766 180.505 362.893C180.805 362.132 182.303 360.874 182.89 360.235L189.299 353.327C190.95 350.826 193.105 348.533 195.01 346.208L202.227 336.812L234.17 295.038L252.76 272.745L287.279 234.757C289.242 232.444 293.598 228.342 294.374 225.503L293.524 224.539L294.438 223.628C297.755 219.476 302.089 215.864 306.252 212.542L317.875 203.077L340.38 185.802C343.494 183.602 347.07 181.84 350.066 179.545L350.527 179.187Z" fill="#005E94"/>
<path d="M470.32 221.979C470.869 222.911 471.42 224.187 472.317 224.804L470.795 225.879L471.114 226.067C474.118 227.917 476.528 230.8 478.859 233.414L490.362 246.74L506.384 265.07C514.942 274.649 523.352 283.861 530.782 294.379C529.848 294.241 528.976 294.195 528.238 293.547C525.813 291.418 523.885 288.917 521.729 286.541L510.569 274.565C508.186 272.066 505.848 269.326 503.357 266.951C500.811 264.526 498.035 262.104 495.92 259.282C494.24 257.042 492.083 254.088 489.992 252.295L489.627 251.99C489.258 250.873 488.059 250.05 487.281 249.173L483.908 245.229C483.402 244.625 482.507 244.014 482.127 243.348C481.479 242.212 482.483 243.317 481.525 242.357L476.37 236.735L475.752 236.117C475.423 235.73 475.36 235.495 474.926 235.184L474.627 234.99C474.021 233.458 471.294 231.27 470.127 229.822L468.781 228.098L468.441 227.57C467.933 226.794 468.066 226.592 468.066 225.691C468.826 224.545 469.382 225.579 470.406 224.753L470.408 223.436C470.273 222.738 470.219 222.731 470.32 221.979Z" fill="url(#paint6_linear_1201_82)"/>
<path d="M90.8372 551.78C92.3516 544.971 96.3421 538.29 100.915 533.089C107.085 526.072 114.822 520.959 122.839 516.307C128.687 512.913 134.641 509.556 140.755 506.669L152.875 501.446C156.518 499.836 161.307 496.664 165.22 496.435C158.71 502.388 149.636 506.398 141.937 510.589C131.047 516.52 120.395 522.534 110.549 530.129C105.281 534.192 100.81 539.003 96.7456 544.255C94.9082 546.63 93.5093 550.456 90.8372 551.78Z" fill="url(#paint7_linear_1201_82)"/>
<path d="M603.967 498.123L626.044 510.831C645.939 521.67 669.788 533.112 676.215 556.915C679.223 568.054 677.049 581.105 671.561 591.183L671.456 591.353C671.248 588.602 671.865 585.932 672.097 583.201C672.742 575.617 672.625 567.762 670.427 560.422C663.215 536.334 638.219 525.442 618.865 512.764C614.259 509.747 607.842 506.082 604.46 501.668C603.482 500.39 603.797 499.625 603.967 498.123Z" fill="#002149"/>
<path d="M572.978 379.306L574.766 380.361C577.422 381.796 579.569 384.228 581.678 386.341C586.068 390.739 590.778 395.603 593.684 401.159C594.413 402.552 594.929 404.538 595.559 406.043L595.75 406.61L596.125 406.419L595.553 405.187C595.225 404.528 595.191 404.148 595.188 403.413L594.908 403.037C594.459 402.36 594.441 401.958 594.438 401.159L594.066 400.783L593.843 397.347C597.621 409.506 601.558 421.774 606.664 433.448L614.387 450.012C615.917 453.137 618.083 456.413 618.892 459.796C617.015 458.606 615.521 456.38 614.032 454.7C605.686 445.296 598.842 435.336 591.983 424.83C587.985 418.707 583.818 412.518 580.316 406.094L581.064 405.469C581.209 403.189 580.159 400.496 579.542 398.283C577.726 391.764 575.687 385.51 572.978 379.306Z" fill="#0090F9"/>
<path d="M180.505 362.893C180.805 362.132 182.303 360.874 182.89 360.235L189.299 353.327L189.85 353.733C188.725 354.975 187.602 355.878 186.719 357.292L185.875 358.138C184.865 359.123 182.319 361.161 182.123 362.456C182.041 363 181.732 363.538 181.532 364.042C181.277 364.686 181.397 365.171 181.467 365.84L181.519 366.392L181.559 366.778L181.285 367.184C180.881 367.864 181.085 368.086 180.906 368.751L180.625 369.41C180.741 370.591 180.81 370.792 180.434 371.851L180.342 372.603L180.2 373.061C179.828 374.297 179.916 375.472 179.446 376.736C179.201 377.395 179.138 377.981 179.084 378.679C179.02 379.519 179.098 379.079 178.75 379.93C178.426 380.723 178.32 381.151 178.467 381.996L178.234 382.431C177.758 383.388 178.166 382.465 177.998 383.497L177.625 384.626L177.809 385.19L177.434 385.565C177.092 386.054 177.102 386.516 177.059 387.068L176.594 388.949L176.978 389.348C177.464 389.89 177.702 390.363 177.998 391.016L178.514 391.168C179.19 391.395 179.315 391.613 179.875 391.957C180.532 392.359 181.135 392.586 181.75 393.084C182.547 393.084 182.541 392.986 183.25 393.46L183.724 393.406C184.445 393.336 184.166 393.345 184.941 393.457L185.312 393.084L185.688 393.644L186.441 392.893L186.435 392.458C186.514 391.48 186.986 390.587 187.375 389.699L187.191 388.948L187.566 388.571C187.918 388.071 187.927 387.447 188.033 386.881C188.167 386.166 188.466 385.62 188.783 385.002L189.066 384.062L190.566 380.305C190.892 379.325 191.46 378.43 191.877 377.489L193.375 375.045L193.377 374.484L193.624 374.177C194.022 373.646 193.883 373.835 194.175 373.249C195.127 371.339 196.471 369.581 197.502 367.72C197.728 367.312 197.998 367.066 198.252 366.593C199.353 364.543 201.767 361.337 203.316 359.641C204.868 357.94 205.659 356.514 207.589 355.043L198.667 367.512C189.703 381.042 185.185 395.971 183.421 412.055L183.61 412.527L184.24 412.706C181.783 417.905 178.692 422.83 175.738 427.762C171.331 435.115 166.956 442.364 161.663 449.134C157.184 454.862 152.16 459.986 147.068 465.152C144.941 467.31 143.12 469.984 140.61 471.717L166.899 413.269C172.505 399.029 177.515 384.878 180.042 369.73C180.372 367.757 181.316 364.766 180.505 362.893Z" fill="#0090F9"/>
<path d="M355.395 335.075C376.038 332.266 396.711 331.235 417.345 334.825L417.653 334.99C418.995 335.586 420.836 335.705 422.285 335.97L430.75 337.727C437.051 339.13 443.56 341.299 449.486 343.86C461.683 349.13 473.57 356.126 484.656 363.435C510.267 380.319 534.702 402.143 551.312 428.188C555.881 435.352 559.614 443.753 563.045 451.531C563.926 453.53 564.385 454.575 563.613 456.724C558.162 448.381 554.355 439.009 548.663 430.737C538.187 415.512 525.272 402.701 511.466 390.567C500.709 381.113 489.862 372.386 477.499 365.062C472.411 362.048 467.24 359.134 461.896 356.595C458.892 355.168 455.516 354.072 452.639 352.442L452.171 352.171L453.02 351.749C452.214 351.68 451.666 351.56 450.956 351.186L450.25 350.81L445.938 349.307L446.233 348.391C447.037 347.126 449.914 349.403 451.446 349.12L433.209 342.445C415.466 336.777 397.378 335.167 378.814 335.762L367.562 336.513C366.405 336.647 364.907 336.408 363.812 336.717C362.415 337.111 361.338 337.099 359.875 337.092C358.903 337.717 357.648 337.384 356.498 337.627C355.437 337.851 355.006 337.82 353.96 337.589L354.084 337.222L355.938 337.099C356.547 336.488 357.347 336.724 358.188 336.724L358.562 336.348H361C361.987 335.689 362.983 336.121 364.12 335.888C366.154 335.472 368.123 335.724 370.188 335.597C370.811 334.972 372.458 335.221 373.375 335.221C374.913 334.194 384.823 335.027 387.438 334.845C388.873 335.794 395.27 335.315 397.281 335.311L397.169 334.679C396.477 334.492 396.61 334.604 396.144 334.275L395.124 333.528C394.095 332.857 391.726 333.197 390.506 333.206C386.916 333.233 382.175 332.601 378.745 333.429C375.781 334.146 372.381 333.408 369.252 334.08C367.857 334.378 366.675 334.145 365.36 334.415C363.478 334.802 361.356 334.811 359.564 335.265C358.745 335.472 359.113 335.44 358.254 335.492L357.743 335.507L355.395 335.075Z" fill="url(#paint8_linear_1201_82)"/>
<path d="M107.664 615.572C106.221 614.436 105.083 612.611 103.982 611.15C100.189 606.117 96.3785 600.575 94.4452 594.504L94.283 593.981L93.5116 591.358C93.1929 589.82 92.9796 589.152 93.8151 587.832C97.2214 594.193 100.832 600.218 105.132 606.033L109.817 612.005C110.205 612.482 111.197 613.423 111.392 613.976C133.36 637.359 159.639 656.233 185.956 674.332C232.763 706.522 282.156 735.9 334.248 758.651C339.451 760.296 344.702 762.364 350.102 763.247L355.178 822.011C363.16 827.828 372.202 833.531 381.184 837.663L380.49 838.09C379.977 837.915 379.47 837.761 379 837.478L378.625 837.198C377.799 836.748 377.015 836.483 376.252 835.889L375.906 835.601L375.062 835.692C374.665 835.098 374.841 835.194 374.318 834.903L372.625 834.004L371.219 833.159L369.396 832.108L367.469 830.904L365.125 829.496C364.587 829.083 364.352 828.775 363.684 828.573L363.25 828.46L362.875 828.18C361.8 827.691 362.587 828.336 361.803 827.639C361.474 827.347 361.039 826.854 360.625 826.677C359.606 826.241 360.293 826.793 359.547 826.131C359.212 825.833 358.877 825.474 358.469 825.268C357.867 824.967 357.731 824.689 357.25 824.423L356.688 824.235C356.078 823.895 355.773 823.494 355 823.2L351.998 824.233L351.344 824.422L351.156 827.991H350.877L350.691 827.428C350.26 826.707 350.316 826.84 350.316 825.926L349.941 825.551C350.027 824.99 350.053 824.618 349.935 824.053L349.796 823.482C348.811 818.916 346.59 814.784 345.817 810.105C344.823 804.077 344.942 797.774 344.44 791.686C343.934 785.56 342.725 779.256 341.385 773.254C341.02 771.619 340.664 769.554 339.84 768.101C338.419 765.595 335.194 763.929 332.844 762.43L298.198 745.876L221.777 703.626L161.818 663.543C142.515 649.665 121.954 634.916 107.664 615.572Z" fill="url(#paint9_linear_1201_82)"/>
<path d="M580.316 406.094C575.379 398.458 569.702 391.451 563.892 384.475C551.464 369.555 537.535 354.871 520.917 344.607C512.028 339.117 502.456 334.745 493.123 330.072L451.85 308.081L437.236 299.338L430.003 295.43C428.575 294.692 426.82 294.071 425.627 292.998L448.208 298.568C464.271 302.428 479.708 307.823 494.875 314.358C506.472 319.355 518.037 325.091 528.445 332.289C545.939 344.39 561.864 361.149 572.978 379.306C575.687 385.51 577.726 391.764 579.542 398.283C580.159 400.496 581.209 403.189 581.064 405.469L580.316 406.094Z" fill="#66D4FF"/>
<path d="M207.589 355.043C213.742 347.555 219.871 340.853 227.789 335.17C239.947 326.443 254.338 320.536 268.231 315.232L305.545 302.282L344.964 290.81C340.065 294.021 334.729 296.42 329.701 299.406L307.944 312.559L285.086 324.504C267.94 332.967 249.447 340.048 234.163 351.734C217.673 364.343 205.039 381.863 193.468 398.884C190.367 403.445 187.032 407.949 184.24 412.706L183.61 412.527L183.421 412.055C185.185 395.971 189.703 381.042 198.667 367.512L207.589 355.043Z" fill="#66D4FF"/>
<path d="M74.3723 552.243C74.6977 555.171 74.3923 558.01 74.6148 560.907C74.9536 565.318 76.1262 569.946 77.2947 574.211C78.354 578.076 79.7531 582.2 81.4804 585.823C85.6876 594.65 91.3144 602.533 96.6771 610.661C102.72 619.82 108.858 630.084 116.474 637.999C120.646 642.335 125.645 646.132 130.323 649.903L146.858 663.371L175.183 687.131C181.42 692.114 188.072 696.545 194.634 701.078L223.7 720.304L252.556 736.679L297.405 761.533L322.428 773.962C327.253 776.272 332.469 778.336 336.924 781.319C340.194 783.509 341.58 786.669 342.333 790.419C343.791 797.671 343.147 804.534 343.147 811.836L343.665 822.61L340.542 821.254C339.713 820.933 338.935 820.468 338.127 820.1L336.627 819.349L335.969 818.973L329.219 815.591C327.153 814.623 325.255 813.451 323.127 812.585C316.869 810.04 311.054 806.077 304.752 803.568C303.324 803 302.05 801.97 300.627 801.313C299.688 800.88 298.969 800.227 298.002 799.81L287.313 793.522C286.684 793.205 286.179 792.834 285.604 792.437C284.982 792.007 285.501 792.37 284.594 791.92L271.281 784.218L270.625 783.84C268.834 782.792 266.909 781.411 265.002 780.648L252.007 773.247C249.635 771.811 246.889 770.084 244.377 769L241.752 767.497C241.196 767.194 240.844 766.981 240.252 766.746L236.877 764.867C236.33 764.569 235.946 764.364 235.377 764.116C231.286 762.328 227.506 759.502 223.377 757.728L222.719 757.352L222.315 757.176L220.377 756.225L218.875 755.284L217.094 754.347L214.575 753.136L211.752 751.716L209.167 750.402C208.499 750.103 207.935 749.742 207.252 749.462C204.837 748.475 202.549 747.071 200.127 746.08L197.29 744.647C196.661 744.332 196.924 744.434 196.364 744.295C195.824 744.161 195.546 743.859 195.062 743.637L194.502 743.45C193.883 743.166 193.378 742.783 192.737 742.524C190.584 741.655 188.406 740.292 186.252 739.317L185.312 738.752L184.844 738.566C183.273 737.83 181.883 736.926 180.252 736.311C179.275 735.944 178.438 735.334 177.428 734.997C176.832 734.797 176.48 734.492 175.938 734.243L175.377 734.057L173.125 733.024L171.679 732.373L169.627 731.414C167.498 730.529 165.519 729.311 163.377 728.421L160.752 727.294L156.252 725.039L152.127 723.161C151.582 722.913 151.208 722.63 150.627 722.409L146.594 720.531L143.969 719.403L140.488 717.858C139.509 717.488 138.718 716.928 137.688 716.584C136.599 716.22 135.689 715.593 134.688 715.081L133.562 714.705L130.95 713.473C130.249 713.121 130.476 713.235 129.683 713.008C128.588 712.694 129.501 713.036 128.5 712.359L125.325 710.761C124.654 710.424 125.22 710.702 124.377 710.386C122.703 709.758 121.164 708.792 119.502 708.131L118.776 707.756C118.186 707.449 117.731 707.276 117.062 707.191L116.688 706.815L116.219 706.628C115.427 706.306 114.753 705.823 113.969 705.501L109.752 703.622L102.814 699.97C101.575 699.348 100.526 698.573 99.2519 697.986C98.6079 697.691 98.0911 697.306 97.4228 697.037C96.8995 696.825 96.8417 696.52 96.4375 696.294L95.8769 696.108L90.0625 692.537L89.5938 692.35L88.4629 691.775C87.8032 691.445 87.425 691.41 86.6875 691.41L86.3125 691.034L85.5587 691.038C86.0094 692.602 89.2411 695.198 90.4375 696.486C91.3709 696.724 91.5325 697.049 92.2073 697.72C92.5937 698.105 92.424 697.921 92.9432 698.235C93.8238 698.766 94.398 699.63 95.3125 700.243L96.25 700.994L97.75 702.122C98.7166 702.826 99.731 703.622 100.759 704.224C101.447 704.626 101.531 705.032 102.062 705.503L102.393 705.648L101.597 705.698C91.1189 699.385 83.4898 689.81 74.2212 682.085L73.8489 681.78L116.312 677.737C105.638 675.855 95.4208 672.295 85.4523 668.085C80.5891 666.191 75.9091 663.387 71.4976 660.637C63.0238 655.352 53.8655 648.807 47.8899 640.637C50.8565 641.363 53.7459 642.975 56.6181 644.078L68.7792 648.275C69.2864 647.354 69.0543 646.301 68.9544 645.294C68.4523 640.228 65.9538 635.792 65.9926 630.576L66.0081 629.916L64.8712 629.252C70.9455 629.275 76.6163 628.807 82.6436 628.055L79.1399 626.222C70.5222 620.837 66.8178 607.304 64.7412 598.076L66.0625 598.152C66.2601 597.928 66.5418 597.757 66.6554 597.479C67.2609 596.004 67.2945 593.402 67.518 591.787L69.7062 576.237L74.3723 552.243Z" fill="#0090F9"/>
<path d="M690.782 548.019C693.409 554.386 694.441 561.773 695.533 568.549L699.168 591.975L699.955 597.668C700.004 598.039 700.05 599.429 700.23 599.749C700.456 600.147 700.811 600.458 701.102 600.813L701.067 601.128C700.164 608.645 697.306 620.039 691.019 624.94L685.102 628.591L702.385 629.638L728.871 626.056C726.263 631.75 721.784 637.59 717.545 642.136C710.127 651.854 700.039 659.2 689.946 665.884C686.524 668.15 683.038 670.671 679.419 672.6C674.005 675.678 667.62 677.753 661.375 678.09C659.095 678.212 655.982 677.904 653.875 678.654L680.125 680.771L689.169 681.148C690.766 681.191 692.776 681.007 694.307 681.401C685.139 689.885 676.55 698.943 666.674 706.642C654.359 716.243 641.324 724.123 627.627 731.543C618.122 736.693 608.421 741.689 598.475 745.932L531.419 773.554L506.125 786.331L465.724 807.211L428.959 828.15L428.63 827.787C429.927 826.612 431.51 825.879 433 824.987L434.406 824.141L436.193 823.114L436.75 822.732L437.875 821.981L438.812 821.229C439.474 820.92 439.595 821.167 440.302 820.636C441.044 820.08 440.657 820.28 441.462 819.944C442.079 819.685 442.507 819.219 443.131 819.063C443.605 818.944 443.408 819.049 443.799 818.769C444.304 818.408 444.818 818.127 445.375 817.848L446.5 817.285C447.131 816.877 447.51 816.473 448.224 816.174C448.951 815.87 448.604 816.093 449.312 815.593C449.776 815.266 450.09 814.985 450.625 814.75L451.375 814.466C452.74 813.56 451.235 814.344 452.419 813.75L452.875 813.527C453.277 813.283 453.605 813.181 454 812.963L455.406 812.118L460.75 809.206L462.156 808.36L463.375 807.703L464.125 807.139C464.657 806.884 464.84 806.981 465.42 806.594C466.287 806.014 467.468 805.755 468.104 804.964L468.438 804.513L469 804.697L469.75 804.133C470.277 803.877 470.466 803.974 471.045 803.588C471.745 803.12 471.442 803.268 472.135 802.954L476.125 800.94C476.657 800.591 476.724 800.381 477.391 800.247C478.084 800.108 478.125 799.799 478.562 799.252L479.125 799.437L480.25 798.685L480.627 798.312C481.463 798.189 481.122 798.313 481.867 797.91L484.188 796.807C484.73 796.511 485.085 796.152 485.683 795.903L490.75 793.425C491.213 793.125 491.364 792.872 491.922 792.733C492.409 792.61 492.46 792.464 492.816 792.109L493.75 791.922C495.377 791.169 496.999 790.106 498.625 789.292C500.074 788.565 501.783 787.934 503.125 787.038L503.594 786.664C504.664 786.66 506.052 785.534 507.064 785.065L513.25 781.777L513.719 781.404C514.407 781.286 514.915 781.043 515.5 780.65L515.969 780.276C516.724 780.148 516.389 780.264 517.111 779.875L520 778.396C520.435 778.113 520.588 777.863 521.107 777.732C522.756 777.32 524.468 776.157 526 775.39C527.518 774.629 529.22 773.964 530.688 773.135C531.581 772.631 532.389 772.455 533.271 771.979L535 771.068C535.664 770.822 536.294 770.346 536.922 770.189L537.25 770.129L537.627 769.756L538.188 769.754C538.712 769.414 539.284 769.025 539.875 768.814L540.625 768.627C541.115 768.373 541.254 768.09 541.833 767.916C542.367 767.756 542.744 767.501 543.25 767.311C543.854 767.086 544.287 767.04 544.885 766.719C546.07 766.08 547.643 765.254 548.945 764.928C549.406 764.812 549.481 764.64 549.816 764.305C550.665 764.18 551.107 763.855 551.875 763.554C553.497 762.918 555.314 762.355 556.896 761.634L558.062 761.112C558.581 760.904 558.929 760.841 559.34 760.433L559.562 760.176L560.312 760.36C560.758 759.983 560.989 759.786 561.58 759.668C562.17 759.549 562.141 759.469 562.562 759.049L563.406 759.139L564.062 758.857L565 758.482C565.765 758.126 566.424 757.761 567.25 757.542L568 757.355C568.73 757.028 569.322 756.64 570.098 756.392C571.058 756.084 572.039 755.402 572.969 755.194C573.653 755.042 573.889 755.17 574.58 754.825C577.19 753.517 580.156 752.628 582.906 751.624L583.562 751.343C584.053 751.142 584.479 750.993 584.934 750.71L585.25 750.499L585.812 750.591C586.251 750.311 586.602 750.062 587.113 749.934C588.249 749.649 589.403 748.953 590.5 748.524C591.131 748.278 591.792 747.818 592.393 747.668L592.75 747.585C593.866 746.969 592.492 747.381 593.875 747.021C594.591 746.836 595.073 746.532 595.75 746.27C596.351 746.037 596.786 746 597.385 745.678C598.554 745.046 599.768 744.497 601 744.015L601.75 743.828C602.281 743.552 602.377 743.282 603.021 743.106C603.591 742.95 603.604 743.02 604.188 742.701C604.748 742.395 605.098 742.05 605.718 741.791L606.25 741.574C607.217 741.003 606.162 741.318 607.375 741.01C607.606 740.951 607.909 740.937 608.125 740.822C609.094 740.306 610.212 739.922 611.125 739.319C611.557 739.035 611.716 738.785 612.232 738.656C613.695 738.289 615.844 737.144 617.125 736.313C617.842 735.848 618.616 735.379 619.375 734.998C619.891 734.74 620.097 734.836 620.67 734.453C621.37 733.985 621.067 734.133 621.76 733.819L625.75 731.805C626.208 731.508 626.335 731.278 626.881 731.141C627.355 731.022 627.158 731.127 627.549 730.848L627.906 730.583C628.468 730.244 629.052 730.142 629.408 729.55L629.688 728.99L630.059 729.363L635.875 726.169L637 725.605C637.631 725.198 638.01 724.794 638.724 724.495L639.25 724.29L641.875 722.787L643.281 721.941L645.068 720.914L647.875 719.03C648.491 718.598 649.107 718.287 649.75 717.902L650.312 717.527L653.992 714.85L654.344 714.523L654.812 714.521L659.875 710.763L660.627 710.106C661.636 709.481 662.546 708.613 663.531 708.039C664.418 707.522 664.528 707.425 665.219 706.632L665.688 706.63L666.906 705.409C667.679 704.958 668.102 704.305 668.781 703.906C669.72 703.355 670.192 702.548 671.031 702.027C672.492 701.122 673.416 699.453 674.781 698.646C676.285 697.757 677.144 696.085 678.531 695.264L679.188 694.983C680.207 694.416 684.131 690.237 684.441 689.158L683.688 689.155C683.123 689.72 682.953 689.531 682.188 689.531C681.688 689.865 681.426 690.008 680.875 690.19L680.031 690.472L679.373 690.848L678.25 691.41C677.621 691.783 677.166 692.148 676.481 692.445C671.628 694.543 667.363 698.681 662.498 700.617C661.581 700.981 662.269 700.574 661.399 701.155C660.524 701.739 659.647 702.156 658.75 702.682C658.087 703.07 657.52 703.505 656.81 703.822L656.406 703.998L654.086 705.248L652 706.439L646.163 709.751L640.281 712.64L633.998 715.646L632.875 716.208L632.031 716.773L631.375 716.96C630.719 717.261 630.145 717.782 629.458 718.089L626.873 719.403C623.665 720.823 620.492 722.6 617.406 724.288L615.906 725.039L615.248 725.415L614.688 725.602C614.204 725.824 613.926 726.126 613.386 726.26C612.826 726.399 613.089 726.297 612.46 726.611C610.942 727.374 609.361 728.367 607.75 728.891C607.254 729.052 606.873 729.182 606.408 729.436L604.748 730.3L602.123 731.427L601.562 731.613C601.079 731.836 600.801 732.137 600.261 732.272C599.684 732.415 599.979 732.304 599.317 732.635L597.906 733.306C596.93 733.819 597.603 733.567 596.715 733.864L595 734.527C594.093 735.116 594.818 734.927 593.985 735.095C593.472 735.199 593.12 735.308 592.656 735.56L591.998 735.936C590.478 736.572 588.689 737.387 587.125 737.909C586.564 738.095 586.071 738.371 585.531 738.566C584.717 738.859 583.968 739.256 583.15 739.529L580.748 740.444L578.873 741.196L575.031 742.699C573.717 743.153 572.319 743.89 570.998 744.202C569.669 744.515 568.623 745.137 567.342 745.564L566.312 745.891L565.938 746.267C564.892 746.467 564.108 746.829 563.123 747.208L560.498 748.335L557.873 749.462L557.031 749.838L556.373 750.214L555.812 750.4L555.438 750.776C554.85 750.864 554.488 750.965 553.948 751.235C553.19 751.613 552.409 751.817 551.651 752.197L551.123 752.468L550.562 752.654L550.188 753.03C549.615 753.115 549.224 753.213 548.698 753.477L546.998 754.347L542.781 756.225L542.312 756.412C541.736 756.725 541.253 757.117 540.623 757.352L539.875 757.539C539.349 757.811 539.191 758.095 538.566 758.303C538.073 758.469 537.618 758.608 537.156 758.855L536.498 759.231C535.458 759.711 534.287 760.075 533.283 760.622L530.781 761.861L526.302 764.115L519.906 767.122L519.248 767.497C518.675 767.762 518.127 767.93 517.562 768.251L516.625 768.811C515.794 769.173 515.172 769.538 514.375 769.938C513.711 770.271 513.123 770.366 512.47 770.796L511.748 771.255C510.477 771.759 511.686 771.073 510.514 771.794C509.655 772.322 508.786 772.671 507.906 773.133L507.248 773.509C506.701 773.8 506.215 774.001 505.714 774.377L505.373 774.636L504.812 774.823C504.235 775.111 503.741 775.512 503.123 775.763C502.275 776.108 502.811 775.739 502 776.326C501.53 776.665 501.269 776.889 500.716 777.12C499.864 777.476 500.352 777.234 499.475 777.707L498.906 778.018L498.438 778.204L497.875 778.58L496.562 779.331C494.209 781.341 490.032 783.272 487.157 784.71L485.498 785.533C484.693 785.927 483.993 786.506 483.202 786.859L482.031 787.411L480.25 788.349L471.97 792.976L471.248 793.423C469.91 793.944 468.587 794.691 467.336 795.424L461.875 798.494C461.215 798.882 460.647 799.319 459.94 799.634L452.418 803.65L449.125 805.633C448.71 805.928 448.439 806.177 447.97 806.386C445.792 807.358 443.246 808.841 441.25 810.142C439.913 811.012 438.349 811.754 437.089 812.702L436.748 812.961C436.195 813.235 436.079 813.459 435.623 813.713L435.062 813.899L434.5 814.275C433.682 814.771 432.897 815.46 432.073 815.872C431.276 816.272 430.386 816.81 429.625 817.281C429.083 817.615 429.035 817.84 428.358 817.974L427.938 818.032L427.562 818.408L426.986 818.036C427.486 812.746 427.557 807.452 427.664 802.145C427.736 798.561 427.588 794.335 428.692 790.899L428.856 790.419C429.882 787.318 431.378 784.409 433.72 782.088C435.563 780.262 437.871 778.989 440.068 777.651L450.621 771.579L488.289 751.177L511.625 737.31C519.979 731.773 528.028 725.613 536.611 720.447L568.926 703.067C580.031 696.875 590.088 689.732 599.934 681.705L617.832 666.389L632.393 654.67C636.752 651.011 640.951 646.693 645.59 643.449C646.551 642.777 647.252 642.193 648.425 642.193L648.227 642.849L637.372 653.086L638.315 654.188L638.905 653.952L639.147 653.98L648.725 644.372C650.937 642.288 652.708 639.884 654.582 637.503C663.413 626.283 668.608 613.943 674.273 600.997C679.628 588.756 684.821 576.582 688.165 563.599C689.491 558.449 689.663 553.169 690.782 548.019Z" fill="#0090F9"/>
<path d="M353.96 337.589C355.006 337.82 355.437 337.851 356.498 337.627C357.648 337.384 358.903 337.717 359.875 337.092C361.338 337.1 362.415 337.111 363.812 336.717C364.907 336.408 366.405 336.647 367.562 336.513L378.814 335.762C397.378 335.167 415.466 336.777 433.209 342.445L451.446 349.12C449.914 349.403 447.037 347.126 446.233 348.391L445.938 349.307L450.25 350.81L450.956 351.186C451.666 351.56 452.214 351.68 453.02 351.749L452.171 352.171L452.639 352.442C455.516 354.072 458.892 355.168 461.896 356.595C467.24 359.134 472.411 362.048 477.499 365.062C489.862 372.386 500.709 381.113 511.466 390.567C525.272 402.701 538.187 415.512 548.663 430.737C554.355 439.009 558.162 448.381 563.613 456.724C570.924 469.797 581.172 479.944 592.585 489.46C596.189 492.465 599.93 495.728 603.967 498.123C603.797 499.625 603.482 500.39 604.46 501.668C607.842 506.082 614.259 509.747 618.865 512.764C638.219 525.442 663.215 536.334 670.427 560.422C672.625 567.762 672.742 575.617 672.097 583.201C671.865 585.932 671.248 588.602 671.456 591.353L670.926 592.77L672.062 593.756C672 595.726 671.054 597.83 670.357 599.659C665.468 612.48 655.294 624.263 645.412 633.598C634.628 643.783 623.039 651.822 610.756 660.006C585.326 676.951 558.544 691.082 532.192 706.441L455.796 752.132L434.844 762.784C432.731 764.041 431.489 764.661 430.868 767.171C429.608 772.264 429.122 777.62 428.354 782.805C426.618 794.528 424.044 804.894 417.289 814.78C415.862 816.868 414.142 819.875 411.979 821.18L411.028 821.661C408.349 825.732 400.963 829.359 396.789 831.961C392.793 834.453 388.949 837.183 384.698 839.241C383.572 838.701 382.385 837.998 381.184 837.663C372.202 833.531 363.16 827.828 355.178 822.011L350.102 763.247C344.702 762.364 339.451 760.296 334.248 758.651C282.156 735.9 232.763 706.522 185.956 674.332C159.639 656.233 133.36 637.359 111.392 613.976C111.197 613.423 110.205 612.481 109.817 612.005L105.132 606.033C100.832 600.218 97.2214 594.193 93.8151 587.832C93.9766 587.07 91.5368 581.554 91.1876 580.416C90.0602 576.743 89.2855 572.888 88.9592 569.055C88.4385 562.935 89.3777 557.668 90.8373 551.78C93.5094 550.456 94.9083 546.63 96.7457 544.255C100.81 539.003 105.281 534.192 110.549 530.129C120.395 522.534 131.047 516.52 141.937 510.589C149.636 506.398 158.71 502.388 165.22 496.435C172.482 491.634 179.651 486.824 185.836 480.627C193.337 473.109 198.691 464.457 203.806 455.223L220.547 429.625C240.282 401.798 264.895 379.198 295.254 363.467L311.906 355.517L321.243 351.759L321.906 351.451L321.271 350.995L323.951 350.129L324.25 350.059C324.707 349.606 324.763 349.625 325.375 349.495C326.194 349.321 326.964 349.25 327.59 348.628L327.812 348.372L328.938 348.556C329.535 348.02 330.171 347.717 331 347.712L331.562 347.804C333.515 346.69 336.44 346.066 338.664 345.62C339.532 345.447 338.924 345.228 339.22 344.618C339.764 343.496 341.609 342.018 342.561 341.135L339.556 341.665C338.001 341.862 336.862 342.234 335.277 342.005L343.937 339.73L348.532 338.502L349.002 338.413C350.685 338.021 352.237 337.77 353.96 337.589Z" fill="#030713"/>
<path d="M353.96 337.589C355.006 337.82 355.437 337.851 356.498 337.627C357.648 337.384 358.903 337.717 359.875 337.092C361.338 337.1 362.415 337.111 363.812 336.717C364.907 336.408 366.405 336.647 367.562 336.513L378.814 335.762C397.378 335.167 415.466 336.777 433.209 342.445L451.446 349.12C449.914 349.403 447.037 347.126 446.233 348.391L445.938 349.307L450.25 350.81L450.956 351.186C451.666 351.56 452.214 351.68 453.02 351.749L452.171 352.171C444.957 350.09 438.062 347.454 430.714 345.679C415.695 342.053 399.485 339.737 384.005 339.966C362.71 340.282 342.051 344.832 321.906 351.451L321.271 350.995L323.951 350.129L324.25 350.059C324.707 349.606 324.763 349.625 325.375 349.495C326.194 349.321 326.964 349.25 327.59 348.628L327.812 348.372L328.938 348.556C329.535 348.02 330.171 347.717 331 347.712L331.562 347.804C333.515 346.69 336.44 346.066 338.664 345.62C339.532 345.447 338.924 345.228 339.22 344.618C339.764 343.496 341.609 342.018 342.561 341.135L339.556 341.665C338.001 341.862 336.862 342.234 335.277 342.005L343.937 339.73L348.532 338.502L349.002 338.413C350.685 338.021 352.237 337.77 353.96 337.589Z" fill="url(#paint10_linear_1201_82)"/>
<path d="M357.195 795.113C363.53 801.494 370.608 807.321 380.125 807.283C390.177 807.243 403.372 802.837 411.279 796.579L411.458 796.94C411.671 797.365 411.563 797.216 411.773 797.46C411.237 804.72 411.249 812.868 409.484 819.914C409.366 820.385 409.181 821.357 408.914 821.757C407.758 823.489 404.152 825.217 402.405 826.325L384.713 837.414L370.008 829.424C365.682 826.968 361.362 824.593 357.614 821.297L357.195 795.113Z" fill="#393B46"/>
<path d="M670.926 592.77L672.062 593.756C672 595.726 671.054 597.83 670.357 599.659C665.468 612.481 655.294 624.264 645.412 633.598C634.628 643.783 623.039 651.822 610.756 660.006C585.326 676.951 558.544 691.082 532.192 706.441L455.796 752.132L434.844 762.784C432.731 764.041 431.489 764.661 430.868 767.171C429.608 772.264 429.122 777.62 428.354 782.805C426.618 794.528 424.044 804.894 417.289 814.78C415.862 816.868 414.142 819.875 411.979 821.18L411.028 821.661C412.832 814.46 413.034 806.446 413.753 799.038L417.297 763.312C421.664 761.47 426.614 760.399 431.162 759.033C446.725 752.809 460.635 744.61 475.029 736.126L528.483 703.549L554.736 688.839C573.836 678.064 592.763 666.94 610.863 654.538C619.112 648.886 627.231 643.216 634.906 636.783C649.643 624.433 662.411 610.114 670.926 592.77Z" fill="url(#paint11_linear_1201_82)"/>
<path d="M358.395 775.32C358.166 769.486 358.547 762.979 357.583 757.253C359.415 755.125 361.648 752.058 364.13 750.701C368.621 752.514 373.088 754.356 377.942 754.898C384.57 755.639 391.84 754.743 398.348 753.428C399.423 753.21 404.637 751.372 405.134 751.518C407.06 752.085 410.67 756.305 412.043 757.866L407.109 790.103L407.579 791.358L411.941 792.194C411.932 793.831 412.166 795.889 411.773 797.46C411.563 797.216 411.671 797.365 411.458 796.94L411.279 796.579C403.372 802.837 390.177 807.243 380.125 807.283C370.608 807.321 363.53 801.494 357.195 795.113C357.388 791.969 358.047 788.853 358.251 785.723C358.475 782.279 358.395 778.77 358.395 775.32Z" fill="#393B46"/>
<path d="M358.395 775.32L358.463 775.719C359.093 779.736 357.737 784.2 359.977 787.76L360.318 788.328C363.628 793.7 370.592 799.324 376.562 801.339L376.933 801.47C378.334 801.917 380.169 801.718 381.625 801.547C388.557 800.728 396.125 796.676 402.182 793.238C403.753 792.345 405.801 791.339 407.109 790.102L407.579 791.358L411.941 792.194C411.932 793.831 412.166 795.889 411.773 797.46C411.563 797.216 411.671 797.365 411.458 796.94L411.279 796.579C403.372 802.837 390.177 807.243 380.125 807.283C370.608 807.321 363.53 801.494 357.195 795.113C357.388 791.969 358.047 788.853 358.251 785.723C358.475 782.279 358.395 778.77 358.395 775.32Z" fill="#2A2B36"/>
<path d="M299.827 709.539L298.203 709.426C297.785 708.955 297.425 708.544 296.897 708.19C294.633 706.672 292.475 704.752 290.316 703.061L290.309 703.625L289.844 703.906L288.625 703.249L288.062 702.873L283.75 699.867C283.134 699.435 282.518 699.125 281.875 698.74L280.469 697.894L275.125 694.983C274.69 694.7 274.537 694.45 274.018 694.319C270.381 693.409 266.7 690.488 263.125 689.158L262.375 688.971L259.984 687.809L244.24 679.713L238.545 676.871L238 676.572L237.809 676.947L237.438 677.508L237.809 678.263C238.716 678.731 239.073 679.166 239.684 679.953L238.912 681.019L238.559 681.456L238.934 682.02L238.375 682.583L238.748 683.053L238.469 683.429L238.748 683.805L238.469 684.181L238.748 684.556L238.469 684.932L238.934 685.401L237.812 686.341L237.809 686.904L236.969 687.562L237.059 688.407L236.5 688.687C235.764 689.129 236.504 688.851 235.679 689.128L235.281 689.252L235.184 690.474C234.709 691.189 234.965 690.951 234.227 691.445L233.688 691.785C234.426 692.54 235.605 692.938 236.5 693.48L237.906 694.325L238.562 694.607C239.092 694.918 239.403 695.328 239.998 695.599L241.75 696.486C242.208 696.782 242.335 697.013 242.881 697.149C243.355 697.268 243.158 697.163 243.549 697.442C244.994 698.476 246.815 699.164 248.406 699.961C249.887 700.703 251.463 701.738 253 702.31L253.75 702.497L256.135 703.654C258.53 704.946 261.48 706.156 264.062 707.018L264.625 707.194L265.75 707.57C267.247 707.993 268.593 708.782 270.062 709.273L270.625 709.448L271.75 709.825L272.5 710.012C273.546 710.492 275.384 711.373 276.49 711.474C277.206 711.539 276.851 711.432 277.568 711.791C278.246 712.13 277.946 712.054 278.623 712.19L279.062 712.266C279.612 712.446 280.224 712.553 280.748 712.736L283.281 713.488C284.082 713.717 285.041 713.88 285.812 714.145C286.833 714.497 287.548 714.496 288.625 714.521C289.878 715.357 291.248 714.5 292.562 714.897C293.764 715.259 294.848 715.123 296.036 715.461C293.042 715.569 290.004 715.408 287.044 714.911C281.88 714.044 276.788 712.175 271.868 710.422C260.732 706.453 250.415 701.854 240.005 696.241C224.793 688.041 211.064 677.989 196.764 668.385C182.683 658.926 168.002 649.96 154.449 639.76C146.944 634.112 139.863 627.801 132.937 621.458C128.8 617.669 124.154 613.928 120.847 609.37C122.274 602.339 124.521 595.736 127.939 589.413C130.523 584.635 133.941 580.363 137.209 576.048L148.299 561.669C151.597 571.595 153.941 583.904 160.256 592.374C163.897 596.034 166.835 600.117 170.105 604.091L181.75 618.333C188.278 627.163 193.713 635.829 202.132 643.096L201.452 642.952C195.575 641.74 189.567 641.834 183.812 639.877C180.156 638.634 176.677 637.003 173.181 635.375C171.377 634.535 169.406 633.383 167.489 632.902C172.347 637.427 178.372 640.724 183.861 644.431C185.797 645.739 188.651 648.279 190.833 648.953L205.47 658.051C206.749 658.811 208.632 660.25 210.024 660.657C216.976 665.653 225.42 669.522 233.055 673.385L256.998 685.633L272.841 693.138L282.256 698.249C284.338 699.5 286.325 701.154 288.625 701.954L289.682 701.576L299.827 709.539Z" fill="#2A2B36"/>
<path d="M566.79 597.301C570.359 591.554 574.842 586.656 578.726 581.159C584.551 572.915 587.297 563.331 587.171 553.296C587.877 554.648 588.37 556.09 589.115 557.424C592.045 562.668 595.444 567.345 597.35 573.15C598.209 575.769 598.493 578.604 599.105 581.298L599.04 581.723L598.77 583.067C598.585 583.952 598.608 583.58 598.748 584.475C602.35 587.234 604.203 590.831 606.075 594.908C609.275 584.583 613.729 573.774 614.286 562.853C629.199 576.197 641.642 592.078 642.695 612.885C642.807 615.098 641.445 616.282 640.006 617.824C632.856 625.486 624.375 632.189 616.109 638.595L594.939 654.365C577.944 665.778 559.684 675.299 541.375 684.378C533.188 688.438 525.037 692.89 516.398 695.925C505.115 699.888 493 701.551 481.375 704.225L481.251 703.963L482.836 702.592L482.135 702.739C481.521 702.916 481.518 703.052 480.809 703.061C481.088 701.672 482.142 700.873 483.084 699.845C483.922 698.569 485.81 697.218 486.957 696.11L494.264 688.592C499.707 682.774 504.461 676.369 509.036 669.854L512.282 665.369C518.948 657.923 524.605 649.776 529.197 640.894C530.842 637.713 532.64 634.42 533.6 630.959C534.945 626.102 535.057 621.496 535.051 616.506L535.517 616.83C536.716 621.467 536.349 626.202 535.764 630.898C549.198 624.274 559.276 609.794 566.79 597.301Z" fill="#2A2B36"/>
<path d="M566.79 597.301C570.359 591.554 574.842 586.656 578.726 581.159C584.551 572.915 587.297 563.331 587.171 553.296C587.877 554.648 588.37 556.09 589.115 557.424C592.045 562.668 595.444 567.345 597.35 573.15C598.209 575.769 598.493 578.604 599.105 581.298L599.04 581.723L598.77 583.067C598.585 583.952 598.608 583.58 598.748 584.475L598.467 585.042C597.791 586.502 597.764 588.39 597.463 589.965C596.87 593.069 596.077 596.169 595.056 599.16C592.873 605.555 589.413 611.672 586.3 617.649C583.167 623.663 580.305 629.663 576.306 635.184C574.134 638.183 571.363 641.064 568.785 643.731C574.538 642.025 580.512 641.618 586.275 640.055C592.143 638.463 597.167 635.729 602.76 633.552C598.503 638.486 592.792 641.95 587.218 645.208C576.073 651.725 564.126 656.835 552.578 662.588L509.95 684.165C502.789 687.92 495.967 692.692 489.566 697.614C488.376 698.529 483.987 702.479 482.836 702.592L482.135 702.739C481.521 702.916 481.518 703.052 480.809 703.061C481.088 701.672 482.142 700.873 483.084 699.845C483.922 698.569 485.81 697.218 486.957 696.11L494.264 688.592C499.707 682.774 504.461 676.369 509.036 669.854L512.282 665.369C518.948 657.923 524.605 649.776 529.197 640.894C530.842 637.713 532.64 634.42 533.6 630.959C534.945 626.102 535.057 621.496 535.051 616.506L535.517 616.83C536.716 621.467 536.349 626.202 535.764 630.898C549.198 624.274 559.276 609.794 566.79 597.301Z" fill="url(#paint12_linear_1201_82)"/>
<path d="M572.377 540.572C572.469 539.193 571.815 537.688 571.531 536.333C570.991 533.755 570.668 531.047 570.417 528.423L568.799 500.354C571.195 501.681 573.523 504.193 575.398 506.179C583.995 515.287 588.961 525.257 594.413 536.337C600.103 550.681 603.919 566.165 599.105 581.298C598.493 578.604 598.209 575.769 597.35 573.15C595.444 567.345 592.045 562.668 589.115 557.424C588.37 556.09 587.877 554.648 587.171 553.296C587.297 563.331 584.551 572.915 578.726 581.159C574.842 586.656 570.359 591.554 566.79 597.301C559.276 609.794 549.198 624.274 535.764 630.898C536.349 626.202 536.716 621.467 535.517 616.83L535.051 616.506C535.057 621.496 534.945 626.102 533.6 630.959C532.64 634.42 530.842 637.713 529.197 640.894C524.605 649.776 518.948 657.923 512.282 665.369L509.036 669.854C504.461 676.369 499.707 682.774 494.264 688.592L486.957 696.11C485.81 697.218 483.922 698.569 483.084 699.845L481.091 699.742C477.855 703.129 473.687 706.084 470.042 709.052L450.497 725.506L453.318 721.177C458.132 713.357 461.598 704.683 465.599 696.438C473.506 680.14 483.073 664.04 484.217 645.511C484.483 641.205 484.485 636.829 483.486 632.611L483.239 633.216C483.14 643.307 481.68 652.973 477.96 662.414C470.383 681.65 454.735 696.861 440.267 711.085C429.886 721.29 418.061 731.931 404.055 736.657C397.546 738.853 390.313 739.653 383.465 739.584C366.321 739.409 351.356 732.703 338.923 720.991L325.138 708.495C312.43 696.821 300.294 684.723 291.667 669.581C285.381 658.549 280.043 643.608 283.51 630.847C279.871 636.567 280.902 646.928 282.344 653.291C285.751 668.335 294.185 681.413 301.648 694.676C303.579 698.108 305.859 701.624 307.491 705.192L319.031 724.432C314.051 719.575 308.609 715.732 302.967 711.719C302.255 711.213 300.605 709.724 299.827 709.539L289.682 701.576C277.318 690.922 265.157 678.864 257.918 663.985C254.923 657.83 253.06 651.429 251.614 644.765C250.983 652.447 254.107 660.887 257.099 667.815L256.723 667.472C254.492 665.09 252.444 662.354 250.34 659.845C241.881 649.756 233.888 638.416 231.63 625.173C231.103 622.083 231.226 618.775 231.208 615.644C230.274 617.726 229.872 619.891 229.409 622.113C229.403 623.827 229.801 627.93 228.975 629.266L228.697 629.332C225.044 627.813 221.708 625.125 218.762 622.519C209.85 614.635 204.165 605.762 199.22 595.041C196.628 589.772 193.263 586.112 189.667 581.559C184.139 574.561 180.071 565.748 181.212 556.681L181.282 556.166C178.056 561.158 174.313 565.801 171.278 570.923C169.518 573.896 168.287 577.11 166.748 580.195C162.583 564.995 165.358 548.151 172.238 534.236L172.533 533.893C174.216 531.784 175.488 529.173 177.03 526.932C181.699 520.147 186.657 513.67 192.143 507.524C193.703 505.777 195.629 503.301 197.526 501.999L195.718 539.093C200.472 532.297 208.349 529.799 216.203 528.442C236.7 524.901 259.072 529.103 278.216 536.657C284.669 539.204 291.265 542.152 296.941 546.192C303.635 550.957 310.46 558.44 311.859 566.857C312.756 572.258 311.573 577.445 309.974 582.578C307.567 590.311 304.228 597.029 299.965 603.908C298.536 606.212 295.487 609.55 294.749 612.032C302.136 604.485 310.644 598.279 318.915 591.758C327.959 584.626 337.359 576.459 347.559 571.113C350.969 569.325 354.519 567.953 358.425 567.92C363.102 567.883 367.198 569.851 370.475 573.145C377.47 580.173 383.002 591.821 383.952 601.618C385.758 591.466 390.04 579.265 399.044 573.235C403.396 570.321 408.358 569.786 413.426 570.917C424.309 573.348 434.56 582.336 443.426 588.834C453.241 596.028 462.921 603.268 472.119 611.252C466.159 601.522 459.951 590.994 457.255 579.807C456.191 575.39 455.716 571.099 456.79 566.639C459.327 556.102 466.589 549.043 475.632 543.558C492.209 533.501 512.33 528.256 531.566 527.046C539.384 526.554 547.686 526.595 555.336 528.531C561.662 530.132 567.993 533.164 571.452 538.946L572.377 540.572Z" fill="white"/>
<path d="M315.984 643.776C321.103 644.505 325.017 645.544 329.734 647.667C330.71 648.106 332 648.484 332.688 649.334L332.072 649.752C328.842 650.204 326.28 648.654 323.429 647.354C320.902 646.201 318.412 645.136 315.984 643.776Z" fill="#030713"/>
<path d="M451.737 644.447L453.194 644.381L453.175 644.822C448.866 646.973 442.954 649.657 438.137 649.707L436.382 649.07L436.411 648.579C441.254 646.264 446.472 645.274 451.737 644.447Z" fill="#030713"/>
<path d="M228.975 629.266L228.867 626.411C227.681 625.001 226.886 623.231 225.842 621.701C222.173 616.327 218.083 611.225 216.297 604.84C218.552 607.716 220.357 610.901 222.815 613.642C224.68 615.722 227.419 617.519 228.444 620.203C228.643 620.726 228.808 621.16 229.107 621.639L229.409 622.113C229.403 623.827 229.801 627.93 228.975 629.266Z" fill="#D3D2D2"/>
<path d="M309.803 620.4L310.355 620.775C304.59 626.338 298.39 632.975 298.021 641.5L297.825 645.95L297.596 645.611C297.151 644.72 297.234 643.449 297.219 642.458C297.162 638.74 297.312 634.264 298.843 630.83L299.066 630.356C299.691 628.996 300.354 627.647 301.225 626.423C303.3 623.51 306.218 621.001 309.803 620.4Z" fill="#D3D2D2"/>
<path d="M454.453 619.272C455.115 619.122 455.667 619.009 456.35 619.094C460.125 619.568 463.758 622.273 465.874 625.374C470.245 631.782 469.177 641.428 467.769 648.579L467.331 649.21C467.573 643.459 468.291 636.913 465.506 631.585C462.99 626.771 460.535 623.013 455.534 620.519C454.732 620.119 454.84 620.039 454.453 619.272Z" fill="#D3D2D2"/>
<path d="M227.588 594.376C230.548 598.803 233.206 603.55 236.677 607.603C242.292 614.159 249.29 618.9 255.922 624.299C259.521 627.229 262.87 630.405 266.602 633.175C266.513 633.197 266.426 633.249 266.335 633.242C265.042 633.143 263.606 631.893 262.526 631.214L256.532 627.812L243.363 621.124C240.304 619.413 237.347 617.399 235.085 614.686C230.424 609.092 229.489 601.185 227.588 594.376Z" fill="#D3D2D2"/>
<path d="M511.631 627.526C508.013 628.574 503.119 631.323 500.156 633.665C499.515 634.171 499.273 634.389 498.492 634.678C500.578 631.474 505.947 628.989 509.149 626.878C512.469 624.687 515.805 622.355 518.875 619.821C526.802 613.275 534.19 603.715 539.421 594.848C540.089 596.706 537.48 608.07 536.654 610.338C536.02 612.079 535.533 613.598 534.391 615.084C527.846 621.24 519.37 623.281 511.631 627.526Z" fill="#D3D2D2"/>
<path d="M307.491 705.192C305.658 704.119 305.238 702.701 304.191 700.994L301.828 696.732L301.566 696.298L301.283 695.734L301.002 695.356L297.966 689.839L297.627 689.345L297.625 688.784C296.546 688.058 296.334 686.923 295.636 685.877L295.377 685.495C295.01 684.794 295.415 685.233 294.897 684.714L294.627 684.46C294.396 682.838 292.637 680.869 291.897 679.388L290.502 676.57L289.941 675.445C289.524 674.775 289.312 674.093 288.897 673.472L288.627 673.096L288.625 672.626L287.877 671.593L287.127 669.806C286.925 669.283 287.028 669.161 286.659 668.668C285.904 667.661 285.749 666.078 285.066 664.924L284.691 664.36L284.875 663.608L284.316 663.233C284.245 662.412 284.13 661.843 283.751 661.119C283.527 660.692 283.298 660.335 283.191 659.851L283 658.536C282.502 657.276 282.677 658.581 282.573 657.521C282.513 656.91 282.588 657.162 282.398 656.594L282.252 656.188L282.066 655.531L281.691 654.967C281.711 654.391 281.736 653.918 281.567 653.358C281.239 652.268 280.978 651.569 281.073 650.4C281.152 649.439 280.531 649.141 280.658 648.016C280.795 646.804 280.502 647.279 280.191 646.325C279.847 645.269 280.49 643.58 280.295 642.382C280.031 640.765 279.956 638.331 280.377 636.746L280.938 636.56C281.169 635.86 281.102 635.902 280.934 635.241L280.188 636.177C279.146 635.133 279.866 634.743 279.25 633.83L278.125 633.922L277 633.171C276.218 632.815 276.527 633.162 275.875 632.795L275.127 632.233L273.531 631.67C273.398 632.32 273.217 632.939 273.284 633.608C273.351 634.266 273.464 634.881 273.399 635.547C273.314 636.423 273.338 635.535 273.342 636.721V637.495L273.25 638.81C273.374 639.429 273.663 639.818 273.717 640.501C273.77 641.174 273.546 642.134 273.717 642.756C273.885 643.368 274.139 643.56 274.092 644.259L274 644.822C274.508 646.011 274.243 646.865 274.467 648.016C274.805 649.755 274.559 647.436 274.703 648.872C274.769 649.53 274.769 650.086 275.042 650.705C275.414 651.548 275.015 651.972 275.592 652.9L275.5 653.652L275.875 654.216L275.969 655.436C276.168 656.192 276.558 657.013 276.717 657.785C277.013 659.223 276.602 657.92 276.988 659.083C277.303 660.027 277.778 661.078 278.031 662.012C278.204 662.649 278.054 662.933 278.389 663.603C278.676 664.178 278.893 664.675 279.062 665.3L279.25 666.051C279.727 666.971 279.564 666.239 279.73 667.073C279.859 667.718 279.888 668.154 280.245 668.728L280.467 669.057L280.375 669.62C280.655 670.06 280.903 670.412 281.031 670.924C281.238 671.751 281.759 672.969 282.151 673.754L282.595 674.716C283.019 675.857 283.447 677.056 284.125 678.075L284.498 678.545C284.5 679.09 284.592 679.472 284.875 679.953C285.148 680.416 285.4 680.536 285.537 681.087C285.656 681.561 285.551 681.364 285.83 681.756C287.736 684.429 288.939 687.744 290.875 690.474C291.436 691.264 291.833 692.117 292.369 692.922L293.5 694.607L293.873 695.077C293.876 695.77 294.063 695.735 294.531 696.204L294.438 697.001C287.618 686.677 282.175 676.296 278.182 664.548C272.948 649.148 269.497 630.336 277.095 615.16C277.863 613.626 279.001 611.332 280.772 610.805C282.392 610.323 284.427 610.827 285.857 611.643L286.375 611.949C288.445 613.146 289.826 614.442 291.457 616.165C290.192 618.157 289.328 620.477 288.347 622.622C286.843 624.632 285.861 626.657 284.646 628.816C284.437 629.186 284.31 629.597 284.123 629.979L283.51 630.847C279.871 636.567 280.902 646.928 282.344 653.291C285.751 668.335 294.185 681.413 301.648 694.676C303.579 698.108 305.859 701.624 307.491 705.192Z" fill="#D3D2D2"/>
<path d="M333.048 687.606C330.919 685.735 328.563 683.585 326.858 681.326C331.754 684.936 336.951 688.477 342.752 690.44C353.871 694.201 366.412 692.638 376.792 687.423C371.631 685.586 366.669 683.941 362.089 680.817C348.945 671.849 344.477 658.325 341.673 643.311C340.424 636.624 338.48 625.992 342.715 620.061C348.314 612.22 359.427 608.05 368.556 606.457C384.293 603.711 404.583 604.256 418.063 613.81C421.984 616.587 426.206 621.17 426.904 626.129C427.476 630.195 426.786 634.56 426.262 638.603C424.676 650.843 422.437 662.796 414.768 672.826C408.103 680.108 400.514 685.424 390.865 687.883C401.179 692.81 412.289 694.165 423.254 690.286C428.152 688.553 432.24 685.802 436.228 682.507C437.474 681.478 438.588 680.148 439.92 679.26C438.184 682.138 436.177 684.687 433.999 687.239C422.434 696.954 408.535 703.228 393.402 704.657C372.982 706.583 348.957 700.829 333.048 687.606Z" fill="#030713"/>
<path d="M412.526 658.725L413.505 658.487L414 658.912C413.546 659.702 413.131 660.239 412.404 660.803C410.087 662.599 407.19 663.276 404.312 662.985C403.741 662.73 403.303 662.405 402.795 662.043C403.839 661.177 405.45 661.148 406.75 660.751L412.526 658.725Z" fill="white"/>
<path d="M351.974 658.505L358.293 660.062C360.078 660.414 363.118 660.46 364.41 661.731L363.812 662.82C363.263 663.022 362.715 663.245 362.125 663.3C358.055 663.683 354.77 661.042 351.974 658.505Z" fill="white"/>
<path d="M407.745 628.701C413.774 630.542 418.119 637.068 421.07 642.38L420.999 644.447L420.625 644.591C419.605 642.897 418.85 641.07 417.735 639.433C414.911 635.284 411.473 632.697 407.001 630.6C407.613 630.581 408.532 630.487 409.128 630.667L409.75 630.924L410.314 630.451C409.365 630.041 408.758 629.627 407.991 628.93L407.745 628.701Z" fill="#D3D2D2"/>
<path d="M346.897 640.257C347.246 640.97 347.061 640.914 347.875 641.233C350.488 636.959 354.172 631.256 358.812 628.99C361.869 627.497 366.15 627.726 369.489 627.707L383.842 627.702L397.444 627.762C400.76 627.796 404.582 627.641 407.745 628.701L407.991 628.93C408.758 629.627 409.365 630.041 410.314 630.451L409.75 630.924L409.128 630.667C408.532 630.487 407.613 630.581 407.001 630.6L404.492 630.123C398.659 628.958 391.971 629.521 386.003 629.493L372.826 629.463C369.427 629.467 365.995 629.403 362.688 630.271L362.066 630.426C356.93 631.738 354.634 634.517 351.442 638.481C350.411 639.762 349.122 641.13 348.325 642.567L346.828 645.907L346.381 640.12L346.376 639.873L346.897 640.257Z" fill="url(#paint13_linear_1201_82)"/>
<path d="M349.842 623.058C351.378 621.083 353.583 619.615 355.517 618.044C363.363 611.67 373.723 610.43 383.484 610.433C386.364 610.435 389.286 610.35 392.151 610.681C399.691 611.551 405.597 613.316 411.859 617.724C413.424 618.827 414.88 619.728 416.127 621.218C415.321 621.368 415.064 621.58 414.309 621.21C412.914 620.525 411.451 619.852 409.914 619.58C401.54 618.102 392.499 618.645 384.008 618.613L368.786 618.637C364.78 618.696 360.264 618.731 356.472 620.152C354.164 621.017 352.269 622.657 349.842 623.058Z" fill="url(#paint14_linear_1201_82)"/>
<path d="M349.842 623.058C352.269 622.657 354.164 621.017 356.472 620.153C360.264 618.731 364.78 618.696 368.786 618.638L384.008 618.613C392.499 618.645 401.54 618.102 409.914 619.58C411.451 619.852 412.914 620.525 414.309 621.21C415.064 621.58 415.321 621.368 416.127 621.218C418.874 623.717 422.556 626.683 422.872 630.7C423.113 633.775 422.621 636.847 421.96 639.836C418.664 634.213 415.413 628.695 408.625 626.94C400.344 624.798 390.343 625.684 381.804 625.697C375.383 625.707 368.484 625.312 362.131 626.218C360.039 626.518 358.253 627.029 356.435 628.134C352.119 630.76 348.351 635.43 346.897 640.257L346.376 639.873C346.078 635.91 345.559 631.34 347.036 627.55C347.68 625.897 348.796 624.473 349.842 623.058Z" fill="white"/>
<path d="M431.947 712.912C436.807 707.7 440.616 701.684 445.116 696.172C450.201 689.943 456.17 684.481 461.043 678.058C464.968 672.883 467.822 666.974 470.905 661.298C473.206 657.061 475.923 651.84 476.999 647.141C477.902 643.195 478.442 638.976 478.241 634.922C477.952 629.104 474.656 622.324 478.025 616.893C479.654 614.268 483.381 612.032 486.366 611.351C487.519 611.089 488.924 610.968 489.914 611.705C493.389 614.294 494.573 621.504 495.144 625.554C495.466 630.3 495.959 636.805 494.163 641.253L484.29 673.51L481.523 683.521L480.809 685.214C477.329 693.388 472.135 701.63 466.295 708.322C467.041 708.322 467.935 707.193 468.48 706.624C469.499 705.562 468.584 706.61 469.281 705.409C469.899 704.345 470.933 703.389 471.625 702.31L473.881 698.933C474.417 698.129 474.814 697.276 475.375 696.486C477.159 693.969 479.977 689.673 480.713 686.723C480.854 686.158 481.133 685.736 481.375 685.214L481.75 684.275L482.031 683.616L482.506 682.014C482.751 681.277 482.885 680.594 483.156 679.859L483.707 677.428C484.123 675.347 484.827 673.25 485.406 671.217C485.604 670.525 485.635 669.957 485.875 669.245C486.277 668.048 486.464 666.778 486.906 665.581L487.281 664.055C487.448 663.22 487.278 663.993 487.656 662.951C488.302 661.175 488.622 659.294 489.402 657.574C489.703 656.91 489.599 657.2 489.66 656.529C489.732 655.738 490.244 654.587 490.469 653.746C490.716 652.82 491.194 651.765 491.506 650.828C491.819 649.888 491.983 649.104 492.402 648.18C492.684 647.559 492.557 647.196 492.719 646.607C492.887 645.995 493.232 645.439 493.404 644.805C493.609 644.053 493.489 644.429 493.855 643.695C494.207 642.991 494.102 643.328 494.166 642.62C494.252 641.675 495.123 639.473 495.625 638.623L495.25 637.684L495.998 637.493L496.191 637.684H496.75C498.033 636.374 499.352 634.657 500.969 633.832L501.625 633.362L503.336 632.2C503.896 631.825 504.11 631.918 504.625 631.672L505.375 631.108L506.594 630.451L508 629.605L508.34 629.523C509.535 629.223 510.624 628.395 511.767 627.911L511.631 627.526C519.37 623.281 527.846 621.24 534.391 615.084L535.051 616.506C535.057 621.496 534.945 626.102 533.6 630.959C532.64 634.42 530.842 637.713 529.197 640.894C524.605 649.776 518.948 657.923 512.282 665.369L509.036 669.854C504.461 676.369 499.707 682.774 494.264 688.592L486.957 696.11C485.81 697.218 483.922 698.569 483.084 699.845L481.091 699.742C477.855 703.129 473.687 706.084 470.042 709.052L450.497 725.506L453.318 721.177C458.132 713.357 461.598 704.683 465.599 696.438C473.506 680.14 483.073 664.04 484.217 645.511C484.483 641.205 484.485 636.829 483.486 632.611L483.239 633.216C483.14 643.307 481.68 652.973 477.96 662.414C470.383 681.65 454.735 696.861 440.267 711.085C429.886 721.29 418.061 731.931 404.055 736.657C397.546 738.853 390.313 739.653 383.465 739.584C366.321 739.409 351.356 732.703 338.923 720.99C341.196 721.595 341.954 722.766 343.844 724.104L343.937 722.666C342.776 722.051 341.687 721.397 341.193 720.121C340.465 718.239 338.834 716.748 337.489 715.274C334.969 712.515 331.61 709.191 329.953 705.86C329.675 705.301 329.528 704.965 329.111 704.47C327.466 702.524 325.794 700.636 324.392 698.5L327.062 701.179L327.372 701.744C328.291 702.872 329.32 703.938 330.654 704.549L330.967 704.686L334.173 708.058C334.635 707.713 334.675 707.752 334.975 707.271C336.539 704.771 333.065 697.08 332.281 694.231C331.971 693.107 331.501 690.408 332.066 689.326L333.048 687.606C348.957 700.829 372.982 706.583 393.402 704.657C408.535 703.228 422.434 696.955 433.999 687.239L434.064 688.121C434.619 687.597 434.839 687.09 435.627 687.09C435.627 687.79 435.67 687.411 435.441 688.219L435.767 689.366C436.076 690.67 435.441 692.715 435.156 694.021C434.001 699.326 432.099 704.234 431.799 709.709C431.741 710.763 431.55 711.928 431.947 712.912Z" fill="url(#paint15_linear_1201_82)"/>
<path d="M501.351 675.49C507.161 665.689 513.474 654.539 515.254 643.172L515.735 643.183C515.565 647.777 515.117 652.209 514.119 656.707L512.64 662.108C512.477 662.612 511.908 663.814 511.908 664.288C511.908 664.668 512.157 665.008 512.282 665.369L509.036 669.854C504.461 676.369 499.707 682.774 494.264 688.592L486.957 696.11C485.81 697.218 483.922 698.569 483.084 699.845L481.091 699.742C488.776 692.164 495.138 684.313 501.351 675.49Z" fill="url(#paint16_linear_1201_82)"/>
<path d="M360.693 727.027C366.697 728.143 372.331 729.323 378.455 729.735C391.21 730.593 405.445 728.513 417.547 724.327L417.438 725.417L417.869 725.808C416.733 727.016 415.142 727.275 413.706 728.035C411.759 729.066 409.564 729.541 407.472 730.197C399.579 732.673 392.47 733.624 384.25 733.929C379.545 734.103 374.895 734.257 370.228 733.486C366.457 732.863 361.69 731.925 358.844 729.176L358.11 729.308C357.155 728.708 356.586 728.469 356.31 727.271C356.24 726.97 356.323 726.649 356.376 726.356C357.105 726.526 357.713 726.695 358.412 726.944C359.161 727.212 359.917 727.093 360.693 727.027Z" fill="#B7B6B6"/>
<path d="M433.999 687.239L434.064 688.121C434.619 687.597 434.839 687.09 435.627 687.09C435.627 687.79 435.67 687.411 435.441 688.22L435.767 689.366C436.076 690.67 435.441 692.715 435.156 694.021C434.001 699.326 432.099 704.234 431.799 709.71C431.741 710.764 431.55 711.928 431.947 712.912C430.356 715.197 428.138 717.446 425.903 719.069L423.625 720.757L423.074 721.127L420.625 722.603C419.589 723.22 418.508 723.577 417.547 724.327C405.445 728.513 391.21 730.593 378.455 729.735C372.331 729.323 366.697 728.144 360.693 727.027C358.109 725.897 355.282 725.4 352.703 724.166C349.592 722.677 346.816 720.11 344.219 717.86C340.692 714.806 337.054 711.757 334.173 708.058C334.635 707.713 334.675 707.752 334.975 707.271C336.539 704.771 333.065 697.08 332.281 694.231C331.971 693.107 331.501 690.408 332.066 689.326L333.048 687.606C348.957 700.829 372.982 706.583 393.402 704.657C408.535 703.228 422.434 696.955 433.999 687.239Z" fill="#D3D2D2"/>
<path d="M262.879 404.406C265.211 400.642 269.725 397.215 273.164 394.466C294.474 377.425 321.579 365.684 348.033 359.523C371.524 354.053 397.055 352.79 420.812 357.433C430.825 359.39 440.4 362.491 449.875 366.248C458.25 369.568 466.442 373.295 474.091 378.086C482.822 383.554 491.836 390.097 499.398 397.108C501.867 399.397 503.924 402.067 506.366 404.348C506.995 404.935 507.305 405.5 507.693 406.265C513.889 410.859 519.274 416.197 524.272 422.064C526.799 425.029 529.11 428.384 531.949 431.044C533.538 431.611 535.175 433.879 536.198 435.195C542.327 443.086 546.397 452.305 551.322 460.94C554.926 467.26 559.194 473.042 564.064 478.432C567.675 482.427 571.341 486.355 575.282 490.027L588.208 501.49C591.786 504.6 596.505 508.15 598.623 512.442C600.712 516.674 601.866 521.947 603.041 526.512L607.948 544.878L610.358 552.707C610.805 554.06 611.528 555.682 611.681 557.079C609.922 554.397 608.189 551.689 606.136 549.219C604.064 546.727 601.703 544.435 599.752 541.85C598.319 539.95 597.187 537.856 595.901 535.859C595.088 535.903 595.063 535.772 594.413 536.337C588.961 525.257 583.995 515.287 575.398 506.179C573.523 504.193 571.195 501.681 568.799 500.354L570.417 528.423C570.668 531.047 570.991 533.755 571.531 536.333C571.815 537.688 572.469 539.193 572.377 540.572L571.452 538.946C567.993 533.164 561.662 530.132 555.336 528.53C547.686 526.595 539.384 526.554 531.566 527.046C512.33 528.256 492.209 533.501 475.632 543.558C466.589 549.043 459.327 556.102 456.79 566.639C455.716 571.099 456.191 575.39 457.255 579.807C459.951 590.994 466.159 601.522 472.119 611.252C462.921 603.268 453.241 596.028 443.426 588.834C434.56 582.336 424.309 573.348 413.426 570.917C408.358 569.786 403.396 570.321 399.044 573.235C390.04 579.265 385.758 591.466 383.952 601.618C383.002 591.821 377.47 580.173 370.475 573.145C367.198 569.851 363.102 567.883 358.425 567.92C354.519 567.953 350.969 569.325 347.559 571.113C337.359 576.459 327.959 584.626 318.915 591.758C310.644 598.279 302.136 604.485 294.749 612.032C295.487 609.55 298.536 606.212 299.965 603.908C304.228 597.029 307.567 590.311 309.974 582.578C311.573 577.445 312.756 572.258 311.859 566.857C310.46 558.44 303.635 550.957 296.941 546.192C291.265 542.152 284.669 539.204 278.216 536.657C259.072 529.103 236.7 524.901 216.203 528.442C208.349 529.799 200.472 532.297 195.718 539.093L197.526 501.999C195.629 503.301 193.703 505.777 192.143 507.524C186.657 513.67 181.699 520.147 177.03 526.932C175.488 529.173 174.216 531.784 172.533 533.893L172.238 534.236L171.484 534.189C165.964 539.128 160.821 544.397 155.949 549.983L149.491 557.825L153.789 541.394L158.877 524.399C160.028 521.071 161.123 517.626 163.017 514.63C165.514 510.682 170.402 507.765 174.162 505.135C179.319 501.527 184.602 497.999 189.461 493.992C194.656 489.708 199.307 484.723 203.827 479.743C214.278 468.228 220.643 453.771 228.876 440.681C231.021 437.271 233.158 433.268 235.938 430.363C243.737 420.107 251.711 411.103 262.879 404.406Z" fill="url(#paint17_linear_1201_82)"/>
<path d="M478.624 475.828C480.605 475.049 482.249 473.918 484.135 473.059C486.269 472.087 488.559 470.94 490.481 469.593L490.811 469.35L490.875 470.131C488.882 471.468 485.033 472.807 483.626 474.563L484.011 474.887C483.667 475.626 483.275 476.03 482.686 476.587L482.683 476.895L481.628 477.421C479.389 477.714 477.267 478.688 475 478.812L474.857 478.522C475.873 477.169 477.164 476.596 478.624 475.828Z" fill="#393B46"/>
<path d="M490.875 470.131C497.465 466.51 502.697 462.821 510.25 461.175C520.287 458.986 527.7 461.702 536.865 465.332C539.328 466.308 542.198 467.002 544.437 468.388L545.866 468.668C544.602 469.446 543.023 469.399 541.621 469.858C538.127 471.001 534.824 472.684 531.327 473.827C528.868 474.629 525.877 474.798 523.566 475.853C523.195 476.022 522.773 476.466 522.485 476.731C520.608 477.237 518.488 477.033 516.546 477.004L502.482 476.428L481.628 477.421L482.683 476.895L482.686 476.587C483.275 476.03 483.667 475.626 484.011 474.887L483.626 474.563C485.033 472.807 488.882 471.468 490.875 470.131Z" fill="#747373"/>
<path d="M484.011 474.887C487.35 473.609 491.373 473.112 494.909 472.702C504.422 471.597 513.92 472.172 523.4 471.199C530.505 470.469 537.252 468.198 544.437 468.388L545.866 468.668C544.602 469.446 543.023 469.399 541.621 469.858C538.127 471.001 534.824 472.684 531.327 473.827C528.868 474.629 525.877 474.798 523.566 475.853C523.195 476.022 522.773 476.466 522.485 476.731C520.608 477.237 518.488 477.033 516.546 477.004L502.482 476.428L481.628 477.421L482.683 476.895L482.686 476.587C483.275 476.03 483.667 475.626 484.011 474.887Z" fill="#2A2B36"/>
<path d="M448.061 494.277C450.413 493.799 452.122 491.91 453.927 490.41C460.267 485.142 465.664 479.355 471.414 473.487C473.179 471.686 477.451 467.466 479.985 467.452C480.035 468.512 480.173 469.645 479.97 470.69C479.585 472.662 479.528 473.896 478.624 475.828C477.164 476.596 475.873 477.169 474.857 478.522L475 478.812C477.267 478.688 479.389 477.714 481.628 477.421L502.482 476.428L516.546 477.004C518.488 477.033 520.608 477.237 522.485 476.731C525.239 476.496 528.157 476.296 530.833 475.614C532.678 475.144 534.417 474.267 536.24 473.704C531.612 478.148 527.586 483.067 523.15 487.684L507.141 503.133C497.046 512.519 485.912 523.186 472.562 527.494C464.799 529.999 456.512 530.197 448.43 530.02L439.938 529.825C439.315 529.831 437.821 529.785 437.318 530.044C435.828 530.815 434.068 532.666 432.849 533.822L416.289 552.895L410.409 561.197C411.189 558.23 412.658 555.226 413.796 552.363C413.964 547.649 417.681 541.635 419.424 537.17C421.129 532.806 422.539 528.445 423.318 523.818C423.704 521.529 423.741 519.05 423.685 516.732C423.659 515.622 423.267 513.552 423.661 512.563C423.902 511.959 424.681 511.148 425.08 510.594C429.202 510.008 432.355 508.455 435.906 506.416C440.625 502.947 444.383 498.803 448.061 494.277Z" fill="#030713"/>
<path d="M425.08 510.594C429.202 510.008 432.355 508.455 435.906 506.416C435.168 511.862 433.049 516.987 430.839 521.984C426.282 532.285 420.352 542.018 414.757 551.776L413.796 552.363C413.964 547.649 417.681 541.635 419.424 537.17C421.129 532.806 422.539 528.445 423.318 523.818C423.704 521.529 423.741 519.05 423.685 516.732C423.659 515.622 423.267 513.552 423.661 512.563C423.902 511.959 424.681 511.148 425.08 510.594Z" fill="#2A2B36"/>
<path d="M504.101 480.205L507.9 479.938C506.31 492.848 501.196 504.857 491.688 513.962C477.707 527.348 461.934 528.264 443.627 527.769L439.066 527.694C443.856 519.597 447.72 511.056 453.555 503.604C460.124 495.213 468.212 489.162 478.188 485.458C486.354 482.427 495.488 481.256 504.101 480.205Z" fill="#0090F9"/>
<path d="M222.299 470.143C221.504 469.79 221.788 470.067 221.405 469.355C225.665 467.719 229.4 465.149 233.494 463.2C243.706 458.339 254.529 458.836 264.942 462.624L265.274 462.189C269.103 464.042 272.386 466.374 276.062 468.415L278.369 469.97L280.224 466.374L282.625 468.199L292.378 476.901C295.778 479.654 299.497 481.74 303.067 484.223L312.015 490.495C313.858 491.739 315.627 493.17 317.89 493.426C322.866 498.719 327.942 503.938 334.24 507.661C335.289 513.494 336.515 519.574 338.543 525.151C341.03 531.99 344.658 538.409 348.288 544.689C351.689 550.574 355.696 556.682 357.721 563.177L329.334 530.016C327.96 530.353 326.613 530.461 325.205 530.56C315.813 531.226 304.856 531.391 295.66 529.113C286.075 526.737 277.237 521.127 269.512 515.112C258.767 506.748 248.891 496.843 239.432 487.047C234.973 482.431 230.907 477.235 226.078 473.018L226.022 473.027C224.66 472.145 223.442 471.302 222.299 470.143Z" fill="#030713"/>
<path d="M222.299 470.143C221.504 469.79 221.788 470.067 221.405 469.355C225.665 467.719 229.4 465.149 233.494 463.2C243.706 458.339 254.529 458.836 264.942 462.624L265.274 462.189C269.103 464.042 272.386 466.374 276.062 468.415L278.369 469.97L278.751 470.285C279.395 470.796 280.055 471.119 280.748 471.543C281.902 472.251 282.936 473.104 284.123 473.798C286.06 474.931 287.186 475.976 288.475 477.783C275.82 476.278 263.237 477.168 250.57 476.57L241.828 475.816C240.308 475.619 237.473 474.836 236.109 475.367L236.518 476.118L235.938 476.726C232.961 474.912 230.039 473.81 226.754 472.68L226.078 473.018L226.022 473.027C224.66 472.145 223.442 471.302 222.299 470.143Z" fill="#747373"/>
<path d="M264.942 462.624L265.274 462.189C269.103 464.041 272.386 466.374 276.062 468.415L278.369 469.97L278.751 470.285C279.395 470.796 280.055 471.119 280.748 471.543C281.902 472.25 282.936 473.104 284.123 473.798C286.06 474.931 287.186 475.976 288.475 477.783C275.82 476.278 263.237 477.168 250.57 476.57L241.828 475.816C240.308 475.619 237.473 474.836 236.109 475.367L236.518 476.118L235.938 476.726C232.961 474.912 230.039 473.81 226.754 472.68L226.078 473.018L226.022 473.027C224.66 472.145 223.442 471.302 222.299 470.143C226.131 471.047 230.288 471.028 234.213 471.143L257.689 471.401C264.337 471.464 271.961 471.334 278.328 473.446L285.825 476.181C284.751 475.043 283.165 474.195 281.875 473.314L274.515 468.153L264.942 462.624Z" fill="#2A2B36"/>
<path d="M257.566 482.183L281.125 485.321C296.707 488.911 308.834 496.815 316.984 510.807C320.215 516.354 322.775 522.208 326.195 527.659C307.415 528.802 290.469 528.4 275.018 516.169C264.187 507.596 259.141 495.648 257.566 482.183Z" fill="#0090F9"/>
<path d="M262.879 404.406C270.935 402.842 278.835 403.791 286.786 405.543C297.175 407.833 306.84 411.276 315.709 417.268C321.551 421.215 326.462 425.961 331.158 431.19C333.211 433.476 335.443 436.673 337.877 438.467C334.933 433.73 332.857 428.771 330.292 423.841C326.39 416.343 321.482 410.191 315.334 404.436C321.422 406.689 327.774 408.706 333.47 411.856C350.637 421.346 363.069 440.168 371.151 457.655C375.361 466.762 377.484 475.482 378.384 485.446C375.274 482.664 372.773 479.394 370.08 476.223L359.732 464.853C363.884 471.168 366.681 477.864 367.948 485.331C368.422 491.237 367.886 497.61 363.821 502.305C360.799 505.795 356.965 507.844 352.562 509.031L351.884 509.219C345.848 510.807 339.934 509.904 334.24 507.661C327.942 503.938 322.866 498.719 317.89 493.426L312.133 485.379C308.583 479.893 305.725 474.085 302.956 468.178C300.33 462.575 298.193 457.323 297.472 451.131L296.839 450.873C296.986 457.665 297.693 464.605 299.177 471.236C297.984 470.279 297.037 468.858 296.063 467.665L289.722 459.773C279.762 447.501 269.538 435.835 261.353 422.243C253.243 421.025 246.536 425.565 239.746 429.094C238.609 429.686 237.166 430.752 235.938 430.363C243.737 420.107 251.711 411.103 262.879 404.406Z" fill="white"/>
<path d="M397.858 490.341L397.455 488.142C396.66 481.288 399.836 472.857 403.931 467.475L403.562 467.103L386.182 485.269C388.739 475.458 391.618 465.447 395.902 456.245C404.093 438.656 416.971 420.459 434.22 410.981C438.882 408.419 444.089 406.694 449.076 404.88L428.103 438.66C430.874 436.942 433.648 433.092 435.993 430.65C444.563 421.723 453.492 414.798 465.001 409.973C477.237 404.842 495.105 401.133 507.693 406.265C513.889 410.859 519.274 416.197 524.272 422.064C526.799 425.029 529.11 428.384 531.949 431.044L531.024 431.405C523.821 427.061 515.103 423.209 506.729 421.905C498.767 435.9 487.941 446.847 477.322 458.735L464.885 473.565L467.887 445.207L466.535 448.693C465.58 456.598 463.001 463.42 459.94 470.706C456.454 479.003 452.649 486.521 448.061 494.277C444.383 498.803 440.625 502.948 435.906 506.416C432.355 508.455 429.202 510.008 425.08 510.594C419.211 510.867 414.06 509.931 408.99 506.874C402.898 503.201 399.507 497.114 397.858 490.341Z" fill="white"/>
<defs>
<linearGradient id="paint0_linear_1201_82" x1="168.804" y1="175.883" x2="169.466" y2="182.703" gradientUnits="userSpaceOnUse">
<stop stop-color="#767476"/>
<stop offset="1" stop-color="#898989"/>
</linearGradient>
<linearGradient id="paint1_linear_1201_82" x1="529.678" y1="287.501" x2="550.716" y2="248.299" gradientUnits="userSpaceOnUse">
<stop stop-color="#1E202A"/>
<stop offset="1" stop-color="#393839"/>
</linearGradient>
<linearGradient id="paint2_linear_1201_82" x1="219.129" y1="200.268" x2="199.863" y2="250.434" gradientUnits="userSpaceOnUse">
<stop stop-color="#8F9091"/>
<stop offset="1" stop-color="#C2C0BF"/>
</linearGradient>
<linearGradient id="paint3_linear_1201_82" x1="548.465" y1="204.283" x2="572.639" y2="239.086" gradientUnits="userSpaceOnUse">
<stop stop-color="#999799"/>
<stop offset="1" stop-color="#C2C1C0"/>
</linearGradient>
<linearGradient id="paint4_linear_1201_82" x1="652.471" y1="268.468" x2="579.485" y2="339.718" gradientUnits="userSpaceOnUse">
<stop stop-color="#25272F"/>
<stop offset="1" stop-color="#43434F"/>
</linearGradient>
<linearGradient id="paint5_linear_1201_82" x1="383.085" y1="225.07" x2="383.735" y2="158.776" gradientUnits="userSpaceOnUse">
<stop stop-color="#007CE2"/>
<stop offset="1" stop-color="#49CBFF"/>
</linearGradient>
<linearGradient id="paint6_linear_1201_82" x1="505.385" y1="250.266" x2="492.943" y2="268.568" gradientUnits="userSpaceOnUse">
<stop stop-color="#002C79"/>
<stop offset="1" stop-color="#004785"/>
</linearGradient>
<linearGradient id="paint7_linear_1201_82" x1="130.746" y1="539.681" x2="123.208" y2="506.788" gradientUnits="userSpaceOnUse">
<stop stop-color="#031C45"/>
<stop offset="1" stop-color="#003974"/>
</linearGradient>
<linearGradient id="paint8_linear_1201_82" x1="509.613" y1="370.289" x2="450.754" y2="412.008" gradientUnits="userSpaceOnUse">
<stop stop-color="#003672"/>
<stop offset="1" stop-color="#1265A0"/>
</linearGradient>
<linearGradient id="paint9_linear_1201_82" x1="219.212" y1="807.59" x2="254.672" y2="618.471" gradientUnits="userSpaceOnUse">
<stop stop-color="#1F90E3"/>
<stop offset="1" stop-color="#54F9FF"/>
</linearGradient>
<linearGradient id="paint10_linear_1201_82" x1="392.479" y1="348.326" x2="392.618" y2="336.205" gradientUnits="userSpaceOnUse">
<stop stop-color="#0065B4"/>
<stop offset="1" stop-color="#1782CA"/>
</linearGradient>
<linearGradient id="paint11_linear_1201_82" x1="562.762" y1="765.675" x2="519.887" y2="648.238" gradientUnits="userSpaceOnUse">
<stop stop-color="#009BFF"/>
<stop offset="1" stop-color="#88FDFF"/>
</linearGradient>
<linearGradient id="paint12_linear_1201_82" x1="542.191" y1="699.783" x2="535.139" y2="560.127" gradientUnits="userSpaceOnUse">
<stop/>
<stop offset="1" stop-color="#2B2D34"/>
</linearGradient>
<linearGradient id="paint13_linear_1201_82" x1="383.204" y1="632.276" x2="382.909" y2="627.199" gradientUnits="userSpaceOnUse">
<stop stop-color="#CCCBC9"/>
<stop offset="1" stop-color="#F0EFF6"/>
</linearGradient>
<linearGradient id="paint14_linear_1201_82" x1="384.158" y1="610.323" x2="383.123" y2="620.228" gradientUnits="userSpaceOnUse">
<stop stop-color="#353536"/>
<stop offset="1" stop-color="#504F50"/>
</linearGradient>
<linearGradient id="paint15_linear_1201_82" x1="356.951" y1="631.09" x2="499.881" y2="700.567" gradientUnits="userSpaceOnUse">
<stop stop-color="#7E7C7C"/>
<stop offset="1" stop-color="white"/>
</linearGradient>
<linearGradient id="paint16_linear_1201_82" x1="506.224" y1="681.991" x2="490.776" y2="661.382" gradientUnits="userSpaceOnUse">
<stop stop-color="#606367"/>
<stop offset="1" stop-color="#E8DDD3"/>
</linearGradient>
<linearGradient id="paint17_linear_1201_82" x1="371.365" y1="355.602" x2="382.456" y2="610.42" gradientUnits="userSpaceOnUse">
<stop stop-color="#393A3E"/>
<stop offset="1" stop-color="#5A5959"/>
</linearGradient>
</defs>
</svg>
