<svg width="384" height="384" viewBox="0 0 384 384" fill="none" xmlns="http://www.w3.org/2000/svg">
<path d="M81.5355 3.9125L128.178 39.3773C130.714 41.2436 133.164 42.6814 136.085 43.8538C136.303 43.941 137.139 44.3534 137.327 44.3393C137.48 44.3279 139.573 42.2868 139.888 42.013L145.904 37.0404L162.56 23.8267C167.171 20.2411 171.699 16.5257 176.881 13.7758C180.099 12.0678 183.671 10.9723 187.271 10.448C192.205 9.72916 197.92 9.93085 202.643 11.6446C209.597 14.1683 215.814 19.5698 221.547 24.1375L238.212 37.7602L246.775 44.7189C248.304 44.2433 249.639 43.5586 250.99 42.7131C254.934 40.2448 258.596 37.0944 262.277 34.2439L284.009 17.1883C289.967 12.5212 296.056 7.89267 302.473 3.87146L310.679 21.4377C313.286 27.7071 315.467 34.111 316.937 40.7479C319.098 50.5082 319.767 60.4 319.696 70.374C319.624 80.5213 318.71 90.8856 316.497 100.791C314.784 108.453 312.232 115.971 309.246 123.227C309.587 126.271 310.397 129.289 311.102 132.265C313.728 143.355 317.177 155.438 323.879 164.817C326.872 169.004 330.528 172.364 334.435 175.66L341.626 181.462C346.035 185.216 350.027 189.309 353.165 194.213C362.871 209.378 359.674 228.218 356.024 244.753C356.702 244.895 357.662 244.685 358.353 244.571C363.27 243.762 370.123 242.213 373.155 237.907L373.325 237.664C372.515 241.259 372.141 244.874 370.86 248.36C367.883 256.459 362.251 264.69 355.139 269.715C353.349 270.98 351.405 271.894 349.427 272.813L355.612 272.497C358.131 272.385 360.26 272.467 362.62 271.473L350.218 283.948C340.179 293.595 328.997 301.413 316.611 307.729L301.444 314.843L280.554 322.909C272.955 325.954 265.623 329.412 258.354 333.178L214.232 357.408L201.24 365.107C198.463 366.78 195.438 368.931 192.406 370.053C190.393 369.4 188.339 367.942 186.469 366.934L174.915 360.808L146.313 346.104L119.793 331.744L85.3126 314.705C74.6165 309.567 63.539 304.384 53.563 297.931C45.8363 292.932 38.5332 287.149 31.7632 280.917C28.5865 277.994 25.6418 274.689 22.3537 271.917L22.1226 271.724C25.9919 273.062 30.0456 272.757 34.0535 272.254L30.0555 269.641C24.2412 265.474 19.603 260.391 16.0262 254.169C14.6249 251.731 13.3511 249.194 12.5773 246.48C11.7421 243.549 11.5131 240.483 11.0192 237.483L11.4101 237.996C12.6478 239.54 14.1019 240.266 15.8704 241.04C19.7141 242.724 24.0925 243.641 28.2466 244.123L26.1645 235.651C25.195 231.192 24.5767 226.533 24.4077 221.965C24.2132 216.705 24.5689 211.36 25.9728 206.272C28.6716 196.49 35.0956 188.475 42.594 181.876C47.969 177.146 53.4905 172.811 58.045 167.217C65.348 158.246 69.6285 147.521 72.509 136.403L74.4975 127.599C74.781 126.283 75.3555 124.563 75.2435 123.224C75.1625 122.262 74.6785 121.291 74.3105 120.411L72.5105 115.942L69.792 107.29C66.4005 94.8578 64.9215 82.5393 64.8335 69.6641C64.7855 62.5868 65.0735 55.56 66.1575 48.5578C67.9355 37.0744 71.2715 26.3764 76.0035 15.7938C77.781 11.8194 80.1185 8.03259 81.5355 3.9125Z" fill="#030713"/>
<path d="M82.386 29.9013C83.0795 27.456 84.579 24.91 85.7265 22.638L85.969 22.7353L86.3971 23.7846L86.3135 24.1599C86.1815 24.7855 86.176 25.4218 86.156 26.0586L86.0095 26.1412C85.04 26.7145 84.0945 28.5002 83.297 29.4282L83.344 29.1194C83.369 28.8159 83.4 28.8935 83.2515 28.7408L83.101 29.0935C82.9255 29.4885 82.746 29.6569 82.386 29.9013Z" fill="url(#paint0_linear_1201_3)"/>
<path d="M123.993 42.6948C125.768 43.7675 127.803 45.1369 129.823 45.655L128.668 58.1035C128.536 60.3795 128.61 62.7621 128.175 65.0025C126.843 64.0677 125.44 63.1043 124.278 61.9631C124.49 61.653 124.545 61.4661 124.567 61.0894C124.697 58.87 124.316 56.6081 124.284 54.3873C124.228 50.5793 124.684 46.4314 123.993 42.6948Z" fill="#2A2B36"/>
<path d="M24.195 256.319C21.9638 253.765 20.1818 251.039 18.5778 248.057C23.2211 249.484 27.8127 250.497 32.6856 250.626L33.2541 250.958L33.2463 251.288C33.2269 253.896 34.4762 256.114 34.7272 258.647C34.7772 259.15 34.8932 259.677 34.6396 260.138L28.5591 258.039C27.123 257.488 25.6783 256.681 24.195 256.319Z" fill="#66D4FF"/>
<path d="M83.9275 114.929L84.844 116.197C85.6835 116.192 87.7905 113.773 88.4345 113.09C88.9265 112.569 88.487 113.079 88.828 112.485C89.186 111.863 89.9315 111.476 90.328 110.794L90.9375 110.184L90.9385 109.949C91.347 109.583 91.5535 109.385 91.828 108.916C92.0455 108.544 92.3565 108.42 92.578 107.976C92.6795 107.774 92.8775 107.573 93.0175 107.401C93.2275 107.144 93.3845 106.892 93.5625 106.614C93.784 106.27 93.701 106.397 93.952 106.089C94.163 105.831 94.321 105.579 94.5 105.3L95.628 103.611L95.9735 103.019C96.2395 102.524 96.6035 102.085 96.8905 101.589L97.125 101.26L97.301 100.99L98.25 99.6637L98.578 99.2409C98.33 99.063 98.336 99.031 98.0305 99.0029C97.539 98.9583 96.4475 98.5084 96 98.2544L94.005 97.2475C93.343 96.9459 92.854 96.4349 92.156 96.1879L92.342 96.6578C91.8435 97.0566 91.7695 97.0386 91.125 97.0812L91.592 97.5967L91.547 98.0195L91.828 98.2074L91.9685 97.9744C92.245 98.2514 92.341 98.2199 92.344 98.6302C92.5635 99.0234 92.8015 99.3235 93.092 99.6637C93.092 100.294 92.7975 100.214 92.9045 100.978L92.4375 101.354L92.4365 101.589L92.296 101.824L92.156 102.104L91.875 102.105L91.874 102.387L91.5 102.481L91.499 102.762C91.2815 102.762 91.3965 102.79 91.172 102.622C90.8395 102.979 90.6655 103.283 90.1875 103.421L90.1865 103.702L89.8125 103.984L89.8115 104.219L89.672 104.407L89.9045 104.642V105.111L89.625 105.252L89.344 105.018L89.0635 105.017C88.772 104.712 88.763 104.639 88.594 104.266L88.454 104.078L88.3125 103.797H88.125L89.25 106.145L89.291 106.315C89.4615 106.999 90.3135 107.835 90.094 108.491C89.8035 108.15 89.6325 107.861 89.4385 107.459L85.9705 100.509L85.876 100.274L85.126 98.6292L84.751 97.8316L84.657 97.6498C84.422 97.1788 84.729 97.8026 84.4705 97.1272L84.001 95.999L83.4385 94.684L83.0575 93.5743C82.8305 92.7838 83.1405 93.7717 82.783 92.9942C82.6205 92.6405 82.639 92.403 82.408 92.0548L82.406 91.6791L82.2205 91.4912L82.1905 91.3484L81.368 88.9964C81.1745 88.5114 80.909 87.6773 80.906 87.1703L80.7205 86.9824L80.685 86.8291C80.3255 85.3993 79.7265 84.0131 79.3605 82.5733C79.243 82.1134 79.1915 81.8133 79.3135 81.3474H79.453L79.5955 81.6285C79.635 81.0914 79.6555 80.5564 79.781 80.0313L80.1545 80.1255C80.2085 80.4401 80.1905 80.6611 80.2055 80.9707C80.2445 81.7577 80.9215 82.8308 81.281 83.5247C83.845 88.4703 87.697 92.6805 92.283 95.8107C94.4425 97.2845 96.636 98.3832 99.1835 99.0079C95.4015 103.801 92.5865 109.091 88.298 113.541C87.219 114.661 86.1145 115.883 84.823 116.756C84.375 116.143 84.1 115.671 83.9275 114.929Z" fill="#2A2B36"/>
<path d="M97.9216 64.2866C103.746 68.1607 109.349 70.7322 116.518 69.2633L118.133 68.8731C118.681 68.8425 119.443 68.4978 119.972 68.3215L124.097 66.8296L125.965 67.6497L113.25 82.659C112.933 81.8479 112.7 80.9722 112.219 80.2418C109.227 75.7004 105.432 71.9611 101.531 68.2143C100.565 67.2859 99.4471 66.4518 98.5291 65.4894C98.2131 65.1583 98.0616 64.7134 97.9216 64.2866Z" fill="#2A2B36"/>
<path d="M286.435 63.8517C286.418 64.0346 286.43 64.5847 286.355 64.7204C286.034 65.2996 285.025 66.0009 284.531 66.5059C281.338 69.7723 277.764 72.7406 274.77 76.1914C272.921 78.323 271.328 80.606 269.985 83.0863C268.648 81.0223 258.605 68.9763 258.598 68.6141C259.058 68.2002 259.493 67.7278 260.078 67.5024L266.961 69.3129C268.062 69.5649 269.215 69.5313 270.339 69.5193C276.104 69.4582 281.637 66.8581 286.435 63.8517Z" fill="url(#paint1_linear_1201_3)"/>
<path d="M87.3255 25.5817C90.1305 29.8824 92.5415 34.4653 95.4665 38.6818C100.997 46.6541 107.5 52.9259 114.836 59.1992L124.097 66.8296L119.972 68.3215C119.443 68.4978 118.681 68.8425 118.133 68.8731L118.107 68.4823C115.995 67.8951 114.029 65.7114 112.427 64.2585C108.659 60.8429 104.964 57.3731 101.764 53.4033C99.5885 50.7051 97.8545 47.7652 96.0505 44.8169C93.0425 39.9006 90.1 35.0997 88.2265 29.6129C87.767 28.2669 87.1755 27.0231 87.3255 25.5817Z" fill="url(#paint2_linear_1201_3)"/>
<path d="M290.337 35.9428L297.71 22.1081L297.966 22.1272L298.251 22.7352L297.228 25.0738C297.075 25.3804 297.061 25.4996 297.079 25.8317L296.761 26.241L292.753 35.3297C288.746 46.3894 282.17 55.7083 273.559 63.6103L269.897 66.6497C268.81 67.4808 267.711 68.1231 266.961 69.3129L260.078 67.5024C264.346 64.3262 268.381 60.8248 272.289 57.2163C279.241 50.7962 285.433 44.083 290.337 35.9428Z" fill="url(#paint3_linear_1201_3)"/>
<path d="M310.122 37.2005C312.317 43.3914 313.162 50.5878 313.695 57.1116C315.245 76.0746 314.116 95.3162 306.925 113.135L304.924 117.793C304.627 118.482 304.373 119.459 303.967 120.072L303.84 120.203L299.128 115.795C300.486 113.176 301.716 110.578 302.817 107.839C303.353 106.506 304.016 105.126 304.204 103.694L304.184 103.661C304.185 103.27 304.167 103.025 304.346 102.667C304.63 102.096 304.898 101.552 305.023 100.92L305.158 100.321L305.344 100.133L305.346 99.7574C305.644 99.4558 305.637 99.041 305.721 98.6302L305.906 98.4423L305.908 98.0666C306.237 97.5716 306.225 97.1107 306.376 96.5647C306.464 96.2475 306.513 95.714 306.658 95.4365C306.878 95.0156 306.845 94.9766 306.846 94.4971C307.146 94.1194 307.182 93.8348 307.205 93.3639L307.221 92.9942C307.5 92.7116 307.407 92.624 307.408 92.2427C307.711 91.9366 307.595 91.7182 307.596 91.3034C307.875 91.0208 307.782 90.9332 307.783 90.5519C307.984 90.2919 308.025 90.1812 308.069 89.8445L308.25 88.7674C308.338 88.4388 308.407 88.3451 308.378 87.9864L308.346 87.7339C308.685 87.3902 308.465 86.9043 308.767 86.4188C308.727 86.0616 308.696 85.8798 308.814 85.5266C308.942 85.1418 308.982 84.7992 309.047 84.3994C309.1 84.0758 309.148 83.7982 309.148 83.4686L309.142 83.2251C309.417 82.8549 309.223 82.2462 309.376 81.7692C309.495 81.401 309.552 81.1821 309.517 80.7828L309.471 80.4071C309.784 80.0905 309.658 79.1857 309.658 78.7163L309.844 78.4362L309.846 77.8711C309.861 77.5876 309.895 77.3807 309.872 77.0901L309.846 76.8376C310.206 76.4734 310.033 75.1373 310.033 74.5832C310.394 74.0386 310.217 73.2541 310.313 72.6109C310.439 71.7587 310.415 70.9371 310.408 70.0744C310.768 69.7102 310.595 68.3741 310.596 67.82C310.909 67.5034 310.783 66.5986 310.783 66.1292C311.438 65.1453 310.67 63.1083 311.344 62.0918L311.531 62.3719C311.526 61.5392 311.413 60.5463 311.626 59.7427L311.906 59.7417C312.27 59.2883 312.281 59.2878 312.283 58.7087H312.563L312.703 58.9432L312.75 58.4266C312.511 58.1261 312.6 58.2849 312.471 57.9572L312.75 57.817C313.032 57.6281 313.04 57.3505 313.041 57.048L313.033 56.7358L313.313 56.4543V55.1387C313.175 54.5606 313.137 54.1503 313.125 53.5421C312.745 52.9705 313.078 52.3853 312.938 51.7571C312.864 51.426 312.842 50.931 312.75 50.6299C312.588 50.0984 312.701 49.6092 312.563 49.1272C312.464 48.7844 312.458 48.5206 312.375 48.1879C312.216 47.5486 312.244 48.1124 312.214 47.6689C312.194 47.3731 312.202 47.0993 312.144 46.8053L311.719 44.7124L311.625 44.2427C311.458 43.7556 311.526 43.3368 311.391 42.8807C311.143 42.0428 311.325 42.9518 311.2 42.3258L310.828 40.6263C310.669 40.1949 310.644 39.7764 310.5 39.3581L310.36 39.0294C310.228 38.5601 310.22 38.2169 310.001 37.7467L310.122 37.2005Z" fill="url(#paint4_linear_1201_3)"/>
<path d="M86.746 24.5916L87.3255 25.5817C87.1755 27.0231 87.767 28.2669 88.2265 29.6129C90.1 35.0997 93.0425 39.9006 96.0506 44.8169C97.8546 47.7652 99.5885 50.7051 101.764 53.4033C104.964 57.3731 108.659 60.8429 112.427 64.2585C114.029 65.7114 115.995 67.8951 118.107 68.4823L118.133 68.8731L116.518 69.2633C109.349 70.7322 103.746 68.1607 97.9216 64.2866L97.019 63.5386C95.722 62.5257 94.4651 61.3844 93.2976 60.2222C92.5636 59.4912 91.1975 57.5194 90.3005 57.2103L90.1771 57.1411C89.9131 56.7203 89.7395 56.4398 89.769 55.9293C89.785 55.6437 89.8045 55.5029 89.711 55.2174C88.885 52.7045 87.948 50.2597 87.2525 47.6975C85.965 42.9558 85.1775 38.0776 84.433 33.2252C84.5615 32.444 85.179 30.69 85.592 30.0587C85.926 29.5478 86.0735 29.3392 86.233 28.7359C86.363 27.4478 86.0555 25.6934 86.746 24.5916Z" fill="white"/>
<path d="M84.433 33.2252C84.5615 32.444 85.179 30.69 85.592 30.0587C85.926 29.5478 86.0735 29.3392 86.233 28.7359C86.1495 32.1186 86.168 35.126 86.719 38.4886C87.7005 44.479 89.9846 50.441 92.6826 55.8526C93.7156 57.9247 94.9255 60.3259 96.4565 62.0647C96.8905 62.5577 96.961 62.8909 97.019 63.5386C95.722 62.5256 94.4651 61.3844 93.2976 60.2221C92.5636 59.4912 91.1975 57.5194 90.3005 57.2103L90.1771 57.1411C89.9131 56.7203 89.7395 56.4398 89.769 55.9293C89.785 55.6437 89.8045 55.5029 89.711 55.2174C88.885 52.7045 87.948 50.2597 87.2525 47.6975C85.965 42.9558 85.1775 38.0776 84.433 33.2252Z" fill="#D3D2D2"/>
<path d="M175.094 21.3162C178.579 18.4853 183.478 16.4498 187.908 15.8175C195.136 14.7859 201.642 16.1369 207.536 20.5556C209.052 21.3175 210.457 22.4818 211.813 23.4987L219.307 29.3313L238.281 44.8722C239.142 45.5987 240.144 46.1593 240.983 46.8839C239.438 47.3088 237.868 47.7253 236.409 48.402C235.96 48.0936 235.685 47.4553 235.41 46.9896C234.982 44.9199 222.668 36.0713 220.12 34.1153L211.706 27.6659C209.836 26.3487 207.72 25.2689 205.907 23.9245L205.653 23.7321C203.995 22.967 202.336 22.2109 200.567 21.7377C194.64 20.1523 187.551 20.5667 181.802 22.6865L175.514 25.5933L175.283 25.7727C173.785 26.9198 171.997 27.8012 170.44 28.9009L159.188 37.5383L153.376 42.271C151.295 43.9318 149.128 45.7377 147.469 47.814L147.012 48.2697C145.634 47.4683 144.357 46.8899 142.836 46.4144L163.876 29.5556C167.427 26.7824 171.144 23.4561 175.094 21.3162Z" fill="url(#paint5_linear_1201_3)"/>
<path d="M298.251 22.7352C303.648 30.5488 307.709 39.9546 308.439 49.482C308.51 57.2569 307.822 64.7941 305.506 72.2587C305.024 73.8127 304.488 75.3362 303.862 76.8381C303.559 77.5665 302.618 79.1326 302.565 79.8615L299.984 84.5121C296.427 89.9953 290.954 95.1334 284.386 96.5296C283.604 96.0517 282.956 95.3773 282.287 94.7546C284.413 94.6875 286.457 94.3188 288.402 93.425L287.688 93.42C282.466 93.3273 277.025 89.3686 273.548 85.743C274.882 82.6299 276.916 79.8239 278.866 77.0756C281.662 73.1359 284.474 69.3916 287.744 65.8256C288.955 64.505 290.113 63.1008 291.519 61.9826C291.328 63.1459 290.546 63.8948 289.981 64.8968C289.486 65.7765 289.069 66.7729 288.713 67.7173C287.872 69.9431 287.287 72.2977 286.647 74.5887C285.909 77.2334 285.122 79.8916 284.6 82.5878L286.306 82.0082C292.161 79.7167 297.827 74.0417 300.281 68.2609C303.646 60.3379 302.956 50.3864 301.378 42.115C300.971 39.9798 300.556 37.6286 299.73 35.6163C299.309 34.5932 299.223 33.4908 299.036 32.4071C298.644 30.1454 297.925 28.2118 296.761 26.241L297.079 25.8317C297.061 25.4996 297.075 25.3804 297.228 25.0738L298.251 22.7352Z" fill="#B7B6B6"/>
<path d="M296.761 26.241C297.925 28.2118 298.644 30.1454 299.036 32.4071C299.223 33.4908 299.309 34.5932 299.73 35.6163C300.556 37.6286 300.971 39.9798 301.378 42.115C302.956 50.3864 303.646 60.3379 300.281 68.2609C297.827 74.0417 292.161 79.7167 286.306 82.0082L284.6 82.5879C285.122 79.8916 285.909 77.2334 286.647 74.5887C287.287 72.2978 287.872 69.9432 288.713 67.7173C289.069 66.773 289.486 65.7765 289.981 64.8968C290.546 63.8948 291.328 63.1459 291.519 61.9826L294.66 57.7183L294.313 57.5845C293.548 58.2463 292.807 58.9321 291.942 59.4617L286.435 63.8518C281.637 66.8581 276.104 69.4582 270.339 69.5193C269.215 69.5313 268.062 69.5649 266.961 69.3129C267.711 68.1231 268.81 67.4808 269.897 66.6497L273.559 63.6103C282.17 55.7083 288.746 46.3894 292.753 35.3297L296.761 26.241Z" fill="white"/>
<path d="M291.942 59.4617C292.678 57.9447 293.773 56.6592 294.515 55.1548C297.44 49.2241 298.482 43.0682 299.153 36.5401L299.344 36.5373C299.072 40.362 299.634 44.0781 298.812 47.8977C298.267 50.431 297.399 52.7375 296.228 55.045C295.773 55.9413 295.312 56.9488 294.66 57.7183L294.313 57.5845C293.548 58.2463 292.807 58.9321 291.942 59.4617Z" fill="#B7B6B6"/>
<path d="M90.5026 117.446C90.9081 118.383 90.4361 119.879 90.2711 120.865C89.0076 128.439 86.5026 135.514 83.6996 142.635L70.5551 171.858C67.2846 176.092 64.1496 180.825 60.0481 184.292C57.6746 186.299 54.8816 187.806 52.3261 189.571C47.2695 193.062 42.4273 197.735 40.0046 203.481C38.8275 206.272 38.1694 209.195 37.4362 212.121L35.1031 224.118L34.009 231.893C33.8973 232.701 33.8805 234.002 33.5777 234.74C33.5209 234.878 33.3801 234.964 33.2813 235.076L32.6206 235.038C31.3797 229.398 30.3728 224.008 30.3708 218.202C30.3683 211.149 31.7711 204.962 35.3388 198.857C38.4123 193.598 42.7644 189.117 47.347 185.157C50.4501 182.476 53.7396 180.01 56.7276 177.196C60.2791 173.852 63.3426 170.085 65.9561 165.967C69.7441 159.999 72.5351 153.595 74.7921 146.907L79.0146 132.449L80.0141 128.102C80.1086 127.643 80.1791 126.737 80.4566 126.36C80.8341 125.849 81.5716 125.34 82.0561 124.923L86.1686 121.582C87.6901 120.286 89.0936 118.863 90.5026 117.446Z" fill="#66D4FF"/>
<path d="M292.364 116.898L303.599 126.18C304.299 126.844 304.391 127.88 304.589 128.782L305.81 134.284C307.715 142.354 309.97 150.256 313.54 157.766C316.376 163.73 319.585 169.265 324.19 174.058C327.959 177.982 332.356 181.203 336.584 184.6C347.675 193.508 353.507 202.451 353.474 217.139C353.46 223.559 352.379 230.197 350.801 236.406C350.656 236.229 350.478 236.074 350.365 235.874C350.275 235.715 350.252 235.02 350.228 234.834L349.834 231.988L348.017 220.274C347.471 216.887 346.955 213.193 345.641 210.009C343.92 201.249 337.766 193.523 330.628 188.474C328.087 186.677 325.14 185.267 322.882 183.119C320.699 181.043 318.899 178.64 317.071 176.257L309.696 165.898C309.292 164.206 308.209 162.569 307.444 161.006L303.582 152.724C301.029 146.887 299.061 140.753 297.172 134.674L292.844 119.921C292.7 119.385 292.135 117.981 292.171 117.511C292.188 117.297 292.3 117.102 292.364 116.898Z" fill="#66D4FF"/>
<path d="M310.001 37.7467C309.778 37.6843 309.371 37.6164 309.188 37.4776L308.953 37.2447L308.766 37.3846C308.547 37.2398 308.681 37.2919 308.344 37.2897C308.344 37.4809 308.402 37.6681 308.438 37.8552L308.772 39.1292L308.906 39.8278L309 40.2975C309.168 40.7869 309.061 41.1653 309.188 41.6125C309.32 42.0818 309.361 42.3404 309.375 42.8337C309.744 43.3885 309.563 44.5877 309.563 45.2759C309.918 45.81 309.75 46.8735 309.75 47.5303C310.063 48.0002 310.082 50.7446 309.938 51.3814C309.771 52.1203 309.729 52.7215 309.703 53.495L309.283 53.4484C309.273 53.0797 309.214 52.6644 309.358 52.3207L309.441 52.1328C309.682 51.2982 309.568 50.078 309.566 49.204C309.553 43.7728 308.699 38.6064 306.678 33.5519C305.082 29.5628 303.039 26.0428 300.729 22.4414C299.905 21.1566 298.738 19.0059 297.291 18.3823C295.529 20.4404 294.393 22.6574 293.04 24.9863L286.525 36.1365C283.638 40.6357 280.226 45.003 276.469 48.811C272.519 52.8152 268.083 56.3365 263.695 59.8359L255.715 66.2785C250.222 61.6154 245.579 55.4318 240.904 49.9559C241.816 49.5317 243.255 49.4259 244.281 49.1921C247.577 48.4408 250.827 47.6621 253.874 46.1551C256.969 44.625 259.8 42.6691 262.623 40.6942L275.03 31.4567L299.717 12.3094C300.922 15.7413 302.801 18.8663 304.363 22.1378C306.652 26.9297 308.565 32.1217 310.122 37.2005L310.001 37.7467Z" fill="#2A2B36"/>
<path d="M84.8231 116.756L80.3981 120.498L77.6516 113.587C73.666 103.369 71.6395 92.6009 70.711 81.7016C69.3175 65.3462 70.411 49.1817 75.2485 33.421C77.4781 26.1574 80.9841 19.2715 84.0211 12.3282L104.336 29.1096C110.597 33.9406 117.089 38.8166 123.993 42.6948C124.684 46.4314 124.228 50.5793 124.284 54.3873C124.316 56.6081 124.697 58.87 124.567 61.0894C124.545 61.4661 124.49 61.653 124.278 61.9631C113.954 54.2565 103.622 45.6643 96.5641 34.7219L89.4666 23.1096C88.3176 21.251 87.2336 19.2691 85.8166 17.6024C80.7431 26.1275 76.8076 35.4994 74.9701 45.276C74.4821 47.8737 74.0046 50.4646 74.1971 53.1193L74.088 53.2691C73.928 53.4975 73.9841 53.4048 73.8741 53.6829L73.4056 53.9649C73.4046 54.3572 73.5051 54.4744 73.2171 54.763C73.2171 55.2484 73.3046 55.5706 73.0296 55.9844C73.0296 56.6727 73.2106 57.8701 72.8441 58.4267L73.0296 58.6145C73.0296 58.9772 73.1116 59.0018 72.8421 59.2718C72.8421 59.7422 72.9701 60.6465 72.6546 60.9631C72.5821 63.1789 72.4685 65.4213 72.6085 67.6321C72.6925 68.9652 72.5066 70.3444 72.7501 71.671L72.8636 72.8308C72.9006 73.2982 72.8696 72.9666 72.9691 73.4706C73.0341 73.8007 73.0291 73.9074 72.9861 74.2165C72.9256 74.6574 72.8985 74.968 73.171 75.3347L73.1681 75.5696C73.1681 75.9694 73.1205 76.5175 73.3585 76.8376C73.3465 77.4062 73.3181 77.8461 73.4991 78.3877C73.8291 79.3741 73.4546 81.7653 74.1546 82.4736L74.1026 82.7732C74.0551 83.1139 74.0691 83.2792 74.1561 83.6008L74.3421 83.7887C74.3431 84.17 74.2506 84.2576 74.5296 84.5402L74.492 84.7576C74.443 85.3588 74.6881 85.8918 74.8116 86.4659L74.8731 87.0411C74.9011 87.3487 74.9971 87.5425 75.0921 87.8276C75.2466 88.293 75.1601 88.0004 75.1876 88.3917C75.2161 88.796 75.2861 88.8912 75.4671 89.2369L75.5616 89.6136L75.617 89.8541C75.6745 90.1466 75.6611 90.0429 75.6086 90.3641C75.8381 90.7333 75.8546 90.6366 75.7961 91.1155L76.0296 91.3976L75.992 91.5849C75.9435 92.0789 76.2161 92.6415 76.4046 93.0879L76.3586 93.3699L76.5921 93.652L76.5461 93.9335C76.5516 94.695 77.0191 95.5973 77.1561 96.3758L77.3421 96.5637C77.4116 96.8162 77.4141 96.9609 77.4376 97.221C77.4766 97.6508 77.6356 98.0235 77.9046 98.3482L77.8586 98.6302L77.9636 98.8592C78.1046 99.1998 78.1501 99.4954 78.2301 99.8481C78.3566 100.409 78.1666 99.549 78.4671 100.321L78.5626 100.978C78.6206 101.197 78.7531 101.223 78.8421 101.448C79.2406 102.457 79.4611 103.644 79.8816 104.698C80.0021 104.999 79.9521 104.876 80.0356 105.232C80.1096 105.549 80.2051 105.679 80.3421 105.957C80.5171 106.313 80.3736 106.084 80.4836 106.521L80.6851 106.969C80.8206 107.259 80.9301 107.524 81.0141 107.831C81.1851 108.459 80.9696 107.777 81.2796 108.399L81.3211 108.576C81.3871 108.84 81.5101 109.018 81.6546 109.244L81.6086 109.526L81.7136 109.685C81.8861 109.963 81.9911 110.233 82.0716 110.548C82.1486 110.852 82.2866 111.117 82.4061 111.405L82.4901 111.624C82.7816 112.361 83.1226 113.173 83.5296 113.847C83.7366 114.191 83.8561 114.522 83.9456 114.91L83.9276 114.929C84.1001 115.672 84.3751 116.143 84.8231 116.756Z" fill="#393B46"/>
<path d="M82.3861 29.9013C82.7461 29.6569 82.9256 29.4885 83.1011 29.0935L83.2516 28.7408C83.4001 28.8936 83.3691 28.816 83.3441 29.1194L83.2971 29.4282C84.0946 28.5002 85.0401 26.7145 86.0096 26.1412L86.1561 26.0586C86.1761 25.4218 86.1816 24.7855 86.3136 24.1599L86.3971 23.7846L86.7461 24.5917C86.0556 25.6934 86.3631 27.4478 86.2331 28.7359C86.0736 29.3392 85.9261 29.5478 85.5921 30.0587C85.1791 30.69 84.5616 32.444 84.4331 33.2252C85.1776 38.0776 85.9651 42.9558 87.2526 47.6975C87.9481 50.2597 88.8851 52.7045 89.7111 55.2174C89.8046 55.5029 89.7851 55.6437 89.7691 55.9293C89.7396 56.4398 89.9131 56.7203 90.1771 57.1411L90.3006 57.2103L91.0336 58.347C91.6281 58.9367 92.0576 59.7578 92.5316 60.4481C93.1891 61.4065 93.9216 62.3203 94.6531 63.223L102.015 72.0989C105.128 76.1252 108.069 80.6741 110.566 85.1113L109.307 86.4694C105.306 90.2117 100.151 92.7342 94.6006 92.5258L94.4146 92.5168C96.5331 93.6224 99.2721 93.9646 101.62 94.0688C100.968 95.1334 100.204 95.974 99.3411 96.8698L96.6561 95.7806C87.5896 91.2162 81.3076 83.6725 78.1681 74.0417C73.3431 59.2412 75.4501 43.6448 82.3861 29.9013Z" fill="#B7B6B6"/>
<path d="M84.433 33.2252C85.1775 38.0776 85.965 42.9558 87.2525 47.6975C87.948 50.2597 88.885 52.7045 89.711 55.2174C89.8045 55.5029 89.785 55.6437 89.769 55.9293C89.7395 56.4398 89.913 56.7203 90.177 57.1411L90.3005 57.2103L91.0335 58.347C90.9705 58.5629 90.859 58.7693 90.844 58.9937C90.7965 59.6886 92.382 61.695 92.7695 62.3989C93.272 63.3117 93.6555 64.3212 94.073 65.277L97.5115 73.3002L100.924 83.3674C94.034 80.872 87.6335 76.1553 84.358 69.4376C80.1555 60.8183 79.5515 49.3527 81.9455 40.1109C82.561 37.7338 83.641 35.536 84.433 33.2252Z" fill="white"/>
<path d="M175.514 25.5933L181.802 22.6865C187.551 20.5667 194.64 20.1523 200.567 21.7377C202.336 22.2109 203.995 22.967 205.653 23.7321L205.907 23.9245C207.72 25.2689 209.836 26.3487 211.706 27.6659L220.12 34.1153C222.668 36.0713 234.982 44.9199 235.41 46.9896C235.685 47.4553 235.96 48.0936 236.409 48.402L235.648 48.9394L235.807 49.0336C237.309 49.9583 238.514 51.3999 239.68 52.707L245.431 59.37L253.442 68.5349C257.721 73.3242 261.926 77.9302 265.641 83.1895L274.743 95.1379L285.316 109.059L289.755 114.146C290.246 114.665 292.233 116.408 292.364 116.898C292.3 117.102 292.188 117.297 292.171 117.511C292.135 117.981 292.7 119.385 292.844 119.921L297.172 134.674C299.061 140.753 301.029 146.887 303.582 152.724L307.444 161.006C308.209 162.569 309.292 164.206 309.696 165.898L317.071 176.257C318.899 178.64 320.699 181.043 322.882 183.119C325.14 185.267 328.087 186.677 330.628 188.474C337.766 193.523 343.92 201.249 345.641 210.009C346.955 213.193 347.471 216.887 348.017 220.274L349.834 231.988L350.228 234.834C350.252 235.02 350.275 235.714 350.365 235.874C350.478 236.074 350.656 236.229 350.801 236.406L350.784 236.564C350.332 240.322 348.903 246.02 345.76 248.47L342.801 250.295L351.443 250.819L364.686 249.028C363.382 251.875 361.142 254.795 359.023 257.068C355.314 261.927 350.27 265.6 345.223 268.942C343.512 270.075 341.769 271.336 339.96 272.3C337.253 273.839 334.06 274.877 330.938 275.045C329.798 275.106 328.241 274.952 327.188 275.327L340.313 276.385L344.835 276.574C345.633 276.595 346.638 276.504 347.404 276.701C342.82 280.942 338.525 285.472 333.587 289.321C327.43 294.122 320.912 298.061 314.064 301.772C309.311 304.347 304.461 306.844 299.488 308.966L265.96 322.777L253.313 329.166L233.112 339.605L214.73 350.075C213.262 351.429 210.919 352.538 209.196 353.611C203.77 356.991 198.234 360.64 192.533 363.529C190.393 362.702 188.272 361.399 186.248 360.314L175.324 354.526L166.534 349.97L152.151 342.85L122.855 326.794L77.4375 304.018L62.899 296.657C60.5645 295.346 58.297 293.827 56.0625 292.353C54.389 291.249 52.555 290.175 51.0485 288.849C45.8095 285.693 41.9949 280.905 37.3606 277.043L37.1745 276.89L58.406 274.868C53.069 273.928 47.9604 272.148 42.9762 270.043C40.5446 269.096 38.2046 267.693 35.9988 266.318C31.7619 263.676 27.1827 260.404 24.1949 256.319C25.6782 256.681 27.1229 257.488 28.559 258.039L34.6396 260.138C34.8932 259.677 34.7772 259.15 34.7272 258.647C34.4762 256.114 33.2269 253.896 33.2463 251.288L33.2541 250.958L32.6856 250.626C35.7228 250.638 38.5582 250.404 41.5718 250.027L39.82 249.111C35.5111 246.418 33.6589 239.652 32.6206 235.038L33.2813 235.076C33.3801 234.964 33.5209 234.878 33.5777 234.74C33.8805 234.002 33.8972 232.701 34.009 231.894L35.1031 224.118L37.4362 212.121C38.1694 209.195 38.8275 206.272 40.0046 203.481C42.4273 197.735 47.2695 193.062 52.326 189.571C54.8815 187.806 57.6745 186.299 60.048 184.293C64.1495 180.825 67.2845 176.092 70.555 171.858L83.6995 142.635C86.5025 135.514 89.0075 128.439 90.271 120.865C90.436 119.879 90.908 118.383 90.5025 117.446C90.6525 117.066 91.4015 116.437 91.695 116.117L94.8995 112.664C95.725 111.413 96.8025 110.266 97.755 109.104L101.364 104.406L117.335 83.5192L126.63 72.3724L143.89 53.3783C144.871 52.222 147.049 50.171 147.437 48.7515L147.012 48.2697L147.469 47.814C149.128 45.7378 151.295 43.9318 153.376 42.271L159.188 37.5383L170.44 28.9009C171.997 27.8012 173.785 26.9198 175.283 25.7727L175.514 25.5933Z" fill="#005E94"/>
<path d="M235.41 46.9897C235.685 47.4553 235.96 48.0936 236.409 48.402L235.648 48.9394L235.807 49.0336C237.309 49.9583 238.514 51.3999 239.68 52.707L245.431 59.37L253.442 68.5349C257.721 73.3243 261.926 77.9303 265.641 83.1895C265.174 83.1204 264.738 83.0973 264.369 82.7737C263.157 81.7091 262.193 80.4587 261.115 79.2704L255.535 73.2827C254.343 72.0332 253.174 70.663 251.929 69.4757C250.656 68.2629 249.268 67.052 248.21 65.6412C247.37 64.5211 246.292 63.0442 245.246 62.1474L245.064 61.9951C244.879 61.4365 244.28 61.0252 243.891 60.5864L242.204 58.6145C241.951 58.3124 241.504 58.0068 241.314 57.6742C240.99 57.1061 241.492 57.6586 241.013 57.1787L238.435 54.3677L238.126 54.0586C237.962 53.8652 237.93 53.7475 237.713 53.5922L237.564 53.495C237.261 52.729 235.897 51.6349 235.314 50.911L234.641 50.049L234.471 49.7848C234.217 49.3968 234.283 49.2958 234.283 48.8454C234.663 48.2725 234.941 48.7894 235.453 48.3767L235.454 47.7182C235.387 47.369 235.36 47.3657 235.41 46.9897Z" fill="url(#paint6_linear_1201_3)"/>
<path d="M45.6686 211.89C46.4258 208.485 48.4211 205.145 50.7075 202.545C53.7925 199.036 57.661 196.479 61.6695 194.153C64.5935 192.457 67.5706 190.778 70.6276 189.334L76.6876 186.723C78.5091 185.918 80.9036 184.332 82.8601 184.217C79.6051 187.194 75.0681 189.199 71.2186 191.295C65.7735 194.26 60.4476 197.267 55.5245 201.064C52.8905 203.096 50.655 205.501 48.6228 208.128C47.7041 209.315 47.0047 211.228 45.6686 211.89Z" fill="url(#paint7_linear_1201_3)"/>
<path d="M302.234 185.062L313.272 191.415C323.22 196.835 335.144 202.556 338.358 214.457C339.862 220.027 338.775 226.553 336.031 231.591L335.978 231.677C335.874 230.301 336.183 228.966 336.299 227.601C336.621 223.809 336.563 219.881 335.464 216.211C331.858 204.167 319.36 198.721 309.683 192.382C307.38 190.873 304.171 189.041 302.48 186.834C301.991 186.195 302.149 185.812 302.234 185.062Z" fill="#002149"/>
<path d="M286.739 125.653L287.633 126.18C288.961 126.898 290.035 128.114 291.089 129.17C293.284 131.37 295.639 133.801 297.092 136.579C297.457 137.276 297.715 138.269 298.03 139.022L298.125 139.305L298.313 139.209L298.027 138.593C297.863 138.264 297.846 138.074 297.844 137.707L297.704 137.519C297.48 137.18 297.471 136.979 297.469 136.579L297.283 136.391L297.172 134.674C299.061 140.753 301.029 146.887 303.582 152.724L307.444 161.006C308.209 162.569 309.292 164.206 309.696 165.898C308.758 165.303 308.011 164.19 307.266 163.35C303.093 158.648 299.671 153.668 296.242 148.415C294.243 145.353 292.159 142.259 290.408 139.047L290.782 138.735C290.855 137.594 290.33 136.248 290.021 135.141C289.113 131.882 288.094 128.755 286.739 125.653Z" fill="#0090F9"/>
<path d="M90.5026 117.446C90.6526 117.066 91.4016 116.437 91.6951 116.117L94.8996 112.664L95.1751 112.866C94.6126 113.488 94.0511 113.939 93.6096 114.646L93.1876 115.069C92.6826 115.561 91.4096 116.58 91.3116 117.228C91.2706 117.5 91.1161 117.769 91.0161 118.021C90.8886 118.343 90.9486 118.586 90.9836 118.92L91.0096 119.196L91.0296 119.389L90.8926 119.592C90.6906 119.932 90.7926 120.043 90.7031 120.376L90.5626 120.705C90.6206 121.295 90.6551 121.396 90.4671 121.926L90.4211 122.301L90.3501 122.53C90.1641 123.149 90.2081 123.736 89.9731 124.368C89.8506 124.698 89.8191 124.991 89.7921 125.339C89.7601 125.76 89.7991 125.539 89.6251 125.965C89.4631 126.361 89.4101 126.575 89.4836 126.998L89.3671 127.216C89.1291 127.694 89.3331 127.233 89.2491 127.749L89.0626 128.313L89.1546 128.595L88.9671 128.783C88.7961 129.027 88.8011 129.258 88.7796 129.534L88.5471 130.474L88.7391 130.674C88.9821 130.945 89.1011 131.181 89.2491 131.508L89.5071 131.584C89.8451 131.697 89.9076 131.806 90.1876 131.978C90.5161 132.18 90.8176 132.293 91.1251 132.542C91.5236 132.542 91.5206 132.493 91.8751 132.73L92.1121 132.703C92.4726 132.668 92.3331 132.673 92.7206 132.728L92.9061 132.542L93.0941 132.822L93.4706 132.446L93.4676 132.229C93.5071 131.74 93.7431 131.293 93.9376 130.85L93.8456 130.474L94.0331 130.286C94.2091 130.036 94.2136 129.723 94.2666 129.44C94.3336 129.083 94.4831 128.81 94.6416 128.501L94.7831 128.031L95.5331 126.152C95.6961 125.662 95.9801 125.215 96.1886 124.745L96.9376 123.522L96.9386 123.242L97.0621 123.088C97.2611 122.823 97.1916 122.918 97.3376 122.625C97.8136 121.67 98.4856 120.79 99.0011 119.86C99.1141 119.656 99.2491 119.533 99.3761 119.297C99.9266 118.272 101.134 116.668 101.908 115.82C102.684 114.97 103.08 114.257 104.045 113.521L99.5836 119.756C95.1016 126.521 92.8426 133.985 91.9606 142.027L92.0551 142.263L92.3701 142.353C91.1416 144.953 89.5961 147.415 88.1191 149.881C85.9156 153.557 83.7281 157.182 81.0816 160.567C78.8421 163.431 76.3301 165.993 73.7841 168.576C72.7206 169.655 71.8101 170.992 70.5551 171.858L83.6996 142.635C86.5026 135.514 89.0076 128.439 90.2711 120.865C90.4361 119.879 90.9081 118.383 90.5026 117.446Z" fill="#0090F9"/>
<path d="M177.948 103.537C188.269 102.133 198.606 101.617 208.923 103.412L209.077 103.495C209.748 103.793 210.668 103.852 211.393 103.985L215.625 104.863C218.776 105.565 222.03 106.649 224.993 107.93C231.092 110.565 237.035 114.063 242.578 117.717C255.384 126.159 267.601 137.071 275.906 150.094C278.191 153.676 280.057 157.876 281.773 161.765C282.213 162.765 282.443 163.287 282.057 164.362C279.331 160.19 277.428 155.504 274.582 151.369C269.344 143.756 262.886 137.35 255.983 131.283C250.605 126.557 245.181 122.193 239 118.531C236.456 117.024 233.87 115.567 231.198 114.297C229.696 113.584 228.008 113.036 226.57 112.221L226.336 112.085L226.76 111.875C226.357 111.84 226.083 111.78 225.728 111.593L225.375 111.405L223.219 110.654L223.367 110.195C223.769 109.563 225.207 110.701 225.973 110.56L216.855 107.222C207.983 104.388 198.939 103.583 189.657 103.881L184.031 104.257C183.453 104.323 182.704 104.204 182.156 104.358C181.458 104.555 180.919 104.55 180.188 104.546C179.702 104.858 179.074 104.692 178.499 104.813C177.969 104.925 177.753 104.91 177.23 104.795L177.292 104.611L178.219 104.55C178.524 104.244 178.924 104.362 179.344 104.362L179.531 104.174H180.75C181.244 103.844 181.742 104.06 182.31 103.944C183.327 103.736 184.312 103.862 185.344 103.798C185.656 103.486 186.479 103.61 186.938 103.61C187.707 103.097 192.662 103.514 193.969 103.423C194.687 103.897 197.885 103.657 198.891 103.655L198.835 103.339C198.489 103.246 198.555 103.302 198.322 103.137L197.812 102.764C197.298 102.429 196.113 102.598 195.503 102.603C193.708 102.616 191.338 102.3 189.623 102.715C188.141 103.073 186.441 102.704 184.876 103.04C184.179 103.189 183.588 103.072 182.93 103.208C181.989 103.401 180.928 103.405 180.032 103.632C179.623 103.736 179.807 103.72 179.377 103.746L179.122 103.754L177.948 103.537Z" fill="url(#paint8_linear_1201_3)"/>
<path d="M54.082 243.786C53.3605 243.218 52.7915 242.305 52.241 241.575C50.3445 239.059 48.4393 236.288 47.4726 233.252L47.3915 232.991L47.0058 231.679C46.8465 230.91 46.7398 230.576 47.1575 229.916C48.8607 233.096 50.666 236.109 52.816 239.016L55.1585 242.002C55.3525 242.241 55.8485 242.712 55.946 242.988C66.93 254.68 80.0695 264.117 93.228 273.166C116.632 289.261 141.328 303.95 167.374 315.326C169.976 316.148 172.601 317.182 175.301 317.624L177.839 347.005C181.83 349.914 186.351 352.766 190.842 354.832L190.495 355.045C190.239 354.957 189.985 354.88 189.75 354.739L189.563 354.599C189.15 354.374 188.758 354.242 188.376 353.944L188.203 353.801L187.781 353.846C187.583 353.549 187.671 353.597 187.409 353.452L186.563 353.002L185.86 352.579L184.948 352.054L183.985 351.452L182.813 350.748C182.544 350.541 182.426 350.388 182.092 350.286L181.875 350.23L181.688 350.09C181.15 349.846 181.544 350.168 181.152 349.819C180.987 349.674 180.77 349.427 180.563 349.339C180.053 349.121 180.397 349.397 180.024 349.065C179.856 348.917 179.689 348.737 179.485 348.634C179.184 348.483 179.116 348.345 178.875 348.211L178.594 348.118C178.289 347.947 178.137 347.747 177.75 347.6L176.249 348.117L175.922 348.211L175.828 349.995H175.689L175.596 349.714C175.38 349.354 175.408 349.42 175.408 348.963L175.221 348.775C175.264 348.495 175.277 348.309 175.218 348.026L175.148 347.741C174.656 345.458 173.545 343.392 173.159 341.052C172.662 338.038 172.721 334.887 172.47 331.843C172.217 328.78 171.613 325.628 170.943 322.627C170.76 321.81 170.582 320.777 170.17 320.05C169.46 318.797 167.847 317.965 166.672 317.215L149.349 308.938L111.139 287.813L81.159 267.772C71.5075 260.833 61.227 253.458 54.082 243.786Z" fill="url(#paint9_linear_1201_3)"/>
<path d="M290.408 139.047C287.94 135.229 285.101 131.725 282.196 128.238C275.982 120.777 269.018 113.436 260.709 108.304C256.264 105.559 251.478 103.372 246.812 101.036L226.175 90.0404L218.868 85.6689L215.252 83.7151C214.538 83.3458 213.66 83.0357 213.064 82.4992L224.354 85.2841C232.386 87.2139 240.104 89.9117 247.688 93.179C253.486 95.6774 259.269 98.5455 264.473 102.145C273.22 108.195 281.182 116.575 286.739 125.653C288.094 128.755 289.113 131.882 290.021 135.142C290.33 136.248 290.855 137.594 290.782 138.735L290.408 139.047Z" fill="#66D4FF"/>
<path d="M104.045 113.521C107.121 109.777 110.186 106.426 114.145 103.585C120.224 99.2213 127.419 96.2681 134.366 93.6159L153.023 87.1412L172.732 81.405C170.283 83.0107 167.615 84.21 165.101 85.7029L154.222 92.2793L142.793 98.2519C134.22 102.484 124.974 106.024 117.332 111.867C109.087 118.171 102.77 126.931 96.9841 135.442C95.4336 137.723 93.7661 139.974 92.3701 142.353L92.0551 142.263L91.9606 142.027C92.8426 133.985 95.1016 126.521 99.5836 119.756L104.045 113.521Z" fill="#66D4FF"/>
<path d="M37.4362 212.121C37.5989 213.585 37.4462 215.005 37.5574 216.453C37.7268 218.659 38.3131 220.973 38.8974 223.105C39.427 225.038 40.1266 227.1 40.9902 228.912C43.0938 233.325 45.9072 237.267 48.5886 241.33C51.61 245.91 54.679 251.042 58.487 255C60.573 257.167 63.0725 259.066 65.4115 260.951L73.679 267.685L87.8415 279.566C90.96 282.057 94.286 284.272 97.567 286.539L112.1 296.152L126.528 304.34L148.953 316.766L161.464 322.981C163.877 324.136 166.485 325.168 168.712 326.66C170.347 327.754 171.04 329.334 171.417 331.21C172.146 334.836 171.824 338.267 171.824 341.918L172.083 347.305L170.521 346.627C170.107 346.466 169.718 346.234 169.314 346.05L168.564 345.674L168.235 345.486L164.86 343.796C163.827 343.312 162.878 342.726 161.814 342.293C158.685 341.02 155.777 339.038 152.626 337.784C151.912 337.5 151.275 336.985 150.564 336.657C150.094 336.44 149.735 336.114 149.251 335.905L143.907 332.761C143.592 332.603 143.34 332.417 143.052 332.218C142.741 332.004 143.001 332.185 142.547 331.96L135.891 328.109L135.563 327.92C134.667 327.396 133.705 326.706 132.751 326.324L126.254 322.623C125.068 321.905 123.695 321.042 122.439 320.5L121.126 319.749C120.848 319.597 120.672 319.491 120.376 319.373L118.689 318.434C118.415 318.284 118.223 318.182 117.939 318.058C115.893 317.164 114.003 315.751 111.939 314.864L111.61 314.676L111.408 314.588L110.439 314.113L109.688 313.642L108.797 313.173L107.538 312.568L106.126 311.858L104.834 311.201C104.5 311.052 104.218 310.871 103.876 310.731C102.669 310.238 101.525 309.536 100.314 309.04L98.895 308.323C98.5805 308.166 98.712 308.217 98.432 308.147C98.162 308.08 98.023 307.93 97.781 307.818L97.501 307.725C97.1915 307.583 96.939 307.392 96.6185 307.262C95.542 306.827 94.453 306.146 93.376 305.659L92.906 305.376L92.672 305.283C91.8865 304.915 91.1915 304.463 90.376 304.156C89.8875 303.972 89.469 303.667 88.964 303.498C88.666 303.399 88.49 303.246 88.219 303.122L87.9385 303.028L86.8125 302.512L86.0895 302.186L85.0635 301.707C83.999 301.265 83.0095 300.655 81.9385 300.21L80.626 299.647L78.376 298.52L76.3135 297.58C76.041 297.457 75.854 297.315 75.5635 297.205L73.547 296.265L72.2345 295.702L70.494 294.929C70.0045 294.744 69.609 294.464 69.094 294.292C68.5495 294.11 68.0945 293.796 67.594 293.54L67.031 293.353L65.725 292.736C65.3745 292.561 65.488 292.618 65.0915 292.504C64.544 292.347 65.0005 292.518 64.5 292.179L62.9125 291.381C62.577 291.212 62.86 291.351 62.4385 291.193C61.6015 290.879 60.832 290.396 60.001 290.066L59.638 289.878C59.343 289.724 59.1155 289.638 58.781 289.595L58.594 289.407L58.3595 289.314C57.9635 289.153 57.6265 288.911 57.2345 288.751L55.126 287.811L51.657 285.985C51.0375 285.674 50.513 285.286 49.876 284.993C49.554 284.845 49.2956 284.653 48.9614 284.518C48.6998 284.413 48.6709 284.26 48.4688 284.147L48.1885 284.054L45.2813 282.268L45.0469 282.175L44.4815 281.888C44.1516 281.722 43.9625 281.705 43.5938 281.705L43.4063 281.517L43.0294 281.519C43.2547 282.301 44.8706 283.599 45.4688 284.243C45.9355 284.362 46.0163 284.524 46.3537 284.86C46.5469 285.052 46.462 284.961 46.7216 285.117C47.1619 285.383 47.449 285.815 47.9063 286.121L48.375 286.497L49.125 287.061C49.6083 287.413 50.1155 287.811 50.6295 288.112C50.9735 288.313 51.0155 288.516 51.281 288.752L51.4465 288.824L51.0485 288.849C45.8095 285.693 41.9949 280.905 37.3606 277.043L37.1745 276.89L58.406 274.868C53.069 273.928 47.9604 272.148 42.9762 270.043C40.5446 269.096 38.2045 267.693 35.9988 266.318C31.7619 263.676 27.1827 260.404 24.1949 256.319C25.6782 256.681 27.1229 257.488 28.559 258.039L34.6396 260.138C34.8932 259.677 34.7771 259.15 34.7272 258.647C34.4761 256.114 33.2269 253.896 33.2463 251.288L33.2541 250.958L32.6856 250.626C35.7228 250.638 38.5582 250.404 41.5718 250.027L39.82 249.111C35.5111 246.418 33.6589 239.652 32.6206 235.038L33.2812 235.076C33.38 234.964 33.5209 234.878 33.5777 234.74C33.8805 234.002 33.8972 232.701 34.009 231.894L35.1031 224.118L37.4362 212.121Z" fill="#0090F9"/>
<path d="M345.641 210.009C346.955 213.193 347.471 216.887 348.017 220.274L349.834 231.988L350.228 234.834C350.252 235.02 350.275 235.714 350.365 235.874C350.478 236.074 350.656 236.229 350.801 236.406L350.784 236.564C350.332 240.323 348.903 246.02 345.76 248.47L342.801 250.295L351.443 250.819L364.686 249.028C363.382 251.875 361.142 254.795 359.023 257.068C355.314 261.927 350.27 265.6 345.223 268.942C343.512 270.075 341.769 271.336 339.96 272.3C337.253 273.839 334.06 274.877 330.938 275.045C329.798 275.106 328.241 274.952 327.188 275.327L340.313 276.385L344.835 276.574C345.633 276.595 346.638 276.504 347.404 276.701C342.82 280.942 338.525 285.472 333.587 289.321C327.43 294.122 320.912 298.061 314.064 301.772C309.311 304.347 304.461 306.844 299.488 308.966L265.96 322.777L253.313 329.166L233.112 339.605L214.73 350.075L214.565 349.894C215.214 349.306 216.005 348.94 216.75 348.493L217.453 348.07L218.347 347.557L218.625 347.366L219.188 346.99L219.656 346.615C219.987 346.46 220.048 346.584 220.401 346.318C220.772 346.04 220.579 346.14 220.981 345.972C221.29 345.843 221.504 345.61 221.816 345.532C222.053 345.472 221.954 345.525 222.15 345.385C222.402 345.204 222.659 345.064 222.938 344.924L223.5 344.642C223.816 344.438 224.005 344.237 224.362 344.087C224.726 343.935 224.552 344.047 224.906 343.797C225.138 343.633 225.295 343.493 225.563 343.375L225.938 343.233C226.62 342.78 225.868 343.172 226.46 342.875L226.688 342.764C226.889 342.641 227.053 342.59 227.25 342.482L227.953 342.059L230.625 340.603L231.328 340.18L231.938 339.851L232.313 339.569C232.579 339.442 232.67 339.491 232.96 339.297C233.394 339.007 233.984 338.878 234.302 338.482L234.469 338.256L234.75 338.349L235.125 338.066C235.389 337.939 235.483 337.987 235.773 337.794C236.123 337.56 235.971 337.634 236.318 337.477L238.313 336.47C238.579 336.295 238.612 336.19 238.946 336.124C239.292 336.054 239.313 335.9 239.531 335.626L239.813 335.718L240.375 335.343L240.564 335.156C240.982 335.095 240.811 335.156 241.184 334.955L242.344 334.403C242.615 334.256 242.793 334.076 243.092 333.951L245.625 332.712C245.857 332.563 245.932 332.436 246.211 332.366C246.455 332.305 246.48 332.232 246.658 332.055L247.125 331.961C247.939 331.584 248.75 331.053 249.563 330.646C250.287 330.283 251.142 329.967 251.813 329.519L252.047 329.332C252.582 329.33 253.276 328.767 253.782 328.532L256.875 326.889L257.11 326.702C257.454 326.643 257.708 326.521 258 326.325L258.235 326.138C258.612 326.074 258.445 326.132 258.806 325.937L260.25 325.198C260.468 325.057 260.544 324.931 260.804 324.866C261.628 324.66 262.484 324.079 263.25 323.695C264.009 323.315 264.86 322.982 265.594 322.568C266.041 322.316 266.445 322.228 266.886 321.99L267.75 321.534C268.082 321.411 268.397 321.173 268.711 321.094L268.875 321.065L269.064 320.878L269.344 320.877C269.606 320.707 269.892 320.513 270.188 320.407L270.563 320.313C270.808 320.187 270.877 320.045 271.167 319.958C271.434 319.878 271.622 319.751 271.875 319.655C272.177 319.543 272.394 319.52 272.693 319.359C273.285 319.04 274.072 318.627 274.723 318.464C274.953 318.406 274.991 318.32 275.158 318.153C275.583 318.09 275.804 317.928 276.188 317.777C276.999 317.459 277.907 317.178 278.698 316.817L279.281 316.556C279.541 316.452 279.715 316.421 279.92 316.216L280.031 316.088L280.406 316.18C280.629 315.991 280.745 315.893 281.04 315.834C281.335 315.774 281.321 315.734 281.531 315.524L281.953 315.57L282.281 315.429L282.75 315.241C283.133 315.063 283.462 314.881 283.875 314.771L284.25 314.677C284.615 314.514 284.911 314.32 285.299 314.196C285.779 314.042 286.27 313.701 286.735 313.597C287.077 313.521 287.195 313.585 287.54 313.412C288.845 312.758 290.328 312.314 291.703 311.812L292.031 311.671C292.277 311.571 292.49 311.497 292.717 311.355L292.875 311.25L293.156 311.296C293.376 311.155 293.551 311.031 293.807 310.967C294.375 310.825 294.952 310.477 295.5 310.262C295.816 310.139 296.146 309.909 296.447 309.834L296.625 309.793C297.183 309.485 296.496 309.691 297.188 309.511C297.546 309.418 297.787 309.266 298.125 309.135C298.426 309.019 298.643 309 298.943 308.839C299.527 308.523 300.134 308.249 300.75 308.008L301.125 307.914C301.391 307.776 301.439 307.641 301.761 307.553C302.046 307.475 302.052 307.51 302.344 307.35C302.624 307.198 302.799 307.025 303.109 306.896L303.375 306.787C303.859 306.501 303.331 306.659 303.938 306.505C304.053 306.476 304.205 306.469 304.313 306.411C304.797 306.153 305.356 305.961 305.813 305.66C306.029 305.517 306.108 305.393 306.366 305.328C307.098 305.145 308.172 304.572 308.813 304.157C309.171 303.924 309.558 303.689 309.938 303.499C310.196 303.37 310.299 303.418 310.585 303.226C310.935 302.992 310.784 303.067 311.13 302.909L313.125 301.902C313.354 301.754 313.418 301.639 313.691 301.571C313.928 301.511 313.829 301.564 314.025 301.424L314.203 301.292C314.484 301.122 314.776 301.071 314.954 300.775L315.094 300.495L315.28 300.681L318.188 299.084L318.75 298.803C319.066 298.599 319.255 298.397 319.612 298.248L319.875 298.145L321.188 297.393L321.891 296.971L322.784 296.457L324.188 295.515C324.496 295.299 324.804 295.144 325.125 294.951L325.406 294.763L327.246 293.425L327.422 293.261L327.656 293.26L330.188 291.382L330.564 291.053C331.068 290.74 331.523 290.307 332.016 290.02C332.459 289.761 332.514 289.712 332.86 289.316L333.094 289.315L333.703 288.705C334.09 288.479 334.301 288.152 334.641 287.953C335.11 287.678 335.346 287.274 335.766 287.014C336.496 286.561 336.958 285.727 337.641 285.323C338.393 284.879 338.822 284.042 339.516 283.632L339.844 283.491C340.354 283.208 342.316 281.119 342.471 280.579L342.094 280.578C341.812 280.86 341.727 280.766 341.344 280.766C341.094 280.932 340.963 281.004 340.688 281.095L340.266 281.236L339.937 281.424L339.375 281.705C339.061 281.892 338.833 282.074 338.491 282.222C336.064 283.271 333.932 285.34 331.499 286.308C331.041 286.491 331.385 286.287 330.95 286.577C330.512 286.869 330.074 287.078 329.625 287.341C329.294 287.535 329.01 287.753 328.655 287.911L328.453 287.999L327.293 288.624L326.25 289.22L323.332 290.875L320.391 292.32L317.249 293.823L316.688 294.104L316.266 294.387L315.938 294.48C315.61 294.631 315.323 294.891 314.979 295.044L313.687 295.702C312.083 296.412 310.496 297.3 308.953 298.144L308.203 298.52L307.874 298.708L307.594 298.801C307.352 298.912 307.213 299.063 306.943 299.13C306.663 299.2 306.795 299.148 306.48 299.306C305.721 299.687 304.931 300.183 304.125 300.445C303.877 300.526 303.687 300.591 303.454 300.718L302.624 301.15L301.312 301.713L301.031 301.807C300.79 301.918 300.651 302.069 300.381 302.136C300.092 302.207 300.24 302.152 299.909 302.318L299.203 302.653C298.715 302.909 299.052 302.784 298.608 302.932L297.75 303.263C297.297 303.558 297.659 303.463 297.243 303.548C296.986 303.6 296.81 303.654 296.578 303.78L296.249 303.968C295.489 304.286 294.595 304.694 293.813 304.954C293.532 305.047 293.286 305.186 293.016 305.283C292.609 305.43 292.234 305.628 291.825 305.764L290.624 306.222L289.687 306.598L287.766 307.349C287.109 307.576 286.41 307.945 285.749 308.101C285.085 308.258 284.562 308.568 283.921 308.782L283.406 308.946L283.219 309.133C282.696 309.234 282.304 309.414 281.812 309.604L280.499 310.167L279.187 310.731L278.766 310.919L278.437 311.107L278.156 311.2L277.969 311.388C277.675 311.432 277.494 311.483 277.224 311.617C276.845 311.807 276.455 311.908 276.076 312.099L275.812 312.234L275.531 312.327L275.344 312.515C275.058 312.558 274.862 312.607 274.599 312.738L273.749 313.173L271.641 314.113L271.406 314.206C271.118 314.363 270.877 314.559 270.562 314.676L270.188 314.769C269.925 314.906 269.846 315.047 269.533 315.152C269.287 315.234 269.059 315.304 268.828 315.428L268.499 315.616C267.979 315.856 267.394 316.037 266.892 316.311L265.641 316.931L263.401 318.057L260.203 319.561L259.874 319.749C259.588 319.881 259.314 319.965 259.031 320.125L258.563 320.405C258.147 320.586 257.836 320.769 257.438 320.969C257.106 321.135 256.812 321.183 256.485 321.398L256.124 321.627C255.489 321.879 256.093 321.537 255.507 321.897C255.078 322.161 254.643 322.336 254.203 322.567L253.874 322.755C253.601 322.9 253.358 323.001 253.107 323.188L252.937 323.318L252.656 323.411C252.368 323.556 252.121 323.756 251.812 323.882C251.388 324.054 251.656 323.87 251.25 324.163C251.015 324.333 250.885 324.444 250.608 324.56C250.182 324.738 250.426 324.617 249.988 324.854L249.703 325.009L249.469 325.102L249.188 325.29L248.531 325.666C247.355 326.671 245.266 327.636 243.829 328.355L242.999 328.766C242.597 328.964 242.247 329.253 241.851 329.43L241.266 329.706L240.375 330.175L236.235 332.488L235.874 332.711C235.205 332.972 234.544 333.346 233.918 333.712L231.188 335.247C230.858 335.441 230.574 335.659 230.22 335.817L226.459 337.825L224.813 338.816C224.605 338.964 224.47 339.088 224.235 339.193C223.146 339.679 221.873 340.421 220.875 341.071C220.207 341.506 219.425 341.877 218.795 342.351L218.624 342.481C218.348 342.617 218.29 342.73 218.062 342.856L217.781 342.949L217.5 343.137C217.091 343.385 216.699 343.73 216.287 343.936C215.888 344.136 215.443 344.405 215.063 344.64C214.792 344.808 214.768 344.92 214.429 344.987L214.219 345.016L214.031 345.204L213.743 345.018C213.993 342.373 214.029 339.726 214.082 337.073C214.118 335.281 214.044 333.167 214.596 331.45L214.678 331.21C215.191 329.659 215.939 328.205 217.11 327.044C218.032 326.131 219.186 325.494 220.284 324.826L225.561 321.79L244.395 311.589L256.063 304.655C260.24 301.886 264.264 298.807 268.556 296.224L284.713 287.534C290.266 284.438 295.294 280.866 300.217 276.852L309.166 269.194L316.447 263.335C318.626 261.505 320.726 259.347 323.045 257.725C323.526 257.388 323.876 257.096 324.463 257.096L324.364 257.424L318.936 262.543L319.408 263.094L319.703 262.976L319.824 262.99L324.613 258.186C325.719 257.144 326.604 255.942 327.541 254.752C331.957 249.142 334.554 242.972 337.387 236.499C340.064 230.378 342.661 224.291 344.333 217.799C344.996 215.224 345.082 212.584 345.641 210.009Z" fill="#0090F9"/>
<path d="M177.23 104.795C177.753 104.91 177.969 104.925 178.499 104.813C179.074 104.692 179.702 104.858 180.188 104.546C180.919 104.55 181.458 104.555 182.156 104.358C182.704 104.204 183.453 104.323 184.031 104.257L189.657 103.881C198.939 103.583 207.983 104.388 216.855 107.222L225.973 110.56C225.207 110.701 223.769 109.563 223.367 110.195L223.219 110.654L225.375 111.405L225.728 111.593C226.083 111.78 226.357 111.84 226.76 111.875L226.336 112.085L226.57 112.221C228.008 113.036 229.696 113.584 231.198 114.297C233.87 115.567 236.456 117.024 239 118.531C245.181 122.193 250.605 126.557 255.983 131.283C262.886 137.35 269.344 143.756 274.582 151.369C277.428 155.504 279.331 160.19 282.057 164.362C285.712 170.898 290.836 175.972 296.543 180.73C298.345 182.233 300.215 183.864 302.234 185.062C302.149 185.812 301.991 186.195 302.48 186.834C304.171 189.041 307.38 190.873 309.683 192.382C319.36 198.721 331.858 204.167 335.464 216.211C336.563 219.881 336.621 223.809 336.299 227.601C336.183 228.966 335.874 230.301 335.978 231.677L335.713 232.385L336.281 232.878C336.25 233.863 335.777 234.915 335.429 235.83C332.984 242.24 327.897 248.132 322.956 252.799C317.564 257.891 311.77 261.911 305.628 266.003C292.913 274.476 279.522 281.541 266.346 289.221L228.148 312.066L217.672 317.392C216.616 318.02 215.995 318.33 215.684 319.585C215.054 322.132 214.811 324.81 214.427 327.403C213.559 333.264 212.272 338.447 208.895 343.39C208.181 344.434 207.321 345.937 206.24 346.59L205.764 346.831C204.425 348.866 200.732 350.68 198.645 351.981C196.647 353.227 194.725 354.592 192.599 355.621C192.036 355.351 191.443 354.999 190.842 354.832C186.351 352.766 181.83 349.914 177.839 347.005L175.301 317.624C172.601 317.182 169.976 316.148 167.374 315.326C141.328 303.95 116.632 289.261 93.228 273.166C80.0695 264.116 66.93 254.68 55.946 242.988C55.8485 242.712 55.3525 242.241 55.1585 242.002L52.816 239.016C50.666 236.109 48.8607 233.096 47.1575 229.916C47.2383 229.535 46.0184 226.777 45.8438 226.208C45.2801 224.371 44.8927 222.444 44.7296 220.527C44.4692 217.467 44.9388 214.834 45.6686 211.89C47.0047 211.228 47.7041 209.315 48.6228 208.128C50.655 205.501 52.8905 203.096 55.5245 201.064C60.4475 197.267 65.7735 194.26 71.2185 191.295C75.068 189.199 79.605 187.194 82.86 184.217C86.491 181.817 90.0755 179.412 93.168 176.313C96.9185 172.555 99.5955 168.229 102.153 163.612L110.524 150.813C120.391 136.899 132.698 125.599 147.877 117.734L156.203 113.759L160.872 111.88L161.203 111.725L160.886 111.497L162.226 111.064L162.375 111.029C162.604 110.803 162.632 110.812 162.938 110.747C163.347 110.661 163.732 110.625 164.045 110.314L164.156 110.186L164.719 110.278C165.018 110.01 165.336 109.859 165.75 109.856L166.031 109.902C167.008 109.345 168.47 109.033 169.582 108.81C170.016 108.723 169.712 108.614 169.86 108.309C170.132 107.748 171.055 107.009 171.531 106.568L170.028 106.833C169.251 106.931 168.681 107.117 167.889 107.003L172.219 105.865L174.516 105.251L174.751 105.207C175.593 105.011 176.369 104.885 177.23 104.795Z" fill="#030713"/>
<path d="M177.23 104.795C177.753 104.91 177.969 104.925 178.499 104.813C179.074 104.692 179.702 104.858 180.188 104.546C180.919 104.55 181.458 104.555 182.156 104.358C182.704 104.204 183.453 104.323 184.031 104.257L189.657 103.881C198.939 103.583 207.983 104.388 216.855 107.222L225.973 110.56C225.207 110.701 223.769 109.563 223.367 110.195L223.219 110.654L225.375 111.405L225.728 111.593C226.083 111.78 226.357 111.84 226.76 111.875L226.336 112.085C222.729 111.045 219.281 109.727 215.607 108.84C208.098 107.027 199.993 105.868 192.253 105.983C181.605 106.141 171.276 108.416 161.203 111.725L160.886 111.497L162.226 111.064L162.375 111.029C162.604 110.803 162.632 110.812 162.938 110.747C163.347 110.661 163.732 110.625 164.045 110.314L164.156 110.186L164.719 110.278C165.018 110.01 165.336 109.859 165.75 109.856L166.031 109.902C167.008 109.345 168.47 109.033 169.582 108.81C170.016 108.723 169.712 108.614 169.86 108.309C170.132 107.748 171.055 107.009 171.531 106.568L170.028 106.833C169.251 106.931 168.681 107.117 167.889 107.003L172.219 105.865L174.516 105.251L174.751 105.207C175.593 105.011 176.369 104.885 177.23 104.795Z" fill="url(#paint10_linear_1201_3)"/>
<path d="M178.848 333.557C182.015 336.747 185.554 339.661 190.313 339.642C195.339 339.621 201.936 337.419 205.89 334.29L205.979 334.47C206.086 334.682 206.032 334.608 206.137 334.73C205.869 338.36 205.875 342.434 204.992 345.957C204.933 346.192 204.841 346.678 204.707 346.879C204.129 347.744 202.326 348.609 201.453 349.163L192.607 354.707L185.254 350.712C183.091 349.484 180.931 348.296 179.057 346.649L178.848 333.557Z" fill="#393B46"/>
<path d="M335.713 232.385L336.281 232.878C336.25 233.863 335.777 234.915 335.429 235.83C332.984 242.24 327.897 248.132 322.956 252.799C317.564 257.891 311.77 261.911 305.628 266.003C292.913 274.476 279.522 281.541 266.346 289.221L228.148 312.066L217.672 317.392C216.616 318.02 215.995 318.33 215.684 319.585C215.054 322.132 214.811 324.81 214.427 327.403C213.559 333.264 212.272 338.447 208.895 343.39C208.181 344.434 207.321 345.937 206.24 346.59L205.764 346.831C206.666 343.23 206.767 339.223 207.127 335.519L208.899 317.656C211.082 316.735 213.557 316.2 215.831 315.516C223.613 312.404 230.568 308.305 237.765 304.063L264.492 287.775L277.618 280.419C287.168 275.032 296.632 269.47 305.682 263.269C309.806 260.443 313.866 257.608 317.703 254.392C325.072 248.216 331.456 241.057 335.713 232.385Z" fill="url(#paint11_linear_1201_3)"/>
<path d="M179.448 323.66C179.333 320.743 179.524 317.489 179.042 314.627C179.958 313.563 181.074 312.029 182.315 311.35C184.561 312.257 186.794 313.178 189.221 313.449C192.535 313.82 196.17 313.372 199.424 312.714C199.962 312.605 202.569 311.686 202.817 311.759C203.78 312.043 205.585 314.152 206.272 314.933L203.805 331.051L204.04 331.679L206.221 332.097C206.216 332.915 206.333 333.944 206.137 334.73C206.032 334.608 206.086 334.682 205.979 334.47L205.89 334.29C201.936 337.419 195.339 339.622 190.313 339.642C185.554 339.661 182.015 336.747 178.848 333.557C178.944 331.985 179.274 330.427 179.376 328.861C179.488 327.14 179.448 325.385 179.448 323.66Z" fill="#393B46"/>
<path d="M179.448 323.66L179.482 323.86C179.797 325.868 179.119 328.1 180.239 329.88L180.409 330.164C182.064 332.85 185.546 335.662 188.531 336.67L188.717 336.735C189.417 336.958 190.335 336.859 191.063 336.773C194.529 336.364 198.313 334.338 201.341 332.619C202.127 332.172 203.151 331.669 203.805 331.051L204.04 331.679L206.221 332.097C206.216 332.915 206.333 333.944 206.137 334.73C206.032 334.608 206.086 334.682 205.979 334.47L205.89 334.29C201.936 337.419 195.339 339.621 190.313 339.642C185.554 339.661 182.015 336.747 178.848 333.557C178.944 331.985 179.274 330.427 179.376 328.861C179.488 327.14 179.448 325.385 179.448 323.66Z" fill="#2A2B36"/>
<path d="M150.164 290.77L149.352 290.713C149.143 290.477 148.963 290.272 148.699 290.095C147.567 289.336 146.488 288.376 145.408 287.531L145.405 287.812L145.172 287.953L144.563 287.624L144.281 287.437L142.125 285.934C141.817 285.718 141.509 285.562 141.188 285.37L140.485 284.947L137.813 283.491C137.595 283.35 137.519 283.225 137.259 283.16C135.441 282.704 133.6 281.244 131.813 280.579L131.438 280.485L130.242 279.904L122.37 275.856L119.523 274.436L119.25 274.286L119.155 274.474L118.969 274.754L119.155 275.131C119.608 275.365 119.787 275.583 120.092 275.977L119.706 276.51L119.53 276.728L119.717 277.01L119.438 277.292L119.624 277.527L119.485 277.715L119.624 277.902L119.485 278.09L119.624 278.278L119.485 278.466L119.717 278.7L119.156 279.17L119.155 279.452L118.735 279.781L118.78 280.203L118.5 280.344C118.132 280.565 118.502 280.425 118.09 280.564L117.891 280.626L117.842 281.237C117.605 281.595 117.733 281.475 117.364 281.722L117.094 281.893C117.463 282.27 118.053 282.469 118.5 282.74L119.203 283.163L119.531 283.303C119.796 283.459 119.952 283.664 120.249 283.799L121.125 284.243C121.354 284.391 121.418 284.506 121.691 284.574C121.928 284.634 121.829 284.581 122.025 284.721C122.747 285.238 123.658 285.582 124.453 285.981C125.194 286.351 125.982 286.869 126.75 287.155L127.125 287.249L128.318 287.827C129.515 288.473 130.99 289.078 132.281 289.509L132.563 289.597L133.125 289.785C133.874 289.997 134.547 290.391 135.281 290.636L135.563 290.724L136.125 290.912L136.5 291.006C137.023 291.246 137.942 291.686 138.495 291.737C138.853 291.769 138.676 291.716 139.034 291.895C139.373 292.065 139.223 292.027 139.562 292.095L139.781 292.133C140.056 292.223 140.362 292.276 140.624 292.368L141.891 292.744C142.291 292.859 142.771 292.94 143.156 293.073C143.667 293.248 144.024 293.248 144.563 293.26C145.189 293.679 145.874 293.25 146.531 293.448C147.132 293.63 147.674 293.561 148.268 293.73C146.771 293.784 145.252 293.704 143.772 293.455C141.19 293.022 138.644 292.088 136.184 291.211C130.616 289.227 125.458 286.927 120.253 284.121C112.647 280.021 105.782 274.995 98.632 270.192C91.5915 265.463 84.251 260.98 77.4745 255.88C73.722 253.056 70.1815 249.901 66.7185 246.729C64.65 244.834 62.327 242.964 60.6735 240.685C61.387 237.169 62.5105 233.868 64.2195 230.707C65.5115 228.318 67.2205 226.181 68.8545 224.024L74.3995 216.835C76.0485 221.797 77.2205 227.952 80.378 232.187C82.1985 234.017 83.6675 236.059 85.3025 238.046L91.125 245.166C94.389 249.582 97.1065 253.915 101.316 257.548L100.976 257.476C98.0375 256.87 95.0335 256.917 92.156 255.939C90.328 255.317 88.5885 254.502 86.8405 253.688C85.9385 253.267 84.953 252.692 83.9945 252.451C86.4235 254.714 89.436 256.362 92.1805 258.215C93.1485 258.87 94.5755 260.14 95.6665 260.476L102.985 265.025C103.625 265.406 104.566 266.125 105.262 266.328C108.738 268.827 112.96 270.761 116.778 272.693L128.749 278.817L136.671 282.569L141.378 285.125C142.419 285.75 143.413 286.577 144.563 286.977L145.091 286.788L150.164 290.77Z" fill="#2A2B36"/>
<path d="M283.645 234.65C285.43 231.777 287.671 229.328 289.613 226.58C292.526 222.458 293.899 217.665 293.836 212.648C294.189 213.324 294.435 214.045 294.808 214.712C296.273 217.334 297.972 219.673 298.925 222.575C299.355 223.884 299.497 225.302 299.803 226.649L299.77 226.862L299.635 227.534C299.543 227.976 299.554 227.79 299.624 228.237C301.425 229.617 302.352 231.416 303.288 233.454C304.888 228.292 307.115 222.887 307.393 217.426C314.85 224.098 321.071 232.039 321.598 242.443C321.654 243.549 320.973 244.141 320.253 244.912C316.678 248.743 312.438 252.095 308.305 255.297L297.72 263.183C289.222 268.889 280.092 273.65 270.938 278.189C266.844 280.219 262.769 282.445 258.449 283.962C252.808 285.944 246.75 286.775 240.938 288.112L240.876 287.982L241.668 287.296L241.318 287.369C241.011 287.458 241.009 287.526 240.655 287.531C240.794 286.836 241.321 286.437 241.792 285.923C242.211 285.284 243.155 284.609 243.729 284.055L247.382 280.296C250.104 277.387 252.481 274.185 254.768 270.927L256.391 268.684C259.724 264.962 262.553 260.888 264.849 256.447C265.671 254.856 266.57 253.21 267.05 251.479C267.723 249.051 267.779 246.748 267.776 244.253L268.009 244.415C268.608 246.734 268.425 249.101 268.132 251.449C274.849 248.137 279.888 240.897 283.645 234.65Z" fill="#2A2B36"/>
<path d="M283.645 234.65C285.43 231.777 287.671 229.328 289.613 226.58C292.526 222.458 293.899 217.665 293.836 212.648C294.189 213.324 294.435 214.045 294.808 214.712C296.273 217.334 297.972 219.673 298.925 222.575C299.355 223.884 299.497 225.302 299.803 226.649L299.77 226.862L299.635 227.534C299.543 227.976 299.554 227.79 299.624 228.237L299.484 228.521C299.146 229.251 299.132 230.195 298.982 230.982C298.685 232.534 298.289 234.084 297.778 235.58C296.687 238.778 294.957 241.836 293.4 244.824C291.834 247.832 290.403 250.832 288.403 253.592C287.317 255.091 285.932 256.532 284.643 257.865C287.519 257.013 290.506 256.809 293.388 256.028C296.322 255.232 298.834 253.864 301.63 252.776C299.502 255.243 296.646 256.975 293.859 258.604C288.287 261.863 282.313 264.418 276.539 267.294L255.225 278.082C251.645 279.96 248.234 282.346 245.033 284.807C244.438 285.264 242.244 287.24 241.668 287.296L241.318 287.369C241.011 287.458 241.009 287.526 240.655 287.531C240.794 286.836 241.321 286.437 241.792 285.923C242.211 285.284 243.155 284.609 243.729 284.055L247.382 280.296C250.104 277.387 252.481 274.185 254.768 270.927L256.391 268.684C259.724 264.962 262.553 260.888 264.849 256.447C265.671 254.856 266.57 253.21 267.05 251.479C267.723 249.051 267.779 246.748 267.776 244.253L268.009 244.415C268.608 246.734 268.425 249.101 268.132 251.449C274.849 248.137 279.888 240.897 283.645 234.65Z" fill="url(#paint12_linear_1201_3)"/>
<path d="M286.439 206.286C286.485 205.597 286.158 204.844 286.016 204.166C285.746 202.877 285.584 201.524 285.459 200.212L284.65 186.177C285.848 186.841 287.012 188.096 287.949 189.089C292.248 193.643 294.731 198.629 297.457 204.168C300.302 211.34 302.21 219.083 299.803 226.649C299.497 225.302 299.355 223.884 298.925 222.575C297.972 219.673 296.273 217.334 294.808 214.712C294.435 214.045 294.189 213.324 293.836 212.648C293.899 217.665 292.526 222.458 289.613 226.58C287.671 229.328 285.43 231.777 283.645 234.65C279.888 240.897 274.849 248.137 268.132 251.449C268.425 249.101 268.608 246.734 268.009 244.415L267.776 244.253C267.779 246.748 267.723 249.051 267.05 251.479C266.57 253.21 265.671 254.856 264.849 256.447C262.553 260.888 259.724 264.962 256.391 268.684L254.768 270.927C252.481 274.185 250.104 277.387 247.382 280.296L243.729 284.055C243.155 284.609 242.211 285.284 241.792 285.923L240.796 285.871C239.178 287.564 237.094 289.042 235.271 290.526L225.499 298.753L226.909 296.588C229.316 292.678 231.049 288.341 233.05 284.219C237.003 276.07 241.787 268.02 242.359 258.756C242.492 256.602 242.493 254.415 241.993 252.305L241.87 252.608C241.82 257.653 241.09 262.486 239.23 267.207C235.442 276.825 227.618 284.431 220.384 291.543C215.193 296.645 209.281 301.965 202.278 304.329C199.023 305.427 195.407 305.826 191.983 305.792C183.411 305.705 175.928 302.352 169.712 296.495L162.819 290.248C156.465 284.411 150.397 278.361 146.084 270.791C142.941 265.274 140.272 257.804 142.005 251.424C140.186 254.283 140.701 259.464 141.422 262.646C143.126 270.167 147.343 276.707 151.074 283.338C152.04 285.054 153.18 286.812 153.996 288.596L159.766 298.216C157.276 295.787 154.555 293.866 151.734 291.86C151.378 291.607 150.553 290.862 150.164 290.77L145.091 286.788C138.909 281.461 132.829 275.432 129.209 267.993C127.712 264.915 126.78 261.714 126.057 258.382C125.742 262.223 127.304 266.444 128.8 269.907L128.612 269.736C127.496 268.545 126.472 267.177 125.42 265.923C121.191 260.878 117.194 255.208 116.065 248.587C115.802 247.042 115.863 245.387 115.854 243.822C115.387 244.863 115.186 245.946 114.955 247.057C114.952 247.913 115.151 249.965 114.738 250.633L114.599 250.666C112.772 249.907 111.104 248.563 109.631 247.26C105.175 243.317 102.333 238.881 99.86 233.521C98.564 230.886 96.8815 229.056 95.0835 226.78C92.3195 223.281 90.2855 218.874 90.856 214.34L90.891 214.083C89.278 216.579 87.4065 218.901 85.889 221.462C85.009 222.948 84.3935 224.555 83.624 226.098C81.5415 218.497 82.929 210.075 86.369 203.118L86.5165 202.947C87.358 201.892 87.994 200.586 88.765 199.466C91.0995 196.074 93.5785 192.835 96.3215 189.762C97.1015 188.889 98.0645 187.651 99.013 186.999L98.109 205.547C100.486 202.148 104.425 200.9 108.352 200.221C118.6 198.451 129.786 200.551 139.358 204.329C142.585 205.602 145.883 207.076 148.721 209.096C152.068 211.479 155.48 215.22 156.18 219.429C156.628 222.129 156.037 224.723 155.237 227.289C154.034 231.156 152.364 234.515 150.233 237.954C149.518 239.106 147.994 240.775 147.625 242.016C151.318 238.242 155.572 235.139 159.708 231.879C164.23 228.313 168.93 224.23 174.03 221.556C175.735 220.663 177.51 219.976 179.463 219.96C181.801 219.942 183.849 220.926 185.488 222.572C188.985 226.087 191.751 231.911 192.226 236.809C193.129 231.733 195.27 225.632 199.772 222.617C201.948 221.161 204.429 220.893 206.963 221.459C212.405 222.674 217.53 227.168 221.963 230.417C226.871 234.014 231.711 237.634 236.31 241.626C233.33 236.761 230.226 231.497 228.878 225.903C228.346 223.695 228.108 221.549 228.645 219.319C229.914 214.051 233.545 210.521 238.066 207.779C246.355 202.751 256.415 200.128 266.033 199.523C269.942 199.277 274.093 199.297 277.918 200.265C281.081 201.066 284.247 202.582 285.976 205.473L286.439 206.286Z" fill="white"/>
<path d="M158.242 257.888C160.802 258.253 162.759 258.772 165.117 259.834C165.605 260.053 166.25 260.242 166.594 260.667L166.286 260.876C164.671 261.102 163.39 260.327 161.965 259.677C160.701 259.101 159.456 258.568 158.242 257.888Z" fill="#030713"/>
<path d="M226.119 258.223L226.847 258.19L226.838 258.411C224.683 259.486 221.727 260.829 219.319 260.854L218.441 260.535L218.456 260.29C220.877 259.132 223.486 258.637 226.119 258.223Z" fill="#030713"/>
<path d="M114.738 250.633L114.684 249.205C114.091 248.501 113.693 247.615 113.171 246.85C111.337 244.164 109.292 241.613 108.399 238.42C109.526 239.858 110.429 241.451 111.658 242.821C112.59 243.861 113.96 244.76 114.472 246.101C114.572 246.363 114.654 246.58 114.804 246.82L114.955 247.057C114.952 247.913 115.151 249.965 114.738 250.633Z" fill="#D3D2D2"/>
<path d="M155.152 246.2L155.428 246.387C152.545 249.169 149.445 252.488 149.261 256.75L149.163 258.975L149.048 258.806C148.826 258.36 148.867 257.724 148.86 257.229C148.831 255.37 148.906 253.132 149.672 251.415L149.783 251.178C150.096 250.498 150.427 249.824 150.863 249.211C151.9 247.755 153.359 246.501 155.152 246.2Z" fill="#D3D2D2"/>
<path d="M227.477 245.636C227.808 245.561 228.084 245.505 228.425 245.547C230.313 245.784 232.129 247.136 233.187 248.687C235.373 251.891 234.839 256.714 234.135 260.29L233.916 260.605C234.037 257.73 234.396 254.457 233.003 251.792C231.745 249.386 230.518 247.507 228.017 246.26C227.616 246.06 227.67 246.02 227.477 245.636Z" fill="#D3D2D2"/>
<path d="M114.044 233.188C115.524 235.401 116.853 237.775 118.589 239.801C121.396 243.079 124.895 245.45 128.211 248.149C130.011 249.615 131.685 251.203 133.551 252.587C133.507 252.598 133.463 252.625 133.418 252.621C132.771 252.571 132.053 251.947 131.513 251.607L128.516 249.906L121.932 246.562C120.402 245.707 118.924 244.7 117.793 243.343C115.462 240.546 114.995 236.593 114.044 233.188Z" fill="#D3D2D2"/>
<path d="M256.066 249.763C254.257 250.287 251.81 251.662 250.328 252.832C250.008 253.085 249.887 253.195 249.496 253.339C250.539 251.737 253.224 250.494 254.825 249.439C256.485 248.344 258.153 247.177 259.688 245.91C263.651 242.637 267.345 237.858 269.961 233.424C270.295 234.353 268.99 240.035 268.577 241.169C268.26 242.039 268.017 242.799 267.446 243.542C264.173 246.62 259.935 247.64 256.066 249.763Z" fill="#D3D2D2"/>
<path d="M153.996 288.596C153.079 288.059 152.869 287.35 152.346 286.497L151.164 284.366L151.033 284.149L150.892 283.867L150.751 283.678L149.233 280.919L149.064 280.672L149.063 280.392C148.523 280.029 148.417 279.461 148.068 278.938L147.939 278.748C147.755 278.397 147.958 278.616 147.699 278.357L147.564 278.23C147.448 277.419 146.569 276.435 146.199 275.694L145.501 274.285L145.221 273.722C145.012 273.388 144.906 273.046 144.699 272.736L144.564 272.548L144.563 272.313L144.189 271.796L143.814 270.903C143.713 270.642 143.764 270.581 143.58 270.334C143.202 269.831 143.125 269.039 142.783 268.462L142.596 268.18L142.688 267.804L142.408 267.616C142.373 267.206 142.315 266.921 142.126 266.559C142.014 266.346 141.899 266.167 141.846 265.926L141.75 265.268C141.501 264.638 141.589 265.29 141.537 264.76C141.507 264.455 141.544 264.581 141.449 264.297L141.376 264.094L141.283 263.765L141.096 263.484C141.106 263.196 141.118 262.959 141.034 262.679C140.87 262.134 140.739 261.784 140.787 261.2C140.826 260.719 140.516 260.571 140.579 260.008C140.648 259.402 140.501 259.64 140.346 259.162C140.174 258.634 140.495 257.79 140.398 257.191C140.266 256.382 140.228 255.166 140.439 254.373L140.719 254.28C140.835 253.93 140.801 253.951 140.717 253.62L140.344 254.088C139.823 253.566 140.183 253.371 139.875 252.915L139.313 252.961L138.75 252.585C138.359 252.408 138.514 252.581 138.188 252.398L137.814 252.117L137.016 251.835C136.949 252.16 136.859 252.47 136.892 252.804C136.926 253.133 136.982 253.441 136.95 253.773C136.907 254.212 136.919 253.767 136.921 254.36V254.748L136.875 255.405C136.937 255.715 137.082 255.909 137.109 256.251C137.135 256.587 137.023 257.067 137.109 257.378C137.193 257.684 137.32 257.78 137.296 258.129L137.25 258.411C137.504 259.006 137.372 259.432 137.484 260.008C137.653 260.878 137.53 259.718 137.602 260.436C137.635 260.765 137.635 261.043 137.771 261.353C137.957 261.774 137.758 261.986 138.046 262.45L138 262.826L138.188 263.108L138.235 263.718C138.334 264.096 138.529 264.507 138.609 264.892C138.757 265.611 138.551 264.96 138.744 265.541C138.902 266.014 139.139 266.539 139.266 267.006C139.352 267.325 139.277 267.467 139.445 267.802C139.588 268.089 139.697 268.338 139.781 268.65L139.875 269.026C140.114 269.485 140.032 269.119 140.115 269.537C140.18 269.859 140.194 270.077 140.373 270.364L140.484 270.529L140.438 270.81C140.578 271.03 140.702 271.206 140.766 271.462C140.869 271.876 141.13 272.484 141.326 272.877L141.548 273.358C141.76 273.929 141.974 274.528 142.313 275.037L142.499 275.272C142.5 275.545 142.546 275.736 142.688 275.977C142.824 276.208 142.95 276.268 143.019 276.543C143.078 276.781 143.026 276.682 143.165 276.878C144.118 278.215 144.72 279.872 145.688 281.237C145.968 281.632 146.167 282.059 146.435 282.461L147 283.303L147.187 283.538C147.188 283.885 147.282 283.868 147.516 284.102L147.469 284.5C144.059 279.339 141.338 274.148 139.341 268.274C136.724 260.574 134.999 251.168 138.798 243.58C139.182 242.813 139.751 241.666 140.636 241.403C141.446 241.162 142.464 241.414 143.179 241.821L143.438 241.975C144.473 242.573 145.163 243.221 145.979 244.082C145.346 245.078 144.914 246.239 144.424 247.311C143.672 248.316 143.181 249.329 142.573 250.408C142.469 250.593 142.405 250.798 142.312 250.989L142.005 251.424C140.186 254.283 140.701 259.464 141.422 262.646C143.126 270.167 147.343 276.707 151.074 283.338C152.04 285.054 153.18 286.812 153.996 288.596Z" fill="#D3D2D2"/>
<path d="M166.774 279.803C165.71 278.867 164.532 277.793 163.679 276.663C166.127 278.468 168.726 280.238 171.626 281.22C177.186 283.101 183.456 282.319 188.646 279.711C186.066 278.793 183.585 277.971 181.295 276.408C174.723 271.925 172.489 265.163 171.087 257.655C170.462 254.312 169.49 248.996 171.608 246.031C174.407 242.11 179.964 240.025 184.528 239.228C192.397 237.856 202.542 238.128 209.282 242.905C211.242 244.294 213.353 246.585 213.702 249.065C213.988 251.098 213.643 253.28 213.381 255.301C212.588 261.422 211.469 267.398 207.634 272.413C204.302 276.054 200.507 278.712 195.683 279.941C200.84 282.405 206.395 283.083 211.877 281.143C214.326 280.277 216.37 278.901 218.364 277.254C218.987 276.739 219.544 276.074 220.21 275.63C219.342 277.069 218.339 278.343 217.25 279.619C211.467 284.477 204.518 287.614 196.951 288.328C186.741 289.292 174.729 286.415 166.774 279.803Z" fill="#030713"/>
<path d="M206.513 265.362L207.003 265.244L207.25 265.456C207.023 265.851 206.816 266.119 206.452 266.401C205.294 267.3 203.845 267.638 202.406 267.493C202.121 267.365 201.902 267.202 201.648 267.022C202.17 266.588 202.975 266.574 203.625 266.375L206.513 265.362Z" fill="white"/>
<path d="M176.237 265.253L179.397 266.031C180.289 266.207 181.809 266.23 182.455 266.865L182.156 267.41C181.882 267.511 181.608 267.622 181.313 267.65C179.278 267.841 177.635 266.521 176.237 265.253Z" fill="white"/>
<path d="M204.123 250.351C207.137 251.271 209.31 254.534 210.785 257.19L210.75 258.223L210.563 258.296C210.053 257.448 209.675 256.535 209.118 255.717C207.706 253.642 205.987 252.348 203.751 251.3C204.057 251.29 204.516 251.243 204.814 251.334L205.125 251.462L205.407 251.225C204.933 251.02 204.629 250.813 204.246 250.465L204.123 250.351Z" fill="#D3D2D2"/>
<path d="M173.699 256.128C173.873 256.485 173.781 256.457 174.188 256.616C175.494 254.48 177.336 251.628 179.656 250.495C181.185 249.748 183.325 249.863 184.995 249.854L192.171 249.851L198.972 249.881C200.63 249.898 202.541 249.821 204.123 250.351L204.246 250.465C204.629 250.814 204.933 251.02 205.407 251.225L205.125 251.462L204.814 251.334C204.516 251.243 204.057 251.29 203.751 251.3L202.496 251.061C199.58 250.479 196.236 250.76 193.252 250.746L186.663 250.731C184.964 250.733 183.248 250.701 181.594 251.136L181.283 251.213C178.715 251.869 177.567 253.258 175.971 255.241C175.456 255.881 174.811 256.565 174.413 257.284L173.664 258.953L173.441 256.06L173.438 255.937L173.699 256.128Z" fill="url(#paint13_linear_1201_3)"/>
<path d="M175.171 247.529C175.939 246.542 177.042 245.808 178.009 245.022C181.932 241.835 187.112 241.215 191.992 241.217C193.432 241.218 194.893 241.175 196.326 241.34C200.096 241.775 203.049 242.658 206.18 244.862C206.962 245.413 207.69 245.864 208.314 246.609C207.911 246.684 207.782 246.79 207.405 246.605C206.707 246.263 205.976 245.926 205.207 245.79C201.02 245.051 196.5 245.322 192.254 245.307L184.643 245.319C182.64 245.348 180.382 245.365 178.486 246.076C177.332 246.509 176.385 247.329 175.171 247.529Z" fill="url(#paint14_linear_1201_3)"/>
<path d="M175.171 247.529C176.385 247.329 177.332 246.509 178.486 246.076C180.382 245.365 182.64 245.348 184.643 245.319L192.254 245.307C196.5 245.322 201.02 245.051 205.207 245.79C205.976 245.926 206.707 246.263 207.405 246.605C207.782 246.79 207.911 246.684 208.314 246.609C209.687 247.859 211.528 249.342 211.686 251.35C211.807 252.888 211.561 254.424 211.23 255.918C209.582 253.106 207.957 250.348 204.563 249.47C200.422 248.399 195.422 248.842 191.152 248.849C187.942 248.854 184.492 248.656 181.316 249.109C180.27 249.259 179.377 249.514 178.468 250.067C176.31 251.38 174.426 253.715 173.699 256.128L173.438 255.937C173.289 253.955 173.03 251.67 173.768 249.775C174.09 248.948 174.648 248.236 175.171 247.529Z" fill="white"/>
<path d="M216.224 292.456C218.654 289.85 220.558 286.842 222.808 284.086C225.351 280.971 228.335 278.241 230.772 275.029C232.734 272.442 234.161 269.487 235.703 266.649C236.853 264.53 238.212 261.92 238.75 259.571C239.201 257.597 239.471 255.488 239.371 253.461C239.226 250.552 237.578 247.162 239.263 244.447C240.077 243.134 241.941 242.016 243.433 241.676C244.01 241.544 244.712 241.484 245.207 241.852C246.945 243.147 247.537 246.752 247.822 248.777C247.983 251.15 248.23 254.403 247.332 256.626L242.395 272.755L241.012 277.761L240.655 278.607C238.915 282.694 236.318 286.815 233.398 290.161C233.771 290.161 234.218 289.596 234.49 289.312C235 288.781 234.542 289.305 234.891 288.705C235.2 288.172 235.717 287.695 236.063 287.155L237.191 285.467C237.459 285.064 237.657 284.638 237.938 284.243C238.83 282.984 240.239 280.837 240.607 279.361C240.677 279.079 240.817 278.868 240.938 278.607L241.125 278.137L241.266 277.808L241.503 277.007C241.626 276.638 241.693 276.297 241.828 275.93L242.104 274.714C242.312 273.674 242.664 272.625 242.953 271.609C243.052 271.262 243.068 270.978 243.188 270.623C243.389 270.024 243.482 269.389 243.703 268.791L243.891 268.028C243.974 267.61 243.889 267.997 244.078 267.476C244.401 266.587 244.561 265.647 244.951 264.787C245.102 264.455 245.05 264.6 245.08 264.264C245.116 263.869 245.372 263.293 245.485 262.873C245.608 262.41 245.847 261.883 246.003 261.414C246.16 260.944 246.242 260.552 246.451 260.09C246.592 259.78 246.529 259.598 246.61 259.304C246.694 258.997 246.866 258.719 246.952 258.402C247.055 258.027 246.995 258.214 247.178 257.848C247.354 257.496 247.301 257.664 247.333 257.31C247.376 256.837 247.812 255.737 248.063 255.311L247.875 254.842L248.249 254.747L248.346 254.842H248.625C249.267 254.187 249.926 253.328 250.735 252.916L251.063 252.681L251.918 252.1C252.198 251.913 252.305 251.959 252.563 251.836L252.938 251.554L253.547 251.225L254.25 250.802L254.42 250.761C255.018 250.612 255.562 250.197 256.134 249.955L256.066 249.763C259.935 247.64 264.173 246.62 267.446 243.542L267.776 244.253C267.779 246.748 267.723 249.051 267.05 251.479C266.57 253.21 265.671 254.856 264.849 256.447C262.553 260.888 259.724 264.962 256.391 268.684L254.768 270.927C252.481 274.185 250.104 277.387 247.382 280.296L243.729 284.055C243.155 284.609 242.211 285.284 241.792 285.923L240.796 285.871C239.178 287.564 237.094 289.042 235.271 290.526L225.499 298.753L226.909 296.588C229.316 292.678 231.049 288.341 233.05 284.219C237.003 276.07 241.787 268.02 242.359 258.756C242.492 256.602 242.493 254.415 241.993 252.305L241.87 252.608C241.82 257.653 241.09 262.486 239.23 267.207C235.442 276.825 227.618 284.431 220.384 291.543C215.193 296.645 209.281 301.965 202.278 304.329C199.023 305.427 195.407 305.826 191.983 305.792C183.411 305.705 175.928 302.352 169.712 296.495C170.848 296.797 171.227 297.383 172.172 298.052L172.219 297.333C171.638 297.025 171.094 296.699 170.847 296.06C170.483 295.12 169.667 294.374 168.995 293.637C167.735 292.257 166.055 290.596 165.227 288.93C165.088 288.65 165.014 288.483 164.806 288.235C163.983 287.262 163.147 286.318 162.446 285.25L163.781 286.589L163.936 286.872C164.396 287.436 164.91 287.969 165.577 288.275L165.734 288.343L167.337 290.029C167.568 289.856 167.588 289.876 167.738 289.635C168.52 288.385 166.783 284.54 166.391 283.116C166.236 282.554 166.001 281.204 166.283 280.663L166.774 279.803C174.729 286.415 186.741 289.292 196.951 288.328C204.518 287.614 211.467 284.477 217.25 279.619L217.282 280.061C217.56 279.799 217.67 279.545 218.064 279.545C218.064 279.895 218.085 279.705 217.971 280.11L218.134 280.683C218.288 281.335 217.971 282.358 217.828 283.01C217.251 285.663 216.3 288.117 216.15 290.855C216.121 291.382 216.025 291.964 216.224 292.456Z" fill="url(#paint15_linear_1201_3)"/>
<path d="M250.926 273.745C253.831 268.845 256.987 263.269 257.877 257.586L258.118 257.592C258.033 259.889 257.809 262.105 257.31 264.353L256.57 267.054C256.489 267.306 256.204 267.907 256.204 268.144C256.204 268.334 256.329 268.504 256.391 268.684L254.768 270.927C252.481 274.185 250.104 277.387 247.382 280.296L243.729 284.055C243.155 284.609 242.211 285.284 241.792 285.923L240.796 285.871C244.638 282.082 247.819 278.156 250.926 273.745Z" fill="url(#paint16_linear_1201_3)"/>
<path d="M180.597 299.514C183.599 300.072 186.416 300.661 189.478 300.867C195.855 301.297 202.973 300.257 209.024 298.163L208.969 298.709L209.185 298.904C208.617 299.508 207.821 299.637 207.103 300.018C206.13 300.533 205.032 300.771 203.986 301.099C200.04 302.337 196.485 302.812 192.375 302.964C190.023 303.052 187.698 303.129 185.364 302.743C183.479 302.431 181.095 301.962 179.672 300.588L179.305 300.654C178.828 300.354 178.543 300.234 178.405 299.635C178.37 299.485 178.412 299.325 178.438 299.178C178.803 299.263 179.107 299.347 179.456 299.472C179.831 299.606 180.209 299.547 180.597 299.514Z" fill="#B7B6B6"/>
<path d="M217.25 279.619L217.282 280.061C217.56 279.799 217.67 279.545 218.064 279.545C218.064 279.895 218.085 279.705 217.971 280.11L218.134 280.683C218.288 281.335 217.971 282.358 217.828 283.01C217.251 285.663 216.3 288.117 216.15 290.855C216.121 291.382 216.025 291.964 216.224 292.456C215.428 293.599 214.319 294.723 213.202 295.534L212.063 296.379L211.787 296.563L210.563 297.301C210.045 297.61 209.504 297.788 209.024 298.164C202.973 300.257 195.855 301.297 189.478 300.867C186.416 300.661 183.599 300.072 180.597 299.514C179.305 298.949 177.891 298.7 176.602 298.083C175.046 297.338 173.658 296.055 172.36 294.93C170.596 293.403 168.777 291.878 167.337 290.029C167.568 289.856 167.588 289.876 167.738 289.635C168.52 288.385 166.783 284.54 166.391 283.116C166.236 282.554 166.001 281.204 166.283 280.663L166.774 279.803C174.729 286.415 186.741 289.292 196.951 288.328C204.518 287.614 211.467 284.477 217.25 279.619Z" fill="#D3D2D2"/>
<path d="M131.69 138.203C132.856 136.321 135.113 134.607 136.832 133.233C147.487 124.713 161.04 118.842 174.267 115.762C186.012 113.026 198.778 112.395 210.656 114.717C215.663 115.695 220.45 117.246 225.188 119.124C229.375 120.784 233.471 122.648 237.296 125.043C241.661 127.777 246.168 131.049 249.949 134.554C251.184 135.699 252.212 137.034 253.433 138.174C253.748 138.468 253.903 138.75 254.097 139.132C257.195 141.429 259.887 144.099 262.386 147.032C263.65 148.515 264.805 150.192 266.225 151.522C267.019 151.806 267.838 152.939 268.349 153.598C271.414 157.543 273.449 162.152 275.911 166.47C277.713 169.63 279.847 172.521 282.282 175.216C284.088 177.214 285.921 179.178 287.891 181.014L294.354 186.745C296.143 188.3 298.503 190.075 299.562 192.221C300.606 194.337 301.183 196.973 301.771 199.256L304.224 208.439L305.429 212.353C305.653 213.03 306.014 213.841 306.091 214.54C305.211 213.199 304.345 211.844 303.318 210.609C302.282 209.364 301.102 208.217 300.126 206.925C299.41 205.975 298.844 204.928 298.201 203.929C297.794 203.951 297.782 203.886 297.457 204.168C294.731 198.629 292.248 193.643 287.949 189.089C287.012 188.096 285.848 186.841 284.65 186.177L285.459 200.212C285.584 201.524 285.746 202.877 286.016 204.166C286.158 204.844 286.485 205.597 286.439 206.286L285.976 205.473C284.247 202.582 281.081 201.066 277.918 200.265C274.093 199.297 269.942 199.277 266.033 199.523C256.415 200.128 246.355 202.751 238.066 207.779C233.545 210.521 229.914 214.051 228.645 219.319C228.108 221.549 228.346 223.695 228.878 225.903C230.226 231.497 233.33 236.761 236.31 241.626C231.711 237.634 226.871 234.014 221.963 230.417C217.53 227.168 212.405 222.674 206.963 221.459C204.429 220.893 201.948 221.161 199.772 222.617C195.27 225.632 193.129 231.733 192.226 236.809C191.751 231.911 188.985 226.087 185.488 222.572C183.849 220.926 181.801 219.942 179.463 219.96C177.51 219.976 175.735 220.663 174.03 221.556C168.93 224.23 164.23 228.313 159.708 231.879C155.572 235.139 151.318 238.242 147.625 242.016C147.994 240.775 149.518 239.106 150.233 237.954C152.364 234.515 154.034 231.156 155.237 227.289C156.037 224.723 156.628 222.129 156.18 219.429C155.48 215.22 152.068 211.479 148.721 209.096C145.883 207.076 142.585 205.602 139.358 204.329C129.786 200.551 118.6 198.451 108.352 200.221C104.425 200.899 100.486 202.148 98.1091 205.547L99.0131 186.999C98.0646 187.651 97.1016 188.889 96.3216 189.762C93.5786 192.835 91.0996 196.074 88.7651 199.466C87.9941 200.586 87.3581 201.892 86.5166 202.946L86.3691 203.118L85.992 203.094C83.232 205.564 80.6606 208.198 78.2245 210.992L74.9955 214.912L77.1445 206.697L79.6885 198.2C80.264 196.535 80.8115 194.813 81.7585 193.315C83.007 191.341 85.4511 189.882 87.3311 188.567C89.9096 186.763 92.5511 184.999 94.9806 182.996C97.5781 180.854 99.9036 178.361 102.164 175.872C107.389 170.114 110.572 162.886 114.688 156.34C115.761 154.636 116.829 152.634 118.219 151.181C122.119 146.053 126.106 141.552 131.69 138.203Z" fill="url(#paint17_linear_1201_3)"/>
<path d="M239.562 173.914C240.553 173.524 241.375 172.959 242.318 172.53C243.385 172.044 244.53 171.47 245.491 170.797L245.656 170.675L245.688 171.066C244.691 171.734 242.767 172.403 242.063 173.282L242.256 173.443C242.084 173.813 241.888 174.015 241.593 174.293L241.592 174.447L241.064 174.71C239.945 174.857 238.884 175.344 237.75 175.406L237.679 175.261C238.187 174.585 238.832 174.298 239.562 173.914Z" fill="#393B46"/>
<path d="M245.688 171.066C248.983 169.255 251.599 167.411 255.375 166.587C260.394 165.493 264.1 166.851 268.683 168.666C269.914 169.154 271.349 169.501 272.469 170.194L273.183 170.334C272.551 170.723 271.762 170.7 271.061 170.929C269.314 171.501 267.662 172.342 265.914 172.913C264.684 173.315 263.189 173.399 262.033 173.926C261.848 174.011 261.637 174.233 261.493 174.366C260.554 174.619 259.494 174.516 258.523 174.502L251.491 174.214L241.064 174.71L241.592 174.447L241.593 174.294C241.888 174.015 242.084 173.813 242.256 173.443L242.063 173.282C242.767 172.403 244.691 171.734 245.688 171.066Z" fill="#747373"/>
<path d="M242.256 173.443C243.925 172.805 245.937 172.556 247.705 172.351C252.461 171.799 257.21 172.086 261.95 171.599C265.503 171.235 268.876 170.099 272.469 170.194L273.183 170.334C272.551 170.723 271.762 170.699 271.061 170.929C269.314 171.501 267.662 172.342 265.914 172.913C264.684 173.315 263.189 173.399 262.033 173.926C261.848 174.011 261.637 174.233 261.493 174.366C260.554 174.619 259.494 174.516 258.523 174.502L251.491 174.214L241.064 174.71L241.592 174.447L241.593 174.294C241.888 174.015 242.084 173.813 242.256 173.443Z" fill="#2A2B36"/>
<path d="M224.281 183.138C225.457 182.899 226.311 181.955 227.214 181.205C230.384 178.571 233.082 175.678 235.957 172.743C236.84 171.843 238.976 169.733 240.243 169.726C240.268 170.256 240.337 170.823 240.235 171.345C240.043 172.331 240.014 172.948 239.562 173.914C238.832 174.298 238.187 174.585 237.679 175.261L237.75 175.406C238.884 175.344 239.945 174.857 241.064 174.71L251.491 174.214L258.523 174.502C259.494 174.516 260.554 174.619 261.493 174.366C262.87 174.248 264.329 174.148 265.667 173.807C266.589 173.572 267.459 173.134 268.37 172.852C266.056 175.074 264.043 177.533 261.825 179.842L253.821 187.566C248.773 192.26 243.206 197.593 236.531 199.747C232.65 201 228.506 201.098 224.465 201.01L220.219 200.913C219.908 200.916 219.161 200.892 218.909 201.022C218.164 201.407 217.284 202.333 216.675 202.911L208.395 212.448L205.455 216.599C205.845 215.115 206.579 213.613 207.148 212.182C207.232 209.824 209.091 206.818 209.962 204.585C210.815 202.403 211.52 200.223 211.909 197.909C212.102 196.764 212.121 195.525 212.093 194.366C212.08 193.811 211.884 192.776 212.081 192.282C212.201 191.98 212.591 191.574 212.79 191.297C214.851 191.004 216.428 190.228 218.203 189.208C220.563 187.474 222.442 185.402 224.281 183.138Z" fill="#030713"/>
<path d="M212.79 191.297C214.851 191.004 216.428 190.228 218.203 189.208C217.834 191.931 216.775 194.493 215.67 196.992C213.391 202.142 210.426 207.009 207.629 211.888L207.148 212.182C207.232 209.824 209.091 206.818 209.962 204.585C210.815 202.403 211.52 200.223 211.909 197.909C212.102 196.764 212.121 195.525 212.093 194.366C212.08 193.811 211.884 192.776 212.081 192.282C212.201 191.98 212.591 191.574 212.79 191.297Z" fill="#2A2B36"/>
<path d="M252.301 176.103L254.2 175.969C253.405 182.424 250.848 188.429 246.094 192.981C239.104 199.674 231.217 200.132 222.064 199.884L219.783 199.847C222.178 195.798 224.11 191.528 227.028 187.802C230.312 183.607 234.356 180.581 239.344 178.729C243.427 177.214 247.994 176.628 252.301 176.103Z" fill="#0090F9"/>
<path d="M111.4 171.072C111.002 170.895 111.144 171.034 110.953 170.677C113.083 169.859 114.95 168.574 116.997 167.6C122.103 165.17 127.515 165.418 132.721 167.312L132.887 167.094C134.802 168.021 136.443 169.187 138.281 170.207L139.435 170.985L140.362 169.187L141.563 170.099L146.439 174.45C148.139 175.827 149.999 176.87 151.784 178.111L156.258 181.248C157.179 181.869 158.064 182.585 159.195 182.713C161.683 185.36 164.221 187.969 167.37 189.83C167.895 192.747 168.508 195.787 169.522 198.575C170.765 201.995 172.579 205.204 174.394 208.344C176.095 211.287 178.098 214.341 179.111 217.589L164.917 201.008C164.23 201.176 163.557 201.231 162.853 201.28C158.157 201.613 152.678 201.696 148.08 200.556C143.288 199.368 138.869 196.563 135.006 193.556C129.634 189.374 124.696 184.421 119.966 179.524C117.737 177.216 115.704 174.618 113.289 172.509L113.261 172.513C112.58 172.073 111.971 171.651 111.4 171.072Z" fill="#030713"/>
<path d="M111.4 171.072C111.002 170.895 111.144 171.034 110.953 170.677C113.083 169.859 114.95 168.574 116.997 167.6C122.103 165.17 127.515 165.418 132.721 167.312L132.887 167.094C134.802 168.021 136.443 169.187 138.281 170.207L139.435 170.985L139.626 171.142C139.948 171.398 140.278 171.56 140.624 171.772C141.201 172.125 141.718 172.552 142.312 172.899C143.28 173.465 143.843 173.988 144.488 174.892C138.16 174.139 131.869 174.584 125.535 174.285L121.164 173.908C120.404 173.81 118.987 173.418 118.305 173.683L118.509 174.059L118.219 174.363C116.731 173.456 115.27 172.905 113.627 172.34L113.289 172.509L113.261 172.513C112.58 172.073 111.971 171.651 111.4 171.072Z" fill="#747373"/>
<path d="M132.721 167.312L132.887 167.094C134.802 168.021 136.443 169.187 138.281 170.207L139.435 170.985L139.626 171.142C139.948 171.398 140.278 171.56 140.624 171.772C141.201 172.125 141.718 172.552 142.312 172.899C143.28 173.465 143.843 173.988 144.488 174.892C138.16 174.139 131.869 174.584 125.535 174.285L121.164 173.908C120.404 173.81 118.987 173.418 118.305 173.683L118.509 174.059L118.219 174.363C116.731 173.456 115.27 172.905 113.627 172.34L113.289 172.509L113.261 172.514C112.58 172.073 111.971 171.651 111.4 171.072C113.316 171.524 115.394 171.514 117.357 171.572L129.095 171.7C132.419 171.732 136.231 171.667 139.414 172.723L143.163 174.091C142.626 173.521 141.833 173.098 141.188 172.657L137.508 170.077L132.721 167.312Z" fill="#2A2B36"/>
<path d="M129.033 177.091L140.813 178.661C148.604 180.456 154.667 184.407 158.742 191.403C160.358 194.177 161.638 197.104 163.348 199.829C153.958 200.401 145.485 200.2 137.759 194.085C132.344 189.798 129.821 183.824 129.033 177.091Z" fill="#0090F9"/>
<path d="M131.69 138.203C135.718 137.421 139.668 137.895 143.643 138.772C148.838 139.916 153.67 141.638 158.105 144.634C161.026 146.607 163.481 148.981 165.829 151.595C166.856 152.738 167.972 154.337 169.189 155.233C167.717 152.865 166.679 150.385 165.396 147.92C163.445 144.172 160.991 141.096 157.917 138.218C160.961 139.345 164.137 140.353 166.985 141.928C175.569 146.673 181.785 156.084 185.826 164.828C187.931 169.381 188.992 173.741 189.442 178.723C187.887 177.332 186.637 175.697 185.29 174.112L180.116 168.427C182.192 171.584 183.591 174.932 184.224 178.666C184.461 181.618 184.193 184.805 182.161 187.153C180.65 188.898 178.733 189.922 176.531 190.516L176.192 190.609C173.174 191.403 170.217 190.952 167.37 189.83C164.221 187.969 161.683 185.36 159.195 182.713L156.317 178.69C154.542 175.947 153.113 173.043 151.728 170.089C150.415 167.287 149.347 164.662 148.986 161.566L148.67 161.436C148.743 164.833 149.097 168.302 149.839 171.618C149.242 171.139 148.769 170.429 148.282 169.832L145.111 165.887C140.131 159.751 135.019 153.918 130.927 147.121C126.872 146.513 123.518 148.783 120.123 150.547C119.555 150.843 118.833 151.376 118.219 151.181C122.119 146.053 126.106 141.552 131.69 138.203Z" fill="white"/>
<path d="M199.179 181.17L198.978 180.071C198.58 176.644 200.168 172.428 202.216 169.738L202.031 169.552L193.341 178.634C194.62 173.729 196.059 168.724 198.201 164.123C202.297 155.328 208.736 146.23 217.36 141.49C219.691 140.209 222.295 139.347 224.788 138.44L214.302 155.33C215.687 154.471 217.074 152.546 218.247 151.325C222.532 146.861 226.996 143.399 232.751 140.986C238.869 138.421 247.803 136.566 254.097 139.132C257.195 141.429 259.887 144.099 262.386 147.032C263.65 148.515 264.805 150.192 266.225 151.522L265.762 151.702C262.161 149.531 257.802 147.604 253.615 146.953C249.634 153.95 244.221 159.423 238.911 165.368L232.693 172.783L234.194 158.603L233.518 160.346C233.04 164.299 231.751 167.71 230.22 171.353C228.477 175.501 226.575 179.261 224.281 183.138C222.442 185.402 220.563 187.474 218.203 189.208C216.428 190.228 214.851 191.004 212.79 191.297C209.856 191.433 207.28 190.966 204.745 189.437C201.699 187.601 200.004 184.557 199.179 181.17Z" fill="white"/>
<defs>
<linearGradient id="paint0_linear_1201_3" x1="84.652" y1="23.9414" x2="84.9829" y2="27.3514" gradientUnits="userSpaceOnUse">
<stop stop-color="#767476"/>
<stop offset="1" stop-color="#898989"/>
</linearGradient>
<linearGradient id="paint1_linear_1201_3" x1="265.089" y1="79.7507" x2="275.608" y2="60.1495" gradientUnits="userSpaceOnUse">
<stop stop-color="#1E202A"/>
<stop offset="1" stop-color="#393839"/>
</linearGradient>
<linearGradient id="paint2_linear_1201_3" x1="109.814" y1="36.1338" x2="100.181" y2="61.217" gradientUnits="userSpaceOnUse">
<stop stop-color="#8F9091"/>
<stop offset="1" stop-color="#C2C0BF"/>
</linearGradient>
<linearGradient id="paint3_linear_1201_3" x1="274.483" y1="38.1413" x2="286.569" y2="55.543" gradientUnits="userSpaceOnUse">
<stop stop-color="#999799"/>
<stop offset="1" stop-color="#C2C1C0"/>
</linearGradient>
<linearGradient id="paint4_linear_1201_3" x1="326.486" y1="70.234" x2="289.993" y2="105.859" gradientUnits="userSpaceOnUse">
<stop stop-color="#25272F"/>
<stop offset="1" stop-color="#43434F"/>
</linearGradient>
<linearGradient id="paint5_linear_1201_3" x1="191.793" y1="48.5349" x2="192.118" y2="15.3879" gradientUnits="userSpaceOnUse">
<stop stop-color="#007CE2"/>
<stop offset="1" stop-color="#49CBFF"/>
</linearGradient>
<linearGradient id="paint6_linear_1201_3" x1="252.943" y1="61.133" x2="246.721" y2="70.284" gradientUnits="userSpaceOnUse">
<stop stop-color="#002C79"/>
<stop offset="1" stop-color="#004785"/>
</linearGradient>
<linearGradient id="paint7_linear_1201_3" x1="65.623" y1="205.841" x2="61.8538" y2="189.394" gradientUnits="userSpaceOnUse">
<stop stop-color="#031C45"/>
<stop offset="1" stop-color="#003974"/>
</linearGradient>
<linearGradient id="paint8_linear_1201_3" x1="255.056" y1="121.144" x2="225.627" y2="142.004" gradientUnits="userSpaceOnUse">
<stop stop-color="#003672"/>
<stop offset="1" stop-color="#1265A0"/>
</linearGradient>
<linearGradient id="paint9_linear_1201_3" x1="109.856" y1="339.795" x2="127.586" y2="245.236" gradientUnits="userSpaceOnUse">
<stop stop-color="#1F90E3"/>
<stop offset="1" stop-color="#54F9FF"/>
</linearGradient>
<linearGradient id="paint10_linear_1201_3" x1="196.49" y1="110.163" x2="196.559" y2="104.103" gradientUnits="userSpaceOnUse">
<stop stop-color="#0065B4"/>
<stop offset="1" stop-color="#1782CA"/>
</linearGradient>
<linearGradient id="paint11_linear_1201_3" x1="281.631" y1="318.837" x2="260.193" y2="260.119" gradientUnits="userSpaceOnUse">
<stop stop-color="#009BFF"/>
<stop offset="1" stop-color="#88FDFF"/>
</linearGradient>
<linearGradient id="paint12_linear_1201_3" x1="271.345" y1="285.892" x2="267.819" y2="216.063" gradientUnits="userSpaceOnUse">
<stop/>
<stop offset="1" stop-color="#2B2D34"/>
</linearGradient>
<linearGradient id="paint13_linear_1201_3" x1="191.852" y1="252.138" x2="191.704" y2="249.599" gradientUnits="userSpaceOnUse">
<stop stop-color="#CCCBC9"/>
<stop offset="1" stop-color="#F0EFF6"/>
</linearGradient>
<linearGradient id="paint14_linear_1201_3" x1="192.329" y1="241.161" x2="191.812" y2="246.114" gradientUnits="userSpaceOnUse">
<stop stop-color="#353536"/>
<stop offset="1" stop-color="#504F50"/>
</linearGradient>
<linearGradient id="paint15_linear_1201_3" x1="178.726" y1="251.545" x2="250.191" y2="286.283" gradientUnits="userSpaceOnUse">
<stop stop-color="#7E7C7C"/>
<stop offset="1" stop-color="white"/>
</linearGradient>
<linearGradient id="paint16_linear_1201_3" x1="253.362" y1="276.995" x2="245.638" y2="266.691" gradientUnits="userSpaceOnUse">
<stop stop-color="#606367"/>
<stop offset="1" stop-color="#E8DDD3"/>
</linearGradient>
<linearGradient id="paint17_linear_1201_3" x1="185.932" y1="113.801" x2="191.478" y2="241.21" gradientUnits="userSpaceOnUse">
<stop stop-color="#393A3E"/>
<stop offset="1" stop-color="#5A5959"/>
</linearGradient>
</defs>
</svg>
