<svg width="144" height="145" viewBox="0 0 144 145" fill="none" xmlns="http://www.w3.org/2000/svg">
<path d="M28.0197 0.523608L46.5478 14.439C47.5552 15.1712 48.5284 15.7354 49.689 16.1954C49.7754 16.2296 50.1075 16.3914 50.1822 16.3859C50.2431 16.3814 51.0746 15.5805 51.1995 15.4731L53.5893 13.522L60.2058 8.33736C62.0376 6.93049 63.8363 5.47267 65.8947 4.39369C67.173 3.72352 68.5919 3.29368 70.022 3.08793C71.982 2.8059 74.2522 2.88503 76.1284 3.55746C78.891 4.54768 81.3605 6.66707 83.6378 8.45929L90.2579 13.8044L93.6595 16.5348C94.2668 16.3482 94.7972 16.0796 95.3338 15.7478C96.9008 14.7793 98.3553 13.5432 99.8177 12.4247L108.45 5.73264C110.817 3.90142 113.236 2.08531 115.785 0.507507L119.045 7.39998C120.081 9.85992 120.947 12.3726 121.531 14.9767C122.389 18.8064 122.655 22.6876 122.627 26.6011C122.598 30.5827 122.235 34.6493 121.356 38.5359C120.676 41.5424 119.662 44.4921 118.476 47.339C118.611 48.5334 118.933 49.7175 119.213 50.8855C120.256 55.2366 121.626 59.9776 124.289 63.6576C125.478 65.3007 126.93 66.6189 128.482 67.9122L131.338 70.1886C133.09 71.6619 134.675 73.2677 135.922 75.1919C139.778 81.1423 138.508 88.5346 137.058 95.0222C137.327 95.078 137.709 94.9955 137.983 94.9509C139.936 94.6334 142.658 94.0256 143.863 92.3363L143.93 92.2408C143.609 93.6515 143.46 95.07 142.951 96.4377C141.769 99.6154 139.531 102.845 136.706 104.817C135.995 105.313 135.223 105.672 134.437 106.032L136.894 105.908C137.895 105.864 138.74 105.897 139.678 105.507L134.752 110.401C130.763 114.186 126.321 117.254 121.401 119.732L115.376 122.524L107.078 125.689C104.059 126.883 101.147 128.24 98.2591 129.718L80.732 139.225L75.5713 142.246C74.4679 142.902 73.2665 143.746 72.0618 144.187C71.2624 143.93 70.4462 143.358 69.7036 142.963L65.1139 140.559L53.7518 134.79L43.2171 129.155L29.52 122.47C25.2711 120.454 20.8707 118.42 16.9078 115.888C13.8384 113.926 10.9374 111.657 8.24801 109.212C6.98611 108.065 5.81635 106.768 4.51018 105.681L4.41836 105.605C5.95543 106.13 7.56571 106.01 9.15783 105.813L7.56966 104.788C5.25996 103.153 3.41749 101.158 1.99664 98.7167C1.43996 97.7602 0.933957 96.7648 0.626591 95.6998C0.294815 94.55 0.203847 93.347 0.00762939 92.17L0.162931 92.3713C0.654597 92.9769 1.23221 93.2617 1.93473 93.5656C3.46163 94.2263 5.20089 94.5858 6.85109 94.7751L6.02399 91.4511C5.63885 89.7013 5.39323 87.8732 5.32612 86.0809C5.24883 84.0173 5.39015 81.9201 5.94782 79.9235C7.0199 76.0855 9.57178 72.9406 12.5505 70.3514C14.6856 68.4954 16.879 66.7945 18.6883 64.5994C21.5893 61.0796 23.2897 56.8712 24.434 52.5092L25.2239 49.0545C25.3365 48.5381 25.5647 47.8635 25.5202 47.338C25.488 46.9606 25.2958 46.5797 25.1496 46.2343L24.4346 44.4807L23.3546 41.0857C22.0074 36.2079 21.4199 31.3744 21.3849 26.3226C21.3659 23.5457 21.4803 20.7886 21.9109 18.0411C22.6172 13.5354 23.9424 9.33778 25.8221 5.18547C26.5282 3.62606 27.4568 2.14021 28.0197 0.523608Z" fill="#030713"/>
<path d="M28.3575 10.7208C28.633 9.76139 29.2286 8.76242 29.6845 7.87094L29.7808 7.90911L29.9508 8.32083L29.9176 8.4681C29.8652 8.71357 29.863 8.96324 29.8551 9.21308L29.7969 9.24549C29.4118 9.47045 29.0362 10.1711 28.7194 10.5352L28.738 10.4141C28.748 10.295 28.7603 10.3254 28.7013 10.2655L28.6415 10.4039C28.5718 10.5589 28.5005 10.625 28.3575 10.7208Z" fill="url(#paint0_linear_1202_83)"/>
<path d="M44.8853 15.7406C45.5906 16.1615 46.3988 16.6988 47.2012 16.9021L46.7424 21.7866C46.6902 22.6796 46.7194 23.6145 46.5468 24.4935C46.0177 24.1267 45.4603 23.7487 44.9987 23.3009C45.0827 23.1793 45.1046 23.1059 45.1135 22.9581C45.1652 22.0873 45.0136 21.1998 45.0009 20.3284C44.9789 18.8343 45.16 17.2068 44.8853 15.7406Z" fill="#2A2B36"/>
<path d="M5.24158 99.5604C4.35525 98.5583 3.64737 97.4888 3.01019 96.3186C4.85472 96.8786 6.6787 97.2763 8.61442 97.3268L8.84023 97.4569L8.83715 97.5864C8.82944 98.6098 9.3257 99.48 9.42543 100.474C9.44527 100.671 9.49137 100.878 9.39063 101.059L6.97518 100.235C6.4047 100.019 5.83081 99.7027 5.24158 99.5604Z" fill="#66D4FF"/>
<path d="M28.9698 44.083L29.3339 44.5809C29.6674 44.5788 30.5044 43.6295 30.7602 43.3618C30.9556 43.1572 30.781 43.3573 30.9165 43.1244C31.0587 42.8802 31.3549 42.7285 31.5124 42.4609L31.7545 42.2215L31.7549 42.1293C31.9171 41.9854 31.9992 41.908 32.1082 41.7238C32.1946 41.578 32.3182 41.5294 32.4062 41.3552C32.4465 41.2758 32.5251 41.197 32.5807 41.1296C32.6642 41.0287 32.7265 40.9297 32.7972 40.8208C32.8852 40.6855 32.8523 40.7355 32.952 40.6148C33.0358 40.5133 33.0985 40.4145 33.1696 40.305L33.6177 39.6425L33.755 39.41C33.8607 39.2158 34.0052 39.0438 34.1193 38.849L34.2124 38.72L34.2823 38.6141L34.6593 38.0936L34.7896 37.9277C34.6911 37.8579 34.6935 37.8453 34.5721 37.8343C34.3769 37.8168 33.9433 37.6403 33.7655 37.5406L32.973 37.1455C32.71 37.0272 32.5158 36.8267 32.2385 36.7298L32.3124 36.9142C32.1144 37.0706 32.085 37.0635 31.829 37.0803L32.0145 37.2825L31.9966 37.4484L32.1082 37.5221L32.164 37.4307C32.2739 37.5394 32.312 37.5271 32.3132 37.688C32.4004 37.8424 32.4949 37.9601 32.6103 38.0936C32.6103 38.3411 32.4933 38.3094 32.5358 38.6094L32.3503 38.7568L32.3499 38.849L32.2941 38.9412L32.2385 39.0511L32.1269 39.0516L32.1265 39.1619L31.9779 39.1991L31.9775 39.3094C31.8911 39.3094 31.9368 39.3204 31.8476 39.2545C31.7155 39.3943 31.6464 39.5136 31.4565 39.5678L31.4561 39.6779L31.3076 39.7888L31.3072 39.881L31.2518 39.9547L31.3441 40.0469V40.2311L31.2331 40.2861L31.1215 40.1943L31.01 40.1939C30.8942 40.0742 30.8907 40.0457 30.8235 39.8995L30.7679 39.8257L30.7117 39.7153H30.6372L31.0841 40.6366L31.1004 40.7034C31.1681 40.9715 31.5066 41.2996 31.4194 41.5573C31.304 41.4233 31.2361 41.3098 31.159 41.1522L29.7814 38.4252L29.7438 38.333L29.4459 37.6877L29.2969 37.3747L29.2596 37.3034C29.1662 37.1186 29.2882 37.3633 29.1855 37.0983L28.999 36.6557L28.7756 36.1397L28.6242 35.7043C28.534 35.3941 28.6572 35.7817 28.5152 35.4766C28.4506 35.3379 28.458 35.2447 28.3662 35.1081L28.3654 34.9606L28.2917 34.8869L28.2798 34.8309L27.9531 33.908C27.8762 33.7177 27.7707 33.3905 27.7695 33.1915L27.6959 33.1178L27.6818 33.0577C27.5389 32.4967 27.301 31.9527 27.1556 31.3878C27.1089 31.2074 27.0885 31.0896 27.1369 30.9068H27.1924L27.249 31.0171C27.2647 30.8064 27.2728 30.5964 27.3226 30.3904L27.471 30.4274C27.4925 30.5508 27.4853 30.6375 27.4913 30.759C27.5068 31.0678 27.7757 31.4888 27.9185 31.7611C28.937 33.7016 30.4672 35.3536 32.289 36.5818C33.1468 37.1601 34.0182 37.5911 35.0301 37.8363C33.5278 39.7168 32.4095 41.7926 30.706 43.5387C30.2773 43.9783 29.8386 44.4575 29.3255 44.7999C29.1476 44.5595 29.0383 44.3745 28.9698 44.083Z" fill="#2A2B36"/>
<path d="M34.5288 24.2126C36.8423 25.7327 39.0683 26.7417 41.9159 26.1653L42.5577 26.0122C42.7751 26.0002 43.0778 25.865 43.288 25.7958L44.9266 25.2104L45.6689 25.5322L40.6177 31.4214C40.4918 31.1032 40.3992 30.7596 40.2082 30.473C39.0198 28.6911 37.5123 27.2239 35.9627 25.7537C35.5787 25.3895 35.1348 25.0622 34.7701 24.6846C34.6446 24.5547 34.5844 24.3801 34.5288 24.2126Z" fill="#2A2B36"/>
<path d="M109.414 24.042C109.407 24.1138 109.412 24.3296 109.382 24.3829C109.255 24.6101 108.854 24.8853 108.658 25.0834C107.389 26.3651 105.97 27.5297 104.78 28.8837C104.046 29.7201 103.413 30.6159 102.879 31.5891C102.348 30.7792 98.3588 26.0527 98.3562 25.9106C98.5387 25.7482 98.7115 25.5629 98.9439 25.4744L101.678 26.1848C102.116 26.2837 102.574 26.2705 103.02 26.2658C105.31 26.2418 107.508 25.2216 109.414 24.042Z" fill="url(#paint1_linear_1202_83)"/>
<path d="M30.3197 9.02597C31.4339 10.7134 32.3917 12.5116 33.5536 14.1661C35.7504 17.2942 38.3336 19.755 41.248 22.2165L44.9266 25.2104L43.288 25.7958C43.0779 25.865 42.7752 26.0002 42.5577 26.0122L42.5472 25.8589C41.7082 25.6285 40.9274 24.7717 40.2908 24.2016C38.794 22.8614 37.3262 21.5 36.0551 19.9423C35.191 18.8836 34.5022 17.7301 33.7856 16.5733C32.5907 14.6443 31.4218 12.7606 30.6776 10.6077C30.4951 10.0795 30.2601 9.59152 30.3197 9.02597Z" fill="url(#paint2_linear_1202_83)"/>
<path d="M110.964 13.0914L113.893 7.66302L113.995 7.67051L114.108 7.90907L113.702 8.8267C113.641 8.947 113.635 8.99374 113.642 9.12407L113.516 9.28466L111.924 12.8508C110.332 17.1903 107.72 20.8468 104.299 23.9473L102.845 25.1398C102.413 25.466 101.976 25.718 101.678 26.1848L98.944 25.4744C100.64 24.2282 102.242 22.8543 103.795 21.4384C106.556 18.9194 109.016 16.2853 110.964 13.0914Z" fill="url(#paint3_linear_1202_83)"/>
<path d="M118.823 13.5849C119.695 16.014 120.031 18.8376 120.243 21.3974C120.859 28.8379 120.41 36.3877 117.554 43.3793L116.759 45.2068C116.641 45.4775 116.54 45.8608 116.379 46.1012L116.328 46.1525L114.456 44.4231C114.996 43.3954 115.484 42.376 115.922 41.3012C116.135 40.7781 116.398 40.2368 116.473 39.6748L116.465 39.662C116.465 39.5087 116.458 39.4124 116.529 39.2718C116.642 39.0481 116.749 38.8344 116.798 38.5866L116.852 38.3515L116.926 38.2778L116.926 38.1303C117.045 38.012 117.042 37.8492 117.075 37.688L117.149 37.6143L117.15 37.4669C117.28 37.2727 117.275 37.0919 117.336 36.8776C117.371 36.7532 117.39 36.5438 117.448 36.4349C117.535 36.2698 117.522 36.2545 117.522 36.0663C117.641 35.9181 117.656 35.8065 117.665 35.6217L117.671 35.4766C117.782 35.3658 117.745 35.3314 117.746 35.1818C117.866 35.0617 117.82 34.976 117.82 34.8132C117.931 34.7024 117.894 34.668 117.895 34.5184C117.974 34.4163 117.99 34.3729 118.008 34.2408L118.08 33.8182C118.115 33.6892 118.142 33.6525 118.131 33.5117L118.118 33.4127C118.253 33.2778 118.165 33.0871 118.285 32.8967C118.27 32.7565 118.257 32.6852 118.304 32.5466C118.355 32.3956 118.371 32.2612 118.397 32.1043C118.418 31.9773 118.437 31.8684 118.437 31.7391L118.434 31.6435C118.544 31.4983 118.466 31.2594 118.527 31.0723C118.574 30.9278 118.597 30.8419 118.583 30.6853L118.565 30.5378C118.689 30.4136 118.639 30.0586 118.639 29.8744L118.713 29.7645L118.714 29.5428C118.72 29.4315 118.734 29.3504 118.724 29.2364L118.714 29.1373C118.857 28.9944 118.788 28.4701 118.788 28.2527C118.932 28.039 118.861 27.7312 118.899 27.4788C118.95 27.1445 118.94 26.8221 118.937 26.4836C119.08 26.3407 119.012 25.8164 119.012 25.599C119.136 25.4748 119.086 25.1198 119.086 24.9356C119.346 24.5495 119.041 23.7503 119.309 23.3515L119.383 23.4613C119.381 23.1346 119.336 22.745 119.421 22.4297L119.532 22.4294C119.677 22.2515 119.681 22.2513 119.682 22.024H119.793L119.849 22.116L119.868 21.9134C119.773 21.7954 119.808 21.8577 119.757 21.7292L119.868 21.6741C119.98 21.6 119.983 21.4911 119.983 21.3724L119.98 21.2499L120.091 21.1395V20.6233C120.036 20.3964 120.021 20.2354 120.017 19.9968C119.865 19.7725 119.998 19.5429 119.942 19.2964C119.913 19.1665 119.904 18.9723 119.868 18.8541C119.803 18.6456 119.848 18.4537 119.793 18.2645C119.754 18.13 119.751 18.0265 119.719 17.896C119.656 17.6451 119.666 17.8664 119.655 17.6923C119.647 17.5763 119.65 17.4688 119.627 17.3535L119.458 16.5323L119.421 16.348C119.354 16.1569 119.381 15.9926 119.328 15.8136C119.229 15.4848 119.302 15.8415 119.252 15.5959L119.104 14.929C119.041 14.7597 119.031 14.5956 118.974 14.4314L118.918 14.3024C118.866 14.1183 118.863 13.9836 118.775 13.7992L118.823 13.5849Z" fill="url(#paint4_linear_1202_83)"/>
<path d="M30.0895 8.6375L30.3197 9.02598C30.2601 9.59153 30.4951 10.0795 30.6776 10.6077C31.4218 12.7606 32.5907 14.6443 33.7856 16.5733C34.5022 17.7301 35.191 18.8836 36.055 19.9424C37.3262 21.5 38.794 22.8614 40.2908 24.2016C40.9274 24.7717 41.7082 25.6285 42.5472 25.8589L42.5577 26.0122L41.916 26.1653C39.0683 26.7417 36.8424 25.7327 34.5288 24.2126L34.1703 23.9192C33.6551 23.5217 33.1558 23.0739 32.692 22.6179C32.4004 22.3311 31.8578 21.5574 31.5015 21.4361L31.4524 21.409C31.3475 21.2438 31.2786 21.1338 31.2903 20.9335C31.2967 20.8214 31.3044 20.7662 31.2673 20.6541C30.9392 19.6681 30.567 18.7089 30.2907 17.7036C29.7792 15.843 29.4664 13.929 29.1707 12.025C29.2217 11.7185 29.467 11.0303 29.6311 10.7826C29.7637 10.5821 29.8223 10.5003 29.8857 10.2636C29.9373 9.75816 29.8152 9.06979 30.0895 8.6375Z" fill="white"/>
<path d="M29.1707 12.025C29.2217 11.7185 29.467 11.0303 29.6311 10.7826C29.7637 10.5821 29.8223 10.5003 29.8857 10.2636C29.8525 11.5909 29.8599 12.7709 30.0787 14.0902C30.4686 16.4407 31.3759 18.78 32.4477 20.9034C32.8581 21.7164 33.3387 22.6586 33.9469 23.3408C34.1193 23.5343 34.1473 23.665 34.1703 23.9191C33.6551 23.5217 33.1558 23.0739 32.692 22.6179C32.4004 22.3311 31.8578 21.5574 31.5015 21.4361L31.4524 21.409C31.3475 21.2438 31.2786 21.1338 31.2903 20.9335C31.2967 20.8214 31.3044 20.7662 31.2673 20.6541C30.9392 19.6681 30.567 18.7089 30.2907 17.7036C29.7792 15.843 29.4664 13.929 29.1707 12.025Z" fill="#D3D2D2"/>
<path d="M65.1849 7.35231C66.5691 6.24154 68.5152 5.44287 70.2752 5.19478C73.1465 4.79001 75.7307 5.3201 78.0721 7.0539C78.6743 7.35282 79.2326 7.80967 79.7711 8.20868L82.7482 10.4972L90.2853 16.595C90.6273 16.88 91.0255 17.1 91.3588 17.3843C90.7449 17.551 90.1214 17.7145 89.5416 17.98C89.3634 17.859 89.254 17.6085 89.145 17.4258C88.975 16.6137 84.0831 13.1418 83.0709 12.3743L79.7288 9.84375C78.9859 9.32693 78.1451 8.90324 77.4249 8.37575L77.3243 8.30025C76.6656 8.00002 76.0064 7.70336 75.3037 7.51768C72.9494 6.89564 70.1334 7.05822 67.8496 7.88997L65.3516 9.03052L65.26 9.10093C64.665 9.551 63.9547 9.89684 63.3362 10.3283L58.8662 13.7174L56.5577 15.5744C55.7308 16.226 54.87 16.9346 54.2111 17.7493L54.0296 17.9281C53.4822 17.6136 52.9749 17.3867 52.3707 17.2001L60.7285 10.5852C62.1391 9.49708 63.6158 8.19194 65.1849 7.35231Z" fill="url(#paint5_linear_1202_83)"/>
<path d="M114.108 7.90907C116.252 10.9749 117.865 14.6655 118.155 18.4038C118.183 21.4544 117.91 24.4118 116.99 27.3406C116.799 27.9504 116.586 28.5482 116.337 29.1375C116.216 29.4233 115.843 30.0378 115.822 30.3238L114.796 32.1485C113.383 34.3 111.209 36.316 108.6 36.8638C108.289 36.6763 108.032 36.4117 107.766 36.1674C108.611 36.141 109.423 35.9964 110.196 35.6457L109.912 35.6437C107.837 35.6074 105.676 34.0541 104.295 32.6315C104.825 31.41 105.633 30.309 106.408 29.2307C107.518 27.6848 108.635 26.2157 109.934 24.8165C110.415 24.2983 110.875 23.7473 111.434 23.3086C111.358 23.765 111.047 24.0589 110.823 24.452C110.626 24.7972 110.461 25.1882 110.319 25.5587C109.985 26.4321 109.752 27.356 109.498 28.2549C109.205 29.2926 108.892 30.3356 108.685 31.3935L109.363 31.1661C111.689 30.267 113.939 28.0402 114.914 25.772C116.251 22.6633 115.977 18.7586 115.35 15.5132C115.189 14.6754 115.023 13.7528 114.695 12.9632C114.528 12.5618 114.494 12.1293 114.42 11.704C114.264 10.8166 113.979 10.0579 113.516 9.28467L113.642 9.12407C113.635 8.99374 113.641 8.947 113.702 8.8267L114.108 7.90907Z" fill="#B7B6B6"/>
<path d="M113.516 9.28467C113.979 10.0579 114.264 10.8166 114.42 11.704C114.494 12.1293 114.528 12.5618 114.695 12.9632C115.023 13.7528 115.189 14.6754 115.35 15.5132C115.977 18.7586 116.251 22.6633 114.914 25.772C113.939 28.0402 111.689 30.267 109.363 31.1661L108.685 31.3935C108.892 30.3356 109.205 29.2926 109.498 28.2549C109.752 27.356 109.985 26.4321 110.319 25.5587C110.461 25.1882 110.626 24.7972 110.823 24.4521C111.047 24.0589 111.358 23.765 111.434 23.3086L112.682 21.6354L112.544 21.5829C112.24 21.8426 111.945 22.1117 111.602 22.3195L109.414 24.042C107.508 25.2216 105.31 26.2418 103.02 26.2658C102.574 26.2705 102.116 26.2837 101.678 26.1848C101.976 25.718 102.413 25.466 102.845 25.1399L104.299 23.9473C107.72 20.8468 110.332 17.1903 111.924 12.8508L113.516 9.28467Z" fill="white"/>
<path d="M111.602 22.3195C111.894 21.7243 112.329 21.2199 112.624 20.6296C113.786 18.3026 114.2 15.8872 114.466 13.3257L114.542 13.3246C114.434 14.8253 114.657 16.2834 114.331 17.7821C114.114 18.7761 113.769 19.6811 113.304 20.5865C113.124 20.9382 112.941 21.3335 112.682 21.6354L112.544 21.5829C112.24 21.8426 111.945 22.1117 111.602 22.3195Z" fill="#B7B6B6"/>
<path d="M31.5817 45.071C31.7428 45.4384 31.5553 46.0253 31.4898 46.4124C30.9878 49.3841 29.9928 52.1603 28.8793 54.9541L23.6577 66.4206C22.3586 68.0818 21.1132 69.939 19.4839 71.2994C18.5411 72.0867 17.4316 72.6782 16.4164 73.3705C14.4078 74.7402 12.4842 76.574 11.5219 78.8284C11.0542 79.9237 10.7928 81.0705 10.5016 82.2186L9.57477 86.9259L9.14015 89.9766C9.09576 90.2935 9.08909 90.804 8.96882 91.0934C8.94626 91.1478 8.89031 91.1814 8.85106 91.2255L8.58862 91.2105C8.09566 88.9975 7.6957 86.8826 7.69489 84.6044C7.69389 81.8373 8.25114 79.4097 9.6684 77.0143C10.8893 74.9507 12.6182 73.1924 14.4385 71.6387C15.6712 70.5867 16.9779 69.6189 18.1649 68.5148C19.5757 67.2029 20.7926 65.7249 21.8308 64.1091C23.3356 61.7674 24.4443 59.2546 25.3409 56.6306L27.0182 50.9576L27.4153 49.252C27.4528 49.0718 27.4808 48.7162 27.591 48.5685C27.741 48.3678 28.034 48.1681 28.2264 48.0046L29.8601 46.6939C30.4645 46.1851 31.022 45.6267 31.5817 45.071Z" fill="#66D4FF"/>
<path d="M111.769 44.8557L116.232 48.4976C116.51 48.7584 116.547 49.1647 116.626 49.5188L117.111 51.6777C117.868 54.844 118.763 57.9443 120.181 60.8913C121.308 63.2312 122.583 65.4029 124.412 67.2835C125.909 68.8232 127.656 70.0872 129.336 71.4199C133.741 74.9153 136.058 78.4243 136.045 84.1873C136.039 86.7063 135.61 89.3111 134.983 91.7474C134.925 91.6778 134.855 91.6168 134.81 91.5386C134.774 91.4759 134.765 91.2032 134.755 91.1303L134.599 90.0136L133.877 85.4176C133.66 84.0884 133.455 82.6391 132.933 81.3899C132.25 77.9525 129.805 74.921 126.97 72.9402C125.96 72.2349 124.789 71.6818 123.892 70.8391C123.025 70.0245 122.31 69.0815 121.584 68.1466L118.654 64.082C118.494 63.4182 118.064 62.7756 117.76 62.1625L116.226 58.9128C115.212 56.6226 114.43 54.2158 113.679 51.8304L111.96 46.0418C111.903 45.8317 111.678 45.2807 111.693 45.0961C111.699 45.0124 111.744 44.9359 111.769 44.8557Z" fill="#66D4FF"/>
<path d="M118.775 13.7992C118.687 13.7747 118.525 13.748 118.452 13.6936L118.359 13.6022L118.285 13.6571C118.198 13.6003 118.251 13.6207 118.117 13.6198C118.117 13.6948 118.14 13.7683 118.155 13.8417L118.287 14.3416L118.341 14.6157L118.378 14.8C118.445 14.992 118.402 15.1405 118.452 15.316C118.505 15.5001 118.521 15.6016 118.527 15.7951C118.674 16.0128 118.601 16.4834 118.601 16.7534C118.743 16.963 118.676 17.3802 118.676 17.638C118.8 17.8223 118.808 18.8992 118.75 19.149C118.684 19.4389 118.668 19.6748 118.657 19.9783L118.49 19.96C118.486 19.8154 118.463 19.6524 118.52 19.5176L118.553 19.4438C118.649 19.1164 118.604 18.6376 118.603 18.2946C118.598 16.1636 118.258 14.1365 117.455 12.1532C116.822 10.588 116.01 9.20689 115.092 7.79381C114.765 7.28967 114.302 6.44582 113.727 6.20113C113.027 7.00866 112.576 7.87854 112.038 8.79235L109.45 13.1673C108.303 14.9327 106.948 16.6463 105.455 18.1405C103.886 19.7116 102.124 21.0933 100.381 22.4663L97.211 24.9942C95.0287 23.1645 93.1846 20.7383 91.3275 18.5897C91.6897 18.4232 92.2612 18.3817 92.6687 18.29C93.978 17.9952 95.2691 17.6897 96.4797 17.0984C97.7089 16.498 98.8335 15.7306 99.9549 14.9557L104.884 11.3311L114.69 3.8183C115.169 5.16488 115.916 6.39106 116.536 7.67467C117.445 9.55488 118.205 11.5921 118.824 13.5848L118.775 13.7992Z" fill="#2A2B36"/>
<path d="M29.3255 44.7999L27.5678 46.2683L26.4767 43.5566C24.8935 39.5474 24.0885 35.3223 23.7197 31.0458C23.1661 24.6284 23.6005 18.2859 25.5222 12.1019C26.4078 9.25184 27.8005 6.55001 29.007 3.8257L37.0767 10.4102C39.5641 12.3058 42.1427 14.2189 44.8853 15.7407C45.16 17.2068 44.9789 18.8343 45.0009 20.3284C45.0136 21.1998 45.1652 22.0873 45.1135 22.9581C45.1046 23.1059 45.0827 23.1793 44.9987 23.3009C40.8976 20.2771 36.7933 16.9058 33.9896 12.6123L31.1701 8.05597C30.7137 7.32674 30.2831 6.54909 29.7202 5.89512C27.7048 9.24012 26.1415 12.9174 25.4115 16.7534C25.2177 17.7727 25.028 18.7893 25.1045 19.8309L25.0612 19.8897C24.9976 19.9793 25.0198 19.9429 24.9762 20.052L24.79 20.1627C24.7896 20.3166 24.8296 20.3626 24.7152 20.4758C24.7152 20.6663 24.7499 20.7927 24.6407 20.9551C24.6407 21.2252 24.7126 21.695 24.567 21.9134L24.6407 21.9871C24.6407 22.1294 24.6733 22.139 24.5662 22.245C24.5662 22.4295 24.617 22.7844 24.4917 22.9086C24.4629 23.778 24.4178 24.6579 24.4734 25.5253C24.5068 26.0484 24.4329 26.5895 24.5297 27.1101L24.5747 27.5651C24.5894 27.7485 24.5771 27.6184 24.6167 27.8161C24.6425 27.9457 24.6405 27.9875 24.6234 28.1088C24.5994 28.2818 24.5886 28.4037 24.6969 28.5476L24.6957 28.6398C24.6957 28.7966 24.6768 29.0117 24.7714 29.1373C24.7666 29.3604 24.7553 29.533 24.8272 29.7455C24.9583 30.1325 24.8095 31.0707 25.0876 31.3487L25.0669 31.4662C25.0481 31.5999 25.0536 31.6648 25.0882 31.791L25.1621 31.8647C25.1625 32.0143 25.1257 32.0487 25.2365 32.1595L25.2216 32.2448C25.2022 32.4807 25.2995 32.6899 25.3486 32.9151L25.373 33.1408C25.3841 33.2615 25.4223 33.3376 25.46 33.4494C25.5214 33.632 25.487 33.5172 25.4979 33.6708C25.5093 33.8294 25.5371 33.8667 25.609 34.0024L25.6465 34.1502L25.6685 34.2445C25.6914 34.3593 25.686 34.3187 25.6652 34.4447C25.7563 34.5895 25.7629 34.5516 25.7397 34.7395L25.8324 34.8502L25.8175 34.9237C25.7982 35.1175 25.9065 35.3383 25.9814 35.5134L25.9631 35.6241L26.0559 35.7347L26.0376 35.8452C26.0398 36.144 26.2255 36.498 26.2799 36.8035L26.3538 36.8772C26.3814 36.9763 26.3824 37.0331 26.3917 37.1351C26.4072 37.3038 26.4704 37.45 26.5772 37.5774L26.559 37.688L26.6007 37.7779C26.6567 37.9115 26.6748 38.0275 26.7065 38.1659C26.7568 38.3859 26.6813 38.0486 26.8007 38.3515L26.8386 38.6094C26.8617 38.6953 26.9143 38.7053 26.9497 38.7937C27.108 39.1896 27.1955 39.6553 27.3626 40.0687C27.4104 40.1868 27.3906 40.1387 27.4238 40.2784C27.4532 40.4029 27.4911 40.4538 27.5455 40.5629C27.615 40.7026 27.558 40.6126 27.6017 40.784L27.6818 40.9601C27.7356 41.0736 27.7791 41.1775 27.8125 41.298C27.8804 41.5445 27.7948 41.2768 27.9179 41.5211L27.9344 41.5903C27.9606 41.6941 28.0095 41.7637 28.0669 41.8528L28.0486 41.9634L28.0903 42.0255C28.1589 42.1346 28.2006 42.2406 28.2325 42.3642C28.2631 42.4834 28.3179 42.5875 28.3654 42.7006L28.3988 42.7863C28.5146 43.0754 28.65 43.3943 28.8117 43.6588C28.8939 43.7937 28.9414 43.9234 28.977 44.0758L28.9698 44.083C29.0383 44.3746 29.1476 44.5595 29.3255 44.7999Z" fill="#393B46"/>
<path d="M28.3575 10.7208C28.5005 10.6249 28.5718 10.5589 28.6415 10.4039L28.7013 10.2655C28.7603 10.3254 28.748 10.295 28.738 10.414L28.7194 10.5352C29.0362 10.1711 29.4118 9.47043 29.7969 9.24548L29.8551 9.21306C29.863 8.96322 29.8652 8.71356 29.9177 8.46809L29.9508 8.32082L30.0895 8.63749C29.8152 9.06978 29.9373 9.75815 29.8857 10.2636C29.8223 10.5003 29.7637 10.5821 29.631 10.7826C29.467 11.0303 29.2217 11.7185 29.1706 12.025C29.4664 13.929 29.7792 15.843 30.2907 17.7036C30.5669 18.7089 30.9392 19.6681 31.2673 20.6541C31.3044 20.7662 31.2967 20.8214 31.2903 20.9334C31.2786 21.1338 31.3475 21.2438 31.4524 21.4089L31.5015 21.4361L31.7926 21.8821C32.0288 22.1135 32.1994 22.4356 32.3877 22.7065C32.6489 23.0825 32.9399 23.4411 33.2305 23.7953L36.1549 27.2779C37.3914 28.8577 38.5596 30.6426 39.5518 32.3836L39.0514 32.9165C37.4623 34.3849 35.4145 35.3746 33.2096 35.2928L33.1357 35.2893C33.9773 35.7231 35.0653 35.8574 35.9978 35.8983C35.7388 36.316 35.4355 36.6458 35.0927 36.9973L34.0261 36.5699C30.4245 34.779 27.9291 31.8191 26.6819 28.0402C24.7652 22.233 25.6022 16.1134 28.3575 10.7208Z" fill="#B7B6B6"/>
<path d="M29.1707 12.025C29.4664 13.929 29.7792 15.843 30.2907 17.7036C30.567 18.7089 30.9392 19.6681 31.2673 20.6541C31.3045 20.7662 31.2967 20.8214 31.2903 20.9335C31.2786 21.1338 31.3476 21.2438 31.4524 21.409L31.5015 21.4361L31.7927 21.8821C31.7676 21.9668 31.7233 22.0478 31.7174 22.1359C31.6985 22.4085 32.3283 23.1958 32.4823 23.472C32.6819 23.8301 32.8342 24.2262 33.0001 24.6012L34.366 27.7493L35.7214 31.6994C32.9846 30.7202 30.442 28.8696 29.1409 26.2338C27.4715 22.8518 27.2315 18.353 28.1825 14.7268C28.427 13.7941 28.8561 12.9317 29.1707 12.025Z" fill="white"/>
<path d="M65.3516 9.03051L67.8496 7.88996C70.1334 7.05822 72.9494 6.89563 75.3037 7.51768C76.0064 7.70336 76.6656 8.00002 77.3243 8.30024L77.425 8.37574C78.1451 8.90324 78.9859 9.32692 79.7288 9.84374L83.0709 12.3743C84.0831 13.1418 88.975 16.6137 89.145 17.4258C89.254 17.6085 89.3634 17.859 89.5416 17.98L89.2393 18.1908L89.3027 18.2278C89.8993 18.5906 90.378 19.1563 90.841 19.6691L93.1257 22.2835L96.308 25.8795C98.0078 27.7587 99.6782 29.566 101.154 31.6296L104.769 36.3178L108.97 41.7798L110.733 43.7762C110.928 43.9794 111.717 44.6637 111.769 44.8557C111.744 44.9359 111.699 45.0124 111.693 45.0961C111.678 45.2807 111.903 45.8317 111.96 46.0418L113.679 51.8304C114.43 54.2158 115.212 56.6226 116.226 58.9128L117.76 62.1625C118.064 62.7756 118.494 63.4182 118.654 64.082L121.584 68.1466C122.31 69.0815 123.025 70.0245 123.892 70.8391C124.789 71.6818 125.96 72.2349 126.97 72.9402C129.805 74.921 132.25 77.9525 132.933 81.3899C133.455 82.6391 133.66 84.0884 133.877 85.4176L134.599 90.0136L134.755 91.1303C134.765 91.2032 134.774 91.4759 134.81 91.5386C134.855 91.6168 134.925 91.6778 134.983 91.7473L134.976 91.8093C134.797 93.2839 134.229 95.5193 132.98 96.4807L131.805 97.197L135.238 97.4024L140.499 96.6997C139.981 97.8168 139.091 98.9624 138.249 99.8545C136.776 101.761 134.772 103.202 132.767 104.513C132.088 104.958 131.395 105.453 130.676 105.831C129.601 106.435 128.333 106.842 127.092 106.908C126.64 106.932 126.021 106.872 125.603 107.019L130.817 107.434L132.613 107.508C132.93 107.516 133.329 107.48 133.633 107.558C131.812 109.222 130.107 110.999 128.145 112.51C125.699 114.393 123.11 115.939 120.389 117.395C118.502 118.405 116.575 119.385 114.599 120.218L101.281 125.637L96.2566 128.143L88.2321 132.24L80.9298 136.348C80.3469 136.879 79.4159 137.314 78.7315 137.735C76.5762 139.061 74.3771 140.493 72.1122 141.626C71.2621 141.302 70.4198 140.791 69.6158 140.365L65.2761 138.094L61.7846 136.306L56.0708 133.513L44.4334 127.213L26.3917 118.276L20.6164 115.388C19.6891 114.874 18.7883 114.278 17.9007 113.699C17.2359 113.266 16.5074 112.845 15.9089 112.324C13.8278 111.086 12.3125 109.207 10.4715 107.692L10.3976 107.632L18.8316 106.839C16.7115 106.47 14.6822 105.771 12.7022 104.945C11.7363 104.574 10.8068 104.023 9.93056 103.484C8.24748 102.447 6.42846 101.163 5.24158 99.5604C5.83081 99.7027 6.4047 100.019 6.97518 100.235L9.39063 101.059C9.49137 100.878 9.44527 100.671 9.42542 100.474C9.3257 99.48 8.82944 98.6098 8.83715 97.5864L8.84023 97.4569L8.61442 97.3268C9.8209 97.3313 10.9472 97.2395 12.1444 97.0919L11.4485 96.7323C9.73682 95.6758 9.00105 93.0209 8.5886 91.2105L8.85103 91.2255C8.89028 91.1814 8.94623 91.1478 8.9688 91.0934C9.08906 90.804 9.09573 90.2935 9.14012 89.9767L9.57475 86.9259L10.5015 82.2186C10.7928 81.0705 11.0542 79.9237 11.5218 78.8284C12.4842 76.574 14.4077 74.7402 16.4164 73.3705C17.4315 72.6782 18.541 72.0867 19.4839 71.2994C21.1132 69.939 22.3585 68.0818 23.6577 66.4206L28.8793 54.9541C29.9927 52.1603 30.9878 49.3841 31.4897 46.4124C31.5553 46.0253 31.7428 45.4384 31.5817 45.071C31.6413 44.9218 31.9388 44.6749 32.0554 44.5495L33.3284 43.1943C33.6563 42.7037 34.0843 42.2538 34.4627 41.7977L35.8961 39.9543L42.2407 31.7589L45.933 27.3853L52.7892 19.9325C53.1791 19.4788 54.0443 18.6741 54.1984 18.1171L54.0296 17.9281L54.2111 17.7493C54.87 16.9346 55.7308 16.226 56.5577 15.5744L58.8662 13.7174L63.3362 10.3283C63.9547 9.89683 64.665 9.55099 65.26 9.10093L65.3516 9.03051Z" fill="#005E94"/>
<path d="M89.145 17.4258C89.254 17.6085 89.3634 17.859 89.5416 17.98L89.2393 18.1908L89.3027 18.2278C89.8993 18.5906 90.378 19.1563 90.841 19.6691L93.1257 22.2835L96.308 25.8795C98.0078 27.7587 99.6782 29.566 101.154 31.6296C100.968 31.6024 100.795 31.5934 100.649 31.4664C100.167 31.0487 99.7841 30.5581 99.3559 30.0918L97.1392 27.7424C96.6659 27.2522 96.2016 26.7146 95.7068 26.2487C95.2011 25.7728 94.6497 25.2977 94.2297 24.7441C93.896 24.3046 93.4675 23.7251 93.0522 23.3733L92.9797 23.3135C92.9064 23.0943 92.6683 22.933 92.5138 22.7608L91.8438 21.9871C91.7433 21.8685 91.5656 21.7486 91.4901 21.6181C91.3614 21.3952 91.5608 21.612 91.3705 21.4237L90.3466 20.3207L90.2239 20.1995C90.1585 20.1236 90.146 20.0774 90.0598 20.0165L90.0004 19.9783C89.8801 19.6778 89.3384 19.2485 89.1066 18.9644L88.8393 18.6262L88.7718 18.5225C88.6709 18.3703 88.6973 18.3307 88.6973 18.154C88.8482 17.9291 88.9587 18.132 89.162 17.9701L89.1624 17.7117C89.1356 17.5747 89.1249 17.5734 89.145 17.4258Z" fill="url(#paint6_linear_1202_83)"/>
<path d="M13.7718 82.1278C14.0726 80.792 14.8652 79.4812 15.7735 78.461C16.9989 77.0843 18.5357 76.0812 20.128 75.1685C21.2895 74.5027 22.4721 73.8442 23.6865 73.2777L26.0938 72.253C26.8174 71.9373 27.7686 71.315 28.5458 71.2699C27.2527 72.438 25.4505 73.2246 23.9213 74.0469C21.7583 75.2104 19.6426 76.3902 17.687 77.8802C16.6406 78.6773 15.7526 79.6212 14.9453 80.6516C14.5804 81.1175 14.3025 81.8682 13.7718 82.1278Z" fill="url(#paint7_linear_1202_83)"/>
<path d="M115.69 71.6012L120.075 74.0943C124.027 76.2207 128.763 78.4656 130.04 83.1353C130.637 85.3205 130.206 87.881 129.116 89.8581L129.095 89.8915C129.053 89.3518 129.176 88.8279 129.222 88.2923C129.35 86.8044 129.327 85.2633 128.89 83.8233C127.458 79.0975 122.493 76.9608 118.649 74.4734C117.734 73.8816 116.46 73.1625 115.788 72.2966C115.594 72.046 115.656 71.8958 115.69 71.6012Z" fill="#002149"/>
<path d="M109.535 48.291L109.89 48.498C110.418 48.7795 110.844 49.2565 111.263 49.6711C112.135 50.534 113.07 51.4882 113.648 52.5782C113.792 52.8516 113.895 53.2412 114.02 53.5364L114.058 53.6477L114.133 53.6102L114.019 53.3684C113.954 53.2392 113.947 53.1647 113.946 53.0204L113.891 52.9467C113.802 52.8138 113.798 52.735 113.797 52.5782L113.724 52.5044L113.679 51.8304C114.43 54.2158 115.212 56.6226 116.226 58.9128L117.76 62.1625C118.064 62.7756 118.494 63.4182 118.655 64.082C118.282 63.8485 117.985 63.4117 117.689 63.0822C116.032 61.2372 114.672 59.2833 113.31 57.2221C112.516 56.0209 111.688 54.8067 110.993 53.5465L111.141 53.4238C111.17 52.9764 110.961 52.4482 110.839 52.014C110.478 50.7351 110.073 49.5081 109.535 48.291Z" fill="#0090F9"/>
<path d="M31.5817 45.071C31.6413 44.9218 31.9388 44.6749 32.0554 44.5495L33.3284 43.1943L33.4378 43.2739C33.2144 43.5177 32.9913 43.6948 32.8159 43.9722L32.6483 44.1381C32.4477 44.3313 31.942 44.7311 31.9031 44.9853C31.8868 45.092 31.8254 45.1976 31.7857 45.2964C31.735 45.4228 31.7589 45.518 31.7728 45.6491L31.7831 45.7574L31.791 45.8333L31.7366 45.9129C31.6564 46.0462 31.6969 46.0898 31.6613 46.2203L31.6055 46.3495C31.6286 46.5812 31.6423 46.6207 31.5676 46.8285L31.5493 46.9759L31.5211 47.0658C31.4472 47.3083 31.4647 47.5389 31.3714 47.7868C31.3227 47.9161 31.3102 48.0311 31.2995 48.1679C31.2867 48.3329 31.3022 48.2464 31.2331 48.4134C31.1688 48.5689 31.1477 48.6529 31.1769 48.8188L31.1306 48.9041C31.0361 49.0918 31.1171 48.9108 31.0837 49.1132L31.0097 49.3348L31.0462 49.4454L30.9717 49.519C30.9038 49.6149 30.9058 49.7055 30.8972 49.8138L30.8049 50.1828L30.8812 50.261C30.9777 50.3673 31.025 50.4601 31.0837 50.5883L31.1862 50.6182C31.3205 50.6626 31.3453 50.7054 31.4566 50.7729C31.5871 50.8519 31.7068 50.8963 31.829 50.994C31.9873 50.994 31.9861 50.9747 32.1269 51.0677L32.2211 51.0571C32.3643 51.0435 32.3088 51.0453 32.4628 51.0671L32.5365 50.994L32.6111 51.1039L32.7607 50.9565L32.7595 50.8712C32.7752 50.6793 32.869 50.5042 32.9462 50.33L32.9097 50.1826L32.9842 50.1087C33.0541 50.0106 33.0559 49.8881 33.0769 49.777C33.1035 49.6369 33.1629 49.5298 33.2259 49.4085L33.2821 49.2241L33.58 48.487C33.6448 48.2947 33.7576 48.1192 33.8404 47.9346L34.1379 47.455L34.1383 47.3449L34.1874 47.2847C34.2664 47.1806 34.2388 47.2177 34.2968 47.1027C34.4859 46.7281 34.7529 46.3831 34.9576 46.0181C35.0025 45.9379 35.0562 45.8897 35.1066 45.7969C35.3253 45.3947 35.8048 44.7657 36.1124 44.4329C36.4207 44.0993 36.5778 43.8196 36.9611 43.5309L35.189 45.9772C33.4086 48.6316 32.5112 51.5603 32.1609 54.7159L32.1984 54.8084L32.3235 54.8436C31.8355 55.8636 31.2216 56.8298 30.6349 57.7973C29.7595 59.2399 28.8906 60.6621 27.8393 61.9903C26.9497 63.1139 25.9518 64.1191 24.9404 65.1327C24.5179 65.5561 24.1563 66.0807 23.6577 66.4206L28.8793 54.9541C29.9927 52.1603 30.9878 49.3841 31.4897 46.4124C31.5553 46.0253 31.7428 45.4384 31.5817 45.071Z" fill="#0090F9"/>
<path d="M66.3185 39.6134C70.4186 39.0625 74.5247 38.8602 78.623 39.5645L78.6842 39.5969C78.9508 39.7137 79.3164 39.7371 79.6042 39.7892L81.2855 40.1338C82.537 40.4092 83.8299 40.8345 85.0069 41.337C87.4295 42.3709 89.7905 43.7434 91.9924 45.1773C97.0793 48.4897 101.933 52.7712 105.232 57.881C106.139 59.2865 106.881 60.9345 107.562 62.4605C107.737 62.8526 107.828 63.0577 107.675 63.4793C106.592 61.8425 105.836 60.0038 104.706 58.3811C102.625 55.394 100.06 52.8807 97.3174 50.5002C95.1809 48.6456 93.0264 46.9335 90.5709 45.4966C89.5603 44.9053 88.5332 44.3335 87.4718 43.8354C86.8751 43.5554 86.2046 43.3404 85.6332 43.0208L85.5402 42.9675L85.7088 42.8847C85.5487 42.8712 85.4399 42.8476 85.2989 42.7743L85.1586 42.7006L84.3022 42.4057L84.3608 42.2258C84.5205 41.9778 85.0919 42.4244 85.3962 42.3689L81.774 41.0594C78.2498 39.9474 74.6572 39.6315 70.97 39.7483L68.7351 39.8957C68.5053 39.9219 68.2078 39.8751 67.9903 39.9356C67.7128 40.0129 67.4989 40.0107 67.2083 40.0093C67.0152 40.1318 66.766 40.0665 66.5375 40.1141C66.3268 40.1581 66.2412 40.152 66.0334 40.1068L66.0581 40.0347L66.4263 40.0107C66.5473 39.8908 66.7062 39.937 66.8732 39.937L66.9475 39.8633H67.4317C67.6278 39.7339 67.8256 39.8187 68.0514 39.7731C68.4554 39.6915 68.8465 39.7408 69.2567 39.7159C69.3804 39.5934 69.7075 39.6421 69.8897 39.6421C70.1952 39.4407 72.1635 39.6042 72.6829 39.5684C72.9679 39.7546 74.2385 39.6606 74.6379 39.6598L74.6157 39.5358C74.4782 39.4992 74.5046 39.5211 74.4121 39.4566L74.2095 39.3099C74.0051 39.1784 73.5346 39.2451 73.2922 39.2468C72.5792 39.2521 71.6375 39.1281 70.9563 39.2907C70.3676 39.4312 69.6922 39.2865 69.0708 39.4182C68.7937 39.4768 68.5589 39.431 68.2977 39.4841C67.9239 39.56 67.5024 39.5617 67.1465 39.6508C66.9838 39.6915 67.0569 39.6852 66.8863 39.6954L66.7848 39.6984L66.3185 39.6134Z" fill="url(#paint8_linear_1202_83)"/>
<path d="M17.1139 94.6428C16.8273 94.4201 16.6013 94.062 16.3826 93.7754C15.6292 92.788 14.8724 91.7008 14.4884 90.5098L14.4562 90.4072L14.303 89.8925C14.2397 89.5908 14.1973 89.4597 14.3632 89.2008C15.0398 90.4486 15.757 91.6306 16.611 92.7715L17.5416 93.943C17.6186 94.0366 17.8157 94.2214 17.8544 94.3299C22.2177 98.9172 27.4373 102.62 32.6644 106.171C41.9612 112.486 51.7717 118.249 62.1182 122.713C63.1517 123.036 64.1946 123.441 65.2672 123.615L66.2754 135.143C67.8608 136.284 69.6567 137.403 71.4407 138.214L71.3029 138.298C71.201 138.263 71.1003 138.233 71.0069 138.178L70.9324 138.123C70.7684 138.034 70.6127 137.982 70.4611 137.866L70.3924 137.809L70.2247 137.827C70.1459 137.711 70.1808 137.729 70.077 137.672L69.7407 137.496L69.4614 137.33L69.0994 137.124L68.7166 136.888L68.2511 136.612C68.1442 136.531 68.0975 136.47 67.9648 136.431L67.8786 136.408L67.8042 136.353C67.5906 136.258 67.747 136.384 67.5912 136.247C67.5259 136.19 67.4395 136.093 67.3573 136.059C67.1549 135.973 67.2913 136.081 67.1431 135.951C67.0766 135.893 67.0101 135.823 66.929 135.782C66.8095 135.723 66.7824 135.669 66.6869 135.616L66.5753 135.58C66.4541 135.513 66.3935 135.434 66.24 135.377L65.6438 135.579L65.5139 135.616L65.4765 136.316H65.4211L65.3842 136.206C65.2986 136.065 65.3097 136.091 65.3097 135.911L65.2352 135.838C65.2523 135.728 65.2574 135.655 65.234 135.544L65.2064 135.432C65.0107 134.536 64.5696 133.725 64.4161 132.807C64.2186 131.625 64.2423 130.388 64.1426 129.194C64.0421 127.992 63.8019 126.755 63.5358 125.578C63.4633 125.257 63.3926 124.852 63.2289 124.567C62.9467 124.075 62.3061 123.748 61.8394 123.454L54.958 120.207L39.7792 111.918L27.87 104.054C24.0361 101.331 19.9522 98.438 17.1139 94.6428Z" fill="url(#paint9_linear_1202_83)"/>
<path d="M110.992 53.5465C110.012 52.0484 108.884 50.6736 107.73 49.3051C105.262 46.378 102.495 43.4973 99.1946 41.4836C97.429 40.4066 95.5278 39.5488 93.6741 38.632L85.4764 34.3177L82.5738 32.6024L81.1372 31.8358C80.8535 31.6909 80.505 31.5692 80.268 31.3587L84.7531 32.4514C87.9435 33.2086 91.0096 34.2671 94.0221 35.5492C96.3255 36.5295 98.6226 37.6548 100.69 39.067C104.164 41.4409 107.328 44.729 109.535 48.291C110.073 49.5081 110.478 50.7351 110.839 52.014C110.961 52.4482 111.17 52.9764 111.141 53.4238L110.992 53.5465Z" fill="#66D4FF"/>
<path d="M36.9612 43.5309C38.1833 42.0619 39.4006 40.7471 40.9733 39.6321C43.3881 37.92 46.2465 36.7612 49.0059 35.7206L56.4173 33.1801L64.2467 30.9294C63.2736 31.5594 62.2138 32.03 61.2151 32.6158L56.8937 35.1961L52.3537 37.5396C48.9481 39.2001 45.275 40.5892 42.2393 42.8818C38.964 45.3554 36.4547 48.7926 34.1564 52.132C33.5405 53.0267 32.8781 53.9103 32.3236 54.8436L32.1984 54.8084L32.1609 54.7159C32.5113 51.5603 33.4086 48.6316 35.1891 45.9772L36.9612 43.5309Z" fill="#66D4FF"/>
<path d="M10.5015 82.2187C10.5662 82.793 10.5055 83.3501 10.5497 83.9184C10.617 84.7839 10.8499 85.6918 11.082 86.5284C11.2924 87.2868 11.5703 88.0959 11.9133 88.8067C12.749 90.5383 13.8666 92.0849 14.9317 93.6794C16.132 95.4763 17.3511 97.4899 18.8638 99.0428C19.6925 99.8934 20.6854 100.638 21.6145 101.378L24.8987 104.02L30.5246 108.682C31.7634 109.659 33.0847 110.529 34.388 111.418L40.1611 115.19L45.8925 118.402L54.8005 123.278L59.7706 125.717C60.7289 126.17 61.7649 126.575 62.6498 127.16C63.2992 127.59 63.5745 128.21 63.7241 128.945C64.0137 130.368 63.8858 131.714 63.8858 133.147L63.9887 135.261L63.3684 134.995C63.2037 134.932 63.0492 134.84 62.8887 134.768L62.5908 134.621L62.4601 134.547L61.1194 133.884C60.709 133.694 60.3321 133.464 59.9094 133.294C58.6664 132.795 57.5114 132.017 56.2597 131.525C55.9761 131.413 55.7231 131.211 55.4404 131.083C55.2539 130.998 55.1111 130.87 54.919 130.788L52.796 129.554C52.671 129.492 52.5707 129.419 52.4565 129.341C52.333 129.257 52.4361 129.328 52.2559 129.24L49.6117 127.729L49.4814 127.655C49.1257 127.449 48.7433 127.178 48.3646 127.028L45.7835 125.576C45.3123 125.295 44.7669 124.956 44.268 124.743L43.7466 124.448C43.6362 124.389 43.5663 124.347 43.4487 124.301L42.7783 123.932C42.6697 123.874 42.5934 123.834 42.4804 123.785C41.6679 123.434 40.9171 122.88 40.097 122.532L39.9663 122.458L39.886 122.424L39.5011 122.237L39.2028 122.052L38.849 121.868L38.3487 121.631L37.788 121.352L37.2746 121.095C37.1419 121.036 37.0299 120.965 36.8942 120.91C36.4145 120.717 35.9601 120.441 35.479 120.247L34.9155 119.965C34.7906 119.904 34.8428 119.924 34.7316 119.896C34.6244 119.87 34.5691 119.811 34.473 119.767L34.3618 119.731C34.2388 119.675 34.1385 119.6 34.0112 119.549C33.5836 119.379 33.151 119.111 32.7232 118.92L32.5365 118.809L32.4435 118.772C32.1315 118.628 31.8554 118.451 31.5314 118.33C31.3374 118.258 31.1711 118.139 30.9705 118.072C30.8522 118.033 30.7822 117.973 30.6746 117.924L30.5632 117.888L30.1159 117.685L29.8287 117.557L29.4211 117.369C28.9982 117.196 28.6052 116.957 28.1797 116.782L27.6583 116.561L26.7645 116.119L25.9452 115.75C25.837 115.702 25.7627 115.646 25.6473 115.603L24.8463 115.234L24.3249 115.013L23.6335 114.71C23.439 114.637 23.2819 114.527 23.0773 114.46C22.861 114.389 22.6803 114.266 22.4815 114.165L22.2578 114.091L21.739 113.85C21.5998 113.781 21.6449 113.803 21.4874 113.758C21.2699 113.697 21.4512 113.764 21.2524 113.631L20.6218 113.318C20.4885 113.251 20.6009 113.306 20.4335 113.244C20.101 113.121 19.7953 112.931 19.4652 112.802L19.321 112.728C19.2038 112.668 19.1135 112.634 18.9806 112.617L18.9063 112.543L18.8132 112.507C18.6558 112.444 18.522 112.349 18.3663 112.286L17.5287 111.917L16.1506 111.201C15.9046 111.079 15.6962 110.926 15.4431 110.811C15.3152 110.753 15.2126 110.678 15.0798 110.625C14.9759 110.584 14.9644 110.524 14.8841 110.479L14.7728 110.443L13.6179 109.742L13.5248 109.706L13.3002 109.593C13.1692 109.528 13.0941 109.521 12.9476 109.521L12.8731 109.447L12.7234 109.448C12.8129 109.755 13.4548 110.264 13.6924 110.517C13.8778 110.564 13.9099 110.627 14.0439 110.759C14.1207 110.835 14.087 110.799 14.1901 110.86C14.365 110.964 14.4791 111.134 14.6607 111.254L14.8469 111.402L15.1448 111.623C15.3368 111.761 15.5383 111.917 15.7425 112.035C15.8791 112.114 15.8958 112.194 16.0013 112.286L16.067 112.315L15.9089 112.324C13.8278 111.086 12.3125 109.207 10.4715 107.692L10.3976 107.632L18.8316 106.839C16.7115 106.47 14.6822 105.771 12.7023 104.945C11.7363 104.574 10.8068 104.024 9.93056 103.484C8.24748 102.447 6.42846 101.163 5.24158 99.5604C5.83081 99.7027 6.4047 100.019 6.97518 100.235L9.39063 101.059C9.49137 100.878 9.44527 100.671 9.42542 100.474C9.3257 99.48 8.82944 98.6098 8.83715 97.5864L8.84023 97.4569L8.61442 97.3268C9.8209 97.3313 10.9472 97.2395 12.1444 97.0919L11.4485 96.7324C9.73682 95.6758 9.00105 93.0209 8.5886 91.2105L8.85103 91.2255C8.89028 91.1814 8.94623 91.1478 8.9688 91.0934C9.08906 90.804 9.09573 90.2935 9.14013 89.9767L9.57475 86.9259L10.5015 82.2187Z" fill="#0090F9"/>
<path d="M132.933 81.3899C133.455 82.6391 133.66 84.0884 133.877 85.4176L134.599 90.0136L134.755 91.1303C134.765 91.2033 134.774 91.4759 134.81 91.5386C134.855 91.6168 134.925 91.6778 134.983 91.7474L134.976 91.8093C134.797 93.2839 134.229 95.5193 132.98 96.4807L131.805 97.197L135.238 97.4025L140.499 96.6997C139.981 97.8168 139.091 98.9624 138.249 99.8545C136.776 101.761 134.772 103.202 132.767 104.513C132.088 104.958 131.395 105.453 130.676 105.831C129.601 106.435 128.333 106.842 127.092 106.908C126.64 106.932 126.021 106.872 125.603 107.019L130.817 107.434L132.613 107.508C132.93 107.516 133.329 107.48 133.633 107.558C131.813 109.222 130.107 110.999 128.145 112.51C125.699 114.393 123.11 115.939 120.389 117.395C118.502 118.405 116.575 119.385 114.599 120.218L101.281 125.637L96.2566 128.143L88.2321 132.24L80.9298 136.348L80.8645 136.276C81.1221 136.046 81.4365 135.902 81.7325 135.727L82.0117 135.561L82.3667 135.36L82.4773 135.285L82.7007 135.137L82.8869 134.99C83.0183 134.929 83.0424 134.978 83.1828 134.873C83.3302 134.764 83.2533 134.804 83.4132 134.738C83.5357 134.687 83.6208 134.596 83.7447 134.565C83.8388 134.541 83.7997 134.562 83.8774 134.507C83.9777 134.436 84.0798 134.381 84.1904 134.326L84.4139 134.216C84.5392 134.136 84.6145 134.057 84.7563 133.998C84.9007 133.938 84.8318 133.982 84.9724 133.884C85.0645 133.82 85.1269 133.765 85.2332 133.719L85.3821 133.663C85.6532 133.485 85.3543 133.639 85.5895 133.522L85.6801 133.479C85.7599 133.431 85.8251 133.411 85.9035 133.368L86.1828 133.202L87.2442 132.631L87.5235 132.465L87.7656 132.336L87.9145 132.226C88.0202 132.176 88.0566 132.195 88.1718 132.119C88.344 132.005 88.5785 131.954 88.7049 131.799L88.7712 131.71L88.8828 131.746L89.0318 131.636C89.1365 131.586 89.174 131.605 89.289 131.529C89.428 131.437 89.3679 131.466 89.5055 131.404L90.298 131.009C90.4037 130.941 90.417 130.9 90.5494 130.873C90.6871 130.846 90.6952 130.786 90.782 130.678L90.8939 130.714L91.1173 130.567L91.1922 130.494C91.3582 130.47 91.2905 130.494 91.4385 130.415L91.8995 130.198C92.0071 130.14 92.0776 130.07 92.1964 130.021L93.2028 129.535C93.2948 129.476 93.3248 129.427 93.4356 129.399C93.5323 129.375 93.5425 129.347 93.6132 129.277L93.7987 129.24C94.1218 129.092 94.444 128.884 94.767 128.724C95.0548 128.582 95.3942 128.458 95.6608 128.282L95.7539 128.209C95.9664 128.208 96.2421 127.987 96.4431 127.895L97.6718 127.25L97.7649 127.177C97.9016 127.154 98.0025 127.106 98.1187 127.029L98.2118 126.955C98.3618 126.93 98.2953 126.953 98.4387 126.877L99.0125 126.587C99.0989 126.531 99.1293 126.482 99.2324 126.456C99.5599 126.375 99.8999 126.147 100.204 125.997C100.506 125.848 100.844 125.717 101.135 125.555C101.313 125.456 101.473 125.421 101.648 125.328L101.992 125.149C102.124 125.101 102.249 125.007 102.374 124.976L102.439 124.965L102.514 124.892L102.625 124.891C102.729 124.824 102.843 124.748 102.96 124.707L103.109 124.67C103.206 124.62 103.234 124.565 103.349 124.531C103.455 124.499 103.53 124.449 103.63 124.412C103.75 124.368 103.836 124.359 103.955 124.296C104.191 124.17 104.503 124.008 104.762 123.944C104.853 123.922 104.868 123.888 104.935 123.822C105.103 123.798 105.191 123.734 105.344 123.675C105.666 123.55 106.027 123.44 106.341 123.298L106.572 123.196C106.675 123.155 106.745 123.143 106.826 123.062L106.87 123.012L107.019 123.048C107.108 122.974 107.154 122.936 107.271 122.912C107.388 122.889 107.383 122.873 107.466 122.791L107.634 122.809L107.764 122.753L107.95 122.68C108.102 122.61 108.233 122.538 108.397 122.495L108.546 122.459C108.691 122.394 108.809 122.318 108.963 122.27C109.154 122.209 109.349 122.075 109.533 122.035C109.669 122.005 109.716 122.03 109.853 121.962C110.372 121.706 110.961 121.531 111.507 121.334L111.637 121.279C111.735 121.24 111.819 121.211 111.91 121.155L111.972 121.114L112.084 121.132C112.171 121.077 112.241 121.028 112.343 121.003C112.568 120.947 112.797 120.81 113.015 120.726C113.141 120.678 113.272 120.588 113.391 120.558L113.462 120.542C113.684 120.421 113.411 120.502 113.686 120.431C113.828 120.395 113.924 120.335 114.058 120.284C114.177 120.238 114.264 120.231 114.383 120.168C114.615 120.044 114.856 119.936 115.101 119.842L115.25 119.805C115.355 119.751 115.374 119.698 115.502 119.663C115.615 119.633 115.618 119.646 115.734 119.584C115.845 119.524 115.915 119.456 116.038 119.405L116.144 119.363C116.336 119.251 116.126 119.312 116.367 119.252C116.413 119.241 116.473 119.238 116.516 119.215C116.708 119.114 116.93 119.039 117.112 118.92C117.198 118.864 117.229 118.816 117.332 118.79C117.622 118.718 118.049 118.494 118.304 118.331C118.446 118.239 118.6 118.147 118.75 118.073C118.853 118.022 118.894 118.041 119.008 117.966C119.147 117.874 119.086 117.903 119.224 117.841L120.017 117.446C120.108 117.388 120.133 117.343 120.241 117.316C120.335 117.293 120.296 117.313 120.374 117.258L120.445 117.206C120.556 117.14 120.672 117.12 120.743 117.004L120.799 116.894L120.872 116.967L122.028 116.34L122.251 116.23C122.376 116.15 122.452 116.071 122.594 116.012L122.698 115.972L123.219 115.677L123.499 115.511L123.854 115.31L124.411 114.94C124.533 114.855 124.656 114.794 124.784 114.719L124.895 114.645L125.626 114.12L125.696 114.056L125.789 114.055L126.795 113.318L126.944 113.189C127.144 113.066 127.325 112.896 127.521 112.784C127.697 112.682 127.719 112.663 127.856 112.508L127.949 112.507L128.191 112.268C128.345 112.179 128.429 112.051 128.563 111.973C128.75 111.865 128.844 111.706 129.01 111.604C129.301 111.427 129.484 111.099 129.755 110.941C130.054 110.766 130.225 110.438 130.5 110.277L130.631 110.222C130.833 110.111 131.612 109.291 131.674 109.079L131.524 109.079C131.412 109.19 131.378 109.153 131.226 109.153C131.127 109.218 131.075 109.246 130.966 109.282L130.798 109.337L130.667 109.411L130.444 109.521C130.319 109.594 130.229 109.666 130.093 109.724C129.129 110.136 128.282 110.948 127.316 111.327C127.133 111.399 127.27 111.319 127.097 111.433C126.923 111.548 126.749 111.629 126.571 111.733C126.439 111.809 126.327 111.894 126.186 111.956L126.106 111.991L125.645 112.236L125.23 112.47L124.071 113.119L122.903 113.686L121.655 114.276L121.432 114.386L121.264 114.497L121.134 114.534C121.004 114.593 120.89 114.695 120.753 114.755L120.24 115.013C119.602 115.292 118.972 115.64 118.359 115.971L118.061 116.119L117.931 116.193L117.819 116.229C117.723 116.273 117.668 116.332 117.561 116.358C117.45 116.386 117.502 116.366 117.377 116.427C117.075 116.577 116.761 116.772 116.441 116.874C116.343 116.906 116.267 116.932 116.175 116.981L115.845 117.151L115.324 117.372L115.212 117.409C115.116 117.452 115.061 117.511 114.954 117.538C114.839 117.566 114.898 117.544 114.766 117.609L114.486 117.741C114.292 117.841 114.426 117.792 114.25 117.85L113.909 117.98C113.729 118.096 113.873 118.059 113.707 118.092C113.606 118.112 113.536 118.133 113.443 118.183L113.313 118.256C113.011 118.381 112.656 118.541 112.345 118.644C112.233 118.68 112.136 118.734 112.028 118.772C111.867 118.83 111.718 118.908 111.555 118.961L111.078 119.141L110.706 119.288L109.943 119.583C109.682 119.672 109.404 119.817 109.142 119.878C108.878 119.94 108.67 120.062 108.416 120.146L108.211 120.21L108.137 120.283C107.929 120.323 107.773 120.394 107.578 120.468L107.056 120.689L106.535 120.91L106.368 120.984L106.237 121.058L106.125 121.094L106.051 121.168C105.934 121.185 105.863 121.205 105.755 121.258C105.605 121.332 105.45 121.372 105.299 121.447L105.194 121.5L105.083 121.536L105.008 121.61C104.895 121.627 104.817 121.646 104.712 121.698L104.375 121.868L103.537 122.237L103.444 122.274C103.33 122.335 103.234 122.412 103.109 122.458L102.96 122.495C102.856 122.548 102.824 122.604 102.7 122.645C102.602 122.677 102.512 122.704 102.42 122.753L102.289 122.827C102.083 122.921 101.85 122.992 101.651 123.1L101.154 123.343L100.264 123.785L98.9938 124.375L98.8631 124.448C98.7493 124.5 98.6405 124.533 98.5282 124.596L98.3421 124.706C98.1771 124.777 98.0535 124.849 97.8952 124.927C97.7634 124.993 97.6466 125.011 97.5169 125.096L97.3735 125.186C97.121 125.284 97.3611 125.15 97.1284 125.291C96.9577 125.395 96.7851 125.464 96.6104 125.554L96.4797 125.628C96.371 125.685 96.2745 125.724 96.175 125.798L96.1072 125.849L95.9958 125.886C95.8812 125.942 95.7831 126.021 95.6604 126.07C95.4919 126.138 95.5984 126.065 95.4373 126.18C95.344 126.247 95.2921 126.291 95.1823 126.336C95.0131 126.406 95.11 126.359 94.9358 126.451L94.8228 126.512L94.7298 126.549L94.618 126.623L94.3572 126.77C93.8899 127.164 93.0602 127.543 92.4892 127.825L92.1597 127.987C91.9998 128.064 91.8607 128.178 91.7036 128.247L91.471 128.355L91.1173 128.539L89.4727 129.447L89.3293 129.535C89.0636 129.637 88.8008 129.784 88.5523 129.927L87.4676 130.53C87.3366 130.606 87.2237 130.691 87.0833 130.753L85.5893 131.541L84.9352 131.93C84.8528 131.988 84.799 132.037 84.7058 132.078C84.2732 132.269 83.7675 132.559 83.3711 132.815C83.1055 132.985 82.7949 133.131 82.5446 133.317L82.4769 133.368C82.3671 133.421 82.344 133.465 82.2535 133.515L82.142 133.552L82.0304 133.625C81.8679 133.723 81.712 133.858 81.5483 133.939C81.39 134.017 81.2133 134.123 81.0621 134.215C80.9545 134.281 80.9449 134.325 80.8105 134.351L80.7271 134.363L80.6524 134.436L80.538 134.363C80.6373 133.325 80.6514 132.287 80.6726 131.246C80.6869 130.543 80.6575 129.714 80.8768 129.04L80.9094 128.945C81.1132 128.337 81.4103 127.766 81.8755 127.311C82.2415 126.953 82.7 126.703 83.1363 126.44L85.2324 125.249L92.714 121.247L97.349 118.526C99.0083 117.44 100.607 116.231 102.312 115.218L108.73 111.808C110.936 110.593 112.933 109.192 114.889 107.617L118.444 104.612L121.336 102.313C122.202 101.595 123.036 100.748 123.957 100.112C124.148 99.9801 124.287 99.8655 124.52 99.8655L124.481 99.9942L122.325 102.003L122.512 102.219L122.629 102.173L122.678 102.178L124.58 100.293C125.019 99.8841 125.371 99.4126 125.743 98.9455C127.497 96.7443 128.529 94.3234 129.654 91.7835C130.718 89.382 131.749 86.9937 132.414 84.4466C132.677 83.4362 132.711 82.4003 132.933 81.3899Z" fill="#0090F9"/>
<path d="M66.0334 40.1068C66.2412 40.152 66.3268 40.1581 66.5375 40.1141C66.766 40.0665 67.0152 40.1318 67.2083 40.0093C67.4989 40.0107 67.7128 40.0129 67.9903 39.9356C68.2078 39.8751 68.5053 39.9218 68.7351 39.8957L70.97 39.7483C74.6572 39.6315 78.2498 39.9474 81.774 41.0594L85.3962 42.3689C85.0919 42.4244 84.5205 41.9778 84.3608 42.2258L84.3022 42.4057L85.1586 42.7005L85.2989 42.7743C85.4399 42.8476 85.5487 42.8712 85.7088 42.8847L85.5402 42.9675L85.6332 43.0208C86.2046 43.3404 86.8751 43.5554 87.4718 43.8353C88.5332 44.3334 89.5603 44.9053 90.5709 45.4965C93.0264 46.9335 95.1809 48.6456 97.3174 50.5002C100.06 52.8807 102.625 55.394 104.706 58.3811C105.836 60.0038 106.592 61.8425 107.675 63.4793C109.127 66.0439 111.162 68.0346 113.429 69.9016C114.145 70.4911 114.888 71.1313 115.69 71.6011C115.656 71.8958 115.594 72.046 115.788 72.2966C116.46 73.1625 117.734 73.8815 118.649 74.4734C122.493 76.9608 127.458 79.0975 128.89 83.8232C129.327 85.2633 129.35 86.8044 129.222 88.2922C129.176 88.8279 129.053 89.3517 129.095 89.8915L128.989 90.1695L129.215 90.3629C129.203 90.7494 129.015 91.1622 128.876 91.5211C127.905 94.0364 125.885 96.348 123.922 98.1793C121.78 100.177 119.478 101.755 117.038 103.36C111.988 106.685 106.668 109.457 101.434 112.47L86.2602 121.434L82.0987 123.524C81.679 123.77 81.4323 123.892 81.309 124.384C81.0587 125.383 80.9622 126.434 80.8096 127.452C80.4648 129.751 79.9536 131.785 78.6119 133.725C78.3285 134.134 77.9868 134.724 77.5572 134.98L77.3683 135.075C76.8362 135.873 75.3692 136.585 74.5402 137.095C73.7465 137.584 72.983 138.12 72.1387 138.524C71.915 138.418 71.6792 138.28 71.4407 138.214C69.6567 137.403 67.8608 136.284 66.2754 135.143L65.2672 123.615C64.1946 123.441 63.1517 123.036 62.1182 122.713C51.7717 118.249 41.9612 112.486 32.6644 106.171C27.4373 102.62 22.2177 98.9172 17.8544 94.3299C17.8157 94.2214 17.6186 94.0366 17.5416 93.943L16.611 92.7715C15.757 91.6306 15.0398 90.4486 14.3632 89.2008C14.3953 89.0512 13.9107 87.9691 13.8414 87.7458C13.6174 87.0252 13.4636 86.269 13.3988 85.5169C13.2953 84.3162 13.4819 83.2831 13.7718 82.1278C14.3025 81.8682 14.5804 81.1175 14.9453 80.6516C15.7526 79.6212 16.6406 78.6772 17.687 77.8802C19.6426 76.3902 21.7583 75.2104 23.9213 74.0469C25.4505 73.2246 27.2527 72.4379 28.5458 71.2699C29.9881 70.3282 31.4121 69.3844 32.6405 68.1687C34.1304 66.6938 35.1938 64.9964 36.2097 63.1848L39.5349 58.1629C43.4546 52.7036 48.3433 48.2697 54.3732 45.1836L57.6807 43.624L59.5352 42.8867L59.6669 42.8262L59.5407 42.7367L60.073 42.5669L60.1324 42.5531C60.2232 42.4643 60.2343 42.468 60.3559 42.4425C60.5185 42.4084 60.6715 42.3945 60.7958 42.2724L60.8399 42.2221L61.0636 42.2583C61.1821 42.1531 61.3085 42.0937 61.4731 42.0928L61.5847 42.1108C61.9727 41.8923 62.5536 41.7698 62.9953 41.6823C63.1678 41.6483 63.047 41.6055 63.1058 41.4857C63.2138 41.2656 63.5803 40.9756 63.7694 40.8025L63.1725 40.9065C62.8637 40.945 62.6374 41.0179 62.3226 40.9731L64.0427 40.5267L64.9553 40.2859L65.0487 40.2684C65.383 40.1915 65.6912 40.1422 66.0334 40.1068Z" fill="#030713"/>
<path d="M66.0335 40.1068C66.2412 40.152 66.3268 40.1581 66.5376 40.1141C66.766 40.0665 67.0153 40.1318 67.2083 40.0093C67.4989 40.0107 67.7128 40.0129 67.9903 39.9356C68.2078 39.8751 68.5053 39.9218 68.7351 39.8957L70.97 39.7483C74.6572 39.6315 78.2499 39.9474 81.774 41.0594L85.3962 42.3689C85.0919 42.4244 84.5205 41.9778 84.3608 42.2258L84.3022 42.4057L85.1587 42.7005L85.2989 42.7743C85.4399 42.8476 85.5488 42.8712 85.7089 42.8847L85.5402 42.9675C84.1074 42.5592 82.7379 42.042 81.2784 41.6939C78.2953 40.9825 75.0757 40.5281 72.001 40.5731C67.7714 40.635 63.6681 41.5276 59.6669 42.8262L59.5408 42.7367L60.0731 42.5669L60.1325 42.5531C60.2232 42.4643 60.2344 42.468 60.3559 42.4425C60.5186 42.4084 60.6715 42.3945 60.7959 42.2724L60.84 42.2221L61.0636 42.2583C61.1822 42.1531 61.3085 42.0937 61.4732 42.0928L61.5848 42.1108C61.9727 41.8923 62.5537 41.7698 62.9954 41.6823C63.1678 41.6483 63.047 41.6055 63.1058 41.4857C63.2139 41.2656 63.5803 40.9756 63.7694 40.8025L63.1726 40.9065C62.8637 40.945 62.6375 41.0179 62.3227 40.9731L64.0427 40.5267L64.9554 40.2859L65.0487 40.2684C65.383 40.1915 65.6913 40.1422 66.0335 40.1068Z" fill="url(#paint10_linear_1202_83)"/>
<path d="M66.676 129.866C67.9343 131.118 69.3401 132.261 71.2304 132.254C73.2269 132.246 75.8477 131.382 77.4182 130.154L77.4538 130.225C77.4961 130.308 77.4746 130.279 77.5164 130.327C77.4099 131.751 77.4123 133.349 77.0617 134.732C77.0383 134.824 77.0015 135.015 76.9485 135.093C76.7189 135.433 76.0027 135.772 75.6557 135.99L72.1417 138.165L69.221 136.598C68.3617 136.116 67.5037 135.65 66.7592 135.003L66.676 129.866Z" fill="#393B46"/>
<path d="M128.989 90.1695L129.215 90.3629C129.203 90.7494 129.015 91.1622 128.876 91.5211C127.905 94.0364 125.885 96.348 123.922 98.1793C121.78 100.177 119.478 101.755 117.038 103.36C111.988 106.685 106.668 109.457 101.434 112.47L86.2602 121.434L82.0987 123.524C81.679 123.77 81.4323 123.892 81.309 124.384C81.0587 125.383 80.9622 126.434 80.8096 127.452C80.4648 129.751 79.9536 131.785 78.6119 133.725C78.3285 134.134 77.9869 134.724 77.5572 134.98L77.3683 135.075C77.7267 133.662 77.7668 132.09 77.9096 130.636L78.6135 123.627C79.4809 123.266 80.464 123.056 81.3674 122.788C84.4585 121.567 87.2213 119.958 90.0803 118.294L100.697 111.903L105.912 109.017C109.705 106.903 113.465 104.721 117.06 102.287C118.698 101.179 120.311 100.066 121.835 98.8042C124.762 96.3813 127.298 93.5721 128.989 90.1695Z" fill="url(#paint11_linear_1202_83)"/>
<path d="M66.9144 125.983C66.8689 124.839 66.9446 123.562 66.7531 122.439C67.117 122.021 67.5605 121.42 68.0535 121.153C68.9455 121.509 69.8327 121.87 70.7968 121.977C72.1133 122.122 73.5572 121.946 74.8499 121.688C75.0634 121.646 76.099 121.285 76.1977 121.314C76.5802 121.425 77.2973 122.253 77.57 122.559L76.59 128.883L76.6833 129.13L77.5497 129.293C77.5479 129.615 77.5944 130.018 77.5164 130.327C77.4746 130.279 77.4961 130.308 77.4538 130.225L77.4182 130.154C75.8477 131.382 73.2269 132.246 71.2304 132.254C69.3401 132.261 67.9343 131.118 66.676 129.866C66.7144 129.249 66.8453 128.638 66.8858 128.024C66.9303 127.348 66.9144 126.66 66.9144 125.983Z" fill="#393B46"/>
<path d="M66.9144 125.983L66.9279 126.061C67.053 126.85 66.7837 127.725 67.2286 128.424L67.2963 128.535C67.9538 129.589 69.3369 130.692 70.5227 131.088L70.5964 131.113C70.8747 131.201 71.2391 131.162 71.5283 131.128C72.9052 130.968 74.4083 130.173 75.6114 129.498C75.9234 129.323 76.3302 129.126 76.59 128.883L76.6833 129.13L77.5497 129.293C77.5479 129.615 77.5944 130.018 77.5164 130.327C77.4746 130.279 77.4961 130.308 77.4538 130.225L77.4182 130.154C75.8477 131.382 73.2269 132.246 71.2304 132.254C69.3401 132.261 67.9343 131.118 66.676 129.866C66.7144 129.249 66.8453 128.638 66.8858 128.024C66.9303 127.348 66.9144 126.66 66.9144 125.983Z" fill="#2A2B36"/>
<path d="M55.2815 113.078L54.959 113.056C54.8759 112.963 54.8044 112.883 54.6996 112.813C54.2499 112.515 53.8213 112.139 53.3924 111.807L53.391 111.918L53.2987 111.973L53.0566 111.844L52.9447 111.77L52.0883 111.18C51.9659 111.096 51.8436 111.035 51.7159 110.959L51.4366 110.793L50.3752 110.222C50.2888 110.167 50.2584 110.118 50.1553 110.092C49.4329 109.913 48.7018 109.34 47.9917 109.079L47.8428 109.043L47.3679 108.815L44.2408 107.226L43.1096 106.669L43.0014 106.61L42.9634 106.684L42.8898 106.794L42.9634 106.942C43.1436 107.034 43.2145 107.119 43.3359 107.274L43.1825 107.483L43.1124 107.568L43.1869 107.679L43.0759 107.79L43.15 107.882L43.0945 107.955L43.15 108.029L43.0945 108.103L43.15 108.177L43.0945 108.25L43.1869 108.342L42.964 108.527L42.9634 108.637L42.7966 108.766L42.8145 108.932L42.7035 108.987C42.5573 109.074 42.7042 109.019 42.5404 109.074L42.4613 109.098L42.4421 109.338C42.3477 109.478 42.3986 109.431 42.252 109.528L42.1449 109.595C42.2915 109.743 42.5257 109.821 42.7035 109.927L42.9827 110.093L43.113 110.148C43.2183 110.209 43.28 110.29 43.3982 110.343L43.7462 110.517C43.8372 110.575 43.8624 110.62 43.9709 110.647C44.065 110.67 44.0259 110.65 44.1035 110.705C44.3905 110.908 44.7522 111.042 45.0682 111.199C45.3624 111.344 45.6754 111.547 45.9807 111.66L46.1297 111.696L46.6034 111.923C47.0791 112.177 47.665 112.414 48.1778 112.583L48.2897 112.618L48.5131 112.692C48.8104 112.775 49.0778 112.929 49.3696 113.026L49.4814 113.06L49.7048 113.134L49.8538 113.171C50.0616 113.265 50.4266 113.438 50.6463 113.457C50.7885 113.47 50.718 113.449 50.8604 113.52C50.9951 113.586 50.9355 113.571 51.07 113.598L51.1572 113.613C51.2664 113.648 51.3879 113.669 51.492 113.705L51.9951 113.853C52.1542 113.898 52.3447 113.929 52.4978 113.982C52.7006 114.05 52.8426 114.05 53.0566 114.055C53.3054 114.219 53.5775 114.051 53.8385 114.129C54.0773 114.2 54.2926 114.173 54.5285 114.24C53.9339 114.261 53.3305 114.229 52.7425 114.132C51.7169 113.962 50.7055 113.595 49.7283 113.251C47.5164 112.472 45.4673 111.57 43.3996 110.469C40.3782 108.86 37.6513 106.888 34.8111 105.004C32.0143 103.148 29.0983 101.389 26.4064 99.3882C24.9158 98.2801 23.5093 97.0421 22.1337 95.7977C21.312 95.0542 20.3892 94.3204 19.7324 93.4262C20.0158 92.0467 20.4621 90.7513 21.141 89.511C21.6542 88.5735 22.3331 87.7354 22.9822 86.8889L25.1849 84.068C25.8399 86.0152 26.3055 88.4301 27.5598 90.0918C28.283 90.8099 28.8665 91.6109 29.516 92.3905L31.829 95.1846C33.1256 96.9169 34.2051 98.6171 35.8773 100.043L35.7422 100.014C34.5749 99.7766 33.3816 99.7951 32.2385 99.4112C31.5124 99.1673 30.8214 98.8474 30.127 98.528C29.7687 98.3631 29.3772 98.1372 28.9964 98.0429C29.9613 98.9306 31.158 99.5773 32.2483 100.305C32.6328 100.561 33.1996 101.06 33.633 101.192L36.5402 102.977C36.7943 103.126 37.1683 103.408 37.4448 103.488C38.8256 104.468 40.5027 105.227 42.0192 105.985L46.7748 108.388L49.9215 109.86L51.7915 110.863C52.2051 111.108 52.5997 111.433 53.0566 111.59L53.2665 111.516L55.2815 113.078Z" fill="#2A2B36"/>
<path d="M108.306 91.0584C109.015 89.9309 109.905 88.97 110.677 87.8916C111.834 86.2743 112.379 84.3939 112.354 82.4252C112.494 82.6904 112.592 82.9735 112.74 83.2351C113.322 84.264 113.997 85.1815 114.376 86.3203C114.546 86.8341 114.603 87.3904 114.724 87.9188L114.711 88.0023L114.658 88.2659C114.621 88.4395 114.626 88.3666 114.653 88.5421C115.369 89.0834 115.737 89.7891 116.109 90.589C116.744 88.5633 117.629 86.4427 117.74 84.3001C120.702 86.918 123.173 90.0337 123.382 94.1158C123.405 94.5498 123.134 94.7822 122.848 95.0847C121.428 96.5879 119.744 97.9029 118.102 99.1596L113.897 102.254C110.521 104.493 106.895 106.361 103.258 108.142C101.632 108.938 100.013 109.811 98.2971 110.407C96.056 111.185 93.6497 111.511 91.3408 112.035L91.3161 111.984L91.6309 111.715L91.4917 111.744C91.3698 111.779 91.3692 111.805 91.2283 111.807C91.2837 111.534 91.4931 111.378 91.6802 111.176C91.8466 110.926 92.2216 110.661 92.4495 110.443L93.9008 108.968C94.9819 107.827 95.9261 106.57 96.8348 105.292L97.4795 104.412C98.8035 102.952 99.9271 101.353 100.839 99.6107C101.166 98.9866 101.523 98.3407 101.714 97.6615C101.981 96.7088 102.003 95.8051 102.002 94.8262L102.094 94.8897C102.333 95.7994 102.26 96.7284 102.144 97.6495C104.812 96.35 106.814 93.5094 108.306 91.0584Z" fill="#2A2B36"/>
<path d="M108.306 91.0584C109.015 89.9309 109.905 88.97 110.677 87.8916C111.834 86.2743 112.379 84.3939 112.354 82.4252C112.494 82.6904 112.592 82.9735 112.74 83.2351C113.322 84.264 113.997 85.1815 114.376 86.3203C114.546 86.8341 114.603 87.3904 114.724 87.9188L114.711 88.0023L114.658 88.2659C114.621 88.4395 114.626 88.3666 114.653 88.5421L114.598 88.6533C114.463 88.9397 114.458 89.3103 114.398 89.6191C114.28 90.2281 114.123 90.8363 113.92 91.423C113.487 92.6777 112.799 93.8778 112.181 95.0503C111.559 96.2303 110.99 97.4074 110.196 98.4905C109.765 99.0788 109.214 99.6441 108.702 100.167C109.845 99.8326 111.031 99.7528 112.176 99.4462C113.342 99.1338 114.339 98.5974 115.45 98.1703C114.605 99.1384 113.47 99.8179 112.363 100.457C110.15 101.736 107.777 102.738 105.483 103.867L97.0163 108.1C95.594 108.836 94.239 109.773 92.9677 110.738C92.7313 110.918 91.8596 111.693 91.6309 111.715L91.4917 111.744C91.3698 111.779 91.3692 111.805 91.2283 111.807C91.2837 111.534 91.4931 111.378 91.6802 111.176C91.8466 110.926 92.2216 110.661 92.4495 110.443L93.9008 108.968C94.9819 107.827 95.9261 106.57 96.8348 105.292L97.4795 104.412C98.8035 102.952 99.9271 101.353 100.839 99.6107C101.166 98.9866 101.523 98.3407 101.714 97.6615C101.981 96.7088 102.003 95.8051 102.002 94.8262L102.094 94.8897C102.333 95.7994 102.26 96.7284 102.144 97.6495C104.812 96.35 106.814 93.5094 108.306 91.0584Z" fill="url(#paint12_linear_1202_83)"/>
<path d="M109.416 79.929C109.434 79.6585 109.304 79.3633 109.248 79.0973C109.14 78.5916 109.076 78.0604 109.026 77.5456L108.705 72.0389C109.181 72.2992 109.643 72.792 110.016 73.1816C111.723 74.9684 112.71 76.9245 113.792 79.0981C114.923 81.9122 115.681 84.95 114.724 87.9188C114.603 87.3904 114.546 86.8341 114.376 86.3203C113.997 85.1815 113.322 84.264 112.74 83.2351C112.592 82.9735 112.494 82.6904 112.354 82.4253C112.379 84.3939 111.834 86.2743 110.677 87.8916C109.905 88.97 109.015 89.9309 108.306 91.0584C106.813 93.5094 104.812 96.35 102.144 97.6495C102.26 96.7284 102.333 95.7994 102.094 94.8897L102.002 94.8262C102.003 95.8051 101.981 96.7088 101.714 97.6615C101.523 98.3407 101.166 98.9866 100.839 99.6107C99.9271 101.353 98.8035 102.952 97.4795 104.412L96.8348 105.292C95.9261 106.57 94.9818 107.827 93.9007 108.968L92.4494 110.443C92.2216 110.661 91.8466 110.926 91.6802 111.176L91.2843 111.156C90.6416 111.82 89.8137 112.4 89.0898 112.982L85.2077 116.21L85.768 115.361C86.7242 113.827 87.4126 112.125 88.2073 110.508C89.7778 107.31 91.678 104.152 91.9052 100.517C91.958 99.6717 91.9584 98.8132 91.76 97.9857L91.711 98.1044C91.6913 100.084 91.4013 101.98 90.6624 103.833C89.1575 107.606 86.0495 110.591 83.1758 113.381C81.1139 115.383 78.7652 117.471 75.9834 118.398C74.6905 118.829 73.2539 118.986 71.8938 118.972C68.4886 118.938 65.5162 117.622 63.0468 115.324L60.3088 112.873C57.7847 110.583 55.3743 108.209 53.6608 105.239C52.4122 103.074 51.352 100.143 52.0406 97.6397C51.3178 98.7617 51.5226 100.794 51.809 102.043C52.4857 104.994 54.1609 107.56 55.6432 110.162C56.0267 110.835 56.4796 111.525 56.8037 112.225L59.0958 116C58.1067 115.047 57.0258 114.293 55.9052 113.506C55.7638 113.406 55.436 113.114 55.2815 113.078L53.2665 111.516C50.8108 109.425 48.3953 107.06 46.9575 104.141C46.3626 102.933 45.9926 101.677 45.7054 100.37C45.5801 101.877 46.2006 103.533 46.7948 104.892L46.7202 104.825C46.277 104.358 45.8703 103.821 45.4524 103.329C43.7722 101.349 42.1847 99.1246 41.7362 96.5265C41.6315 95.9203 41.6559 95.2713 41.6523 94.657C41.4668 95.0654 41.387 95.4902 41.295 95.9262C41.2938 96.2624 41.3729 97.0673 41.2088 97.3295L41.1536 97.3425C40.4281 97.0445 39.7654 96.5171 39.1803 96.0058C37.4102 94.459 36.281 92.7184 35.2989 90.6151C34.784 89.5814 34.1157 88.8633 33.4014 87.9701C32.3035 86.5972 31.4955 84.8682 31.7221 83.0893L31.736 82.9882C31.0953 83.9677 30.3518 84.8786 29.749 85.8835C29.3994 86.4667 29.1549 87.0973 28.8493 87.7026C28.022 84.7204 28.5732 81.4159 29.9397 78.6859L29.9983 78.6187C30.3326 78.2049 30.5852 77.6927 30.8915 77.2531C31.8188 75.922 32.8036 74.6513 33.8932 73.4456C34.2031 73.1028 34.5856 72.617 34.9624 72.3615L34.6033 79.6389C35.5475 78.3056 37.1121 77.8155 38.672 77.5494C42.7432 76.8547 47.1867 77.6789 50.9891 79.161C52.2708 79.6607 53.5809 80.239 54.7083 81.0316C56.0379 81.9665 57.3934 83.4344 57.6713 85.0858C57.8495 86.1453 57.6145 87.163 57.2969 88.17C56.8188 89.6871 56.1556 91.0051 55.3089 92.3546C55.0251 92.8067 54.4195 93.4614 54.2729 93.9483C55.7401 92.4678 57.43 91.2502 59.0728 89.971C60.8691 88.5718 62.7361 86.9695 64.7621 85.9206C65.4394 85.57 66.1445 85.3007 66.9203 85.2944C67.8492 85.2871 68.6628 85.6732 69.3137 86.3193C70.703 87.6982 71.8018 89.9833 71.9905 91.9054C72.3492 89.9138 73.1997 87.5199 74.9881 86.337C75.8525 85.7654 76.838 85.6604 77.8446 85.8823C80.0062 86.3592 82.0423 88.1224 83.8033 89.3974C85.7527 90.8087 87.6754 92.229 89.5023 93.7954C88.3185 91.8865 87.0855 89.821 86.55 87.6263C86.3387 86.7598 86.2443 85.9179 86.4576 85.043C86.9615 82.9758 88.4039 81.5908 90.2 80.5148C93.4926 78.5418 97.489 77.5128 101.31 77.2753C102.863 77.1788 104.511 77.1869 106.031 77.5666C107.287 77.8808 108.545 78.4756 109.232 79.61L109.416 79.929Z" fill="white"/>
<path d="M58.4907 100.176C59.5074 100.319 60.2848 100.523 61.2217 100.94C61.4156 101.026 61.6718 101.1 61.8084 101.267L61.6861 101.349C61.0445 101.437 60.5357 101.133 59.9694 100.878C59.4675 100.652 58.9729 100.443 58.4907 100.176Z" fill="#030713"/>
<path d="M85.454 100.308L85.7434 100.295L85.7396 100.381C84.8838 100.803 83.7095 101.33 82.7528 101.34L82.4042 101.215L82.4099 101.118C83.3719 100.664 84.4083 100.47 85.454 100.308Z" fill="#030713"/>
<path d="M41.2089 97.3295L41.1874 96.7693C40.9518 96.4927 40.7939 96.1454 40.5866 95.8452C39.8578 94.791 39.0455 93.7901 38.6907 92.5374C39.1386 93.1017 39.4971 93.7266 39.9853 94.2642C40.3558 94.6723 40.8998 95.025 41.1034 95.5514C41.1429 95.654 41.1757 95.7393 41.2351 95.8332L41.2951 95.9262C41.2939 96.2624 41.3729 97.0673 41.2089 97.3295Z" fill="#D3D2D2"/>
<path d="M57.263 95.5901L57.3726 95.6636C56.2276 96.755 54.9961 98.0572 54.9228 99.7296L54.8839 100.603L54.8384 100.536C54.75 100.361 54.7665 100.112 54.7635 99.9176C54.7522 99.1881 54.782 98.31 55.0861 97.6364L55.1304 97.5434C55.2545 97.2765 55.3862 97.0119 55.5592 96.7717C55.9713 96.2002 56.5509 95.708 57.263 95.5901Z" fill="#D3D2D2"/>
<path d="M85.9935 95.3687C86.125 95.3393 86.2346 95.3172 86.3703 95.334C87.12 95.4269 87.8416 95.9575 88.2619 96.5659C89.1301 97.8231 88.918 99.7155 88.6383 101.118L88.5513 101.242C88.5994 100.114 88.742 98.8297 88.1888 97.7844C87.6891 96.8401 87.2015 96.1027 86.2082 95.6135C86.0489 95.535 86.0703 95.5193 85.9935 95.3687Z" fill="#D3D2D2"/>
<path d="M40.9333 90.4846C41.5213 91.353 42.0492 92.2844 42.7386 93.0795C43.8539 94.3657 45.2438 95.2958 46.5611 96.3549C47.2759 96.9299 47.9411 97.553 48.6823 98.0963C48.6647 98.1007 48.6474 98.1109 48.6293 98.1095C48.3725 98.0901 48.0873 97.8449 47.8728 97.7117L46.6822 97.0443L44.0666 95.7322C43.459 95.3965 42.8717 95.0014 42.4224 94.469C41.4966 93.3716 41.3109 91.8205 40.9333 90.4846Z" fill="#D3D2D2"/>
<path d="M97.3502 96.9881C96.6316 97.1937 95.6596 97.7331 95.071 98.1925C94.9437 98.2917 94.8957 98.3346 94.7405 98.3912C95.1549 97.7626 96.2213 97.2751 96.8572 96.8609C97.5167 96.4312 98.1793 95.9736 98.789 95.4765C100.363 94.1923 101.831 92.3168 102.87 90.5772C103.003 90.9416 102.484 93.1711 102.32 93.6161C102.194 93.9576 102.098 94.2556 101.871 94.5471C100.571 95.7548 98.8873 96.1552 97.3502 96.9881Z" fill="#D3D2D2"/>
<path d="M56.8038 112.225C56.4397 112.014 56.3563 111.736 56.1483 111.402L55.679 110.565L55.6269 110.48L55.5707 110.37L55.5149 110.295L54.9119 109.213L54.8446 109.116L54.8442 109.006C54.6299 108.864 54.5877 108.641 54.4491 108.436L54.3977 108.361C54.3248 108.223 54.4052 108.309 54.3023 108.207L54.2487 108.158C54.2028 107.84 53.8535 107.453 53.7065 107.163L53.4294 106.61L53.318 106.389C53.2351 106.258 53.193 106.124 53.1106 106.002L53.057 105.928L53.0566 105.836L52.908 105.633L52.7591 105.283C52.7189 105.18 52.7394 105.156 52.6661 105.06C52.5161 104.862 52.4854 104.551 52.3497 104.325L52.2752 104.214L52.3118 104.067L52.2007 103.993C52.1866 103.832 52.1638 103.721 52.0885 103.578C52.044 103.495 51.9985 103.425 51.9773 103.33L51.9393 103.072C51.8404 102.825 51.8752 103.081 51.8545 102.873C51.8426 102.753 51.8575 102.802 51.8198 102.691L51.7908 102.611L51.7538 102.482L51.6793 102.372C51.6833 102.259 51.6883 102.166 51.6547 102.056C51.5896 101.842 51.5377 101.705 51.5566 101.476C51.5723 101.287 51.4489 101.229 51.4742 101.008C51.5014 100.77 51.4432 100.863 51.3814 100.676C51.3131 100.469 51.4408 100.138 51.4021 99.9026C51.3496 99.5854 51.3347 99.1079 51.4184 98.7969L51.5298 98.7604C51.5757 98.6232 51.5624 98.6314 51.529 98.5017L51.3808 98.6853C51.1739 98.4804 51.3169 98.404 51.1945 98.2249L50.9711 98.243L50.7476 98.0956C50.5923 98.0258 50.6537 98.0938 50.5242 98.0218L50.3756 97.9116L50.0586 97.8011C50.0322 97.9287 49.9962 98.0502 50.0095 98.1813C50.0228 98.3104 50.0453 98.4311 50.0324 98.5616C50.0155 98.7336 50.0203 98.5593 50.0211 98.792V98.944L50.0028 99.2019C50.0274 99.3233 50.0848 99.3996 50.0955 99.5337C50.1061 99.6656 50.0616 99.8541 50.0955 99.9759C50.1289 100.096 50.1794 100.134 50.17 100.271L50.1518 100.381C50.2527 100.615 50.2 100.782 50.2445 101.008C50.3116 101.349 50.2628 100.894 50.2914 101.176C50.3045 101.305 50.3045 101.414 50.3587 101.536C50.4326 101.701 50.3534 101.784 50.468 101.966L50.4497 102.114L50.5242 102.224L50.5428 102.464C50.5824 102.612 50.6598 102.773 50.6914 102.924C50.7502 103.207 50.6686 102.951 50.7452 103.179C50.8078 103.364 50.9021 103.571 50.9524 103.754C50.9868 103.879 50.957 103.934 51.0235 104.066C51.0805 104.179 51.1236 104.276 51.1572 104.399L51.1945 104.546C51.2893 104.727 51.2569 104.583 51.2899 104.747C51.3155 104.873 51.3212 104.959 51.3921 105.071L51.4362 105.136L51.418 105.246C51.4736 105.333 51.5228 105.402 51.5483 105.502C51.5894 105.664 51.6929 105.903 51.7707 106.057L51.8589 106.246C51.9431 106.47 52.0281 106.705 52.1628 106.905L52.2369 106.997C52.2373 107.104 52.2555 107.179 52.3118 107.274C52.366 107.364 52.416 107.388 52.4432 107.496C52.4669 107.589 52.446 107.55 52.5014 107.627C52.88 108.152 53.119 108.802 53.5035 109.338C53.6149 109.493 53.6938 109.66 53.8002 109.818L54.0249 110.148L54.0989 110.241C54.0995 110.377 54.1367 110.37 54.2296 110.462L54.2112 110.618C52.8566 108.593 51.7755 106.556 50.9824 104.251C49.9428 101.23 49.2574 97.5395 50.7665 94.562C50.919 94.2611 51.1451 93.8111 51.4968 93.7077C51.8186 93.6132 52.2228 93.7121 52.5068 93.8721L52.6097 93.9322C53.0208 94.1669 53.2951 94.4213 53.6191 94.7592C53.3678 95.15 53.1962 95.6052 53.0014 96.0261C52.7026 96.4204 52.5076 96.8177 52.2663 97.2413C52.2248 97.3138 52.1995 97.3944 52.1624 97.4693L52.0406 97.6397C51.3179 98.7617 51.5226 100.794 51.809 102.043C52.4857 104.994 54.1609 107.56 55.6432 110.162C56.0268 110.835 56.4796 111.525 56.8038 112.225Z" fill="#D3D2D2"/>
<path d="M61.8799 108.775C61.4571 108.408 60.9891 107.986 60.6505 107.543C61.6229 108.251 62.6551 108.946 63.8073 109.331C66.0158 110.069 68.5067 109.762 70.5684 108.739C69.5433 108.379 68.5577 108.056 67.6481 107.443C65.0374 105.684 64.15 103.03 63.593 100.085C63.3449 98.7729 62.9588 96.6871 63.8 95.5236C64.9121 93.9853 67.1193 93.1672 68.9325 92.8546C72.0582 92.316 76.0882 92.423 78.7657 94.2972C79.5444 94.8421 80.383 95.7412 80.5217 96.7141C80.6353 97.5117 80.4982 98.368 80.3941 99.1612C80.0791 101.563 79.6344 103.908 78.1112 105.875C76.7874 107.304 75.2801 108.347 73.3636 108.829C75.4121 109.796 77.6188 110.062 79.7967 109.301C80.7695 108.961 81.5815 108.421 82.3736 107.775C82.6211 107.573 82.8424 107.312 83.1069 107.138C82.7621 107.702 82.3635 108.202 81.9309 108.703C79.6338 110.609 76.8732 111.84 73.8675 112.12C69.8116 112.498 65.0398 111.369 61.8799 108.775Z" fill="#030713"/>
<path d="M77.6659 103.109L77.8603 103.062L77.9586 103.146C77.8685 103.301 77.786 103.406 77.6416 103.517C77.1814 103.869 76.606 104.002 76.0344 103.945C75.921 103.895 75.834 103.831 75.7331 103.76C75.9405 103.59 76.2604 103.584 76.5186 103.506L77.6659 103.109Z" fill="white"/>
<path d="M65.639 103.066L66.8941 103.371C67.2487 103.44 67.8525 103.449 68.1091 103.699L67.9903 103.912C67.8813 103.952 67.7724 103.996 67.6552 104.006C66.8469 104.081 66.1944 103.564 65.639 103.066Z" fill="white"/>
<path d="M76.7163 97.2187C77.9137 97.5798 78.7767 98.86 79.3629 99.9022L79.3488 100.308L79.2745 100.336C79.0719 100.004 78.9219 99.6453 78.7005 99.3241C78.1396 98.5101 77.4567 98.0026 76.5685 97.5912C76.69 97.5874 76.8726 97.5689 76.9909 97.6043L77.1145 97.6547L77.2265 97.5619C77.038 97.4815 76.9175 97.4003 76.7651 97.2635L76.7163 97.2187Z" fill="#D3D2D2"/>
<path d="M64.6306 99.4857C64.6999 99.6257 64.6632 99.6146 64.8248 99.6772C65.3438 98.8388 66.0755 97.7199 66.9971 97.2753C67.6043 96.9824 68.4546 97.0274 69.1178 97.0237L71.9686 97.0227L74.6703 97.0345C75.3289 97.0412 76.088 97.0107 76.7163 97.2187L76.7651 97.2635C76.9175 97.4003 77.038 97.4815 77.2265 97.5619L77.1145 97.6547L76.9909 97.6043C76.8726 97.569 76.69 97.5874 76.5685 97.5912L76.0701 97.4976C74.9116 97.269 73.5832 97.3795 72.3978 97.374L69.7806 97.3681C69.1055 97.3688 68.4238 97.3563 67.767 97.5267L67.6435 97.557C66.6233 97.8145 66.1673 98.3596 65.5333 99.1374C65.3285 99.3886 65.0725 99.6569 64.9142 99.939L64.6169 100.594L64.5281 99.4588L64.5271 99.4104L64.6306 99.4857Z" fill="url(#paint13_linear_1202_83)"/>
<path d="M65.2156 96.1116C65.5207 95.7241 65.9586 95.4362 66.3427 95.1279C67.9011 93.8774 69.9588 93.6342 71.8976 93.6348C72.4696 93.6352 73.05 93.6185 73.619 93.6834C75.1166 93.854 76.2897 94.2003 77.5334 95.065C77.8443 95.2815 78.1335 95.4582 78.3812 95.7505C78.2211 95.78 78.17 95.8216 78.0201 95.7489C77.743 95.6146 77.4524 95.4826 77.1471 95.4293C75.4839 95.1393 73.6881 95.2457 72.0017 95.2396L68.9782 95.2443C68.1826 95.2557 67.2856 95.2626 66.5324 95.5415C66.074 95.7112 65.6976 96.0329 65.2156 96.1116Z" fill="url(#paint14_linear_1202_83)"/>
<path d="M65.2156 96.1116C65.6976 96.033 66.074 95.7112 66.5324 95.5415C67.2856 95.2626 68.1826 95.2557 68.9782 95.2443L72.0016 95.2396C73.6881 95.2457 75.4839 95.1394 77.1471 95.4293C77.4524 95.4826 77.743 95.6147 78.02 95.7489C78.17 95.8217 78.2211 95.78 78.3811 95.7505C78.9268 96.2409 79.6581 96.8228 79.7208 97.6108C79.7687 98.2141 79.671 98.8168 79.5397 99.4031C78.885 98.3 78.2393 97.2175 76.8911 96.8731C75.2463 96.4528 73.2599 96.6268 71.5639 96.6294C70.2885 96.6313 68.9182 96.5537 67.6564 96.7316C67.2409 96.7903 66.8862 96.8906 66.5251 97.1074C65.6678 97.6226 64.9194 98.5388 64.6306 99.4857L64.5271 99.4104C64.468 98.633 64.3649 97.7364 64.6582 96.9928C64.7861 96.6685 65.0078 96.3892 65.2156 96.1116Z" fill="white"/>
<path d="M81.5233 113.74C82.4886 112.717 83.2451 111.537 84.1389 110.455C85.1489 109.233 86.3345 108.162 87.3024 106.902C88.082 105.887 88.6488 104.727 89.2612 103.614C89.7182 102.782 90.2579 101.758 90.4716 100.836C90.6509 100.062 90.7582 99.2345 90.7183 98.4392C90.6609 97.2977 90.0062 95.9675 90.6754 94.9021C90.9989 94.3871 91.7392 93.9483 92.332 93.8149C92.5611 93.7634 92.8401 93.7396 93.0368 93.8843C93.727 94.3922 93.9621 95.8067 94.0755 96.6012C94.1395 97.5324 94.2374 98.8085 93.8807 99.6811L91.9197 106.009L91.3701 107.974L91.2283 108.306C90.5371 109.909 89.5055 111.526 88.3455 112.839C88.4937 112.839 88.6713 112.618 88.7795 112.506C88.9819 112.298 88.8002 112.503 88.9386 112.268C89.0614 112.059 89.2667 111.871 89.4042 111.66L89.8523 110.997C89.9587 110.839 90.0376 110.672 90.149 110.517C90.5033 110.023 91.0631 109.18 91.2092 108.602C91.2373 108.491 91.2927 108.408 91.3407 108.306L91.4152 108.121L91.471 107.992L91.5654 107.678C91.614 107.533 91.6407 107.399 91.6945 107.255L91.8039 106.778C91.8865 106.37 92.0264 105.959 92.1414 105.56C92.1807 105.424 92.1869 105.312 92.2345 105.173C92.3144 104.938 92.3515 104.689 92.4393 104.454L92.5138 104.155C92.547 103.991 92.5132 104.142 92.5883 103.938C92.7166 103.589 92.7801 103.221 92.9351 102.883C92.9948 102.753 92.9742 102.81 92.9863 102.678C93.0006 102.523 93.1023 102.297 93.147 102.132C93.196 101.95 93.291 101.743 93.353 101.56C93.4151 101.375 93.4477 101.221 93.5309 101.04C93.5869 100.918 93.5617 100.847 93.5939 100.732C93.6273 100.611 93.6958 100.502 93.7299 100.378C93.7707 100.23 93.7468 100.304 93.8195 100.16C93.8894 100.022 93.8686 100.088 93.8813 99.9494C93.8984 99.7638 94.0714 99.332 94.1711 99.1651L94.0966 98.9809L94.2452 98.9436L94.2835 98.9809H94.3945C94.6494 98.724 94.9113 98.3871 95.2325 98.2253L95.3628 98.1331L95.7026 97.9051C95.8139 97.8316 95.8564 97.8498 95.9587 97.8015L96.1076 97.6908L96.3498 97.5619L96.629 97.396L96.6965 97.3799C96.9339 97.3211 97.1502 97.1585 97.3772 97.0636L97.3502 96.9881C98.8873 96.1552 100.571 95.7548 101.871 94.5471L102.002 94.8262C102.003 95.8051 101.981 96.7088 101.714 97.6615C101.523 98.3407 101.166 98.9866 100.839 99.6107C99.9271 101.353 98.8035 102.952 97.4795 104.412L96.8348 105.292C95.9261 106.57 94.9819 107.827 93.9008 108.968L92.4494 110.443C92.2216 110.661 91.8466 110.926 91.6802 111.176L91.2843 111.156C90.6416 111.82 89.8137 112.4 89.0898 112.982L85.2077 116.21L85.768 115.361C86.7242 113.827 87.4126 112.125 88.2073 110.508C89.7778 107.31 91.678 104.152 91.9052 100.517C91.958 99.6717 91.9584 98.8132 91.76 97.9857L91.711 98.1044C91.6913 100.084 91.4013 101.98 90.6624 103.833C89.1575 107.606 86.0495 110.591 83.1758 113.381C81.1139 115.383 78.7653 117.471 75.9834 118.398C74.6905 118.829 73.2539 118.986 71.8938 118.972C68.4886 118.938 65.5163 117.622 63.0468 115.324C63.4983 115.443 63.6488 115.673 64.0242 115.935L64.0427 115.653C63.8121 115.532 63.5958 115.404 63.4977 115.154C63.3531 114.785 63.0291 114.492 62.762 114.203C62.2615 113.662 61.5943 113.01 61.2652 112.356C61.21 112.246 61.1808 112.181 61.0979 112.083C60.7712 111.702 60.4391 111.331 60.1606 110.912L60.691 111.438L60.7525 111.549C60.9351 111.77 61.1394 111.979 61.4044 112.099L61.4666 112.126L62.1034 112.787C62.1951 112.72 62.2031 112.727 62.2626 112.633C62.5733 112.142 61.8833 110.634 61.7276 110.075C61.666 109.854 61.5726 109.325 61.6849 109.112L61.8799 108.775C65.0398 111.369 69.8116 112.498 73.8675 112.12C76.8732 111.84 79.6338 110.609 81.9309 108.703L81.9438 108.876C82.054 108.773 82.0977 108.674 82.2542 108.674C82.2542 108.811 82.2628 108.737 82.2173 108.895L82.282 109.12C82.3434 109.376 82.2173 109.777 82.1607 110.033C81.9313 111.074 81.5535 112.037 81.4939 113.111C81.4824 113.318 81.4445 113.546 81.5233 113.74Z" fill="url(#paint15_linear_1202_83)"/>
<path d="M95.3084 106.398C96.4623 104.475 97.7162 102.288 98.0698 100.058L98.1653 100.06C98.1316 100.961 98.0426 101.831 97.8444 102.713L97.5506 103.773C97.5182 103.872 97.4052 104.107 97.4052 104.2C97.4052 104.275 97.4547 104.342 97.4795 104.412L96.8348 105.292C95.9261 106.57 94.9818 107.827 93.9007 108.968L92.4494 110.443C92.2216 110.661 91.8466 110.926 91.6802 111.176L91.2843 111.156C92.8107 109.669 94.0743 108.129 95.3084 106.398Z" fill="url(#paint16_linear_1202_83)"/>
<path d="M67.3708 116.509C68.5633 116.728 69.6823 116.959 70.8987 117.04C73.4321 117.208 76.2594 116.8 78.6631 115.979L78.6415 116.193L78.7271 116.27C78.5015 116.507 78.1855 116.557 77.9002 116.707C77.5135 116.909 77.0776 117.002 76.662 117.131C75.0943 117.616 73.6823 117.803 72.0497 117.863C71.1152 117.897 70.1916 117.927 69.2646 117.776C68.5156 117.654 67.5688 117.47 67.0035 116.93L66.8577 116.956C66.668 116.839 66.555 116.792 66.5002 116.557C66.4863 116.498 66.5028 116.435 66.5133 116.377C66.6581 116.411 66.7789 116.444 66.9177 116.492C67.0665 116.545 67.2166 116.522 67.3708 116.509Z" fill="#B7B6B6"/>
<path d="M81.9309 108.703L81.9438 108.876C82.054 108.773 82.0977 108.674 82.2543 108.674C82.2543 108.811 82.2628 108.737 82.2173 108.895L82.2821 109.12C82.3434 109.376 82.2173 109.777 82.1607 110.033C81.9313 111.074 81.5535 112.037 81.4939 113.111C81.4824 113.318 81.4445 113.547 81.5233 113.74C81.2073 114.188 80.7668 114.629 80.3229 114.947L79.8704 115.279L79.761 115.351L79.2745 115.641C79.0688 115.762 78.8541 115.832 78.6632 115.979C76.2595 116.8 73.4321 117.208 70.8987 117.04C69.6823 116.959 68.5633 116.728 67.3708 116.509C66.8576 116.287 66.2961 116.19 65.7838 115.947C65.1659 115.655 64.6145 115.152 64.0987 114.71C63.3982 114.111 62.6756 113.513 62.1034 112.787C62.1951 112.72 62.2031 112.727 62.2627 112.633C62.5733 112.142 61.8833 110.634 61.7276 110.075C61.666 109.854 61.5727 109.325 61.6849 109.112L61.8799 108.775C65.0398 111.369 69.8117 112.498 73.8675 112.12C76.8732 111.84 79.6338 110.609 81.9309 108.703Z" fill="#D3D2D2"/>
<path d="M47.9429 53.2152C48.4061 52.4767 49.3027 51.8045 49.9857 51.2651C54.2183 47.922 59.6019 45.6186 64.8563 44.4099C69.5221 43.3367 74.5931 43.089 79.3117 43.9999C81.3005 44.3838 83.2023 44.9922 85.0842 45.7293C86.7477 46.3805 88.3748 47.1118 89.894 48.0516C91.6282 49.1244 93.4185 50.408 94.9205 51.7834C95.4109 52.2326 95.8195 52.7565 96.3045 53.2038C96.4294 53.319 96.491 53.4299 96.5681 53.5799C97.7987 54.4812 98.8683 55.5285 99.861 56.6794C100.363 57.2612 100.822 57.9193 101.386 58.4412C101.701 58.5525 102.027 58.9973 102.23 59.2556C103.447 60.8036 104.255 62.6122 105.234 64.3065C105.95 65.5462 106.797 66.6806 107.765 67.738C108.482 68.5219 109.21 69.2925 109.993 70.0129L112.56 72.2616C113.271 72.8718 114.208 73.5682 114.629 74.4103C115.044 75.2406 115.273 76.275 115.506 77.1706L116.481 80.7739L116.959 82.3097C117.048 82.5752 117.192 82.8933 117.222 83.1675C116.873 82.6413 116.529 82.1099 116.121 81.6254C115.709 81.1365 115.24 80.6868 114.853 80.1796C114.568 79.8069 114.343 79.3961 114.088 79.0044C113.927 79.013 113.922 78.9873 113.792 79.0981C112.71 76.9245 111.723 74.9684 110.016 73.1816C109.643 72.792 109.181 72.2992 108.705 72.0389L109.026 77.5456C109.076 78.0604 109.14 78.5916 109.248 79.0973C109.304 79.3633 109.434 79.6585 109.416 79.929L109.232 79.61C108.545 78.4756 107.287 77.8808 106.031 77.5666C104.512 77.1869 102.863 77.1788 101.31 77.2753C97.4891 77.5128 93.4926 78.5418 90.2001 80.5148C88.4039 81.5908 86.9616 82.9758 86.4577 85.043C86.2443 85.9179 86.3387 86.7598 86.55 87.6263C87.0855 89.821 88.3185 91.8865 89.5023 93.7954C87.6754 92.2289 85.7528 90.8087 83.8033 89.3974C82.0423 88.1224 80.0063 86.3592 77.8447 85.8823C76.8381 85.6604 75.8525 85.7654 74.9881 86.337C73.1997 87.5199 72.3492 89.9138 71.9905 91.9054C71.8018 89.9833 70.7031 87.6982 69.3137 86.3193C68.6628 85.6732 67.8493 85.2871 66.9203 85.2944C66.1445 85.3007 65.4394 85.57 64.7621 85.9206C62.7362 86.9695 60.8692 88.5718 59.0728 89.971C57.43 91.2502 55.7402 92.4678 54.273 93.9483C54.4195 93.4614 55.0251 92.8067 55.309 92.3546C56.1557 91.0051 56.8189 89.6871 57.297 88.17C57.6145 87.163 57.8495 86.1453 57.6714 85.0858C57.3935 83.4344 56.0379 81.9665 54.7083 81.0316C53.581 80.239 52.2709 79.6607 50.9892 79.161C47.1868 77.6789 42.7432 76.8547 38.6721 77.5493C37.1121 77.8155 35.5476 78.3055 34.6033 79.6389L34.9624 72.3615C34.5857 72.617 34.2031 73.1027 33.8933 73.4456C32.8036 74.6513 31.8189 75.922 30.8915 77.2531C30.5852 77.6926 30.3326 78.2049 29.9983 78.6187L29.9397 78.6859L29.79 78.6767C28.6936 79.6458 27.6721 80.6793 26.7044 81.7754L25.4217 83.3137L26.2754 80.0902L27.2859 76.7562C27.5146 76.1032 27.732 75.4274 28.1082 74.8396C28.6042 74.065 29.5751 73.4927 30.3219 72.9768C31.3462 72.2689 32.3955 71.5768 33.3606 70.7907C34.3924 69.9502 35.3162 68.9722 36.214 67.9953C38.2897 65.7361 39.554 62.9 41.1892 60.3318C41.6152 59.6629 42.0397 58.8776 42.5919 58.3076C44.1409 56.2955 45.7247 54.5291 47.9429 53.2152Z" fill="url(#paint17_linear_1202_83)"/>
<path d="M90.7943 67.2273C91.1878 67.0744 91.5144 66.8524 91.8889 66.684C92.3128 66.4933 92.7676 66.2682 93.1494 66.004L93.2149 65.9563L93.2277 66.1096C92.8318 66.3718 92.0673 66.6344 91.7879 66.979L91.8643 67.0425C91.796 67.1876 91.7181 67.2668 91.6011 67.3761L91.6006 67.4365L91.391 67.5396C90.9463 67.5972 90.5248 67.7883 90.0745 67.8127L90.0461 67.7557C90.2479 67.4903 90.5044 67.3779 90.7943 67.2273Z" fill="#393B46"/>
<path d="M93.2276 66.1096C94.5366 65.3992 95.5757 64.6754 97.0759 64.3525C99.0695 63.923 100.542 64.4559 102.362 65.168C102.851 65.3595 103.421 65.4957 103.866 65.7676L104.15 65.8224C103.899 65.9752 103.585 65.9659 103.307 66.0559C102.613 66.2802 101.957 66.6105 101.262 66.8346C100.774 66.992 100.18 67.025 99.7207 67.232C99.6471 67.2652 99.5632 67.3523 99.506 67.4044C99.1332 67.5037 98.7122 67.4636 98.3264 67.4579L95.533 67.3448L91.391 67.5396L91.6005 67.4364L91.6011 67.3761C91.7181 67.2668 91.796 67.1876 91.8643 67.0425L91.7878 66.979C92.0673 66.6344 92.8318 66.3718 93.2276 66.1096Z" fill="#747373"/>
<path d="M91.8643 67.0425C92.5275 66.7919 93.3266 66.6944 94.0289 66.614C95.9184 66.3972 97.8049 66.51 99.6878 66.3189C101.099 66.1758 102.439 65.7302 103.866 65.7676L104.15 65.8224C103.899 65.9751 103.585 65.9659 103.307 66.0559C102.613 66.2802 101.957 66.6105 101.262 66.8345C100.774 66.992 100.18 67.025 99.7207 67.232C99.6471 67.2652 99.5632 67.3523 99.506 67.4044C99.1332 67.5037 98.7122 67.4636 98.3264 67.4579L95.533 67.3448L91.391 67.5396L91.6005 67.4364L91.6011 67.3761C91.7181 67.2668 91.796 67.1876 91.8643 67.0425Z" fill="#2A2B36"/>
<path d="M84.7239 70.8465C85.1911 70.7528 85.5305 70.3822 85.889 70.088C87.1483 69.0544 88.2202 67.9192 89.3623 66.7679C89.7129 66.4147 90.5614 65.5867 91.0647 65.584C91.0746 65.792 91.102 66.0143 91.0617 66.2193C90.9852 66.6061 90.9739 66.8481 90.7943 67.2273C90.5044 67.3779 90.2479 67.4903 90.0461 67.7557L90.0745 67.8127C90.5248 67.7883 90.9463 67.5972 91.391 67.5397L95.533 67.3449L98.3264 67.4579C98.7122 67.4636 99.1332 67.5037 99.506 67.4044C100.053 67.3582 100.633 67.3191 101.164 67.1852C101.531 67.093 101.876 66.921 102.238 66.8106C101.319 67.6824 100.519 68.6473 99.6381 69.5531L96.4584 72.584C94.4533 74.4255 92.2419 76.5181 89.5903 77.3634C88.0484 77.8548 86.4024 77.8935 84.7972 77.8589L83.1105 77.8206C82.9868 77.8218 82.69 77.8128 82.5901 77.8637C82.2942 78.0148 81.9446 78.3779 81.7025 78.6047L78.4133 82.3466L77.2454 83.9754C77.4003 83.3932 77.6921 82.8038 77.9181 82.2422C77.9515 81.3174 78.6898 80.1376 79.036 79.2617C79.3746 78.4054 79.6547 77.5499 79.8094 76.6422C79.8861 76.193 79.8934 75.7067 79.8823 75.252C79.8771 75.0342 79.7993 74.6281 79.8775 74.4341C79.9254 74.3156 80.0801 74.1566 80.1594 74.0479C80.9781 73.9329 81.6044 73.6282 82.3097 73.2282C83.247 72.5476 83.9934 71.7346 84.7239 70.8465Z" fill="#030713"/>
<path d="M80.1594 74.0479C80.9781 73.9329 81.6044 73.6282 82.3097 73.2282C82.1631 74.2965 81.7422 75.302 81.3032 76.2823C80.3981 78.3032 79.2203 80.2127 78.109 82.1271L77.9182 82.2422C77.9515 81.3174 78.6898 80.1376 79.036 79.2617C79.3746 78.4054 79.6547 77.5499 79.8094 76.6422C79.8861 76.193 79.8934 75.7067 79.8823 75.252C79.8772 75.0342 79.7993 74.6281 79.8775 74.4341C79.9254 74.3156 80.0801 74.1566 80.1594 74.0479Z" fill="#2A2B36"/>
<path d="M95.8546 68.0859L96.6092 68.0334C96.2934 70.5662 95.2776 72.9223 93.3891 74.7085C90.6122 77.3347 87.4794 77.5143 83.8432 77.4172L82.9373 77.4025C83.8887 75.814 84.6562 74.1385 85.8151 72.6764C87.1199 71.0303 88.7263 69.843 90.7078 69.1165C92.3297 68.5219 94.1439 68.2921 95.8546 68.0859Z" fill="#0090F9"/>
<path d="M39.8828 66.112C39.7249 66.0426 39.7813 66.097 39.7053 65.9573C40.5514 65.6363 41.2932 65.1321 42.1064 64.7497C44.1347 63.7962 46.2844 63.8937 48.3526 64.6367L48.4186 64.5514C49.1791 64.9149 49.8312 65.3725 50.5613 65.7729L51.0195 66.078L51.3879 65.3725L51.8648 65.7304L53.802 67.4376C54.4773 67.9778 55.216 68.3871 55.925 68.8742L57.7023 70.1047C58.0684 70.3486 58.4197 70.6295 58.8692 70.6796C59.8575 71.7181 60.8657 72.7421 62.1166 73.4723C62.325 74.6167 62.5685 75.8095 62.9713 76.9036C63.4653 78.2454 64.1859 79.5046 64.9069 80.7367C65.5824 81.8912 66.3782 83.0897 66.7805 84.3638L61.1422 77.8582C60.8693 77.9242 60.6018 77.9454 60.3221 77.9649C58.4567 78.0954 56.2804 78.1279 54.4538 77.6809C52.5501 77.2148 50.7947 76.1142 49.2603 74.9342C47.1261 73.2932 45.1646 71.3499 43.2858 69.4283C42.4001 68.5227 41.5926 67.5033 40.6334 66.6759L40.6223 66.6777C40.3518 66.5047 40.1099 66.3392 39.8828 66.112Z" fill="#030713"/>
<path d="M39.8828 66.112C39.7249 66.0426 39.7813 66.097 39.7053 65.9573C40.5514 65.6363 41.2932 65.1321 42.1064 64.7497C44.1347 63.7962 46.2844 63.8937 48.3526 64.6367L48.4186 64.5514C49.1791 64.9149 49.8312 65.3725 50.5613 65.7729L51.0195 66.078L51.0954 66.1397C51.2233 66.2399 51.3544 66.3034 51.492 66.3866C51.7212 66.5254 51.9266 66.6928 52.1624 66.8289C52.5471 67.0512 52.7707 67.2562 53.0268 67.6108C50.5132 67.3156 48.014 67.4901 45.498 67.3728L43.7617 67.2249C43.4598 67.1862 42.8967 67.0325 42.6258 67.1367L42.707 67.2841L42.5918 67.4034C42.0005 67.0474 41.4202 66.8312 40.7677 66.6097L40.6334 66.6759L40.6223 66.6777C40.3518 66.5047 40.1099 66.3392 39.8828 66.112Z" fill="#747373"/>
<path d="M48.3527 64.6367L48.4186 64.5514C49.1791 64.9148 49.8312 65.3725 50.5613 65.7729L51.0195 66.0779L51.0954 66.1397C51.2233 66.2399 51.3544 66.3034 51.4921 66.3866C51.7213 66.5253 51.9266 66.6928 52.1624 66.8288C52.5471 67.0512 52.7708 67.2562 53.0268 67.6108C50.5133 67.3155 48.014 67.4901 45.4981 67.3728L43.7617 67.2249C43.4598 67.1862 42.8967 67.0325 42.6258 67.1367L42.7071 67.2841L42.5919 67.4034C42.0006 67.0474 41.4202 66.8312 40.7677 66.6097L40.6335 66.6759L40.6223 66.6777C40.3518 66.5047 40.1099 66.3392 39.8829 66.112C40.644 66.2893 41.4697 66.2855 42.2492 66.3081L46.9121 66.3587C48.2325 66.371 49.7468 66.3455 51.0114 66.7598L52.5005 67.2965C52.2871 67.0732 51.9721 66.9069 51.7159 66.7339L50.2541 65.7216L48.3527 64.6367Z" fill="#2A2B36"/>
<path d="M46.8876 68.4739L51.5669 69.0896C54.6618 69.7939 57.0705 71.3444 58.6893 74.0895C59.331 75.1777 59.8395 76.3263 60.5188 77.3956C56.7887 77.6199 53.4229 77.5411 50.354 75.1416C48.2027 73.4595 47.2005 71.1156 46.8876 68.4739Z" fill="#0090F9"/>
<path d="M47.9429 53.2152C49.543 52.9084 51.1121 53.0946 52.6913 53.4384C54.7548 53.8875 56.6745 54.5631 58.436 55.7386C59.5964 56.5129 60.5718 57.444 61.5045 58.4699C61.9123 58.9183 62.3556 59.5456 62.8391 59.8974C62.2543 58.9682 61.842 57.9952 61.3325 57.0281C60.5575 55.5572 59.5827 54.3502 58.3616 53.2211C59.5708 53.6632 60.8324 54.0589 61.9637 54.6767C65.3735 56.5386 67.8427 60.2312 69.448 63.6619C70.2842 65.4485 70.7058 67.1593 70.8846 69.1142C70.2669 68.5683 69.7701 67.9267 69.2352 67.3047L67.1799 65.0741C68.0046 66.3131 68.5601 67.6265 68.8118 69.0916C68.9059 70.2501 68.7995 71.5005 67.9921 72.4216C67.3919 73.1063 66.6303 73.5083 65.7558 73.7412L65.6211 73.778C64.4223 74.0895 63.2476 73.9124 62.1167 73.4723C60.8658 72.7421 59.8576 71.7181 58.8692 70.6796L57.7258 69.101C57.0207 68.0248 56.453 66.8853 55.903 65.7263C55.3814 64.6271 54.957 63.5969 54.8138 62.3821L54.6881 62.3313C54.7173 63.6639 54.8577 65.0253 55.1524 66.3262C54.9155 66.1385 54.7274 65.8598 54.5339 65.6257L53.2745 64.0775C51.2962 61.6699 49.2655 59.3812 47.6398 56.7146C46.029 56.4757 44.6968 57.3664 43.3482 58.0587C43.1224 58.1749 42.8358 58.384 42.5919 58.3076C44.1409 56.2955 45.7247 54.5291 47.9429 53.2152Z" fill="white"/>
<path d="M74.7525 70.0744L74.6725 69.6429C74.5146 68.2984 75.1454 66.6443 75.9587 65.5885L75.8854 65.5156L72.4334 69.0794C72.9413 67.1546 73.5131 65.1906 74.364 63.3853C75.9909 59.9346 78.5487 56.3647 81.9748 54.5051C82.9007 54.0025 83.9349 53.6642 84.9255 53.3082L80.7598 59.9354C81.3102 59.5982 81.8611 58.843 82.3269 58.364C84.0291 56.6126 85.8026 55.2541 88.0885 54.3074C90.5188 53.3008 94.0678 52.5731 96.568 53.5799C97.7987 54.4812 98.8682 55.5285 99.8609 56.6794C100.363 57.2612 100.822 57.9193 101.386 58.4412L101.202 58.512C99.7714 57.6599 98.0398 56.9041 96.3766 56.6483C94.7951 59.3938 92.6449 61.5415 90.5357 63.8738L88.0655 66.7832L88.6617 61.2197L88.3932 61.9036C88.2035 63.4545 87.6913 64.793 87.0833 66.2222C86.3909 67.85 85.6351 69.3251 84.7239 70.8465C83.9933 71.7346 83.2469 72.5476 82.3096 73.2282C81.6043 73.6282 80.9781 73.9329 80.1594 74.0479C78.9937 74.1013 77.9706 73.9177 76.9636 73.318C75.7536 72.5974 75.08 71.4032 74.7525 70.0744Z" fill="white"/>
<defs>
<linearGradient id="paint0_linear_1202_83" x1="29.2576" y1="8.38236" x2="29.3859" y2="9.72066" gradientUnits="userSpaceOnUse">
<stop stop-color="#767476"/>
<stop offset="1" stop-color="#898989"/>
</linearGradient>
<linearGradient id="paint1_linear_1202_83" x1="100.935" y1="30.2803" x2="105.034" y2="22.5472" gradientUnits="userSpaceOnUse">
<stop stop-color="#1E202A"/>
<stop offset="1" stop-color="#393839"/>
</linearGradient>
<linearGradient id="paint2_linear_1202_83" x1="39.2532" y1="13.1663" x2="35.5081" y2="23.0391" gradientUnits="userSpaceOnUse">
<stop stop-color="#8F9091"/>
<stop offset="1" stop-color="#C2C0BF"/>
</linearGradient>
<linearGradient id="paint3_linear_1202_83" x1="104.666" y1="13.954" x2="109.388" y2="20.8365" gradientUnits="userSpaceOnUse">
<stop stop-color="#999799"/>
<stop offset="1" stop-color="#C2C1C0"/>
</linearGradient>
<linearGradient id="paint4_linear_1202_83" x1="125.324" y1="26.5462" x2="111.002" y2="40.7011" gradientUnits="userSpaceOnUse">
<stop stop-color="#25272F"/>
<stop offset="1" stop-color="#43434F"/>
</linearGradient>
<linearGradient id="paint5_linear_1202_83" x1="71.8183" y1="18.0321" x2="71.9443" y2="5.02618" gradientUnits="userSpaceOnUse">
<stop stop-color="#007CE2"/>
<stop offset="1" stop-color="#49CBFF"/>
</linearGradient>
<linearGradient id="paint6_linear_1202_83" x1="96.1096" y1="22.9753" x2="93.6798" y2="26.5937" gradientUnits="userSpaceOnUse">
<stop stop-color="#002C79"/>
<stop offset="1" stop-color="#004785"/>
</linearGradient>
<linearGradient id="paint7_linear_1202_83" x1="21.6985" y1="79.7543" x2="20.2359" y2="73.2932" gradientUnits="userSpaceOnUse">
<stop stop-color="#031C45"/>
<stop offset="1" stop-color="#003974"/>
</linearGradient>
<linearGradient id="paint8_linear_1202_83" x1="96.9493" y1="46.5219" x2="85.3555" y2="54.8417" gradientUnits="userSpaceOnUse">
<stop stop-color="#003672"/>
<stop offset="1" stop-color="#1265A0"/>
</linearGradient>
<linearGradient id="paint9_linear_1202_83" x1="39.2696" y1="132.314" x2="46.1468" y2="95.181" gradientUnits="userSpaceOnUse">
<stop stop-color="#1F90E3"/>
<stop offset="1" stop-color="#54F9FF"/>
</linearGradient>
<linearGradient id="paint10_linear_1202_83" x1="73.6842" y1="42.2132" x2="73.7111" y2="39.8352" gradientUnits="userSpaceOnUse">
<stop stop-color="#0065B4"/>
<stop offset="1" stop-color="#1782CA"/>
</linearGradient>
<linearGradient id="paint11_linear_1202_83" x1="107.506" y1="124.091" x2="99.1736" y2="100.985" gradientUnits="userSpaceOnUse">
<stop stop-color="#009BFF"/>
<stop offset="1" stop-color="#88FDFF"/>
</linearGradient>
<linearGradient id="paint12_linear_1202_83" x1="103.42" y1="111.164" x2="102.053" y2="83.7637" gradientUnits="userSpaceOnUse">
<stop/>
<stop offset="1" stop-color="#2B2D34"/>
</linearGradient>
<linearGradient id="paint13_linear_1202_83" x1="71.8418" y1="97.9199" x2="71.7846" y2="96.9239" gradientUnits="userSpaceOnUse">
<stop stop-color="#CCCBC9"/>
<stop offset="1" stop-color="#F0EFF6"/>
</linearGradient>
<linearGradient id="paint14_linear_1202_83" x1="72.0313" y1="93.6131" x2="71.8308" y2="95.5569" gradientUnits="userSpaceOnUse">
<stop stop-color="#353536"/>
<stop offset="1" stop-color="#504F50"/>
</linearGradient>
<linearGradient id="paint15_linear_1202_83" x1="66.6275" y1="97.6874" x2="94.8815" y2="111.592" gradientUnits="userSpaceOnUse">
<stop stop-color="#7E7C7C"/>
<stop offset="1" stop-color="white"/>
</linearGradient>
<linearGradient id="paint16_linear_1202_83" x1="96.2761" y1="107.673" x2="93.2563" y2="103.594" gradientUnits="userSpaceOnUse">
<stop stop-color="#606367"/>
<stop offset="1" stop-color="#E8DDD3"/>
</linearGradient>
<linearGradient id="paint17_linear_1202_83" x1="69.4904" y1="43.6407" x2="71.6398" y2="93.6344" gradientUnits="userSpaceOnUse">
<stop stop-color="#393A3E"/>
<stop offset="1" stop-color="#5A5959"/>
</linearGradient>
</defs>
</svg>
