<svg width="1536" height="2008" viewBox="0 0 1536 2008" fill="none" xmlns="http://www.w3.org/2000/svg">
<path d="M304.374 237.726L499.691 386.157C510.311 393.968 520.57 399.985 532.805 404.892C533.715 405.257 537.216 406.983 538.003 406.924C538.646 406.876 547.411 398.334 548.728 397.188L573.92 376.376L643.669 321.073C662.98 306.066 681.941 290.516 703.639 279.007C717.115 271.859 732.073 267.274 747.148 265.079C767.81 262.071 791.742 262.915 811.52 270.088C840.642 280.65 866.675 303.257 890.682 322.374L960.468 379.389L996.327 408.513C1002.73 406.522 1008.32 403.657 1013.98 400.118C1030.5 389.788 1045.83 376.602 1061.24 364.672L1152.25 293.289C1177.2 273.756 1202.7 254.385 1229.57 237.555L1263.93 311.074C1274.85 337.314 1283.98 364.116 1290.14 391.893C1299.19 432.743 1301.99 474.143 1301.69 515.887C1301.39 558.356 1297.56 601.734 1288.29 643.19C1281.12 675.26 1270.43 706.724 1257.93 737.091C1259.36 749.83 1262.75 762.461 1265.7 774.92C1276.7 821.331 1291.14 871.903 1319.21 911.156C1331.74 928.682 1347.05 942.743 1363.41 956.538L1393.53 980.82C1411.99 996.535 1428.7 1013.66 1441.85 1034.19C1482.49 1097.66 1469.1 1176.51 1453.82 1245.71C1456.66 1246.31 1460.68 1245.43 1463.57 1244.95C1484.16 1241.56 1512.86 1235.08 1525.56 1217.06L1526.27 1216.04C1522.88 1231.09 1521.31 1246.22 1515.94 1260.81C1503.48 1294.71 1479.89 1329.15 1450.11 1350.19C1442.61 1355.48 1434.47 1359.31 1426.19 1363.15L1452.09 1361.83C1462.64 1361.36 1471.55 1361.71 1481.44 1357.55L1429.51 1409.76C1387.46 1450.13 1340.64 1482.85 1288.77 1509.28L1225.26 1539.06L1137.78 1572.82C1105.96 1585.56 1075.25 1600.03 1044.81 1615.8L860.05 1717.21L805.647 1749.43C794.016 1756.43 781.35 1765.43 768.652 1770.13C760.224 1767.39 751.621 1761.3 743.792 1757.07L695.409 1731.44L575.633 1669.9L464.58 1609.8L320.19 1538.48C275.4 1516.98 229.012 1495.28 187.236 1468.28C154.88 1447.35 124.298 1423.15 95.9475 1397.07C82.645 1384.83 70.3138 1371 56.5446 1359.4L55.5767 1358.59C71.7799 1364.19 88.7549 1362.92 105.539 1360.81L88.7966 1349.88C64.4485 1332.43 45.0258 1311.16 30.0477 1285.12C24.1794 1274.92 18.8452 1264.3 15.6051 1252.94C12.1076 1240.68 11.1487 1227.84 9.0802 1215.29L10.7173 1217.43C15.9003 1223.89 21.9893 1226.93 29.395 1230.17C45.4911 1237.22 63.8258 1241.06 81.2217 1243.08L72.5027 1207.62C68.4426 1188.95 65.8534 1169.46 65.1459 1150.34C64.3312 1128.33 65.821 1105.96 71.6997 1084.66C83.0012 1043.72 109.902 1010.17 141.303 982.556C163.811 962.759 186.933 944.615 206.005 921.201C236.587 883.657 254.512 838.768 266.574 792.239L274.901 755.389C276.089 749.881 278.494 742.685 278.025 737.08C277.686 733.054 275.659 728.991 274.118 725.307L266.581 706.602L255.197 670.389C240.994 618.359 234.801 566.802 234.433 512.916C234.232 483.295 235.438 453.886 239.977 424.58C247.422 376.519 261.392 331.744 281.208 287.453C288.651 270.819 298.44 254.97 304.374 237.726Z" fill="#030713"/>
<path d="M307.935 346.497C310.839 336.263 317.119 325.607 321.924 316.098L322.939 316.505L324.732 320.897L324.382 322.468C323.829 325.086 323.806 327.749 323.722 330.414L323.109 330.76C319.049 333.159 315.09 340.633 311.75 344.517L311.947 343.224C312.052 341.954 312.181 342.279 311.56 341.64L310.929 343.116C310.194 344.769 309.443 345.474 307.935 346.497Z" fill="url(#paint0_linear_1201_82)"/>
<path d="M482.166 400.042C489.601 404.531 498.121 410.262 506.58 412.431L501.743 464.531C501.192 474.057 501.5 484.029 499.681 493.406C494.103 489.493 488.228 485.461 483.362 480.685C484.247 479.387 484.478 478.605 484.572 477.028C485.116 467.739 483.519 458.273 483.385 448.978C483.152 433.04 485.062 415.68 482.166 400.042Z" fill="#2A2B36"/>
<path d="M64.255 1294.12C54.9117 1283.43 47.4494 1272.02 40.7325 1259.54C60.1769 1265.51 79.4047 1269.75 99.8103 1270.29L102.191 1271.68L102.158 1273.06C102.077 1283.98 107.308 1293.26 108.36 1303.86C108.569 1305.97 109.055 1308.17 107.993 1310.1L82.5301 1301.32C76.5163 1299.01 70.4665 1295.64 64.255 1294.12Z" fill="#66D4FF"/>
<path d="M314.39 702.36L318.228 707.671C321.744 707.648 330.567 697.523 333.264 694.667C335.324 692.485 333.484 694.619 334.912 692.134C336.411 689.53 339.533 687.912 341.193 685.058L343.745 682.504L343.75 681.521C345.46 679.986 346.325 679.16 347.474 677.195C348.385 675.639 349.688 675.122 350.615 673.264C351.04 672.417 351.869 671.576 352.456 670.857C353.335 669.781 353.992 668.724 354.738 667.563C355.665 666.12 355.318 666.653 356.369 665.365C357.252 664.283 357.914 663.229 358.664 662.061L363.387 654.995L364.834 652.514C365.948 650.443 367.472 648.608 368.674 646.53L369.656 645.155L370.393 644.025L374.367 638.473L375.741 636.703C374.702 635.959 374.727 635.824 373.448 635.707C371.39 635.52 366.819 633.638 364.945 632.574L356.591 628.36C353.819 627.098 351.771 624.959 348.848 623.925L349.627 625.892C347.539 627.561 347.229 627.486 344.531 627.664L346.486 629.821L346.298 631.591L347.474 632.377L348.063 631.402C349.221 632.562 349.623 632.43 349.635 634.147C350.554 635.793 351.551 637.049 352.768 638.473C352.768 641.112 351.534 640.775 351.982 643.974L350.027 645.547L350.023 646.53L349.434 647.514L348.848 648.686L347.671 648.692L347.667 649.868L346.101 650.265L346.097 651.441C345.186 651.441 345.667 651.558 344.727 650.856C343.335 652.347 342.606 653.619 340.605 654.198L340.6 655.372L339.034 656.555L339.03 657.538L338.446 658.325L339.42 659.308V661.273L338.249 661.86L337.072 660.88L335.898 660.876C334.677 659.599 334.639 659.295 333.932 657.735L333.345 656.949L332.753 655.771H331.968L336.679 665.598L336.85 666.311C337.564 669.171 341.132 672.67 340.213 675.419C338.997 673.989 338.281 672.779 337.468 671.098L322.946 642.01L322.55 641.026L319.409 634.143L317.839 630.805L317.445 630.044C316.461 628.073 317.747 630.683 316.664 627.857L314.698 623.135L312.343 617.631L310.747 612.987C309.797 609.678 311.095 613.813 309.598 610.559C308.917 609.078 308.995 608.085 308.027 606.627L308.019 605.055L307.242 604.269L307.117 603.671L303.672 593.827C302.862 591.797 301.75 588.306 301.738 586.184L300.961 585.398L300.812 584.756C299.307 578.772 296.798 572.97 295.266 566.944C294.774 565.02 294.558 563.764 295.069 561.814H295.653L296.25 562.99C296.415 560.742 296.501 558.503 297.027 556.306L298.591 556.7C298.817 558.017 298.741 558.941 298.804 560.237C298.967 563.531 301.802 568.022 303.308 570.926C314.045 591.625 330.175 609.246 349.38 622.347C358.423 628.515 367.608 633.113 378.276 635.728C362.439 655.787 350.651 677.929 332.692 696.554C328.174 701.243 323.549 706.355 318.14 710.007C316.264 707.443 315.113 705.47 314.39 702.36Z" fill="#2A2B36"/>
<path d="M372.991 490.409C397.38 506.623 420.845 517.386 450.864 511.238L457.629 509.605C459.922 509.477 463.113 508.034 465.328 507.296L482.602 501.052L490.426 504.485L437.179 567.303C435.851 563.908 434.876 560.243 432.861 557.186C420.334 538.179 404.442 522.529 388.107 506.848C384.059 502.962 379.38 499.471 375.535 495.444C374.212 494.058 373.578 492.196 372.991 490.409Z" fill="#2A2B36"/>
<path d="M1162.41 488.589C1162.34 489.355 1162.39 491.657 1162.07 492.225C1160.73 494.649 1156.5 497.584 1154.44 499.698C1141.06 513.369 1126.1 525.792 1113.56 540.234C1105.82 549.156 1099.14 558.711 1093.52 569.092C1087.92 560.453 1045.87 510.037 1045.84 508.521C1047.76 506.789 1049.58 504.812 1052.03 503.868L1080.86 511.446C1085.47 512.501 1090.3 512.36 1095 512.31C1119.15 512.054 1142.32 501.172 1162.41 488.589Z" fill="url(#paint1_linear_1201_82)"/>
<path d="M328.62 328.418C340.366 346.418 350.462 365.599 362.711 383.246C385.868 416.612 413.1 442.862 443.822 469.117L482.602 501.052L465.328 507.296C463.113 508.034 459.922 509.477 457.629 509.605L457.518 507.969C448.674 505.512 440.443 496.372 433.732 490.292C417.954 475.996 402.48 461.474 389.08 444.86C379.972 433.567 372.711 421.262 365.156 408.923C352.56 388.347 340.238 368.254 332.393 345.29C330.469 339.656 327.992 334.451 328.62 328.418Z" fill="url(#paint2_linear_1201_82)"/>
<path d="M1178.75 371.782L1209.62 313.88L1210.69 313.96L1211.89 316.505L1207.61 326.293C1206.96 327.576 1206.9 328.074 1206.98 329.465L1205.65 331.178L1188.86 369.216C1172.09 415.505 1144.55 454.507 1108.49 487.579L1093.15 500.3C1088.6 503.778 1084 506.466 1080.86 511.446L1052.03 503.868C1069.91 490.575 1086.81 475.921 1103.17 460.818C1132.28 433.948 1158.21 405.851 1178.75 371.782Z" fill="url(#paint3_linear_1201_82)"/>
<path d="M1261.6 377.046C1270.79 402.957 1274.33 433.076 1276.56 460.38C1283.05 539.746 1278.32 620.277 1248.21 694.854L1239.83 714.347C1238.59 717.235 1237.53 721.323 1235.83 723.887L1235.29 724.435L1215.56 705.988C1221.25 695.026 1226.4 684.152 1231.01 672.687C1233.25 667.108 1236.03 661.333 1236.82 655.339L1236.73 655.203C1236.74 653.567 1236.66 652.54 1237.41 651.04C1238.6 648.654 1239.72 646.375 1240.25 643.731L1240.81 641.224L1241.59 640.437L1241.6 638.865C1242.85 637.602 1242.82 635.866 1243.17 634.147L1243.94 633.361L1243.95 631.788C1245.33 629.717 1245.28 627.788 1245.91 625.502C1246.28 624.175 1246.49 621.942 1247.09 620.78C1248.02 619.019 1247.87 618.856 1247.88 616.849C1249.14 615.268 1249.29 614.077 1249.38 612.106L1249.45 610.559C1250.62 609.376 1250.23 609.009 1250.23 607.414C1251.5 606.132 1251.02 605.218 1251.02 603.482C1252.19 602.3 1251.8 601.933 1251.8 600.337C1252.64 599.249 1252.82 598.786 1253 597.377L1253.76 592.869C1254.13 591.493 1254.42 591.101 1254.29 589.6L1254.16 588.543C1255.58 587.105 1254.66 585.071 1255.92 583.039C1255.76 581.544 1255.63 580.783 1256.12 579.305C1256.66 577.694 1256.83 576.26 1257.1 574.587C1257.32 573.233 1257.52 572.071 1257.52 570.691L1257.49 569.672C1258.65 568.123 1257.83 565.575 1258.48 563.579C1258.97 562.038 1259.21 561.122 1259.06 559.451L1258.87 557.878C1260.18 556.553 1259.65 552.766 1259.66 550.802L1260.44 549.63L1260.44 547.264C1260.51 546.078 1260.65 545.212 1260.55 543.996L1260.44 542.939C1261.95 541.415 1261.22 535.823 1261.23 533.504C1262.74 531.224 1262 527.941 1262.4 525.249C1262.93 521.682 1262.82 518.243 1262.8 514.633C1264.3 513.109 1263.58 507.517 1263.58 505.198C1264.89 503.872 1264.37 500.086 1264.37 498.121C1267.11 494.003 1263.89 485.478 1266.72 481.223L1267.5 482.396C1267.48 478.911 1267 474.755 1267.9 471.392L1269.07 471.388C1270.59 469.49 1270.64 469.488 1270.65 467.064H1271.82L1272.41 468.045L1272.6 465.884C1271.6 464.626 1271.98 465.29 1271.43 463.919L1272.6 463.332C1273.79 462.541 1273.82 461.38 1273.82 460.113L1273.79 458.807L1274.96 457.629V452.123C1274.38 449.703 1274.23 447.986 1274.18 445.44C1272.58 443.048 1273.98 440.599 1273.39 437.97C1273.08 436.584 1272.99 434.512 1272.6 433.252C1271.93 431.028 1272.4 428.98 1271.82 426.963C1271.41 425.528 1271.38 424.424 1271.03 423.032C1270.37 420.356 1270.48 422.716 1270.36 420.859C1270.27 419.621 1270.31 418.476 1270.06 417.245L1268.29 408.485L1267.89 406.52C1267.19 404.481 1267.48 402.728 1266.91 400.819C1265.88 397.313 1266.64 401.117 1266.11 398.497L1264.56 391.384C1263.89 389.579 1263.78 387.827 1263.18 386.077L1262.59 384.7C1262.04 382.736 1262.01 381.3 1261.09 379.332L1261.6 377.046Z" fill="url(#paint4_linear_1201_82)"/>
<path d="M326.193 324.275L328.62 328.418C327.992 334.451 330.469 339.656 332.393 345.29C340.238 368.254 352.56 388.347 365.156 408.923C372.711 421.262 379.972 433.567 389.08 444.86C402.48 461.474 417.954 475.996 433.732 490.292C440.443 496.372 448.674 505.512 457.518 507.969L457.629 509.605L450.864 511.238C420.845 517.386 397.38 506.623 372.991 490.409L369.212 487.279C363.781 483.039 358.517 478.263 353.628 473.398C350.554 470.339 344.834 462.087 341.078 460.793L340.561 460.503C339.455 458.742 338.729 457.568 338.852 455.431C338.919 454.236 339.001 453.647 338.609 452.452C335.15 441.935 331.227 431.703 328.314 420.979C322.923 401.134 319.625 380.717 316.507 360.408C317.045 357.139 319.631 349.798 321.361 347.156C322.759 345.017 323.377 344.144 324.045 341.62C324.589 336.228 323.302 328.886 326.193 324.275Z" fill="white"/>
<path d="M316.507 360.408C317.045 357.139 319.631 349.798 321.361 347.156C322.759 345.017 323.377 344.144 324.045 341.62C323.695 355.777 323.773 368.364 326.08 382.437C330.19 407.509 339.755 432.462 351.053 455.111C355.378 463.783 360.445 473.832 366.857 481.11C368.674 483.173 368.969 484.568 369.212 487.279C363.781 483.039 358.517 478.263 353.628 473.398C350.554 470.339 344.834 462.087 341.078 460.793L340.561 460.503C339.455 458.742 338.729 457.568 338.852 455.431C338.919 454.236 339.001 453.647 338.609 452.452C335.15 441.935 331.227 431.703 328.314 420.979C322.923 401.134 319.625 380.717 316.507 360.408Z" fill="#D3D2D2"/>
<path d="M696.158 310.566C710.75 298.718 731.265 290.199 749.818 287.552C780.086 283.235 807.328 288.889 832.01 307.383C838.358 310.571 844.244 315.444 849.92 319.701L881.304 344.112L960.757 409.154C964.363 412.195 968.561 414.542 972.074 417.574C965.602 419.352 959.03 421.096 952.918 423.928C951.04 422.637 949.886 419.966 948.737 418.017C946.945 409.354 895.376 372.32 884.706 364.134L849.474 337.141C841.643 331.628 832.78 327.109 825.188 321.483L824.127 320.677C817.184 317.475 810.234 314.31 802.827 312.33C778.009 305.695 748.323 307.429 724.249 316.301L697.915 328.467L696.95 329.218C690.677 334.019 683.189 337.708 676.669 342.31L629.548 378.46L605.212 398.268C596.496 405.219 587.421 412.777 580.476 421.467L578.562 423.374C572.792 420.02 567.444 417.599 561.075 415.609L649.18 345.05C664.05 333.443 679.617 319.522 696.158 310.566Z" fill="url(#paint5_linear_1201_82)"/>
<path d="M1211.89 316.505C1234.49 349.207 1251.5 388.573 1254.55 428.448C1254.85 460.988 1251.97 492.533 1242.27 523.775C1240.25 530.279 1238.01 536.655 1235.39 542.941C1234.11 545.99 1230.17 552.544 1229.95 555.595L1219.14 575.059C1204.25 598.008 1181.33 619.512 1153.83 625.355C1150.55 623.355 1147.84 620.533 1145.04 617.927C1153.94 617.646 1162.5 616.103 1170.65 612.362L1167.65 612.341C1145.79 611.953 1123 595.385 1108.44 580.211C1114.03 567.181 1122.54 555.438 1130.71 543.935C1142.42 527.446 1154.2 511.775 1167.89 496.85C1172.96 491.323 1177.81 485.446 1183.7 480.766C1182.9 485.635 1179.62 488.77 1177.26 492.963C1175.18 496.645 1173.44 500.815 1171.95 504.768C1168.42 514.084 1165.97 523.938 1163.3 533.527C1160.21 544.595 1156.91 555.721 1154.72 567.005L1161.87 564.579C1186.39 554.989 1210.11 531.237 1220.39 507.043C1234.48 473.883 1231.59 432.233 1224.98 397.615C1223.28 388.678 1221.54 378.838 1218.08 370.416C1216.32 366.134 1215.96 361.52 1215.17 356.984C1213.53 347.519 1210.52 339.426 1205.65 331.178L1206.98 329.465C1206.9 328.075 1206.96 327.576 1207.61 326.293L1211.89 316.505Z" fill="#B7B6B6"/>
<path d="M1205.65 331.178C1210.52 339.426 1213.53 347.519 1215.17 356.984C1215.96 361.52 1216.32 366.134 1218.08 370.416C1221.54 378.838 1223.28 388.678 1224.98 397.615C1231.59 432.233 1234.48 473.883 1220.39 507.043C1210.11 531.237 1186.39 554.989 1161.87 564.579L1154.72 567.005C1156.91 555.721 1160.21 544.595 1163.3 533.527C1165.97 523.938 1168.42 514.084 1171.95 504.768C1173.44 500.815 1175.18 496.645 1177.26 492.963C1179.62 488.77 1182.9 485.635 1183.7 480.766L1196.85 462.919L1195.4 462.359C1192.19 465.129 1189.09 467.999 1185.47 470.216L1162.41 488.589C1142.32 501.172 1119.15 512.054 1095 512.31C1090.3 512.36 1085.47 512.501 1080.86 511.446C1084 506.466 1088.6 503.778 1093.15 500.3L1108.49 487.579C1144.55 454.507 1172.09 415.505 1188.86 369.217L1205.65 331.178Z" fill="white"/>
<path d="M1185.47 470.216C1188.55 463.867 1193.13 458.486 1196.24 452.19C1208.49 427.369 1212.85 401.604 1215.66 374.282L1216.47 374.271C1215.32 390.278 1217.68 405.831 1214.24 421.817C1211.95 432.42 1208.32 442.073 1203.42 451.731C1201.51 455.482 1199.58 459.698 1196.85 462.919L1195.4 462.359C1192.19 465.129 1189.09 467.999 1185.47 470.216Z" fill="#B7B6B6"/>
<path d="M341.924 712.898C343.622 716.817 341.645 723.078 340.954 727.207C335.663 758.905 325.173 788.517 313.436 818.318L258.392 940.627C244.696 958.347 231.568 978.157 214.393 992.668C204.454 1001.07 192.758 1007.37 182.056 1014.76C160.882 1029.37 140.605 1048.93 130.459 1072.98C125.53 1084.66 122.774 1096.89 119.704 1109.14L109.934 1159.35L105.352 1191.89C104.884 1195.27 104.814 1200.72 103.546 1203.8C103.308 1204.38 102.718 1204.74 102.305 1205.21L99.5382 1205.05C94.3416 1181.45 90.1254 1158.89 90.1168 1134.59C90.1063 1105.07 95.9806 1079.18 110.921 1053.63C123.791 1031.62 142.016 1012.86 161.206 996.287C174.2 985.066 187.975 974.743 200.488 962.966C215.36 948.972 228.189 933.207 239.133 915.972C254.996 890.993 266.683 864.191 276.135 836.201L293.817 775.689L298.002 757.496C298.398 755.573 298.693 751.78 299.855 750.206C301.436 748.065 304.524 745.935 306.553 744.19L323.775 730.209C330.146 724.783 336.023 718.826 341.924 712.898Z" fill="#66D4FF"/>
<path d="M1187.24 710.603L1234.28 749.449C1237.21 752.231 1237.6 756.565 1238.43 760.341L1243.54 783.37C1251.52 817.144 1260.96 850.214 1275.91 881.648C1287.79 906.608 1301.23 929.773 1320.51 949.832C1336.29 966.256 1354.7 979.738 1372.41 993.954C1418.86 1031.24 1443.28 1068.67 1443.14 1130.14C1443.08 1157.01 1438.55 1184.79 1431.95 1210.78C1431.34 1210.04 1430.59 1209.39 1430.12 1208.55C1429.74 1207.88 1429.65 1204.98 1429.55 1204.2L1427.9 1192.29L1420.29 1143.26C1418 1129.08 1415.84 1113.63 1410.34 1100.3C1403.13 1063.63 1377.36 1031.3 1347.47 1010.17C1336.83 1002.65 1324.49 996.747 1315.03 987.758C1305.89 979.069 1298.35 969.011 1290.7 959.039L1259.82 915.683C1258.12 908.602 1253.59 901.748 1250.38 895.208L1234.21 860.545C1223.52 836.115 1215.28 810.443 1207.37 784.999L1189.25 723.254C1188.64 721.013 1186.28 715.136 1186.43 713.167C1186.5 712.274 1186.97 711.458 1187.24 710.603Z" fill="#66D4FF"/>
<path d="M1261.09 379.332C1260.16 379.071 1258.45 378.787 1257.69 378.206L1256.7 377.231L1255.92 377.817C1255 377.211 1255.57 377.429 1254.15 377.42C1254.15 378.22 1254.4 379.003 1254.55 379.786L1255.94 385.118L1256.51 388.042L1256.9 390.008C1257.6 392.056 1257.16 393.64 1257.69 395.512C1258.24 397.476 1258.41 398.558 1258.47 400.623C1260.02 402.945 1259.26 407.964 1259.26 410.844C1260.75 413.08 1260.04 417.53 1260.04 420.28C1261.35 422.246 1261.43 433.732 1260.83 436.397C1260.13 439.49 1259.95 442.006 1259.85 445.243L1258.09 445.048C1258.04 443.505 1257.8 441.767 1258.4 440.329L1258.75 439.542C1259.76 436.049 1259.28 430.942 1259.27 427.284C1259.22 404.553 1255.64 382.93 1247.18 361.776C1240.49 345.081 1231.94 330.348 1222.27 315.275C1218.81 309.898 1213.93 300.897 1207.87 298.287C1200.49 306.9 1195.73 316.179 1190.07 325.926L1162.79 372.593C1150.69 391.424 1136.41 409.702 1120.67 425.64C1104.13 442.398 1085.56 457.136 1067.18 471.782L1033.77 498.746C1010.76 479.229 991.32 453.349 971.743 430.431C975.562 428.656 981.586 428.213 985.883 427.235C999.685 424.09 1013.29 420.831 1026.06 414.524C1039.01 408.12 1050.87 399.934 1062.69 391.669L1114.65 353.007L1218.03 272.87C1223.07 287.233 1230.94 300.313 1237.48 314.005C1247.07 334.06 1255.08 355.79 1261.6 377.046L1261.09 379.332Z" fill="#2A2B36"/>
<path d="M318.14 710.007L299.61 725.67L288.109 696.745C271.419 653.98 262.933 608.913 259.045 563.296C253.21 494.844 257.789 427.191 278.046 361.228C287.382 330.827 302.064 302.008 314.782 272.949L399.851 343.184C426.071 363.403 453.255 383.81 482.166 400.041C485.062 415.68 483.152 433.04 483.385 448.978C483.519 458.273 485.116 467.739 484.572 477.028C484.478 478.605 484.247 479.387 483.362 480.685C440.129 448.43 396.863 412.469 367.307 366.673L337.585 318.072C332.774 310.293 328.234 301.998 322.301 295.023C301.055 330.703 284.575 369.926 276.88 410.844C274.836 421.717 272.837 432.56 273.643 443.671L273.187 444.298C272.517 445.254 272.751 444.866 272.29 446.03L270.329 447.21C270.324 448.852 270.745 449.343 269.539 450.55C269.539 452.582 269.906 453.93 268.754 455.662C268.754 458.543 269.512 463.554 267.977 465.884L268.754 466.67C268.754 468.188 269.097 468.291 267.969 469.421C267.969 471.39 268.505 475.174 267.184 476.499C266.88 485.773 266.405 495.158 266.991 504.411C267.343 509.991 266.564 515.763 267.584 521.315L268.059 526.169C268.214 528.125 268.084 526.737 268.501 528.847C268.773 530.228 268.752 530.675 268.572 531.969C268.318 533.814 268.205 535.114 269.347 536.649L269.334 537.632C269.334 539.305 269.135 541.599 270.132 542.939C270.081 545.319 269.962 547.16 270.72 549.426C272.102 553.555 270.534 563.562 273.465 566.527L273.247 567.781C273.048 569.207 273.107 569.899 273.471 571.245L274.25 572.031C274.254 573.627 273.867 573.994 275.035 575.176L274.878 576.086C274.673 578.602 275.699 580.833 276.216 583.236L276.474 585.643C276.591 586.931 276.993 587.742 277.391 588.935C278.038 590.883 277.676 589.658 277.791 591.296C277.91 592.988 278.203 593.386 278.961 594.833L279.357 596.41L279.589 597.416C279.83 598.641 279.774 598.207 279.554 599.551C280.515 601.096 280.584 600.691 280.339 602.696L281.317 603.876L281.16 604.661C280.957 606.728 282.098 609.083 282.887 610.951L282.694 612.131L283.672 613.312L283.48 614.49C283.503 617.677 285.46 621.453 286.034 624.712L286.813 625.498C287.104 626.555 287.114 627.161 287.213 628.249C287.376 630.048 288.042 631.608 289.168 632.967L288.976 634.147L289.416 635.105C290.006 636.531 290.197 637.768 290.532 639.244C291.061 641.59 290.266 637.992 291.524 641.224L291.924 643.974C292.167 644.891 292.722 644.998 293.094 645.941C294.763 650.164 295.686 655.131 297.447 659.541C297.952 660.801 297.743 660.287 298.092 661.778C298.402 663.105 298.802 663.648 299.376 664.812C300.109 666.303 299.508 665.342 299.968 667.171L300.812 669.049C301.379 670.259 301.838 671.368 302.19 672.654C302.906 675.283 302.003 672.427 303.302 675.033L303.475 675.772C303.752 676.879 304.267 677.621 304.872 678.571L304.679 679.751L305.119 680.414C305.841 681.577 306.281 682.707 306.618 684.026C306.941 685.297 307.518 686.408 308.019 687.614L308.371 688.528C309.591 691.612 311.019 695.013 312.724 697.835C313.59 699.274 314.091 700.658 314.466 702.283L314.39 702.36C315.113 705.47 316.264 707.443 318.14 710.007Z" fill="#393B46"/>
<path d="M307.935 346.497C309.443 345.474 310.194 344.769 310.929 343.116L311.56 341.64C312.181 342.279 312.052 341.954 311.947 343.224L311.75 344.517C315.09 340.633 319.049 333.159 323.109 330.76L323.722 330.414C323.806 327.749 323.829 325.086 324.382 322.468L324.732 320.897L326.193 324.275C323.302 328.886 324.589 336.228 324.045 341.62C323.377 344.144 322.759 345.017 321.361 347.156C319.631 349.798 317.045 357.139 316.507 360.408C319.625 380.717 322.923 401.134 328.314 420.979C331.227 431.703 335.15 441.935 338.609 452.452C339.001 453.647 338.919 454.236 338.852 455.431C338.729 457.568 339.455 458.742 340.561 460.503L341.078 460.793L344.147 465.55C346.637 468.018 348.435 471.455 350.42 474.344C353.174 478.355 356.241 482.18 359.304 485.958L390.133 523.106C403.167 539.957 415.483 558.996 425.941 577.567L420.667 583.251C403.915 598.913 382.328 609.471 359.085 608.598L358.306 608.561C367.177 613.188 378.647 614.62 388.477 615.056C385.747 619.512 382.55 623.03 378.936 626.779L367.692 622.221C329.725 603.117 303.419 571.545 290.272 531.237C270.067 469.293 278.89 404.017 307.935 346.497Z" fill="#B7B6B6"/>
<path d="M316.507 360.408C319.625 380.717 322.923 401.134 328.314 420.979C331.227 431.703 335.15 441.935 338.609 452.452C339.001 453.647 338.919 454.236 338.852 455.431C338.729 457.568 339.455 458.742 340.561 460.503L341.078 460.793L344.147 465.55C343.884 466.454 343.417 467.318 343.354 468.257C343.155 471.165 349.794 479.563 351.417 482.509C353.521 486.329 355.127 490.554 356.876 494.555L371.275 528.134L385.563 570.268C356.712 559.824 329.91 540.083 316.193 511.968C298.595 475.894 296.066 427.907 306.091 389.227C308.668 379.278 313.191 370.08 316.507 360.408Z" fill="white"/>
<path d="M697.915 328.467L724.249 316.301C748.323 307.429 778.009 305.695 802.826 312.33C810.234 314.31 817.184 317.475 824.127 320.677L825.188 321.483C832.78 327.109 841.643 331.628 849.474 337.141L884.706 364.134C895.376 372.32 946.944 409.354 948.737 418.017C949.886 419.966 951.04 422.637 952.918 423.928L949.731 426.177L950.399 426.571C956.689 430.441 961.735 436.475 966.616 441.945L990.701 469.832L1024.25 508.19C1042.17 528.234 1059.77 547.512 1075.33 569.523L1113.45 619.531L1157.72 677.793L1176.31 699.087C1178.37 701.255 1186.69 708.554 1187.24 710.603C1186.97 711.458 1186.5 712.274 1186.43 713.167C1186.28 715.136 1188.64 721.013 1189.25 723.254L1207.37 784.999C1215.28 810.443 1223.52 836.115 1234.21 860.545L1250.38 895.208C1253.59 901.748 1258.12 908.602 1259.82 915.682L1290.7 959.039C1298.35 969.011 1305.89 979.069 1315.03 987.758C1324.49 996.747 1336.83 1002.65 1347.47 1010.17C1377.36 1031.3 1403.13 1063.63 1410.34 1100.3C1415.84 1113.63 1418 1129.08 1420.29 1143.26L1427.9 1192.29L1429.55 1204.2C1429.65 1204.98 1429.74 1207.88 1430.12 1208.55C1430.59 1209.39 1431.34 1210.04 1431.95 1210.78L1431.87 1211.44C1429.98 1227.17 1424 1251.01 1410.83 1261.27L1398.45 1268.91L1434.63 1271.1L1490.09 1263.6C1484.63 1275.52 1475.25 1287.74 1466.37 1297.26C1450.84 1317.59 1429.72 1332.96 1408.59 1346.95C1401.42 1351.69 1394.12 1356.97 1386.55 1361C1375.21 1367.45 1361.84 1371.79 1348.77 1372.49C1343.99 1372.75 1337.47 1372.1 1333.06 1373.67L1388.03 1378.1L1406.96 1378.89C1410.31 1378.98 1414.51 1378.6 1417.72 1379.42C1398.52 1397.18 1380.54 1416.13 1359.86 1432.24C1334.08 1452.33 1306.78 1468.82 1278.11 1484.35C1258.2 1495.13 1237.89 1505.58 1217.07 1514.46L1076.67 1572.27L1023.71 1599L939.114 1642.7L862.135 1686.51C855.99 1692.18 846.176 1696.82 838.961 1701.32C816.241 1715.46 793.059 1730.73 769.183 1742.82C760.222 1739.36 751.342 1733.91 742.867 1729.37L697.119 1705.14L660.312 1686.07L600.08 1656.28L477.403 1589.08L287.213 1493.76L226.332 1462.95C216.556 1457.46 207.06 1451.1 197.703 1444.93C190.695 1440.31 183.015 1435.82 176.707 1430.27C154.768 1417.06 138.794 1397.02 119.387 1380.85L118.608 1380.22L207.517 1371.75C185.168 1367.82 163.775 1360.37 142.903 1351.56C132.72 1347.59 122.921 1341.73 113.685 1335.97C95.9423 1324.91 76.7667 1311.22 64.2551 1294.12C70.4665 1295.64 76.5163 1299.01 82.5301 1301.32L107.993 1310.1C109.055 1308.17 108.569 1305.97 108.36 1303.86C107.308 1293.26 102.077 1283.98 102.158 1273.06L102.191 1271.68L99.8104 1270.29C112.529 1270.34 124.402 1269.36 137.022 1267.79L129.686 1263.95C111.642 1252.68 103.886 1224.36 99.5382 1205.05L102.305 1205.21C102.718 1204.74 103.308 1204.38 103.546 1203.8C104.814 1200.72 104.884 1195.27 105.352 1191.89L109.934 1159.35L119.704 1109.14C122.774 1096.89 125.53 1084.66 130.459 1072.98C140.605 1048.93 160.882 1029.37 182.056 1014.76C192.758 1007.37 204.454 1001.07 214.393 992.668C231.568 978.157 244.696 958.347 258.392 940.627L313.436 818.318C325.173 788.517 335.663 758.905 340.954 727.207C341.645 723.078 343.622 716.817 341.924 712.898C342.552 711.307 345.688 708.674 346.917 707.336L360.337 692.881C363.793 687.647 368.306 682.848 372.294 677.984L387.405 658.32L454.287 570.903L493.211 524.251L565.487 444.755C569.597 439.916 578.717 431.332 580.342 425.39L578.562 423.374L580.476 421.467C587.421 412.777 596.496 405.219 605.212 398.268L629.548 378.46L676.669 342.31C683.189 337.708 690.677 334.019 696.95 329.218L697.915 328.467Z" fill="#005E94"/>
<path d="M948.737 418.017C949.886 419.966 951.04 422.637 952.918 423.928L949.731 426.177L950.399 426.571C956.689 430.441 961.735 436.475 966.616 441.945L990.7 469.832L1024.25 508.19C1042.17 528.234 1059.77 547.512 1075.33 569.523C1073.38 569.234 1071.55 569.138 1070 567.783C1064.93 563.328 1060.89 558.094 1056.38 553.121L1033.01 528.06C1028.02 522.831 1023.12 517.097 1017.91 512.127C1012.58 507.051 1006.77 501.983 1002.34 496.079C998.82 491.391 994.304 485.209 989.926 481.456L989.162 480.819C988.389 478.481 985.878 476.759 984.25 474.923L977.187 466.67C976.128 465.406 974.254 464.127 973.458 462.734C972.101 460.357 974.203 462.669 972.198 460.661L961.404 448.896L960.11 447.602C959.421 446.793 959.289 446.3 958.381 445.65L957.755 445.243C956.486 442.037 950.776 437.458 948.333 434.428L945.514 430.821L944.802 429.715C943.739 428.091 944.017 427.669 944.017 425.784C945.609 423.386 946.773 425.549 948.917 423.822L948.921 421.066C948.638 419.604 948.525 419.59 948.737 418.017Z" fill="url(#paint6_linear_1201_82)"/>
<path d="M154.178 1108.17C157.349 1093.92 165.704 1079.94 175.279 1069.06C188.197 1054.37 204.397 1043.67 221.183 1033.94C233.428 1026.84 245.894 1019.81 258.695 1013.77L284.072 1002.84C291.7 999.472 301.727 992.834 309.92 992.354C296.29 1004.81 277.29 1013.2 261.17 1021.97C238.369 1034.39 216.066 1046.97 195.45 1062.86C184.42 1071.37 175.059 1081.43 166.549 1092.43C162.702 1097.39 159.773 1105.4 154.178 1108.17Z" fill="url(#paint7_linear_1201_82)"/>
<path d="M1228.57 995.887L1274.79 1022.48C1316.45 1045.16 1366.38 1069.11 1379.84 1118.92C1386.14 1142.23 1381.58 1169.54 1370.09 1190.63L1369.87 1190.98C1369.44 1185.23 1370.73 1179.64 1371.22 1173.93C1372.57 1158.06 1372.32 1141.62 1367.72 1126.26C1352.62 1075.85 1300.28 1053.06 1259.76 1026.52C1250.12 1020.21 1236.68 1012.54 1229.6 1003.31C1227.55 1000.63 1228.21 999.03 1228.57 995.887Z" fill="#002149"/>
<path d="M1163.68 747.245L1167.43 749.453C1172.99 752.456 1177.48 757.544 1181.9 761.966C1191.09 771.171 1200.95 781.349 1207.04 792.975C1208.56 795.892 1209.64 800.047 1210.96 803.197L1211.36 804.383L1212.15 803.983L1210.95 801.404C1210.26 800.026 1210.19 799.232 1210.18 797.693L1209.6 796.906C1208.66 795.489 1208.62 794.648 1208.61 792.975L1207.84 792.189L1207.37 784.999C1215.28 810.443 1223.52 836.115 1234.21 860.545L1250.38 895.208C1253.59 901.748 1258.12 908.602 1259.82 915.682C1255.89 913.192 1252.76 908.533 1249.64 905.018C1232.17 885.338 1217.84 864.497 1203.47 842.51C1195.1 829.697 1186.38 816.746 1179.05 803.304L1180.61 801.995C1180.92 797.223 1178.72 791.589 1177.43 786.957C1173.62 773.316 1169.35 760.228 1163.68 747.245Z" fill="#0090F9"/>
<path d="M341.924 712.898C342.552 711.307 345.688 708.674 346.917 707.336L360.337 692.881L361.49 693.73C359.135 696.33 356.783 698.219 354.935 701.178L353.167 702.947C351.053 705.008 345.722 709.273 345.312 711.984C345.14 713.123 344.493 714.249 344.074 715.303C343.54 716.652 343.791 717.666 343.938 719.065L344.047 720.22L344.131 721.03L343.557 721.879C342.711 723.3 343.138 723.766 342.763 725.158L342.175 726.536C342.418 729.008 342.562 729.429 341.775 731.645L341.582 733.218L341.285 734.176C340.506 736.764 340.691 739.223 339.706 741.867C339.193 743.247 339.062 744.473 338.948 745.933C338.814 747.692 338.978 746.769 338.249 748.551C337.571 750.21 337.349 751.105 337.657 752.875L337.169 753.785C336.172 755.787 337.026 753.856 336.675 756.016L335.894 758.379L336.279 759.559L335.494 760.343C334.778 761.367 334.799 762.333 334.709 763.489L333.735 767.424L334.539 768.259C335.557 769.393 336.055 770.383 336.675 771.75L337.755 772.068C339.17 772.542 339.432 772.999 340.605 773.719C341.98 774.561 343.243 775.035 344.531 776.077C346.199 776.077 346.187 775.872 347.671 776.864L348.664 776.75C350.173 776.606 349.589 776.625 351.212 776.857L351.989 776.077L352.776 777.249L354.352 775.677L354.34 774.767C354.505 772.721 355.494 770.852 356.308 768.995L355.923 767.422L356.708 766.634C357.445 765.587 357.464 764.281 357.686 763.096C357.966 761.602 358.592 760.459 359.256 759.165L359.849 757.198L362.989 749.336C363.672 747.285 364.861 745.413 365.734 743.444L368.871 738.328L368.875 737.154L369.392 736.512C370.226 735.401 369.935 735.797 370.546 734.57C372.539 730.574 375.353 726.894 377.512 723.001C377.985 722.145 378.55 721.631 379.082 720.642C381.388 716.352 386.442 709.642 389.685 706.092C392.935 702.534 394.591 699.551 398.632 696.47L379.951 722.564C361.182 750.879 351.723 782.118 348.029 815.777L348.425 816.765L349.744 817.14C344.6 828.02 338.128 838.325 331.943 848.646C322.715 864.033 313.555 879.203 302.472 893.371C293.094 905.356 282.575 916.079 271.914 926.89C267.46 931.406 263.647 937.002 258.392 940.627L313.436 818.318C325.173 788.517 335.663 758.905 340.954 727.207C341.645 723.078 343.622 716.817 341.924 712.898Z" fill="#0090F9"/>
<path d="M708.107 654.685C751.33 648.807 794.615 646.65 837.818 654.162L838.463 654.508C841.273 655.754 845.127 656.003 848.161 656.559L865.885 660.235C879.078 663.172 892.707 667.709 905.115 673.069C930.653 684.098 955.542 698.737 978.753 714.033C1032.38 749.365 1083.54 795.034 1118.32 849.539C1127.88 864.53 1135.7 882.109 1142.88 898.386C1144.73 902.569 1145.69 904.756 1144.07 909.254C1132.66 891.794 1124.69 872.181 1112.77 854.873C1090.84 823.011 1063.79 796.202 1034.89 770.81C1012.37 751.028 989.654 732.765 963.768 717.438C953.115 711.131 942.288 705.031 931.099 699.718C924.809 696.733 917.74 694.439 911.716 691.029L910.736 690.461L912.514 689.578C910.827 689.434 909.679 689.182 908.193 688.4L906.714 687.614L897.686 684.469L898.304 682.55C899.987 679.904 906.011 684.668 909.219 684.077L871.034 670.108C833.884 658.247 796.011 654.877 757.142 656.123L733.583 657.695C731.16 657.974 728.024 657.475 725.731 658.121C722.806 658.945 720.551 658.922 717.488 658.907C715.452 660.214 712.825 659.518 710.417 660.025C708.195 660.495 707.293 660.43 705.103 659.947L705.363 659.178L709.244 658.922C710.519 657.643 712.195 658.136 713.955 658.136L714.739 657.349H719.843C721.91 655.97 723.995 656.874 726.376 656.387C730.635 655.517 734.757 656.043 739.081 655.777C740.385 654.471 743.834 654.991 745.754 654.991C748.974 652.841 769.724 654.586 775.199 654.204C778.203 656.19 791.598 655.188 795.808 655.179L795.574 653.856C794.125 653.466 794.403 653.699 793.428 653.011L791.292 651.447C789.137 650.044 784.177 650.755 781.623 650.774C774.106 650.831 764.179 649.508 756.998 651.242C750.792 652.741 743.673 651.198 737.121 652.602C734.2 653.227 731.725 652.739 728.972 653.305C725.032 654.114 720.589 654.133 716.836 655.083C715.122 655.517 715.892 655.45 714.094 655.559L713.024 655.59L708.107 654.685Z" fill="url(#paint8_linear_1201_82)"/>
<path d="M189.41 1241.66C186.388 1239.29 184.006 1235.47 181.7 1232.41C173.759 1221.88 165.78 1210.28 161.732 1197.58L161.393 1196.48L159.778 1190.99C159.11 1187.78 158.663 1186.38 160.413 1183.62C167.545 1196.93 175.105 1209.53 184.108 1221.7L193.918 1234.2C194.73 1235.2 196.807 1237.17 197.215 1238.33C243.212 1287.26 298.235 1326.75 353.337 1364.63C451.341 1431.99 554.76 1493.47 663.83 1541.08C674.724 1544.52 685.718 1548.85 697.025 1550.7L707.653 1673.67C724.366 1685.84 743.298 1697.78 762.104 1706.42L760.651 1707.32C759.577 1706.95 758.516 1706.63 757.531 1706.04L756.746 1705.45C755.017 1704.51 753.375 1703.95 751.778 1702.71L751.053 1702.11L749.286 1702.3C748.455 1701.06 748.823 1701.26 747.728 1700.65L744.184 1698.77L741.24 1697L737.423 1694.8L733.388 1692.28L728.48 1689.33C727.354 1688.47 726.862 1687.82 725.463 1687.4L724.554 1687.17L723.769 1686.58C721.518 1685.55 723.166 1686.91 721.525 1685.45C720.836 1684.84 719.925 1683.8 719.058 1683.43C716.924 1682.52 718.363 1683.68 716.801 1682.29C716.099 1681.67 715.398 1680.91 714.544 1680.48C713.283 1679.85 712.999 1679.27 711.991 1678.72L710.815 1678.32C709.537 1677.61 708.899 1676.77 707.28 1676.16L700.995 1678.32L699.625 1678.71L699.232 1686.18H698.648L698.258 1685.01C697.356 1683.5 697.473 1683.77 697.473 1681.86L696.688 1681.08C696.868 1679.9 696.922 1679.12 696.675 1677.94L696.384 1676.75C694.322 1667.19 689.672 1658.54 688.053 1648.75C685.972 1636.14 686.221 1622.95 685.17 1610.21C684.11 1597.39 681.579 1584.2 678.773 1571.64C678.009 1568.22 677.264 1563.9 675.538 1560.85C672.563 1555.61 665.811 1552.12 660.89 1548.99L588.349 1514.35L428.339 1425.93L302.797 1342.05C262.381 1313.01 219.33 1282.15 189.41 1241.66Z" fill="url(#paint9_linear_1201_82)"/>
<path d="M1179.05 803.304C1168.71 787.324 1156.82 772.66 1144.66 758.062C1118.64 726.84 1089.47 696.112 1054.68 674.633C1036.06 663.145 1016.02 653.995 996.481 644.216L910.064 598.196L879.466 579.9L864.321 571.723C861.331 570.178 857.657 568.88 855.159 566.634L902.439 578.29C936.071 586.367 968.393 597.658 1000.15 611.332C1024.43 621.789 1048.65 633.793 1070.44 648.856C1107.07 674.178 1140.41 709.25 1163.68 747.245C1169.35 760.228 1173.62 773.316 1177.43 786.957C1178.72 791.589 1180.92 797.223 1180.61 801.995L1179.05 803.304Z" fill="#66D4FF"/>
<path d="M398.632 696.471C411.515 680.802 424.348 666.777 440.927 654.884C466.383 636.621 496.515 624.261 525.604 613.161L603.732 586.063L686.267 562.055C676.01 568.775 664.837 573.795 654.309 580.043L608.755 607.567L560.895 632.564C524.995 650.275 486.274 665.093 454.273 689.547C419.746 715.932 393.293 752.596 369.066 788.216C362.573 797.76 355.59 807.185 349.744 817.14L348.425 816.765L348.029 815.777C351.723 782.118 361.182 750.879 379.951 722.564L398.632 696.471Z" fill="#66D4FF"/>
<path d="M119.704 1109.14C120.385 1115.27 119.746 1121.21 120.212 1127.27C120.921 1136.5 123.376 1146.19 125.823 1155.11C128.041 1163.2 130.97 1171.83 134.587 1179.41C143.396 1197.88 155.177 1214.38 166.405 1231.39C179.058 1250.55 191.91 1272.03 207.856 1288.6C216.591 1297.67 227.058 1305.62 236.853 1313.51L271.474 1341.69L330.781 1391.41C343.84 1401.84 357.768 1411.11 371.507 1420.6L432.365 1460.83L492.784 1495.1L586.688 1547.11L639.081 1573.12C649.184 1577.95 660.105 1582.27 669.433 1588.52C676.28 1593.1 679.182 1599.71 680.758 1607.56C683.811 1622.73 682.463 1637.1 682.463 1652.38L683.547 1674.92L677.008 1672.09C675.273 1671.41 673.644 1670.44 671.952 1669.67L668.811 1668.1L667.433 1667.31L653.3 1660.23C648.975 1658.21 645.001 1655.76 640.545 1653.94C627.442 1648.62 615.267 1640.32 602.071 1635.07C599.082 1633.89 596.414 1631.73 593.435 1630.36C591.468 1629.45 589.963 1628.08 587.938 1627.21L565.558 1614.05C564.241 1613.39 563.183 1612.61 561.979 1611.78C560.677 1610.88 561.764 1611.64 559.865 1610.7L531.99 1594.58L530.617 1593.79C526.867 1591.6 522.836 1588.71 518.843 1587.11L491.634 1571.62C486.668 1568.62 480.918 1565.01 475.659 1562.74L470.162 1559.59C468.998 1558.96 468.261 1558.51 467.022 1558.02L459.955 1554.09C458.81 1553.46 458.006 1553.03 456.814 1552.51C448.249 1548.77 440.334 1542.86 431.689 1539.15L430.311 1538.36L429.465 1537.99L425.408 1536L422.263 1534.03L418.534 1532.07L413.259 1529.54L407.349 1526.57L401.936 1523.82C400.537 1523.19 399.357 1522.43 397.926 1521.85C392.87 1519.78 388.079 1516.85 383.008 1514.77L377.068 1511.77C375.751 1511.11 376.302 1511.33 375.129 1511.04C373.999 1510.76 373.417 1510.13 372.403 1509.66L371.231 1509.27C369.935 1508.67 368.877 1507.87 367.535 1507.33C363.027 1505.51 358.467 1502.66 353.957 1500.62L351.989 1499.44L351.009 1499.05C347.719 1497.51 344.809 1495.62 341.394 1494.33C339.348 1493.56 337.596 1492.29 335.481 1491.58C334.233 1491.16 333.496 1490.52 332.361 1490L331.187 1489.61L326.472 1487.45L323.444 1486.09L319.147 1484.08C314.69 1482.23 310.546 1479.68 306.061 1477.82L300.565 1475.46L291.143 1470.74L282.506 1466.81C281.365 1466.29 280.582 1465.7 279.365 1465.24L270.921 1461.31L265.425 1458.95L258.136 1455.71C256.087 1454.94 254.43 1453.77 252.274 1453.05C249.994 1452.29 248.088 1450.97 245.992 1449.9L243.635 1449.12L238.166 1446.54C236.698 1445.8 237.173 1446.04 235.513 1445.56C233.22 1444.91 235.132 1445.62 233.036 1444.21L226.388 1440.86C224.983 1440.16 226.168 1440.74 224.403 1440.08C220.898 1438.76 217.676 1436.74 214.196 1435.36L212.676 1434.57C211.441 1433.93 210.488 1433.57 209.087 1433.39L208.304 1432.6L207.322 1432.21C205.664 1431.54 204.253 1430.53 202.611 1429.86L193.782 1425.92L179.255 1418.28C176.661 1416.98 174.464 1415.36 171.797 1414.13C170.448 1413.51 169.366 1412.71 167.967 1412.14C166.871 1411.7 166.75 1411.06 165.904 1410.59L164.73 1410.2L152.556 1402.73L151.574 1402.34L149.207 1401.13C147.825 1400.44 147.033 1400.37 145.489 1400.37L144.704 1399.58L143.126 1399.59C144.069 1402.86 150.836 1408.29 153.341 1410.99C155.295 1411.49 155.634 1412.17 157.047 1413.57C157.856 1414.38 157.5 1413.99 158.587 1414.65C160.431 1415.76 161.633 1417.57 163.548 1418.85L165.511 1420.42L168.652 1422.78C170.676 1424.26 172.8 1425.92 174.952 1427.18C176.393 1428.03 176.568 1428.87 177.68 1429.86L178.373 1430.16L176.707 1430.27C154.768 1417.06 138.794 1397.02 119.387 1380.85L118.608 1380.22L207.517 1371.75C185.168 1367.82 163.775 1360.37 142.903 1351.56C132.72 1347.59 122.921 1341.73 113.685 1335.97C95.9423 1324.91 76.7667 1311.22 64.2551 1294.12C70.4665 1295.64 76.5163 1299.01 82.5301 1301.32L107.993 1310.1C109.055 1308.17 108.569 1305.97 108.36 1303.86C107.308 1293.26 102.077 1283.98 102.158 1273.06L102.191 1271.68L99.8104 1270.29C112.529 1270.34 124.402 1269.36 137.022 1267.79L129.686 1263.95C111.642 1252.68 103.886 1224.36 99.5382 1205.05L102.305 1205.21C102.718 1204.74 103.308 1204.38 103.546 1203.8C104.814 1200.72 104.884 1195.27 105.352 1191.89L109.934 1159.35L119.704 1109.14Z" fill="#0090F9"/>
<path d="M1410.34 1100.3C1415.84 1113.63 1418 1129.08 1420.29 1143.26L1427.9 1192.29L1429.55 1204.2C1429.65 1204.98 1429.74 1207.88 1430.12 1208.55C1430.59 1209.39 1431.34 1210.04 1431.95 1210.78L1431.87 1211.44C1429.98 1227.17 1424 1251.01 1410.83 1261.27L1398.45 1268.91L1434.63 1271.1L1490.09 1263.61C1484.63 1275.52 1475.25 1287.74 1466.37 1297.26C1450.84 1317.59 1429.72 1332.96 1408.59 1346.95C1401.42 1351.69 1394.12 1356.97 1386.55 1361C1375.21 1367.45 1361.84 1371.79 1348.77 1372.49C1343.99 1372.75 1337.47 1372.11 1333.06 1373.67L1388.03 1378.1L1406.96 1378.89C1410.31 1378.98 1414.51 1378.6 1417.72 1379.42C1398.52 1397.18 1380.54 1416.13 1359.86 1432.24C1334.08 1452.33 1306.78 1468.82 1278.11 1484.35C1258.2 1495.13 1237.89 1505.58 1217.07 1514.46L1076.67 1572.27L1023.7 1599L939.114 1642.7L862.135 1686.52L861.446 1685.76C864.162 1683.3 867.477 1681.76 870.596 1679.9L873.54 1678.13L877.282 1675.98L878.448 1675.18L880.804 1673.61L882.765 1672.03C884.152 1671.39 884.405 1671.9 885.885 1670.79C887.439 1669.63 886.628 1670.05 888.314 1669.34C889.606 1668.8 890.502 1667.83 891.809 1667.5C892.801 1667.25 892.389 1667.47 893.207 1666.89C894.265 1666.13 895.341 1665.54 896.507 1664.96L898.863 1663.78C900.184 1662.92 900.977 1662.08 902.472 1661.46C903.994 1660.82 903.268 1661.29 904.75 1660.24C905.722 1659.55 906.379 1658.97 907.499 1658.47L909.07 1657.88C911.928 1655.98 908.777 1657.62 911.256 1656.38L912.21 1655.92C913.052 1655.4 913.739 1655.19 914.566 1654.74L917.51 1652.97L928.699 1646.87L931.643 1645.1L934.195 1643.73L935.766 1642.55C936.88 1642.01 937.263 1642.22 938.477 1641.41C940.292 1640.19 942.765 1639.65 944.097 1637.99L944.796 1637.05L945.973 1637.44L947.543 1636.26C948.647 1635.72 949.042 1635.92 950.255 1635.12C951.72 1634.14 951.086 1634.45 952.537 1633.79L960.891 1629.57C962.005 1628.84 962.145 1628.4 963.542 1628.13C964.993 1627.83 965.079 1627.19 965.994 1626.04L967.173 1626.43L969.528 1624.86L970.317 1624.07C972.068 1623.82 971.354 1624.08 972.914 1623.23L977.773 1620.93C978.908 1620.31 979.652 1619.56 980.904 1619.03L991.513 1613.85C992.482 1613.22 992.798 1612.69 993.967 1612.4C994.987 1612.14 995.093 1611.84 995.839 1611.1L997.794 1610.7C1001.2 1609.13 1004.6 1606.9 1008 1605.2C1011.04 1603.68 1014.61 1602.36 1017.42 1600.48L1018.41 1599.7C1020.65 1599.69 1023.55 1597.33 1025.67 1596.35L1038.62 1589.47L1039.61 1588.69C1041.05 1588.45 1042.11 1587.94 1043.33 1587.12L1044.32 1586.33C1045.9 1586.06 1045.2 1586.31 1046.71 1585.49L1052.76 1582.4C1053.67 1581.81 1053.99 1581.28 1055.07 1581.01C1058.53 1580.15 1062.11 1577.71 1065.32 1576.11C1068.5 1574.52 1072.06 1573.12 1075.13 1571.39C1077 1570.33 1078.7 1569.97 1080.54 1568.97L1084.16 1567.06C1085.55 1566.55 1086.87 1565.55 1088.19 1565.22L1088.87 1565.1L1089.66 1564.32L1090.84 1564.31C1091.94 1563.6 1093.13 1562.79 1094.37 1562.35L1095.94 1561.95C1096.97 1561.42 1097.26 1560.83 1098.47 1560.47C1099.59 1560.13 1100.38 1559.6 1101.44 1559.2C1102.7 1558.73 1103.61 1558.64 1104.86 1557.96C1107.34 1556.62 1110.64 1554.9 1113.36 1554.22C1114.33 1553.97 1114.48 1553.61 1115.18 1552.91C1116.96 1552.65 1117.89 1551.97 1119.5 1551.34C1122.89 1550.01 1126.7 1548.83 1130.01 1547.32L1132.45 1546.23C1133.54 1545.79 1134.27 1545.66 1135.13 1544.81L1135.59 1544.27L1137.16 1544.66C1138.1 1543.87 1138.58 1543.45 1139.82 1543.21C1141.05 1542.96 1140.99 1542.79 1141.87 1541.91L1143.64 1542.1L1145.01 1541.51L1146.98 1540.72C1148.58 1539.98 1149.96 1539.22 1151.69 1538.76L1153.26 1538.37C1154.79 1537.68 1156.03 1536.87 1157.65 1536.35C1159.66 1535.71 1161.72 1534.28 1163.66 1533.85C1165.09 1533.53 1165.59 1533.8 1167.04 1533.07C1172.5 1530.34 1178.71 1528.48 1184.47 1526.37L1185.84 1525.79C1186.87 1525.37 1187.76 1525.05 1188.71 1524.46L1189.38 1524.02L1190.55 1524.21C1191.47 1523.63 1192.21 1523.11 1193.28 1522.84C1195.66 1522.24 1198.07 1520.78 1200.37 1519.89C1201.69 1519.37 1203.07 1518.41 1204.33 1518.09L1205.08 1517.92C1207.42 1516.63 1204.54 1517.5 1207.44 1516.74C1208.93 1516.35 1209.94 1515.72 1211.36 1515.17C1212.62 1514.68 1213.53 1514.61 1214.78 1513.93C1217.23 1512.61 1219.77 1511.46 1222.35 1510.45L1223.92 1510.06C1225.04 1509.48 1225.24 1508.92 1226.59 1508.55C1227.78 1508.22 1227.81 1508.37 1229.03 1507.7C1230.2 1507.06 1230.93 1506.34 1232.23 1505.8L1233.35 1505.34C1235.37 1504.15 1233.16 1504.81 1235.7 1504.16C1236.19 1504.04 1236.82 1504.01 1237.27 1503.77C1239.3 1502.69 1241.64 1501.89 1243.55 1500.62C1244.46 1500.03 1244.79 1499.51 1245.87 1499.24C1248.93 1498.47 1253.43 1496.07 1256.12 1494.33C1257.62 1493.36 1259.24 1492.38 1260.83 1491.58C1261.91 1491.04 1262.34 1491.24 1263.54 1490.44C1265 1489.46 1264.37 1489.77 1265.82 1489.11L1274.18 1484.9C1275.13 1484.28 1275.4 1483.8 1276.54 1483.51C1277.54 1483.26 1277.12 1483.48 1277.94 1482.9L1278.69 1482.34C1279.87 1481.63 1281.09 1481.42 1281.83 1480.18L1282.42 1479.01L1283.2 1479.79L1295.37 1473.1L1297.73 1471.93C1299.05 1471.07 1299.85 1470.23 1301.34 1469.6L1302.44 1469.17L1307.94 1466.03L1310.88 1464.26L1314.62 1462.11L1320.5 1458.17C1321.79 1457.26 1323.08 1456.61 1324.43 1455.81L1325.6 1455.02L1333.31 1449.42L1334.05 1448.73L1335.02 1448.73L1345.63 1440.87L1347.2 1439.49C1349.31 1438.18 1351.22 1436.37 1353.28 1435.17C1355.14 1434.08 1355.37 1433.88 1356.82 1432.22L1357.8 1432.22L1360.35 1429.66C1361.97 1428.72 1362.85 1427.35 1364.27 1426.52C1366.24 1425.36 1367.23 1423.68 1368.98 1422.59C1372.04 1420.69 1373.98 1417.2 1376.84 1415.51C1379.99 1413.65 1381.78 1410.15 1384.69 1408.43L1386.06 1407.84C1388.2 1406.66 1396.41 1397.91 1397.06 1395.66L1395.49 1395.65C1394.3 1396.83 1393.95 1396.44 1392.34 1396.44C1391.3 1397.13 1390.75 1397.43 1389.6 1397.82L1387.83 1398.4L1386.45 1399.19L1384.1 1400.37C1382.78 1401.15 1381.83 1401.91 1380.4 1402.53C1370.23 1406.92 1361.3 1415.58 1351.12 1419.63C1349.2 1420.4 1350.64 1419.54 1348.82 1420.76C1346.98 1421.98 1345.15 1422.85 1343.27 1423.96C1341.88 1424.77 1340.69 1425.68 1339.21 1426.34L1338.36 1426.71L1333.5 1429.33L1329.14 1431.82L1316.92 1438.75L1304.6 1444.79L1291.44 1451.08L1289.09 1452.26L1287.33 1453.44L1285.95 1453.83C1284.58 1454.47 1283.38 1455.56 1281.94 1456.2L1276.53 1458.95C1269.81 1461.92 1263.17 1465.64 1256.7 1469.17L1253.56 1470.74L1252.19 1471.53L1251.01 1471.92C1250 1472.38 1249.42 1473.01 1248.29 1473.3C1247.11 1473.59 1247.67 1473.37 1246.35 1474.03C1243.17 1475.63 1239.86 1477.71 1236.49 1478.8C1235.45 1479.14 1234.65 1479.41 1233.68 1479.94L1230.2 1481.75L1224.71 1484.11L1223.53 1484.5C1222.52 1484.96 1221.94 1485.6 1220.81 1485.88C1219.6 1486.18 1220.22 1485.94 1218.83 1486.64L1215.88 1488.04C1213.83 1489.11 1215.24 1488.59 1213.38 1489.21L1209.79 1490.6C1207.89 1491.83 1209.41 1491.43 1207.67 1491.78C1206.59 1492 1205.85 1492.23 1204.88 1492.76L1203.51 1493.54C1200.32 1494.88 1196.58 1496.58 1193.3 1497.67C1192.13 1498.06 1191.1 1498.64 1189.96 1499.05C1188.26 1499.66 1186.69 1500.49 1184.98 1501.06L1179.95 1502.98L1176.02 1504.55L1167.98 1507.7C1165.23 1508.65 1162.3 1510.19 1159.54 1510.84C1156.75 1511.5 1154.56 1512.8 1151.88 1513.69L1149.72 1514.38L1148.94 1515.16C1146.75 1515.58 1145.11 1516.34 1143.05 1517.13L1137.55 1519.49L1132.05 1521.85L1130.29 1522.64L1128.91 1523.42L1127.74 1523.81L1126.96 1524.6C1125.73 1524.78 1124.97 1525 1123.84 1525.56C1122.25 1526.35 1120.61 1526.78 1119.03 1527.57L1117.92 1528.14L1116.75 1528.53L1115.96 1529.32C1114.76 1529.49 1113.95 1529.7 1112.84 1530.25L1109.28 1532.07L1100.46 1536L1099.47 1536.39C1098.27 1537.05 1097.26 1537.87 1095.94 1538.36L1094.37 1538.75C1093.27 1539.32 1092.94 1539.92 1091.63 1540.35C1090.6 1540.7 1089.64 1540.99 1088.68 1541.51L1087.3 1542.29C1085.12 1543.3 1082.67 1544.06 1080.57 1545.2L1075.33 1547.8L1065.95 1552.51L1052.56 1558.8L1051.18 1559.59C1049.98 1560.14 1048.83 1560.5 1047.65 1561.17L1045.69 1562.34C1043.95 1563.1 1042.65 1563.86 1040.98 1564.7C1039.59 1565.4 1038.36 1565.59 1036.99 1566.49L1035.48 1567.45C1032.82 1568.51 1035.35 1567.07 1032.89 1568.58C1031.1 1569.69 1029.28 1570.42 1027.43 1571.39L1026.06 1572.17C1024.91 1572.78 1023.89 1573.2 1022.84 1573.99L1022.13 1574.53L1020.96 1574.92C1019.75 1575.52 1018.71 1576.36 1017.42 1576.89C1015.64 1577.61 1016.77 1576.84 1015.07 1578.07C1014.08 1578.78 1013.54 1579.24 1012.38 1579.73C1010.6 1580.47 1011.62 1579.97 1009.78 1580.96L1008.59 1581.61L1007.61 1582L1006.43 1582.78L1003.68 1584.36C998.755 1588.56 990.01 1592.6 983.99 1595.61L980.516 1597.33C978.831 1598.16 977.365 1599.37 975.709 1600.11L973.257 1601.26L969.528 1603.23L952.191 1612.91L950.68 1613.84C947.878 1614.93 945.108 1616.5 942.489 1618.03L931.055 1624.46C929.673 1625.27 928.483 1626.18 927.003 1626.84L911.254 1635.25L904.359 1639.4C903.49 1640.01 902.922 1640.53 901.94 1640.97C897.38 1643.01 892.049 1646.11 887.87 1648.83C885.071 1650.65 881.796 1652.2 879.158 1654.19L878.444 1654.73C877.286 1655.3 877.043 1655.77 876.088 1656.3L874.914 1656.69L873.737 1657.48C872.024 1658.52 870.381 1659.96 868.655 1660.82C866.987 1661.66 865.123 1662.78 863.53 1663.77C862.395 1664.47 862.294 1664.94 860.877 1665.22L859.997 1665.34L859.21 1666.13L858.004 1665.35C859.051 1654.28 859.2 1643.2 859.424 1632.1C859.575 1624.6 859.265 1615.75 861.576 1608.56L861.92 1607.56C864.068 1601.07 867.2 1594.98 872.104 1590.12C875.963 1586.3 880.795 1583.64 885.395 1580.84L907.491 1568.13L986.36 1525.44L1035.22 1496.42C1052.71 1484.83 1069.57 1471.94 1087.54 1461.13L1155.2 1424.76C1178.45 1411.8 1199.51 1396.86 1220.12 1380.06L1257.6 1348.01L1288.08 1323.48C1297.21 1315.83 1306 1306.79 1315.72 1300C1317.73 1298.6 1319.2 1297.37 1321.65 1297.37L1321.24 1298.75L1298.51 1320.17L1300.48 1322.48L1301.72 1321.98L1302.23 1322.04L1322.28 1301.93C1326.91 1297.57 1330.62 1292.54 1334.54 1287.56C1353.03 1264.08 1363.91 1238.26 1375.77 1211.17C1386.98 1185.55 1397.86 1160.07 1404.86 1132.9C1407.64 1122.13 1408 1111.08 1410.34 1100.3Z" fill="#0090F9"/>
<path d="M705.103 659.947C707.293 660.43 708.195 660.495 710.417 660.025C712.825 659.518 715.452 660.214 717.488 658.907C720.551 658.922 722.806 658.945 725.731 658.121C728.024 657.475 731.16 657.974 733.583 657.695L757.142 656.123C796.011 654.877 833.884 658.247 871.034 670.108L909.219 684.077C906.011 684.668 899.987 679.904 898.304 682.55L897.686 684.469L906.714 687.614L908.193 688.4C909.679 689.182 910.827 689.434 912.514 689.578L910.736 690.461L911.716 691.029C917.74 694.439 924.809 696.733 931.099 699.718C942.288 705.031 953.115 711.131 963.768 717.438C989.654 732.765 1012.37 751.028 1034.89 770.81C1063.79 796.202 1090.84 823.011 1112.77 854.873C1124.69 872.181 1132.66 891.794 1144.07 909.254C1159.38 936.61 1180.84 957.844 1204.73 977.758C1212.28 984.047 1220.11 990.876 1228.57 995.887C1228.21 999.03 1227.55 1000.63 1229.6 1003.31C1236.68 1012.54 1250.12 1020.21 1259.76 1026.52C1300.28 1053.06 1352.62 1075.85 1367.72 1126.26C1372.32 1141.62 1372.57 1158.06 1371.22 1173.93C1370.73 1179.64 1369.44 1185.23 1369.87 1190.98L1368.76 1193.95L1371.14 1196.01C1371.01 1200.13 1369.03 1204.54 1367.57 1208.37C1357.34 1235.2 1336.03 1259.85 1315.34 1279.39C1292.76 1300.7 1268.5 1317.52 1242.78 1334.65C1189.54 1370.11 1133.46 1399.68 1078.28 1431.82L918.326 1527.44L874.457 1549.73C870.033 1552.36 867.433 1553.66 866.132 1558.91C863.494 1569.57 862.477 1580.77 860.869 1591.63C857.234 1616.16 851.844 1637.85 837.701 1658.54C834.713 1662.91 831.112 1669.2 826.583 1671.93L824.592 1672.94C818.982 1681.46 803.517 1689.05 794.778 1694.49C786.411 1699.71 778.363 1705.42 769.462 1709.73C767.104 1708.6 764.619 1707.12 762.104 1706.42C743.298 1697.78 724.366 1685.84 707.653 1673.67L697.025 1550.7C685.718 1548.85 674.724 1544.52 663.83 1541.08C554.76 1493.47 451.341 1431.99 353.337 1364.63C298.235 1326.75 243.212 1287.26 197.215 1238.33C196.807 1237.17 194.73 1235.2 193.918 1234.2L184.108 1221.7C175.105 1209.53 167.545 1196.93 160.413 1183.62C160.751 1182.02 155.642 1170.48 154.911 1168.1C152.551 1160.41 150.929 1152.34 150.245 1144.32C149.155 1131.51 151.122 1120.49 154.178 1108.17C159.773 1105.4 162.702 1097.39 166.549 1092.42C175.059 1081.43 184.42 1071.37 195.45 1062.86C216.066 1046.97 238.369 1034.39 261.17 1021.97C277.29 1013.2 296.29 1004.81 309.92 992.354C325.125 982.308 340.136 972.242 353.086 959.274C368.791 943.542 380.002 925.437 390.711 906.113L425.763 852.545C467.085 794.313 518.619 747.019 582.185 714.1L617.05 697.464L636.6 689.599L637.988 688.954L636.659 688L642.27 686.188L642.896 686.041C643.853 685.094 643.97 685.133 645.252 684.861C646.967 684.498 648.579 684.349 649.889 683.047L650.354 682.51L652.712 682.896C653.962 681.774 655.294 681.141 657.029 681.131L658.206 681.324C662.295 678.992 668.42 677.686 673.076 676.753C674.894 676.39 673.621 675.933 674.24 674.656C675.379 672.308 679.242 669.215 681.236 667.368L674.944 668.477C671.688 668.888 669.303 669.666 665.985 669.188L684.117 664.426L693.738 661.858L694.722 661.671C698.246 660.851 701.495 660.325 705.103 659.947Z" fill="#030713"/>
<path d="M705.103 659.947C707.293 660.43 708.195 660.495 710.417 660.025C712.825 659.518 715.452 660.214 717.488 658.907C720.551 658.922 722.806 658.945 725.731 658.121C728.024 657.475 731.16 657.974 733.583 657.695L757.142 656.123C796.011 654.877 833.884 658.247 871.034 670.108L909.218 684.077C906.011 684.668 899.987 679.904 898.303 682.55L897.686 684.469L906.714 687.614L908.192 688.4C909.679 689.182 910.826 689.434 912.514 689.578L910.736 690.461C895.632 686.106 881.195 680.59 865.81 676.876C834.363 669.288 800.423 664.441 768.011 664.921C723.424 665.581 680.168 675.103 637.988 688.954L636.659 688L642.27 686.188L642.896 686.041C643.853 685.094 643.97 685.133 645.252 684.861C646.967 684.498 648.579 684.349 649.889 683.047L650.354 682.51L652.712 682.896C653.962 681.774 655.294 681.141 657.029 681.131L658.206 681.324C662.295 678.992 668.42 677.686 673.076 676.753C674.894 676.39 673.621 675.933 674.24 674.656C675.379 672.308 679.242 669.215 681.236 667.368L674.944 668.477C671.688 668.888 669.303 669.666 665.984 669.188L684.117 664.426L693.738 661.858L694.722 661.671C698.246 660.851 701.495 660.325 705.103 659.947Z" fill="url(#paint10_linear_1201_82)"/>
<path d="M711.876 1617.38C725.14 1630.73 739.96 1642.93 759.887 1642.85C780.934 1642.76 808.561 1633.55 825.117 1620.45L825.492 1621.2C825.938 1622.09 825.712 1621.78 826.151 1622.29C825.029 1637.49 825.054 1654.54 821.359 1669.28C821.112 1670.27 820.724 1672.3 820.165 1673.14C817.745 1676.76 810.195 1680.38 806.537 1682.7L769.493 1705.9L738.704 1689.18C729.646 1684.04 720.601 1679.07 712.754 1672.18L711.876 1617.38Z" fill="#393B46"/>
<path d="M1368.76 1193.95L1371.14 1196.01C1371.01 1200.13 1369.03 1204.54 1367.57 1208.37C1357.34 1235.2 1336.03 1259.85 1315.34 1279.39C1292.76 1300.7 1268.5 1317.52 1242.78 1334.65C1189.54 1370.11 1133.46 1399.68 1078.28 1431.82L918.326 1527.44L874.457 1549.73C870.033 1552.36 867.433 1553.66 866.132 1558.91C863.494 1569.57 862.477 1580.77 860.868 1591.63C857.234 1616.16 851.844 1637.85 837.701 1658.54C834.713 1662.91 831.111 1669.2 826.583 1671.93L824.591 1672.94C828.369 1657.87 828.792 1641.1 830.297 1625.59L837.717 1550.83C846.861 1546.98 857.225 1544.74 866.748 1541.88C899.334 1528.85 928.458 1511.7 958.596 1493.94L1070.52 1425.77L1125.49 1394.99C1165.48 1372.44 1205.11 1349.16 1243 1323.21C1260.28 1311.38 1277.28 1299.51 1293.35 1286.05C1324.2 1260.21 1350.94 1230.24 1368.76 1193.95Z" fill="url(#paint11_linear_1201_82)"/>
<path d="M714.389 1575.96C713.909 1563.75 714.707 1550.13 712.689 1538.15C716.525 1533.7 721.2 1527.28 726.397 1524.44C735.8 1528.24 745.153 1532.09 755.316 1533.22C769.194 1534.78 784.416 1532.9 798.042 1530.15C800.293 1529.69 811.21 1525.85 812.251 1526.15C816.283 1527.34 823.842 1536.17 826.717 1539.44L816.386 1606.9L817.37 1609.52L826.503 1611.27C826.484 1614.7 826.974 1619 826.151 1622.29C825.712 1621.78 825.938 1622.09 825.492 1621.2L825.117 1620.45C808.561 1633.55 780.934 1642.76 759.887 1642.85C739.96 1642.93 725.14 1630.73 711.876 1617.38C712.28 1610.8 713.66 1604.28 714.087 1597.73C714.556 1590.52 714.389 1583.18 714.389 1575.96Z" fill="#393B46"/>
<path d="M714.389 1575.96L714.531 1576.8C715.85 1585.2 713.011 1594.54 717.701 1601.99L718.415 1603.18C725.346 1614.42 739.927 1626.19 752.427 1630.41L753.204 1630.68C756.137 1631.62 759.979 1631.2 763.028 1630.84C777.542 1629.13 793.388 1620.65 806.07 1613.46C809.359 1611.59 813.647 1609.48 816.386 1606.9L817.37 1609.52L826.503 1611.27C826.484 1614.7 826.974 1619 826.151 1622.29C825.712 1621.78 825.938 1622.09 825.492 1621.2L825.117 1620.45C808.561 1633.55 780.934 1642.76 759.887 1642.85C739.96 1642.93 725.14 1630.73 711.876 1617.38C712.28 1610.8 713.66 1604.28 714.087 1597.73C714.556 1590.52 714.389 1583.18 714.389 1575.96Z" fill="#2A2B36"/>
<path d="M591.76 1438.31L588.359 1438.07C587.484 1437.08 586.73 1436.22 585.625 1435.48C580.884 1432.31 576.366 1428.29 571.845 1424.75L571.831 1425.93L570.857 1426.52L568.305 1425.14L567.126 1424.36L558.098 1418.07C556.808 1417.16 555.518 1416.51 554.172 1415.71L551.228 1413.94L540.039 1407.84C539.128 1407.25 538.807 1406.73 537.721 1406.46C530.106 1404.55 522.398 1398.44 514.913 1395.66L513.343 1395.26L508.336 1392.83L475.372 1375.89L463.448 1369.94L462.306 1369.32L461.907 1370.1L461.13 1371.27L461.907 1372.86C463.806 1373.83 464.553 1374.74 465.832 1376.39L464.216 1378.62L463.477 1379.54L464.262 1380.72L463.092 1381.9L463.873 1382.88L463.288 1383.67L463.873 1384.45L463.288 1385.24L463.873 1386.03L463.288 1386.81L464.262 1387.79L461.913 1389.76L461.907 1390.94L460.148 1392.32L460.336 1394.08L459.166 1394.67C457.625 1395.59 459.174 1395.01 457.447 1395.59L456.613 1395.85L456.41 1398.41C455.416 1399.91 455.952 1399.41 454.407 1400.44L453.278 1401.15C454.823 1402.73 457.292 1403.56 459.166 1404.7L462.11 1406.47L463.483 1407.06C464.593 1407.71 465.244 1408.57 466.49 1409.13L470.158 1410.99C471.117 1411.61 471.383 1412.09 472.526 1412.38C473.519 1412.63 473.106 1412.41 473.925 1412.99C476.95 1415.16 480.763 1416.59 484.095 1418.26C487.195 1419.81 490.495 1421.98 493.713 1423.18L495.284 1423.57L500.277 1425.99C505.292 1428.69 511.469 1431.22 516.875 1433.03L518.054 1433.4L520.409 1434.19C523.544 1435.07 526.362 1436.72 529.438 1437.75L530.617 1438.11L532.972 1438.9L534.542 1439.29C536.733 1440.3 540.581 1442.14 542.897 1442.35C544.396 1442.49 543.652 1442.27 545.154 1443.02C546.573 1443.73 545.945 1443.57 547.363 1443.85L548.282 1444.01C549.433 1444.39 550.715 1444.61 551.812 1445L557.116 1446.57C558.793 1447.05 560.801 1447.39 562.415 1447.94C564.553 1448.68 566.05 1448.68 568.305 1448.73C570.928 1450.48 573.797 1448.69 576.548 1449.52C579.065 1450.28 581.335 1449.99 583.822 1450.7C577.553 1450.92 571.192 1450.59 564.995 1449.55C554.182 1447.73 543.521 1443.82 533.219 1440.15C509.903 1431.85 488.301 1422.22 466.505 1410.48C434.654 1393.32 405.908 1372.28 375.967 1352.18C346.484 1332.39 315.745 1313.63 287.368 1292.28C271.654 1280.46 256.828 1267.26 242.326 1253.98C233.664 1246.05 223.936 1238.23 217.012 1228.69C220 1213.97 224.705 1200.16 231.861 1186.93C237.272 1176.93 244.428 1167.99 251.271 1158.96L274.491 1128.87C281.396 1149.64 286.304 1175.4 299.527 1193.12C307.15 1200.78 313.302 1209.32 320.148 1217.64L344.531 1247.44C358.199 1265.92 369.579 1284.06 387.206 1299.26L385.782 1298.96C373.477 1296.43 360.898 1296.62 348.848 1292.53C341.193 1289.93 333.909 1286.51 326.589 1283.11C322.812 1281.35 318.685 1278.94 314.671 1277.93C324.843 1287.4 337.458 1294.3 348.951 1302.06C353.004 1304.8 358.98 1310.11 363.548 1311.52L394.195 1330.56C396.873 1332.15 400.816 1335.16 403.731 1336.01C418.287 1346.47 435.967 1354.56 451.953 1362.65L502.084 1388.28L535.256 1403.98L554.969 1414.68C559.329 1417.3 563.489 1420.76 568.305 1422.43L570.518 1421.64L591.76 1438.31Z" fill="#2A2B36"/>
<path d="M1150.72 1203.43C1158.2 1191.4 1167.58 1181.15 1175.72 1169.65C1187.91 1152.4 1193.66 1132.34 1193.4 1111.34C1194.88 1114.17 1195.91 1117.19 1197.47 1119.98C1203.6 1130.96 1210.72 1140.74 1214.71 1152.89C1216.51 1158.37 1217.1 1164.31 1218.39 1169.94L1218.25 1170.83L1217.68 1173.64C1217.3 1175.5 1217.35 1174.72 1217.64 1176.59C1225.18 1182.36 1229.06 1189.89 1232.98 1198.42C1239.68 1176.82 1249.01 1154.2 1250.17 1131.34C1281.4 1159.27 1307.45 1192.5 1309.65 1236.04C1309.89 1240.67 1307.04 1243.15 1304.02 1246.38C1289.05 1262.41 1271.3 1276.44 1253.99 1289.84L1209.66 1322.85C1174.08 1346.73 1135.85 1366.65 1097.51 1385.65C1080.37 1394.15 1063.3 1403.46 1045.21 1409.81C1021.59 1418.11 996.224 1421.59 971.884 1427.18L971.624 1426.64L974.943 1423.77L973.475 1424.07C972.189 1424.45 972.183 1424.73 970.698 1424.75C971.283 1421.84 973.49 1420.17 975.462 1418.02C977.217 1415.35 981.17 1412.52 983.571 1410.2L998.871 1394.47C1010.27 1382.3 1020.22 1368.89 1029.8 1355.26L1036.6 1345.87C1050.55 1330.29 1062.4 1313.24 1072.01 1294.66C1075.46 1288 1079.22 1281.11 1081.23 1273.86C1084.05 1263.7 1084.28 1254.06 1084.27 1243.62L1085.25 1244.3C1087.76 1254 1086.99 1263.91 1085.76 1273.74C1113.89 1259.87 1134.99 1229.57 1150.72 1203.43Z" fill="#2A2B36"/>
<path d="M1150.72 1203.43C1158.2 1191.4 1167.58 1181.15 1175.72 1169.65C1187.91 1152.4 1193.66 1132.34 1193.4 1111.34C1194.88 1114.17 1195.91 1117.19 1197.47 1119.98C1203.6 1130.96 1210.72 1140.74 1214.71 1152.89C1216.51 1158.37 1217.1 1164.31 1218.39 1169.94L1218.25 1170.83L1217.68 1173.64C1217.3 1175.5 1217.35 1174.72 1217.64 1176.59L1217.05 1177.78C1215.63 1180.83 1215.58 1184.78 1214.95 1188.08C1213.71 1194.57 1212.05 1201.06 1209.91 1207.32C1205.34 1220.7 1198.09 1233.5 1191.57 1246.01C1185.02 1258.6 1179.02 1271.15 1170.65 1282.71C1166.1 1288.98 1160.3 1295.01 1154.9 1300.59C1166.95 1297.02 1179.46 1296.17 1191.52 1292.9C1203.81 1289.57 1214.33 1283.85 1226.04 1279.29C1217.13 1289.62 1205.17 1296.87 1193.5 1303.68C1170.16 1317.32 1145.15 1328.01 1120.97 1340.05L1031.71 1385.21C1016.72 1393.06 1002.44 1403.05 989.034 1413.35C986.542 1415.26 977.353 1423.53 974.943 1423.77L973.475 1424.07C972.189 1424.45 972.183 1424.73 970.698 1424.75C971.283 1421.84 973.49 1420.17 975.462 1418.02C977.217 1415.35 981.17 1412.52 983.571 1410.2L998.871 1394.47C1010.27 1382.3 1020.22 1368.89 1029.8 1355.26L1036.6 1345.87C1050.55 1330.29 1062.4 1313.24 1072.01 1294.66C1075.46 1288 1079.22 1281.11 1081.23 1273.86C1084.05 1263.7 1084.28 1254.06 1084.27 1243.62L1085.25 1244.3C1087.76 1254 1086.99 1263.91 1085.76 1273.74C1113.89 1259.87 1134.99 1229.57 1150.72 1203.43Z" fill="url(#paint12_linear_1201_82)"/>
<path d="M1162.42 1084.72C1162.62 1081.83 1161.25 1078.68 1160.65 1075.85C1159.52 1070.45 1158.84 1064.79 1158.32 1059.29L1154.93 1000.56C1159.95 1003.33 1164.82 1008.59 1168.75 1012.74C1186.75 1031.8 1197.15 1052.67 1208.56 1075.85C1220.48 1105.87 1228.47 1138.27 1218.39 1169.94C1217.1 1164.31 1216.51 1158.37 1214.71 1152.89C1210.72 1140.74 1203.6 1130.96 1197.47 1119.98C1195.91 1117.19 1194.88 1114.17 1193.4 1111.34C1193.66 1132.34 1187.91 1152.4 1175.72 1169.65C1167.58 1181.15 1158.2 1191.4 1150.73 1203.43C1134.99 1229.57 1113.89 1259.87 1085.76 1273.74C1086.99 1263.91 1087.76 1254 1085.25 1244.3L1084.27 1243.62C1084.28 1254.06 1084.05 1263.7 1081.23 1273.86C1079.22 1281.11 1075.46 1288 1072.01 1294.66C1062.4 1313.24 1050.55 1330.29 1036.6 1345.87L1029.8 1355.26C1020.22 1368.89 1010.27 1382.3 998.871 1394.47L983.571 1410.2C981.17 1412.52 977.217 1415.35 975.462 1418.02L971.289 1417.8C964.514 1424.89 955.787 1431.08 948.155 1437.29L907.232 1471.72L913.138 1462.66C923.218 1446.29 930.475 1428.14 938.852 1410.89C955.408 1376.78 975.439 1343.09 977.834 1304.32C978.391 1295.31 978.395 1286.15 976.304 1277.32L975.787 1278.59C975.579 1299.7 972.522 1319.93 964.733 1339.69C948.869 1379.94 916.105 1411.78 885.812 1441.54C864.076 1462.9 839.317 1485.16 809.991 1495.05C796.363 1499.65 781.219 1501.32 766.88 1501.18C730.984 1500.81 699.651 1486.78 673.618 1462.27L644.756 1436.12C618.148 1411.69 592.737 1386.37 574.674 1354.69C561.513 1331.6 550.336 1300.34 557.595 1273.63C549.976 1285.6 552.134 1307.28 555.154 1320.6C562.287 1352.08 579.946 1379.45 595.572 1407.2C599.615 1414.38 604.389 1421.74 607.806 1429.21L631.969 1469.47C621.542 1459.31 610.147 1451.27 598.334 1442.87C596.843 1441.81 593.388 1438.69 591.759 1438.31L570.518 1421.64C544.63 1399.35 519.168 1374.11 504.011 1342.98C497.74 1330.1 493.839 1316.7 490.811 1302.76C489.49 1318.83 496.031 1336.49 502.296 1350.99L501.509 1350.27C496.837 1345.29 492.549 1339.56 488.144 1334.31C470.432 1313.2 453.697 1289.47 448.969 1261.76C447.866 1255.29 448.123 1248.37 448.085 1241.82C446.13 1246.17 445.288 1250.7 444.319 1255.35C444.306 1258.94 445.139 1267.53 443.41 1270.32L442.828 1270.46C435.179 1267.28 428.194 1261.66 422.026 1256.2C403.366 1239.7 391.463 1221.14 381.109 1198.7C375.682 1187.68 368.636 1180.02 361.107 1170.49C349.533 1155.85 341.015 1137.4 343.404 1118.43L343.551 1117.35C336.796 1127.8 328.959 1137.51 322.604 1148.23C318.919 1154.45 316.342 1161.18 313.119 1167.64C304.399 1135.83 310.209 1100.58 324.614 1071.46L325.232 1070.74C328.756 1066.33 331.419 1060.86 334.648 1056.17C344.424 1041.98 354.805 1028.42 366.291 1015.56C369.558 1011.9 373.59 1006.72 377.562 1004L373.777 1081.62C383.731 1067.4 400.223 1062.17 416.668 1059.33C459.585 1051.92 506.427 1060.72 546.511 1076.53C560.022 1081.86 573.832 1088.02 585.717 1096.48C599.733 1106.45 614.023 1122.11 616.952 1139.72C618.83 1151.02 616.353 1161.88 613.005 1172.62C607.965 1188.8 600.974 1202.86 592.048 1217.26C589.056 1222.08 582.672 1229.06 581.127 1234.26C596.594 1218.46 614.408 1205.48 631.726 1191.83C650.662 1176.91 670.344 1159.82 691.7 1148.63C698.84 1144.89 706.273 1142.02 714.452 1141.95C724.244 1141.87 732.821 1145.99 739.682 1152.88C754.328 1167.59 765.911 1191.96 767.9 1212.47C771.681 1191.22 780.647 1165.69 799.5 1153.07C808.612 1146.97 819.001 1145.85 829.612 1148.22C852.399 1153.31 873.863 1172.11 892.426 1185.71C912.977 1200.77 933.245 1215.92 952.504 1232.63C940.025 1212.26 927.026 1190.23 921.381 1166.82C919.154 1157.58 918.159 1148.6 920.408 1139.27C925.72 1117.22 940.925 1102.44 959.859 1090.97C994.568 1069.92 1036.7 1058.94 1076.97 1056.41C1093.34 1055.38 1110.73 1055.47 1126.74 1059.52C1139.99 1062.87 1153.24 1069.21 1160.49 1081.31L1162.42 1084.72Z" fill="white"/>
<path d="M625.589 1300.69C636.307 1302.21 644.502 1304.39 654.379 1308.83C656.422 1309.75 659.123 1310.54 660.564 1312.32L659.274 1313.19C652.511 1314.14 647.147 1310.89 641.177 1308.17C635.886 1305.76 630.673 1303.53 625.589 1300.69Z" fill="#030713"/>
<path d="M909.828 1302.09L912.878 1301.95L912.839 1302.87C903.816 1307.38 891.438 1312.99 881.352 1313.1L877.677 1311.76L877.738 1310.74C887.879 1305.89 898.804 1303.82 909.828 1302.09Z" fill="#030713"/>
<path d="M443.41 1270.32L443.184 1264.35C440.701 1261.4 439.036 1257.69 436.85 1254.49C429.168 1243.25 420.604 1232.57 416.865 1219.21C421.586 1225.23 425.366 1231.89 430.512 1237.63C434.417 1241.98 440.152 1245.74 442.298 1251.36C442.715 1252.45 443.06 1253.36 443.686 1254.36L444.319 1255.35C444.306 1258.94 445.139 1267.53 443.41 1270.32Z" fill="#D3D2D2"/>
<path d="M612.647 1251.77L613.803 1252.55C601.732 1264.19 588.751 1278.09 587.978 1295.92L587.568 1305.24L587.088 1304.53C586.156 1302.66 586.33 1300 586.299 1297.93C586.179 1290.15 586.494 1280.78 589.699 1273.6L590.166 1272.6C591.475 1269.76 592.863 1266.93 594.687 1264.37C599.031 1258.28 605.141 1253.03 612.647 1251.77Z" fill="#D3D2D2"/>
<path d="M915.515 1249.41C916.901 1249.09 918.056 1248.86 919.486 1249.04C927.391 1250.03 934.997 1255.69 939.428 1262.18C948.58 1275.59 946.344 1295.77 943.396 1310.74L942.478 1312.06C942.985 1300.02 944.488 1286.33 938.657 1275.17C933.389 1265.1 928.249 1257.24 917.778 1252.02C916.099 1251.18 916.325 1251.01 915.515 1249.41Z" fill="#D3D2D2"/>
<path d="M440.506 1197.31C446.704 1206.57 452.269 1216.51 459.536 1224.99C471.293 1238.71 485.945 1248.63 499.831 1259.93C507.367 1266.06 514.379 1272.71 522.193 1278.5C522.007 1278.55 521.825 1278.66 521.634 1278.64C518.927 1278.44 515.92 1275.82 513.659 1274.4L501.109 1267.28L473.536 1253.28C467.131 1249.7 460.939 1245.49 456.203 1239.81C446.444 1228.11 444.486 1211.56 440.506 1197.31Z" fill="#D3D2D2"/>
<path d="M1035.23 1266.68C1027.66 1268.87 1017.41 1274.63 1011.21 1279.53C1009.87 1280.59 1009.36 1281.04 1007.72 1281.65C1012.09 1274.94 1023.33 1269.74 1030.04 1265.32C1036.99 1260.74 1043.97 1255.86 1050.4 1250.56C1067 1236.86 1082.47 1216.85 1093.42 1198.3C1094.82 1202.19 1089.36 1225.97 1087.63 1230.71C1086.3 1234.36 1085.28 1237.53 1082.89 1240.64C1069.18 1253.53 1051.44 1257.8 1035.23 1266.68Z" fill="#D3D2D2"/>
<path d="M607.806 1429.21C603.968 1426.96 603.089 1424 600.897 1420.42L595.949 1411.5L595.401 1410.6L594.808 1409.42L594.22 1408.63L587.863 1397.08L587.153 1396.05L587.149 1394.87C584.89 1393.35 584.446 1390.98 582.984 1388.79L582.442 1387.99C581.674 1386.52 582.522 1387.44 581.437 1386.35L580.872 1385.82C580.388 1382.43 576.705 1378.31 575.156 1375.21L572.235 1369.31L571.06 1366.96C570.187 1365.56 569.743 1364.13 568.874 1362.83L568.309 1362.04L568.305 1361.06L566.739 1358.9L565.168 1355.16C564.745 1354.06 564.961 1353.81 564.188 1352.78C562.608 1350.67 562.283 1347.36 560.853 1344.94L560.068 1343.76L560.453 1342.19L559.283 1341.4C559.134 1339.69 558.893 1338.49 558.1 1336.98C557.631 1336.09 557.151 1335.34 556.927 1334.33L556.527 1331.58C555.484 1328.94 555.851 1331.67 555.633 1329.45C555.508 1328.17 555.665 1328.7 555.267 1327.51L554.961 1326.66L554.572 1325.28L553.786 1324.11C553.828 1322.9 553.881 1321.91 553.527 1320.74C552.84 1318.46 552.294 1316.99 552.492 1314.55C552.658 1312.54 551.358 1311.91 551.623 1309.56C551.91 1307.02 551.297 1308.02 550.646 1306.02C549.925 1303.81 551.272 1300.28 550.863 1297.77C550.311 1294.39 550.154 1289.29 551.035 1285.98L552.21 1285.59C552.693 1284.12 552.553 1284.21 552.201 1282.83L550.639 1284.78C548.458 1282.6 549.965 1281.78 548.675 1279.87L546.32 1280.07L543.964 1278.49C542.327 1277.75 542.974 1278.48 541.609 1277.71L540.043 1276.53L536.701 1275.35C536.423 1276.71 536.044 1278.01 536.184 1279.41C536.324 1280.79 536.561 1282.07 536.425 1283.47C536.247 1285.3 536.297 1283.44 536.305 1285.92V1287.54L536.113 1290.29C536.372 1291.59 536.977 1292.4 537.091 1293.83C537.201 1295.24 536.732 1297.25 537.091 1298.55C537.442 1299.83 537.974 1300.24 537.876 1301.7L537.683 1302.87C538.747 1305.36 538.192 1307.15 538.661 1309.56C539.369 1313.2 538.853 1308.35 539.155 1311.35C539.293 1312.73 539.293 1313.89 539.865 1315.19C540.644 1316.95 539.808 1317.84 541.016 1319.78L540.824 1321.35L541.609 1322.53L541.806 1325.09C542.222 1326.67 543.039 1328.39 543.372 1330C543.992 1333.01 543.131 1330.29 543.939 1332.72C544.599 1334.69 545.593 1336.89 546.123 1338.85C546.485 1340.18 546.171 1340.78 546.873 1342.18C547.474 1343.38 547.928 1344.42 548.282 1345.73L548.675 1347.3C549.674 1349.23 549.333 1347.69 549.68 1349.44C549.951 1350.79 550.011 1351.7 550.759 1352.9L551.224 1353.59L551.031 1354.77C551.617 1355.69 552.137 1356.43 552.405 1357.5C552.838 1359.23 553.929 1361.78 554.75 1363.42L555.679 1365.43C556.567 1367.82 557.463 1370.33 558.883 1372.46L559.664 1373.44C559.668 1374.59 559.861 1375.39 560.453 1376.39C561.025 1377.36 561.552 1377.61 561.839 1378.76C562.088 1379.76 561.868 1379.35 562.453 1380.16C566.443 1385.76 568.962 1392.7 573.016 1398.41C574.19 1400.06 575.022 1401.85 576.144 1403.53L578.512 1407.06L579.293 1408.04C579.299 1409.49 579.691 1409.42 580.671 1410.4L580.476 1412.07C566.196 1390.46 554.8 1368.74 546.439 1344.16C535.48 1311.93 528.255 1272.56 544.163 1240.8C545.771 1237.59 548.154 1232.79 551.862 1231.69C555.254 1230.68 559.515 1231.74 562.509 1233.44L563.594 1234.09C567.928 1236.59 570.819 1239.3 574.234 1242.91C571.586 1247.07 569.777 1251.93 567.723 1256.42C564.574 1260.63 562.518 1264.86 559.974 1269.38C559.536 1270.16 559.27 1271.01 558.878 1271.81L557.595 1273.63C549.976 1285.6 552.134 1307.28 555.154 1320.6C562.287 1352.08 579.946 1379.45 595.572 1407.2C599.615 1414.38 604.389 1421.74 607.806 1429.21Z" fill="#D3D2D2"/>
<path d="M661.317 1392.41C656.86 1388.49 651.927 1383.99 648.357 1379.27C658.608 1386.82 669.49 1394.23 681.636 1398.34C704.916 1406.21 731.175 1402.94 752.908 1392.02C742.102 1388.18 731.713 1384.74 722.123 1378.2C694.602 1359.43 685.247 1331.13 679.376 1299.71C676.761 1285.72 672.691 1263.47 681.558 1251.06C693.281 1234.65 716.55 1225.92 735.664 1222.59C768.614 1216.85 811.097 1217.99 839.321 1237.98C847.531 1243.79 856.371 1253.38 857.833 1263.76C859.03 1272.27 857.585 1281.4 856.488 1289.86C853.168 1315.48 848.48 1340.49 832.422 1361.48C818.467 1376.72 802.577 1387.84 782.374 1392.99C803.97 1403.3 827.232 1406.13 850.19 1398.02C860.446 1394.39 869.005 1388.63 877.355 1381.74C879.964 1379.58 882.296 1376.8 885.085 1374.94C881.451 1380.96 877.248 1386.3 872.688 1391.64C848.473 1411.97 819.372 1425.1 787.686 1428.09C744.931 1432.12 694.628 1420.08 661.317 1392.41Z" fill="#030713"/>
<path d="M827.728 1331.97L829.778 1331.47L830.814 1332.36C829.864 1334.01 828.995 1335.14 827.472 1336.32C822.621 1340.08 816.555 1341.49 810.53 1340.88C809.334 1340.35 808.417 1339.67 807.353 1338.91C809.539 1337.1 812.912 1337.04 815.634 1336.21L827.728 1331.97Z" fill="white"/>
<path d="M700.945 1331.51L714.175 1334.77C717.913 1335.5 724.278 1335.6 726.983 1338.26L725.731 1340.54C724.582 1340.96 723.434 1341.43 722.199 1341.54C713.677 1342.34 706.799 1336.82 700.945 1331.51Z" fill="white"/>
<path d="M817.718 1269.14C830.341 1272.99 839.439 1286.65 845.617 1297.77L845.469 1302.09L844.686 1302.39C842.55 1298.85 840.969 1295.02 838.635 1291.6C832.722 1282.92 825.523 1277.5 816.16 1273.11C817.441 1273.07 819.365 1272.88 820.613 1273.25L821.916 1273.79L823.097 1272.8C821.109 1271.94 819.839 1271.08 818.233 1269.62L817.718 1269.14Z" fill="#D3D2D2"/>
<path d="M690.314 1293.32C691.045 1294.81 690.658 1294.7 692.362 1295.36C697.833 1286.42 705.547 1274.49 715.262 1269.74C721.663 1266.62 730.626 1267.1 737.617 1267.06L767.67 1267.05L796.149 1267.18C803.092 1267.25 811.095 1266.92 817.718 1269.14L818.233 1269.62C819.839 1271.08 821.109 1271.94 823.096 1272.8L821.916 1273.79L820.613 1273.25C819.365 1272.88 817.441 1273.07 816.16 1273.11L810.906 1272.12C798.693 1269.68 784.69 1270.86 772.194 1270.8L744.604 1270.73C737.488 1270.74 730.302 1270.61 723.377 1272.43L722.075 1272.75C711.321 1275.5 706.514 1281.31 699.831 1289.61C697.672 1292.29 694.973 1295.15 693.304 1298.16L690.17 1305.15L689.234 1293.03L689.224 1292.52L690.314 1293.32Z" fill="url(#paint13_linear_1201_82)"/>
<path d="M696.481 1257.33C699.697 1253.2 704.313 1250.13 708.363 1246.84C724.791 1233.5 746.482 1230.91 766.92 1230.91C772.95 1230.92 779.068 1230.74 785.067 1231.43C800.854 1233.25 813.22 1236.94 826.331 1246.17C829.608 1248.48 832.657 1250.36 835.268 1253.48C833.58 1253.79 833.042 1254.24 831.461 1253.46C828.54 1252.03 825.477 1250.62 822.259 1250.05C804.726 1246.96 785.796 1248.1 768.017 1248.03L736.145 1248.08C727.758 1248.2 718.302 1248.28 710.362 1251.25C705.53 1253.06 701.562 1256.49 696.481 1257.33Z" fill="url(#paint14_linear_1201_82)"/>
<path d="M696.481 1257.33C701.562 1256.49 705.53 1253.06 710.362 1251.25C718.302 1248.28 727.758 1248.2 736.145 1248.08L768.017 1248.03C785.796 1248.1 804.726 1246.96 822.259 1250.05C825.477 1250.62 828.54 1252.03 831.461 1253.46C833.042 1254.24 833.58 1253.79 835.268 1253.48C841.019 1258.71 848.729 1264.92 849.39 1273.32C849.895 1279.76 848.865 1286.19 847.481 1292.44C840.58 1280.67 833.773 1269.13 819.56 1265.45C802.221 1260.97 781.281 1262.83 763.402 1262.85C749.958 1262.88 735.513 1262.05 722.211 1263.94C717.831 1264.57 714.091 1265.64 710.285 1267.95C701.248 1273.45 693.359 1283.22 690.314 1293.32L689.223 1292.52C688.6 1284.23 687.513 1274.66 690.605 1266.73C691.954 1263.27 694.29 1260.29 696.481 1257.33Z" fill="white"/>
<path d="M868.391 1445.36C878.567 1434.46 886.543 1421.87 895.965 1410.33C906.612 1397.3 919.109 1385.87 929.313 1372.43C937.531 1361.6 943.506 1349.23 949.962 1337.35C954.779 1328.49 960.468 1317.56 962.721 1307.73C964.612 1299.47 965.742 1290.64 965.322 1282.16C964.717 1269.98 957.815 1255.79 964.869 1244.43C968.28 1238.94 976.084 1234.26 982.334 1232.83C984.748 1232.28 987.69 1232.03 989.762 1233.57C997.038 1238.99 999.517 1254.08 1000.71 1262.55C1001.39 1272.49 1002.42 1286.1 998.659 1295.41L977.987 1362.91L972.193 1383.86L970.698 1387.4C963.412 1404.51 952.537 1421.75 940.309 1435.76C941.871 1435.76 943.743 1433.39 944.884 1432.21C947.018 1429.98 945.102 1432.18 946.561 1429.66C947.855 1427.44 950.02 1425.44 951.469 1423.18L956.193 1416.11C957.315 1414.43 958.146 1412.64 959.321 1410.99C963.056 1405.72 968.956 1396.73 970.498 1390.56C970.793 1389.38 971.377 1388.49 971.884 1387.4L972.669 1385.44L973.257 1384.06L974.252 1380.71C974.765 1379.16 975.045 1377.73 975.613 1376.2L976.766 1371.11C977.637 1366.75 979.111 1362.37 980.324 1358.11C980.738 1356.66 980.803 1355.47 981.306 1353.98C982.147 1351.48 982.539 1348.82 983.464 1346.32L984.25 1343.12C984.599 1341.38 984.243 1342.99 985.035 1340.81C986.387 1337.1 987.057 1333.16 988.69 1329.56C989.321 1328.17 989.103 1328.78 989.231 1327.37C989.381 1325.72 990.453 1323.31 990.925 1321.55C991.442 1319.61 992.443 1317.41 993.096 1315.44C993.751 1313.48 994.095 1311.84 994.972 1309.9C995.562 1308.6 995.296 1307.84 995.636 1306.61C995.987 1305.33 996.71 1304.17 997.07 1302.84C997.499 1301.27 997.248 1302.05 998.014 1300.52C998.751 1299.04 998.531 1299.75 998.665 1298.27C998.845 1296.29 1000.67 1291.68 1001.72 1289.9L1000.93 1287.94L1002.5 1287.54L1002.91 1287.94H1004.08C1006.76 1285.2 1009.52 1281.6 1012.91 1279.88L1014.28 1278.89L1017.87 1276.46C1019.04 1275.68 1019.49 1275.87 1020.56 1275.36L1022.13 1274.18L1024.69 1272.8L1027.63 1271.03L1028.34 1270.86C1030.84 1270.23 1033.13 1268.5 1035.52 1267.49L1035.23 1266.68C1051.44 1257.8 1069.18 1253.53 1082.89 1240.64L1084.27 1243.62C1084.28 1254.06 1084.05 1263.7 1081.23 1273.86C1079.22 1281.11 1075.46 1288 1072.01 1294.66C1062.4 1313.24 1050.55 1330.29 1036.6 1345.87L1029.8 1355.26C1020.22 1368.89 1010.27 1382.3 998.87 1394.47L983.571 1410.2C981.17 1412.52 977.216 1415.35 975.462 1418.02L971.289 1417.8C964.513 1424.89 955.786 1431.08 948.155 1437.29L907.231 1471.72L913.138 1462.66C923.217 1446.29 930.475 1428.14 938.852 1410.89C955.407 1376.78 975.439 1343.09 977.834 1304.32C978.391 1295.31 978.395 1286.15 976.304 1277.32L975.786 1278.59C975.579 1299.7 972.522 1319.93 964.733 1339.69C948.869 1379.94 916.105 1411.78 885.812 1441.54C864.076 1462.9 839.317 1485.16 809.991 1495.05C796.363 1499.65 781.218 1501.32 766.88 1501.18C730.984 1500.81 699.651 1486.78 673.618 1462.27C678.378 1463.53 679.965 1465.98 683.922 1468.78L684.117 1465.77C681.686 1464.49 679.406 1463.12 678.371 1460.45C676.847 1456.51 673.432 1453.39 670.616 1450.31C665.34 1444.53 658.306 1437.58 654.837 1430.61C654.255 1429.44 653.947 1428.73 653.074 1427.7C649.63 1423.63 646.129 1419.67 643.193 1415.2L648.784 1420.81L649.433 1421.99C651.357 1424.35 653.512 1426.58 656.305 1427.86L656.96 1428.15L663.673 1435.21C664.64 1434.48 664.724 1434.56 665.352 1433.56C668.627 1428.33 661.353 1412.23 659.711 1406.27C659.062 1403.92 658.078 1398.27 659.261 1396.01L661.317 1392.41C694.628 1420.08 744.931 1432.12 787.686 1428.09C819.372 1425.1 848.473 1411.97 872.688 1391.64L872.824 1393.49C873.986 1392.39 874.447 1391.33 876.097 1391.33C876.097 1392.79 876.187 1392 875.707 1393.69L876.39 1396.09C877.037 1398.82 875.707 1403.1 875.111 1405.83C872.692 1416.93 868.71 1427.2 868.082 1438.66C867.96 1440.87 867.56 1443.3 868.391 1445.36Z" fill="url(#paint15_linear_1201_82)"/>
<path d="M1013.71 1367.05C1025.87 1346.54 1039.09 1323.21 1042.82 1299.42L1043.83 1299.45C1043.47 1309.06 1042.53 1318.33 1040.44 1327.75L1037.35 1339.05C1037 1340.1 1035.81 1342.62 1035.81 1343.61C1035.81 1344.41 1036.33 1345.12 1036.6 1345.87L1029.8 1355.26C1020.22 1368.89 1010.27 1382.3 998.87 1394.47L983.571 1410.2C981.17 1412.52 977.216 1415.35 975.462 1418.02L971.289 1417.8C987.38 1401.95 1000.7 1385.52 1013.71 1367.05Z" fill="url(#paint16_linear_1201_82)"/>
<path d="M719.2 1474.9C731.771 1477.24 743.568 1479.71 756.39 1480.57C783.097 1482.36 812.902 1478.01 838.241 1469.25L838.013 1471.53L838.915 1472.35C836.537 1474.88 833.205 1475.42 830.199 1477.01C826.122 1479.17 821.526 1480.16 817.146 1481.54C800.62 1486.72 785.735 1488.71 768.524 1489.34C758.673 1489.71 748.936 1490.03 739.165 1488.42C731.269 1487.11 721.288 1485.15 715.329 1479.4L713.792 1479.67C711.792 1478.42 710.601 1477.92 710.023 1475.41C709.877 1474.78 710.05 1474.11 710.161 1473.5C711.688 1473.85 712.961 1474.21 714.424 1474.73C715.993 1475.29 717.576 1475.04 719.2 1474.9Z" fill="#B7B6B6"/>
<path d="M872.688 1391.64L872.824 1393.49C873.986 1392.39 874.447 1391.33 876.097 1391.33C876.097 1392.79 876.187 1392 875.707 1393.69L876.39 1396.09C877.037 1398.82 875.707 1403.1 875.111 1405.83C872.692 1416.93 868.71 1427.2 868.082 1438.66C867.96 1440.87 867.56 1443.3 868.392 1445.36C865.06 1450.15 860.416 1454.85 855.737 1458.25L850.967 1461.78L849.813 1462.55L844.686 1465.64C842.516 1466.93 840.253 1467.68 838.241 1469.25C812.902 1478.01 783.097 1482.36 756.39 1480.57C743.568 1479.71 731.771 1477.24 719.2 1474.9C713.79 1472.54 707.871 1471.5 702.471 1468.91C695.957 1465.8 690.145 1460.43 684.707 1455.72C677.322 1449.33 669.705 1442.95 663.673 1435.21C664.64 1434.48 664.724 1434.56 665.352 1433.56C668.627 1428.33 661.353 1412.23 659.712 1406.27C659.062 1403.92 658.078 1398.27 659.261 1396.01L661.317 1392.41C694.628 1420.08 744.931 1432.12 787.686 1428.09C819.372 1425.1 848.473 1411.97 872.688 1391.64Z" fill="#D3D2D2"/>
<path d="M514.398 799.771C519.281 791.893 528.732 784.722 535.933 778.969C580.551 743.31 637.304 718.74 692.693 705.847C741.878 694.399 795.335 691.757 845.077 701.473C866.042 705.568 886.09 712.058 905.929 719.921C923.465 726.867 940.617 734.667 956.632 744.691C974.913 756.135 993.787 769.827 1009.62 784.498C1014.79 789.289 1019.1 794.877 1024.21 799.649C1025.53 800.878 1026.18 802.06 1026.99 803.66C1039.96 813.274 1051.24 824.445 1061.7 836.722C1066.99 842.928 1071.83 849.948 1077.78 855.515C1081.1 856.701 1084.53 861.446 1086.67 864.201C1099.5 880.713 1108.03 900.005 1118.34 918.077C1125.88 931.301 1134.82 943.401 1145.02 954.68C1152.58 963.042 1160.25 971.261 1168.51 978.945L1195.57 1002.93C1203.06 1009.44 1212.94 1016.87 1217.38 1025.85C1221.75 1034.71 1224.17 1045.74 1226.63 1055.29L1236.9 1093.73L1241.95 1110.11C1242.88 1112.94 1244.4 1116.34 1244.72 1119.26C1241.03 1113.65 1237.41 1107.98 1233.11 1102.81C1228.77 1097.6 1223.83 1092.8 1219.74 1087.39C1216.74 1083.42 1214.37 1079.03 1211.68 1074.85C1209.98 1074.95 1209.92 1074.67 1208.56 1075.85C1197.15 1052.67 1186.75 1031.8 1168.75 1012.74C1164.82 1008.59 1159.95 1003.33 1154.93 1000.56L1158.32 1059.29C1158.84 1064.79 1159.52 1070.45 1160.65 1075.85C1161.25 1078.68 1162.62 1081.83 1162.42 1084.72L1160.49 1081.31C1153.24 1069.21 1139.99 1062.87 1126.74 1059.52C1110.73 1055.47 1093.34 1055.38 1076.97 1056.41C1036.7 1058.94 994.568 1069.92 959.859 1090.97C940.925 1102.44 925.72 1117.22 920.408 1139.27C918.159 1148.6 919.154 1157.58 921.381 1166.82C927.026 1190.23 940.024 1212.26 952.503 1232.63C933.245 1215.92 912.977 1200.77 892.426 1185.71C873.863 1172.11 852.399 1153.31 829.612 1148.22C819.001 1145.85 808.612 1146.97 799.499 1153.07C780.647 1165.69 771.681 1191.22 767.9 1212.47C765.911 1191.96 754.328 1167.59 739.682 1152.88C732.821 1145.99 724.244 1141.87 714.452 1141.95C706.273 1142.02 698.84 1144.89 691.7 1148.63C670.344 1159.82 650.662 1176.91 631.726 1191.83C614.408 1205.48 596.594 1218.46 581.127 1234.26C582.672 1229.06 589.056 1222.08 592.048 1217.26C600.974 1202.86 607.965 1188.8 613.005 1172.62C616.353 1161.88 618.83 1151.02 616.952 1139.72C614.023 1122.11 599.733 1106.45 585.717 1096.48C573.832 1088.02 560.022 1081.86 546.511 1076.53C506.427 1060.72 459.585 1051.92 416.668 1059.33C400.223 1062.17 383.731 1067.4 373.777 1081.62L377.562 1004C373.59 1006.72 369.558 1011.9 366.291 1015.56C354.805 1028.42 344.424 1041.98 334.648 1056.17C331.419 1060.86 328.756 1066.33 325.232 1070.74L324.614 1071.46L323.036 1071.36C311.478 1081.7 300.71 1092.72 290.509 1104.41L276.987 1120.82L285.986 1086.44L296.639 1050.87C299.049 1043.91 301.342 1036.7 305.307 1030.43C310.536 1022.17 320.77 1016.06 328.643 1010.56C339.441 1003.01 350.502 995.627 360.676 987.242C371.553 978.277 381.291 967.845 390.755 957.424C412.637 933.327 425.964 903.075 443.203 875.681C447.694 868.546 452.168 860.169 457.989 854.089C474.319 832.627 491.014 813.785 514.398 799.771Z" fill="url(#paint17_linear_1201_82)"/>
<path d="M966.124 949.233C970.271 947.601 973.714 945.234 977.662 943.437C982.131 941.403 986.925 939.003 990.95 936.185L991.641 935.675L991.775 937.311C987.602 940.108 979.543 942.909 976.597 946.584L977.403 947.262C976.683 948.809 975.862 949.654 974.629 950.82L974.622 951.463L972.413 952.564C967.725 953.179 963.282 955.217 958.536 955.477L958.236 954.869C960.364 952.038 963.067 950.839 966.124 949.233Z" fill="#393B46"/>
<path d="M991.775 937.31C1005.57 929.733 1016.53 922.013 1032.34 918.568C1053.36 913.986 1068.88 919.671 1088.07 927.267C1093.23 929.309 1099.23 930.762 1103.92 933.662L1106.91 934.247C1104.27 935.876 1100.96 935.778 1098.03 936.738C1090.71 939.13 1083.79 942.653 1076.47 945.043C1071.32 946.723 1065.06 947.075 1060.22 949.283C1059.45 949.637 1058.56 950.566 1057.96 951.122C1054.03 952.18 1049.59 951.753 1045.52 951.692L1016.08 950.486L972.413 952.564L974.622 951.463L974.629 950.82C975.862 949.654 976.683 948.809 977.403 947.262L976.597 946.584C979.543 942.909 987.602 940.107 991.775 937.31Z" fill="#747373"/>
<path d="M977.403 947.262C984.394 944.588 992.817 943.548 1000.22 942.691C1020.14 940.378 1040.03 941.581 1059.88 939.543C1074.75 938.017 1088.88 933.264 1103.92 933.662L1106.91 934.247C1104.27 935.876 1100.96 935.778 1098.03 936.738C1090.71 939.13 1083.79 942.653 1076.47 945.043C1071.32 946.723 1065.06 947.075 1060.22 949.283C1059.45 949.637 1058.56 950.566 1057.96 951.122C1054.03 952.18 1049.59 951.753 1045.52 951.692L1016.08 950.486L972.413 952.564L974.622 951.463L974.629 950.82C975.862 949.654 976.683 948.809 977.403 947.262Z" fill="#2A2B36"/>
<path d="M902.131 987.838C907.056 986.838 910.634 982.885 914.413 979.746C927.688 968.722 938.988 956.613 951.027 944.332C954.723 940.565 963.667 931.733 968.973 931.704C969.078 933.922 969.367 936.293 968.942 938.48C968.136 942.607 968.016 945.188 966.124 949.232C963.067 950.839 960.363 952.038 958.236 954.869L958.536 955.477C963.282 955.217 967.725 953.179 972.413 952.564L1016.08 950.486L1045.52 951.692C1049.59 951.753 1054.03 952.18 1057.96 951.122C1063.73 950.629 1069.84 950.212 1075.44 948.784C1079.3 947.8 1082.94 945.966 1086.76 944.787C1077.07 954.086 1068.64 964.379 1059.35 974.041L1025.83 1006.37C1004.7 1026.01 981.383 1048.33 953.431 1057.35C937.177 1062.59 919.826 1063.01 902.903 1062.64L885.123 1062.23C883.819 1062.24 880.69 1062.14 879.637 1062.69C876.517 1064.3 872.832 1068.17 870.28 1070.59L835.607 1110.51L823.295 1127.88C824.929 1121.67 828.004 1115.38 830.387 1109.39C830.739 1099.53 838.521 1086.94 842.171 1077.6C845.741 1068.47 848.693 1059.34 850.324 1049.66C851.132 1044.87 851.21 1039.68 851.093 1034.83C851.038 1032.51 850.217 1028.17 851.042 1026.11C851.547 1024.84 853.178 1023.14 854.013 1021.99C862.644 1020.76 869.246 1017.51 876.681 1013.24C886.561 1005.98 894.43 997.311 902.131 987.838Z" fill="#030713"/>
<path d="M854.014 1021.99C862.644 1020.76 869.246 1017.51 876.681 1013.24C875.136 1024.64 870.699 1035.36 866.072 1045.82C856.53 1067.38 844.114 1087.74 832.399 1108.16L830.387 1109.39C830.739 1099.53 838.522 1086.94 842.171 1077.6C845.741 1068.47 848.693 1059.34 850.324 1049.66C851.132 1044.87 851.21 1039.68 851.093 1034.83C851.038 1032.51 850.218 1028.17 851.042 1026.11C851.547 1024.84 853.178 1023.14 854.014 1021.99Z" fill="#2A2B36"/>
<path d="M1019.47 958.391L1027.42 957.831C1024.09 984.848 1013.38 1009.98 993.477 1029.03C964.204 1057.04 931.178 1058.96 892.847 1057.93L883.297 1057.77C893.327 1040.82 901.417 1022.95 913.634 1007.36C927.388 989.798 944.323 977.134 965.211 969.384C982.309 963.041 1001.43 960.59 1019.47 958.391Z" fill="#0090F9"/>
<path d="M429.432 937.335C427.767 936.595 428.362 937.176 427.56 935.685C436.48 932.261 444.3 926.883 452.872 922.805C474.254 912.634 496.915 913.674 518.717 921.599L519.413 920.689C527.43 924.566 534.304 929.448 542 933.719L546.831 936.973L550.715 929.448L555.742 933.266L576.163 951.476C583.282 957.238 591.068 961.603 598.543 966.799L617.279 979.924C621.138 982.526 624.841 985.523 629.58 986.057C639.998 997.134 650.626 1008.06 663.813 1015.85C666.01 1028.05 668.577 1040.78 672.823 1052.45C678.03 1066.76 685.626 1080.19 693.227 1093.33C700.348 1105.65 708.738 1118.43 712.978 1132.02L653.541 1062.63C650.664 1063.33 647.844 1063.56 644.896 1063.77C625.231 1065.16 602.289 1065.5 583.035 1060.74C562.966 1055.77 544.461 1044.03 528.286 1031.44C505.788 1013.94 485.11 993.207 465.305 972.71C455.969 963.05 447.455 952.176 437.344 943.351L437.227 943.37C434.375 941.525 431.825 939.759 429.432 937.335Z" fill="#030713"/>
<path d="M429.432 937.335C427.767 936.595 428.362 937.176 427.56 935.685C436.479 932.261 444.3 926.883 452.872 922.805C474.254 912.634 496.915 913.674 518.717 921.599L519.413 920.689C527.43 924.566 534.304 929.448 542 933.719L546.831 936.973L547.631 937.631C548.979 938.7 550.361 939.378 551.812 940.265C554.228 941.745 556.393 943.531 558.878 944.982C562.934 947.354 565.292 949.541 567.991 953.323C541.494 950.174 515.148 952.036 488.625 950.784L470.322 949.207C467.139 948.794 461.203 947.154 458.347 948.266L459.203 949.838L457.989 951.111C451.756 947.314 445.638 945.007 438.76 942.644L437.344 943.351L437.227 943.37C434.375 941.525 431.825 939.759 429.432 937.335Z" fill="#747373"/>
<path d="M518.717 921.599L519.413 920.689C527.43 924.566 534.304 929.448 542.001 933.719L546.831 936.973L547.631 937.631C548.979 938.7 550.361 939.378 551.812 940.265C554.228 941.745 556.393 943.531 558.879 944.982C562.934 947.354 565.292 949.541 567.991 953.323C541.494 950.174 515.148 952.036 488.626 950.784L470.322 949.207C467.139 948.794 461.203 947.154 458.347 948.266L459.204 949.838L457.989 951.111C451.756 947.314 445.638 945.007 438.76 942.644L437.344 943.351L437.227 943.37C434.375 941.525 431.825 939.759 429.432 937.335C437.455 939.227 446.159 939.187 454.377 939.428L503.531 939.967C517.451 940.099 533.414 939.826 546.745 944.246L562.442 949.97C560.194 947.589 556.873 945.815 554.172 943.97L538.761 933.171L518.717 921.599Z" fill="#2A2B36"/>
<path d="M503.274 962.53L552.601 969.097C585.227 976.61 610.618 993.149 627.683 1022.43C634.448 1034.04 639.808 1046.29 646.969 1057.69C607.647 1060.09 572.166 1059.25 539.815 1033.65C517.137 1015.71 506.571 990.708 503.274 962.53Z" fill="#0090F9"/>
<path d="M514.398 799.771C531.266 796.498 547.807 798.483 564.454 802.15C586.207 806.941 606.443 814.148 625.013 826.686C637.245 834.945 647.528 844.878 657.36 855.821C661.659 860.603 666.332 867.294 671.428 871.047C665.264 861.136 660.917 850.757 655.547 840.441C647.377 824.751 637.101 811.877 624.228 799.833C636.975 804.549 650.275 808.77 662.201 815.36C698.145 835.22 724.175 874.607 741.097 911.202C749.912 930.259 754.357 948.507 756.242 969.359C749.73 963.536 744.493 956.693 738.855 950.059L717.188 926.265C725.882 939.481 731.738 953.491 734.391 969.118C735.383 981.476 734.261 994.813 725.75 1004.64C719.422 1011.94 711.395 1016.23 702.176 1018.71L700.756 1019.11C688.118 1022.43 675.735 1020.54 663.813 1015.85C650.626 1008.06 639.998 997.135 629.58 986.057L617.526 969.219C610.093 957.739 604.109 945.584 598.311 933.222C592.813 921.497 588.338 910.508 586.829 897.55L585.503 897.009C585.811 911.223 587.291 925.745 590.399 939.621C587.901 937.619 585.918 934.645 583.878 932.148L570.602 915.634C549.747 889.953 528.341 865.541 511.203 837.097C494.222 834.549 480.179 844.05 465.962 851.434C463.582 852.673 460.56 854.904 457.989 854.089C474.319 832.626 491.014 813.785 514.398 799.771Z" fill="white"/>
<path d="M797.016 979.602L796.172 974.999C794.508 960.658 801.158 943.014 809.732 931.752L808.959 930.974L772.569 968.988C777.923 948.457 783.951 927.508 792.921 908.252C810.071 871.443 837.035 833.365 873.151 813.529C882.912 808.168 893.814 804.559 904.256 800.762L860.343 871.452C866.145 867.856 871.953 859.8 876.863 854.69C894.807 836.008 913.502 821.518 937.6 811.42C963.22 800.683 1000.63 792.921 1026.99 803.66C1039.96 813.274 1051.24 824.445 1061.7 836.721C1066.99 842.928 1071.83 849.948 1077.78 855.514L1075.84 856.269C1060.76 847.18 1042.5 839.118 1024.97 836.39C1008.3 865.675 985.631 888.584 963.397 913.462L937.357 944.496L943.643 885.152L940.812 892.446C938.812 908.99 933.412 923.266 927.003 938.512C919.704 955.875 911.737 971.609 902.131 987.838C894.43 997.311 886.562 1005.98 876.681 1013.24C869.246 1017.51 862.644 1020.76 854.013 1021.99C841.725 1022.56 830.94 1020.6 820.324 1014.2C807.569 1006.51 800.469 993.776 797.016 979.602Z" fill="white"/>
<defs>
<linearGradient id="paint0_linear_1201_82" x1="317.424" y1="321.553" x2="318.808" y2="335.825" gradientUnits="userSpaceOnUse">
<stop stop-color="#767476"/>
<stop offset="1" stop-color="#898989"/>
</linearGradient>
<linearGradient id="paint1_linear_1201_82" x1="1073.02" y1="555.131" x2="1117.03" y2="473.074" gradientUnits="userSpaceOnUse">
<stop stop-color="#1E202A"/>
<stop offset="1" stop-color="#393839"/>
</linearGradient>
<linearGradient id="paint2_linear_1201_82" x1="422.794" y1="372.582" x2="382.494" y2="477.577" gradientUnits="userSpaceOnUse">
<stop stop-color="#8F9091"/>
<stop offset="1" stop-color="#C2C0BF"/>
</linearGradient>
<linearGradient id="paint3_linear_1201_82" x1="1112.36" y1="380.984" x2="1162.93" y2="453.841" gradientUnits="userSpaceOnUse">
<stop stop-color="#999799"/>
<stop offset="1" stop-color="#C2C1C0"/>
</linearGradient>
<linearGradient id="paint4_linear_1201_82" x1="1330.12" y1="515.301" x2="1177.39" y2="664.486" gradientUnits="userSpaceOnUse">
<stop stop-color="#25272F"/>
<stop offset="1" stop-color="#43434F"/>
</linearGradient>
<linearGradient id="paint5_linear_1201_82" x1="766.085" y1="424.484" x2="767.444" y2="285.754" gradientUnits="userSpaceOnUse">
<stop stop-color="#007CE2"/>
<stop offset="1" stop-color="#49CBFF"/>
</linearGradient>
<linearGradient id="paint6_linear_1201_82" x1="1022.16" y1="477.211" x2="996.123" y2="515.523" gradientUnits="userSpaceOnUse">
<stop stop-color="#002C79"/>
<stop offset="1" stop-color="#004785"/>
</linearGradient>
<linearGradient id="paint7_linear_1201_82" x1="237.738" y1="1082.85" x2="221.971" y2="1014.02" gradientUnits="userSpaceOnUse">
<stop stop-color="#031C45"/>
<stop offset="1" stop-color="#003974"/>
</linearGradient>
<linearGradient id="paint8_linear_1201_82" x1="1031.01" y1="728.375" x2="907.814" y2="815.743" gradientUnits="userSpaceOnUse">
<stop stop-color="#003672"/>
<stop offset="1" stop-color="#1265A0"/>
</linearGradient>
<linearGradient id="paint9_linear_1201_82" x1="422.967" y1="1643.49" x2="497.136" y2="1247.72" gradientUnits="userSpaceOnUse">
<stop stop-color="#1F90E3"/>
<stop offset="1" stop-color="#54F9FF"/>
</linearGradient>
<linearGradient id="paint10_linear_1201_82" x1="785.754" y1="682.415" x2="786.044" y2="657.051" gradientUnits="userSpaceOnUse">
<stop stop-color="#0065B4"/>
<stop offset="1" stop-color="#1782CA"/>
</linearGradient>
<linearGradient id="paint11_linear_1201_82" x1="1142.29" y1="1555.78" x2="1052.61" y2="1309.99" gradientUnits="userSpaceOnUse">
<stop stop-color="#009BFF"/>
<stop offset="1" stop-color="#88FDFF"/>
</linearGradient>
<linearGradient id="paint12_linear_1201_82" x1="1099.22" y1="1417.89" x2="1084.47" y2="1125.64" gradientUnits="userSpaceOnUse">
<stop/>
<stop offset="1" stop-color="#2B2D34"/>
</linearGradient>
<linearGradient id="paint13_linear_1201_82" x1="766.333" y1="1276.62" x2="765.715" y2="1266" gradientUnits="userSpaceOnUse">
<stop stop-color="#CCCBC9"/>
<stop offset="1" stop-color="#F0EFF6"/>
</linearGradient>
<linearGradient id="paint14_linear_1201_82" x1="768.33" y1="1230.68" x2="766.166" y2="1251.41" gradientUnits="userSpaceOnUse">
<stop stop-color="#353536"/>
<stop offset="1" stop-color="#504F50"/>
</linearGradient>
<linearGradient id="paint15_linear_1201_82" x1="711.365" y1="1274.14" x2="1010.57" y2="1419.66" gradientUnits="userSpaceOnUse">
<stop stop-color="#7E7C7C"/>
<stop offset="1" stop-color="white"/>
</linearGradient>
<linearGradient id="paint16_linear_1201_82" x1="1023.91" y1="1380.66" x2="991.59" y2="1337.51" gradientUnits="userSpaceOnUse">
<stop stop-color="#606367"/>
<stop offset="1" stop-color="#E8DDD3"/>
</linearGradient>
<linearGradient id="paint17_linear_1201_82" x1="741.544" y1="697.642" x2="764.742" y2="1230.88" gradientUnits="userSpaceOnUse">
<stop stop-color="#393A3E"/>
<stop offset="1" stop-color="#5A5959"/>
</linearGradient>
</defs>
</svg>
