<svg width="41" height="38" viewBox="0 0 41 38" fill="none" xmlns="http://www.w3.org/2000/svg">
<path d="M30.0015 10.1053C28.1491 9.2572 26.1935 8.65555 24.1848 8.31569C23.9099 8.80708 23.6612 9.31265 23.4397 9.8303C21.3 9.50787 19.124 9.50787 16.9843 9.8303C16.7627 9.31271 16.5139 8.80714 16.2392 8.31569C14.2291 8.65842 12.2723 9.2615 10.418 10.1097C6.73685 15.5561 5.73894 20.8672 6.23789 26.1029C8.39369 27.6957 10.8066 28.9071 13.3719 29.6843C13.9495 28.9074 14.4606 28.0833 14.8998 27.2206C14.0656 26.909 13.2605 26.5246 12.4937 26.0719C12.6955 25.9255 12.8929 25.7747 13.0836 25.6283C15.3147 26.6776 17.7498 27.2216 20.2153 27.2216C22.6808 27.2216 25.1159 26.6776 27.347 25.6283C27.54 25.7858 27.7373 25.9366 27.9369 26.0719C27.1687 26.5254 26.3621 26.9105 25.5264 27.2228C25.9651 28.0851 26.4762 28.9086 27.0543 29.6843C29.6217 28.9102 32.0365 27.6994 34.1927 26.1051C34.7782 20.0334 33.1926 14.7711 30.0015 10.1053ZM15.5318 22.883C14.1414 22.883 12.9926 21.6212 12.9926 20.0689C12.9926 18.5166 14.1014 17.2437 15.5273 17.2437C16.9532 17.2437 18.0931 18.5166 18.0687 20.0689C18.0443 21.6212 16.9488 22.883 15.5318 22.883ZM24.8988 22.883C23.5062 22.883 22.3619 21.6212 22.3619 20.0689C22.3619 18.5166 23.4707 17.2437 24.8988 17.2437C26.327 17.2437 27.4579 18.5166 27.4335 20.0689C27.4091 21.6212 26.3159 22.883 24.8988 22.883Z" fill="white"/>
</svg>
