<svg width="46" height="38" viewBox="0 0 46 38" fill="none" xmlns="http://www.w3.org/2000/svg">
<path d="M38.3226 11.0916C38.1369 10.3954 37.7731 9.76055 37.2677 9.25076C36.7622 8.74098 36.1328 8.37413 35.4426 8.18697C32.901 7.5 22.716 7.5 22.716 7.5C22.716 7.5 12.5304 7.5 9.99119 8.18697C9.30098 8.37428 8.67168 8.74126 8.16633 9.25115C7.66098 9.76104 7.29732 10.3959 7.11179 11.0922C6.43079 13.6519 6.43079 19 6.43079 19C6.43079 19 6.43079 24.3469 7.11179 26.9084C7.29746 27.6046 7.66125 28.2395 8.16671 28.7492C8.67216 29.259 9.30154 29.6259 9.99179 29.813C12.5292 30.5 22.7154 30.5 22.7154 30.5C22.7154 30.5 32.9004 30.5 35.4396 29.813C36.1299 29.6258 36.7593 29.2589 37.2648 28.749C37.7703 28.2391 38.134 27.6041 38.3196 26.9078C39 24.3481 39 19 39 19C39 19 39.0006 13.6531 38.3226 11.0916ZM19.4586 23.9281V14.0719L27.9192 19L19.4574 23.9281H19.4586Z" fill="white"/>
</svg>
